<svg width="96" height="96" viewBox="0 0 96 96" fill="none" xmlns="http://www.w3.org/2000/svg">
<circle cx="48" cy="48" r="48" fill="#3A3E48"/>
<path d="M67.0229 47.5015L68.9094 42.581C69.1163 42.0382 68.9551 41.4228 68.5009 41.0546L64.4108 37.7385L63.5831 32.5332C63.4917 31.9581 63.0403 31.5093 62.4652 31.4179L57.2599 30.5902L53.9464 26.4974C53.5809 26.0433 52.9521 25.882 52.4227 26.089L47.4995 27.9782L42.579 26.0917C42.0335 25.882 41.4235 26.0487 41.0553 26.5001L37.7392 30.5929L32.5339 31.4206C31.9615 31.512 31.51 31.9634 31.4186 32.5358L30.5909 37.7412L26.4981 41.0573C26.0467 41.4228 25.8827 42.0382 26.0897 42.581L27.9762 47.5015L26.0897 52.422C25.8801 52.9648 26.0467 53.5802 26.4981 53.9457L30.5909 57.2592L31.4186 62.4645C31.51 63.0396 31.9588 63.491 32.5339 63.5824L37.7392 64.4101L41.0553 68.5002C41.4235 68.957 42.0389 69.1183 42.5817 68.9087L47.4995 67.0249L52.42 68.9114C52.5759 68.9705 52.7371 69 52.901 69C53.2961 69 53.6857 68.8254 53.9464 68.5002L57.2599 64.4101L62.4652 63.5824C63.0403 63.491 63.4917 63.0396 63.5831 62.4645L64.4108 57.2592L68.5009 53.9457C68.9551 53.5775 69.1163 52.9648 68.9094 52.422L67.0229 47.5015Z" fill="#5496CE"/>
<path d="M35.406 43.4705C36.1477 43.4705 36.7496 42.8686 36.7496 42.1269C36.7496 41.3852 36.1477 40.7832 35.406 40.7832H32.7187C31.977 40.7832 31.375 41.3852 31.375 42.1269V52.8761C31.375 53.6178 31.977 54.2198 32.7187 54.2198C33.4604 54.2198 34.0623 53.6178 34.0623 52.8761V48.8452H35.406C36.1477 48.8452 36.7496 48.2432 36.7496 47.5015C36.7496 46.7598 36.1477 46.1578 35.406 46.1578H34.0623V43.4705H35.406Z" fill="#FAFAFA"/>
<path d="M54.2185 43.4705C54.9602 43.4705 55.5621 42.8686 55.5621 42.1269C55.5621 41.3852 54.9602 40.7832 54.2185 40.7832H51.5312C50.7895 40.7832 50.1875 41.3852 50.1875 42.1269V52.8761C50.1875 53.6178 50.7895 54.2198 51.5312 54.2198H54.2185C54.9602 54.2198 55.5621 53.6178 55.5621 52.8761C55.5621 52.1344 54.9602 51.5325 54.2185 51.5325H52.8748V48.8452H54.2185C54.9602 48.8452 55.5621 48.2432 55.5621 47.5015C55.5621 46.7598 54.9602 46.1578 54.2185 46.1578H52.8748V43.4705H54.2185Z" fill="#FAFAFA"/>
<path d="M62.281 48.8452C63.0227 48.8452 63.6246 48.2432 63.6246 47.5015C63.6246 46.7598 63.0227 46.1578 62.281 46.1578H60.9373V43.4705H62.281C63.0227 43.4705 63.6246 42.8686 63.6246 42.1269C63.6246 41.3852 63.0227 40.7832 62.281 40.7832H59.5937C58.852 40.7832 58.25 41.3852 58.25 42.1269V52.8761C58.25 53.6178 58.852 54.2198 59.5937 54.2198H62.281C63.0227 54.2198 63.6246 53.6178 63.6246 52.8761C63.6246 52.1344 63.0227 51.5325 62.281 51.5325H60.9373V48.8452H62.281Z" fill="#FAFAFA"/>
<path d="M47.4994 44.8142C47.4994 42.5918 45.6909 40.7832 43.4685 40.7832H40.7812C40.0395 40.7832 39.4375 41.3852 39.4375 42.1269V52.8761C39.4375 53.6178 40.0395 54.2198 40.7812 54.2198C41.5229 54.2198 42.1248 53.6178 42.1248 52.8761V49.74L45.0809 53.6823C45.3442 54.0344 45.7473 54.2198 46.1558 54.2198C46.4353 54.2198 46.7174 54.1338 46.9593 53.9511C47.5532 53.505 47.6741 52.6638 47.228 52.0699L44.6616 48.6436C46.2982 48.133 47.4994 46.6201 47.4994 44.8142ZM43.4685 46.1578H42.1248V43.4705H43.4685C44.2102 43.4705 44.8121 44.0725 44.8121 44.8142C44.8121 45.5559 44.2102 46.1578 43.4685 46.1578Z" fill="#FAFAFA"/>
</svg>
