<svg width="96" height="96" viewBox="0 0 96 96" fill="none" xmlns="http://www.w3.org/2000/svg">
<circle cx="48" cy="48" r="48" fill="#3A3E48"/>
<path d="M54.3789 26.7038L48.3296 23.1931C47.8862 22.9356 47.3419 22.9356 46.8984 23.1931L40.8672 26.6934L47.6157 30.5931L54.3789 26.7038Z" fill="#F4CD1E"/>
<path d="M39.4453 68.2427C39.4453 68.7684 39.7226 69.2537 40.172 69.5145L46.1761 72.9989V65.1883L39.4453 61.2988V68.2427Z" fill="#F4CD1E"/>
<path d="M49.0547 72.9995L55.0587 69.515C55.5081 69.2543 55.7855 68.7689 55.7855 68.2433V61.3203L49.0547 65.1909V72.9995Z" fill="#F4CD1E"/>
<path d="M23 52.2133C23 52.739 23.2773 53.2243 23.7267 53.4851L29.7308 56.9696V49.159L23 45.2695V52.2133Z" fill="#F4CD1E"/>
<path d="M65.4062 49.1616V56.9702L71.4103 53.4857C71.8597 53.225 72.137 52.7396 72.137 52.214V45.291L65.4062 49.1616Z" fill="#F4CD1E"/>
<path d="M46.1687 40.9403V33.1297L39.4379 29.2402V36.184C39.4379 36.7097 39.7152 37.195 40.1647 37.4558L40.6818 37.6883L35.0467 41.0588L31.8843 39.2235C31.4409 38.9661 30.8966 38.9661 30.4531 39.2235L24.4219 42.7238L31.1704 46.6235L43.1484 39.1875L46.1687 40.9403Z" fill="#F4CD1E"/>
<path d="M64.9344 39.2235C64.491 38.9661 63.9467 38.9661 63.5033 39.2235L60.3409 41.0588L54.8643 37.6262L55.2228 37.4558C55.6722 37.195 55.9495 36.7096 55.9495 36.184V29.2402L49.2188 33.1297V40.9403L52.4289 39.0773L64.217 46.6235L70.9656 42.7238L64.9344 39.2235Z" fill="#F4CD1E"/>
<path d="M55.7903 52.4403L50.1118 56.2852L48.3328 55.2528C47.8895 54.9954 47.3452 54.9954 46.9017 55.2528L45.1228 56.2852L39.348 52.3751V45.2904L32.6172 49.161V56.9696L37.0951 54.3709L42.3226 57.9103L40.8705 58.7531L47.619 62.6528L54.3822 58.7636L52.912 57.9103L58.0951 54.4009L62.5212 56.9696V49.159L55.7904 45.2695V52.4403H55.7903Z" fill="#F4CD1E"/>
</svg>
