<svg width="48" height="36" viewBox="0 0 48 36" fill="none" xmlns="http://www.w3.org/2000/svg">
<g clip-path="url(#clip0_11020_3774)">
<rect width="48" height="36" rx="4" fill="white"/>
<g clip-path="url(#clip1_11020_3774)">
<path d="M-3 0H51V36H-3V0Z" fill="white"/>
<path d="M-3 0H24V36H-3V0Z" fill="#006633"/>
<path d="M31.7942 13.5C30.8036 11.7842 29.2745 10.4433 27.4442 9.68509C25.6138 8.92691 23.5843 8.7939 21.6706 9.30667C19.7569 9.81945 18.0659 10.9494 16.8598 12.5212C15.6537 14.0929 15 16.0188 15 18C15 19.9812 15.6537 21.9071 16.8598 23.4789C18.0659 25.0507 19.7569 26.1806 21.6706 26.6933C23.5843 27.2061 25.6138 27.0731 27.4442 26.3149C29.2745 25.5567 30.8036 24.2158 31.7942 22.5C30.8619 23.6645 29.5909 24.5106 28.1569 24.9215C26.7229 25.3324 25.1967 25.2877 23.7892 24.7937C22.3816 24.2996 21.1623 23.3806 20.2997 22.1636C19.4371 20.9466 18.9737 19.4917 18.9737 18C18.9737 16.5083 19.4371 15.0534 20.2997 13.8364C21.1623 12.6194 22.3816 11.7004 23.7892 11.2063C25.1967 10.7123 26.7229 10.6676 28.1569 11.0785C29.5909 11.4894 30.8619 12.3355 31.7942 13.5ZM32.1406 18L24 15.355L29.0312 22.2798V13.7203L24 20.645L32.1406 18Z" fill="#D21034"/>
</g>
</g>
<rect x="0.5" y="0.5" width="47" height="35" rx="3.5" stroke="#DDDFE3"/>
<defs>
<clipPath id="clip0_11020_3774">
<rect width="48" height="36" rx="4" fill="white"/>
</clipPath>
<clipPath id="clip1_11020_3774">
<rect width="54" height="36" fill="white" transform="translate(-3)"/>
</clipPath>
</defs>
</svg>
