<svg width="48" height="36" viewBox="0 0 48 36" fill="none" xmlns="http://www.w3.org/2000/svg">
<g clip-path="url(#clip0_11020_3766)">
<rect width="48" height="36" rx="4" fill="white"/>
<g clip-path="url(#clip1_11020_3766)">
<path d="M49.4 0H-1V36H49.4V0Z" fill="#FF0000"/>
<path fill-rule="evenodd" clip-rule="evenodd" d="M25.562 27.2009C25.2458 26.9267 24.8624 26.3713 24.8678 25.8361C24.896 25.4369 25.1698 25.205 25.3467 25.6923C25.5967 26.2301 26.133 27.1194 26.872 26.5977C27.1949 26.3607 27.1899 26.0118 26.7472 26.0518C26.2005 26.0144 25.8646 25.7136 25.62 24.9391C25.5755 24.5132 25.7527 24.5238 25.9999 24.7978C26.3177 25.1625 26.9502 25.7136 27.648 25.4182C28.0358 25.2557 28.1452 24.9204 27.5594 24.8378C27.0048 24.8459 26.552 24.4864 26.1014 23.9379C25.8543 23.6345 26.2187 23.3282 26.4376 23.5865C26.6327 23.7541 26.9061 24.063 27.1403 24.1056C27.4112 24.1588 27.747 24.1323 28.119 23.9354C28.5201 23.5997 28.3898 23.3575 27.903 23.3018C27.5256 23.3205 27.3201 23.4639 26.8333 23.1393C25.9583 22.5478 25.2627 21.7576 25.154 20.8071C25.0826 20.182 25.4188 19.9927 25.6982 20.0646C26.4583 20.2601 26.9556 21.6806 27.4815 22.4609C27.6537 22.6858 27.8119 22.6895 27.9238 22.6201C28.1348 22.4393 28.3032 22.2906 28.5142 22.0884C28.5142 22.0884 30.0614 22.3664 30.904 22.641L29.9658 22.9744C29.6106 22.7783 29.1819 22.9898 29.1819 23.3301C28.8458 23.5625 28.8728 23.835 29.0178 24.098C29.0621 23.9149 29.0998 23.6771 29.3653 23.6454C29.7443 23.8022 30.1859 23.5785 30.1859 23.2825L31.2926 22.8475L32.4106 23.4805C32.4106 23.9084 32.816 24.0439 33.2379 23.9284C33.4366 24.0519 33.5644 24.266 33.6318 24.495C33.7562 24.1647 33.7302 23.9316 33.5353 23.7695C33.6472 23.3425 33.0488 22.9319 32.5856 23.2053L31.7812 22.7435L33.158 22.7049C33.3178 22.9878 33.8953 23.0034 34.0638 22.7049C34.2078 22.6655 34.3295 22.6404 34.6102 22.8491C34.5218 22.5114 34.3496 22.3671 34.0913 22.3671C33.8951 22.0194 33.1848 22.0209 33.0823 22.4124L31.6484 22.4523L32.4992 21.8466C32.8168 22.0341 33.2624 21.8256 33.3516 21.485C33.4782 21.3345 33.6344 21.2638 33.9417 21.3659C33.7833 21.0854 33.5601 21.0016 33.157 21.1921C32.7893 20.9134 32.3046 21.2514 32.3782 21.5319L31.2462 22.3021C30.4246 22.0569 28.9366 21.6751 28.9366 21.6751C29.1137 21.4888 29.2935 21.3156 29.4704 21.1267C29.5342 21.016 29.4366 20.8871 29.301 20.8603C27.9733 20.5862 27.2132 20.051 26.7526 18.6907C26.5599 18.121 26.9764 17.9507 27.1196 18.2992C27.3176 18.7839 27.536 19.3136 28.1322 19.7238C28.3378 19.8676 28.9498 19.7502 28.5878 19.4068C28.2129 19.0979 28.0515 18.9651 27.8668 18.2142C27.8668 17.8337 28.2546 17.6631 28.4709 18.0278C28.7023 18.7758 28.726 19.0979 29.145 19.5799C29.4624 19.9446 29.8764 20.1897 30.082 20.1842C30.4519 20.179 30.8242 19.7794 30.3295 19.4893C29.6031 19.1992 29.3376 18.8026 29.2307 18.4243C29.1137 17.7644 29.2415 17.4448 29.6397 17.7695C30.2043 18.4111 31.2823 19.6064 31.847 20.1629C32.4798 20.6475 33.2059 20.6633 33.7838 20.171C34.1146 19.7902 33.9972 19.3804 33.4793 19.4681C32.3105 19.5667 31.4255 18.9864 30.4544 17.418C30.2643 17.064 30.2122 16.5555 30.6316 16.9338C31.1155 17.5886 31.8211 18.1451 32.4773 18.3847C33.1359 18.6214 33.6797 18.4906 33.8906 18.2835C34.1449 18.0293 34.078 17.389 33.6381 17.5434C33.2762 17.6712 32.7661 17.7031 32.2352 17.498C31.7038 17.2903 31.1521 16.8432 30.5663 16.0845C30.3657 15.656 30.431 15.2939 30.8371 15.5147C31.7978 16.3296 33.0369 16.9895 33.6693 16.593C34.1354 16.3028 34.1433 15.5573 33.5524 15.6053C32.3625 15.7675 31.9123 15.5041 30.7693 14.4953C30.5092 14.3008 30.5272 13.8081 30.9411 14.1225C31.9018 14.7429 33.2137 14.985 33.7293 14.6603C34.1928 14.3701 34.125 13.4834 33.344 13.7975C32.7191 14.1782 32.0292 14.1676 30.647 13.18C30.2983 12.8899 30.5584 12.5116 30.8447 12.6741C31.9564 13.3077 33.5757 13.5792 33.9973 12.2908C34.1612 11.7984 33.8646 11.5108 33.4297 11.8516C32.4744 12.7354 31.3914 12.3014 30.7851 11.8567C30.6115 11.7544 30.293 11.2364 30.8525 11.3325C32.3001 11.6627 33.7318 11.3751 33.9922 10.3501C34.1433 10.0173 33.8462 9.42887 33.3178 9.92155C32.6229 10.6083 31.8861 10.6321 30.9595 10.627C30.4881 10.5284 30.4831 10.0092 30.8787 9.9322C31.6102 9.94794 32.3313 9.62841 32.9092 9.30374C33.4742 8.97907 33.9427 8.52378 34.0913 7.8928C34.1823 7.32853 33.6382 6.72949 33.3103 7.32853C32.826 8.20425 31.7534 9.02968 30.5609 9.17867C30.4988 9.07478 30.3424 8.80849 30.1498 8.88331C29.7997 9.01909 29.3825 9.20073 28.9529 9.40475C28.027 9.84441 27.6411 10.0563 27.7523 10.8159C27.8684 11.6086 27.2573 12.1095 26.7526 11.9712C26.3123 11.8527 26.0695 11.4551 26.1484 10.7653C26.2116 10.2158 26.7633 9.55101 27.385 9.20243C27.7875 8.97717 28.3952 8.85395 29.1267 8.69143C29.5718 8.60375 29.7986 8.43059 29.8244 8.24936C29.8244 8.24936 29.5201 8.47204 29.0331 8.43861C28.8028 8.42215 28.6485 8.32084 28.5904 8.21747C28.7597 8.18301 29.0668 8.22297 29.3427 8.22297C29.7096 8.22004 30.5616 8.13786 30.7876 7.62126C30.858 7.28049 30.634 7.21924 30.4257 7.4375C30.2018 7.67341 30.1096 7.88545 29.6604 7.96465C29.3871 8.01273 29.1137 8.06853 28.7622 7.98342C28.9602 7.74823 29.2748 7.5076 29.5432 7.55193C29.6314 7.56664 29.7487 7.6481 29.8427 7.79447C29.9001 7.42172 29.7982 7.00093 28.8013 7.17666C28.8171 6.89457 28.2233 6.77202 27.8668 6.77752C27.6638 6.78266 27.2498 6.90265 26.9506 7.04608C26.4767 7.19281 26.0082 7.29921 25.456 7.33922C25.7764 7.61323 25.8364 7.62938 26.1563 7.86086C25.6724 8.04174 25.2974 8.41449 25.1282 8.65955C25.1282 8.65955 25.6932 8.64376 25.8364 8.70758C25.2451 8.88038 24.9796 8.98422 24.6672 9.30374C24.7766 9.32246 24.9405 9.35435 25.0109 9.38114C25.0841 9.40758 25.065 9.45561 25.0058 9.50077C24.8785 9.59797 24.3523 10.2091 24.1987 10.3555C24.0452 10.2091 23.5189 9.59797 23.3916 9.50077C23.3324 9.45561 23.3134 9.40758 23.3866 9.38114C23.4569 9.3544 23.6208 9.32246 23.7302 9.30374C23.4178 8.98422 23.1523 8.88038 22.5611 8.70758C22.7043 8.64376 23.2693 8.65955 23.2693 8.65955C23.0999 8.41449 22.725 8.04174 22.2411 7.86086C22.5611 7.62938 22.621 7.61324 22.9413 7.33917C22.3893 7.29921 21.9207 7.19281 21.4468 7.04603C21.1477 6.90265 20.7337 6.78266 20.5306 6.77752C20.1741 6.77202 19.5803 6.89457 19.5962 7.17661C18.5992 7.00093 18.4973 7.42172 18.5547 7.79447C18.6487 7.6481 18.766 7.56664 18.8543 7.55198C19.1226 7.5076 19.4372 7.74823 19.6353 7.98342C19.2837 8.06853 19.0103 8.01273 18.737 7.9647C18.2878 7.8855 18.1956 7.67341 17.9717 7.43756C17.7634 7.21924 17.5395 7.28049 17.6098 7.62131C17.8358 8.13786 18.6877 8.22004 19.0548 8.22297C19.3306 8.22297 19.6377 8.18296 19.8071 8.21747C19.749 8.32094 19.5947 8.42215 19.3644 8.43861C18.8773 8.47204 18.573 8.24936 18.573 8.24936C18.5989 8.43059 18.8255 8.6037 19.2708 8.69143C20.0023 8.85395 20.6099 8.97722 21.0124 9.20248C21.6341 9.55101 22.1859 10.2158 22.249 10.7653C22.3279 11.455 22.0851 11.8527 21.6449 11.9712C21.1402 12.1095 20.529 11.6086 20.6451 10.8159C20.7563 10.0563 20.3704 9.84441 19.4445 9.40475C19.015 9.20073 18.5978 9.01904 18.2477 8.88326C18.055 8.80849 17.8986 9.07483 17.8365 9.17867C16.6441 9.02968 15.5715 8.20425 15.0872 7.32853C14.7593 6.72949 14.2151 7.32853 14.3062 7.8928C14.4547 8.52383 14.9232 8.97907 15.4882 9.30374C16.0662 9.62841 16.7872 9.94794 17.5187 9.9322C17.9144 10.0092 17.9094 10.5284 17.438 10.627C16.5113 10.6321 15.7745 10.6083 15.0796 9.92155C14.5512 9.42887 14.2542 10.0173 14.4052 10.3501C14.6657 11.375 16.0974 11.6627 17.5449 11.3325C18.1044 11.2363 17.7859 11.7544 17.6123 11.8568C17.0061 12.3014 15.923 12.7354 14.9677 11.8516C14.5329 11.5108 14.2362 11.7984 14.4002 12.2908C14.8217 13.5792 16.441 13.3077 17.5528 12.6741C17.8391 12.5116 18.0991 12.8899 17.7505 13.18C16.3682 14.1676 15.6784 14.1782 15.0534 13.7975C14.2725 13.4834 14.2047 14.3701 14.6682 14.6603C15.1837 14.985 16.4956 14.7429 17.4563 14.1225C17.8703 13.8081 17.8882 14.3008 17.6281 14.4953C16.4852 15.5041 16.0349 15.7675 14.845 15.6053C14.2541 15.5573 14.2621 16.3027 14.7281 16.593C15.3605 16.9895 16.5996 16.3296 17.5603 15.5147C17.9664 15.2939 18.0317 15.656 17.8311 16.0845C17.2454 16.8432 16.6935 17.2903 16.1623 17.498C15.6314 17.7031 15.1213 17.6712 14.7593 17.5435C14.3194 17.389 14.2526 18.0293 14.5067 18.2835C14.7178 18.4906 15.2615 18.6214 15.9202 18.3847C16.5763 18.1451 17.2819 17.5886 17.7659 16.9338C18.1852 16.5555 18.1332 17.064 17.9431 17.418C16.972 18.9864 16.087 19.5667 14.9182 19.4681C14.4002 19.3804 14.2829 19.7902 14.6136 20.171C15.1916 20.6633 15.9176 20.6475 16.5504 20.1629C17.1151 19.6064 18.193 18.4111 18.7577 17.7695C19.1559 17.4448 19.2837 17.7644 19.1667 18.4243C19.0598 18.8026 18.7944 19.1992 18.0679 19.4893C17.5732 19.7795 17.9455 20.179 18.3154 20.1841C18.521 20.1897 18.935 19.9446 19.2525 19.5799C19.6715 19.0979 19.6952 18.7758 19.9265 18.0278C20.1429 17.6631 20.5306 17.8337 20.5306 18.2141C20.3459 18.9651 20.1845 19.0979 19.8096 19.4067C19.4475 19.7502 20.0596 19.8675 20.2652 19.7238C20.8614 19.3136 21.0798 18.7839 21.2778 18.2992C21.421 17.9507 21.8375 18.121 21.6449 18.6907C21.1843 20.051 20.4241 20.5862 19.0964 20.8603C18.9608 20.8871 18.8632 21.016 18.927 21.1267C19.1039 21.3156 19.2837 21.4887 19.4609 21.6751C19.4609 21.6751 17.9728 22.0569 17.1512 22.3021L16.0192 21.5319C16.0928 21.2514 15.6081 20.9134 15.2404 21.192C14.8372 21.0016 14.6141 21.0854 14.4557 21.3659C14.763 21.2638 14.9192 21.3345 15.0458 21.485C15.135 21.8256 15.5806 22.0341 15.8982 21.8465L16.749 22.4523L15.3152 22.4124C15.2126 22.021 14.5023 22.0194 14.306 22.3671C14.0479 22.3671 13.8756 22.5114 13.7871 22.8491C14.0679 22.6404 14.1896 22.6655 14.3336 22.7049C14.5021 23.0034 15.0796 22.9878 15.2393 22.7049L16.6161 22.7435L15.8118 23.2053C15.3486 22.9319 14.7502 23.3425 14.8621 23.7695C14.6672 23.9315 14.6411 24.1647 14.7656 24.495C14.8329 24.266 14.9608 24.0519 15.1596 23.9284C15.5813 24.0439 15.9868 23.9084 15.9868 23.4804L17.1048 22.8475L18.2116 23.2825C18.2116 23.5785 18.6531 23.8022 19.0321 23.6454C19.2976 23.6771 19.3353 23.9149 19.3796 24.098C19.5246 23.835 19.5516 23.5625 19.2155 23.3301C19.2155 22.9898 18.7868 22.7782 18.4316 22.9744L17.4934 22.641C18.336 22.3664 19.8832 22.0884 19.8832 22.0884C20.0942 22.2905 20.2626 22.4393 20.4736 22.6202C20.5856 22.6895 20.7437 22.6858 20.9159 22.4609C21.4418 21.6806 21.9391 20.2601 22.6992 20.0646C22.9787 19.9926 23.3148 20.182 23.2434 20.8071C23.1347 21.7576 22.4391 22.5479 21.5642 23.1393C21.0774 23.4639 20.8718 23.3205 20.4944 23.3018C20.0076 23.3575 19.8774 23.5997 20.2784 23.9354C20.6505 24.1323 20.9862 24.1588 21.2571 24.1056C21.4914 24.063 21.7647 23.7541 21.9599 23.5865C22.1787 23.3282 22.5432 23.6345 22.296 23.9379C21.8454 24.4864 21.3927 24.8459 20.838 24.8378C20.2522 24.9204 20.3617 25.2557 20.7495 25.4182C21.4472 25.7136 22.0797 25.1625 22.3975 24.7978C22.6447 24.5238 22.8219 24.5132 22.7774 24.9391C22.5327 25.7136 22.197 26.0144 21.6503 26.0518C21.2076 26.0118 21.2025 26.3607 21.5254 26.5977C22.2644 27.1194 22.8007 26.2301 23.0508 25.6923C23.2276 25.2051 23.5013 25.4369 23.5297 25.8361C23.5351 26.3713 23.1517 26.9267 22.8354 27.2009C22.5192 27.4752 24.1987 29.2187 24.1987 29.2187C24.1987 29.2187 25.8782 27.4751 25.562 27.2008L25.562 27.2009ZM27.8127 7.4554C27.5513 7.4554 27.3898 7.54694 27.3898 7.65803C27.3898 7.77086 27.5513 7.86282 27.8127 7.86282C28.0726 7.86282 28.2376 7.76253 28.2376 7.64954C28.2376 7.53846 28.0725 7.4554 27.8127 7.4554ZM20.5847 7.4554C20.8461 7.4554 21.0076 7.54694 21.0076 7.65803C21.0076 7.77086 20.8461 7.86282 20.5847 7.86282C20.3249 7.86282 20.1598 7.76253 20.1598 7.64954C20.1598 7.53846 20.3249 7.4554 20.5847 7.4554Z" fill="black"/>
</g>
</g>
<defs>
<clipPath id="clip0_11020_3766">
<rect width="48" height="36" rx="4" fill="white"/>
</clipPath>
<clipPath id="clip1_11020_3766">
<rect width="50.4" height="36" fill="white" transform="translate(-1)"/>
</clipPath>
</defs>
</svg>
