<svg width="32" height="32" viewBox="0 0 32 32" fill="none" xmlns="http://www.w3.org/2000/svg">
<path d="M28.4591 6.03665L21.9091 29.2742C21.7999 29.6676 21.5721 30.0179 21.2568 30.2774C20.9414 30.5368 20.5538 30.6928 20.1466 30.7242H19.9716C19.5949 30.7233 19.2261 30.6161 18.9077 30.4149C18.5892 30.2136 18.3341 29.9265 18.1716 29.5867L13.7091 20.1617C13.6653 20.067 13.6514 19.9613 13.6693 19.8585C13.6871 19.7558 13.7359 19.6609 13.8091 19.5867L20.2216 13.1742C20.322 13.0832 20.4029 12.9728 20.4593 12.8496C20.5157 12.7265 20.5465 12.5931 20.5499 12.4577C20.5532 12.3223 20.529 12.1876 20.4787 12.0618C20.4284 11.936 20.3531 11.8218 20.2573 11.726C20.1615 11.6302 20.0472 11.5549 19.9215 11.5046C19.7957 11.4543 19.661 11.4301 19.5256 11.4334C19.3901 11.4367 19.2568 11.4676 19.1336 11.524C19.0105 11.5804 18.9001 11.6613 18.8091 11.7617L12.3966 18.1867C12.3223 18.2598 12.2275 18.3086 12.1247 18.3265C12.022 18.3444 11.9163 18.3305 11.8216 18.2867L2.44662 13.8492C2.07969 13.6758 1.77164 13.3987 1.56057 13.0522C1.34951 12.7056 1.2447 12.3047 1.25912 11.8992C1.28125 11.4816 1.4345 11.0817 1.69708 10.7562C1.95966 10.4308 2.31818 10.1965 2.72162 10.0867L26.0091 3.52415C26.4164 3.40783 26.8502 3.42384 27.2478 3.56986C27.6454 3.71588 27.9864 3.98437 28.2216 4.33665C28.3794 4.58699 28.4822 4.86802 28.5232 5.16111C28.5641 5.4542 28.5423 5.75264 28.4591 6.03665Z" fill="white"/>
</svg>
