<svg width="33" height="33" viewBox="0 0 33 33" fill="none" xmlns="http://www.w3.org/2000/svg">
<path d="M27.1322 22.9632L23.1322 26.9632C22.9402 27.1467 22.6852 27.2496 22.4197 27.2507C22.287 27.2501 22.1555 27.2247 22.0322 27.1757C21.8502 27.0992 21.6949 26.9705 21.5859 26.8059C21.4769 26.6413 21.4191 26.4481 21.4197 26.2507V23.2507H6.41969C6.15447 23.2507 5.90012 23.1453 5.71258 22.9578C5.52504 22.7703 5.41969 22.5159 5.41969 22.2507C5.41969 21.9855 5.52504 21.7311 5.71258 21.5436C5.90012 21.356 6.15447 21.2507 6.41969 21.2507H21.4197V18.2507C21.4191 18.0533 21.4769 17.8601 21.5859 17.6955C21.6949 17.5308 21.8502 17.4022 22.0322 17.3257C22.2169 17.2536 22.4182 17.2354 22.6129 17.273C22.8076 17.3106 22.9876 17.4025 23.1322 17.5382L27.1322 21.5382C27.32 21.7278 27.4253 21.9838 27.4253 22.2507C27.4253 22.5175 27.32 22.7736 27.1322 22.9632ZM9.70719 14.9632C9.89914 15.1467 10.1541 15.2496 10.4197 15.2507C10.5524 15.2501 10.6838 15.2247 10.8072 15.1757C10.9892 15.0992 11.1445 14.9705 11.2535 14.8059C11.3625 14.6413 11.4203 14.4481 11.4197 14.2507V11.2507H26.4197C26.6849 11.2507 26.9393 11.1453 27.1268 10.9578C27.3143 10.7703 27.4197 10.5159 27.4197 10.2507C27.4197 9.98547 27.3143 9.73111 27.1268 9.54358C26.9393 9.35604 26.6849 9.25068 26.4197 9.25068H11.4197V6.25068C11.4203 6.05326 11.3625 5.86007 11.2535 5.69546C11.1445 5.53085 10.9892 5.40219 10.8072 5.32568C10.6225 5.25364 10.4211 5.23536 10.2265 5.27297C10.0318 5.31057 9.85177 5.40252 9.70719 5.53818L5.70719 9.53818C5.51941 9.72778 5.41406 9.98384 5.41406 10.2507C5.41406 10.5175 5.51941 10.7736 5.70719 10.9632L9.70719 14.9632Z" fill="white"/>
</svg>
