<svg width="56" height="56" viewBox="0 0 56 56" fill="none" xmlns="http://www.w3.org/2000/svg">
<path d="M45.5 10.5H10.5C9.10939 10.5058 7.77737 11.0607 6.79405 12.0441C5.81073 13.0274 5.25576 14.3594 5.25 15.75V40.25C5.25576 41.6406 5.81073 42.9726 6.79405 43.9559C7.77737 44.9393 9.10939 45.4942 10.5 45.5H45.5C46.8906 45.4942 48.2226 44.9393 49.2059 43.9559C50.1893 42.9726 50.7442 41.6406 50.75 40.25V15.75C50.7442 14.3594 50.1893 13.0274 49.2059 12.0441C48.2226 11.0607 46.8906 10.5058 45.5 10.5ZM33.1406 27.3C32.8955 28.4821 32.2504 29.5437 31.314 30.3058C30.3777 31.0679 29.2073 31.4839 28 31.4839C26.7927 31.4839 25.6223 31.0679 24.686 30.3058C23.7496 29.5437 23.1045 28.4821 22.8594 27.3C22.6941 26.5106 22.2628 25.8018 21.6377 25.2922C21.0126 24.7826 20.2315 24.5029 19.425 24.5H8.75V21H47.25V24.5H36.575C35.7685 24.5029 34.9874 24.7826 34.3623 25.2922C33.7372 25.8018 33.3059 26.5106 33.1406 27.3ZM10.5 14H45.5C45.9641 14 46.4092 14.1844 46.7374 14.5126C47.0656 14.8408 47.25 15.2859 47.25 15.75V17.5H8.75V15.75C8.75 15.2859 8.93437 14.8408 9.26256 14.5126C9.59075 14.1844 10.0359 14 10.5 14Z" fill="#F0F2F6"/>
</svg>
