<svg width="56" height="56" viewBox="0 0 56 56" fill="none" xmlns="http://www.w3.org/2000/svg">
<path d="M50.75 45.5C50.75 45.9641 50.5656 46.4093 50.2374 46.7374C49.9092 47.0656 49.4641 47.25 49 47.25H7C6.53587 47.25 6.09075 47.0656 5.76256 46.7374C5.43437 46.4093 5.25 45.9641 5.25 45.5V10.5C5.25 10.0359 5.43437 9.59075 5.76256 9.26256C6.09075 8.93437 6.53587 8.75 7 8.75C7.46413 8.75 7.90925 8.93437 8.23744 9.26256C8.56563 9.59075 8.75 10.0359 8.75 10.5V34.2781L19.7531 23.2531C20.0849 22.9245 20.533 22.7402 21 22.7402C21.467 22.7402 21.9151 22.9245 22.2469 23.2531L28 29.0281L38.6531 18.375L35.5031 15.2469C35.2657 14.9938 35.1048 14.6788 35.039 14.3381C34.9732 13.9975 35.0052 13.6451 35.1313 13.3219C35.2675 13.0051 35.4932 12.7349 35.7808 12.5445C36.0683 12.3541 36.4051 12.2518 36.75 12.25H45.5C45.9641 12.25 46.4092 12.4344 46.7374 12.7626C47.0656 13.0908 47.25 13.5359 47.25 14V22.75C47.2511 23.0955 47.1499 23.4336 46.9591 23.7216C46.7684 24.0097 46.4966 24.2349 46.1781 24.3688C45.9623 24.4545 45.7323 24.499 45.5 24.5C45.0353 24.498 44.5891 24.318 44.2531 23.9969L41.125 20.8469L29.2469 32.7469C28.9151 33.0755 28.467 33.2598 28 33.2598C27.533 33.2598 27.0849 33.0755 26.7531 32.7469L21 26.9719L8.75 39.2219V43.75H49C49.4641 43.75 49.9092 43.9344 50.2374 44.2626C50.5656 44.5908 50.75 45.0359 50.75 45.5Z" fill="#F0F2F6"/>
</svg>
