<svg width="56" height="56" viewBox="0 0 56 56" fill="none" xmlns="http://www.w3.org/2000/svg">
<path d="M26.509 34.54C28.8569 32.9803 30.6403 30.7061 31.5953 28.054C32.5503 25.4019 32.6261 22.5128 31.8114 19.8143C30.9968 17.1158 29.3351 14.7513 27.0721 13.0706C24.8092 11.3899 22.0653 10.4824 19.2465 10.4824C16.4277 10.4824 13.6838 11.3899 11.4208 13.0706C9.1579 14.7513 7.49616 17.1158 6.68153 19.8143C5.86691 22.5128 5.94269 25.4019 6.89766 28.054C7.85263 30.7061 9.63604 32.9803 11.984 34.54C7.97861 36.0129 4.52041 38.6772 2.07461 42.1744C1.88357 42.4338 1.76986 42.7419 1.74663 43.0632C1.7234 43.3845 1.79161 43.7059 1.94336 43.99C2.09332 44.2723 2.31685 44.5088 2.59027 44.6744C2.8637 44.84 3.17683 44.9285 3.49648 44.9306H34.9965C35.3161 44.9285 35.6293 44.84 35.9027 44.6744C36.1761 44.5088 36.3997 44.2723 36.5496 43.99C36.7014 43.7059 36.7696 43.3845 36.7463 43.0632C36.7231 42.7419 36.6094 42.4338 36.4184 42.1744C33.9726 38.6772 30.5144 36.0129 26.509 34.54Z" fill="#F0F2F6"/>
<path d="M54.2704 42.1751C51.8107 38.6821 48.3471 36.0196 44.3392 34.5407C46.6945 32.9869 48.4854 30.7143 49.4454 28.0609C50.4053 25.4075 50.4831 22.515 49.6671 19.8139C48.8511 17.1127 47.1849 14.7472 44.9164 13.069C42.648 11.3909 39.8984 10.4899 37.0767 10.5001C35.8724 10.5065 34.6739 10.6682 33.511 10.9813C33.2379 11.0634 32.9882 11.2094 32.7828 11.4072C32.5774 11.605 32.4221 11.849 32.3298 12.1188C32.2418 12.3865 32.2197 12.6714 32.2654 12.9494C32.3111 13.2275 32.4232 13.4903 32.5923 13.7157C34.5707 16.3739 35.7073 19.5639 35.8555 22.8742C36.0036 26.1845 35.1566 29.4633 33.4235 32.2876C33.2013 32.6629 33.1253 33.1069 33.2101 33.5348C33.2948 33.9626 33.5344 34.3441 33.8829 34.6063C34.5392 35.1168 35.1735 35.6418 35.786 36.1813L35.8954 36.2907C38.2304 38.4514 40.1246 41.044 41.4735 43.9251C41.612 44.2262 41.834 44.4811 42.1133 44.6595C42.3925 44.8379 42.7172 44.9323 43.0485 44.9313H52.8267C53.1463 44.9292 53.4594 44.8407 53.7329 44.6751C54.0063 44.5095 54.2298 44.273 54.3798 43.9907C54.5297 43.7071 54.5988 43.3878 54.5795 43.0676C54.5602 42.7474 54.4533 42.4386 54.2704 42.1751Z" fill="#F0F2F6"/>
</svg>
