<svg width="96" height="96" viewBox="0 0 96 96" fill="none" xmlns="http://www.w3.org/2000/svg">
<rect width="96" height="96" rx="48" fill=""/>
<path d="M64.5 37.5H34.5C34.1022 37.5 33.7206 37.342 33.4393 37.0607C33.158 36.7794 33 36.3978 33 36C33 35.6022 33.158 35.2206 33.4393 34.9393C33.7206 34.658 34.1022 34.5 34.5 34.5H60C60.3978 34.5 60.7794 34.342 61.0607 34.0607C61.342 33.7794 61.5 33.3978 61.5 33C61.5 32.6022 61.342 32.2206 61.0607 31.9393C60.7794 31.658 60.3978 31.5 60 31.5H34.5C33.308 31.5049 32.1663 31.9806 31.3235 32.8235C30.4806 33.6663 30.0049 34.808 30 36V60C30.0049 61.192 30.4806 62.3337 31.3235 63.1765C32.1663 64.0194 33.308 64.4951 34.5 64.5H64.5C65.2957 64.5 66.0587 64.1839 66.6213 63.6213C67.1839 63.0587 67.5 62.2956 67.5 61.5V40.5C67.5 39.7044 67.1839 38.9413 66.6213 38.3787C66.0587 37.8161 65.2957 37.5 64.5 37.5ZM57.75 53.25C57.305 53.25 56.87 53.118 56.5 52.8708C56.13 52.6236 55.8416 52.2722 55.6713 51.861C55.501 51.4499 55.4564 50.9975 55.5432 50.561C55.63 50.1246 55.8443 49.7237 56.159 49.409C56.4737 49.0943 56.8746 48.88 57.311 48.7932C57.7475 48.7064 58.1999 48.751 58.611 48.9213C59.0222 49.0916 59.3736 49.38 59.6208 49.75C59.868 50.12 60 50.555 60 51C60 51.5967 59.7629 52.169 59.341 52.591C58.919 53.0129 58.3467 53.25 57.75 53.25Z" fill="white"/>
</svg>
