<svg width="96" height="96" viewBox="0 0 96 96" fill="none" xmlns="http://www.w3.org/2000/svg">
<rect width="96" height="96" rx="48" fill=""/>
<g clip-path="url(#clip0_9871_14592)">
<path d="M57.9249 24.8633H38.0639C36.4203 24.8633 35.0879 26.1957 35.0879 27.8393V68.1593C35.0879 69.8029 36.4203 71.1353 38.0639 71.1353H57.9249C59.5685 71.1353 60.9009 69.8029 60.9009 68.1593V27.8393C60.9009 26.1957 59.5685 24.8633 57.9249 24.8633Z" stroke="white" stroke-width="1.728"/>
<path d="M52.3279 24H43.2315C42.7013 24 42.2715 24.4298 42.2715 24.96V26.1875C42.2715 26.7177 42.7013 27.1475 43.2315 27.1475H52.3279C52.8581 27.1475 53.2879 26.7177 53.2879 26.1875V24.96C53.2879 24.4298 52.8581 24 52.3279 24Z" fill="white"/>
<path d="M47.9968 55.396C52.3001 55.396 55.7885 51.9075 55.7885 47.6042C55.7885 43.301 52.3001 39.8125 47.9968 39.8125C43.6936 39.8125 40.2051 43.301 40.2051 47.6042C40.2051 51.9075 43.6936 55.396 47.9968 55.396Z" stroke="white" stroke-width="1.728"/>
<path d="M47.6755 53.5838V42.2383H48.4023V53.5838H47.6755ZM49.9489 45.7572C49.9017 45.3376 49.7067 45.0126 49.364 44.7822C49.0213 44.5487 48.5899 44.4321 48.0699 44.4321C47.6976 44.4321 47.3756 44.4911 47.1038 44.6093C46.8319 44.7245 46.6207 44.884 46.47 45.0879C46.3222 45.2889 46.2484 45.5178 46.2484 45.7749C46.2484 45.9905 46.2986 46.1767 46.399 46.3333C46.5025 46.4898 46.6369 46.6214 46.8023 46.7277C46.9708 46.8311 47.151 46.9183 47.3431 46.9892C47.5351 47.0572 47.7198 47.1133 47.897 47.1576L48.7834 47.388C49.0729 47.459 49.3699 47.555 49.6742 47.6761C49.9785 47.7973 50.2606 47.9568 50.5207 48.1548C50.7807 48.3527 50.9904 48.5979 51.15 48.8904C51.3125 49.1829 51.3937 49.533 51.3937 49.9407C51.3937 50.4549 51.2608 50.9113 50.9948 51.3102C50.7319 51.7091 50.3493 52.0238 49.8471 52.2542C49.3477 52.4847 48.7436 52.5999 48.0344 52.5999C47.3549 52.5999 46.7669 52.492 46.2706 52.2763C45.7742 52.0607 45.3857 51.7549 45.105 51.359C44.8244 50.9601 44.6692 50.4874 44.6396 49.9407H46.0135C46.0401 50.2688 46.1465 50.542 46.3326 50.7607C46.5217 50.9764 46.7625 51.1374 47.055 51.2438C47.3504 51.3471 47.674 51.3989 48.0256 51.3989C48.4126 51.3989 48.7568 51.3383 49.0581 51.2172C49.3625 51.093 49.6018 50.9217 49.7761 50.7031C49.9505 50.4814 50.0376 50.223 50.0376 49.9275C50.0376 49.6586 49.9608 49.4385 49.8071 49.2671C49.6565 49.0958 49.4512 48.954 49.1911 48.8417C48.9341 48.7294 48.643 48.6304 48.3181 48.5447L47.2456 48.2523C46.5188 48.0543 45.9426 47.7633 45.5172 47.3792C45.0947 46.9951 44.8834 46.487 44.8834 45.8546C44.8834 45.3317 45.0252 44.8752 45.3089 44.4853C45.5924 44.0952 45.9765 43.7923 46.4612 43.5767C46.9457 43.358 47.4923 43.2488 48.1009 43.2488C48.7154 43.2488 49.2576 43.3566 49.7274 43.5723C50.2001 43.7879 50.5724 44.0848 50.8442 44.4631C51.116 44.8383 51.2578 45.2697 51.2697 45.7572H49.9489Z" fill="white"/>
<path d="M55.9199 39.3435H70.084M70.084 39.3435L65.6363 43.6714M70.084 39.3435L65.6363 35.0156" stroke="white" stroke-width="1.728"/>
<path d="M40.0839 55.0818H25.9199M25.9199 55.0818L30.3675 50.7539M25.9199 55.0818L30.3675 59.4097" stroke="white" stroke-width="1.728"/>
<path d="M43.6797 68.1602H52.3197" stroke="white" stroke-width="0.96"/>
</g>
<defs>
<clipPath id="clip0_9871_14592">
<rect width="48" height="48" fill="white" transform="translate(24 24)"/>
</clipPath>
</defs>
</svg>
