<svg width="96" height="96" viewBox="0 0 96 96" fill="none" xmlns="http://www.w3.org/2000/svg">
<rect width="96" height="96" rx="48" fill=""/>
<g clip-path="url(#clip0_9871_14597)">
<path d="M60.7348 44.032C64.656 44.032 67.8348 40.8533 67.8348 36.932C67.8348 33.0108 64.656 29.832 60.7348 29.832C56.8135 29.832 53.6348 33.0108 53.6348 36.932C53.6348 40.8533 56.8135 44.032 60.7348 44.032Z" stroke="white" stroke-width="1.8"/>
<path d="M59.9346 30.1328L60.7346 36.9328M60.7346 36.9328L55.9346 41.7328M60.7346 36.9328L67.1346 39.3328" stroke="white" stroke-width="1.8"/>
<path d="M60.7348 38.532C61.6184 38.532 62.3348 37.8157 62.3348 36.932C62.3348 36.0484 61.6184 35.332 60.7348 35.332C59.8511 35.332 59.1348 36.0484 59.1348 36.932C59.1348 37.8157 59.8511 38.532 60.7348 38.532Z" fill="white"/>
<path d="M60.8004 44.8977C65.1634 44.8977 68.7004 41.3607 68.7004 36.9977C68.7004 32.6346 65.1634 29.0977 60.8004 29.0977C56.4373 29.0977 52.9004 32.6346 52.9004 36.9977C52.9004 41.3607 56.4373 44.8977 60.8004 44.8977Z" stroke="white" stroke-width="1.8" stroke-dasharray="2.2 2.2"/>
<path d="M62.5205 64.4532C67.3455 64.4532 71.2569 60.5418 71.2569 55.7168C71.2569 50.8919 67.3455 46.9805 62.5205 46.9805C57.6956 46.9805 53.7842 50.8919 53.7842 55.7168C53.7842 60.5418 57.6956 64.4532 62.5205 64.4532Z" stroke="white" stroke-width="1.8"/>
<path d="M62.6004 65.4977C67.9576 65.4977 72.3004 61.1548 72.3004 55.7977C72.3004 50.4405 67.9576 46.0977 62.6004 46.0977C57.2432 46.0977 52.9004 50.4405 52.9004 55.7977C52.9004 61.1548 57.2432 65.4977 62.6004 65.4977Z" stroke="white" stroke-width="1.8" stroke-dasharray="3 3"/>
<path d="M62.4006 61.8969C65.88 61.8969 68.7006 59.0763 68.7006 55.5969C68.7006 52.1175 65.88 49.2969 62.4006 49.2969C58.9212 49.2969 56.1006 52.1175 56.1006 55.5969C56.1006 59.0763 58.9212 61.8969 62.4006 61.8969Z" stroke="white" stroke-width="1.8"/>
<path d="M42.6004 66.2984C52.9281 66.2984 61.3004 57.9262 61.3004 47.5984C61.3004 37.2707 52.9281 28.8984 42.6004 28.8984C32.2727 28.8984 23.9004 37.2707 23.9004 47.5984C23.9004 57.9262 32.2727 66.2984 42.6004 66.2984Z" fill="#303031" stroke="white" stroke-width="1.8"/>
<path d="M33.8306 52.7569C32.5994 52.7569 31.4187 52.2678 30.5481 51.3972C29.6776 50.5267 29.1885 49.3459 29.1885 48.1148C29.1885 46.8836 29.6776 45.7029 30.5481 44.8323C31.4187 43.9617 32.5994 43.4727 33.8306 43.4727" stroke="white" stroke-width="1.8"/>
<path d="M50.8525 52.7569C52.0837 52.7569 53.2644 52.2678 54.135 51.3972C55.0056 50.5267 55.4946 49.3459 55.4946 48.1148C55.4946 46.8836 55.0056 45.7029 54.135 44.8323C53.2644 43.9617 52.0837 43.4727 50.8525 43.4727" stroke="white" stroke-width="1.8"/>
<path d="M51.8839 44.5069C51.8839 42.0445 50.9057 39.6831 49.1646 37.9419C47.4234 36.2008 45.062 35.2227 42.5996 35.2227C40.1373 35.2227 37.7758 36.2008 36.0347 37.9419C34.2936 39.6831 33.3154 42.0445 33.3154 44.5069" stroke="white" stroke-width="1.8"/>
<path d="M33.3154 49.6641C33.3154 52.1264 34.2936 54.4879 36.0347 56.229C37.7758 57.9701 40.1373 58.9483 42.5996 58.9483" stroke="white" stroke-width="1.8"/>
<path d="M33.3154 43.4727V49.6621" stroke="white" stroke-width="1.8"/>
<path d="M51.8848 43.4727V51.7253" stroke="white" stroke-width="1.8"/>
<path d="M43.1161 61.0095C44.5404 61.0095 45.695 59.8548 45.695 58.4305C45.695 57.0062 44.5404 55.8516 43.1161 55.8516C41.6917 55.8516 40.5371 57.0062 40.5371 58.4305C40.5371 59.8548 41.6917 61.0095 43.1161 61.0095Z" fill="white"/>
</g>
<defs>
<clipPath id="clip0_9871_14597">
<rect width="51" height="40" fill="white" transform="translate(23 28)"/>
</clipPath>
</defs>
</svg>
