<svg width="80" height="80" viewBox="0 0 80 80" fill="none" xmlns="http://www.w3.org/2000/svg">
<rect width="80" height="80" rx="40" fill=""/>
<path d="M27.7257 16.0749L29.8954 17.4107C27.0372 18.2415 24.4995 19.7253 22.4207 21.8042C17.8166 26.4082 16.174 33.2873 17.936 40.3665C14.9025 43.174 13 47.187 13 51.6365C13 60.1059 19.8902 66.9961 28.3595 66.9961C36.8287 66.9961 43.719 60.1059 43.719 51.6365C43.719 43.1672 36.8288 36.277 28.3595 36.277C25.5767 36.277 22.9644 37.021 20.7108 38.3204C19.702 32.7924 21.1086 27.5651 24.645 24.0285C26.4228 22.2507 28.6234 21.0022 31.1176 20.3375L29.4023 23.1235L32.081 24.7728L36.4165 17.7313L29.375 13.396L27.7257 16.0749Z" fill="white"/>
<path d="M33.3536 58.6102C32.5531 59.0171 31.1862 59.4239 29.6786 59.4239C27.3687 59.4239 25.2483 58.5673 23.9287 56.9821C23.2929 56.2547 22.8216 55.3336 22.6092 54.1986H21.0781V52.6774H22.3738C22.3738 52.57 22.3738 52.4419 22.3738 52.3135C22.3738 52.0991 22.3977 51.8848 22.3977 51.6704H21.0781V50.1504H22.6565C22.9627 48.9931 23.5283 48.0084 24.2823 47.2158C25.6249 45.8449 27.5099 45.0312 29.7246 45.0312C31.1619 45.0312 32.4111 45.3307 33.2593 45.6735L32.5991 48.1154C31.9863 47.88 31.0207 47.6012 29.9844 47.6012C28.8529 47.6012 27.8157 47.944 27.0856 48.7577C26.7555 49.1005 26.4966 49.5932 26.3315 50.1504H32.1987V51.6704H25.9788C25.955 51.8848 25.955 52.1202 25.955 52.3346C25.955 52.463 25.955 52.5489 25.955 52.6774H32.1991V54.1982H26.2851C26.4497 54.8405 26.709 55.3336 27.0621 55.6971C27.8161 56.4678 28.9237 56.7892 30.1016 56.7892C31.1862 56.7892 32.2929 56.4674 32.7881 56.232L33.3536 58.6102Z" fill="#F78E1F"/>
<path d="M51.4279 43.7172C42.9586 43.7172 36.0684 36.8269 36.0684 28.3576C36.0684 19.8884 42.9586 12.9982 51.4277 12.9982C59.897 12.9982 66.7873 19.8885 66.7873 28.3577C66.7873 32.7054 64.9712 36.6365 62.0582 39.4335C62.5242 41.301 62.7539 43.1549 62.7539 44.9566C62.7539 49.9895 60.9679 54.6173 57.5753 58.0099C55.4964 60.0888 52.9588 61.5727 50.1006 62.4034L52.2703 63.7392L50.6208 66.418L43.5796 62.0828L47.9149 55.0413L50.5938 56.6906L48.8785 59.4766C51.3726 58.8119 53.5732 57.5635 55.3511 55.7856C58.8766 52.26 60.2858 47.0539 59.2947 41.5447C56.9923 42.9234 54.3013 43.7172 51.4279 43.7172Z" fill="white"/>
<path d="M57.755 28.7873C57.3552 28.2662 56.7518 27.9083 55.9449 27.7138C56.9724 27.1856 57.424 26.2891 57.3 25.0242C57.2585 24.5655 57.1328 24.1679 56.9224 23.831C56.7118 23.494 56.4277 23.223 56.0689 23.018C55.7104 22.8128 55.3205 22.6566 54.9 22.5489C54.4795 22.4412 53.9967 22.363 53.452 22.3144V19.6875H51.8593V22.2414C51.5835 22.2414 51.1629 22.2483 50.5975 22.2622V19.6875H49.0046V22.3144C48.777 22.3213 48.4426 22.3249 48.0013 22.3249L45.8086 22.3144V24.024H46.9566C47.4807 24.024 47.7875 24.2603 47.8771 24.7328V27.7245C47.9462 27.7245 48.0013 27.7281 48.0427 27.735H47.8771V31.9253C47.822 32.2797 47.6221 32.457 47.2773 32.457H46.1294L45.8087 34.3647H47.8773C48.0084 34.3647 48.1979 34.3664 48.4462 34.3696C48.6944 34.3731 48.8805 34.3748 49.0046 34.3748V37.0329H50.5978V34.4061C50.8873 34.4132 51.3079 34.4166 51.8596 34.4166V37.0329H53.4523V34.3748C54.0179 34.3471 54.5195 34.2952 54.9571 34.2185C55.395 34.1418 55.814 34.0221 56.2139 33.8587C56.6137 33.6955 56.948 33.4921 57.2169 33.2489C57.4859 33.0058 57.7081 32.6965 57.8843 32.3211C58.0598 31.9458 58.172 31.5115 58.2201 31.0179C58.3102 30.0522 58.1549 29.3086 57.755 28.7873ZM50.6285 24.1383C50.6768 24.1383 50.8129 24.1366 51.037 24.133C51.2613 24.1295 51.4473 24.126 51.5956 24.1225C51.7439 24.1191 51.9438 24.1278 52.1956 24.1486C52.4473 24.1695 52.6593 24.1973 52.8316 24.232C53.004 24.2667 53.1938 24.3241 53.4004 24.404C53.6075 24.4838 53.7729 24.5812 53.8968 24.6958C54.0211 24.8105 54.1262 24.9565 54.2122 25.1337C54.2985 25.3109 54.3416 25.5141 54.3416 25.7434C54.3416 25.938 54.3107 26.1153 54.2487 26.2752C54.1868 26.435 54.0935 26.5688 53.9695 26.6765C53.8455 26.7843 53.7177 26.8782 53.5866 26.958C53.4558 27.0379 53.2884 27.1022 53.085 27.1508C52.8817 27.1995 52.7042 27.2377 52.5526 27.2654C52.4009 27.2933 52.2113 27.3124 51.9837 27.3228C51.7561 27.3332 51.5836 27.3403 51.4665 27.3437C51.3492 27.3471 51.1889 27.3471 50.9855 27.3437C50.7819 27.3403 50.6631 27.3384 50.6286 27.3384L50.6285 24.1383ZM54.9779 31.237C54.9122 31.3969 54.8279 31.536 54.7246 31.6542C54.621 31.7721 54.4848 31.8765 54.3159 31.9667C54.1471 32.0571 53.9832 32.13 53.8247 32.1856C53.666 32.2414 53.4746 32.2898 53.2507 32.3316C53.0263 32.3734 52.8299 32.4027 52.6608 32.4202C52.492 32.4376 52.2904 32.4515 52.0558 32.462C51.8215 32.4722 51.6386 32.4775 51.5077 32.4775C51.3766 32.4775 51.2111 32.4756 51.0111 32.4722C50.8111 32.469 50.6836 32.4672 50.6284 32.4672V28.9437C50.6835 28.9437 50.8473 28.9403 51.1197 28.9333C51.3922 28.9262 51.6144 28.923 51.7868 28.923C51.9592 28.923 52.1972 28.9333 52.5007 28.9542C52.8039 28.975 53.0591 29.0061 53.2661 29.0478C53.4729 29.0896 53.6986 29.1537 53.9435 29.2407C54.1882 29.3275 54.3866 29.4335 54.5383 29.5586C54.6901 29.6839 54.8175 29.8435 54.9209 30.0381C55.0246 30.2326 55.0763 30.4551 55.0763 30.7053C55.0762 30.9001 55.0435 31.077 54.9779 31.237Z" fill="#F78E1F"/>
</svg>
