<svg width="48" height="48" viewBox="0 0 48 48" fill="none" xmlns="http://www.w3.org/2000/svg">
<path d="M40.0687 12.4313L32.5687 4.93127C32.283 4.65269 31.8991 4.49777 31.5 4.50002H16.5C15.7044 4.50002 14.9413 4.81609 14.3787 5.3787C13.8161 5.94131 13.5 6.70437 13.5 7.50002V10.5H10.5C9.70435 10.5 8.94129 10.8161 8.37868 11.3787C7.81607 11.9413 7.5 12.7044 7.5 13.5V40.5C7.5 41.2957 7.81607 42.0587 8.37868 42.6213C8.94129 43.184 9.70435 43.5 10.5 43.5H31.5C32.2956 43.5 33.0587 43.184 33.6213 42.6213C34.1839 42.0587 34.5 41.2957 34.5 40.5V37.5H37.5C38.2956 37.5 39.0587 37.184 39.6213 36.6213C40.1839 36.0587 40.5 35.2957 40.5 34.5V13.5C40.5023 13.101 40.3473 12.717 40.0687 12.4313ZM25.5 36H16.5C16.1022 36 15.7206 35.842 15.4393 35.5607C15.158 35.2794 15 34.8978 15 34.5C15 34.1022 15.158 33.7207 15.4393 33.4394C15.7206 33.1581 16.1022 33 16.5 33H25.5C25.8978 33 26.2794 33.1581 26.5607 33.4394C26.842 33.7207 27 34.1022 27 34.5C27 34.8978 26.842 35.2794 26.5607 35.5607C26.2794 35.842 25.8978 36 25.5 36ZM25.5 30H16.5C16.1022 30 15.7206 29.842 15.4393 29.5607C15.158 29.2794 15 28.8978 15 28.5C15 28.1022 15.158 27.7207 15.4393 27.4394C15.7206 27.1581 16.1022 27 16.5 27H25.5C25.8978 27 26.2794 27.1581 26.5607 27.4394C26.842 27.7207 27 28.1022 27 28.5C27 28.8978 26.842 29.2794 26.5607 29.5607C26.2794 29.842 25.8978 30 25.5 30ZM37.5 34.5H34.5V19.5C34.5023 19.101 34.3473 18.717 34.0687 18.4313L26.5687 10.9313C26.283 10.6527 25.8991 10.4978 25.5 10.5H16.5V7.50002H30.8812L37.5 14.1188V34.5Z" fill="white"/>
<path d="M42 42L6 6" stroke="#FB435B" stroke-width="3" stroke-linecap="round" stroke-linejoin="round"/>
</svg>
