<svg width="56" height="52" viewBox="-8.5 0 56 52" fill="none" xmlns="http://www.w3.org/2000/svg">
<path d="M4.33333 43.3333H10.8333C12.0293 43.3333 13 42.3627 13 41.1667C13 39.9707 12.0293 39 10.8333 39H4.33333V4.33333H34.6667V41.1667C34.6667 42.3627 35.6373 43.3333 36.8333 43.3333C38.0293 43.3333 39 42.3627 39 41.1667V4.33333C39 1.9435 37.0565 0 34.6667 0H4.33333C1.9435 0 0 1.9435 0 4.33333V39C0 41.3898 1.9435 43.3333 4.33333 43.3333Z" fill="url(#paint0_linear_8656_9440)"/>
<path d="M17.5862 51.8347C18.3965 52.1683 19.3271 51.9842 19.9479 51.3645L22.7493 48.5641L25.5508 51.3645C25.9658 51.7794 26.5183 51.9993 27.0827 51.9993C27.3622 51.9993 27.6438 51.9452 27.9125 51.8347C28.7218 51.4988 29.2493 50.7091 29.2493 49.8327V36.3853C29.9329 35.2467 30.3327 33.9207 30.3327 32.4993C30.3327 28.3177 26.9299 24.916 22.7493 24.916C18.5688 24.916 15.166 28.3177 15.166 32.4993C15.166 33.9207 15.5668 35.2467 16.2493 36.3853V49.8327C16.2493 50.7091 16.7769 51.4988 17.5862 51.8347ZM20.5827 44.6088V39.7631C21.2695 39.9689 21.9964 40.0827 22.7493 40.0827C23.5023 40.0827 24.2292 39.9689 24.916 39.7631V44.6088C23.6864 43.5082 21.8123 43.5082 20.5827 44.6088ZM22.7493 29.2493C24.5412 29.2493 25.9993 30.7075 25.9993 32.4993C25.9993 34.2912 24.5412 35.7493 22.7493 35.7493C20.9575 35.7493 19.4993 34.2912 19.4993 32.4993C19.4993 30.7075 20.9575 29.2493 22.7493 29.2493Z" fill="url(#paint1_linear_8656_9440)"/>
<path d="M28.1673 15.1667C28.1673 13.9707 27.1966 13 26.0007 13H13.0007C11.8047 13 10.834 13.9707 10.834 15.1667C10.834 16.3627 11.8047 17.3333 13.0007 17.3333H26.0007C27.1966 17.3333 28.1673 16.3627 28.1673 15.1667Z" fill="url(#paint2_linear_8656_9440)"/>
<defs>
<linearGradient id="paint0_linear_8656_9440" x1="-1.76379e-07" y1="17.9175" x2="39" y2="17.9175" gradientUnits="userSpaceOnUse">
<stop stop-color="#33B78F"/>
<stop offset="1" stop-color="#019E6F"/>
</linearGradient>
<linearGradient id="paint1_linear_8656_9440" x1="15.166" y1="36.1144" x2="30.3327" y2="36.1144" gradientUnits="userSpaceOnUse">
<stop stop-color="#33B78F"/>
<stop offset="1" stop-color="#019E6F"/>
</linearGradient>
<linearGradient id="paint2_linear_8656_9440" x1="10.834" y1="14.7917" x2="28.1673" y2="14.7917" gradientUnits="userSpaceOnUse">
<stop stop-color="#33B78F"/>
<stop offset="1" stop-color="#019E6F"/>
</linearGradient>
</defs>
</svg>
