<svg width="32" height="32" viewBox="0 0 32 32" fill="none" xmlns="http://www.w3.org/2000/svg">
<path d="M26 5.00012H6C4.34315 5.00012 3 6.34327 3 8.00012V22.0001C3 23.657 4.34315 25.0001 6 25.0001H26C27.6569 25.0001 29 23.657 29 22.0001V8.00012C29 6.34327 27.6569 5.00012 26 5.00012Z" fill="#2169FC"/>
<path d="M20 27.0001H12C11.7348 27.0001 11.4804 27.1055 11.2929 27.293C11.1054 27.4806 11 27.7349 11 28.0001C11 28.2653 11.1054 28.5197 11.2929 28.7072C11.4804 28.8948 11.7348 29.0001 12 29.0001H20C20.2652 29.0001 20.5196 28.8948 20.7071 28.7072C20.8946 28.5197 21 28.2653 21 28.0001C21 27.7349 20.8946 27.4806 20.7071 27.293C20.5196 27.1055 20.2652 27.0001 20 27.0001Z" fill="#2169FC"/>
</svg>
