<svg width="32" height="32" viewBox="0 0 32 32" fill="none" xmlns="http://www.w3.org/2000/svg">
<path d="M23 11.2001V10.5001C23 7.36262 18.275 5.00012 12 5.00012C5.725 5.00012 1 7.36262 1 10.5001V15.5001C1 18.1126 4.275 20.1876 9 20.8126V21.5001C9 24.6376 13.725 27.0001 20 27.0001C26.275 27.0001 31 24.6376 31 21.5001V16.5001C31 13.9126 27.825 11.8376 23 11.2001ZM9 18.7751V15.8126C9.99484 15.9405 10.997 16.0031 12 16.0001C13.003 16.0031 14.0052 15.9405 15 15.8126V18.7751C14.0076 18.9298 13.0044 19.005 12 19.0001C10.9956 19.005 9.99243 18.9298 9 18.7751ZM21 13.7376V15.5001C21 16.5501 19.45 17.6751 17 18.3626V15.4376C18.6125 15.0501 19.975 14.4626 21 13.7376ZM3 15.5001V13.7376C4.025 14.4626 5.3875 15.0501 7 15.4376V18.3626C4.55 17.6751 3 16.5501 3 15.5001ZM11 21.5001V20.9751L12 21.0001C12.4917 21.0001 12.9667 20.9876 13.425 20.9626C13.925 21.1376 14.45 21.2876 15 21.4251V24.3626C12.55 23.6751 11 22.5501 11 21.5001ZM17 24.7751V21.8001C17.9947 21.9306 18.9968 21.9974 20 22.0001C21.003 22.0031 22.0052 21.9405 23 21.8126V24.7751C21.0112 25.0751 18.9888 25.0751 17 24.7751ZM25 24.3626V21.4376C26.6125 21.0501 27.975 20.4626 29 19.7376V21.5001C29 22.5501 27.45 23.6751 25 24.3626Z" fill="#2169FC"/>
</svg>
