<svg width="36" height="36" viewBox="0 0 36 36" fill="none" xmlns="http://www.w3.org/2000/svg">
<path d="M36 9.46275C34.6613 10.05 33.2347 10.4392 31.7475 10.6282C33.2775 9.71475 34.4453 8.27925 34.9943 6.549C33.5678 7.3995 31.9927 8.00025 30.3142 8.3355C28.9597 6.89325 27.0292 6 24.9232 6C20.8372 6 17.5477 9.3165 17.5477 13.3823C17.5477 13.9673 17.5972 14.5297 17.7188 15.0652C11.583 14.766 6.15375 11.8253 2.5065 7.3455C1.86975 8.45025 1.49625 9.71475 1.49625 11.076C1.49625 13.632 2.8125 15.8977 4.7745 17.2095C3.58875 17.187 2.4255 16.8428 1.44 16.3005C1.44 16.323 1.44 16.3523 1.44 16.3815C1.44 19.968 3.99825 22.947 7.353 23.6332C6.75225 23.7975 6.0975 23.8762 5.418 23.8762C4.9455 23.8762 4.4685 23.8493 4.02075 23.7502C4.977 26.673 7.6905 28.8217 10.917 28.8915C8.406 30.8557 5.21775 32.0392 1.76625 32.0392C1.161 32.0392 0.5805 32.0122 0 31.938C3.26925 34.0462 7.14375 35.25 11.322 35.25C24.903 35.25 32.328 24 32.328 14.2485C32.328 13.9222 32.3167 13.6073 32.301 13.2945C33.7658 12.255 34.9965 10.9567 36 9.46275Z" fill="#575759"/>
</svg>
