<svg width="32" height="32" viewBox="0 0 32 32" fill="none" xmlns="http://www.w3.org/2000/svg">
<path d="M17.4547 27.1516H6.78806C6.53088 27.1516 6.28423 27.0495 6.10238 26.8676C5.92052 26.6858 5.81836 26.4391 5.81836 26.1819V4.8486C5.81836 4.59142 5.92052 4.34478 6.10238 4.16292C6.28423 3.98107 6.53088 3.87891 6.78806 3.87891H18.4244L25.2123 10.6668V17.4547" stroke="black" stroke-width="2" stroke-linecap="round" stroke-linejoin="round"/>
<path d="M18.4238 3.87891V10.6668H25.2117" stroke="black" stroke-width="2" stroke-linecap="round" stroke-linejoin="round"/>
<path d="M11.6367 16.4844H19.3943" stroke="black" stroke-width="2" stroke-linecap="round" stroke-linejoin="round"/>
<path d="M11.6367 20.3633H19.3943" stroke="black" stroke-width="2" stroke-linecap="round" stroke-linejoin="round"/>
<path d="M31.9408 24.1372C31.8819 23.9531 31.7699 23.7905 31.619 23.6698C31.4681 23.549 31.2848 23.4755 31.0923 23.4585L27.4802 23.1797L26.0862 19.9675C26.0097 19.7969 25.8855 19.652 25.7285 19.5503C25.5715 19.4486 25.3884 19.3945 25.2014 19.3945C25.0143 19.3945 24.8313 19.4486 24.6743 19.5503C24.5173 19.652 24.393 19.7969 24.3165 19.9675L22.9226 23.1797L19.3105 23.4585C19.1191 23.4771 18.9374 23.5515 18.7879 23.6725C18.6384 23.7935 18.5278 23.9557 18.4697 24.139C18.4116 24.3224 18.4086 24.5187 18.4611 24.7037C18.5136 24.8887 18.6193 25.0542 18.765 25.1797L21.4923 27.4342L20.668 30.7918C20.6217 30.9766 20.6315 31.1711 20.6963 31.3503C20.7611 31.5296 20.8778 31.6854 21.0317 31.7979C21.184 31.9113 21.3663 31.9775 21.5559 31.9883C21.7455 31.9991 21.9342 31.9539 22.0984 31.8585L25.2014 30.0282L28.3044 31.8585C28.4565 31.9433 28.6273 31.9891 28.8014 31.9918C29.0079 31.9947 29.2092 31.9262 29.3711 31.7979C29.5249 31.6854 29.6417 31.5296 29.7065 31.3503C29.7713 31.1711 29.7811 30.9766 29.7347 30.7918L28.9105 27.4342L31.6377 25.1797C31.7865 25.056 31.8948 24.8906 31.9488 24.7048C32.0028 24.5191 32 24.3214 31.9408 24.1372Z" fill="black"/>
</svg>
