<svg width="80" height="80" viewBox="0 0 80 80" fill="none" xmlns="http://www.w3.org/2000/svg">
<path d="M59.2089 37.8559C59.1439 37.5739 59.01 37.3123 58.8191 37.0947C58.6282 36.8771 58.3863 36.7102 58.1151 36.6091L45.5151 31.8841L48.7089 15.8497C48.7823 15.4783 48.7349 15.0931 48.5735 14.7506C48.4121 14.4081 48.1452 14.1263 47.812 13.9466C47.4755 13.7676 47.0893 13.7048 46.7134 13.7681C46.3375 13.8314 45.9932 14.0172 45.7339 14.2966L21.2339 40.5466C21.0331 40.7549 20.8879 41.0102 20.8114 41.2892C20.735 41.5682 20.7298 41.8619 20.7964 42.1434C20.8648 42.424 21 42.6838 21.1905 42.9009C21.3809 43.118 21.6209 43.2859 21.8901 43.3903L34.4901 48.1153L31.2964 64.1497C31.2229 64.5211 31.2704 64.9063 31.4318 65.2488C31.5932 65.5913 31.86 65.873 32.1932 66.0528C32.4444 66.1795 32.7213 66.2469 33.0026 66.2497C33.2403 66.2507 33.4757 66.2027 33.694 66.1086C33.9123 66.0145 34.1089 65.8763 34.2714 65.7028L58.7714 39.4528C58.9721 39.2445 59.1174 38.9892 59.1938 38.7102C59.2702 38.4312 59.2754 38.1375 59.2089 37.8559Z" fill="#FB435B"/>
</svg>
