<svg width="80" height="80" viewBox="0 0 80 80" fill="none" xmlns="http://www.w3.org/2000/svg">
<path d="M54.4066 38.3924C54.3579 38.1809 54.2575 37.9847 54.1143 37.8215C53.9712 37.6583 53.7897 37.5332 53.5863 37.4573L44.1363 33.9135L46.5316 21.8878C46.5867 21.6092 46.5511 21.3203 46.4301 21.0634C46.309 20.8066 46.1089 20.5952 45.859 20.4604C45.6066 20.3262 45.3169 20.2791 45.0351 20.3266C44.7532 20.3741 44.4949 20.5134 44.3004 20.7229L25.9254 40.4104C25.7748 40.5666 25.6659 40.7581 25.6086 40.9674C25.5512 41.1766 25.5474 41.3969 25.5973 41.6081C25.6486 41.8185 25.75 42.0133 25.8929 42.1762C26.0357 42.339 26.2157 42.4649 26.4176 42.5432L35.8676 46.087L33.4723 58.1128C33.4172 58.3913 33.4528 58.6802 33.5738 58.9371C33.6949 59.1939 33.895 59.4053 34.1449 59.5401C34.3333 59.6351 34.541 59.6857 34.752 59.6878C34.9303 59.6885 35.1068 59.6525 35.2705 59.5819C35.4342 59.5113 35.5817 59.4077 35.7035 59.2776L54.0785 39.5901C54.2291 39.4339 54.338 39.2424 54.3954 39.0331C54.4527 38.8239 54.4566 38.6036 54.4066 38.3924Z" fill="#FB435B"/>
</svg>
