<svg width="72" height="72" viewBox="0 0 72 72" fill="none" xmlns="http://www.w3.org/2000/svg">
<path d="M67.5 58.5H65.25V29.25C65.25 28.0565 64.7759 26.9119 63.932 26.068C63.0881 25.2241 61.9435 24.75 60.75 24.75H42.75V11.25C42.75 10.0565 42.2759 8.91193 41.432 8.06802C40.5881 7.22411 39.4435 6.75 38.25 6.75H11.25C10.0565 6.75 8.91193 7.22411 8.06802 8.06802C7.22411 8.91193 6.75 10.0565 6.75 11.25V58.5H4.5C3.90326 58.5 3.33097 58.7371 2.90901 59.159C2.48705 59.581 2.25 60.1533 2.25 60.75C2.25 61.3467 2.48705 61.919 2.90901 62.341C3.33097 62.7629 3.90326 63 4.5 63H67.5C68.0967 63 68.669 62.7629 69.091 62.341C69.5129 61.919 69.75 61.3467 69.75 60.75C69.75 60.1533 69.5129 59.581 69.091 59.159C68.669 58.7371 68.0967 58.5 67.5 58.5ZM33.75 38.25C33.75 38.8467 33.5129 39.419 33.091 39.841C32.669 40.2629 32.0967 40.5 31.5 40.5H22.5C21.9033 40.5 21.331 40.2629 20.909 39.841C20.4871 39.419 20.25 38.8467 20.25 38.25C20.25 37.6533 20.4871 37.081 20.909 36.659C21.331 36.2371 21.9033 36 22.5 36H31.5C32.0967 36 32.669 36.2371 33.091 36.659C33.5129 37.081 33.75 37.6533 33.75 38.25ZM18 18H27C27.5967 18 28.169 18.2371 28.591 18.659C29.0129 19.081 29.25 19.6533 29.25 20.25C29.25 20.8467 29.0129 21.419 28.591 21.841C28.169 22.2629 27.5967 22.5 27 22.5H18C17.4033 22.5 16.831 22.2629 16.409 21.841C15.9871 21.419 15.75 20.8467 15.75 20.25C15.75 19.6533 15.9871 19.081 16.409 18.659C16.831 18.2371 17.4033 18 18 18ZM18 47.25H27C27.5967 47.25 28.169 47.4871 28.591 47.909C29.0129 48.331 29.25 48.9033 29.25 49.5C29.25 50.0967 29.0129 50.669 28.591 51.091C28.169 51.5129 27.5967 51.75 27 51.75H18C17.4033 51.75 16.831 51.5129 16.409 51.091C15.9871 50.669 15.75 50.0967 15.75 49.5C15.75 48.9033 15.9871 48.331 16.409 47.909C16.831 47.4871 17.4033 47.25 18 47.25ZM42.75 29.25H60.75V58.5H42.75V29.25Z" fill="url(#paint0_linear_10237_18721)"/>
<path d="M54 47.25H49.5C48.9033 47.25 48.331 47.4871 47.909 47.909C47.4871 48.331 47.25 48.9033 47.25 49.5C47.25 50.0967 47.4871 50.669 47.909 51.091C48.331 51.5129 48.9033 51.75 49.5 51.75H54C54.5967 51.75 55.169 51.5129 55.591 51.091C56.0129 50.669 56.25 50.0967 56.25 49.5C56.25 48.9033 56.0129 48.331 55.591 47.909C55.169 47.4871 54.5967 47.25 54 47.25Z" fill="url(#paint1_linear_10237_18721)"/>
<path d="M49.5 40.5H54C54.5967 40.5 55.169 40.2629 55.591 39.841C56.0129 39.419 56.25 38.8467 56.25 38.25C56.25 37.6533 56.0129 37.081 55.591 36.659C55.169 36.2371 54.5967 36 54 36H49.5C48.9033 36 48.331 36.2371 47.909 36.659C47.4871 37.081 47.25 37.6533 47.25 38.25C47.25 38.8467 47.4871 39.419 47.909 39.841C48.331 40.2629 48.9033 40.5 49.5 40.5Z" fill="url(#paint2_linear_10237_18721)"/>
<defs>
<linearGradient id="paint0_linear_10237_18721" x1="2.25" y1="6.75" x2="23.7453" y2="77.0639" gradientUnits="userSpaceOnUse">
<stop stop-color="#059DB7"/>
<stop offset="1" stop-color="#3BD7BD"/>
</linearGradient>
<linearGradient id="paint1_linear_10237_18721" x1="47.25" y1="47.25" x2="48.3415" y2="53.2006" gradientUnits="userSpaceOnUse">
<stop stop-color="#059DB7"/>
<stop offset="1" stop-color="#3BD7BD"/>
</linearGradient>
<linearGradient id="paint2_linear_10237_18721" x1="47.25" y1="36" x2="48.3415" y2="41.9506" gradientUnits="userSpaceOnUse">
<stop stop-color="#059DB7"/>
<stop offset="1" stop-color="#3BD7BD"/>
</linearGradient>
</defs>
</svg>
