<svg width="80" height="80" viewBox="0 0 80 80" fill="none" xmlns="http://www.w3.org/2000/svg">
<path d="M48.7281 32.125C48.7281 32.6442 48.5742 33.1517 48.2857 33.5834C47.9973 34.0151 47.5873 34.3515 47.1077 34.5502C46.628 34.7489 46.1002 34.8009 45.591 34.6996C45.0818 34.5983 44.6141 34.3483 44.247 33.9812C43.8799 33.6141 43.6298 33.1464 43.5286 32.6372C43.4273 32.128 43.4793 31.6002 43.6779 31.1205C43.8766 30.6408 44.2131 30.2309 44.6448 29.9424C45.0764 29.654 45.5839 29.5 46.1031 29.5C46.7993 29.5 47.467 29.7766 47.9593 30.2689C48.4516 30.7612 48.7281 31.4289 48.7281 32.125ZM33.8531 29.5C33.334 29.5 32.8264 29.654 32.3948 29.9424C31.9631 30.2309 31.6266 30.6408 31.4279 31.1205C31.2293 31.6002 31.1773 32.128 31.2786 32.6372C31.3799 33.1464 31.6299 33.6141 31.997 33.9812C32.3641 34.3483 32.8318 34.5983 33.341 34.6996C33.8502 34.8009 34.378 34.7489 34.8577 34.5502C35.3373 34.3515 35.7473 34.0151 36.0357 33.5834C36.3242 33.1517 36.4781 32.6442 36.4781 32.125C36.4781 31.4289 36.2016 30.7612 35.7093 30.2689C35.217 29.7766 34.5493 29.5 33.8531 29.5ZM67.125 40C67.125 40.4642 66.9406 40.9093 66.6124 41.2375C66.2842 41.5657 65.8391 41.75 65.375 41.75H59.25V43.5C59.2534 45.252 59.0179 46.9961 58.55 48.6844L63.6031 51.6157C63.9337 51.8096 64.1915 52.1068 64.3369 52.4614C64.4822 52.8161 64.5071 53.2086 64.4077 53.5788C64.3084 53.949 64.0902 54.2763 63.7868 54.5105C63.4833 54.7447 63.1114 54.8727 62.7281 54.875C62.4198 54.8775 62.1168 54.7942 61.8531 54.6344L57.2812 51.9875C55.6956 55.2187 53.2358 57.9406 50.1811 59.8442C47.1265 61.7478 43.5993 62.7569 40 62.7569C36.4007 62.7569 32.8735 61.7478 29.8189 59.8442C26.7642 57.9406 24.3044 55.2187 22.7188 51.9875L18.1469 54.6344C17.8832 54.7942 17.5802 54.8775 17.2719 54.875C16.8886 54.8727 16.5167 54.7447 16.2132 54.5105C15.9098 54.2763 15.6916 53.949 15.5923 53.5788C15.4929 53.2086 15.5178 52.8161 15.6631 52.4614C15.8085 52.1068 16.0663 51.8096 16.3969 51.6157L21.45 48.6844C20.9821 46.9961 20.7466 45.252 20.75 43.5V41.75H14.625C14.1609 41.75 13.7158 41.5657 13.3876 41.2375C13.0594 40.9093 12.875 40.4642 12.875 40C12.875 39.5359 13.0594 39.0908 13.3876 38.7626C13.7158 38.4344 14.1609 38.25 14.625 38.25H20.75V36.5C20.7466 34.7481 20.9821 33.0039 21.45 31.3157L16.3969 28.3844C15.9939 28.155 15.6985 27.7751 15.5754 27.328C15.4524 26.8809 15.5118 26.4033 15.7406 26C15.9779 25.5993 16.3633 25.3081 16.8136 25.1894C17.264 25.0706 17.7429 25.134 18.1469 25.3657L22.7188 28.0125C24.3044 24.7814 26.7642 22.0595 29.8189 20.1559C32.8735 18.2523 36.4007 17.2432 40 17.2432C43.5993 17.2432 47.1265 18.2523 50.1811 20.1559C53.2358 22.0595 55.6956 24.7814 57.2812 28.0125L61.8531 25.3657C62.2571 25.134 62.736 25.0706 63.1864 25.1894C63.6367 25.3081 64.0221 25.5993 64.2594 26C64.4882 26.4033 64.5476 26.8809 64.4246 27.328C64.3015 27.7751 64.0061 28.155 63.6031 28.3844L58.55 31.3157C59.0179 33.0039 59.2534 34.7481 59.25 36.5V38.25H65.375C65.8391 38.25 66.2842 38.4344 66.6124 38.7626C66.9406 39.0908 67.125 39.5359 67.125 40ZM41.75 43.5C41.75 43.0359 41.5656 42.5908 41.2374 42.2626C40.9093 41.9344 40.4641 41.75 40 41.75C39.5359 41.75 39.0908 41.9344 38.7626 42.2626C38.4344 42.5908 38.25 43.0359 38.25 43.5V57.5C38.25 57.9642 38.4344 58.4093 38.7626 58.7375C39.0908 59.0657 39.5359 59.25 40 59.25C40.4641 59.25 40.9093 59.0657 41.2374 58.7375C41.5656 58.4093 41.75 57.9642 41.75 57.5V43.5ZM55.75 36.5C55.75 32.3229 54.0906 28.3168 51.1369 25.3631C48.1832 22.4094 44.1772 20.75 40 20.75C35.8228 20.75 31.8168 22.4094 28.8631 25.3631C25.9094 28.3168 24.25 32.3229 24.25 36.5V38.25H55.75V36.5Z" fill="#30D04D"/>
</svg>
