<svg width="80" height="80" viewBox="0 0 80 80" fill="none" xmlns="http://www.w3.org/2000/svg">
<path d="M59.752 28.7128C59.7294 28.6884 59.7142 28.658 59.7083 28.6253L59.6208 28.5159C56.5217 23.4544 51.5673 19.8044 45.8147 18.3445C40.0622 16.8847 33.9669 17.7306 28.8293 20.7019C23.6917 23.6731 19.9186 28.5344 18.315 34.2486C16.7114 39.9627 17.4043 46.0773 20.2458 51.2878L20.2895 51.3753L20.3551 51.4628C23.4252 56.5807 28.3834 60.2872 34.1609 61.7833C39.9384 63.2795 46.0725 62.4454 51.2408 59.461C56.409 56.4765 60.1976 51.5807 61.7897 45.8289C63.3818 40.0771 62.65 33.93 59.752 28.7128ZM55.727 28.9097L41.7489 36.9597V20.8378C44.5235 21.0941 47.2097 21.9483 49.6226 23.3417C52.0356 24.7351 54.1182 26.6347 55.727 28.9097ZM39.9989 59.2503C36.9154 59.2493 33.8773 58.5077 31.1403 57.0878C28.4032 55.6679 26.0473 53.6112 24.2708 51.0909L57.477 31.9284C58.8318 34.8617 59.4266 38.0888 59.2064 41.3123C58.9861 44.5358 57.9581 47.652 56.217 50.3738C54.4758 53.0955 52.0776 55.3352 49.2433 56.8865C46.4091 58.4378 43.2299 59.2507 39.9989 59.2503Z" fill="#F78E1F"/>
</svg>
