<svg width="152" height="104" viewBox="0 0 152 104" fill="none" xmlns="http://www.w3.org/2000/svg">
<g clip-path="url(#clip0_7441_7537)">
<path d="M108.719 4.8206L117.929 3.18157V38.5182H108.719V4.8206ZM122.163 4.8206V38.4986H131.372V3.18157L122.163 4.8206ZM95.6261 38.4986H104.836V12.6645H95.6261V38.4986ZM34.7676 16.3133C33.5968 16.2352 30.9042 16.0596 30.9042 13.6401C30.9042 10.7133 34.7871 10.7133 36.231 10.7133C38.7871 10.7133 42.1042 11.4743 44.4651 12.1767C44.4651 12.1767 45.792 12.645 46.9042 13.1133L47.0017 13.1328V5.13279L46.8651 5.09377C44.0749 4.11816 40.8359 3.18157 34.8066 3.18157C24.4261 3.18157 20.7578 9.23036 20.7578 14.4011C20.7578 17.3865 22.0456 24.4108 33.9285 25.2304C34.9432 25.2889 37.6163 25.445 37.6163 27.9621C37.6163 30.0304 35.431 31.2596 31.7432 31.2596C27.7042 31.2596 23.8017 30.2255 21.4212 29.2499V37.5035C24.9724 38.4401 28.992 38.9084 33.6944 38.9084C43.8407 38.9084 48.3871 33.1913 48.3871 27.5133C48.3871 21.0743 43.3139 16.8986 34.7676 16.3133ZM90.4359 12.2938C81.9285 12.5669 77.6163 16.3913 77.6163 23.9816V38.5182H86.9042V26.6547C86.9042 22.1084 87.4895 20.1572 92.8944 19.9816V12.4108C91.9578 12.2352 90.4359 12.2938 90.4359 12.2938ZM65.4603 12.645C65.2651 13.1523 63.7822 17.3279 60.2115 21.6401V3.18157L50.709 5.05474V38.4986H60.2115V28.1572C62.9627 32.2938 64.3285 38.4986 64.3285 38.4986H75.7042C74.5724 33.8157 69.6554 25.1913 69.6554 25.1913C74.0651 19.5913 76.0163 13.6206 76.3285 12.6255H65.4603V12.645ZM100.211 10.1865C102.709 10.1865 104.758 8.15718 104.758 5.65962C104.758 3.16206 102.729 1.11328 100.211 1.11328C97.7139 1.11328 95.6846 3.14255 95.6846 5.65962C95.6846 8.15718 97.7139 10.1865 100.211 10.1865Z" fill="url(#paint0_linear_7441_7537)"/>
</g>
<g clip-path="url(#clip1_7441_7537)">
<path d="M18.9501 63.9986H7.2749C6.47582 63.9986 5.79643 64.5791 5.67176 65.3681L0.94976 95.3064C0.855843 95.8969 1.31346 96.4297 1.91258 96.4297H7.48651C8.28544 96.4297 8.96484 95.8493 9.0895 95.0589L10.363 86.9842C10.486 86.1936 11.1671 85.6131 11.9643 85.6131H15.6604C23.3511 85.6131 27.7897 81.8915 28.949 74.5166C29.4713 71.29 28.9711 68.7549 27.4602 66.9795C25.8009 65.0297 22.8577 63.9986 18.9501 63.9986ZM20.2971 74.9332C19.6586 79.1225 16.4576 79.1225 13.3625 79.1225H11.6008L12.8367 71.2986C12.9102 70.8257 13.3198 70.4775 13.7979 70.4775H14.6053C16.7136 70.4775 18.7026 70.4775 19.7302 71.6792C20.3431 72.3963 20.531 73.4615 20.2971 74.9332Z" fill="#283B82"/>
<path d="M53.8499 74.8029H48.2592C47.7829 74.8029 47.3716 75.1512 47.2978 75.6241L47.0506 77.1878L46.6595 76.621C45.4492 74.8643 42.75 74.2771 40.0561 74.2771C33.878 74.2771 28.6012 78.9564 27.5735 85.5204C27.0392 88.7947 27.7989 91.9257 29.6562 94.109C31.3599 96.1166 33.7977 96.9531 36.6984 96.9531C41.6764 96.9531 44.4369 93.7524 44.4369 93.7524L44.1876 95.3059C44.0935 95.9 44.5512 96.4326 45.1472 96.4326H50.1829C50.9837 96.4326 51.6597 95.8521 51.7862 95.0618L54.8077 75.9262C54.9035 75.3372 54.4476 74.8029 53.8499 74.8029ZM46.0569 85.6843C45.5176 88.8783 42.9822 91.0227 39.7491 91.0227C38.1256 91.0227 36.828 90.5019 35.9948 89.5152C35.1686 88.5352 34.8545 87.1405 35.1174 85.5869C35.621 82.4202 38.199 80.2061 41.3826 80.2061C42.9705 80.2061 44.261 80.7336 45.1112 81.7287C45.9632 82.7342 46.3008 84.1376 46.0569 85.6843Z" fill="#283B82"/>
<path d="M83.6268 74.8022H78.0087C77.4726 74.8022 76.969 75.0686 76.6651 75.5142L68.9162 86.9283L65.6318 75.9598C65.4252 75.2734 64.7919 74.8022 64.0749 74.8022H58.554C57.8829 74.8022 57.417 75.4577 57.6304 76.0894L63.8188 94.2502L58.0008 102.463C57.5431 103.11 58.004 104 58.7948 104H64.4062C64.9387 104 65.4373 103.74 65.7394 103.303L84.4258 76.3303C84.8731 75.6848 84.414 74.8022 83.6268 74.8022Z" fill="#283B82"/>
<path d="M102.223 63.9986H90.5466C89.7494 63.9986 89.0698 64.5791 88.9451 65.3681L84.2231 95.3064C84.1295 95.8969 84.5868 96.4297 85.1827 96.4297H91.1749C91.7312 96.4297 92.2078 96.0236 92.2947 95.4704L93.6347 86.9842C93.7576 86.1936 94.439 85.6131 95.2361 85.6131H98.9305C106.623 85.6131 111.06 81.8915 112.221 74.5166C112.745 71.29 112.241 68.7549 110.73 66.9795C109.073 65.0297 106.131 63.9986 102.223 63.9986ZM103.571 74.9332C102.934 79.1225 99.733 79.1225 96.636 79.1225H94.876L96.1138 71.2986C96.1872 70.8257 96.5932 70.4775 97.073 70.4775H97.8805C99.9873 70.4775 101.978 70.4775 103.005 71.6792C103.618 72.3963 103.804 73.4615 103.571 74.9332Z" fill="#469BDB"/>
<path d="M137.124 74.8029H131.537C131.057 74.8029 130.649 75.1512 130.577 75.6241L130.33 77.1878L129.937 76.621C128.727 74.8643 126.029 74.2771 123.335 74.2771C117.157 74.2771 111.882 78.9564 110.854 85.5204C110.322 88.7947 111.078 91.9257 112.935 94.109C114.643 96.1166 117.077 96.9531 119.977 96.9531C124.955 96.9531 127.716 93.7524 127.716 93.7524L127.467 95.3059C127.373 95.9 127.83 96.4326 128.43 96.4326H133.464C134.261 96.4326 134.941 95.8521 135.065 95.0618L138.089 75.9262C138.181 75.3372 137.723 74.8029 137.124 74.8029ZM129.331 85.6843C128.795 88.8783 126.256 91.0227 123.023 91.0227C121.403 91.0227 120.102 90.5019 119.269 89.5152C118.443 88.5352 118.132 87.1405 118.392 85.5869C118.898 82.4202 121.473 80.2061 124.657 80.2061C126.244 80.2061 127.535 80.7336 128.385 81.7287C129.24 82.7342 129.578 84.1376 129.331 85.6843Z" fill="#469BDB"/>
<path d="M143.718 64.8199L138.926 95.3064C138.833 95.8969 139.29 96.4297 139.886 96.4297H144.703C145.504 96.4297 146.184 95.8493 146.307 95.0589L151.032 65.1223C151.126 64.5314 150.668 63.9971 150.072 63.9971H144.678C144.201 63.9986 143.792 64.3473 143.718 64.8199Z" fill="#469BDB"/>
</g>
<defs>
<linearGradient id="paint0_linear_7441_7537" x1="20.7773" y1="19.9986" x2="131.379" y2="19.9986" gradientUnits="userSpaceOnUse">
<stop stop-color="#872166"/>
<stop offset="1" stop-color="#4F2455"/>
</linearGradient>
<clipPath id="clip0_7441_7537">
<rect width="110.829" height="40" fill="white" transform="translate(20.5859)"/>
</clipPath>
<clipPath id="clip1_7441_7537">
<rect width="150.105" height="40" fill="white" transform="translate(0.945312 64)"/>
</clipPath>
</defs>
</svg>
