<svg width="178" height="32" viewBox="0 0 178 32" fill="none" xmlns="http://www.w3.org/2000/svg">
<g clip-path="url(#clip0_9531_10403)">
<mask id="mask0_9531_10403" style="mask-type:luminance" maskUnits="userSpaceOnUse" x="0" y="4" width="121" height="24">
<path d="M0.421875 4H120.422V27.5697H0.421875V4Z" fill="white"/>
</mask>
<g mask="url(#mask0_9531_10403)">
<path d="M106.36 27.544H102.603V18.7523C102.603 16.3669 101.1 14.4751 98.617 14.4751C96.0687 14.4751 94.5662 16.3763 94.5662 18.7523V27.544H90.8067V18.7223C90.8067 13.9523 93.8779 10.8811 98.6162 10.8811C103.32 10.8811 106.36 13.9523 106.36 18.7223L106.36 27.5431V27.544ZM76.4916 12.8183C75.2384 11.5497 73.4719 10.8794 71.383 10.8794C70.3382 10.8666 69.3002 11.0577 68.3273 11.44C67.5267 11.7606 66.8007 12.2431 66.1956 12.8577C65.5967 12.244 64.8769 11.7612 64.0819 11.44C63.1167 11.0569 62.0856 10.8666 61.0476 10.8794C58.9433 10.8794 57.1639 11.5497 55.8996 12.8183C54.6353 14.0869 53.9659 15.88 53.9659 17.9903V27.5389H57.721V18.0186C57.721 17.0311 58.0339 16.1389 58.6013 15.508C59.1953 14.8429 60.0456 14.4914 61.0476 14.4914C61.969 14.4914 62.7653 14.8086 63.349 15.4077C63.9002 15.9734 64.2404 16.7826 64.2996 17.6843V17.9911V27.5397H68.0727V17.9911V17.686C68.1396 16.768 68.4722 15.9803 69.0362 15.4086C69.6302 14.8146 70.4402 14.4923 71.3873 14.4923C72.3636 14.4923 73.1916 14.8489 73.7822 15.5089C74.3453 16.1431 74.6564 17.0346 74.6564 18.0203V27.5397H78.4116V17.9903C78.4116 15.8757 77.749 14.086 76.4967 12.8191M41.6016 4.018H37.8404V27.5483H41.6016V4.018ZM49.6587 8.99029H45.9019V4.01886H49.6596L49.6587 8.99029ZM49.6587 11.3106V27.5749L45.901 27.55V11.3054L49.6587 11.3106ZM86.4833 8.98943H82.7247V4.018H86.4833V8.98943ZM86.4833 27.5491H82.7247V11.3046H86.4833V27.5483V27.5491ZM120.423 14.9646H113.824V22.48C113.824 23.3629 114.346 23.8857 115.294 23.8857H120.423V27.5449H114.542C111.732 27.5449 110.065 25.9111 110.065 23.134V4.01457H113.824V11.3054H120.423V14.9646ZM0.421875 4H4.17959V12.7917C4.17959 15.1771 5.68216 17.0689 8.1653 17.0689C10.7136 17.0689 12.2162 15.1677 12.2162 12.7917V4H15.9739V12.8226C15.9739 17.5926 12.9027 20.6637 8.1653 20.6637C3.4613 20.6637 0.421875 17.5926 0.421875 12.8226V4ZM33.577 27.5449H29.8193V18.7531C29.8193 16.3677 28.3167 14.476 25.8336 14.476C23.2853 14.476 21.7827 16.3771 21.7827 18.7531V27.5449H18.0242V18.7223C18.0242 13.9523 21.0953 10.8811 25.8327 10.8811C30.5376 10.8811 33.5762 13.9523 33.5762 18.7223L33.577 27.5449Z" fill="black"/>
</g>
</g>
<g clip-path="url(#clip1_9531_10403)">
<path d="M159.656 7.61719H150.322V24.3894H159.656V7.61719Z" fill="#FF5F00"/>
<path d="M150.915 16.0026C150.913 14.3873 151.279 12.7928 151.985 11.3399C152.691 9.88702 153.718 8.61374 154.989 7.61647C153.415 6.37962 151.525 5.61045 149.535 5.39686C147.545 5.18327 145.535 5.53387 143.735 6.40861C141.935 7.28335 140.417 8.64693 139.355 10.3435C138.294 12.04 137.73 14.0011 137.73 16.0026C137.73 18.004 138.294 19.9651 139.355 21.6617C140.417 23.3582 141.935 24.7218 143.735 25.5966C145.535 26.4713 147.545 26.8219 149.535 26.6083C151.525 26.3947 153.415 25.6255 154.989 24.3887C153.718 23.3914 152.691 22.1181 151.985 20.6652C151.279 19.2123 150.913 17.6179 150.915 16.0026Z" fill="#EB001B"/>
<path d="M172.246 16.0026C172.246 18.004 171.683 19.9651 170.621 21.6616C169.56 23.3582 168.042 24.7218 166.242 25.5965C164.442 26.4713 162.432 26.8219 160.442 26.6083C158.452 26.3947 156.562 25.6255 154.988 24.3887C156.258 23.3904 157.284 22.1169 157.99 20.6643C158.696 19.2116 159.062 17.6176 159.062 16.0026C159.062 14.3876 158.696 12.7936 157.99 11.3409C157.284 9.88824 156.258 8.61475 154.988 7.61647C156.562 6.37962 158.452 5.61044 160.442 5.39685C162.432 5.18327 164.442 5.53388 166.242 6.40864C168.042 7.28339 169.56 8.64697 170.621 10.3435C171.683 12.0401 172.246 14.0012 172.246 16.0026Z" fill="#F79E1B"/>
<path d="M171.228 22.6132V22.2699H171.366V22.1999H171.014V22.2699H171.152V22.6132H171.228ZM171.912 22.6132V22.1992H171.804L171.68 22.484L171.556 22.1992H171.448V22.6132H171.524V22.3009L171.64 22.5702H171.72L171.836 22.3003V22.6132H171.912Z" fill="#F79E1B"/>
</g>
<defs>
<clipPath id="clip0_9531_10403">
<rect width="120" height="24" fill="white" transform="translate(0.421875 4)"/>
</clipPath>
<clipPath id="clip1_9531_10403">
<rect width="45.1575" height="32" fill="white" transform="translate(132.422)"/>
</clipPath>
</defs>
</svg>
