<svg width="52" height="32" viewBox="0 0 52 32" fill="none" xmlns="http://www.w3.org/2000/svg">
<g clip-path="url(#clip0_10232_16717)">
<path d="M10.4067 0H23.1624C24.943 0 26.0505 1.45133 25.6351 3.23782L19.6964 28.7349C19.2773 30.5152 17.4945 31.9678 15.7127 31.9678H2.95824C1.18015 31.9678 0.0701961 30.5152 0.485572 28.7349L6.42676 3.23782C6.84213 1.45133 8.62396 0 10.4067 0Z" fill="#E21836"/>
<path d="M22.1012 0H36.77C38.5503 0 37.7475 1.45133 37.3287 3.23782L31.3909 28.7349C30.9743 30.5152 31.1043 31.9678 29.3203 31.9678H14.6515C12.8675 31.9678 11.7635 30.5152 12.1826 28.7349L18.12 3.23782C18.5416 1.45133 20.3197 0 22.1012 0Z" fill="#00447C"/>
<path d="M36.1885 0H48.9442C50.7273 0 51.8348 1.45133 51.416 3.23782L45.4782 28.7349C45.0591 30.5152 43.2751 31.9678 41.4923 31.9678H28.7425C26.9585 31.9678 25.852 30.5152 26.2699 28.7349L32.2086 3.23782C32.6239 1.45133 34.4045 0 36.1885 0Z" fill="#007B84"/>
<path d="M13.7383 8.17002C12.4266 8.18339 12.0392 8.17002 11.9155 8.14079C11.8679 8.36683 10.9827 12.45 10.9803 12.4534C10.7897 13.2795 10.651 13.8684 10.18 14.2486C9.91259 14.4697 9.60043 14.5763 9.23853 14.5763C8.65682 14.5763 8.31793 14.2875 8.26103 13.7397L8.25015 13.5516C8.25015 13.5516 8.42737 12.445 8.42737 12.4388C8.42737 12.4388 9.35637 8.71784 9.52271 8.22598C9.53141 8.198 9.5339 8.18339 9.53608 8.17002C7.72782 8.18588 7.40727 8.17002 7.3852 8.14079C7.37307 8.1809 7.3283 8.4116 7.3283 8.4116L6.37971 12.6055L6.29826 12.9611L6.14062 14.1246C6.14062 14.4697 6.2084 14.7514 6.34334 14.9895C6.7755 15.7447 8.00826 15.8579 8.70563 15.8579C9.60417 15.8579 10.447 15.667 11.0166 15.3185C12.0053 14.7343 12.264 13.8211 12.4947 13.0096L12.6017 12.5933C12.6017 12.5933 13.5586 8.72873 13.7212 8.22598C13.7275 8.198 13.7299 8.18339 13.7383 8.17002ZM16.9944 11.2876C16.7637 11.2876 16.3421 11.3436 15.9634 11.5292C15.826 11.5998 15.696 11.6813 15.5589 11.7624L15.6827 11.3156L15.6149 11.2404C14.8118 11.403 14.6321 11.4248 13.8903 11.5292L13.8281 11.5706C13.742 12.2847 13.6655 12.8217 13.3462 14.2254C13.2246 14.7428 13.0984 15.2651 12.9719 15.7812L13.0061 15.8468C13.7662 15.8067 13.9969 15.8067 14.6576 15.8176L14.7111 15.7595C14.795 15.3295 14.8059 15.2287 14.9918 14.3579C15.0792 13.945 15.2614 13.0378 15.3512 12.7147C15.5163 12.6382 15.6793 12.563 15.8347 12.563C16.205 12.563 16.1599 12.886 16.1456 13.0147C16.1298 13.2308 15.9948 13.9366 15.8565 14.5426L15.7641 14.9337C15.6998 15.2225 15.6292 15.5033 15.5648 15.7896L15.5928 15.8468C16.3421 15.8067 16.5706 15.8067 17.2105 15.8176L17.2857 15.7595C17.4014 15.0879 17.4353 14.9082 17.6405 13.9304L17.7437 13.4811C17.9442 12.6019 18.045 12.156 17.8933 11.7929C17.7328 11.3859 17.3479 11.2876 16.9944 11.2876ZM20.6318 12.2082C20.2335 12.2847 19.9795 12.3357 19.7271 12.3686C19.4768 12.4088 19.2327 12.4451 18.8478 12.4986L18.8173 12.5263L18.7894 12.5484C18.7492 12.835 18.7213 13.0828 18.6681 13.3741C18.623 13.6754 18.5537 14.0177 18.4408 14.5096C18.3535 14.8861 18.3084 15.0173 18.2586 15.1497C18.2101 15.2822 18.1567 15.4109 18.0584 15.7812L18.0814 15.8154L18.1007 15.8468C18.4604 15.8297 18.6958 15.8176 18.9377 15.8154C19.1792 15.8067 19.4295 15.8154 19.8169 15.8176L19.8508 15.7899L19.8872 15.7594C19.9431 15.4255 19.9515 15.3357 19.9857 15.1727C20.0196 14.998 20.0781 14.7561 20.2214 14.1101C20.2892 13.8066 20.3647 13.5041 20.435 13.1944C20.5081 12.886 20.5846 12.5822 20.6573 12.2788L20.6464 12.2421L20.6318 12.2082ZM20.6403 10.967C20.2784 10.7534 19.6432 10.8212 19.2157 11.1162C18.7895 11.4054 18.741 11.8158 19.1016 12.0322C19.4573 12.2399 20.095 12.178 20.5187 11.8805C20.9441 11.5851 20.9972 11.1784 20.6403 10.967ZM22.829 15.9137C23.5611 15.9137 24.3117 15.712 24.8766 15.1131C25.3113 14.6275 25.5106 13.9049 25.5796 13.6074C25.8044 12.6212 25.6293 12.1607 25.4095 11.8803C25.0756 11.4528 24.4855 11.3157 23.8733 11.3157C23.5052 11.3157 22.6284 11.3521 21.9435 11.9835C21.4516 12.439 21.2243 13.0571 21.0872 13.6497C20.9489 14.2535 20.7897 15.3404 21.7893 15.7449C22.0977 15.8774 22.5423 15.9137 22.829 15.9137ZM22.7717 13.6948C22.9406 12.948 23.1399 12.3212 23.6485 12.3212C24.0471 12.3212 24.076 12.7875 23.8988 13.5368C23.8671 13.7032 23.7216 14.3216 23.5248 14.5849C23.3873 14.7792 23.2247 14.8971 23.045 14.8971C22.9916 14.8971 22.6735 14.8971 22.6685 14.4248C22.666 14.1916 22.7136 13.9534 22.7717 13.6948ZM27.4099 15.8177L27.4671 15.7596C27.5483 15.3296 27.5616 15.2285 27.7413 14.358C27.8312 13.9451 28.0171 13.0378 28.1045 12.7148C28.2699 12.638 28.43 12.5628 28.5904 12.5628C28.9582 12.5628 28.9135 12.8858 28.8989 13.0145C28.8855 13.2309 28.7506 13.9364 28.6097 14.5423L28.5223 14.9335C28.4555 15.2226 28.3827 15.5031 28.3184 15.7897L28.3464 15.8469C29.0981 15.8068 29.318 15.8068 29.9615 15.8177L30.0393 15.7596C30.1521 15.0877 30.1826 14.908 30.394 13.9305L30.4948 13.4809C30.6962 12.6016 30.7982 12.1561 30.649 11.793C30.4839 11.386 30.0965 11.2877 29.748 11.2877C29.5169 11.2877 29.0932 11.3434 28.7167 11.5293C28.582 11.5999 28.4471 11.681 28.3147 11.7625L28.43 11.3157L28.3681 11.2402C27.5654 11.4031 27.3819 11.4248 26.641 11.5293L26.5841 11.5707C26.4943 12.2848 26.4212 12.8215 26.1019 14.2255C25.9803 14.7429 25.8541 15.2652 25.7279 15.7813L25.7618 15.8469C26.5232 15.8068 26.7505 15.8068 27.4099 15.8177ZM32.9334 15.8468C32.9806 15.6161 33.2614 14.2487 33.2639 14.2487C33.2639 14.2487 33.503 13.2454 33.5176 13.209C33.5176 13.209 33.5928 13.1045 33.6681 13.0632H33.7787C34.8231 13.0632 36.0024 13.0632 36.9267 12.3832C37.5557 11.9169 37.9857 11.2282 38.1775 10.3912C38.2273 10.186 38.2639 9.94196 38.2639 9.6979C38.2639 9.37735 38.1996 9.06022 38.0137 8.81242C37.5423 8.15298 36.6037 8.14086 35.5202 8.13588C35.5167 8.13588 34.986 8.14086 34.986 8.14086C33.599 8.15796 33.0428 8.15298 32.8143 8.125C32.795 8.22605 32.7587 8.40575 32.7587 8.40575C32.7587 8.40575 32.2618 10.7084 32.2618 10.7121C32.2618 10.7121 31.0729 15.6077 31.0169 15.8384C32.2279 15.8238 32.7245 15.8238 32.9334 15.8468ZM33.854 11.7564C33.854 11.7564 34.3822 9.45849 34.3797 9.4672L34.3968 9.34936L34.4043 9.25951L34.6154 9.28128C34.6154 9.28128 35.7048 9.37486 35.7303 9.37735C36.1603 9.54368 36.3375 9.97243 36.2138 10.5321C36.1009 11.0435 35.7692 11.4735 35.3429 11.6812C34.9919 11.8572 34.5619 11.8718 34.1189 11.8718H33.8322L33.854 11.7564ZM37.1429 13.7373C37.0033 14.3324 36.8429 15.4194 37.8375 15.8068C38.1546 15.9417 38.4388 15.9818 38.7276 15.9672C39.0326 15.9507 39.3153 15.7977 39.577 15.5776C39.5534 15.6681 39.5298 15.7586 39.5062 15.8493L39.5512 15.9075C40.2666 15.8773 40.4886 15.8773 41.2637 15.8832L41.334 15.8298C41.4472 15.1644 41.5538 14.5183 41.8479 13.2455C41.9913 12.6358 42.1343 12.032 42.2813 11.4248L42.2583 11.3579C41.458 11.5062 41.2441 11.538 40.4743 11.6471L40.4159 11.6947C40.4081 11.7565 40.4 11.8159 40.3926 11.8753C40.2729 11.6819 40.0994 11.5168 39.8317 11.4139C39.4894 11.2793 38.6853 11.4528 37.9942 12.082C37.5086 12.5313 37.2754 13.1469 37.1429 13.7373ZM38.8237 13.7737C38.995 13.0403 39.1918 12.4197 39.7017 12.4197C40.0241 12.4197 40.1939 12.7172 40.1594 13.2246C40.132 13.3512 40.1025 13.4846 40.0673 13.6354C40.0164 13.8533 39.961 14.0694 39.9072 14.2858C39.8525 14.4338 39.7888 14.5734 39.7188 14.6663C39.5876 14.8523 39.2755 14.9676 39.0957 14.9676C39.0448 14.9676 38.7301 14.9676 38.7192 14.5037C38.7168 14.2727 38.7643 14.0349 38.8237 13.7737ZM47.6009 11.352L47.539 11.2814C46.7471 11.4419 46.6038 11.4673 45.8762 11.5656L45.8228 11.6191C45.8203 11.6278 45.8181 11.6411 45.8144 11.6533L45.8119 11.6411C45.2703 12.8907 45.2861 12.6211 44.8453 13.6049C44.8428 13.5601 44.8428 13.5321 44.8403 13.4845L44.7299 11.352L44.6606 11.2814C43.8311 11.4419 43.8115 11.4673 43.0454 11.5656L42.9857 11.6191C42.9773 11.6446 42.9773 11.6725 42.9723 11.703L42.9773 11.7139C43.0731 12.2033 43.0501 12.0941 43.1461 12.8664C43.1909 13.2454 43.2506 13.6266 43.2954 14.001C43.3709 14.6274 43.4132 14.9359 43.5055 15.8919C42.9882 16.7457 42.8657 17.0687 42.3676 17.818L42.371 17.8255L42.0203 18.3801C41.9802 18.4386 41.9438 18.4787 41.8929 18.4958C41.8369 18.5235 41.7641 18.5284 41.6631 18.5284H41.4688L41.1799 19.4891L42.1708 19.5062C42.7525 19.5038 43.1182 19.2317 43.315 18.8661L43.938 17.7984H43.9281L43.9937 17.7232C44.4128 16.8209 47.6009 11.352 47.6009 11.352ZM37.1429 23.9695H36.7225L38.2783 18.8236H38.7944L38.9583 18.2935L38.9742 18.883C38.9549 19.2474 39.2415 19.5704 39.9946 19.517H40.8654L41.1651 18.5261H40.8374C40.649 18.5261 40.5617 18.4785 40.5725 18.3766L40.5567 17.7768H38.944V17.7799C38.4226 17.7908 36.8656 17.83 36.5503 17.9139C36.1688 18.0122 35.7668 18.3013 35.7668 18.3013L35.9247 17.7706H34.4162L34.1019 18.8236L32.5253 24.0482H32.2193L31.9193 25.0319H34.9239L34.8232 25.3599H36.3037L36.402 25.0319H36.8174L37.1429 23.9695ZM35.9101 19.8692C35.6686 19.9361 35.219 20.1388 35.219 20.1388L35.6188 18.8236H36.8174L36.5282 19.7819C36.5282 19.7819 36.1579 19.8036 35.9101 19.8692ZM35.9331 21.7481C35.9331 21.7481 35.5566 21.7953 35.3088 21.8513C35.0648 21.9253 34.6071 22.1585 34.6071 22.1585L35.02 20.7898H36.2248L35.9331 21.7481ZM35.2616 23.9816H34.0593L34.4078 22.8266H35.6064L35.2616 23.9816ZM38.157 20.7898H39.89L39.6409 21.5963H37.8849L37.6213 22.4781H39.1578L37.9944 24.1163C37.9129 24.2366 37.8398 24.2792 37.7587 24.3131C37.6772 24.3544 37.5703 24.4029 37.4465 24.4029H37.0203L36.7274 25.3686H37.8423C38.4219 25.3686 38.7642 25.105 39.0169 24.7589L39.8147 23.667L39.986 24.7757C40.0224 24.9834 40.1717 25.105 40.2727 25.1522C40.3843 25.2082 40.4997 25.3043 40.6626 25.3186C40.8373 25.326 40.9635 25.3319 41.0475 25.3319H41.5953L41.9243 24.2512H41.7082C41.5841 24.2512 41.3705 24.2304 41.3341 24.1915C41.2978 24.1442 41.2978 24.0715 41.2782 23.9608L41.1044 22.8496H40.3927L40.7049 22.4781H42.4575L42.727 21.5963H41.1044L41.3572 20.7898H42.9748L43.2749 19.7952H38.452L38.157 20.7898ZM23.5199 24.2062L23.9244 22.8606H25.5868L25.8906 21.8598H24.2266L24.4806 21.0315H26.1066L26.4079 20.0624H22.3393L22.0443 21.0315H22.9686L22.7221 21.8598H21.7952L21.4881 22.8777H22.4121L21.873 24.658C21.8002 24.8936 21.9072 24.9835 21.9749 25.0929C22.0443 25.1996 22.1145 25.2701 22.2725 25.3103C22.4354 25.3466 22.547 25.3684 22.6987 25.3684H24.5729L24.9068 24.2597L24.0761 24.3738C23.9156 24.3738 23.4714 24.3545 23.5199 24.2062ZM23.7105 17.7645L23.2893 18.5259C23.1991 18.6923 23.1179 18.7955 23.0449 18.8431C22.9805 18.8832 22.853 18.9 22.6684 18.9H22.4486L22.1547 19.8741H22.8848C23.2358 19.8741 23.5053 19.7453 23.6341 19.681C23.7724 19.607 23.8088 19.6493 23.9157 19.546L24.1623 19.3324H26.4419L26.7444 18.3183H25.0757L25.3671 17.7645H23.7105ZM27.076 24.2258C27.0371 24.1698 27.0651 24.0712 27.1245 23.866L27.7475 21.8038H29.964C30.287 21.7991 30.5202 21.7954 30.6719 21.7845C30.8349 21.7674 31.0121 21.7093 31.2052 21.6048C31.4045 21.4954 31.5064 21.38 31.5926 21.2476C31.6886 21.1154 31.8428 20.8263 31.9753 20.3804L32.7585 17.7706L30.4584 17.784C30.4584 17.784 29.7501 17.8885 29.4383 18.0038C29.1236 18.1325 28.674 18.492 28.674 18.492L28.8817 17.7766H27.4609L25.4717 24.3738C25.4011 24.63 25.3538 24.8159 25.3429 24.9275C25.3392 25.0478 25.4947 25.1669 25.5954 25.2567C25.7145 25.3466 25.8905 25.332 26.0593 25.3466C26.2368 25.36 26.4893 25.3684 26.8378 25.3684H27.9297L28.2649 24.2366L27.2874 24.329C27.1829 24.329 27.1074 24.273 27.076 24.2258ZM28.1495 20.4109H30.4776L30.3296 20.8748C30.3088 20.8857 30.2591 20.8518 30.0221 20.8798H28.0062L28.1495 20.4109ZM28.6159 18.8551H30.9636L30.7948 19.4138C30.7948 19.4138 29.6882 19.4029 29.511 19.4356C28.7312 19.5705 28.2758 19.9871 28.2758 19.9871L28.6159 18.8551ZM30.3817 22.4282C30.3625 22.4975 30.332 22.5398 30.2894 22.5715C30.2421 22.602 30.1657 22.6129 30.0516 22.6129H29.7198L29.7394 22.0479H28.3596L28.3036 24.8098C28.3014 25.009 28.3207 25.1244 28.4665 25.2167C28.6124 25.3321 29.0616 25.3467 29.6663 25.3467H30.531L30.8431 24.3129L30.0904 24.3543L29.8401 24.3689C29.8059 24.3543 29.7733 24.3409 29.7369 24.3045C29.7052 24.2731 29.6517 24.2924 29.6604 24.0931L29.6663 23.3852L30.4557 23.3525C30.882 23.3525 31.0642 23.2138 31.2196 23.0817C31.368 22.9552 31.4165 22.8097 31.4724 22.6129L31.6049 21.9861H30.5201L30.3817 22.4282Z" fill="#FEFEFE"/>
</g>
<defs>
<clipPath id="clip0_10232_16717">
<rect width="51.2" height="32" fill="white" transform="translate(0.400391)"/>
</clipPath>
</defs>
</svg>
