<svg width="66" height="20" viewBox="0 0 66 20" fill="none" xmlns="http://www.w3.org/2000/svg">
<path d="M14.7449 6.37136H10.2523C10.2523 5.55025 10.1667 5.0004 9.99572 4.71447C9.72603 4.29658 8.98931 4.0913 7.78557 4.0913C6.61471 4.0913 5.83195 4.20861 5.45701 4.45054C5.0755 4.69248 4.88474 5.21301 4.88474 6.01946C4.88474 6.74526 5.05576 7.22913 5.39123 7.45641C5.63461 7.6177 5.95035 7.71301 6.3516 7.74233L7.25934 7.81564C9.1998 7.96227 10.4167 8.05758 10.8969 8.11623C12.4295 8.29218 13.5478 8.74673 14.2384 9.47987C14.7844 10.059 15.1067 10.8068 15.2119 11.7379C15.2711 12.2951 15.304 12.9256 15.304 13.6221C15.304 15.235 15.1659 16.408 14.8896 17.1558C14.3897 18.5268 13.2649 19.3919 11.5152 19.7585C10.7851 19.9124 9.66025 19.9857 8.15392 19.9857C5.64119 19.9857 3.88491 19.8171 2.89165 19.4799C1.67475 19.0693 0.872258 18.2335 0.490743 16.9799C0.260519 16.2907 0.155273 15.1324 0.155273 13.5048H4.64794C4.64794 13.6881 4.64794 13.8274 4.64794 13.9227C4.64794 14.7878 4.87158 15.3523 5.31888 15.6016C5.62803 15.7702 6.00297 15.8655 6.44369 15.8728H8.09472C8.93669 15.8728 9.47607 15.8215 9.70629 15.7262C10.1207 15.5429 10.3904 15.257 10.5219 14.8538C10.5877 14.6045 10.6272 14.2819 10.6272 13.8934C10.6272 13.0136 10.3378 12.4784 9.7655 12.2878C9.54843 12.2145 8.5486 12.1045 6.75942 11.9725C5.32545 11.8552 4.32562 11.7453 3.76651 11.6426C2.29307 11.3347 1.31297 10.7042 0.826213 9.75113C0.392076 8.92268 0.175007 7.69101 0.175007 6.04145C0.175007 4.78779 0.293408 3.78339 0.523632 3.02825C0.753857 2.27312 1.12879 1.69394 1.64844 1.30538C2.40489 0.704208 3.37841 0.34497 4.55585 0.242331C5.53594 0.147023 6.62787 0.0957031 7.82503 0.0957031C9.71287 0.0957031 11.0548 0.213005 11.8572 0.454941C13.8109 1.04145 14.791 2.68368 14.791 5.3743C14.7844 5.60157 14.7712 5.93148 14.7449 6.37136Z" fill="#10298E"/>
<path d="M34.4912 20V0H41.5295H42.6346H43.4897C44.7263 0 45.667 0.109971 46.3116 0.337243C47.7916 0.85044 48.7848 1.91349 49.2913 3.51173C49.5544 4.34751 49.686 5.61584 49.686 7.30205C49.686 9.33284 49.5413 10.7845 49.2519 11.6789C48.673 13.4311 47.489 14.4428 45.6933 14.7067C45.4828 14.7434 44.5816 14.7801 43.0029 14.8094L42.2004 14.8387H39.3193V20H34.4912ZM39.3193 10.1979H42.332C43.2858 10.1613 43.8646 10.0806 44.0751 9.94868C44.358 9.77273 44.5553 9.42082 44.6474 8.90029C44.7066 8.54839 44.7395 8.02786 44.7395 7.33871C44.7395 6.4956 44.6803 5.8651 44.5553 5.45455C44.3843 4.8827 43.9633 4.53079 43.3055 4.40616C43.174 4.38416 42.8648 4.37683 42.3715 4.37683H39.3193V10.1979Z" fill="#10298E"/>
<path d="M60.0368 16.5396H53.5774L52.7091 19.9927H47.71L53.1038 0H60.3855L65.8451 20H60.9511L60.0368 16.5396ZM59.0765 12.6466L56.8137 3.97361L54.6167 12.6393H59.0765V12.6466Z" fill="#10298E"/>
<path d="M27.8062 2.82728C29.7993 2.82728 31.5753 3.84634 32.7462 5.45191L33.7855 2.96657C32.1607 1.25103 29.944 0.195312 27.4971 0.195312C23.6951 0.195312 20.439 2.75396 19.1037 6.383H17.0712L15.874 9.24957H18.4854C18.4657 9.5135 18.4525 9.77743 18.4525 10.0487C18.4525 10.3786 18.4657 10.7012 18.4986 11.0238H17.1896L15.9924 13.8903H19.1695C20.5443 17.4241 23.7543 19.9021 27.5036 19.9021C29.3915 19.9021 31.1412 19.2716 32.5949 18.1939V14.6748C31.424 16.1557 29.7204 17.0941 27.8128 17.0941C25.5895 17.0941 23.6293 15.8185 22.4913 13.8757H29.1349L30.3321 11.0091H21.4981C21.452 10.6645 21.4257 10.3126 21.4257 9.95338C21.4257 9.71144 21.4389 9.46951 21.4586 9.2349H31.0688L32.266 6.36833H22.294C23.3991 4.2569 25.4514 2.82728 27.8062 2.82728Z" fill="#FFBE00"/>
<path d="M27.8231 2.89434C29.7241 2.89434 31.5001 3.84009 32.7038 5.48965L32.7827 5.59962L32.8354 5.47498L33.8747 2.98965L33.901 2.931L33.8615 2.88701C32.1513 1.08349 29.9017 0.09375 27.5205 0.09375C25.6655 0.09375 23.8764 0.694924 22.3569 1.84595C20.8703 2.96032 19.7257 4.51457 19.0548 6.34009L19.1272 6.28877H17.0946H17.042L17.0222 6.34009L15.8251 9.20666L15.7725 9.33129H15.8909H18.5023L18.4233 9.23598C18.4036 9.53657 18.3904 9.8005 18.3904 10.0424C18.3904 10.365 18.4036 10.6949 18.4365 11.0248L18.5154 10.9295H17.2064H17.1604L17.1407 10.9809L15.9303 13.8328L15.8777 13.9574H15.9961H19.1732L19.1008 13.9061C20.5348 17.5938 23.8303 19.9691 27.5073 19.9691C29.3491 19.9691 31.1251 19.3753 32.638 18.2463L32.6709 18.2243V18.1803V14.6612V14.4339L32.5394 14.6026C31.3422 16.1202 29.6188 16.9926 27.8165 16.9926C25.6918 16.9926 23.7251 15.8049 22.5542 13.8181L22.4884 13.9501H29.1518H29.2044L29.2241 13.8987L30.4213 11.0322L30.4739 10.9075H30.3555H21.5149L21.5938 10.9809C21.5478 10.6363 21.5215 10.2844 21.5215 9.9398C21.5215 9.70519 21.5346 9.46326 21.5544 9.22865L21.4754 9.3093H31.0857H31.1383L31.158 9.25798L32.3552 6.39141L32.4078 6.26677H32.2828H22.3108L22.3766 6.39874C23.5014 4.24331 25.5866 2.89434 27.8231 2.89434ZM22.3108 6.45006H32.2894L32.2171 6.32543L31.0199 9.192L31.0922 9.14068H21.482H21.4097L21.4031 9.22132C21.3834 9.46326 21.3702 9.70519 21.3702 9.94713C21.3702 10.299 21.3965 10.6583 21.4426 11.0175L21.4557 11.0908H21.5215H30.3555L30.2832 10.9662L29.086 13.8328L29.1584 13.7814H22.495H22.3503L22.4292 13.9134C23.6264 15.9515 25.6458 17.1685 27.8165 17.1685C29.6649 17.1685 31.4277 16.2741 32.6578 14.7199L32.5196 14.6612V18.1729L32.5525 18.0996C31.0594 19.2067 29.3162 19.7932 27.5073 19.7932C23.8961 19.7932 20.6532 17.4545 19.2456 13.8328L19.2258 13.7814H19.1732H15.9961L16.0685 13.9061L17.2656 11.0395L17.1933 11.0908H18.5023H18.5878L18.5812 10.9955C18.5549 10.6729 18.5352 10.343 18.5352 10.0278C18.5352 9.78584 18.5483 9.52191 18.568 9.22865L18.5746 9.13335H18.4891H15.8777L15.9501 9.25798L17.1472 6.39141L17.0749 6.44273H19.1074H19.16L19.1798 6.39141C19.8376 4.60255 20.9624 3.07762 22.4227 1.97792C23.9224 0.856214 25.6787 0.262372 27.5007 0.262372C29.8359 0.262372 32.0526 1.23745 33.7365 3.01164L33.7168 2.909L32.6775 5.39434L32.8091 5.37968C31.579 3.69346 29.7569 2.72572 27.8099 2.72572C25.5208 2.72572 23.3896 4.10402 22.2319 6.31809L22.1661 6.45006H22.3108Z" fill="#10298E"/>
</svg>
