<svg width="188" height="64" viewBox="0 0 188 64" fill="none" xmlns="http://www.w3.org/2000/svg">
<g clip-path="url(#clip0_10237_18149)">
<path d="M82.0159 10.75V44.2838H72.1582V10.75H82.0159Z" fill="white"/>
<path d="M117.098 36.0875H109.121V0H92.5575V8.19701H99.2034V36.0875H91.0127V44.2846H117.098V36.0875Z" fill="white"/>
<path d="M140.131 23.486C135.08 22.5053 133.309 21.8974 133.309 20.2962C133.309 18.5164 135.449 17.5357 137.865 17.5357C140.936 17.5357 142.954 18.1968 143.85 21.2519H153.163C152.407 12.3875 145.132 10.0625 137.633 10.0625C129.145 10.0625 123.336 14.349 123.336 20.6973C123.336 27.7099 128.478 29.4615 136.349 31.1629C140.858 32.1374 143.49 32.7704 143.49 34.8133C143.49 36.8031 141.033 37.4987 138.652 37.4987C134.594 37.4987 131.736 36.1168 131.63 32.7265H122.349C122.518 41.0112 128.778 44.9719 138.696 44.9719C147.704 44.9719 153.404 40.7637 153.404 33.9893C153.404 28.346 150.064 25.4131 140.131 23.486Z" fill="white"/>
<path d="M47.445 10.0625C39.8904 10.0625 32.4924 12.9452 32.0725 21.7971H41.6827C41.9804 18.6857 44.2364 17.5733 47.2633 17.5733C50.4249 17.5733 52.7437 18.9081 52.7437 22.1825V24.2193H45.8909C35.3751 24.2193 30.6719 28.2645 30.6719 34.6191C30.6719 40.8107 35.2091 44.9687 42.112 44.9687C46.3045 44.9687 50.4625 43.4772 53.3547 41.0144L53.9876 44.2825H62.6014V22.7058C62.6014 14.443 56.98 10.0625 47.445 10.0625ZM52.7437 33.9736C50.4281 35.675 47.8054 37.0976 44.1581 37.0976C41.783 37.0976 40.3604 35.8066 40.3604 34.1616C40.3604 31.8397 42.372 30.8276 45.8783 30.8276H52.7468V33.9736H52.7437Z" fill="white"/>
<path d="M19.2207 10.75C15.1692 10.75 11.9794 12.4013 9.35988 14.955L8.51385 10.75H0.00976562V44.2838H9.86749V23.6095C11.6441 21.1435 14.3326 19.7962 20.2986 19.7962H26.1769V10.75H19.2207Z" fill="white"/>
<path d="M180.916 10.75C176.865 10.75 173.675 12.4013 171.055 14.955L170.209 10.75H161.705V44.2838H171.563V23.6095C173.339 21.1435 176.028 19.7962 181.994 19.7962H187.872V10.75H180.916Z" fill="white"/>
<path d="M187.875 54.1406V63.9983H0.00488281V54.1406H187.875Z" fill="#DC1982"/>
</g>
<defs>
<clipPath id="clip0_10237_18149">
<rect width="187.87" height="64" fill="white"/>
</clipPath>
</defs>
</svg>
