<svg width="151" height="41" viewBox="0 0 151 41" fill="none" xmlns="http://www.w3.org/2000/svg">
<g clip-path="url(#clip0_10237_18465)">
<path d="M18.4472 0.496601H6.77197C5.97289 0.496601 5.2935 1.07719 5.16883 1.86615L0.446831 31.8045C0.352914 32.395 0.810533 32.9277 1.40965 32.9277H6.98358C7.78251 32.9277 8.46191 32.3474 8.58657 31.557L9.86009 23.4822C9.98308 22.6916 10.6642 22.1111 11.4614 22.1111H15.1574C22.8482 22.1111 27.2868 18.3895 28.4461 11.0146C28.9684 7.78803 28.4682 5.25297 26.9573 3.47755C25.298 1.52777 22.3548 0.496601 18.4472 0.496601ZM19.7942 11.4312C19.1557 15.6206 15.9547 15.6206 12.8596 15.6206H11.0978L12.3338 7.79669C12.4073 7.32375 12.8169 6.9755 13.295 6.9755H14.1024C16.2107 6.9755 18.1996 6.9755 19.2273 8.17721C19.8402 8.89432 20.028 9.95954 19.7942 11.4312Z" fill="#283B82"/>
<path d="M53.3499 11.3048H47.7592C47.2829 11.3048 46.8716 11.6531 46.7978 12.126L46.5506 13.6898L46.1595 13.1229C44.9492 11.3662 42.25 10.7791 39.5561 10.7791C33.378 10.7791 28.1012 15.4584 27.0735 22.0224C26.5392 25.2967 27.2989 28.4277 29.1562 30.611C30.8599 32.6186 33.2977 33.4551 36.1984 33.4551C41.1764 33.4551 43.9369 30.2544 43.9369 30.2544L43.6876 31.8078C43.5935 32.4019 44.0512 32.9345 44.6472 32.9345H49.6829C50.4837 32.9345 51.1597 32.3541 51.2862 31.5638L54.3077 12.4281C54.4035 11.8391 53.9476 11.3048 53.3499 11.3048ZM45.5569 22.1863C45.0176 25.3803 42.4822 27.5247 39.2491 27.5247C37.6256 27.5247 36.328 27.0039 35.4948 26.0171C34.6686 25.0372 34.3545 23.6425 34.6174 22.0889C35.121 18.9221 37.699 16.7081 40.8826 16.7081C42.4705 16.7081 43.761 17.2355 44.6112 18.2306C45.4632 19.2362 45.8008 20.6395 45.5569 22.1863Z" fill="#283B82"/>
<path d="M83.1239 11.3022H77.5057C76.9697 11.3022 76.466 11.5686 76.1622 12.0142L68.4133 23.4283L65.1289 12.4598C64.9223 11.7734 64.289 11.3022 63.572 11.3022H58.0511C57.38 11.3022 56.9141 11.9577 57.1275 12.5894L63.3159 30.7502L57.4979 38.9634C57.0402 39.6102 57.5011 40.5 58.2918 40.5H63.9032C64.4357 40.5 64.9344 40.2404 65.2365 39.8033L83.9228 12.8303C84.3702 12.1848 83.9111 11.3022 83.1239 11.3022Z" fill="#283B82"/>
<path d="M101.716 0.496601H90.0388C89.2416 0.496601 88.562 1.07719 88.4373 1.86615L83.7153 31.8045C83.6217 32.395 84.079 32.9277 84.6749 32.9277H90.6671C91.2234 32.9277 91.7 32.5216 91.7869 31.9684L93.1269 23.4822C93.2498 22.6916 93.9312 22.1111 94.7283 22.1111H98.4227C106.115 22.1111 110.552 18.3895 111.713 11.0146C112.237 7.78803 111.734 5.25297 110.223 3.47755C108.565 1.52777 105.623 0.496601 101.716 0.496601ZM103.063 11.4312C102.426 15.6206 99.2252 15.6206 96.1282 15.6206H94.3682L95.606 7.79669C95.6794 7.32375 96.0854 6.9755 96.5652 6.9755H97.3727C99.4795 6.9755 101.47 6.9755 102.498 8.17721C103.111 8.89432 103.296 9.95954 103.063 11.4312Z" fill="#469BDB"/>
<path d="M136.624 11.3048H131.037C130.557 11.3048 130.149 11.6531 130.077 12.126L129.83 13.6898L129.437 13.1229C128.227 11.3662 125.529 10.7791 122.835 10.7791C116.657 10.7791 111.382 15.4584 110.354 22.0224C109.822 25.2967 110.578 28.4277 112.435 30.611C114.143 32.6186 116.577 33.4551 119.477 33.4551C124.455 33.4551 127.216 30.2544 127.216 30.2544L126.967 31.8078C126.873 32.4019 127.33 32.9345 127.93 32.9345H132.964C133.761 32.9345 134.441 32.3541 134.565 31.5638L137.589 12.4281C137.681 11.8391 137.223 11.3048 136.624 11.3048ZM128.831 22.1863C128.295 25.3803 125.756 27.5247 122.523 27.5247C120.903 27.5247 119.602 27.0039 118.769 26.0171C117.943 25.0372 117.632 23.6425 117.892 22.0889C118.398 18.9221 120.973 16.7081 124.157 16.7081C125.744 16.7081 127.035 17.2355 127.885 18.2306C128.74 19.2362 129.078 20.6395 128.831 22.1863Z" fill="#469BDB"/>
<path d="M143.22 1.31798L138.428 31.8045C138.335 32.395 138.792 32.9277 139.388 32.9277H144.205C145.006 32.9277 145.686 32.3474 145.808 31.557L150.534 1.62038C150.628 1.02946 150.17 0.495182 149.574 0.495182H144.18C143.703 0.496609 143.294 0.845314 143.22 1.31798Z" fill="#469BDB"/>
</g>
<defs>
<clipPath id="clip0_10237_18465">
<rect width="150.105" height="40" fill="white" transform="translate(0.447266 0.5)"/>
</clipPath>
</defs>
</svg>
