<svg width="191" height="27" viewBox="0 0 191 27" fill="none" xmlns="http://www.w3.org/2000/svg">
<path d="M180.462 0.143786C174.162 0.143786 170.417 4.62145 170.417 10.0586C170.417 15.4942 174.162 19.9735 180.462 19.9735C186.763 19.9735 190.5 15.5243 190.5 10.0586C190.5 4.59137 186.757 0.143786 180.462 0.143786ZM180.462 17.608C175.952 17.608 173.136 14.3463 173.136 10.0586C173.136 5.77095 175.952 2.50929 180.462 2.50929C184.971 2.50929 187.783 5.80737 187.783 10.0586C187.783 14.3083 184.966 17.6064 180.462 17.6064V17.608ZM91.4213 2.50929C94.9363 2.50929 97.4333 4.94287 97.5932 7.46987H100.218C100.057 3.78862 96.8585 0.142203 91.5512 0.142203C85.1213 0.142203 81.4764 4.65154 81.4764 10.0871C81.4764 15.4309 84.9281 19.9719 91.7111 19.9719C95.7708 19.9719 98.7474 18.113 100.218 16.2906L98.4893 14.7374C97.6044 15.639 96.5504 16.3574 95.3876 16.8513C94.2248 17.3452 92.976 17.605 91.7127 17.6159C86.627 17.6159 84.2235 14.2861 84.2235 10.0982C84.2235 5.62054 87.0102 2.51879 91.4213 2.51879M120.616 0.785036V8.81095C120.616 14.5363 117.195 17.6127 113.368 17.6127C110.204 17.6127 108.475 15.339 108.475 11.5327V0.78662H102.264V3.02387H105.845V12.1724C105.845 16.7118 108.434 19.975 113.167 19.975C116.848 19.975 119.339 18.0845 120.586 15.3976V19.3322H123.212V0.785036H120.616ZM167.133 0.785036L160.402 16.6801L153.528 0.785036H148.398V3.02387H151.659L158.979 20.0051C157.891 22.662 156.137 24.2928 153.931 24.2928C153.18 24.3261 152.432 24.171 151.756 23.8415V26.2387C152.575 26.536 153.443 26.6783 154.315 26.6583C157.478 26.6583 159.652 24.7995 161.153 21.3462L169.955 0.785036H167.133ZM135.531 4.14012V0.78662H127.662V3.02229H132.906V17.095H127.661V19.3306H141.926V17.095H135.53V8.39612C136.049 5.35612 138.725 2.5457 142.023 2.5457C143.192 2.50162 144.357 2.7084 145.44 3.15212V0.78662C144.56 0.340927 143.584 0.119559 142.598 0.142203C141.176 0.14592 139.779 0.515517 138.542 1.21543C137.304 1.91533 136.267 2.92199 135.531 4.13854V4.14012ZM69.7075 4.14012V0.785036H61.832V3.02387H67.0776V17.0965H61.832V19.3322H76.0963V17.0965H69.7075V8.39612C70.1888 5.35612 72.9058 2.5457 76.2308 2.5457C77.3916 2.50432 78.5478 2.71106 79.6223 3.15212V0.785036C78.729 0.341042 77.7411 0.120967 76.7438 0.143786C75.3285 0.159535 73.9404 0.534494 72.7097 1.2335C71.479 1.9325 70.4459 2.93264 69.7075 4.14012ZM33.8213 17.095V7.6947C33.8213 3.44345 31.1027 0.14537 27.0129 0.14537C22.9232 0.14537 20.9662 2.73412 20.0399 4.80512C19.6086 3.43675 18.7474 2.24405 17.5841 1.40426C16.4208 0.564469 15.0176 0.122414 13.5831 0.143786C9.95883 0.143786 8.04933 2.25754 7.02333 4.1797V0.78662H0.5V3.02387H4.4045V19.3322H7.02333V8.42779C7.283 6.28554 9.09433 2.54887 13.1033 2.54887C16.0135 2.54887 17.8248 4.1797 17.8248 8.46104V19.3338H20.4453V8.32804C20.7968 6.25704 22.5163 2.5457 26.492 2.5457C29.4323 2.5457 31.1945 4.17654 31.1945 8.45787V19.3306H36.79V17.0934H33.8228L33.8213 17.095ZM58.7255 10.0586C58.7255 4.59137 55.1408 0.142203 48.9722 0.142203C42.8003 0.142203 39.0874 4.65154 39.0874 10.0871C39.0874 15.6541 42.6705 19.9719 49.3237 19.9719C53.4657 19.9719 56.4218 17.9579 57.6077 16.3888L55.8818 14.8355C54.2827 16.5645 52.0771 17.5905 49.1527 17.5905C45.0107 17.5905 42.2098 14.8355 41.9042 10.9057H58.6875C58.7143 10.6236 58.7264 10.3404 58.7239 10.057L58.7255 10.0586ZM41.9358 8.68112C42.452 5.05687 45.1658 2.50929 48.9706 2.50929C50.7065 2.4474 52.4003 3.05245 53.7041 4.20021C55.0079 5.34797 55.8229 6.95135 55.9816 8.68112H41.9358Z" fill="#0D0802"/>
</svg>
