<svg width="191" height="41" viewBox="0 0 191 41" fill="none" xmlns="http://www.w3.org/2000/svg">
<path d="M28.3819 14.5816L24.4356 6.57497C22.7636 3.17207 20.78 1.84587 17.3771 1.84587H4.97007C4.62477 1.81833 4.27764 1.86703 3.95325 1.98851C3.62886 2.10999 3.33514 2.30129 3.09287 2.54887C2.84736 2.7974 2.65832 3.09595 2.53864 3.42416C2.41897 3.75238 2.37146 4.10253 2.39937 4.45077V35.2707C2.37311 35.6185 2.4214 35.9679 2.54099 36.2955C2.66058 36.6232 2.84873 36.9216 3.09287 37.1707C3.33604 37.4163 3.62972 37.606 3.95354 37.7267C4.27737 37.8475 4.62358 37.8963 4.96817 37.8699H16.961C20.7135 37.8699 22.7788 36.6197 24.3387 33.4182L28.4161 25.1399C29.2673 23.5629 29.7271 21.7978 29.7575 20.0004C29.7701 18.1062 29.2964 16.2404 28.3819 14.5816ZM17.018 32.6601H7.53697V7.05567H16.9724C18.7204 7.05567 18.9864 7.05567 19.8281 8.79227L23.5274 16.4626L23.6984 16.816C24.276 17.7926 24.5914 18.9041 24.618 20.0403C24.5777 21.0296 24.2952 21.9938 23.7953 22.8485L19.8509 30.9501C19.1251 32.4682 18.8173 32.6601 17.018 32.6601ZM66.228 22.3241C65.905 22.4457 65.5592 22.4951 65.2153 22.4666H49.4529V32.662H65.2153C65.5606 32.6344 65.9077 32.6831 66.2321 32.8046C66.5565 32.9261 66.8502 33.1174 67.0925 33.365C67.3385 33.6142 67.5277 33.9138 67.6471 34.2431C67.7665 34.5723 67.8132 34.9235 67.7841 35.2726C67.8106 35.6204 67.7624 35.9699 67.6428 36.2976C67.5232 36.6253 67.3349 36.9236 67.0906 37.1726C66.8473 37.418 66.5536 37.6077 66.2298 37.7284C65.906 37.8492 65.5598 37.8981 65.2153 37.8718H46.8841C46.5393 37.8999 46.1926 37.8518 45.8686 37.731C45.5445 37.6102 45.2509 37.4195 45.0088 37.1726C44.7633 36.9244 44.5743 36.6262 44.4546 36.2983C44.3349 35.9704 44.2874 35.6205 44.3153 35.2726V19.8674C44.2872 19.5187 44.334 19.1681 44.4526 18.8391C44.5713 18.5101 44.759 18.2102 45.0031 17.9598C45.2465 17.7127 45.541 17.5218 45.8659 17.4004C46.1908 17.279 46.5383 17.23 46.8841 17.2568H65.2153C65.5606 17.2287 65.9079 17.2772 66.2324 17.3987C66.5568 17.5202 66.8505 17.7118 67.0925 17.9598C67.3378 18.2083 67.5267 18.5069 67.646 18.8352C67.7654 19.1634 67.8125 19.5136 67.7841 19.8617C67.8102 20.2098 67.7619 20.5594 67.6423 20.8874C67.5227 21.2153 67.3346 21.514 67.0906 21.7636C66.8455 22.0106 66.5529 22.2006 66.228 22.3241ZM65.2153 7.05757H46.8841C46.5384 7.08709 46.1904 7.0397 45.8652 6.91881C45.54 6.79792 45.2456 6.60653 45.0031 6.35837C44.7571 6.10957 44.5682 5.81026 44.4495 5.4812C44.3307 5.15214 44.2849 4.80119 44.3153 4.45267C44.2874 4.1039 44.3346 3.75321 44.4535 3.42417C44.5725 3.09513 44.7605 2.79538 45.005 2.54507C45.2484 2.29864 45.5426 2.10825 45.8672 1.98716C46.1917 1.86608 46.5387 1.81721 46.8841 1.84397H65.2153C65.5612 1.81533 65.9092 1.8635 66.2344 1.98503C66.5596 2.10656 66.8539 2.29845 67.0963 2.54697C67.3421 2.79664 67.5309 3.09663 67.6496 3.42628C67.7683 3.75592 67.8142 4.10739 67.7841 4.45647C67.8106 4.8043 67.7624 5.15377 67.6428 5.48147C67.5232 5.80916 67.3349 6.10749 67.0906 6.35647C66.8475 6.60215 66.5538 6.79196 66.23 6.9127C65.9061 7.03345 65.5599 7.08413 65.2153 7.05757ZM105.949 32.6601H94.8211C92.8736 32.6601 92.5772 32.5613 91.7545 30.8475L87.9393 22.9815L87.888 22.8694C87.3562 21.9955 87.0615 20.9982 87.033 19.9757C87.0464 18.8124 87.3585 17.672 87.9393 16.664L91.8343 8.79227C92.6323 7.18297 92.8223 7.05567 94.6387 7.05567H105.951C106.293 7.07142 106.634 7.01473 106.952 6.88932C107.271 6.76391 107.559 6.5726 107.798 6.32797C108.04 6.08255 108.229 5.7895 108.353 5.46736C108.476 5.14522 108.531 4.801 108.514 4.45647C108.539 4.10897 108.489 3.76028 108.369 3.43321C108.249 3.10613 108.062 2.80802 107.819 2.55837C107.577 2.31241 107.285 2.12132 106.963 1.99806C106.641 1.87481 106.296 1.82225 105.951 1.84397H94.5304C90.9432 1.84397 88.9273 3.11697 87.3294 6.39447L83.2064 14.8001C82.3256 16.3928 81.8825 18.1903 81.922 20.0099C81.9296 21.7275 82.359 23.4166 83.1665 24.9252L87.2895 33.3783C88.8247 36.538 90.9204 37.8813 94.3081 37.8813H105.974C106.316 37.8962 106.656 37.8389 106.974 37.7131C107.292 37.5874 107.58 37.3961 107.819 37.1517C108.061 36.9065 108.25 36.6138 108.374 36.292C108.497 35.9703 108.553 35.6264 108.537 35.2821C108.562 34.932 108.513 34.5806 108.392 34.251C108.271 33.9215 108.082 33.6214 107.836 33.3707C107.592 33.1233 107.297 32.9318 106.971 32.8091C106.646 32.6865 106.296 32.6356 105.949 32.6601ZM146.727 2.00357H123.112C122.767 1.97632 122.42 2.02515 122.096 2.14663C121.772 2.2681 121.479 2.45925 121.237 2.70657C120.992 2.95496 120.803 3.25321 120.683 3.58105C120.563 3.9089 120.516 4.25865 120.543 4.60657C120.517 4.95497 120.565 5.305 120.685 5.63329C120.804 5.96159 120.992 6.2606 121.237 6.51037C121.48 6.75621 121.773 6.94638 122.097 7.06775C122.421 7.18912 122.767 7.2388 123.112 7.21337H132.359V35.2726C132.359 35.9642 132.631 36.6254 133.112 37.1156C133.349 37.3564 133.632 37.5477 133.944 37.6783C134.256 37.8088 134.591 37.8761 134.929 37.8761C135.267 37.8761 135.602 37.8088 135.914 37.6783C136.226 37.5477 136.509 37.3564 136.746 37.1156C137.23 36.624 137.5 35.9619 137.499 35.2726V7.21337H146.739C147.083 7.24086 147.43 7.19213 147.754 7.07063C148.077 6.94914 148.37 6.75786 148.612 6.51037C148.857 6.26164 149.045 5.96297 149.165 5.63473C149.284 5.3065 149.33 4.95644 149.302 4.60847C149.329 4.25942 149.281 3.90856 149.162 3.57951C149.042 3.25046 148.853 2.95085 148.608 2.70087C148.364 2.45486 148.07 2.26503 147.745 2.1446C147.42 2.02417 147.073 1.97604 146.727 2.00357ZM183.143 14.3973L188.43 34.4803C188.634 34.9602 188.679 35.4927 188.557 35.9998C188.436 36.5068 188.156 36.9618 187.758 37.298C187.492 37.5184 187.186 37.678 186.855 37.7673C186.532 37.8832 186.19 37.944 185.848 37.9478C185.324 37.9445 184.815 37.7659 184.404 37.4405C183.99 37.1132 183.695 36.6584 183.564 36.1466L180.921 26.0918H164.578L161.929 36.1523C161.714 36.8068 161.25 37.3503 160.637 37.6647C160.181 37.8955 159.667 37.9838 159.16 37.9181C158.653 37.8524 158.178 37.6356 157.797 37.2961C157.54 37.0691 157.331 36.7936 157.181 36.4855C157.031 36.1774 156.943 35.8427 156.923 35.5006C156.904 35.1586 156.947 34.8166 157.056 34.4898L162.338 14.4315L164.507 6.47807C165.49 3.43237 168.003 1.84587 171.72 1.84587H173.753C177.498 1.84587 179.994 3.43237 180.971 6.43817L183.143 14.3973ZM165.942 20.8858H179.54L177.878 14.5835L176.232 8.72387C175.793 7.32927 175.354 7.05757 173.453 7.05757H172.029C170.133 7.05757 169.717 7.32357 169.25 8.73527L167.604 14.5835L165.942 20.8858Z" fill="#4996D1"/>
</svg>
