<svg width="183" height="57" viewBox="0 0 183 57" fill="none" xmlns="http://www.w3.org/2000/svg">
<g clip-path="url(#clip0_10237_18622)">
<path d="M48.2722 52.5523C48.2722 53.3741 47.896 53.7561 47.1147 53.7561H46.5359C46.3722 53.7821 46.2046 53.7689 46.047 53.7175C45.8893 53.6661 45.7462 53.578 45.6292 53.4605C45.5123 53.3429 45.4249 53.1993 45.3742 53.0415C45.3236 52.8836 45.3112 52.7159 45.3379 52.5523V39.6346C45.3109 39.4712 45.3231 39.3036 45.3738 39.1459C45.4244 38.9882 45.5119 38.8448 45.629 38.7277C45.7462 38.6106 45.8896 38.523 46.0473 38.4724C46.205 38.4218 46.3725 38.4095 46.5359 38.4366H47.0626C47.8555 38.4366 48.2201 38.8128 48.2201 39.6346V43.6395H51.2933V39.4552C51.2933 36.9145 50.0605 35.6875 47.5198 35.6875H45.9919C43.4512 35.6875 42.1953 36.9434 42.1953 39.4841V52.7028C42.1953 55.2435 43.4512 56.4994 45.9919 56.4994H47.543C50.0837 56.4994 51.3454 55.2435 51.3454 52.7028V47.957H48.2722V52.5523Z" fill="black"/>
<path d="M67.1652 47.3226H70.8461V44.4867H67.1652V38.6992H70.9908V35.8633H64.0342V56.3279H71.0486V53.4921H67.1652V47.3226Z" fill="black"/>
<path d="M76.425 35.832L73.5312 56.3256H76.425L76.807 53.1078H80.048L80.4589 56.3256H83.5552L80.6036 35.832H76.425ZM77.1253 50.3008L78.4159 40.0685L79.6718 50.3008H77.1253Z" fill="black"/>
<path d="M93.447 46.6802C94.6045 46.2114 95.2295 45.3374 95.2295 43.5202V39.6657C95.2295 37.1192 93.9736 35.8633 91.4271 35.8633H86.2646V56.3279H89.3957V48.1155H90.7963C91.7049 48.1155 92.1158 48.5206 92.1158 49.4292V56.3279H95.2411V49.3829C95.2411 47.8319 94.7144 47.0679 93.4296 46.6917M92.0869 44.151C92.0869 44.996 91.676 45.4069 90.7963 45.4069H89.3957V38.6413H90.9178C91.075 38.6191 91.2352 38.6338 91.3857 38.6841C91.5363 38.7344 91.6731 38.819 91.7853 38.9313C91.8976 39.0435 91.9822 39.1803 92.0325 39.3309C92.0828 39.4814 92.0975 39.6416 92.0753 39.7988L92.0869 44.151Z" fill="black"/>
<path d="M100.643 52.294C100.669 52.4572 100.655 52.6242 100.604 52.7813C100.553 52.9384 100.466 53.0812 100.349 53.198C100.232 53.3149 100.089 53.4024 99.9321 53.4535C99.775 53.5046 99.608 53.5178 99.4448 53.4921H98.0674V56.3279H99.9715C102.512 56.3279 103.768 55.072 103.768 52.5255V35.8633H100.643V52.294Z" fill="black"/>
<path d="M113.068 52.5545C113.068 53.3763 112.686 53.7583 111.91 53.7583H111.412C111.249 53.7843 111.081 53.771 110.923 53.7196C110.766 53.6682 110.623 53.5801 110.506 53.4626C110.389 53.3451 110.301 53.2015 110.251 53.0436C110.2 52.8857 110.187 52.7181 110.214 52.5545V35.8633H107.101V52.7049C107.101 55.2457 108.356 56.5016 110.903 56.5016H112.425C114.966 56.5016 116.222 55.2457 116.222 52.7049V35.8633H113.096L113.068 52.5545Z" fill="black"/>
<path d="M137.899 52.5523C137.899 53.3741 137.523 53.7561 136.742 53.7561H136.163C135.999 53.7821 135.832 53.7689 135.674 53.7175C135.516 53.6661 135.373 53.578 135.256 53.4605C135.139 53.3429 135.052 53.1993 135.001 53.0415C134.951 52.8836 134.938 52.7159 134.965 52.5523V39.6346C134.938 39.4712 134.95 39.3036 135.001 39.1459C135.051 38.9882 135.139 38.8448 135.256 38.7277C135.373 38.6106 135.517 38.523 135.674 38.4724C135.832 38.4218 136 38.4095 136.163 38.4366H136.69C137.483 38.4366 137.847 38.8128 137.847 39.6346V43.6395H140.92V39.4552C140.92 36.9145 139.693 35.6875 137.147 35.6875H135.625C133.084 35.6875 131.828 36.9434 131.828 39.4841V52.7028C131.828 55.2435 133.084 56.4994 135.625 56.4994H137.199C139.745 56.4994 141.001 55.2435 141.001 52.7028V47.957H137.928L137.899 52.5523Z" fill="black"/>
<path d="M143.304 38.6992H146.111V56.3279H149.236V38.6992H152.049V35.8633H143.304V38.6992Z" fill="black"/>
<path d="M157.895 35.8633H154.77V56.3279H157.895V35.8633Z" fill="black"/>
<path d="M166.655 35.6875H164.965C162.424 35.6875 161.168 36.9434 161.168 39.4841V52.7028C161.168 55.2435 162.424 56.4994 164.965 56.4994H166.631C169.178 56.4994 170.434 55.2435 170.434 52.7028V39.4841C170.434 36.9434 169.178 35.6875 166.631 35.6875M167.303 52.5523C167.303 53.3741 166.927 53.7561 166.145 53.7561H165.543C165.38 53.7821 165.212 53.7689 165.054 53.7175C164.897 53.6661 164.754 53.578 164.637 53.4605C164.52 53.3429 164.432 53.1993 164.382 53.0415C164.331 52.8836 164.319 52.7159 164.345 52.5523V39.6346C164.318 39.4712 164.331 39.3036 164.381 39.1459C164.432 38.9882 164.519 38.8448 164.636 38.7277C164.754 38.6106 164.897 38.523 165.055 38.4724C165.212 38.4218 165.38 38.4095 165.543 38.4366H166.186C166.979 38.4366 167.343 38.8128 167.343 39.6346L167.303 52.5523Z" fill="black"/>
<path d="M57.7043 38.6908L54.5732 35.9648V56.3253H61.1536V53.4894H57.7043V38.6908Z" fill="black"/>
<path d="M125.804 35.8516H128.611V56.3104H125.22L122.037 42.513L122.066 56.3104H119.259V35.8516H122.911L125.833 48.5667L125.804 35.8516Z" fill="black"/>
<path d="M180.152 35.8516H182.959V56.3104H179.568L176.379 42.513L176.408 56.3104H173.601V35.8516H177.258L180.181 48.5667L180.152 35.8516Z" fill="black"/>
<path d="M26.7884 30.3906H22.6445L26.7826 44.3906L32.356 49.2579L26.7884 30.3906Z" fill="#FF7900"/>
<path d="M21.467 26.4455L25.6109 26.4513L21.4728 12.4455L15.8994 7.58398L21.467 26.4455Z" fill="#FF7900"/>
<path d="M0.03125 26.4453L4.57445 30.3866L48.2181 30.3924L43.6807 26.4511L0.03125 26.4453Z" fill="#F6EB00"/>
<path d="M37.5152 26.4512H43.6731L13.8037 0.5L15.8988 7.57813L37.5152 26.4512Z" fill="#FFAB00"/>
<path d="M10.7282 30.3867H4.57031L34.4397 56.3379L32.3446 49.2598L10.7282 30.3867Z" fill="#FFAB00"/>
</g>
<defs>
<clipPath id="clip0_10237_18622">
<rect width="182.92" height="56" fill="white" transform="translate(0.0400391 0.5)"/>
</clipPath>
</defs>
</svg>
