<svg width="200" height="202" viewBox="0 0 200 202" fill="none" xmlns="http://www.w3.org/2000/svg">
<g clip-path="url(#clip0_9138_9739)">
<path d="M40.3653 10.5113C33.0997 10.5113 27.4228 16.0267 27.4228 23.4103C27.4228 30.7938 32.9563 36.262 40.3653 36.262C47.7742 36.262 53.404 30.6994 53.404 23.3631C53.404 16.0739 47.8704 10.5113 40.3653 10.5113ZM40.4143 30.9409C36.2768 30.9409 33.245 27.7275 33.245 23.4121C33.245 19.0477 36.2278 15.8361 40.3653 15.8361C44.5518 15.8361 47.5818 19.0967 47.5818 23.4121C47.5818 27.7275 44.5518 30.9409 40.4143 30.9409ZM54.9907 16.123H58.5999V35.7846H64.3731V10.9906H54.9907V16.123ZM12.8935 15.8343C15.9253 15.8343 18.3309 17.7042 19.244 20.4855H25.3549C24.2475 14.5399 19.3403 10.5113 12.9425 10.5113C5.67699 10.5113 0 16.0267 0 23.4121C0 30.7974 5.53357 36.2638 12.9425 36.2638C19.1968 36.2638 24.2003 32.2353 25.3077 26.2406H19.244C18.3781 29.0219 15.9725 30.9409 12.9407 30.9409C8.75422 30.9409 5.82041 27.7275 5.82041 23.4121C5.82223 19.0477 8.70883 15.8343 12.8935 15.8343ZM164.685 21.0139L160.452 20.3911C158.431 20.1043 156.988 19.4326 156.988 17.8495C156.988 16.123 158.865 15.2606 161.414 15.2606C164.204 15.2606 165.985 16.4588 166.37 18.425H171.951C171.325 13.4379 167.476 10.5131 161.559 10.5131C155.448 10.5131 151.407 13.6303 151.407 18.0419C151.407 22.2611 154.054 24.7083 159.393 25.4745L163.627 26.0972C165.697 26.384 166.851 27.201 166.851 28.7351C166.851 30.7012 164.831 31.5164 162.04 31.5164C158.624 31.5164 156.699 30.1257 156.41 28.0161H150.733C151.264 32.8598 155.063 36.2638 161.991 36.2638C168.295 36.2638 172.479 33.3863 172.479 28.4464C172.479 24.0348 169.449 21.7328 164.685 21.0139ZM61.4865 0.776752C59.3697 0.776752 57.7811 2.31083 57.7811 4.42041C57.7811 6.52999 59.3678 8.06407 61.4865 8.06407C63.6034 8.06407 65.1919 6.52999 65.1919 4.42041C65.1919 2.31083 63.6034 0.776752 61.4865 0.776752ZM146.211 19.4798C146.211 14.1096 142.94 10.5131 136.012 10.5131C129.469 10.5131 125.812 13.8228 125.09 18.9061H130.816C131.105 16.9399 132.644 15.3096 135.916 15.3096C138.851 15.3096 140.294 16.6041 140.294 18.1872C140.294 20.2495 137.648 20.776 134.376 21.1119C129.95 21.5912 124.465 23.1252 124.465 28.8803C124.465 33.3409 127.786 36.2166 133.078 36.2166C137.215 36.2166 139.813 34.4901 141.113 31.756C141.306 34.2015 143.134 35.7846 145.685 35.7846H149.052V30.654H146.213V19.4798H146.211ZM140.534 25.7141C140.534 29.0237 137.648 31.4692 134.135 31.4692C131.969 31.4692 130.141 30.5578 130.141 28.6407C130.141 26.1952 133.076 25.5235 135.77 25.2366C138.368 24.997 139.812 24.4215 140.534 23.3177V25.7141ZM109.887 10.5113C106.663 10.5113 103.969 11.8548 102.044 14.1078V0.537109H96.271V35.7846H101.948V32.524C103.872 34.8732 106.616 36.2638 109.887 36.2638C116.815 36.2638 122.06 30.7974 122.06 23.4121C122.06 16.0267 116.719 10.5113 109.887 10.5113ZM109.021 30.9409C104.884 30.9409 101.852 27.7275 101.852 23.4121C101.852 19.0967 104.931 15.8361 109.068 15.8361C113.255 15.8361 116.189 19.0495 116.189 23.4121C116.189 27.7275 113.159 30.9409 109.021 30.9409ZM82.4625 10.5113C78.7099 10.5113 76.2554 12.0454 74.8121 14.204V10.9906H69.0861V35.7827H74.8593V22.3083C74.8593 18.5194 77.2648 15.8343 80.825 15.8343C84.1455 15.8343 86.2133 18.1835 86.2133 21.5894V35.7846H91.9865V21.1591C91.9883 14.9229 88.7658 10.5113 82.4625 10.5113ZM200 22.5969C200 15.5003 194.804 10.5131 187.827 10.5131C180.418 10.5131 174.981 16.0758 174.981 23.4121C174.981 31.1333 180.803 36.2638 187.923 36.2638C193.938 36.2638 198.653 32.7146 199.855 27.6803H193.84C192.974 29.8861 190.857 31.1333 188.018 31.1333C184.312 31.1333 181.522 28.8313 180.898 24.8027H199.998V22.5969H200ZM181.235 20.678C182.15 17.225 184.748 15.5475 187.731 15.5475C191.003 15.5475 193.504 17.4174 194.082 20.678H181.235Z" fill="#0052FF"/>
</g>
<g clip-path="url(#clip1_9138_9739)">
<path d="M170.16 107.671C170.192 107.705 170.214 107.747 170.222 107.793C170.23 107.839 170.225 107.886 170.207 107.929C170.189 107.971 170.158 108.008 170.119 108.034C170.081 108.059 170.035 108.073 169.989 108.073H164.767C164.735 108.073 164.703 108.067 164.673 108.054C164.643 108.041 164.617 108.022 164.595 107.998L157.654 100.658L150.637 108C150.615 108.023 150.589 108.041 150.559 108.054C150.53 108.067 150.498 108.073 150.466 108.073H145.243C145.197 108.073 145.151 108.059 145.113 108.034C145.074 108.008 145.043 107.971 145.025 107.929C145.007 107.886 145.002 107.839 145.01 107.793C145.018 107.747 145.04 107.705 145.072 107.671L154.639 97.646L145.396 87.9043C145.364 87.8706 145.342 87.8281 145.334 87.7822C145.326 87.7363 145.331 87.689 145.349 87.6462C145.368 87.6033 145.398 87.5668 145.437 87.5412C145.476 87.5155 145.522 87.5019 145.568 87.502H150.791C150.856 87.502 150.92 87.5293 150.965 87.577L157.603 94.6341L164.267 87.577C164.29 87.5533 164.317 87.5345 164.346 87.5216C164.376 87.5087 164.408 87.502 164.441 87.502H169.664C169.71 87.5019 169.756 87.5155 169.795 87.5412C169.834 87.5668 169.864 87.6033 169.883 87.6462C169.901 87.689 169.906 87.7363 169.898 87.7822C169.89 87.8281 169.868 87.8706 169.836 87.9043L160.593 97.646L170.16 107.67V107.671ZM120.659 108.073C120.571 108.073 120.487 108.039 120.425 107.976C120.363 107.914 120.328 107.83 120.328 107.742V87.8329C120.328 87.6508 120.477 87.5031 120.659 87.5031H140.386C140.568 87.5031 140.716 87.6508 140.716 87.8329V90.6805C140.716 90.768 140.681 90.8519 140.619 90.9137C140.558 90.9755 140.474 91.0103 140.386 91.0103H125.112V95.5948H134.27C134.452 95.5948 134.601 95.7436 134.601 95.9258V98.7734C134.6 98.8609 134.565 98.9448 134.503 99.0066C134.441 99.0684 134.357 99.1031 134.27 99.1031H125.112V104.207H140.585C140.767 104.207 140.916 104.354 140.916 104.536V107.742C140.916 107.83 140.881 107.914 140.819 107.976C140.757 108.039 140.673 108.073 140.585 108.073H120.659ZM85.7279 108.073C85.6403 108.073 85.5565 108.038 85.4947 107.976C85.4328 107.914 85.3981 107.83 85.3981 107.742V87.8329C85.3981 87.6508 85.5458 87.5031 85.7279 87.5031H89.8505C90.0339 87.5031 90.1815 87.6508 90.1815 87.8329V107.742C90.1815 107.83 90.1466 107.914 90.0845 107.976C90.0225 108.039 89.9383 108.073 89.8505 108.073H85.7279ZM62.2743 108.073C62.1868 108.073 62.1029 108.038 62.0411 107.976C61.9793 107.914 61.9446 107.83 61.9446 107.742V87.8329C61.9446 87.6508 62.0922 87.5031 62.2743 87.5031H81.7624C81.9446 87.5031 82.0922 87.6508 82.0922 87.8329V90.7603C82.0919 90.8476 82.057 90.9313 81.9953 90.9931C81.9335 91.0549 81.8498 91.0897 81.7624 91.09H66.7279V96.5127H75.0481C75.2303 96.5127 75.3791 96.6603 75.3791 96.8424V99.9293C75.3788 100.017 75.3438 100.101 75.2817 100.163C75.2197 100.224 75.1357 100.259 75.0481 100.259H66.7279V107.742C66.7279 107.83 66.693 107.914 66.631 107.976C66.5689 108.039 66.4847 108.073 66.397 108.073H62.2743ZM49.4815 91.1698V107.742C49.4815 107.83 49.4468 107.914 49.385 107.976C49.3232 108.038 49.2393 108.073 49.1517 108.073H45.0291C44.9413 108.073 44.8571 108.039 44.7951 107.976C44.733 107.914 44.6981 107.83 44.6981 107.742V91.171H35.9112C35.8235 91.171 35.7393 91.1361 35.6772 91.0741C35.6152 91.012 35.5803 90.9278 35.5803 90.84V87.8329C35.5803 87.6508 35.7279 87.5031 35.9112 87.5031H58.3089C58.491 87.5031 58.6386 87.6508 58.6386 87.8329V90.84C58.6383 90.9274 58.6035 91.0111 58.5417 91.0729C58.4799 91.1347 58.3962 91.1695 58.3089 91.1698H49.4815ZM27.8219 108.073C27.7344 108.073 27.6505 108.038 27.5887 107.976C27.5269 107.914 27.4922 107.83 27.4922 107.742V87.8329C27.4922 87.6508 27.6398 87.5031 27.8219 87.5031H31.9446C32.1279 87.5031 32.2755 87.6508 32.2755 87.8329V107.742C32.2755 107.83 32.2407 107.914 32.1786 107.976C32.1165 108.039 32.0323 108.073 31.9446 108.073H27.8219Z" fill="#172D3E"/>
<path fill-rule="evenodd" clip-rule="evenodd" d="M1.78125 87.8337C1.78125 87.6515 1.92887 87.5039 2.1122 87.5039H19.7289C20.8681 87.5042 21.9607 87.957 22.7661 88.7627C23.5716 89.5684 24.0241 90.6611 24.0241 91.8003V93.173C24.0243 93.7373 23.9132 94.2961 23.6974 94.8175C23.4816 95.3389 23.1651 95.8127 22.7661 96.2118C22.3672 96.6108 21.8935 96.9274 21.3721 97.1434C20.8508 97.3594 20.292 97.4706 19.7277 97.4706H19.8884C21.0278 97.4706 22.1205 97.923 22.9264 98.7285C23.7323 99.5339 24.1854 100.626 24.186 101.766V103.778C24.186 104.342 24.0748 104.901 23.8589 105.422C23.6429 105.944 23.3263 106.417 22.9272 106.816C22.5281 107.215 22.0543 107.532 21.5329 107.747C21.0115 107.963 20.4527 108.074 19.8884 108.074H2.1122C2.02443 108.074 1.94025 108.039 1.87818 107.977C1.81612 107.915 1.78125 107.831 1.78125 107.743V87.8337ZM6.48244 90.8527H17.617C18.7122 90.8527 19.6003 91.7408 19.6003 92.836V93.773C19.6003 94.8682 18.7122 95.7551 17.617 95.7551H6.48244V90.8527ZM6.48244 99.142H17.736C18.8313 99.142 19.7193 100.03 19.7193 101.125V102.384C19.7193 103.479 18.8313 104.366 17.736 104.366H6.48363V99.142H6.48244Z" fill="#172D3E"/>
<path d="M93.4922 107.743V87.8337C93.4922 87.6515 93.6398 87.5039 93.8231 87.5039H96.6362C96.7172 87.5039 96.7946 87.5325 96.8553 87.5872L112.724 101.632V87.8349C112.724 87.6515 112.872 87.5039 113.054 87.5039H116.699C116.881 87.5039 117.029 87.6515 117.029 87.8337V107.743C117.029 107.831 116.994 107.915 116.933 107.977C116.871 108.039 116.787 108.074 116.699 108.074H113.886C113.806 108.074 113.728 108.044 113.667 107.991L97.7981 93.9075V107.743C97.7981 107.831 97.7633 107.915 97.7012 107.977C97.6391 108.039 97.555 108.074 97.4672 108.074H93.8243C93.7366 108.074 93.6524 108.039 93.5903 107.977C93.5283 107.915 93.4934 107.831 93.4934 107.743H93.4922Z" fill="#172D3E"/>
<path d="M174.137 99.7903C173.929 96.4188 175.346 92.6712 178.261 89.7558C184.602 83.4153 197.806 84.3034 197.881 84.3093C197.846 84.3617 188.192 98.3569 176.753 99.6665C175.869 99.7677 174.996 99.8081 174.137 99.7903Z" fill="#03CA9B"/>
<path d="M175.477 104.099C175.804 104.62 176.19 105.107 176.636 105.554C180.55 109.468 187.624 108.741 192.435 103.93C198.794 97.5705 197.881 84.3086 197.881 84.3086C197.847 84.3872 190.927 99.8979 179.929 103.281C178.436 103.741 176.94 104.007 175.477 104.099Z" fill="#03CA9B"/>
</g>
<g clip-path="url(#clip2_9138_9739)">
<path fill-rule="evenodd" clip-rule="evenodd" d="M8.25268 184.273C8.25268 184.658 8.56506 184.97 8.95027 184.97H15.8078C16.1931 184.97 16.5054 184.658 16.5054 184.273V180.847H19.9342C20.3193 180.847 20.6318 180.535 20.6318 180.15V177.421C20.6318 177.036 20.3193 176.724 19.9342 176.724H8.95027C8.56506 176.724 8.25268 177.036 8.25268 177.421V184.273ZM8.25268 169.15C8.25268 168.765 7.94031 168.453 7.55511 168.453H0.697577C0.312373 168.453 0 168.765 0 169.15V176.003C0 176.388 0.312373 176.7 0.697577 176.7H3.42877C3.81397 176.7 4.12634 176.388 4.12634 176.003V172.576H7.55511C7.94031 172.576 8.25268 172.264 8.25268 171.879V169.15ZM12.379 193.891C12.379 193.506 12.0667 193.193 11.6814 193.193H8.95027C8.56506 193.193 8.25268 193.506 8.25268 193.891V196.62C8.25268 197.005 8.56506 197.317 8.95027 197.317H11.6814C12.0667 197.317 12.379 197.005 12.379 196.62V193.891ZM61.1976 168.453H54.34C53.9549 168.453 53.6424 168.765 53.6424 169.15V171.879C53.6424 172.264 53.9549 172.576 54.34 172.576H57.7688V176.003C57.7688 176.388 58.0811 176.7 58.4664 176.7H61.1976C61.5828 176.7 61.8952 176.388 61.8952 176.003V169.15C61.8952 168.765 61.5828 168.453 61.1976 168.453ZM52.9448 176.7H41.961C41.5757 176.7 41.2634 177.012 41.2634 177.397V180.126C41.2634 180.511 41.5757 180.823 41.961 180.823H45.3898V184.25C45.3898 184.634 45.7021 184.947 46.0874 184.947H52.9448C53.3301 184.947 53.6424 184.634 53.6424 184.25V177.397C53.6424 177.012 53.3301 176.7 52.9448 176.7ZM48.8186 197.34H45.3898V193.914C45.3898 193.529 45.0774 193.217 44.6922 193.217H41.2634V185.667C41.2634 185.282 40.9511 184.97 40.5658 184.97H37.1372V177.421C37.1372 177.036 36.8247 176.724 36.4396 176.724H25.4556C25.0705 176.724 24.758 177.036 24.758 177.421V184.97H21.3294C20.944 184.97 20.6318 185.282 20.6318 185.667V193.217H17.203C16.8177 193.217 16.5054 193.529 16.5054 193.914V197.34H13.0766C12.6914 197.34 12.379 197.653 12.379 198.038V200.767C12.379 201.152 12.6914 201.464 13.0766 201.464H19.9342C20.3193 201.464 20.6318 201.152 20.6318 200.767V197.34H24.0604C24.4457 197.34 24.758 197.028 24.758 196.643V189.094H37.1372V196.643C37.1372 197.028 37.4495 197.34 37.8346 197.34H41.2634V200.767C41.2634 201.152 41.5757 201.464 41.961 201.464H48.8186C49.2037 201.464 49.5162 201.152 49.5162 200.767V198.038C49.5162 197.653 49.2037 197.34 48.8186 197.34ZM52.9448 193.193H50.2138C49.8285 193.193 49.5162 193.506 49.5162 193.891V196.62C49.5162 197.005 49.8285 197.317 50.2138 197.317H52.9448C53.3301 197.317 53.6424 197.005 53.6424 196.62V193.891C53.6424 193.506 53.3301 193.193 52.9448 193.193Z" fill="#001133"/>
<path fill-rule="evenodd" clip-rule="evenodd" d="M17.1976 168.453H44.687C45.0721 168.453 45.3844 168.141 45.3844 167.756V165.024C45.3844 164.639 45.0721 164.327 44.687 164.327H41.2582V160.898C41.2582 160.513 40.9458 160.201 40.5606 160.201H37.1318V156.772C37.1318 156.387 36.8194 156.074 36.4342 156.074H25.4504C25.0651 156.074 24.7528 156.387 24.7528 156.772V160.201H21.324C20.9387 160.201 20.6264 160.513 20.6264 160.898V164.327H17.1976C16.8125 164.327 16.5 164.639 16.5 165.024V167.756C16.5 168.141 16.8125 168.453 17.1976 168.453Z" fill="#1BEDBA"/>
<path fill-rule="evenodd" clip-rule="evenodd" d="M133.115 176.29C130.945 176.29 128.984 177.183 127.604 178.615C126.256 177.177 124.336 176.278 122.208 176.278C121.014 176.278 119.795 176.716 118.856 177.347V177.138C118.856 176.836 118.605 176.606 118.313 176.606H115.286C114.997 176.606 114.744 176.836 114.744 177.138V192.219C114.744 192.521 114.995 192.751 115.286 192.751H118.321C118.611 192.751 118.863 192.521 118.863 192.219V183.656C118.863 181.811 120.362 180.317 122.208 180.317C124.055 180.317 125.552 181.812 125.552 183.656V192.219C125.552 192.521 125.803 192.751 126.094 192.751H129.058C129.065 192.751 129.071 192.751 129.075 192.751H129.142C129.431 192.751 129.684 192.521 129.684 192.219V183.661C129.684 181.825 131.214 180.325 133.115 180.325C135.017 180.325 136.547 181.825 136.547 183.661V192.217C136.547 192.519 136.798 192.749 137.089 192.749H140.135C140.426 192.749 140.677 192.519 140.677 192.217V183.661C140.675 179.584 137.284 176.29 133.115 176.29ZM155.819 184.39C154.663 183.687 153.179 183.35 151.885 183.057L151.86 183.052C150.921 182.839 150.095 182.65 149.501 182.372C148.912 182.098 148.645 181.783 148.645 181.349C148.645 180.975 148.786 180.643 149.121 180.382C149.464 180.113 150.033 179.906 150.911 179.854C152.407 179.854 153.566 179.889 154.35 179.925C154.743 179.941 155.043 179.96 155.241 179.973C155.342 179.98 155.417 179.984 155.468 179.988C155.494 179.989 155.512 179.991 155.523 179.991L155.536 179.993H155.541L155.553 179.995H155.566C155.799 179.995 156.01 179.95 156.155 179.8C156.282 179.667 156.309 179.497 156.321 179.413C156.321 179.408 156.322 179.402 156.322 179.398C156.328 179.363 156.332 179.337 156.336 179.313L156.345 179.282V177.423C156.345 177.197 156.329 176.99 156.243 176.83C156.135 176.632 155.955 176.569 155.81 176.538L155.796 176.536L155.783 176.534H155.777L155.763 176.532C155.75 176.53 155.732 176.529 155.708 176.527C155.657 176.521 155.583 176.514 155.485 176.504C155.285 176.486 154.989 176.462 154.587 176.438C153.786 176.39 152.567 176.341 150.899 176.341H150.894H150.888C148.753 176.421 147.133 177.014 146.044 177.951C144.95 178.891 144.411 180.158 144.411 181.529C144.411 182.431 144.62 183.17 144.987 183.78C145.353 184.388 145.867 184.849 146.454 185.21C147.611 185.92 149.092 186.263 150.383 186.561L150.41 186.567C151.35 186.783 152.177 186.976 152.772 187.258C153.359 187.535 153.631 187.856 153.631 188.303C153.631 188.675 153.458 189.007 153.041 189.26C152.606 189.523 151.902 189.699 150.867 189.699C149.689 189.699 148.404 189.573 147.409 189.446C146.911 189.383 146.489 189.318 146.19 189.27C146.041 189.246 145.923 189.225 145.843 189.212C145.821 189.209 145.802 189.205 145.786 189.203C145.773 189.201 145.759 189.199 145.75 189.197L145.728 189.194L145.721 189.192L145.695 189.186H145.668C145.457 189.186 145.257 189.225 145.115 189.368C144.99 189.492 144.963 189.657 144.952 189.733C144.95 189.738 144.95 189.744 144.95 189.748C144.942 189.788 144.936 189.814 144.931 189.84L144.924 189.87L144.807 191.967V191.975C144.807 192.112 144.827 192.275 144.902 192.421C144.977 192.577 145.115 192.716 145.325 192.769L145.332 192.771L145.341 192.773L145.349 192.725C145.341 192.773 145.341 192.773 145.341 192.773H145.342L145.348 192.775C145.35 192.777 145.359 192.777 145.367 192.779C145.384 192.782 145.41 192.786 145.444 192.793C145.511 192.806 145.607 192.823 145.735 192.844C145.992 192.884 146.365 192.938 146.848 192.994C147.81 193.103 149.199 193.21 150.906 193.21H150.921C151.131 193.212 152.837 193.225 154.502 192.601C155.338 192.288 156.18 191.808 156.816 191.07C157.457 190.328 157.871 189.336 157.871 188.036C157.871 187.143 157.661 186.409 157.294 185.805C156.922 185.201 156.407 184.745 155.819 184.39ZM190.041 176.616C188.346 176.616 186.762 177.092 185.431 177.916V171.006C185.431 170.704 185.18 170.475 184.888 170.475H181.85C181.56 170.475 181.308 170.704 181.308 171.006V192.223C181.308 192.525 181.559 192.755 181.85 192.755H184.888C185.179 192.755 185.431 192.525 185.431 192.223V191.517C186.687 192.495 188.35 193.209 190.041 193.209C194.769 193.209 198.617 189.503 198.617 184.912C198.617 180.321 194.769 176.616 190.041 176.616ZM190.041 189.203C187.59 189.203 185.602 187.282 185.602 184.912C185.602 182.542 187.589 180.621 190.041 180.621C192.492 180.621 194.481 182.542 194.481 184.912C194.481 187.282 192.495 189.203 190.041 189.203ZM176.634 176.616H173.589C173.297 176.616 173.045 176.845 173.045 177.147V185.918C173.045 187.728 171.519 189.212 169.614 189.212C169.606 189.212 169.597 189.212 169.589 189.212C169.579 189.212 169.572 189.212 169.562 189.212C167.657 189.212 166.131 187.728 166.131 185.918V177.147C166.131 176.845 165.88 176.616 165.589 176.616H162.543C162.251 176.616 162 176.845 162 177.147V185.918C162 189.953 165.396 193.207 169.562 193.207C169.572 193.207 169.579 193.207 169.589 193.207C169.597 193.207 169.606 193.207 169.614 193.207C173.78 193.207 177.176 189.953 177.176 185.918V177.147C177.176 176.845 176.925 176.616 176.634 176.616ZM89.2729 184.39C88.116 183.687 86.6323 183.35 85.3398 183.057L85.3137 183.052C84.3741 182.839 83.5496 182.65 82.9554 182.372C82.3668 182.098 82.0994 181.783 82.0994 181.349C82.0994 180.975 82.2405 180.643 82.5747 180.382C82.9182 180.113 83.4865 179.906 84.3648 179.854C85.8615 179.854 87.0204 179.889 87.8039 179.925C88.1977 179.941 88.4967 179.96 88.6953 179.973C88.7956 179.98 88.8717 179.984 88.9219 179.988C88.9479 179.989 88.9665 179.991 88.9775 179.991L88.9906 179.993H88.9943L89.0073 179.995H89.0204C89.2524 179.995 89.4641 179.95 89.609 179.8C89.7371 179.667 89.7631 179.497 89.7743 179.413C89.7743 179.408 89.7761 179.402 89.7761 179.398C89.7817 179.363 89.7853 179.337 89.791 179.313L89.7984 179.282V177.423C89.7984 177.197 89.7835 176.99 89.6963 176.83C89.5886 176.632 89.4085 176.569 89.2636 176.538L89.2506 176.536L89.2375 176.534H89.232L89.2171 176.532C89.2042 176.53 89.1856 176.529 89.1614 176.527C89.1113 176.521 89.037 176.514 88.9385 176.504C88.74 176.486 88.4428 176.462 88.0417 176.438C87.2395 176.39 86.0212 176.341 84.3537 176.341H84.3482H84.3425C82.207 176.421 80.5878 177.014 79.4977 177.951C78.4058 178.891 77.8672 180.158 77.8672 181.529C77.8672 182.431 78.0753 183.17 78.4429 183.78C78.8087 184.388 79.3231 184.849 79.9099 185.21C81.0669 185.92 82.5487 186.263 83.8394 186.561L83.8653 186.567C84.8068 186.783 85.6331 186.976 86.2275 187.258C86.8143 187.535 87.0872 187.856 87.0872 188.303C87.0872 188.675 86.9144 189.007 86.4967 189.26C86.0621 189.523 85.3584 189.699 84.3221 189.699C83.1448 189.699 81.8598 189.573 80.8645 189.446C80.3668 189.383 79.9452 189.318 79.6462 189.27C79.4977 189.246 79.3788 189.225 79.299 189.212C79.2767 189.209 79.2581 189.205 79.2414 189.203C79.2285 189.201 79.2154 189.199 79.2062 189.197L79.1838 189.194L79.1764 189.192L79.1504 189.186H79.1225C78.9109 189.186 78.7103 189.225 78.5692 189.368C78.4448 189.492 78.417 189.657 78.4058 189.733C78.4039 189.738 78.4039 189.744 78.4039 189.748C78.3965 189.788 78.3909 189.814 78.3853 189.84L78.378 189.87L78.2573 191.965V191.973C78.2573 192.11 78.2777 192.273 78.3519 192.419C78.428 192.575 78.5655 192.714 78.7753 192.768L78.7828 192.769L78.7902 192.771L78.7994 192.723C78.7902 192.771 78.7902 192.771 78.7902 192.771H78.792L78.7975 192.773C78.8014 192.775 78.8087 192.775 78.818 192.777C78.8347 192.78 78.8608 192.784 78.8941 192.792C78.9609 192.805 79.0575 192.821 79.1858 192.842C79.4419 192.882 79.8153 192.936 80.2981 192.992C81.26 193.101 82.649 193.209 84.3574 193.209H84.3704C84.5802 193.21 86.2868 193.223 87.9526 192.599C88.7882 192.286 89.6313 191.806 90.2663 191.069C90.907 190.326 91.3211 189.334 91.3211 188.034C91.3211 187.141 91.1113 186.407 90.7436 185.803C90.3758 185.201 89.8615 184.745 89.2729 184.39ZM110.076 176.616H107.031C106.739 176.616 106.488 176.845 106.488 177.147V185.918C106.488 187.728 104.962 189.212 103.057 189.212C103.047 189.212 103.04 189.212 103.031 189.212C103.021 189.212 103.014 189.212 103.005 189.212C101.099 189.212 99.5729 187.728 99.5729 185.918V177.147C99.5729 176.845 99.3222 176.616 99.0306 176.616H95.9852C95.6937 176.616 95.4429 176.845 95.4429 177.147V185.918C95.4429 189.953 98.8375 193.207 103.005 193.207C103.014 193.207 103.021 193.207 103.031 193.207C103.04 193.207 103.047 193.207 103.057 193.207C107.222 193.207 110.618 189.953 110.618 185.918V177.147C110.618 176.845 110.368 176.616 110.076 176.616Z" fill="#001133"/>
</g>
<defs>
<clipPath id="clip0_9138_9739">
<rect width="200" height="35.7267" fill="white" transform="translate(0 0.537109)"/>
</clipPath>
<clipPath id="clip1_9138_9739">
<rect width="200" height="23.8095" fill="white" transform="translate(0 84.2637)"/>
</clipPath>
<clipPath id="clip2_9138_9739">
<rect width="200" height="45.3901" fill="white" transform="translate(0 156.074)"/>
</clipPath>
</defs>
</svg>
