<svg width="200" height="236" viewBox="0 0 200 236" fill="none" xmlns="http://www.w3.org/2000/svg">
<g clip-path="url(#clip0_9138_9758)">
<path d="M156.299 23.5411C156.299 22.3704 156.299 21.2692 156.261 20.2522C156.235 19.2928 156.14 18.3365 155.976 17.3907C155.824 16.5271 155.554 15.6884 155.174 14.8977C154.774 14.0825 154.238 13.3407 153.591 12.7037C152.672 11.7628 151.58 11.0097 150.373 10.4865C149.069 9.95797 147.671 9.69594 146.263 9.7159C144.85 9.69764 143.448 9.95957 142.136 10.4865C140.923 11.0026 139.824 11.7524 138.9 12.6932C138.254 13.3298 137.721 14.0718 137.323 14.8872C136.947 15.6781 136.681 16.5169 136.533 17.3802C136.374 18.3262 136.282 19.2825 136.26 20.2417C136.234 21.2587 136.222 22.3599 136.228 23.5306C136.234 24.7013 136.228 25.7941 136.26 26.8174C136.282 27.7766 136.374 28.7329 136.533 29.6789C136.681 30.5422 136.947 31.3811 137.323 32.1719C137.722 32.9864 138.255 33.7281 138.9 34.3659C139.822 35.3075 140.922 36.0562 142.136 36.5684C143.447 37.0988 144.85 37.3622 146.263 37.3432C147.672 37.364 149.069 37.1004 150.373 36.5684C151.58 36.0522 152.673 35.3038 153.591 34.3659C154.237 33.7277 154.772 32.9862 155.174 32.1719C155.554 31.3812 155.824 30.5425 155.976 29.6789C156.138 28.7358 156.232 27.7824 156.256 26.8258C156.288 25.8025 156.303 24.7076 156.294 23.539L156.299 23.5411ZM150.993 23.5411C150.993 24.8382 150.974 25.9183 150.929 26.7774C150.904 27.4831 150.834 28.1864 150.719 28.883C150.64 29.3471 150.498 29.7983 150.298 30.2243C150.135 30.5675 149.922 30.8847 149.666 31.1654C149.271 31.6179 148.78 31.9774 148.23 32.2182C147.611 32.4833 146.943 32.618 146.27 32.6142C145.593 32.6171 144.922 32.4824 144.299 32.2182C143.735 31.9819 143.231 31.6221 142.825 31.1654C142.567 30.886 142.354 30.5686 142.193 30.2243C141.998 29.7979 141.864 29.3465 141.793 28.883C141.681 28.186 141.61 27.4829 141.583 26.7774C141.545 25.9183 141.526 24.8396 141.526 23.5411C141.526 22.2441 141.545 21.1618 141.583 20.3028C141.611 19.5973 141.681 18.8942 141.793 18.1972C141.864 17.7337 141.998 17.2823 142.193 16.8559C142.355 16.5119 142.568 16.1945 142.825 15.9147C143.232 15.4587 143.735 15.099 144.299 14.8619C144.921 14.5948 145.592 14.46 146.27 14.4661C146.944 14.4591 147.612 14.594 148.23 14.8619C148.78 15.1035 149.27 15.4629 149.666 15.9147C149.922 16.1958 150.134 16.5129 150.298 16.8559C150.498 17.2819 150.64 17.7331 150.719 18.1972C150.834 18.8938 150.904 19.5971 150.929 20.3028C150.976 21.1597 150.993 22.242 150.993 23.5411Z" fill="#23AF91"/>
<path d="M198.574 10.4204C198.572 10.1644 198.365 9.95736 198.109 9.95508H193.732C193.475 9.95623 193.267 10.1639 193.266 10.4204V26.5913L182.591 10.0856C182.519 9.97403 182.456 9.95508 182.298 9.95508H178.239C177.983 9.95848 177.777 10.1648 177.773 10.4204V36.6601C177.777 36.9154 177.984 37.1211 178.239 37.1234H182.614C182.87 37.1222 183.076 36.9155 183.077 36.6601V20.4472L193.755 36.9907C193.828 37.1023 193.887 37.1213 194.047 37.1213H198.105C198.361 37.1201 198.568 36.9137 198.57 36.658L198.574 10.4204Z" fill="#23AF91"/>
<path d="M169.234 10.4204C169.232 10.1639 169.025 9.95623 168.768 9.95508H164.395C164.138 9.95623 163.931 10.1639 163.93 10.4204V36.658C163.931 36.9146 164.138 37.1222 164.395 37.1234H168.768C169.025 37.1222 169.232 36.9146 169.234 36.658V10.4204Z" fill="#23AF91"/>
<path d="M116.872 23.5403C116.872 22.2348 116.887 21.1483 116.925 20.283C116.951 19.5774 117.021 18.8741 117.135 18.1774C117.54 15.8402 119.329 14.461 121.614 14.461C123.105 14.4737 124.457 15.0253 125.32 16.2802C125.711 16.8661 125.996 17.5161 126.162 18.2005C126.175 18.2726 126.241 18.3229 126.314 18.3163H131.462C131.536 18.3163 131.563 18.2658 131.55 18.1942C130.988 15.0085 129.289 12.147 126.286 10.7299C124.811 10.0467 123.2 9.70485 121.574 9.72979C118.675 9.72979 116.234 10.7222 114.249 12.7071C113.115 13.8115 112.342 15.2323 112.029 16.7835C111.726 18.3107 111.573 20.5623 111.57 23.5382C111.568 26.5141 111.721 28.7649 112.029 30.2908C112.339 31.844 113.111 33.2676 114.242 34.3756C116.226 36.3591 118.668 37.3508 121.568 37.3508C123.193 37.3754 124.804 37.0343 126.28 36.3527C129.283 34.9357 130.982 32.0742 131.544 28.8885C131.557 28.8148 131.529 28.7663 131.455 28.7663H126.305C126.232 28.7587 126.166 28.8095 126.154 28.8821C125.987 29.5658 125.702 30.215 125.311 30.8003C124.448 32.0637 123.096 32.609 121.606 32.6195C119.321 32.6195 117.531 31.2425 117.127 28.9053C117.013 28.2086 116.942 27.5053 116.916 26.7997C116.887 25.9301 116.872 24.8415 116.872 23.5403Z" fill="#23AF91"/>
<path d="M62.5071 10.4204C62.5059 10.1639 62.2983 9.95623 62.0417 9.95508H57.6685C57.4119 9.95623 57.2043 10.1639 57.2031 10.4204V36.6601C57.2054 36.9158 57.4128 37.1222 57.6685 37.1236H62.0417C62.2974 37.1222 62.5048 36.9158 62.5071 36.6601V28.9579L66.0171 24.7615L73.2266 36.9844C73.2821 37.0745 73.3819 37.1277 73.4877 37.1236H78.8022C79.0464 37.1236 79.0906 36.9718 78.9685 36.7633L69.5292 20.7609L78.1894 10.372C78.3642 10.1614 78.2905 9.96139 78.0168 9.96139H72.2075C72.1368 9.95724 72.0688 9.98888 72.0264 10.0456L62.5071 21.4621V10.4204Z" fill="#23AF91"/>
<path d="M94.3645 32.6216C91.9031 32.6216 89.6711 30.3434 89.6711 27.623V10.4204C89.67 10.1639 89.4623 9.95623 89.2058 9.95508H84.8325C84.576 9.95623 84.3683 10.1639 84.3672 10.4204V27.5556C84.3672 33.546 88.8479 37.3529 94.3645 37.3529C99.8811 37.3529 104.362 33.546 104.362 27.5556V10.4204C104.359 10.1644 104.152 9.95736 103.896 9.95508H99.521C99.2654 9.95738 99.059 10.1647 99.0578 10.4204V27.623C99.0578 30.3413 96.8238 32.6216 94.3645 32.6216Z" fill="#23AF91"/>
<path fill-rule="evenodd" clip-rule="evenodd" d="M13.2393 23.5418L26.8161 37.1207L35.3858 28.551C36.9181 27.1712 39.2625 27.2326 40.7206 28.6906C42.1787 30.1487 42.2401 32.4931 40.8603 34.0255L29.5512 45.3366C28.0321 46.8306 25.5958 46.8306 24.0767 45.3366L7.76056 29.0163V38.7167C7.76056 40.8576 6.02505 42.5931 3.88418 42.5931C1.74332 42.5931 0.0078125 40.8576 0.0078125 38.7167V8.35423C0.0078125 6.21337 1.74332 4.47786 3.88418 4.47786C6.02505 4.47786 7.76056 6.21337 7.76056 8.35423V18.0546L24.0746 1.7385C25.5932 0.243418 28.0305 0.243418 29.5491 1.7385L40.8666 13.0476C42.2464 14.5799 42.185 16.9243 40.7269 18.3824C39.2688 19.8405 36.9245 19.9019 35.3921 18.5221L26.8224 9.95236L13.2393 23.5418ZM26.8224 19.6612C25.2526 19.6603 23.837 20.6053 23.2357 22.0553C22.6344 23.5053 22.9659 25.1747 24.0755 26.285C25.1852 27.3953 26.8545 27.7277 28.3048 27.1272C29.7551 26.5267 30.7009 25.1115 30.7009 23.5418C30.7014 22.5126 30.2931 21.5253 29.5657 20.7972C28.8384 20.069 27.8516 19.6596 26.8224 19.6591V19.6612Z" fill="#23AF91"/>
</g>
<g clip-path="url(#clip1_9138_9758)">
<path d="M121.446 102.49H116.18V108.155H113.027V113.126H116.18V126.131C116.144 127.271 116.311 128.408 116.673 129.49C116.972 130.297 117.464 131.017 118.106 131.589C118.724 132.153 119.464 132.566 120.269 132.796C122.094 133.239 124 133.239 125.825 132.796C126.551 132.604 127.25 132.326 127.909 131.968V127.968C126.923 128.384 125.866 128.608 124.796 128.628C124.354 128.678 123.906 128.63 123.484 128.487C123.062 128.344 122.678 128.11 122.357 127.801C121.752 127.229 121.431 126.48 121.431 125.219V113.126H127.909V108.155H121.446V102.49ZM104.88 109.919C102.963 108.516 100.696 107.671 98.3284 107.478C95.9611 107.286 93.5868 107.752 91.4686 108.827C89.3505 109.901 87.5713 111.542 86.3285 113.565C85.0858 115.589 84.4279 117.918 84.4279 120.293C84.4279 122.668 85.0858 124.997 86.3285 127.021C87.5713 129.045 89.3505 130.685 91.4686 131.759C93.5868 132.834 95.9611 133.301 98.3284 133.108C100.696 132.915 102.963 132.071 104.88 130.668V132.446H110.146V108.136H104.88V109.919ZM97.2836 127.865C95.781 127.865 94.3122 127.419 93.0629 126.584C91.8136 125.749 90.84 124.563 90.2653 123.174C89.6905 121.786 89.5403 120.258 89.8338 118.785C90.1273 117.311 90.8513 115.958 91.9141 114.896C92.9769 113.833 94.3309 113.11 95.8047 112.818C97.2785 112.525 98.806 112.676 100.194 113.252C101.582 113.828 102.768 114.802 103.602 116.052C104.436 117.302 104.881 118.771 104.88 120.273C104.88 121.271 104.683 122.258 104.301 123.18C103.92 124.101 103.36 124.938 102.655 125.643C101.949 126.348 101.112 126.907 100.19 127.288C99.2685 127.669 98.2809 127.865 97.2836 127.865ZM68.4264 115.549V121.411H76.3525C75.8601 123.494 74.6658 125.344 72.9704 126.65C71.2749 127.956 69.1817 128.639 67.0422 128.584C65.3526 128.58 63.6909 128.153 62.209 127.342C60.7271 126.53 59.4725 125.36 58.5598 123.938C57.6471 122.516 57.1055 120.888 56.9847 119.203C56.8639 117.518 57.1676 115.829 57.868 114.292C58.5685 112.754 59.6434 111.417 60.9943 110.402C62.3452 109.387 63.9291 108.728 65.6009 108.483C67.2727 108.239 68.9791 108.418 70.5639 109.003C72.1488 109.589 73.5615 110.562 74.6727 111.835L79.2097 108.131C77.476 106.087 75.2556 104.513 72.7533 103.553C70.251 102.594 67.5474 102.28 64.8918 102.64C62.2362 103.001 59.7141 104.024 57.5581 105.616C55.4022 107.208 53.6818 109.317 52.5557 111.749C51.4295 114.181 50.9338 116.857 51.1144 119.531C51.2949 122.205 52.1459 124.79 53.5887 127.049C55.0315 129.307 57.0198 131.166 59.3702 132.453C61.7205 133.741 64.3573 134.416 67.0373 134.416C69.0933 134.454 71.1357 134.076 73.042 133.304C74.9483 132.533 76.6791 131.385 78.1309 129.929C80.5873 127.386 82.113 124.088 82.4609 120.569C82.6037 118.891 82.6284 117.206 82.5348 115.525L68.4264 115.549ZM186.889 107.431C184.346 107.431 181.859 108.185 179.744 109.599C177.629 111.012 175.98 113.021 175.006 115.371C174.033 117.721 173.778 120.307 174.275 122.802C174.771 125.297 175.996 127.589 177.795 129.388C179.593 131.187 181.885 132.412 184.38 132.908C186.875 133.404 189.461 133.15 191.812 132.176C194.162 131.203 196.171 129.554 197.584 127.439C198.997 125.324 199.752 122.837 199.752 120.293C199.754 118.602 199.423 116.928 198.778 115.365C198.133 113.802 197.186 112.382 195.991 111.186C194.797 109.989 193.378 109.04 191.816 108.392C190.254 107.745 188.58 107.411 186.889 107.411V107.431ZM186.889 127.884C185.387 127.884 183.918 127.439 182.669 126.604C181.42 125.769 180.446 124.582 179.871 123.194C179.296 121.806 179.146 120.278 179.44 118.805C179.733 117.331 180.457 115.977 181.52 114.915C182.583 113.853 183.937 113.13 185.411 112.838C186.884 112.545 188.412 112.696 189.8 113.272C191.188 113.848 192.374 114.822 193.208 116.072C194.042 117.322 194.487 118.791 194.486 120.293C194.48 122.304 193.678 124.23 192.253 125.65C190.829 127.069 188.9 127.866 186.889 127.865V127.884ZM165.412 132.466H171.077V110.648H165.412V132.466ZM156.756 132.466H162.422V126.781H156.756V132.466ZM142.402 107.431C140.129 107.429 137.897 108.029 135.931 109.17C133.966 110.311 132.338 111.952 131.213 113.927C130.089 115.902 129.507 118.139 129.528 120.411C129.549 122.684 130.171 124.91 131.332 126.864C132.493 128.817 134.151 130.429 136.137 131.533C138.123 132.638 140.366 133.197 142.638 133.153C144.91 133.109 147.13 132.464 149.072 131.283C151.014 130.102 152.608 128.428 153.692 126.431L148.939 124.121C148.178 125.412 147.053 126.449 145.705 127.102C144.356 127.755 142.845 127.995 141.361 127.791C139.876 127.587 138.486 126.949 137.363 125.957C136.24 124.964 135.436 123.662 135.052 122.214H149.752H155.131C155.411 120.382 155.292 118.51 154.782 116.728C154.272 114.946 153.383 113.295 152.175 111.888C150.968 110.481 149.471 109.352 147.787 108.578C146.102 107.804 144.27 107.402 142.417 107.402L142.402 107.431ZM135.293 117.613C135.837 116.168 136.808 114.922 138.078 114.043C139.347 113.164 140.855 112.693 142.399 112.693C143.944 112.693 145.451 113.164 146.721 114.043C147.991 114.922 148.962 116.168 149.505 117.613H135.293ZM165.412 108.175H171.077V102.51H165.412V108.175Z" fill="black"/>
<path d="M23.0875 129.983C19.7559 129.983 16.5608 128.66 14.2051 126.304C11.8493 123.948 10.5259 120.753 10.5259 117.421C10.5259 114.09 11.8493 110.895 14.2051 108.539C16.5608 106.183 19.7559 104.86 23.0875 104.86V94.584C18.5706 94.584 14.1552 95.9234 10.3996 98.4328C6.64405 100.942 3.71692 104.509 1.98841 108.682C0.259896 112.855 -0.192363 117.447 0.688825 121.877C1.57001 126.307 3.74507 130.376 6.93895 133.57C10.1328 136.764 14.2021 138.939 18.6321 139.82C23.0621 140.701 27.654 140.249 31.827 138.52C36 136.792 39.5667 133.865 42.0761 130.109C44.5855 126.354 45.9249 121.938 45.9249 117.421H35.649C35.649 120.753 34.3256 123.948 31.9698 126.304C29.6141 128.66 26.419 129.983 23.0875 129.983Z" fill="#2354E6"/>
<path d="M35.6475 104.861H23.0859V117.423H35.6475V104.861Z" fill="#17E6A1"/>
</g>
<g clip-path="url(#clip2_9138_9758)">
<mask id="mask0_9138_9758" style="mask-type:luminance" maskUnits="userSpaceOnUse" x="0" y="188" width="199" height="48">
<path d="M198.574 188.328H0V235.387H198.574V188.328Z" fill="white"/>
</mask>
<g mask="url(#mask0_9138_9758)">
<path d="M78.6906 200.094C78.2446 199.646 77.7316 199.271 77.17 198.981C76.893 198.835 76.6044 198.712 76.3071 198.613L76.4965 198.521C76.8603 198.333 77.1953 198.094 77.4909 197.811C77.9824 197.305 78.349 196.691 78.5617 196.019C78.7943 195.299 78.9089 194.545 78.9011 193.788C78.9094 193.056 78.7865 192.328 78.538 191.639C78.3143 191.022 77.9546 190.464 77.4856 190.005C76.465 189.011 74.7471 188.332 72.4372 188.332H60.3174V209.86H73.3108C74.3252 209.88 75.3349 209.717 76.2914 209.378C77.0821 209.084 77.8 208.623 78.3959 208.026C78.8959 207.513 79.2775 206.897 79.514 206.221C79.7812 205.477 79.9158 204.692 79.9112 203.901C79.9177 203.173 79.8186 202.448 79.6166 201.749C79.4417 201.132 79.1244 200.566 78.6906 200.094ZM73.9237 205.085C73.6877 205.258 73.4193 205.382 73.1344 205.45C72.7584 205.543 72.3721 205.587 71.9847 205.582H65.3684V201.223H72.0374C72.6953 201.193 73.3441 201.385 73.879 201.77C74.1128 201.963 74.2886 202.217 74.3866 202.504C74.4984 202.838 74.5518 203.188 74.5444 203.54C74.5503 203.853 74.4994 204.164 74.3946 204.458C74.2972 204.706 74.1344 204.922 73.9237 205.085ZM73.3659 193.772C73.4886 194.089 73.5509 194.425 73.55 194.764C73.5565 195.143 73.4942 195.52 73.3659 195.877C73.2662 196.152 73.1052 196.4 72.895 196.603C72.7208 196.768 72.5125 196.893 72.2847 196.969C72.0396 197.05 71.7825 197.089 71.5244 197.085H65.3684V192.586H71.0824C71.4517 192.579 71.8203 192.618 72.1794 192.704C72.4496 192.768 72.7011 192.894 72.9134 193.073C73.1203 193.269 73.2787 193.51 73.3765 193.778L73.3659 193.772Z" fill="#18222F"/>
<path d="M83.9365 209.856H84.2181H89.1718V188.328H83.9365V209.856Z" fill="#18222F"/>
<path d="M92.3467 192.766H99.1683V209.856H104.403V192.766H111.249V188.328H92.3467V192.766Z" fill="#18222F"/>
<path d="M113.125 192.766H119.944V209.856H125.179V192.766H132.027V188.328H113.125V192.766Z" fill="#18222F"/>
<path d="M152.765 198.677C153.278 197.79 153.572 196.501 153.572 194.876C153.584 194.101 153.508 193.328 153.341 192.571C153.2 191.947 152.947 191.354 152.597 190.819C152.121 190.011 151.409 189.369 150.558 188.977C149.487 188.514 148.327 188.293 147.162 188.33H135.202V209.858H140.279V201.702H145.341L149.43 209.858H155.216L150.266 200.695C150.794 200.54 151.288 200.282 151.716 199.935C152.146 199.589 152.502 199.161 152.765 198.677ZM148.236 196.749C148.177 196.861 148.096 196.96 147.999 197.041C147.806 197.189 147.584 197.296 147.349 197.354C147.035 197.433 146.713 197.471 146.391 197.467H140.306V192.768H146.125C146.611 192.75 147.096 192.832 147.549 193.01C147.711 193.081 147.859 193.178 147.99 193.297C148.112 193.412 148.213 193.547 148.287 193.697C148.322 193.782 148.352 193.87 148.372 193.96C148.459 194.383 148.502 194.814 148.497 195.246C148.496 195.518 148.471 195.789 148.424 196.057C148.39 196.294 148.327 196.527 148.236 196.749Z" fill="#18222F"/>
<path d="M163.524 201.363H174.615V196.82H163.524V192.848H175.04V188.328H158.473V209.856H158.756H175.173V205.365H163.524V201.363Z" fill="#18222F"/>
<path d="M198.546 216.502H60.4365V235.388H198.546V216.502Z" fill="#1C6FE8"/>
<path d="M110.247 231.194L110.141 230.213C109.584 230.863 108.773 231.342 107.087 231.342C105.443 231.342 104.127 230.757 103.359 229.789C102.788 229.071 102.362 227.732 102.362 225.967C102.362 224.441 102.536 223.312 103.32 222.25C103.996 221.334 105.269 220.553 107.366 220.553C109.597 220.553 110.883 221.282 111.507 222.394C111.838 222.981 112.013 223.643 112.012 224.317H109.781C109.754 223.873 109.567 223.453 109.255 223.136C109.01 222.912 108.724 222.74 108.411 222.628C108.099 222.516 107.768 222.468 107.437 222.486C106.506 222.486 105.843 222.726 105.393 223.218C104.943 223.71 104.704 224.586 104.704 226.019C104.704 227.453 104.93 228.208 105.353 228.74C105.701 229.166 106.469 229.511 107.479 229.511C108.818 229.511 109.773 228.832 109.96 227.972V227.003H106.929V225.12H112.07V228.358C112.07 229.645 112.083 231.144 112.083 231.184L110.247 231.194Z" fill="white"/>
<path d="M113.603 231.194V220.711H115.912V229.245H121.155V231.194H113.603Z" fill="white"/>
<path d="M130.59 222.236C131.201 223.047 131.48 224.254 131.48 225.888C131.48 227.598 131.148 228.782 130.551 229.668C129.822 230.757 128.428 231.342 126.371 231.342C124.313 231.342 122.974 230.784 122.217 229.695C121.567 228.805 121.262 227.558 121.262 225.914C121.262 224.359 121.541 223.152 122.164 222.331C122.953 221.242 124.248 220.553 126.373 220.553C128.454 220.553 129.796 221.15 130.59 222.236ZM128.454 228.7C128.959 228.195 129.172 227.096 129.172 225.941C129.172 224.786 128.959 223.736 128.52 223.273C128.081 222.81 127.526 222.463 126.371 222.463C125.216 222.463 124.697 222.781 124.248 223.286C123.835 223.749 123.598 224.825 123.598 225.954C123.598 227.135 123.861 228.221 124.387 228.753C124.813 229.179 125.371 229.458 126.392 229.458C127.473 229.458 128.031 229.124 128.454 228.7Z" fill="white"/>
<path d="M139.269 231.194H132.913V220.711H138.832C139.961 220.711 140.782 221.042 141.26 221.5C141.486 221.738 141.662 222.02 141.776 222.328C141.89 222.636 141.94 222.964 141.923 223.292C141.961 223.991 141.723 224.676 141.26 225.202C140.977 225.463 140.629 225.645 140.253 225.728C140.862 225.814 141.426 226.099 141.858 226.538C142.242 226.935 142.429 227.59 142.429 228.343C142.454 229.066 142.197 229.77 141.713 230.308C141.181 230.85 140.398 231.194 139.269 231.194ZM139.164 222.834C138.872 222.624 138.514 222.525 138.156 222.555H135.157V225.091H138.377C138.667 225.107 138.951 225.006 139.166 224.812C139.295 224.676 139.395 224.515 139.458 224.339C139.522 224.163 139.549 223.976 139.537 223.789C139.543 223.613 139.512 223.438 139.449 223.274C139.385 223.11 139.289 222.96 139.166 222.834H139.164ZM140.027 228.169C140.042 227.985 140.016 227.8 139.949 227.628C139.883 227.455 139.778 227.3 139.643 227.175C139.35 226.962 138.994 226.854 138.632 226.87H135.157V229.337H138.606C138.977 229.359 139.346 229.262 139.658 229.058C139.785 228.949 139.884 228.812 139.948 228.657C140.012 228.503 140.039 228.336 140.027 228.169Z" fill="white"/>
<path d="M145.217 231.194H142.868L146.93 220.711H149.824L153.659 231.194H151.271L150.382 228.727H146.159L145.217 231.194ZM148.577 223.605L148.337 222.742L148.074 223.618L146.88 226.83H149.69L148.577 223.605Z" fill="white"/>
<path d="M154.65 231.194V220.711H156.961V229.245H162.203V231.194H154.65Z" fill="white"/>
<path d="M47.0588 221.739V188.328H13.6483V198.212H19.7516V194.431H40.9528V215.63H33.4104V201.979H0V235.39H33.4104V225.508H27.3072V229.284H6.10334V208.082H13.651V221.739H47.0588ZM27.3019 215.633H19.7543V208.082H27.3019V215.633Z" fill="#1C6FE8"/>
<path d="M190.707 198.63L188.426 195.379L183.691 188.328H177.638L185.074 198.983L177.173 209.855H183.083L183.199 209.687L187.888 202.937L192.543 209.855H198.573L190.707 198.63Z" fill="#18222F"/>
<path d="M191.857 192.043H194.857V194.971H198.575V188.328H191.929V192.043H191.857Z" fill="#1C6FE8"/>
</g>
</g>
<defs>
<clipPath id="clip0_9138_9758">
<rect width="200" height="45.9016" fill="white" transform="translate(0 0.613281)"/>
</clipPath>
<clipPath id="clip1_9138_9758">
<rect width="200" height="45.8128" fill="white" transform="translate(0 94.5156)"/>
</clipPath>
<clipPath id="clip2_9138_9758">
<rect width="200" height="47.0588" fill="white" transform="translate(0 188.328)"/>
</clipPath>
</defs>
</svg>
