<svg width="201" height="208" viewBox="0 0 201 208" fill="none" xmlns="http://www.w3.org/2000/svg">
<g opacity="0.8">
<path d="M252.438 83.1543C252.438 37.3021 214.85 0 168.648 0C122.445 0 84.8571 37.3021 84.8571 83.1543C84.8571 83.3496 84.8651 83.5449 84.8677 83.7403C84.5086 83.735 84.1495 83.7271 83.7904 83.7271C37.5875 83.7271 0 121.029 0 166.881C0 212.734 37.5875 250.036 83.7904 250.036C129.993 250.036 167.581 212.734 167.581 166.881C167.581 166.683 167.576 166.485 167.573 166.287C167.932 166.293 168.291 166.309 168.648 166.309C214.85 166.309 252.438 129.006 252.438 83.1543ZM83.7904 229.762C48.8523 229.762 20.4283 201.554 20.4283 166.881C20.4283 132.208 48.8523 104 83.7904 104C118.729 104 147.153 132.208 147.153 166.881C147.153 201.554 118.729 229.762 83.7904 229.762ZM138.237 103.728C138.037 103.559 137.838 103.393 137.638 103.227C137.811 103.211 138.01 103.198 138.237 103.198V103.728ZM154.922 122.985H192.683V102.712H164.102C165.336 99.9746 166.206 97.1396 166.674 94.2649H180.42V73.9917H164.2C163.61 71.5869 163.165 69.0634 163.165 65.9221C163.165 62.4112 166.24 59.2172 169.616 59.2172C172.885 59.2172 175.859 62.5036 175.859 66.1174H196.287C196.287 51.3877 184.072 38.944 169.616 38.944C155.047 38.944 142.737 51.298 142.737 65.9221C142.737 68.9499 142.99 71.6107 143.368 73.9917H136.274V94.2649H145.554C143.596 98.7551 139.537 102.079 137.492 103.103C128.259 95.4343 117.345 89.7008 105.386 86.5331C105.325 85.406 105.285 84.2814 105.285 83.1543C105.285 48.4814 133.709 20.2732 168.648 20.2732C203.586 20.2732 232.01 48.4814 232.01 83.1543C232.01 117.827 203.586 146.035 168.648 146.035C167.392 146.035 166.134 145.988 164.881 145.914C162.727 137.712 159.335 130.002 154.922 122.985Z" fill="#390062"/>
<path d="M105.846 206.818C100.922 209.32 92.5139 211.823 83.2401 211.823C69.0315 211.823 55.9878 206.553 47.8709 196.802C43.9594 192.328 41.0605 186.662 39.754 179.68H30.3359V170.323H38.3059C38.3059 169.662 38.3059 168.875 38.3059 168.084C38.3059 166.766 38.4528 165.447 38.4528 164.129H30.3359V154.779H40.0452C41.9289 147.66 45.4075 141.603 50.0458 136.727C58.3043 128.294 69.8999 123.289 83.5233 123.289C92.3643 123.289 100.048 125.131 105.266 127.24L101.205 142.261C97.4354 140.812 91.496 139.097 85.1211 139.097C78.161 139.097 71.7808 141.206 67.2895 146.211C65.2589 148.32 63.6666 151.351 62.6513 154.779H98.7419V164.129H60.4818C60.3348 165.447 60.3348 166.895 60.3348 168.214C60.3348 169.004 60.3348 169.533 60.3348 170.323H98.7445V179.678H62.3654C63.378 183.629 64.9731 186.662 67.1452 188.898C71.7835 193.639 78.5965 195.616 85.8424 195.616C92.5139 195.616 99.3216 193.637 102.367 192.188L105.846 206.818Z" fill="#390062"/>
</g>
</svg>
