<svg width="134" height="106" viewBox="0 0 134 106" fill="none" xmlns="http://www.w3.org/2000/svg">
<path d="M76.4036 4.87109H57.5859V37.5596H76.4036V4.87109Z" fill="#FF5F00"/>
<path d="M58.7868 21.2092C58.7868 14.5676 62.0127 8.67673 66.971 4.865C63.327 2.09283 58.7271 0.417969 53.7091 0.417969C41.8211 0.417969 32.2031 9.71629 32.2031 21.2092C32.2031 32.7022 41.8211 42.0005 53.7091 42.0005C58.7271 42.0005 63.327 40.3257 66.971 37.5535C62.0127 33.7995 58.7868 27.8509 58.7868 21.2092Z" fill="#EB001B"/>
<path d="M101.807 21.2092C101.807 32.7022 92.189 42.0005 80.3011 42.0005C75.283 42.0005 70.6831 40.3257 67.0391 37.5535C72.0571 33.7418 75.2233 27.8509 75.2233 21.2092C75.2233 14.5676 71.9974 8.67673 67.0391 4.865C70.6831 2.09283 75.283 0.417969 80.3011 0.417969C92.189 0.417969 101.807 9.77404 101.807 21.2092Z" fill="#F79E1B"/>
<g clip-path="url(#clip0_7807_9385)">
<path d="M58.762 105.424H48.75L55.0122 66.7031H65.0238L58.762 105.424Z" fill="#00579F"/>
<path d="M95.0568 67.6485C93.082 66.865 89.9498 66 86.0768 66C76.1896 66 69.2271 71.2724 69.1844 78.8103C69.1023 84.3718 74.1693 87.4607 77.9591 89.3151C81.8326 91.21 83.1494 92.4468 83.1494 94.1358C83.1099 96.7298 80.0193 97.9256 77.1368 97.9256C73.1395 97.9256 70.9977 97.3091 67.7428 95.8659L66.4245 95.2472L65.0234 103.939C67.3716 105.009 71.698 105.958 76.1896 106C86.6949 106 93.5343 100.809 93.6153 92.7764C93.6553 88.3685 90.9796 84.991 85.2112 82.231C81.7094 80.4594 79.5649 79.2647 79.5649 77.452C79.606 75.804 81.3788 74.1161 85.3317 74.1161C88.5865 74.0334 90.978 74.8158 92.7897 75.5987L93.6952 76.0099L95.0568 67.6485Z" fill="#00579F"/>
<path d="M108.365 91.7067C109.19 89.4822 112.363 80.8729 112.363 80.8729C112.321 80.9555 113.185 78.6073 113.68 77.1658L114.38 80.5022C114.38 80.5022 116.275 89.7707 116.687 91.7067C115.122 91.7067 110.343 91.7067 108.365 91.7067ZM120.724 66.7031H112.98C110.591 66.7031 108.777 67.4028 107.747 69.9158L92.875 105.424H103.38C103.38 105.424 105.11 100.645 105.482 99.6153C106.634 99.6153 116.854 99.6153 118.336 99.6153C118.624 100.975 119.531 105.424 119.531 105.424H128.801L120.724 66.7031Z" fill="#00579F"/>
<path d="M40.3829 66.7031L30.5778 93.1072L29.5064 87.7521C27.6936 81.5731 22.0084 74.8597 15.6641 71.5216L24.6452 105.383H35.2326L50.9698 66.7031H40.3829Z" fill="#00579F"/>
<path d="M21.4763 66.7031H5.36792L5.20312 67.4855C17.7687 70.6987 26.0906 78.4442 29.5097 87.7538L26.0079 69.958C25.4314 67.4849 23.6597 66.7847 21.4763 66.7031Z" fill="#FAA61A"/>
</g>
<defs>
<clipPath id="clip0_7807_9385">
<rect width="123.595" height="40" fill="white" transform="translate(5.20312 66)"/>
</clipPath>
</defs>
</svg>
