<svg width="61" height="60" viewBox="0 0 61 60" fill="none" xmlns="http://www.w3.org/2000/svg">
<rect x="0.600586" width="60" height="60" rx="8" fill="#00BB31"/>
<path d="M45.3021 21.0199H39.4893C39.5539 20.9652 39.6202 20.9122 39.6831 20.8542C40.1864 20.4071 40.592 19.861 40.8745 19.25C41.1571 18.639 41.3105 17.9762 41.3252 17.3032C41.347 16.567 41.2181 15.834 40.9463 15.1494C40.6746 14.4648 40.2658 13.8429 39.745 13.322C39.2243 12.8011 38.6025 12.3921 37.918 12.1202C37.2335 11.8482 36.5006 11.719 35.7643 11.7406C35.091 11.7551 34.4279 11.9084 33.8166 12.191C33.2053 12.4735 32.6589 12.8792 32.2116 13.3827C31.5927 14.1 31.0895 14.9096 30.7203 15.7821C30.3511 14.9096 29.8479 14.1 29.229 13.3827C28.7817 12.8792 28.2353 12.4735 27.624 12.191C27.0127 11.9084 26.3496 11.7551 25.6763 11.7406C24.9401 11.719 24.2072 11.8482 23.5226 12.1202C22.8381 12.3921 22.2164 12.8011 21.6956 13.322C21.1748 13.8429 20.766 14.4648 20.4943 15.1494C20.2226 15.834 20.0936 16.567 20.1154 17.3032C20.1301 17.9762 20.2836 18.639 20.5661 19.25C20.8487 19.861 21.2542 20.4071 21.7575 20.8542C21.8205 20.9089 21.8867 20.9619 21.9514 21.0199H16.1385C15.4354 21.0199 14.761 21.2992 14.2638 21.7964C13.7666 22.2936 13.4873 22.968 13.4873 23.6711V28.9736C13.4873 29.6768 13.7666 30.3511 14.2638 30.8483C14.761 31.3455 15.4354 31.6248 16.1385 31.6248V42.2298C16.1385 42.9329 16.4179 43.6073 16.9151 44.1045C17.4123 44.6017 18.0866 44.881 18.7898 44.881H28.7319C28.9077 44.881 29.0763 44.8112 29.2006 44.6869C29.3249 44.5626 29.3947 44.394 29.3947 44.2182V28.9736H16.1385V23.6711H29.3947V28.9736H32.0459V23.6711H45.3021V28.9736H32.0459V44.2182C32.0459 44.394 32.1158 44.5626 32.2401 44.6869C32.3644 44.8112 32.533 44.881 32.7087 44.881H42.6509C43.354 44.881 44.0284 44.6017 44.5256 44.1045C45.0228 43.6073 45.3021 42.9329 45.3021 42.2298V31.6248C46.0052 31.6248 46.6796 31.3455 47.1768 30.8483C47.674 30.3511 47.9533 29.6768 47.9533 28.9736V23.6711C47.9533 22.968 47.674 22.2936 47.1768 21.7964C46.6796 21.2992 46.0052 21.0199 45.3021 21.0199ZM23.5139 18.8658C23.2822 18.6559 23.0963 18.4003 22.9679 18.1152C22.8396 17.83 22.7716 17.5214 22.7683 17.2088C22.7599 16.8424 22.8247 16.478 22.9589 16.1371C23.0932 15.7961 23.2941 15.4853 23.55 15.2229C23.8058 14.9606 24.1115 14.752 24.449 14.6092C24.7865 14.4665 25.1492 14.3926 25.5156 14.3918H25.5968C25.9095 14.3952 26.2181 14.4632 26.5032 14.5915C26.7884 14.7198 27.0439 14.9057 27.2538 15.1375C28.6441 16.7083 29.1345 19.3132 29.3069 20.9238C27.6896 20.7531 25.0864 20.2627 23.5139 18.8658ZM37.93 18.8658C36.3575 20.2577 33.7477 20.7482 32.1304 20.9205C32.3276 19.179 32.8744 16.6288 34.2001 15.1391C34.41 14.9074 34.6655 14.7215 34.9506 14.5932C35.2358 14.4648 35.5444 14.3969 35.8571 14.3935H35.9383C36.3048 14.3958 36.6671 14.4712 37.0041 14.6153C37.341 14.7594 37.6458 14.9694 37.9006 15.2328C38.1554 15.4962 38.355 15.8079 38.4878 16.1494C38.6207 16.491 38.6839 16.8557 38.674 17.222C38.6686 17.5326 38.5995 17.8387 38.471 18.1215C38.3424 18.4042 38.1572 18.6576 37.9267 18.8658H37.93Z" fill="white"/>
</svg>
