<svg width="60" height="60" viewBox="0 0 60 60" fill="none" xmlns="http://www.w3.org/2000/svg">
<rect width="60" height="60" rx="8" fill="#F68D2E"/>
<path d="M39.2227 23.6951V22.7812C39.2227 18.6666 33.0162 15.5625 24.7852 15.5625C16.5541 15.5625 10.3477 18.6666 10.3477 22.7812V29.3438C10.3477 32.771 14.6543 35.4945 20.8477 36.3098V37.2188C20.8477 41.3334 27.0541 44.4375 35.2852 44.4375C43.5162 44.4375 49.7227 41.3334 49.7227 37.2188V30.6562C49.7227 27.2602 45.5522 24.5334 39.2227 23.6951ZM18.2227 33.0959C15.0087 32.1984 12.9727 30.7202 12.9727 29.3438V27.0354C14.3114 27.9837 16.1046 28.7482 18.2227 29.2617V33.0959ZM31.3477 29.2617C33.4657 28.7482 35.2589 27.9837 36.5977 27.0354V29.3438C36.5977 30.7202 34.5616 32.1984 31.3477 33.0959V29.2617ZM28.7227 40.9709C25.5087 40.0734 23.4727 38.5952 23.4727 37.2188V36.5346C23.9041 36.551 24.3405 36.5625 24.7852 36.5625C25.4217 36.5625 26.0435 36.5412 26.6538 36.5051C27.3318 36.7478 28.0224 36.9537 28.7227 37.122V40.9709ZM28.7227 33.6504C27.419 33.843 26.1029 33.9389 24.7852 33.9375C23.4674 33.9389 22.1513 33.843 20.8477 33.6504V29.7473C22.1532 29.9175 23.4685 30.0019 24.7852 30C26.1018 30.0019 27.4171 29.9175 28.7227 29.7473V33.6504ZM39.2227 41.5254C36.6116 41.9082 33.9587 41.9082 31.3477 41.5254V37.6125C32.6528 37.7879 33.9683 37.8756 35.2852 37.875C36.6018 37.8769 37.9171 37.7925 39.2227 37.6223V41.5254ZM47.0977 37.2188C47.0977 38.5952 45.0616 40.0734 41.8477 40.9709V37.1367C43.9657 36.6232 45.7589 35.8587 47.0977 34.9104V37.2188Z" fill="white"/>
</svg>
