<svg width="61" height="60" viewBox="0 0 61 60" fill="none" xmlns="http://www.w3.org/2000/svg">
<rect x="0.400391" width="60" height="60" rx="8" fill="#685BC7"/>
<path d="M37.6133 28.6875C37.6133 30.1152 37.1899 31.5109 36.3967 32.698C35.6035 33.8851 34.4761 34.8104 33.157 35.3568C31.838 35.9031 30.3865 36.0461 28.9862 35.7675C27.5859 35.489 26.2997 34.8015 25.2901 33.7919C24.2806 32.7824 23.593 31.4961 23.3145 30.0958C23.036 28.6955 23.1789 27.2441 23.7253 25.925C24.2717 24.6059 25.1969 23.4785 26.384 22.6853C27.5711 21.8921 28.9668 21.4688 30.3945 21.4688C32.3084 21.4709 34.1433 22.2322 35.4966 23.5855C36.8499 24.9388 37.6111 26.7736 37.6133 28.6875ZM47.457 30C47.457 33.3746 46.4563 36.6735 44.5815 39.4794C42.7066 42.2853 40.0418 44.4723 36.9241 45.7637C33.8063 47.0551 30.3756 47.393 27.0658 46.7346C23.756 46.0763 20.7158 44.4512 18.3295 42.065C15.9433 39.6788 14.3183 36.6385 13.6599 33.3287C13.0015 30.0189 13.3394 26.5882 14.6308 23.4705C15.9223 20.3527 18.1092 17.6879 20.9151 15.813C23.721 13.9382 27.0199 12.9375 30.3945 12.9375C34.9183 12.9423 39.2555 14.7415 42.4543 17.9403C45.6531 21.1391 47.4523 25.4762 47.457 30ZM44.832 30C44.8299 28.0567 44.436 26.1338 43.6737 24.3463C42.9114 22.5588 41.7964 20.9434 40.3955 19.5967C38.9945 18.25 37.3364 17.1996 35.5202 16.5084C33.704 15.8172 31.7671 15.4994 29.8252 15.574C22.0979 15.8726 15.9357 22.3088 15.957 30.041C15.9644 33.561 17.2627 36.956 19.6058 39.5829C20.56 38.1989 21.7721 37.0118 23.1758 36.0867C23.2955 36.0077 23.4377 35.97 23.5808 35.9795C23.724 35.989 23.86 36.0451 23.9682 36.1392C25.7519 37.682 28.0313 38.531 30.3896 38.531C32.7479 38.531 35.0274 37.682 36.811 36.1392C36.9192 36.0451 37.0553 35.989 37.1984 35.9795C37.3415 35.97 37.4838 36.0077 37.6034 36.0867C39.0089 37.0113 40.2227 38.1984 41.1784 39.5829C43.5331 36.9465 44.8338 33.5349 44.832 30Z" fill="white"/>
</svg>
