<svg width="61" height="60" viewBox="0 0 61 60" fill="none" xmlns="http://www.w3.org/2000/svg">
<rect x="0.799805" width="60" height="60" rx="8" fill="#0047BB"/>
<path d="M30.7998 51C42.3978 51 51.7998 41.598 51.7998 30C51.7998 18.402 42.3978 9 30.7998 9C19.2018 9 9.7998 18.402 9.7998 30C9.7998 41.598 19.2018 51 30.7998 51Z" fill="white"/>
<path d="M39.4422 34.5978C39.2633 34.5183 39.0693 34.4779 38.8733 34.4794C38.7038 34.4796 38.5356 34.5082 38.3757 34.5639C38.0794 34.6932 37.8155 34.8861 37.6029 35.1287C37.5151 35.2207 37.4215 35.3071 37.3227 35.3874C35.964 36.402 34.7089 36.8721 33.1889 36.933V23.336C34.5357 23.5152 35.5088 24.0512 36.0761 24.9339C36.1973 25.1392 36.3013 25.3541 36.3869 25.5765C36.5158 25.9337 36.6973 26.2699 36.9253 26.5741C36.9508 26.6063 37.0527 26.7179 37.0713 26.7432C37.3165 26.9768 37.6441 27.1049 37.9834 27.1C38.1674 27.1034 38.3501 27.0667 38.5184 26.9925C38.6868 26.9183 38.8369 26.8084 38.9582 26.6705C39.2153 26.3242 39.3449 25.9002 39.3251 25.4699C39.3251 25.2332 39.3437 25.0776 39.3522 24.9627C39.3735 24.7375 39.3701 24.5107 39.342 24.2863C39.1977 23.0536 38.8512 22.8168 37.7745 22.2571L37.4348 22.0796C35.7925 21.202 34.8278 21.0007 33.1991 20.786C33.3604 18.2817 33.8563 17.4041 34.3794 16.8427C34.5427 16.6767 34.7385 16.546 34.9548 16.4587C35.171 16.3714 35.403 16.3294 35.6362 16.3354C35.7191 16.3353 35.8019 16.3404 35.8842 16.3506C35.3747 17.2299 35.5054 18.1582 36.2239 18.7653C36.6368 19.0765 37.1448 19.2366 37.6624 19.2185C38.1224 19.2365 38.5758 19.1041 38.9531 18.8414C39.8787 18.1058 39.8787 16.7953 39.3471 16.0056C38.7273 15.1176 37.7853 14.504 36.7198 14.2944C35.7415 14.0889 34.7249 14.1605 33.7854 14.5009C32.8458 14.8413 32.0208 15.437 31.4039 16.2204L31.3377 16.3016C30.8944 16.8325 29.7497 18.2039 29.6512 20.7742C24.4202 21.9003 21.5449 25.1064 21.5449 29.8377C21.5449 32.7292 22.6081 37.7852 29.6529 39.5354C29.6529 39.6318 29.6529 39.7281 29.6529 39.8211C29.6206 40.8171 29.5985 41.5375 29.0194 42.64C28.8628 42.9039 28.639 43.122 28.3706 43.2722C28.1022 43.4225 27.7988 43.4995 27.4909 43.4956C27.3769 43.4965 27.263 43.4858 27.1512 43.4635C27.2846 43.1794 27.3458 42.8669 27.3295 42.5537C27.3216 42.2882 27.2524 42.0281 27.1272 41.7935C27.0021 41.5589 26.8243 41.3561 26.6077 41.201C26.5936 41.191 26.5789 41.1819 26.5636 41.1739C26.2022 40.9634 25.7933 40.8471 25.3747 40.8357C24.8747 40.8432 24.3961 41.0393 24.0357 41.3846C23.6754 41.7299 23.4601 42.1985 23.4335 42.6958C23.4261 43.0259 23.4846 43.3541 23.6056 43.6615C23.7266 43.9689 23.9076 44.2493 24.1383 44.4865C24.5054 44.9145 24.9637 45.2556 25.4799 45.4849C25.9962 45.7143 26.5572 45.8261 27.1223 45.8122C27.579 45.8072 28.034 45.758 28.481 45.6651C30.4392 45.1849 31.8676 43.9488 32.7269 41.9906C33.0224 41.3143 33.1243 40.1729 33.1566 39.5658C34.2279 39.4539 35.2749 39.1754 36.2595 38.7406C38.3247 37.7954 38.9769 37.1291 39.4864 36.5948L39.6206 36.4561C40.1114 35.9488 40.0876 35.4906 39.9806 35.1845C39.8861 34.9258 39.6925 34.7148 39.4422 34.5978ZM29.6631 30.1708C29.6631 32.4029 29.6631 34.6265 29.6631 36.8163C27.4552 36.1754 25.9454 33.5849 25.9454 30.2892C25.9454 27.5921 26.6094 24.2846 29.6818 23.4053C29.6682 25.6509 29.6648 27.9151 29.6631 30.1708Z" fill="#0047BB"/>
</svg>
