<svg width="32" height="32" viewBox="0 0 32 32" fill="none" xmlns="http://www.w3.org/2000/svg">
<path d="M16 32C24.8366 32 32 24.8366 32 16C32 7.16345 24.8366 0 16 0C7.16345 0 0 7.16345 0 16C0 24.8366 7.16345 32 16 32Z" fill="#0047BB"/>
<path d="M22.5853 19.5039C22.4489 19.4434 22.3011 19.4126 22.1518 19.4137C22.0227 19.4138 21.8945 19.4356 21.7727 19.4781C21.5469 19.5766 21.3459 19.7236 21.1839 19.9084C21.1169 19.9785 21.0456 20.0444 20.9704 20.1056C19.9352 20.8786 18.9789 21.2367 17.8208 21.2831V10.9235C18.8469 11.06 19.5884 11.4684 20.0206 12.141C20.113 12.2974 20.1922 12.4611 20.2574 12.6305C20.3556 12.9027 20.4939 13.1589 20.6676 13.3907C20.687 13.4151 20.7646 13.5002 20.7789 13.5195C20.9657 13.6974 21.2153 13.7951 21.4737 13.7913C21.614 13.7939 21.7531 13.7659 21.8814 13.7094C22.0097 13.6529 22.1241 13.5692 22.2165 13.4641C22.4124 13.2002 22.5111 12.8772 22.496 12.5494C22.496 12.369 22.5102 12.2505 22.5167 12.1629C22.5329 11.9913 22.5303 11.8185 22.5089 11.6475C22.3989 10.7083 22.135 10.5279 21.3146 10.1015L21.0558 9.96623C19.8045 9.29757 19.0695 9.14426 17.8286 8.98064C17.9515 7.07259 18.3293 6.40393 18.7279 5.9762C18.8523 5.84974 19.0015 5.75016 19.1662 5.68366C19.331 5.61716 19.5077 5.58518 19.6854 5.5897C19.7486 5.58967 19.8117 5.59354 19.8744 5.60129C19.4862 6.27123 19.5858 6.97854 20.1332 7.44106C20.4478 7.6782 20.8348 7.80014 21.2292 7.78634C21.5797 7.80009 21.9251 7.69918 22.2126 7.49903C22.9178 6.9386 22.9178 5.94013 22.5128 5.33847C22.0406 4.66187 21.3228 4.19438 20.511 4.03466C19.7656 3.87813 18.9911 3.93264 18.2753 4.192C17.5594 4.45136 16.9308 4.90521 16.4608 5.50209L16.4104 5.56393C16.0726 5.96847 15.2005 7.01332 15.1254 8.97162C11.1399 9.82966 8.94922 12.2724 8.94922 15.8772C8.94922 18.0803 9.75926 21.9324 15.1267 23.2659C15.1267 23.3393 15.1267 23.4128 15.1267 23.4836C15.1021 24.2425 15.0853 24.7913 14.6441 25.6313C14.5247 25.8324 14.3542 25.9986 14.1497 26.113C13.9453 26.2275 13.714 26.2862 13.4795 26.2832C13.3926 26.2839 13.3059 26.2757 13.2207 26.2587C13.3223 26.0422 13.369 25.8042 13.3565 25.5656C13.3505 25.3633 13.2978 25.1651 13.2024 24.9863C13.107 24.8076 12.9716 24.6531 12.8066 24.5349C12.7959 24.5273 12.7846 24.5204 12.773 24.5143C12.4976 24.3539 12.1861 24.2653 11.8672 24.2566C11.4862 24.2623 11.1215 24.4118 10.847 24.6748C10.5724 24.9379 10.4084 25.295 10.3881 25.6738C10.3825 25.9253 10.4271 26.1754 10.5192 26.4096C10.6114 26.6438 10.7494 26.8575 10.9251 27.0382C11.2048 27.3643 11.554 27.6241 11.9473 27.7989C12.3406 27.9736 12.7681 28.0588 13.1987 28.0482C13.5466 28.0444 13.8933 28.0069 14.2339 27.9362C15.7258 27.5703 16.8141 26.6285 17.4688 25.1366C17.694 24.6212 17.7716 23.7516 17.7962 23.2891C18.6124 23.2038 19.4101 22.9916 20.1603 22.6604C21.7338 21.9402 22.2307 21.4326 22.6189 21.0254L22.7211 20.9198C23.0951 20.5333 23.077 20.1841 22.9955 19.951C22.9235 19.7538 22.776 19.5931 22.5853 19.5039ZM15.1345 16.131C15.1345 17.8316 15.1345 19.5258 15.1345 21.1942C13.4523 20.7059 12.3019 18.7322 12.3019 16.2212C12.3019 14.1663 12.8079 11.6462 15.1487 10.9763C15.1384 12.6872 15.1358 14.4123 15.1345 16.131Z" fill="white"/>
</svg>
