<svg width="228" height="145" viewBox="0 0 228 145" fill="none" xmlns="http://www.w3.org/2000/svg">
<g clip-path="url(#clip0_13477_24003)">
<path d="M125.545 51.5312H102.396V93.4618H125.545V51.5312Z" fill="#FF5F00"/>
<path d="M103.865 72.4987C103.861 68.4604 104.769 64.4743 106.52 60.842C108.27 57.2097 110.818 54.0265 113.969 51.5334C110.067 48.4412 105.379 46.5183 100.444 45.9843C95.5081 45.4504 90.5229 46.3269 86.0581 48.5137C81.5933 50.7006 77.8289 54.1095 75.1953 58.3509C72.5617 62.5923 71.165 67.495 71.165 72.4987C71.165 77.5023 72.5617 82.405 75.1953 86.6464C77.8289 90.8878 81.5933 94.2967 86.0581 96.4836C90.5229 98.6704 95.5081 99.547 100.444 99.013C105.379 98.479 110.067 96.5561 113.969 93.4639C110.818 90.9708 108.27 87.7875 106.52 84.1553C104.769 80.523 103.861 76.5369 103.865 72.4987Z" fill="#EB001B"/>
<path d="M156.77 72.4987C156.77 77.5022 155.373 82.4049 152.74 86.6463C150.106 90.8877 146.342 94.2967 141.877 96.4835C137.413 98.6704 132.428 99.547 127.492 99.013C122.556 98.479 117.869 96.5561 113.967 93.4639C117.116 90.9683 119.661 87.7845 121.411 84.1528C123.162 80.5211 124.071 76.5362 124.071 72.4987C124.071 68.4611 123.162 64.4762 121.411 60.8445C119.661 57.2128 117.116 54.0291 113.967 51.5334C117.869 48.4412 122.556 46.5183 127.492 45.9843C132.428 45.4504 137.413 46.3269 141.877 48.5138C146.342 50.7007 150.106 54.1096 152.74 58.351C155.373 62.5924 156.77 67.4951 156.77 72.4987Z" fill="#F79E1B"/>
<path d="M154.248 89.0214V88.1629H154.591V87.988H153.717V88.1629H154.06V89.0214H154.248ZM155.946 89.0214V87.9863H155.678L155.369 88.6982L155.061 87.9863H154.793V89.0214H154.982V88.2406L155.271 88.9137H155.468L155.757 88.2389V89.0214H155.946Z" fill="#F79E1B"/>
</g>
<defs>
<clipPath id="clip0_13477_24003">
<rect width="112" height="80" fill="white" transform="translate(58 32.5)"/>
</clipPath>
</defs>
</svg>
