<svg width="228" height="145" viewBox="0 0 228 145" fill="none" xmlns="http://www.w3.org/2000/svg">
<g clip-path="url(#clip0_13477_24024)">
<path d="M105.431 57.2305V81.3329H98.3457V57.2305H105.431Z" fill="black"/>
<path d="M130.648 75.4418H124.914V49.5039H113.009V55.3955H117.786V75.4418H111.898V81.3334H130.648V75.4418Z" fill="black"/>
<path d="M147.2 66.3845C143.569 65.6796 142.297 65.2427 142.297 64.0918C142.297 62.8126 143.835 62.1077 145.572 62.1077C147.779 62.1077 149.229 62.5829 149.873 64.7787H156.567C156.024 58.4074 150.794 56.7363 145.405 56.7363C139.304 56.7363 135.128 59.8173 135.128 64.3801C135.128 69.4204 138.824 70.6793 144.482 71.9023C147.722 72.6027 149.614 73.0576 149.614 74.526C149.614 75.9561 147.848 76.4561 146.137 76.4561C143.22 76.4561 141.166 75.4629 141.09 73.0261H134.419C134.541 78.9807 139.04 81.8274 146.168 81.8274C152.643 81.8274 156.74 78.8028 156.74 73.9337C156.74 69.8776 154.339 67.7696 147.2 66.3845Z" fill="black"/>
<path d="M80.5821 56.7363C75.1522 56.7363 69.8349 58.8083 69.5331 65.1706H76.4404C76.6543 62.9342 78.2759 62.1347 80.4515 62.1347C82.7239 62.1347 84.3905 63.0941 84.3905 65.4476V66.9115H79.465C71.9068 66.9115 68.5264 69.819 68.5264 74.3864C68.5264 78.8366 71.7875 81.8252 76.7489 81.8252C79.7623 81.8252 82.7509 80.7532 84.8296 78.983L85.2846 81.332H91.4757V65.8237C91.4757 59.8848 87.4353 56.7363 80.5821 56.7363ZM84.3905 73.9224C82.7261 75.1453 80.8411 76.1678 78.2196 76.1678C76.5125 76.1678 75.49 75.2399 75.49 74.0575C75.49 72.3887 76.9359 71.6613 79.456 71.6613H84.3927V73.9224H84.3905Z" fill="black"/>
<path d="M60.2952 57.2305C57.3832 57.2305 55.0905 58.4174 53.2077 60.2528L52.5996 57.2305H46.4873V81.3329H53.5725V66.4733C54.8495 64.7008 56.7818 63.7324 61.0699 63.7324H65.2949V57.2305H60.2952Z" fill="black"/>
<path d="M176.516 57.2305C173.604 57.2305 171.311 58.4174 169.428 60.2528L168.82 57.2305H162.708V81.3329H169.793V66.4733C171.07 64.7008 173.003 63.7324 177.291 63.7324H181.516V57.2305H176.516Z" fill="black"/>
<path d="M181.516 88.416V95.5013H46.4844V88.416H181.516Z" fill="#DC1982"/>
</g>
<defs>
<clipPath id="clip0_13477_24024">
<rect width="135.032" height="46" fill="white" transform="translate(46.4844 49.5)"/>
</clipPath>
</defs>
</svg>
