<svg width="228" height="145" viewBox="0 0 228 145" fill="none" xmlns="http://www.w3.org/2000/svg">
<path d="M86.8573 47.5H109.13C112.239 47.5 114.173 49.77 113.448 52.5642L103.078 92.4436C102.346 95.2281 99.2333 97.5 96.1221 97.5H73.8515C70.7468 97.5 68.8087 95.2281 69.534 92.4436L79.9079 52.5642C80.6332 49.77 83.7444 47.5 86.8573 47.5Z" fill="#E21836"/>
<path d="M107.279 47.5H132.892C136 47.5 134.599 49.77 133.867 52.5642L123.499 92.4436C122.772 95.2281 122.999 97.5 119.884 97.5H94.2708C91.1557 97.5 89.228 95.2281 89.9598 92.4436L100.327 52.5642C101.063 49.77 104.168 47.5 107.279 47.5Z" fill="#00447C"/>
<path d="M131.874 47.5H154.147C157.261 47.5 159.194 49.77 158.463 52.5642L148.095 92.4436C147.363 95.2281 144.248 97.5 141.135 97.5H118.873C115.758 97.5 113.826 95.2281 114.555 92.4436L124.925 52.5642C125.65 49.77 128.759 47.5 131.874 47.5Z" fill="#007B84"/>
<path d="M92.6756 60.2794C90.3851 60.3003 89.7087 60.2794 89.4926 60.2337C89.4096 60.5872 87.864 66.9736 87.8597 66.979C87.5269 68.271 87.2847 69.1921 86.4623 69.7868C85.9954 70.1325 85.4504 70.2993 84.8184 70.2993C83.8027 70.2993 83.211 69.8476 83.1116 68.9907L83.0926 68.6965C83.0926 68.6965 83.4021 66.9658 83.4021 66.9561C83.4021 66.9561 85.0242 61.1362 85.3146 60.3669C85.3298 60.3232 85.3342 60.3003 85.338 60.2794C82.1806 60.3042 81.6209 60.2794 81.5823 60.2337C81.5612 60.2964 81.483 60.6572 81.483 60.6572L79.8267 67.2168L79.6844 67.7731L79.4092 69.5928C79.4092 70.1325 79.5275 70.5731 79.7631 70.9456C80.5177 72.1268 82.6703 72.3038 83.8879 72.3038C85.4569 72.3038 86.9286 72.0052 87.9232 71.4601C89.6495 70.5464 90.1012 69.1181 90.504 67.8489L90.6908 67.1978C90.6908 67.1978 92.3618 61.1533 92.6457 60.3669C92.6565 60.3232 92.6609 60.3003 92.6756 60.2794ZM98.361 65.1556C97.9582 65.1556 97.222 65.2431 96.5608 65.5334C96.3208 65.6438 96.0939 65.7712 95.8545 65.8981L96.0706 65.1994L95.9522 65.0817C94.55 65.336 94.2362 65.37 92.9409 65.5334L92.8323 65.5981C92.6819 66.7151 92.5484 67.5549 91.9908 69.7505C91.7785 70.5597 91.5581 71.3767 91.3372 72.1839L91.3969 72.2865C92.7242 72.2238 93.1271 72.2238 94.2807 72.2408L94.3741 72.1499C94.5206 71.4773 94.5396 71.3198 94.8643 69.9577C95.0168 69.3119 95.335 67.8929 95.4918 67.3876C95.7801 67.268 96.0646 67.1503 96.336 67.1503C96.9826 67.1503 96.9039 67.6556 96.8789 67.8569C96.8512 68.1949 96.6156 69.2988 96.374 70.2465L96.2128 70.8583C96.1004 71.31 95.9772 71.7492 95.8648 72.197L95.9137 72.2865C97.222 72.2238 97.621 72.2238 98.7383 72.2408L98.8697 72.1499C99.0716 71.0995 99.1308 70.8184 99.4891 69.289L99.6693 68.5863C100.019 67.2111 100.195 66.5138 99.9304 65.9458C99.6503 65.3093 98.9782 65.1556 98.361 65.1556ZM104.712 66.5954C104.017 66.7151 103.573 66.7948 103.132 66.8464C102.695 66.9091 102.269 66.966 101.597 67.0496L101.544 67.0929L101.495 67.1274C101.425 67.5758 101.376 67.9634 101.283 68.419C101.205 68.8902 101.084 69.4256 100.887 70.1949C100.734 70.7838 100.655 70.989 100.568 71.1962C100.484 71.4034 100.39 71.6047 100.219 72.1838L100.259 72.2373L100.293 72.2864C100.921 72.2597 101.332 72.2407 101.754 72.2373C102.176 72.2237 102.613 72.2373 103.289 72.2407L103.349 72.1975L103.412 72.1498C103.51 71.6275 103.524 71.487 103.584 71.2322C103.643 70.9589 103.745 70.5806 103.996 69.5701C104.114 69.0954 104.246 68.6223 104.369 68.1379C104.496 67.6555 104.63 67.1804 104.757 66.7058L104.738 66.6484L104.712 66.5954ZM104.727 64.6541C104.095 64.32 102.986 64.426 102.24 64.8875C101.495 65.3397 101.411 65.9816 102.04 66.3201C102.661 66.6449 103.775 66.5482 104.515 66.0828C105.257 65.6208 105.35 64.9848 104.727 64.6541ZM108.549 72.3911C109.827 72.3911 111.138 72.0755 112.124 71.139C112.883 70.3794 113.231 69.2492 113.352 68.7839C113.744 67.2414 113.438 66.5212 113.055 66.0826C112.472 65.4139 111.441 65.1995 110.372 65.1995C109.729 65.1995 108.199 65.2563 107.003 66.244C106.144 66.9564 105.747 67.9231 105.507 68.85C105.266 69.7944 104.988 71.4944 106.733 72.1271C107.272 72.3343 108.048 72.3911 108.549 72.3911ZM108.449 68.9205C108.744 67.7525 109.092 66.7721 109.98 66.7721C110.676 66.7721 110.726 67.5015 110.417 68.6735C110.361 68.9336 110.107 69.9009 109.764 70.3128C109.524 70.6167 109.24 70.801 108.926 70.801C108.833 70.801 108.277 70.801 108.269 70.0623C108.264 69.6976 108.347 69.3251 108.449 68.9205ZM116.547 72.2409L116.647 72.15C116.789 71.4775 116.812 71.3194 117.126 69.9578C117.283 69.312 117.608 67.893 117.76 67.3878C118.049 67.2677 118.329 67.15 118.609 67.15C119.251 67.15 119.173 67.6552 119.147 67.8566C119.124 68.195 118.888 69.2984 118.642 70.2462L118.49 70.8579C118.373 71.3102 118.246 71.7488 118.134 72.1972L118.183 72.2866C119.495 72.2239 119.879 72.2239 121.003 72.2409L121.139 72.15C121.336 71.0991 121.389 70.8181 121.758 69.2892L121.934 68.586C122.286 67.2108 122.464 66.5139 122.203 65.946C121.915 65.3094 121.238 65.1557 120.63 65.1557C120.227 65.1557 119.487 65.2428 118.829 65.5336C118.594 65.644 118.359 65.7709 118.127 65.8983L118.329 65.1995L118.221 65.0813C116.819 65.3361 116.499 65.3702 115.205 65.5336L115.106 65.5983C114.949 66.7153 114.821 67.5546 114.264 69.7507C114.051 70.5598 113.831 71.3768 113.61 72.184L113.67 72.2866C114.999 72.2239 115.396 72.2239 116.547 72.2409ZM126.192 72.2864C126.275 71.9256 126.765 69.7869 126.769 69.7869C126.769 69.7869 127.187 68.2176 127.212 68.1607C127.212 68.1607 127.343 67.9974 127.475 67.9327H127.668C129.492 67.9327 131.551 67.9327 133.165 66.8692C134.263 66.1397 135.014 65.0626 135.349 63.7535C135.436 63.4326 135.5 63.0508 135.5 62.6691C135.5 62.1677 135.387 61.6717 135.063 61.2842C134.24 60.2527 132.601 60.2338 130.709 60.226C130.703 60.226 129.776 60.2338 129.776 60.2338C127.354 60.2605 126.383 60.2528 125.984 60.209C125.95 60.367 125.887 60.6481 125.887 60.6481C125.887 60.6481 125.019 64.2495 125.019 64.2554C125.019 64.2554 122.943 71.9124 122.846 72.2733C124.96 72.2504 125.827 72.2504 126.192 72.2864ZM127.799 65.8888C127.799 65.8888 128.722 62.2947 128.717 62.3083L128.747 62.124L128.76 61.9834L129.129 62.0175C129.129 62.0175 131.031 62.1639 131.076 62.1677C131.827 62.4279 132.136 63.0985 131.92 63.9738C131.723 64.7738 131.144 65.4463 130.399 65.7711C129.786 66.0464 129.036 66.0692 128.262 66.0692H127.761L127.799 65.8888ZM133.542 68.9871C133.299 69.9178 133.018 71.6179 134.755 72.2238C135.309 72.4349 135.805 72.4976 136.309 72.4747C136.842 72.449 137.335 72.2097 137.792 71.8654C137.751 72.0069 137.71 72.1484 137.669 72.2904L137.747 72.3814C138.997 72.3342 139.384 72.3342 140.738 72.3434L140.86 72.2598C141.058 71.2191 141.244 70.2086 141.758 68.2178C142.008 67.2642 142.258 66.3198 142.514 65.3701L142.474 65.2655C141.077 65.4975 140.703 65.5471 139.359 65.7178L139.257 65.7922C139.244 65.889 139.23 65.9818 139.216 66.0747C139.007 65.7723 138.705 65.514 138.237 65.3531C137.639 65.1425 136.236 65.4139 135.029 66.3981C134.181 67.1008 133.774 68.0636 133.542 68.9871ZM136.477 69.044C136.776 67.8968 137.12 66.9262 138.01 66.9262C138.573 66.9262 138.87 67.3916 138.809 68.1852C138.762 68.3831 138.71 68.5917 138.649 68.8276C138.56 69.1685 138.463 69.5064 138.369 69.8449C138.273 70.0764 138.162 70.2947 138.04 70.4401C137.811 70.7309 137.266 70.9113 136.952 70.9113C136.863 70.9113 136.314 70.9113 136.295 70.1858C136.29 69.8245 136.373 69.4525 136.477 69.044ZM151.803 65.2563L151.695 65.1459C150.312 65.3968 150.062 65.4367 148.792 65.5903L148.698 65.674C148.694 65.6876 148.69 65.7085 148.683 65.7275L148.679 65.7085C147.733 67.6629 147.761 67.2413 146.991 68.7799C146.987 68.7099 146.987 68.6661 146.983 68.5917L146.79 65.2563L146.669 65.1459C145.22 65.3968 145.186 65.4367 143.849 65.5903L143.744 65.674C143.73 65.7138 143.73 65.7576 143.721 65.8053L143.73 65.8223C143.897 66.5877 143.857 66.417 144.024 67.625C144.103 68.2177 144.207 68.8139 144.285 69.3994C144.417 70.3793 144.491 70.8617 144.652 72.357C143.749 73.6924 143.535 74.1976 142.665 75.3696L142.671 75.3812L142.059 76.2488C141.989 76.3402 141.925 76.4029 141.836 76.4297C141.738 76.4729 141.611 76.4807 141.435 76.4807H141.096L140.591 77.9833L142.321 78.0101C143.337 78.0062 143.976 77.5807 144.319 77.0088L145.407 75.3389H145.39L145.504 75.2212C146.236 73.81 151.803 65.2563 151.803 65.2563ZM133.542 84.991H132.808L135.525 76.9424H136.426L136.712 76.1133L136.74 77.0353C136.706 77.6053 137.207 78.1105 138.522 78.0269H140.042L140.565 76.4771H139.993C139.664 76.4771 139.512 76.4027 139.531 76.2432L139.503 75.3051H136.687V75.31C135.777 75.327 133.058 75.3883 132.508 75.5196C131.841 75.6732 131.139 76.1255 131.139 76.1255L131.415 75.2954H128.781L128.232 76.9424L125.479 85.114H124.945L124.421 86.6526H129.668L129.492 87.1657H132.077L132.249 86.6526H132.974L133.542 84.991ZM131.39 78.5778C130.968 78.6824 130.183 78.9994 130.183 78.9994L130.881 76.9424H132.974L132.469 78.4412C132.469 78.4412 131.822 78.4752 131.39 78.5778ZM131.43 81.5165C131.43 81.5165 130.772 81.5904 130.34 81.6779C129.914 81.7936 129.115 82.1584 129.115 82.1584L129.835 80.0177H131.939L131.43 81.5165ZM130.257 85.0099H128.158L128.767 83.2034H130.859L130.257 85.0099ZM135.313 80.0177H138.339L137.904 81.2792H134.838L134.378 82.6583H137.06L135.029 85.2205C134.887 85.4087 134.759 85.4753 134.617 85.5283C134.475 85.593 134.288 85.6689 134.072 85.6689H133.328L132.817 87.1793H134.763C135.775 87.1793 136.373 86.7669 136.814 86.2257L138.208 84.5178L138.507 86.2519C138.57 86.5768 138.831 86.7669 139.007 86.8408C139.202 86.9283 139.403 87.0786 139.688 87.101C139.993 87.1126 140.213 87.1219 140.36 87.1219H141.317L141.891 85.4316H141.514C141.297 85.4316 140.924 85.399 140.861 85.3382C140.797 85.2643 140.797 85.1505 140.763 84.9774L140.459 83.2394H139.217L139.762 82.6583H142.822L143.293 81.2792H140.459L140.901 80.0177H143.725L144.249 78.4621H135.828L135.313 80.0177ZM109.755 85.3612L110.461 83.2565H113.364L113.895 81.6912H110.989L111.433 80.3957H114.272L114.798 78.88H107.694L107.179 80.3957H108.793L108.362 81.6912H106.744L106.207 83.2833H107.821L106.879 86.0678C106.752 86.4364 106.939 86.5769 107.057 86.7481C107.179 86.9149 107.301 87.0253 107.577 87.088C107.861 87.1449 108.056 87.1789 108.321 87.1789H111.594L112.177 85.4448L110.726 85.6233C110.446 85.6233 109.67 85.5932 109.755 85.3612ZM110.088 75.2859L109.352 76.4768C109.195 76.737 109.053 76.8984 108.926 76.9728C108.813 77.0356 108.591 77.0618 108.268 77.0618H107.884L107.371 78.5854H108.646C109.259 78.5854 109.73 78.384 109.954 78.2834C110.196 78.1677 110.26 78.2338 110.446 78.0723L110.877 77.7383H114.857L115.385 76.152H112.472L112.98 75.2859H110.088ZM115.964 85.3918C115.896 85.3042 115.945 85.1501 116.049 84.8291L117.137 81.6036H121.007C121.571 81.5963 121.978 81.5905 122.243 81.5735C122.528 81.5467 122.837 81.4558 123.174 81.2924C123.522 81.1212 123.7 80.9408 123.851 80.7336C124.019 80.527 124.288 80.0747 124.519 79.3774L125.887 75.2955L121.87 75.3164C121.87 75.3164 120.634 75.4798 120.089 75.6602C119.54 75.8615 118.755 76.4237 118.755 76.4237L119.117 75.3047H116.636L113.163 85.6233C113.04 86.024 112.957 86.3148 112.938 86.4893C112.932 86.6775 113.203 86.8638 113.379 87.0043C113.587 87.1448 113.894 87.122 114.189 87.1448C114.499 87.1658 114.94 87.1789 115.549 87.1789H117.455L118.04 85.4088L116.334 85.5532C116.151 85.5532 116.019 85.4657 115.964 85.3918ZM117.839 79.425H121.904L121.646 80.1506C121.609 80.1676 121.522 80.1146 121.109 80.1584H117.589L117.839 79.425ZM118.653 76.9917H122.753L122.458 77.8655C122.458 77.8655 120.526 77.8485 120.216 77.8996C118.855 78.1106 118.059 78.7622 118.059 78.7622L118.653 76.9917ZM121.737 82.5802C121.703 82.6887 121.65 82.7548 121.575 82.8044C121.493 82.8521 121.359 82.8691 121.16 82.8691H120.581L120.615 81.9855H118.206L118.108 86.3052C118.104 86.6169 118.138 86.7973 118.392 86.9417C118.647 87.1221 119.432 87.145 120.487 87.145H121.997L122.542 85.5281L121.228 85.5928L120.791 85.6156C120.731 85.5928 120.674 85.5719 120.611 85.515C120.555 85.4658 120.462 85.496 120.477 85.1843L120.487 84.077L121.866 84.0259C122.61 84.0259 122.928 83.8091 123.2 83.6024C123.459 83.4045 123.543 83.1769 123.641 82.8691L123.872 81.8887H121.978L121.737 82.5802Z" fill="#FEFEFE"/>
</svg>
