<svg width="228" height="145" viewBox="0 0 228 145" fill="none" xmlns="http://www.w3.org/2000/svg">
<path d="M206.909 58.0035C200.019 58.0035 195.924 62.8999 195.924 68.8457C195.924 74.7897 200.019 79.6879 206.909 79.6879C213.8 79.6879 217.886 74.8226 217.886 68.8457C217.886 62.867 213.793 58.0035 206.909 58.0035ZM206.909 77.1011C201.977 77.1011 198.897 73.5344 198.897 68.8457C198.897 64.157 201.977 60.5902 206.909 60.5902C211.84 60.5902 214.915 64.1968 214.915 68.8457C214.915 73.4928 211.834 77.0994 206.909 77.0994V77.1011ZM109.54 60.5902C113.384 60.5902 116.114 63.2514 116.289 66.0148H119.16C118.983 61.9892 115.486 58.0017 109.682 58.0017C102.651 58.0017 98.6648 62.9328 98.6648 68.8768C98.6648 74.7204 102.439 79.6862 109.857 79.6862C114.296 79.6862 117.551 77.6535 119.16 75.6606L117.269 73.962C116.301 74.948 115.149 75.7336 113.877 76.2737C112.606 76.8138 111.24 77.0979 109.858 77.1098C104.297 77.1098 101.669 73.4686 101.669 68.889C101.669 63.9925 104.716 60.6006 109.54 60.6006M141.466 58.7047V67.4813C141.466 73.7422 137.724 77.1063 133.539 77.1063C130.08 77.1063 128.189 74.62 128.189 70.4576V58.7064H121.397V61.1529H125.313V71.1571C125.313 76.1211 128.144 79.6896 133.319 79.6896C137.345 79.6896 140.068 77.6223 141.433 74.6841V78.9867H144.304V58.7047H141.466ZM192.333 58.7047L184.973 76.0865L177.455 58.7047H171.845V61.1529H175.412L183.417 79.7225C182.227 82.6278 180.309 84.4112 177.897 84.4112C177.075 84.4477 176.257 84.278 175.518 83.9178V86.5392C176.414 86.8643 177.363 87.0198 178.316 86.998C181.775 86.998 184.152 84.9653 185.794 81.189L195.419 58.7047H192.333ZM157.776 62.3736V58.7064H149.171V61.1512H154.905V76.5401H149.169V78.9849H164.769V76.5401H157.774V67.0277C158.342 63.7033 161.268 60.63 164.875 60.63C166.153 60.5818 167.427 60.8079 168.611 61.2932V58.7064C167.649 58.219 166.581 57.977 165.503 58.0017C163.948 58.0058 162.421 58.41 161.067 59.1753C159.714 59.9407 158.58 61.0415 157.776 62.3719V62.3736ZM85.795 62.3736V58.7047H77.1829V61.1529H82.9191V76.5419H77.1829V78.9867H92.7814V76.5419H85.795V67.0277C86.3214 63.7033 89.2925 60.63 92.9285 60.63C94.1979 60.5848 95.4622 60.8109 96.6373 61.2932V58.7047C95.6604 58.2192 94.5801 57.9785 93.4895 58.0035C91.9418 58.0207 90.4239 58.4307 89.0781 59.1951C87.7322 59.9595 86.6026 61.0532 85.795 62.3736ZM46.5522 76.5401V66.2606C46.5522 61.6118 43.5793 58.0052 39.107 58.0052C34.6348 58.0052 32.4947 60.8361 31.4818 63.1008C31.0102 61.6044 30.0684 60.3002 28.7963 59.3818C27.5242 58.4635 25.9898 57.9801 24.4211 58.0035C20.4578 58.0035 18.3697 60.3149 17.2477 62.4169V58.7064H10.1143V61.1529H14.384V78.9867H17.2477V67.0623C17.5317 64.7197 19.5125 60.6335 23.8964 60.6335C27.0788 60.6335 29.0596 62.4169 29.0596 67.0987V78.9884H31.9251V66.9532C32.3095 64.6885 34.1898 60.63 38.5374 60.63C41.7527 60.63 43.6798 62.4134 43.6798 67.0952V78.9849H49.7986V76.5384H46.5539L46.5522 76.5401ZM73.7858 68.8457C73.7858 62.867 69.8659 58.0017 63.1202 58.0017C56.3711 58.0017 52.3109 62.9328 52.3109 68.8768C52.3109 74.9645 56.2292 79.6862 63.5046 79.6862C68.034 79.6862 71.2666 77.4838 72.5635 75.7679L70.6762 74.0694C68.9275 75.9601 66.5156 77.0821 63.3176 77.0821C58.7882 77.0821 55.7253 74.0694 55.3911 69.772H73.7443C73.7736 69.4635 73.7868 69.1538 73.7841 68.8439L73.7858 68.8457ZM55.4258 67.3393C55.9902 63.3761 58.9579 60.5902 63.1185 60.5902C65.0168 60.5225 66.869 61.1842 68.2948 62.4393C69.7206 63.6944 70.6117 65.4478 70.7853 67.3393H55.4258Z" fill="#0D0802"/>
</svg>
