<svg width="228" height="145" viewBox="0 0 228 145" fill="none" xmlns="http://www.w3.org/2000/svg">
<g clip-path="url(#clip0_13477_24066)">
<mask id="mask0_13477_24066" style="mask-type:alpha" maskUnits="userSpaceOnUse" x="28" y="56" width="172" height="32">
<path fill-rule="evenodd" clip-rule="evenodd" d="M28.6318 56.8848H199.815V87.9668H28.6318V56.8848Z" fill="white"/>
</mask>
<g mask="url(#mask0_13477_24066)">
<path fill-rule="evenodd" clip-rule="evenodd" d="M194.63 74.7795C194.027 71.8961 192.016 70.4968 189.646 70.4968C186.873 70.4968 184.984 72.0653 184.381 74.7795H194.63ZM184.463 79.0196C185.146 81.6914 187.034 83.0056 190.129 83.0056C192.098 83.0056 193.626 82.2845 194.63 80.8857L198.811 83.4296C196.842 86.4407 193.907 87.9668 190.048 87.9668C186.713 87.9668 184.061 86.9069 182.051 84.787C180.04 82.6666 179.036 79.995 179.036 76.7721C179.036 73.5917 180.04 70.9202 182.011 68.8003C183.98 66.6379 186.553 65.5775 189.648 65.5775C192.581 65.5775 195.033 66.6379 196.922 68.8003C198.851 70.9628 199.815 73.5917 199.815 76.7721C199.815 77.493 199.735 78.2141 199.614 79.0196H184.463ZM178.475 62.3551C175.62 62.1434 174.214 63.3304 174.214 65.9595V66.1719H178.475V71.43H174.214V87.3741H169.029V71.43H166.135V66.1719H169.029V65.9595C169.029 59.9804 172.203 56.7155 178.475 57.097V62.3551ZM152.993 82.7506C154.601 82.7506 155.927 82.1994 156.973 81.0969C158.057 79.9519 158.58 78.5098 158.58 76.7715C158.58 75.0332 158.057 73.5912 156.973 72.4894C155.927 71.3437 154.601 70.7924 152.993 70.7924C151.386 70.7924 150.06 71.3437 149.014 72.4894C147.97 73.5912 147.447 75.0332 147.447 76.7715C147.447 78.5098 147.97 79.9519 149.014 81.0969C150.06 82.1994 151.386 82.7506 152.993 82.7506ZM158.58 66.1714H163.765V87.3736H158.58V84.8716C157.013 86.9495 154.842 87.9668 152.029 87.9668C149.335 87.9668 147.045 86.9069 145.116 84.7445C143.226 82.5815 142.261 79.9104 142.261 76.7721C142.261 73.6344 143.226 71.0054 145.116 68.8429C147.045 66.68 149.335 65.5775 152.029 65.5775C154.842 65.5775 157.013 66.5954 158.58 68.6732V66.1714ZM133.732 74.5252C136.665 75.1609 140.482 76.6449 140.442 81.182C140.442 83.345 139.68 85.0407 138.112 86.2285C136.585 87.3734 134.656 87.9668 132.366 87.9668C128.225 87.9668 125.411 86.2709 123.924 82.921L128.426 80.2494C129.029 82.0728 130.315 83.0056 132.366 83.0056C134.213 83.0056 135.137 82.4123 135.137 81.182C135.137 80.0375 133.53 79.4012 131.48 78.8499C128.506 78.0444 124.769 76.7302 124.769 72.3195C124.769 70.2417 125.491 68.5881 126.939 67.4009C128.426 66.1714 130.235 65.5775 132.406 65.5775C135.66 65.5775 138.474 67.1892 140.041 70.072L135.62 72.6165C134.977 71.1745 133.891 70.4541 132.406 70.4541C131.08 70.4541 130.074 71.1325 130.074 72.1924C130.074 73.3375 131.681 73.9738 133.732 74.5252ZM115.524 87.3749H120.709V66.1728H115.524V87.3749ZM114.921 60.2769C114.921 58.4533 116.369 56.8848 118.096 56.8848C119.865 56.8848 121.311 58.4533 121.311 60.2769C121.311 62.1003 119.865 63.6269 118.096 63.6269C116.369 63.6269 114.921 62.1003 114.921 60.2769ZM101.9 82.7506C103.507 82.7506 104.834 82.1994 105.879 81.0969C106.963 79.9519 107.486 78.5098 107.486 76.7715C107.486 75.0332 106.963 73.5912 105.879 72.4894C104.834 71.3437 103.507 70.7924 101.9 70.7924C100.292 70.7924 98.9662 71.3437 97.9205 72.4894C96.876 73.5912 96.3533 75.0332 96.3533 76.7715C96.3533 78.5098 96.876 79.9519 97.9205 81.0969C98.9662 82.1994 100.292 82.7506 101.9 82.7506ZM109.777 68.8442C111.706 71.0066 112.671 73.6357 112.671 76.7733C112.671 79.9116 111.706 82.5827 109.777 84.7457C107.888 86.9081 105.557 87.9681 102.865 87.9681C100.051 87.9681 97.8809 86.9507 96.3538 84.8729V87.3748H91.1691V57.6916H96.3538V68.6745C97.8809 66.5966 100.051 65.5787 102.865 65.5787C105.557 65.5787 107.888 66.6812 109.777 68.8442ZM87.5523 74.3128V87.3734H82.3677V74.6942C82.3677 72.1504 81.1218 70.6658 78.9916 70.6658C76.62 70.6658 75.2537 72.3621 75.2537 75.4578V87.3734H70.0691V74.6942C70.0691 72.1504 68.8232 70.6658 66.693 70.6658C64.4018 70.6658 62.9152 72.3621 62.9152 75.4578V87.3734H57.7305V66.1714H62.9152V68.4188C64.1207 66.5101 65.9696 65.5775 68.5014 65.5775C70.9534 65.5775 72.8023 66.5954 73.9678 68.6305C75.2941 66.5954 77.3034 65.5775 79.9562 65.5775C84.5784 65.5775 87.5523 69.0121 87.5523 74.3128ZM38.0777 76.5603H45.7942L41.9358 64.4322L38.0777 76.5603ZM49.2093 87.3748L47.5218 82.0315H36.3084L34.6202 87.3748H28.6318L38.4784 57.6916H45.3511L55.2383 87.3748H49.2093Z" fill="#ED1C24"/>
</g>
</g>
<defs>
<clipPath id="clip0_13477_24066">
<rect width="173.037" height="32" fill="white" transform="translate(27.4814 56.5)"/>
</clipPath>
</defs>
</svg>
