<svg width="228" height="145" viewBox="0 0 228 145" fill="none" xmlns="http://www.w3.org/2000/svg">
<path d="M209.132 83.9858C209.168 84.0255 209.192 84.0754 209.202 84.1294C209.211 84.1834 209.205 84.2391 209.184 84.2896C209.164 84.3401 209.129 84.3832 209.085 84.4135C209.042 84.4438 208.99 84.4601 208.937 84.4603H203.022C202.986 84.4604 202.949 84.4525 202.916 84.4373C202.882 84.4221 202.852 84.3998 202.827 84.3719L194.964 75.7148L187.016 84.3733C186.991 84.4008 186.961 84.4227 186.927 84.4377C186.894 84.4526 186.858 84.4604 186.822 84.4603H180.905C180.853 84.4601 180.801 84.4438 180.757 84.4135C180.713 84.3832 180.679 84.3401 180.658 84.2896C180.638 84.2391 180.632 84.1834 180.641 84.1294C180.65 84.0754 180.675 84.0255 180.711 83.9858L191.548 72.1627L181.078 60.6738C181.041 60.634 181.017 60.5839 181.008 60.5298C180.998 60.4756 181.004 60.4199 181.025 60.3693C181.046 60.3188 181.081 60.2757 181.125 60.2455C181.169 60.2152 181.221 60.1992 181.273 60.1992H187.19C187.264 60.1992 187.335 60.2315 187.387 60.2877L194.907 68.6106L202.456 60.2877C202.481 60.2598 202.512 60.2376 202.546 60.2224C202.58 60.2072 202.616 60.1993 202.653 60.1992H208.569C208.622 60.1992 208.674 60.2152 208.718 60.2455C208.762 60.2757 208.797 60.3188 208.817 60.3693C208.838 60.4199 208.844 60.4756 208.835 60.5298C208.826 60.5839 208.801 60.634 208.765 60.6738L198.294 72.1627L209.132 83.9844V83.9858ZM153.055 84.4603C152.956 84.4603 152.861 84.4192 152.79 84.346C152.72 84.2728 152.68 84.1735 152.68 84.07V60.5895C152.68 60.3747 152.849 60.2006 153.055 60.2006H175.403C175.609 60.2006 175.777 60.3747 175.777 60.5895V63.9479C175.777 64.051 175.737 64.15 175.667 64.2229C175.597 64.2958 175.502 64.3368 175.403 64.3368H158.1V69.7436H168.474C168.68 69.7436 168.849 69.9191 168.849 70.1339V73.4923C168.848 73.5956 168.809 73.6945 168.739 73.7674C168.668 73.8403 168.573 73.8812 168.474 73.8812H158.1V79.9001H175.628C175.835 79.9001 176.003 80.0742 176.003 80.2891V84.07C176.003 84.1735 175.964 84.2728 175.893 84.346C175.823 84.4192 175.728 84.4603 175.628 84.4603H153.055ZM113.485 84.4603C113.385 84.46 113.29 84.4187 113.22 84.3455C113.15 84.2724 113.111 84.1733 113.111 84.07V60.5895C113.111 60.3747 113.278 60.2006 113.485 60.2006H118.155C118.363 60.2006 118.53 60.3747 118.53 60.5895V84.07C118.53 84.1735 118.49 84.2728 118.42 84.346C118.35 84.4192 118.254 84.4603 118.155 84.4603H113.485ZM86.9158 84.4603C86.8166 84.46 86.7216 84.4187 86.6516 84.3455C86.5815 84.2724 86.5422 84.1733 86.5422 84.07V60.5895C86.5422 60.3747 86.7095 60.2006 86.9158 60.2006H108.992C109.199 60.2006 109.366 60.3747 109.366 60.5895V64.042C109.366 64.145 109.326 64.2437 109.256 64.3166C109.186 64.3894 109.091 64.4305 108.992 64.4309H91.9609V70.8261H101.386C101.593 70.8261 101.761 71.0002 101.761 71.215V74.8556C101.761 74.9588 101.721 75.0578 101.651 75.1307C101.581 75.2036 101.486 75.2445 101.386 75.2445H91.9609V84.07C91.9609 84.1735 91.9214 84.2728 91.8511 84.346C91.7808 84.4192 91.6854 84.4603 91.586 84.4603H86.9158ZM72.4237 64.5249V84.07C72.4237 84.1733 72.3844 84.2724 72.3144 84.3455C72.2444 84.4187 72.1493 84.46 72.0501 84.4603H67.3799C67.2805 84.4603 67.1851 84.4192 67.1148 84.346C67.0445 84.2728 67.005 84.1735 67.005 84.07V64.5263H57.051C56.9516 64.5263 56.8562 64.4852 56.7859 64.412C56.7156 64.3388 56.6761 64.2396 56.6761 64.136V60.5895C56.6761 60.3747 56.8433 60.2006 57.051 60.2006H82.4236C82.6299 60.2006 82.7972 60.3747 82.7972 60.5895V64.136C82.7968 64.2391 82.7573 64.3378 82.6874 64.4106C82.6174 64.4835 82.5226 64.5246 82.4236 64.5249H72.4237ZM47.8872 84.4603C47.788 84.46 47.693 84.4187 47.623 84.3455C47.553 84.2724 47.5137 84.1733 47.5137 84.07V60.5895C47.5137 60.3747 47.6809 60.2006 47.8872 60.2006H52.5574C52.7651 60.2006 52.9324 60.3747 52.9324 60.5895V84.07C52.9324 84.1735 52.8929 84.2728 52.8225 84.346C52.7522 84.4192 52.6569 84.4603 52.5574 84.4603H47.8872Z" fill="#172D3E"/>
<path fill-rule="evenodd" clip-rule="evenodd" d="M18.3887 60.5881C18.3887 60.3733 18.5559 60.1992 18.7636 60.1992H38.7202C40.0108 60.1996 41.2484 60.7336 42.1609 61.6838C43.0734 62.634 43.586 63.9226 43.586 65.2663V66.8851C43.5861 67.5506 43.4604 68.2096 43.2159 68.8246C42.9713 69.4395 42.6129 69.9982 42.1609 70.4689C41.7089 70.9396 41.1723 71.3129 40.5817 71.5677C39.9911 71.8224 39.3581 71.9535 38.7189 71.9535H38.9009C40.1916 71.9535 41.4295 72.4871 42.3425 73.437C43.2554 74.3869 43.7687 75.6754 43.7694 77.0191V79.3919C43.7694 80.0574 43.6434 80.7164 43.3988 81.3313C43.1541 81.9461 42.7954 82.5048 42.3434 82.9753C41.8913 83.4459 41.3546 83.8191 40.7639 84.0736C40.1732 84.3282 39.5402 84.4591 38.9009 84.4589H18.7636C18.6642 84.4589 18.5688 84.4178 18.4985 84.3446C18.4282 84.2714 18.3887 84.1721 18.3887 84.0686V60.5881ZM23.7143 64.1487H36.3278C37.5685 64.1487 38.5746 65.1961 38.5746 66.4877V67.5927C38.5746 68.8844 37.5685 69.9303 36.3278 69.9303H23.7143V64.1487ZM23.7143 73.9247H36.4626C37.7034 73.9247 38.7094 74.9721 38.7094 76.2638V77.7478C38.7094 79.0395 37.7034 80.0855 36.4626 80.0855H23.7157V73.9247H23.7143Z" fill="#172D3E"/>
<path d="M122.28 84.0686V60.5881C122.28 60.3733 122.447 60.1992 122.655 60.1992H125.842C125.934 60.1992 126.021 60.2329 126.09 60.2975L144.067 76.8619V60.5895C144.067 60.3733 144.234 60.1992 144.441 60.1992H148.57C148.776 60.1992 148.943 60.3733 148.943 60.5881V84.0686C148.943 84.1719 148.904 84.271 148.834 84.3441C148.764 84.4173 148.669 84.4586 148.57 84.4589H145.383C145.292 84.4588 145.203 84.4238 145.135 84.3606L127.158 67.7513V84.0686C127.158 84.1721 127.119 84.2714 127.048 84.3446C126.978 84.4178 126.883 84.4589 126.783 84.4589H122.657C122.557 84.4589 122.462 84.4178 122.391 84.3446C122.321 84.2714 122.282 84.1721 122.282 84.0686H122.28Z" fill="#172D3E"/>
</svg>
