<svg width="96" height="96" viewBox="0 0 96 96" fill="none" xmlns="http://www.w3.org/2000/svg">
<rect width="96" height="96" rx="12" fill=""/>
<g clip-path="url(#clip0_13480_24563)">
<path d="M62.3336 28.9551H33.6674C31.0324 28.9551 28.8896 31.0905 28.8896 33.7164V62.2846C28.8896 64.9104 31.0324 67.0459 33.6674 67.0459H48.0005V53.9522H43.2228V48.0005H48.0005V43.2391C48.0005 39.2944 51.2087 36.0971 55.167 36.0971H59.9447V42.0488H57.5559C56.2372 42.0488 55.167 41.925 55.167 43.2391V48.0005H61.1392L58.7503 53.9522H55.167V67.0459H62.3336C64.9685 67.0459 67.1113 64.9104 67.1113 62.2846V33.7164C67.1113 31.0905 64.9685 28.9551 62.3336 28.9551Z" fill="white"/>
</g>
<defs>
<clipPath id="clip0_13480_24563">
<rect width="38.2217" height="38.0908" fill="white" transform="translate(28.8896 28.9551)"/>
</clipPath>
</defs>
</svg>
