<svg width="96" height="96" viewBox="0 0 96 96" fill="none" xmlns="http://www.w3.org/2000/svg">
<rect width="96" height="96" rx="12" fill=""/>
<g clip-path="url(#clip0_13480_24528)">
<path d="M42.8262 56.9062V64.2673C42.8262 64.7815 43.1574 65.237 43.6479 65.3989C43.7706 65.4386 43.8964 65.4576 44.0206 65.4576C44.3933 65.4576 44.7532 65.2831 44.9825 64.972L49.3031 59.1123L42.8262 56.9062Z" fill="white"/>
<path d="M66.6097 29.1758C66.2434 28.9171 65.7625 28.8822 65.3643 29.0901L29.5315 47.7388C29.1079 47.9594 28.8579 48.4101 28.8929 48.8847C28.9295 49.3608 29.2465 49.7671 29.6972 49.9211L39.6587 53.3143L60.8733 35.237L44.4571 54.9475L61.152 60.6341C61.2762 60.6754 61.4068 60.6976 61.5374 60.6976C61.754 60.6976 61.969 60.6389 62.1585 60.5246C62.4611 60.3405 62.6665 60.031 62.7191 59.6834L67.0986 30.3217C67.1639 29.8773 66.976 29.4361 66.6097 29.1758Z" fill="white"/>
</g>
<defs>
<clipPath id="clip0_13480_24528">
<rect width="38.2217" height="38.0908" fill="white" transform="translate(28.8896 28.9551)"/>
</clipPath>
</defs>
</svg>
