<svg width="96" height="96" viewBox="0 0 96 96" fill="none" xmlns="http://www.w3.org/2000/svg">
<rect width="96" height="96" rx="12" fill=""/>
<g clip-path="url(#clip0_13480_24568)">
<path d="M60.727 48.9405C59.839 47.7962 58.4991 47.0102 56.7072 46.583C58.989 45.423 59.9918 43.4543 59.7165 40.6765C59.6245 39.6692 59.3451 38.7962 58.8778 38.0563C58.4102 37.3161 57.7792 36.7211 56.9824 36.271C56.1862 35.8203 55.3203 35.4772 54.3867 35.2407C53.4527 35.0042 52.3805 34.8325 51.1707 34.7257V28.957H47.6337V34.5655C47.0212 34.5655 46.0871 34.5807 44.8315 34.6112V28.957H41.294V34.7257C40.7885 34.741 40.0459 34.7488 39.0659 34.7488L34.1963 34.7257V38.48H36.7458C37.9096 38.48 38.5911 38.999 38.7901 40.0366V46.6066C38.9435 46.6066 39.0659 46.6145 39.1578 46.6297H38.7901V55.8317C38.6678 56.6099 38.2237 56.9993 37.458 56.9993H34.9086L34.1964 61.1886H38.7905C39.0815 61.1886 39.5024 61.1924 40.0539 61.1993C40.6051 61.207 41.0184 61.2109 41.2941 61.2109V67.0481H44.8322V61.2795C45.4752 61.2951 46.4093 61.3026 47.6344 61.3026V67.0481H51.1715V61.2109C52.4275 61.1499 53.5415 61.0361 54.5134 60.8676C55.4859 60.6992 56.4164 60.4363 57.3044 60.0775C58.1923 59.7191 58.9349 59.2724 59.532 58.7382C60.1295 58.2046 60.6229 57.5251 61.0141 56.7009C61.4039 55.8766 61.6531 54.9228 61.7599 53.8391C61.9599 51.7183 61.6151 50.0853 60.727 48.9405ZM44.9003 38.7311C45.0076 38.7311 45.31 38.7273 45.8077 38.7196C46.3056 38.7117 46.7189 38.7042 47.0481 38.6965C47.3774 38.689 47.8215 38.7081 48.3807 38.7538C48.9396 38.7996 49.4104 38.8608 49.7931 38.937C50.1758 39.0131 50.5973 39.1391 51.0563 39.3146C51.5161 39.49 51.8834 39.7037 52.1587 39.9555C52.4346 40.2072 52.6681 40.5279 52.8591 40.9171C53.0508 41.3062 53.1465 41.7525 53.1465 42.256C53.1465 42.6834 53.0777 43.0727 52.9401 43.4238C52.8027 43.7748 52.5954 44.0686 52.3201 44.3052C52.0447 44.5418 51.7609 44.748 51.4699 44.9233C51.1792 45.0987 50.8075 45.24 50.3559 45.3467C49.9044 45.4536 49.5101 45.5375 49.1734 45.5985C48.8364 45.6595 48.4154 45.7016 47.91 45.7244C47.4045 45.7472 47.0216 45.7627 46.7614 45.7703C46.5009 45.7778 46.145 45.7778 45.6931 45.7703C45.2411 45.7627 44.9773 45.7587 44.9005 45.7587V38.7311H44.9003V38.7311ZM54.5596 54.3201C54.4138 54.6712 54.2265 54.9766 53.9969 55.2363C53.767 55.4952 53.4644 55.7244 53.0894 55.9225C52.7145 56.1212 52.3504 56.2812 51.9985 56.4033C51.6461 56.5259 51.221 56.6321 50.7238 56.724C50.2255 56.8156 49.7893 56.8801 49.4138 56.9185C49.0388 56.9567 48.5911 56.9871 48.0702 57.0102C47.5497 57.0327 47.1437 57.0443 46.8528 57.0443C46.5618 57.0443 46.1943 57.0401 45.7501 57.0327C45.3058 57.0255 45.0228 57.0217 44.9001 57.0217V49.284C45.0225 49.284 45.3862 49.2766 45.9913 49.261C46.5964 49.2456 47.0899 49.2385 47.4728 49.2385C47.8556 49.2385 48.3841 49.261 49.0582 49.3071C49.7316 49.3526 50.2982 49.421 50.758 49.5125C51.2172 49.6043 51.7184 49.7452 52.2624 49.9362C52.8059 50.1269 53.2464 50.3595 53.5834 50.6342C53.9203 50.9094 54.2035 51.2599 54.4331 51.6873C54.6632 52.1145 54.7781 52.603 54.7781 53.1525C54.778 53.5802 54.7053 53.9688 54.5596 54.3201Z" fill="white"/>
</g>
<defs>
<clipPath id="clip0_13480_24568">
<rect width="38.2217" height="38.0908" fill="white" transform="translate(28.8896 28.9551)"/>
</clipPath>
</defs>
</svg>
