<svg width="96" height="96" viewBox="0 0 96 96" fill="none" xmlns="http://www.w3.org/2000/svg">
<rect width="96" height="96" rx="12" fill=""/>
<g clip-path="url(#clip0_13480_24552)">
<path d="M37.436 40.8594H28.8887V67.0468H37.436V40.8594Z" fill="white"/>
<path d="M60.7149 41.1665C60.6241 41.1379 60.5381 41.107 60.4426 41.0808C60.3279 41.0546 60.2132 41.0332 60.0962 41.0141C59.6423 40.9237 59.1454 40.8594 58.5625 40.8594C53.5794 40.8594 50.4189 44.4709 49.3774 45.8659V40.8594H40.8301V67.0468H49.3774V52.7628C49.3774 52.7628 55.8369 43.7971 58.5625 50.3821C58.5625 56.26 58.5625 67.0468 58.5625 67.0468H67.1075V49.3751C67.1075 45.4184 64.3866 42.1211 60.7149 41.1665Z" fill="white"/>
<path d="M33.0701 37.2874C35.379 37.2874 37.2506 35.4222 37.2506 33.1213C37.2506 30.8203 35.379 28.9551 33.0701 28.9551C30.7613 28.9551 28.8896 30.8203 28.8896 33.1213C28.8896 35.4222 30.7613 37.2874 33.0701 37.2874Z" fill="white"/>
</g>
<defs>
<clipPath id="clip0_13480_24552">
<rect width="38.2217" height="38.0908" fill="white" transform="translate(28.8896 28.9551)"/>
</clipPath>
</defs>
</svg>
