<svg width="61" height="60" viewBox="0 0 61 60" fill="none" xmlns="http://www.w3.org/2000/svg">
<rect x="0.200195" width="60" height="60" rx="8" fill="#05C3DE"/>
<path d="M48.3543 29.2716L39.1176 15.4181C38.8778 15.0588 38.5531 14.7641 38.1722 14.5604C37.7912 14.3566 37.3659 14.25 36.9339 14.25H23.4726C23.0406 14.25 22.6153 14.3566 22.2343 14.5604C21.8534 14.7641 21.5287 15.0588 21.2889 15.4181L12.0522 29.2716C11.9482 29.4276 11.8789 29.6041 11.8489 29.7892C11.8189 29.9743 11.8289 30.1636 11.8783 30.3445L15.5516 43.8157C15.7028 44.37 16.0317 44.8594 16.4878 45.2088C16.9439 45.5582 17.502 45.7483 18.0766 45.75H22.3241C23.0203 45.75 23.688 45.4734 24.1803 44.9812C24.6726 44.4889 24.9491 43.8212 24.9491 43.125V40.5H35.4491V43.125C35.4491 43.8212 35.7257 44.4889 36.218 44.9812C36.7103 45.4734 37.3779 45.75 38.0741 45.75H42.3217C42.8977 45.7501 43.4577 45.5608 43.9154 45.2113C44.3732 44.8618 44.7033 44.3714 44.8548 43.8157L48.5282 30.3445C48.5775 30.1636 48.5875 29.9743 48.5575 29.7892C48.5275 29.6041 48.4582 29.4276 48.3543 29.2716ZM22.3241 43.125H18.0766L14.5607 30.2313L19.6991 22.522V37.875C19.6991 38.5712 19.9757 39.2389 20.468 39.7312C20.9603 40.2234 21.6279 40.5 22.3241 40.5V43.125ZM28.8866 31.3125C28.8866 31.6606 28.7484 31.9944 28.5022 32.2406C28.2561 32.4867 27.9222 32.625 27.5741 32.625C27.226 32.625 26.8922 32.4867 26.6461 32.2406C26.3999 31.9944 26.2616 31.6606 26.2616 31.3125V24.563C26.2616 24.2149 26.3999 23.881 26.6461 23.6349C26.8922 23.3888 27.226 23.2505 27.5741 23.2505C27.9222 23.2505 28.2561 23.3888 28.5022 23.6349C28.7484 23.881 28.8866 24.2149 28.8866 24.563V31.3125ZM34.1366 30C34.1366 30.3481 33.9984 30.6819 33.7522 30.9281C33.5061 31.1742 33.1722 31.3125 32.8241 31.3125C32.476 31.3125 32.1422 31.1742 31.8961 30.9281C31.6499 30.6819 31.5116 30.3481 31.5116 30V24.563C31.5116 24.2149 31.6499 23.881 31.8961 23.6349C32.1422 23.3888 32.476 23.2505 32.8241 23.2505C33.1722 23.2505 33.5061 23.3888 33.7522 23.6349C33.9984 23.881 34.1366 24.2149 34.1366 24.563V30ZM30.1991 21.9265L22.8836 17.7462L23.4726 16.875H36.9421L37.5229 17.7462L30.1991 21.9265ZM42.3217 43.125H38.0741V40.5C38.7703 40.5 39.438 40.2234 39.9303 39.7312C40.4226 39.2389 40.6991 38.5712 40.6991 37.875V22.522L45.8376 30.233L42.3217 43.125Z" fill="white"/>
</svg>
