<svg width="228" height="145" viewBox="0 0 228 145" fill="none" xmlns="http://www.w3.org/2000/svg">
<g clip-path="url(#clip0_13477_24015)">
<mask id="mask0_13477_24015" style="mask-type:luminance" maskUnits="userSpaceOnUse" x="28" y="55" width="171" height="35">
<path d="M28.542 55.502H198.77V89.0898H28.542V55.502Z" fill="white"/>
</mask>
<g mask="url(#mask0_13477_24015)">
<path d="M178.823 89.0532H173.492V76.5246C173.492 73.1253 171.361 70.4295 167.838 70.4295C164.224 70.4295 162.092 73.1387 162.092 76.5246V89.0532H156.759V76.4819C156.759 69.6844 161.116 65.3079 167.837 65.3079C174.51 65.3079 178.822 69.6844 178.822 76.4819L178.823 89.052V89.0532ZM136.452 68.0684C134.674 66.2606 132.168 65.3054 129.205 65.3054C127.723 65.2871 126.25 65.5595 124.87 66.1043C123.735 66.5611 122.705 67.2488 121.846 68.1246C120.997 67.25 119.976 66.5621 118.848 66.1043C117.479 65.5583 116.016 65.2871 114.544 65.3054C111.559 65.3054 109.034 66.2606 107.241 68.0684C105.447 69.8762 104.498 72.4315 104.498 75.4387V89.0459H109.825V75.479C109.825 74.0719 110.269 72.8004 111.073 71.9014C111.916 70.9535 113.122 70.4527 114.544 70.4527C115.851 70.4527 116.98 70.9047 117.808 71.7585C118.59 72.5646 119.073 73.7177 119.157 75.0027V75.44V89.0471H124.509V75.44V75.0051C124.604 73.6969 125.076 72.5744 125.876 71.7597C126.719 70.9132 127.868 70.4539 129.211 70.4539C130.596 70.4539 131.771 70.9621 132.609 71.9026C133.407 72.8065 133.849 74.0768 133.849 75.4815V89.0471H139.176V75.4387C139.176 72.4254 138.236 69.875 136.459 68.0696M86.9582 55.5276H81.6228V89.0593H86.9582V55.5276ZM98.3878 62.6133H93.0584V55.5288H98.389L98.3878 62.6133ZM98.3878 65.9198V89.0972L93.0572 89.0618V65.9125L98.3878 65.9198ZM150.626 62.6121H145.294V55.5276H150.626V62.6121ZM150.626 89.0605H145.294V65.9113H150.626V89.0593V89.0605ZM198.771 71.127H189.41V81.8368C189.41 83.0949 190.15 83.84 191.495 83.84H198.771V89.0544H190.429C186.443 89.0544 184.078 86.7263 184.078 82.7688V55.5227H189.41V65.9125H198.771V71.127ZM28.542 55.502H33.8726V68.0305C33.8726 71.4299 36.0041 74.1257 39.5266 74.1257C43.1415 74.1257 45.273 71.4164 45.273 68.0305V55.502H50.6036V68.0745C50.6036 74.872 46.2469 79.2485 39.5266 79.2485C32.8536 79.2485 28.542 74.872 28.542 68.0745V55.502ZM75.5748 89.0544H70.2442V76.5258C70.2442 73.1265 68.1127 70.4307 64.5902 70.4307C60.9753 70.4307 58.8438 73.1399 58.8438 76.5258V89.0544H53.512V76.4819C53.512 69.6844 57.8686 65.3079 64.589 65.3079C71.2632 65.3079 75.5736 69.6844 75.5736 76.4819L75.5748 89.0544Z" fill="black"/>
</g>
</g>
<defs>
<clipPath id="clip0_13477_24015">
<rect width="170.919" height="34" fill="white" transform="translate(28.54 55.5)"/>
</clipPath>
</defs>
</svg>
