<svg width="228" height="145" viewBox="0 0 228 145" fill="none" xmlns="http://www.w3.org/2000/svg">
<g clip-path="url(#clip0_13477_24044)">
<path d="M42.6895 47.4962H28.0955C27.0967 47.4962 26.2475 48.222 26.0916 49.2082L20.1892 86.6311C20.0718 87.3692 20.6438 88.0352 21.3927 88.0352H28.3601C29.3587 88.0352 30.208 87.3097 30.3638 86.3217L31.9557 76.2283C32.1094 75.24 32.9608 74.5144 33.9573 74.5144H38.5773C48.1907 74.5144 53.7389 69.8624 55.188 60.6437C55.8409 56.6105 55.2157 53.4417 53.3271 51.2224C51.2529 48.7852 47.574 47.4962 42.6895 47.4962ZM44.3732 61.1645C43.5751 66.4012 39.5739 66.4012 35.705 66.4012H33.5029L35.0478 56.6214C35.1396 56.0302 35.6517 55.5949 36.2493 55.5949H37.2585C39.8939 55.5949 42.3801 55.5949 43.6646 57.097C44.4308 57.9934 44.6656 59.3249 44.3732 61.1645Z" fill="#283B82"/>
<path d="M86.3181 60.9997H79.3297C78.7344 60.9997 78.2202 61.435 78.128 62.0262L77.819 63.9809L77.3302 63.2723C75.8173 61.0764 72.4433 60.3425 69.076 60.3425C61.3533 60.3425 54.7573 66.1916 53.4727 74.3966C52.8049 78.4895 53.7544 82.4032 56.0761 85.1324C58.2058 87.6419 61.253 88.6875 64.8788 88.6875C71.1013 88.6875 74.5519 84.6866 74.5519 84.6866L74.2403 86.6285C74.1227 87.3711 74.6948 88.0368 75.4397 88.0368H81.7344C82.7353 88.0368 83.5804 87.3112 83.7384 86.3234L87.5154 62.4038C87.6351 61.6676 87.0652 60.9997 86.3181 60.9997ZM76.5768 74.6015C75.9028 78.594 72.7336 81.2745 68.6922 81.2745C66.6628 81.2745 65.0408 80.6235 63.9994 79.39C62.9666 78.1651 62.5739 76.4217 62.9026 74.4798C63.5321 70.5213 66.7545 67.7537 70.734 67.7537C72.7189 67.7537 74.332 68.4131 75.3947 69.657C76.4597 70.9139 76.8818 72.668 76.5768 74.6015Z" fill="#283B82"/>
<path d="M123.535 61.0009H116.513C115.843 61.0009 115.213 61.3338 114.833 61.8908L105.147 76.1584L101.042 62.4477C100.783 61.5898 99.9918 61.0009 99.0956 61.0009H92.1944C91.3556 61.0009 90.7732 61.8202 91.0399 62.6098L98.7754 85.3107L91.503 95.5773C90.9309 96.3858 91.507 97.498 92.4954 97.498H99.5096C100.175 97.498 100.799 97.1735 101.176 96.6272L124.534 62.9109C125.093 62.1041 124.519 61.0009 123.535 61.0009Z" fill="#283B82"/>
<path d="M146.773 47.4962H132.177C131.181 47.4962 130.331 48.222 130.176 49.2082L124.273 86.6311C124.156 87.3692 124.728 88.0352 125.473 88.0352H132.963C133.658 88.0352 134.254 87.5275 134.363 86.836L136.037 76.2283C136.191 75.24 137.043 74.5144 138.039 74.5144H142.657C152.273 74.5144 157.819 69.8624 159.27 60.6437C159.925 56.6105 159.296 53.4417 157.407 51.2224C155.335 48.7852 151.658 47.4962 146.773 47.4962ZM148.457 61.1645C147.661 66.4012 143.66 66.4012 139.789 66.4012H137.589L139.136 56.6214C139.228 56.0302 139.736 55.5949 140.335 55.5949H141.345C143.978 55.5949 146.466 55.5949 147.751 57.097C148.517 57.9934 148.749 59.3249 148.457 61.1645Z" fill="#469BDB"/>
<path d="M190.408 60.9997H183.424C182.824 60.9997 182.314 61.435 182.224 62.0262L181.915 63.9809L181.424 63.2723C179.911 61.0764 176.539 60.3425 173.172 60.3425C165.449 60.3425 158.856 66.1916 157.571 74.3966C156.905 78.4895 157.85 82.4032 160.172 85.1324C162.306 87.6419 165.349 88.6875 168.974 88.6875C175.197 88.6875 178.648 84.6866 178.648 84.6866L178.336 86.6285C178.219 87.3711 178.791 88.0368 179.54 88.0368H185.833C186.829 88.0368 187.679 87.3112 187.835 86.3234L191.614 62.4038C191.729 61.6676 191.157 60.9997 190.408 60.9997ZM180.666 74.6015C179.996 78.594 176.823 81.2745 172.782 81.2745C170.756 81.2745 169.13 80.6235 168.089 79.39C167.056 78.1651 166.668 76.4217 166.992 74.4798C167.626 70.5213 170.844 67.7537 174.824 67.7537C176.808 67.7537 178.421 68.4131 179.484 69.657C180.553 70.9139 180.976 72.668 180.666 74.6015Z" fill="#469BDB"/>
<path d="M198.654 48.523L192.664 86.6311C192.547 87.3692 193.118 88.0352 193.863 88.0352H199.885C200.886 88.0352 201.735 87.3097 201.889 86.3217L207.795 48.901C207.913 48.1623 207.341 47.4945 206.596 47.4945H199.853C199.258 47.4962 198.746 47.9321 198.654 48.523Z" fill="#469BDB"/>
</g>
<defs>
<clipPath id="clip0_13477_24044">
<rect width="187.631" height="50" fill="white" transform="translate(20.1846 47.5)"/>
</clipPath>
</defs>
</svg>
