<svg width="228" height="145" viewBox="0 0 228 145" fill="none" xmlns="http://www.w3.org/2000/svg">
<path d="M46.8828 66.5816L42.9365 58.575C41.2645 55.1721 39.2809 53.8459 35.878 53.8459H23.471C23.1257 53.8183 22.7786 53.867 22.4542 53.9885C22.1298 54.11 21.8361 54.3013 21.5938 54.5489C21.3483 54.7974 21.1593 55.096 21.0396 55.4242C20.9199 55.7524 20.8724 56.1025 20.9003 56.4508V87.2707C20.8741 87.6185 20.9224 87.9679 21.042 88.2955C21.1616 88.6232 21.3497 88.9216 21.5938 89.1707C21.837 89.4163 22.1307 89.606 22.4545 89.7267C22.7783 89.8475 23.1246 89.8963 23.4691 89.8699H35.4619C39.2144 89.8699 41.2797 88.6197 42.8396 85.4182L46.917 77.1399C47.7682 75.5629 48.228 73.7978 48.2584 72.0004C48.271 70.1062 47.7974 68.2404 46.8828 66.5816ZM35.5189 84.6601H26.0379V59.0557H35.4733C37.2213 59.0557 37.4873 59.0557 38.329 60.7923L42.0283 68.4626L42.1993 68.816C42.7769 69.7926 43.0923 70.9041 43.1189 72.0403C43.0786 73.0296 42.7961 73.9938 42.2962 74.8485L38.3518 82.9501C37.626 84.4682 37.3182 84.6601 35.5189 84.6601ZM84.7289 74.3241C84.4059 74.4457 84.0601 74.4951 83.7162 74.4666H67.9538V84.662H83.7162C84.0615 84.6344 84.4087 84.6831 84.7331 84.8046C85.0574 84.9261 85.3512 85.1174 85.5934 85.365C85.8395 85.6142 86.0287 85.9138 86.148 86.2431C86.2674 86.5723 86.3142 86.9235 86.285 87.2726C86.3115 87.6204 86.2634 87.9699 86.1438 88.2976C86.0242 88.6253 85.8359 88.9236 85.5915 89.1726C85.3483 89.418 85.0546 89.6077 84.7308 89.7284C84.407 89.8492 84.0608 89.8981 83.7162 89.8718H65.385C65.0403 89.8999 64.6936 89.8518 64.3695 89.731C64.0454 89.6102 63.7519 89.4195 63.5097 89.1726C63.2643 88.9244 63.0753 88.6262 62.9556 88.2983C62.8359 87.9704 62.7884 87.6205 62.8162 87.2726V71.8674C62.7881 71.5187 62.835 71.1681 62.9536 70.8391C63.0723 70.5101 63.2599 70.2102 63.504 69.9598C63.7475 69.7127 64.042 69.5218 64.3669 69.4004C64.6918 69.279 65.0392 69.23 65.385 69.2568H83.7162C84.0616 69.2287 84.4089 69.2772 84.7333 69.3987C85.0578 69.5202 85.3515 69.7118 85.5934 69.9598C85.8388 70.2083 86.0276 70.5069 86.147 70.8352C86.2664 71.1634 86.3134 71.5136 86.285 71.8617C86.3112 72.2098 86.2629 72.5594 86.1433 72.8874C86.0237 73.2153 85.8356 73.514 85.5915 73.7636C85.3464 74.0106 85.0538 74.2006 84.7289 74.3241ZM83.7162 59.0576H65.385C65.0393 59.0871 64.6914 59.0397 64.3662 58.9188C64.041 58.7979 63.7465 58.6065 63.504 58.3584C63.2581 58.1096 63.0692 57.8103 62.9504 57.4812C62.8317 57.1521 62.7859 56.8012 62.8162 56.4527C62.7884 56.1039 62.8355 55.7532 62.9545 55.4242C63.0735 55.0951 63.2615 54.7954 63.5059 54.5451C63.7494 54.2986 64.0436 54.1082 64.3681 53.9872C64.6927 53.8661 65.0397 53.8172 65.385 53.844H83.7162C84.0622 53.8153 84.4102 53.8635 84.7354 53.985C85.0606 54.1066 85.3549 54.2984 85.5972 54.547C85.8431 54.7966 86.0318 55.0966 86.1506 55.4263C86.2693 55.7559 86.3152 56.1074 86.285 56.4565C86.3115 56.8043 86.2634 57.1538 86.1438 57.4815C86.0242 57.8092 85.8359 58.1075 85.5915 58.3565C85.3484 58.6022 85.0548 58.792 84.7309 58.9127C84.4071 59.0334 84.0608 59.0841 83.7162 59.0576ZM124.45 84.6601H113.322C111.375 84.6601 111.078 84.5613 110.255 82.8475L106.44 74.9815L106.389 74.8694C105.857 73.9955 105.562 72.9982 105.534 71.9757C105.547 70.8124 105.859 69.672 106.44 68.664L110.335 60.7923C111.133 59.183 111.323 59.0557 113.14 59.0557H124.452C124.794 59.0714 125.135 59.0147 125.453 58.8893C125.772 58.7639 126.06 58.5726 126.299 58.328C126.541 58.0826 126.73 57.7895 126.854 57.4674C126.977 57.1452 127.032 56.801 127.015 56.4565C127.039 56.109 126.99 55.7603 126.87 55.4332C126.75 55.1061 126.563 54.808 126.32 54.5584C126.078 54.3124 125.786 54.1213 125.464 53.9981C125.142 53.8748 124.797 53.8223 124.452 53.844H113.031C109.444 53.844 107.428 55.117 105.83 58.3945L101.707 66.8001C100.827 68.3928 100.383 70.1903 100.423 72.0099C100.431 73.7275 100.86 75.4166 101.667 76.9252L105.79 85.3783C107.326 88.538 109.421 89.8813 112.809 89.8813H124.475C124.817 89.8962 125.157 89.8389 125.475 89.7131C125.793 89.5874 126.081 89.3961 126.32 89.1517C126.562 88.9065 126.751 88.6138 126.875 88.292C126.998 87.9703 127.054 87.6264 127.038 87.2821C127.063 86.932 127.014 86.5806 126.893 86.251C126.772 85.9215 126.583 85.6214 126.337 85.3707C126.093 85.1233 125.798 84.9318 125.472 84.8091C125.147 84.6865 124.797 84.6356 124.45 84.6601ZM165.228 54.0036H141.613C141.268 53.9763 140.921 54.0252 140.597 54.1466C140.273 54.2681 139.98 54.4592 139.738 54.7066C139.493 54.955 139.304 55.2532 139.184 55.5811C139.064 55.9089 139.017 56.2587 139.044 56.6066C139.018 56.955 139.066 57.305 139.186 57.6333C139.305 57.9616 139.493 58.2606 139.738 58.5104C139.981 58.7562 140.274 58.9464 140.598 59.0678C140.922 59.1891 141.268 59.2388 141.613 59.2134H150.86V87.2726C150.86 87.9642 151.132 88.6254 151.613 89.1156C151.85 89.3564 152.133 89.5477 152.445 89.6783C152.757 89.8088 153.092 89.8761 153.43 89.8761C153.768 89.8761 154.103 89.8088 154.415 89.6783C154.727 89.5477 155.01 89.3564 155.247 89.1156C155.731 88.624 156.001 87.9619 156 87.2726V59.2134H165.24C165.584 59.2409 165.931 59.1921 166.255 59.0706C166.578 58.9491 166.871 58.7579 167.113 58.5104C167.358 58.2616 167.546 57.963 167.665 57.6347C167.785 57.3065 167.831 56.9564 167.803 56.6085C167.83 56.2594 167.782 55.9086 167.663 55.5795C167.543 55.2505 167.354 54.9509 167.109 54.7009C166.865 54.4549 166.57 54.265 166.246 54.1446C165.921 54.0242 165.574 53.976 165.228 54.0036ZM201.644 66.3973L206.931 86.4803C207.135 86.9602 207.179 87.4927 207.058 87.9998C206.937 88.5068 206.657 88.9618 206.259 89.298C205.993 89.5184 205.687 89.678 205.356 89.7673C205.033 89.8832 204.691 89.944 204.349 89.9478C203.825 89.9445 203.316 89.7659 202.905 89.4405C202.491 89.1132 202.196 88.6584 202.065 88.1466L199.422 78.0918H183.079L180.43 88.1523C180.215 88.8068 179.751 89.3503 179.138 89.6647C178.682 89.8955 178.168 89.9838 177.661 89.9181C177.154 89.8524 176.679 89.6356 176.298 89.2961C176.041 89.0691 175.831 88.7936 175.682 88.4855C175.532 88.1774 175.444 87.8427 175.424 87.5006C175.405 87.1586 175.448 86.8166 175.557 86.4898L180.839 66.4315L183.008 58.4781C183.991 55.4324 186.504 53.8459 190.221 53.8459H192.254C195.999 53.8459 198.495 55.4324 199.472 58.4382L201.644 66.3973ZM184.443 72.8858H198.041L196.379 66.5835L194.733 60.7239C194.294 59.3293 193.855 59.0576 191.954 59.0576H190.53C188.634 59.0576 188.218 59.3236 187.751 60.7353L186.105 66.5835L184.443 72.8858Z" fill="#4996D1"/>
</svg>
