<svg width="228" height="145" viewBox="0 0 228 145" fill="none" xmlns="http://www.w3.org/2000/svg">
<g clip-path="url(#clip0_13477_24092)">
<path d="M75.3288 77.9798C75.3288 78.7135 74.9923 79.0546 74.2934 79.0546H73.7756C73.6291 79.0778 73.4792 79.066 73.3382 79.0201C73.1972 78.9742 73.0691 78.8955 72.9645 78.7906C72.8598 78.6857 72.7817 78.5575 72.7364 78.4165C72.6911 78.2755 72.6799 78.1258 72.7039 77.9798V66.4461C72.6797 66.3001 72.6907 66.1506 72.736 66.0097C72.7813 65.8689 72.8595 65.7409 72.9643 65.6363C73.0691 65.5317 73.1974 65.4536 73.3385 65.4084C73.4796 65.3632 73.6294 65.3522 73.7756 65.3764H74.2468C74.9561 65.3764 75.2822 65.7123 75.2822 66.4461V70.0219H78.0314V66.2859C78.0314 64.0174 76.9286 62.9219 74.6558 62.9219H73.2889C71.0161 62.9219 69.8926 64.0432 69.8926 66.3117V78.1141C69.8926 80.3826 71.0161 81.5039 73.2889 81.5039H74.6765C76.9494 81.5039 78.078 80.3826 78.078 78.1141V73.8768H75.3288V77.9798Z" fill="black"/>
<path d="M92.2287 73.3077H95.5215V70.7756H92.2287V65.6082H95.651V63.0762H89.4277V81.3482H95.7027V78.8161H92.2287V73.3077Z" fill="black"/>
<path d="M100.513 63.0449L97.9248 81.3428H100.513L100.855 78.4697H103.755L104.122 81.3428H106.892L104.252 63.0449H100.513ZM101.14 75.9635L102.295 66.8275L103.418 75.9635H101.14Z" fill="black"/>
<path d="M115.742 72.7341C116.777 72.3155 117.336 71.5352 117.336 69.9127V66.4712C117.336 64.1975 116.213 63.0762 113.935 63.0762H109.316V81.3482H112.117V74.0156H113.37C114.183 74.0156 114.551 74.3773 114.551 75.1886V81.3482H117.347V75.1473C117.347 73.7624 116.875 73.0803 115.726 72.7444M114.525 70.4759C114.525 71.2304 114.157 71.5973 113.37 71.5973H112.117V65.5565H113.479C113.62 65.5367 113.763 65.5498 113.898 65.5947C114.032 65.6397 114.155 65.7152 114.255 65.8154C114.356 65.9157 114.431 66.0378 114.476 66.1722C114.521 66.3067 114.534 66.4497 114.514 66.59L114.525 70.4759Z" fill="black"/>
<path d="M122.18 77.7465C122.203 77.8922 122.191 78.0413 122.145 78.1816C122.1 78.3218 122.021 78.4493 121.917 78.5536C121.812 78.6579 121.685 78.7361 121.544 78.7817C121.404 78.8273 121.254 78.8391 121.108 78.8161H119.876V81.3482H121.579C123.852 81.3482 124.976 80.2269 124.976 77.9532V63.0762H122.18V77.7465Z" fill="black"/>
<path d="M133.293 77.979C133.293 78.7128 132.951 79.0538 132.257 79.0538H131.812C131.666 79.0771 131.516 79.0652 131.375 79.0193C131.234 78.9734 131.106 78.8948 131.001 78.7899C130.896 78.6849 130.818 78.5567 130.773 78.4158C130.728 78.2748 130.717 78.1251 130.741 77.979V63.0762H127.955V78.1134C127.955 80.3819 129.079 81.5032 131.357 81.5032H132.718C134.991 81.5032 136.115 80.3819 136.115 78.1134V63.0762H133.319L133.293 77.979Z" fill="black"/>
<path d="M155.508 77.9798C155.508 78.7135 155.172 79.0546 154.473 79.0546H153.955C153.809 79.0778 153.659 79.066 153.518 79.0201C153.377 78.9742 153.248 78.8955 153.144 78.7906C153.039 78.6857 152.961 78.5575 152.916 78.4165C152.87 78.2755 152.859 78.1258 152.883 77.9798V66.4461C152.859 66.3001 152.87 66.1506 152.915 66.0097C152.961 65.8689 153.039 65.7409 153.144 65.6363C153.248 65.5317 153.377 65.4536 153.518 65.4084C153.659 65.3632 153.809 65.3522 153.955 65.3764H154.426C155.135 65.3764 155.462 65.7123 155.462 66.4461V70.0219H158.211V66.2859C158.211 64.0174 157.113 62.9219 154.835 62.9219H153.474C151.201 62.9219 150.077 64.0432 150.077 66.3117V78.1141C150.077 80.3826 151.201 81.5039 153.474 81.5039H154.882C157.16 81.5039 158.283 80.3826 158.283 78.1141V73.8768H155.534L155.508 77.9798Z" fill="black"/>
<path d="M160.341 65.6082H162.852V81.3482H165.648V65.6082H168.164V63.0762H160.341V65.6082Z" fill="black"/>
<path d="M173.394 63.0762H170.599V81.3482H173.394V63.0762Z" fill="black"/>
<path d="M181.232 62.9219H179.721C177.448 62.9219 176.324 64.0432 176.324 66.3117V78.1141C176.324 80.3826 177.448 81.5039 179.721 81.5039H181.212C183.49 81.5039 184.613 80.3826 184.613 78.1141V66.3117C184.613 64.0432 183.49 62.9219 181.212 62.9219M181.812 77.9798C181.812 78.7135 181.476 79.0546 180.777 79.0546H180.238C180.092 79.0778 179.942 79.066 179.801 79.0201C179.66 78.9742 179.532 78.8955 179.427 78.7906C179.323 78.6857 179.244 78.5575 179.199 78.4165C179.154 78.2755 179.143 78.1258 179.167 77.9798V66.4461C179.142 66.3001 179.153 66.1506 179.199 66.0097C179.244 65.8689 179.322 65.7409 179.427 65.6363C179.532 65.5317 179.66 65.4536 179.801 65.4084C179.942 65.3632 180.092 65.3522 180.238 65.3764H180.813C181.522 65.3764 181.848 65.7123 181.848 66.4461L181.812 77.9798Z" fill="black"/>
<path d="M83.7648 65.5979L80.9639 63.1641V81.3431H86.8505V78.811H83.7648V65.5979Z" fill="black"/>
<path d="M144.689 63.0664H147.2V81.3333H144.166L141.318 69.0141L141.344 81.3333H138.833V63.0664H142.1L144.715 74.4192L144.689 63.0664Z" fill="black"/>
<path d="M193.305 63.0664H195.816V81.3333H192.782L189.929 69.0141L189.955 81.3333H187.444V63.0664H190.716L193.331 74.4192L193.305 63.0664Z" fill="black"/>
<path d="M56.1094 58.1855H52.4023L56.1042 70.6855L61.09 75.0314L56.1094 58.1855Z" fill="#FF7900"/>
<path d="M51.3498 54.6668L55.0568 54.672L51.355 42.1668L46.3691 37.8262L51.3498 54.6668Z" fill="#FF7900"/>
<path d="M32.1738 54.6699L36.2381 58.1889L75.2807 58.1941L71.2217 54.6751L32.1738 54.6699Z" fill="#F6EB00"/>
<path d="M65.7059 54.6727H71.2146L44.4941 31.502L46.3684 37.8217L65.7059 54.6727Z" fill="#FFAB00"/>
<path d="M41.7421 58.1836H36.2334L62.9539 81.3543L61.0797 75.0346L41.7421 58.1836Z" fill="#FFAB00"/>
</g>
<defs>
<clipPath id="clip0_13477_24092">
<rect width="163.636" height="50" fill="white" transform="translate(32.1816 31.5)"/>
</clipPath>
</defs>
</svg>
