<svg width="228" height="145" viewBox="0 0 228 145" fill="none" xmlns="http://www.w3.org/2000/svg">
<g clip-path="url(#clip0_13477_24061)">
<path d="M54.1936 64.7713C46.9071 64.7713 41.2138 70.1746 41.2138 77.4079C41.2138 84.6412 46.7633 89.9982 54.1936 89.9982C61.624 89.9982 67.27 84.5488 67.27 77.3617C67.27 70.2208 61.7205 64.7713 54.1936 64.7713ZM54.2428 84.7853C50.0934 84.7853 47.0528 81.6373 47.0528 77.4097C47.0528 73.1341 50.0442 69.9878 54.1936 69.9878C58.3922 69.9878 61.431 73.1821 61.431 77.4097C61.431 81.6373 58.3922 84.7853 54.2428 84.7853ZM68.8613 70.2688H72.4809V89.5305H78.2707V65.2409H68.8613V70.2688ZM26.6426 69.986C29.6832 69.986 32.0956 71.8179 33.0115 74.5427H39.14C38.0293 68.7179 33.108 64.7713 26.6918 64.7713C19.4053 64.7713 13.7119 70.1746 13.7119 77.4097C13.7119 84.6448 19.2614 90 26.6918 90C32.9641 90 37.982 86.0534 39.0926 80.1807H33.0115C32.143 82.9054 29.7305 84.7853 26.6899 84.7853C22.4914 84.7853 19.5491 81.6373 19.5491 77.4097C19.5509 73.1341 22.4459 69.986 26.6426 69.986ZM178.872 75.0602L174.626 74.4502C172.6 74.1692 171.153 73.5111 171.153 71.9602C171.153 70.2688 173.035 69.424 175.591 69.424C178.39 69.424 180.176 70.5978 180.562 72.524H186.159C185.531 67.6383 181.671 64.7731 175.737 64.7731C169.609 64.7731 165.556 67.8269 165.556 72.1487C165.556 76.2821 168.21 78.6796 173.565 79.4301L177.811 80.0401C179.886 80.3212 181.044 81.1215 181.044 82.6244C181.044 84.5505 179.018 85.3491 176.22 85.3491C172.793 85.3491 170.863 83.9867 170.574 81.9201H164.88C165.412 86.6652 169.223 90 176.17 90C182.492 90 186.689 87.181 186.689 82.3416C186.689 78.0197 183.65 75.7645 178.872 75.0602ZM75.3758 55.2348C73.2528 55.2348 71.6597 56.7376 71.6597 58.8043C71.6597 60.871 73.251 62.3739 75.3758 62.3739C77.4987 62.3739 79.0919 60.871 79.0919 58.8043C79.0919 56.7376 77.4987 55.2348 75.3758 55.2348ZM160.345 73.5573C160.345 68.2964 157.064 64.7731 150.116 64.7731C143.554 64.7731 139.887 68.0154 139.163 72.9953H144.905C145.195 71.0692 146.739 69.472 150.02 69.472C152.964 69.472 154.411 70.7401 154.411 72.291C154.411 74.3114 151.756 74.8272 148.476 75.1563C144.037 75.6258 138.536 77.1287 138.536 82.7667C138.536 87.1365 141.866 89.9538 147.174 89.9538C151.323 89.9538 153.929 88.2624 155.232 85.5839C155.425 87.9796 157.259 89.5305 159.817 89.5305H163.194V84.5043H160.347V73.5573H160.345ZM154.651 79.6649C154.651 82.9072 151.756 85.3029 148.233 85.3029C146.061 85.3029 144.228 84.41 144.228 82.5319C144.228 80.1362 147.172 79.4781 149.874 79.1971C152.479 78.9623 153.927 78.3985 154.651 77.3172V79.6649ZM123.916 64.7713C120.682 64.7713 117.98 66.0875 116.05 68.2946V55H110.261V89.5305H115.954V86.3362C117.884 88.6376 120.635 90 123.916 90C130.864 90 136.124 84.6448 136.124 77.4097C136.124 70.1746 130.767 64.7713 123.916 64.7713ZM123.048 84.7853C118.898 84.7853 115.858 81.6373 115.858 77.4097C115.858 73.1821 118.945 69.9878 123.095 69.9878C127.293 69.9878 130.236 73.1358 130.236 77.4097C130.236 81.6373 127.197 84.7853 123.048 84.7853ZM96.4123 64.7713C92.6489 64.7713 90.1873 66.2742 88.7398 68.3889V65.2409H82.9973V89.5287H88.7872V76.3283C88.7872 72.6165 91.1996 69.986 94.77 69.986C98.1001 69.986 100.174 72.2875 100.174 75.624V89.5305H105.964V75.2025C105.966 69.0932 102.734 64.7713 96.4123 64.7713ZM214.289 76.6111C214.289 69.6588 209.078 64.7731 202.081 64.7731C194.651 64.7731 189.198 70.2226 189.198 77.4097C189.198 84.9738 195.037 90 202.177 90C208.209 90 212.938 86.5229 214.143 81.591H208.111C207.243 83.752 205.12 84.9738 202.272 84.9738C198.556 84.9738 195.758 82.7186 195.131 78.772H214.287V76.6111H214.289ZM195.47 74.7312C196.388 71.3484 198.993 69.705 201.984 69.705C205.265 69.705 207.774 71.5369 208.353 74.7312H195.47Z" fill="#0052FF"/>
</g>
<defs>
<clipPath id="clip0_13477_24061">
<rect width="200.577" height="35" fill="white" transform="translate(13.7119 55)"/>
</clipPath>
</defs>
</svg>
