<svg width="228" height="145" viewBox="0 0 228 145" fill="none" xmlns="http://www.w3.org/2000/svg">
<g clip-path="url(#clip0_13477_24115)">
<path fill-rule="evenodd" clip-rule="evenodd" d="M106.402 64.4751C103.077 64.4751 100.074 65.8067 97.9603 67.942C95.8955 65.7985 92.9544 64.4586 89.6948 64.4586C87.8659 64.4586 85.9998 65.1105 84.5606 66.0525V65.7403C84.5606 65.29 84.1767 64.9476 83.73 64.9476H79.0932C78.6496 64.9476 78.2626 65.29 78.2626 65.7403V88.2274C78.2626 88.6777 78.6467 89.0201 79.0932 89.0201H83.7413C84.1852 89.0201 84.5719 88.6777 84.5719 88.2274V75.459C84.5719 72.7076 86.8673 70.4809 89.6948 70.4809C92.5249 70.4809 94.8174 72.7103 94.8174 75.459V88.2274C94.8174 88.6777 95.2013 89.0201 95.648 89.0201H100.188C100.199 89.0201 100.208 89.0201 100.213 89.0201H100.315C100.759 89.0201 101.146 88.6777 101.146 88.2274V75.4672C101.146 72.7296 103.49 70.4919 106.402 70.4919C109.315 70.4919 111.659 72.7296 111.659 75.4672V88.2247C111.659 88.675 112.043 89.0174 112.489 89.0174H117.154C117.601 89.0174 117.985 88.675 117.985 88.2247V75.4672C117.982 69.387 112.788 64.4751 106.402 64.4751ZM141.177 76.5528C139.406 75.5059 137.134 75.0032 135.152 74.5666L135.113 74.5584C133.675 74.2407 132.41 73.959 131.5 73.5445C130.598 73.1356 130.19 72.6661 130.19 72.0195C130.19 71.4616 130.405 70.9671 130.918 70.5775C131.443 70.177 132.315 69.8675 133.66 69.7903C135.952 69.7903 137.727 69.8428 138.928 69.8952C139.53 69.9202 139.988 69.9477 140.293 69.9671C140.447 69.9781 140.562 69.9836 140.64 69.9891C140.679 69.9919 140.708 69.9946 140.725 69.9946L140.744 69.9974H140.751L140.771 70.0001H140.79C141.146 70.0001 141.47 69.9339 141.692 69.7102C141.887 69.5112 141.929 69.2571 141.946 69.1328C141.946 69.1245 141.948 69.1163 141.948 69.1108C141.957 69.0581 141.963 69.0194 141.97 68.9837L141.983 68.9367V66.1659C141.983 65.8287 141.959 65.5193 141.826 65.2818C141.661 64.9863 141.385 64.8922 141.164 64.8453L141.142 64.8425L141.123 64.8398H141.114L141.092 64.837C141.073 64.8343 141.044 64.8315 141.007 64.8288C140.929 64.8205 140.816 64.8095 140.666 64.7956C140.36 64.7681 139.906 64.7321 139.291 64.6961C138.063 64.6242 136.197 64.5525 133.642 64.5525H133.633H133.625C130.355 64.6714 127.874 65.5553 126.205 66.9531C124.53 68.3538 123.705 70.2434 123.705 72.2875C123.705 73.6329 124.024 74.7352 124.587 75.644C125.147 76.5501 125.934 77.2381 126.833 77.7768C128.606 78.8347 130.874 79.3459 132.851 79.7907L132.893 79.7989C134.333 80.1221 135.6 80.4093 136.51 80.8294C137.409 81.2437 137.827 81.7217 137.827 82.3875C137.827 82.9427 137.562 83.4372 136.923 83.8155C136.256 84.2079 135.178 84.4703 133.592 84.4703C131.789 84.4703 129.82 84.2825 128.295 84.092C127.533 83.9981 126.887 83.9012 126.429 83.8295C126.201 83.7935 126.021 83.7631 125.897 83.7438C125.864 83.7383 125.834 83.7328 125.81 83.7301C125.79 83.7271 125.769 83.7244 125.755 83.7216L125.721 83.7161L125.71 83.7134L125.671 83.7051H125.629C125.306 83.7051 124.999 83.7631 124.782 83.9759C124.591 84.1609 124.55 84.4069 124.532 84.52C124.53 84.5283 124.53 84.5368 124.53 84.5422C124.517 84.6029 124.508 84.6417 124.5 84.6804L124.489 84.7246L124.311 87.8516V87.8628C124.311 88.0671 124.341 88.3103 124.456 88.5286C124.571 88.7606 124.782 88.9677 125.104 89.0478L125.115 89.0506L125.128 89.0533L125.141 88.9816C125.128 89.0533 125.128 89.0533 125.128 89.0533H125.13L125.138 89.0561C125.143 89.0588 125.156 89.0588 125.169 89.0616C125.195 89.0673 125.234 89.0728 125.286 89.0838C125.388 89.103 125.536 89.128 125.732 89.1584C126.125 89.2191 126.696 89.2993 127.437 89.3822C128.91 89.5451 131.037 89.7054 133.653 89.7054H133.675C133.996 89.7081 136.61 89.7274 139.161 88.7964C140.44 88.3296 141.731 87.6141 142.704 86.5147C143.686 85.4069 144.321 83.9289 144.321 81.9897C144.321 80.6581 143.999 79.5642 143.436 78.6636C142.867 77.7628 142.078 77.0833 141.177 76.5528ZM193.596 64.9614C191 64.9614 188.573 65.6714 186.535 66.9006V56.5976C186.535 56.1473 186.15 55.8047 185.703 55.8047H181.049C180.606 55.8047 180.219 56.1473 180.219 56.5976V88.2329C180.219 88.6832 180.604 89.0258 181.049 89.0258H185.703C186.148 89.0258 186.535 88.6832 186.535 88.2329V87.1803C188.458 88.639 191.006 89.7026 193.596 89.7026C200.837 89.7026 206.732 84.1774 206.732 77.332C206.732 70.4864 200.837 64.9614 193.596 64.9614ZM193.596 83.7301C189.842 83.7301 186.796 80.8653 186.796 77.332C186.796 73.7987 189.839 70.9339 193.596 70.9339C197.35 70.9339 200.396 73.7987 200.396 77.332C200.396 80.8653 197.355 83.7301 193.596 83.7301ZM173.06 64.9614H168.396C167.948 64.9614 167.563 65.304 167.563 65.7543V78.832C167.563 81.5309 165.226 83.7438 162.308 83.7438C162.295 83.7438 162.282 83.7438 162.269 83.7438C162.254 83.7438 162.243 83.7438 162.227 83.7438C159.31 83.7438 156.972 81.5309 156.972 78.832V65.7543C156.972 65.304 156.587 64.9614 156.142 64.9614H151.477C151.03 64.9614 150.645 65.304 150.645 65.7543V78.832C150.645 84.8487 155.846 89.6999 162.227 89.6999C162.243 89.6999 162.254 89.6999 162.269 89.6999C162.282 89.6999 162.295 89.6999 162.308 89.6999C168.689 89.6999 173.89 84.8487 173.89 78.832V65.7543C173.89 65.304 173.506 64.9614 173.06 64.9614ZM39.2484 76.5528C37.4764 75.5059 35.2039 75.0032 33.2242 74.5666L33.1842 74.5584C31.745 74.2407 30.4821 73.959 29.572 73.5445C28.6703 73.1356 28.2608 72.6661 28.2608 72.0195C28.2608 71.4616 28.477 70.9671 28.9888 70.5775C29.5151 70.177 30.3854 69.8675 31.7307 69.7903C34.0233 69.7903 35.7983 69.8428 36.9985 69.8952C37.6016 69.9202 38.0596 69.9477 38.3637 69.9671C38.5174 69.9781 38.634 69.9836 38.7109 69.9891C38.7507 69.9919 38.7792 69.9946 38.7961 69.9946L38.8161 69.9974H38.8217L38.8417 70.0001H38.8617C39.2172 70.0001 39.5413 69.9339 39.7634 69.7102C39.9596 69.5112 39.9993 69.2571 40.0165 69.1328C40.0165 69.1245 40.0193 69.1163 40.0193 69.1108C40.0278 69.0581 40.0334 69.0194 40.0421 68.9837L40.0534 68.9367V66.1659C40.0534 65.8287 40.0306 65.5193 39.897 65.2818C39.7321 64.9863 39.4561 64.8922 39.2343 64.8453L39.2143 64.8425L39.1943 64.8398H39.1859L39.1631 64.837C39.1433 64.8343 39.1148 64.8315 39.0777 64.8288C39.001 64.8205 38.8871 64.8095 38.7364 64.7956C38.4322 64.7681 37.977 64.7321 37.3626 64.6961C36.134 64.6242 34.2679 64.5525 31.7138 64.5525H31.7053H31.6966C28.4257 64.6714 25.9454 65.5553 24.2758 66.9531C22.6033 68.3538 21.7783 70.2434 21.7783 72.2875C21.7783 73.6329 22.097 74.7352 22.6602 75.644C23.2205 76.5501 24.0083 77.2381 24.9071 77.7768C26.6793 78.8347 28.9491 79.3459 30.926 79.7907L30.9657 79.7989C32.4077 80.1221 33.6735 80.4093 34.5838 80.8294C35.4826 81.2437 35.9006 81.7217 35.9006 82.3875C35.9006 82.9427 35.636 83.4372 34.9962 83.8155C34.3305 84.2079 33.2526 84.4703 31.6653 84.4703C29.862 84.4703 27.8938 84.2825 26.3693 84.092C25.6069 83.9981 24.9612 83.9012 24.5032 83.8295C24.2758 83.7935 24.0937 83.7631 23.9714 83.7438C23.9373 83.7383 23.9088 83.7328 23.8832 83.7301C23.8634 83.7271 23.8434 83.7244 23.8293 83.7216L23.795 83.7161L23.7837 83.7134L23.7439 83.7051H23.7011C23.3769 83.7051 23.0697 83.7631 22.8536 83.9759C22.663 84.1609 22.6204 84.4069 22.6033 84.52C22.6004 84.5283 22.6004 84.5368 22.6004 84.5422C22.5891 84.6029 22.5805 84.6417 22.572 84.6804L22.5607 84.7246L22.3758 87.8488V87.8601C22.3758 88.0644 22.4071 88.3076 22.5207 88.5256C22.6374 88.7579 22.8479 88.9649 23.1692 89.0451L23.1807 89.0478L23.1921 89.0506L23.2062 88.9789C23.1921 89.0506 23.1921 89.0506 23.1921 89.0506H23.1949L23.2033 89.0533C23.2092 89.0561 23.2205 89.0561 23.2346 89.0588C23.2603 89.0643 23.3002 89.07 23.3513 89.081C23.4536 89.1003 23.6016 89.1252 23.798 89.1555C24.1904 89.2164 24.7622 89.2966 25.5018 89.3793C26.975 89.5423 29.1027 89.7026 31.7194 89.7026H31.7394C32.0607 89.7054 34.6746 89.7246 37.2262 88.7936C38.5061 88.3268 39.7975 87.6113 40.7702 86.5119C41.7515 85.4041 42.3857 83.9261 42.3857 81.9869C42.3857 80.6553 42.0644 79.5614 41.5013 78.6606C40.9379 77.7628 40.1501 77.0833 39.2484 76.5528ZM71.1127 64.9614H66.4481C66.0014 64.9614 65.6175 65.304 65.6175 65.7543V78.832C65.6175 81.5309 63.2795 83.7438 60.361 83.7438C60.3469 83.7438 60.3356 83.7438 60.3212 83.7438C60.3071 83.7438 60.2956 83.7438 60.2815 83.7438C57.3632 83.7438 55.025 81.5309 55.025 78.832V65.7543C55.025 65.304 54.6411 64.9614 54.1944 64.9614H49.5298C49.0833 64.9614 48.6992 65.304 48.6992 65.7543V78.832C48.6992 84.8487 53.8987 89.6999 60.2815 89.6999C60.2956 89.6999 60.3071 89.6999 60.3212 89.6999C60.3356 89.6999 60.3469 89.6999 60.361 89.6999C66.7409 89.6999 71.9433 84.8487 71.9433 78.832V65.7543C71.9433 65.304 71.5594 64.9614 71.1127 64.9614Z" fill="#001133"/>
</g>
<defs>
<clipPath id="clip0_13477_24115">
<rect width="185.76" height="36" fill="white" transform="translate(21.1201 54.5)"/>
</clipPath>
</defs>
</svg>
