<svg width="96" height="96" viewBox="0 0 96 96" fill="none" xmlns="http://www.w3.org/2000/svg">
<rect width="96" height="96" rx="12" fill=""/>
<g clip-path="url(#clip0_13480_24532)">
<path d="M65.4869 37.4298C64.4501 35.5919 63.325 35.2538 61.0341 35.1253C58.7455 34.9705 52.9908 34.9062 48.0053 34.9062C43.0102 34.9062 37.253 34.9705 34.9669 35.1229C32.6808 35.2538 31.5532 35.5895 30.5069 37.4298C29.4391 39.2653 28.8896 42.4268 28.8896 47.9928C28.8896 47.9976 28.8896 48 28.8896 48C28.8896 48.0047 28.8896 48.0071 28.8896 48.0071V48.0119C28.8896 53.5541 29.4391 56.7394 30.5069 58.5559C31.5532 60.3938 32.6784 60.7271 34.9645 60.8818C37.253 61.0151 43.0102 61.0937 48.0053 61.0937C52.9908 61.0937 58.7455 61.0151 61.0364 60.8842C63.3274 60.7295 64.4525 60.3962 65.4893 58.5583C66.5666 56.7418 67.1113 53.5565 67.1113 48.0143C67.1113 48.0143 67.1113 48.0071 67.1113 48.0024C67.1113 48.0024 67.1113 47.9976 67.1113 47.9952C67.1113 42.4268 66.5666 39.2653 65.4869 37.4298ZM43.2228 55.142V40.8579L55.167 48L43.2228 55.142Z" fill="white"/>
</g>
<defs>
<clipPath id="clip0_13480_24532">
<rect width="38.2217" height="38.0908" fill="white" transform="translate(28.8896 28.9551)"/>
</clipPath>
</defs>
</svg>
