<svg width="96" height="96" viewBox="0 0 96 96" fill="none" xmlns="http://www.w3.org/2000/svg">
<rect width="96" height="96" rx="12" fill=""/>
<g clip-path="url(#clip0_13480_24548)">
<path d="M56.765 28.9551H39.2359C33.5309 28.9551 28.8896 33.5804 28.8896 39.2659V56.7353C28.8896 62.4205 33.5309 67.0458 39.2359 67.0458H56.7653C62.47 67.0458 67.1112 62.4205 67.1112 56.7353V39.2659C67.1112 33.5804 62.47 28.9551 56.765 28.9551V28.9551ZM48.0004 58.4156C42.2377 58.4156 37.5495 53.7435 37.5495 48.0005C37.5495 42.2574 42.2377 37.5853 48.0004 37.5853C53.7632 37.5853 58.4514 42.2574 58.4514 48.0005C58.4514 53.7435 53.7632 58.4156 48.0004 58.4156ZM58.7013 40.0415C56.9983 40.0415 55.6131 38.6611 55.6131 36.964C55.6131 35.2668 56.9983 33.8861 58.7013 33.8861C60.4043 33.8861 61.7897 35.2668 61.7897 36.964C61.7897 38.6611 60.4043 40.0415 58.7013 40.0415Z" fill="white"/>
<path d="M47.9993 39.8203C43.4724 39.8203 39.7891 43.4907 39.7891 48.0024C39.7891 52.5138 43.4724 56.1845 47.9993 56.1845C52.5265 56.1845 56.2095 52.5138 56.2095 48.0024C56.2095 43.4907 52.5265 39.8203 47.9993 39.8203Z" fill="white"/>
</g>
<defs>
<clipPath id="clip0_13480_24548">
<rect width="38.2217" height="38.0908" fill="white" transform="translate(28.8896 28.9551)"/>
</clipPath>
</defs>
</svg>
