<svg width="96" height="96" viewBox="0 0 96 96" fill="none" xmlns="http://www.w3.org/2000/svg">
<rect width="96" height="96" rx="12" fill=""/>
<g clip-path="url(#clip0_13480_24523)">
<path d="M67.1113 36.1893C65.6899 36.8106 64.1754 37.2225 62.5964 37.4224C64.2208 36.4559 65.4606 34.937 66.0435 33.1063C64.529 34.0062 62.8568 34.6418 61.0747 34.9965C59.6366 33.4705 57.5869 32.5254 55.351 32.5254C51.0128 32.5254 47.5203 36.0345 47.5203 40.3364C47.5203 40.9554 47.5729 41.5505 47.7019 42.1171C41.1875 41.8005 35.4232 38.689 31.5508 33.949C30.8748 35.1179 30.4782 36.4559 30.4782 37.8962C30.4782 40.6006 31.8757 42.998 33.9588 44.3859C32.6999 44.3621 31.4648 43.9979 30.4185 43.4241C30.4185 43.4479 30.4185 43.4789 30.4185 43.5098C30.4185 47.3046 33.1346 50.4567 36.6964 51.1828C36.0586 51.3565 35.3634 51.4399 34.642 51.4399C34.1403 51.4399 33.6339 51.4113 33.1585 51.3066C34.1738 54.3991 37.0547 56.6726 40.4804 56.7464C37.8144 58.8247 34.4294 60.077 30.7649 60.077C30.1223 60.077 29.506 60.0484 28.8896 59.9698C32.3607 62.2005 36.4743 63.4742 40.9104 63.4742C55.3295 63.4742 63.2127 51.5708 63.2127 41.253C63.2127 40.9078 63.2007 40.5745 63.184 40.2435C64.7392 39.1437 66.0459 37.77 67.1113 36.1893Z" fill="white"/>
</g>
<defs>
<clipPath id="clip0_13480_24523">
<rect width="38.2217" height="38.0908" fill="white" transform="translate(28.8896 28.9551)"/>
</clipPath>
</defs>
</svg>
