<svg width="96" height="96" viewBox="0 0 96 96" fill="none" xmlns="http://www.w3.org/2000/svg">
<rect width="96" height="96" rx="12" fill=""/>
<g clip-path="url(#clip0_13480_24537)">
<path d="M41.9707 50.3672V50.3696H43.1599L41.9707 50.3672Z" fill="white"/>
<path d="M53.8623 50.3672V50.3696H55.0515L53.8623 50.3672Z" fill="white"/>
<path d="M67.1113 46.8196C67.1113 44.2052 64.9778 42.079 62.3544 42.079C61.3055 42.079 60.3089 42.4203 59.4955 43.039C56.8412 41.202 53.3639 40.1069 49.6654 39.8296L51.6609 35.1648L57.4667 36.5159C57.6522 38.3055 59.1554 39.7087 60.9987 39.7087C62.9657 39.7087 64.5664 38.1135 64.5664 36.1532C64.5664 34.193 62.9657 32.5978 60.9987 32.5978C59.7524 32.5978 58.6559 33.2401 58.0185 34.2096L51.2328 32.6286C50.6572 32.4982 50.0935 32.7898 49.8652 33.3183L47.1062 39.7656C43.1128 39.9031 39.3072 41.0242 36.4341 42.9773C35.6516 42.399 34.6812 42.079 33.6465 42.079C31.0231 42.079 28.8896 44.2052 28.8896 46.8196C28.8896 48.5523 29.8386 50.1191 31.2943 50.9226C31.2752 51.1312 31.2681 51.3445 31.2681 51.5602C31.2681 58.0952 38.7364 63.4118 47.9172 63.4118C57.0957 63.4118 64.5664 58.0952 64.5664 51.5602C64.5664 51.3753 64.5592 51.1928 64.5473 51.0103C66.0981 50.2234 67.1113 48.6187 67.1113 46.8196ZM60.9987 34.9681C61.6528 34.9681 62.1879 35.499 62.1879 36.1532C62.1879 36.8074 61.6528 37.3384 60.9987 37.3384C60.3446 37.3384 59.8095 36.8074 59.8095 36.1532C59.8095 35.499 60.3446 34.9681 60.9987 34.9681ZM39.5927 50.3751C39.5927 49.069 40.6606 48.0048 41.9711 48.0048C43.2816 48.0048 44.3496 49.069 44.3496 50.3751C44.3496 51.6835 43.2816 52.7454 41.9711 52.7454C40.6606 52.7454 39.5927 51.6835 39.5927 50.3751ZM53.4091 58.2374C51.7679 59.4202 49.8414 60.0127 47.9172 60.0127C45.9931 60.0127 44.0665 59.4202 42.4254 58.2374C41.8926 57.8534 41.7737 57.1115 42.159 56.5829C42.5443 56.0543 43.2888 55.9358 43.8192 56.3174C46.2713 58.0833 49.5631 58.0881 52.0153 56.3174C52.5457 55.9358 53.2878 56.0496 53.6754 56.5829C54.0608 57.1139 53.9395 57.8534 53.4091 58.2374ZM53.8633 52.7454C52.5504 52.7454 51.4849 51.6835 51.4849 50.3751C51.4849 49.069 52.5504 48.0048 53.8633 48.0048C55.1763 48.0048 56.2418 49.069 56.2418 50.3751C56.2418 51.6835 55.1763 52.7454 53.8633 52.7454Z" fill="white"/>
</g>
<defs>
<clipPath id="clip0_13480_24537">
<rect width="38.2217" height="38.0908" fill="white" transform="translate(28.8896 28.9551)"/>
</clipPath>
</defs>
</svg>
