<svg width="97" height="96" viewBox="0 0 97 96" fill="none" xmlns="http://www.w3.org/2000/svg">
<g clip-path="url(#clip0_8312_4544)">
<path d="M48.5 96C75.0097 96 96.5 74.5097 96.5 48C96.5 21.4903 75.0097 0 48.5 0C21.9903 0 0.5 21.4903 0.5 48C0.5 74.5097 21.9903 96 48.5 96Z" fill="#3A3E48"/>
<path d="M48.4959 52.9664C58.5512 52.9664 66.7027 44.8149 66.7027 34.7595C66.7027 24.7042 58.5512 16.5527 48.4959 16.5527C38.4405 16.5527 30.2891 24.7042 30.2891 34.7595C30.2891 44.8149 38.4405 52.9664 48.4959 52.9664Z" fill="#FF6C77"/>
<path d="M35.2537 74.482C45.309 74.482 53.4605 66.3305 53.4605 56.2752C53.4605 46.2198 45.309 38.0684 35.2537 38.0684C25.1983 38.0684 17.0469 46.2198 17.0469 56.2752C17.0469 66.3305 25.1983 74.482 35.2537 74.482Z" fill="#F4CD1E"/>
<path d="M61.7381 74.482C71.7934 74.482 79.9449 66.3305 79.9449 56.2752C79.9449 46.2198 71.7934 38.0684 61.7381 38.0684C51.6827 38.0684 43.5312 46.2198 43.5312 56.2752C43.5312 66.3305 51.6827 74.482 61.7381 74.482Z" fill="#5496CE"/>
<path d="M48.5041 43.7793C46.2288 46.1783 44.6546 49.1551 43.9524 52.3861C37.2974 50.6764 32.1746 45.3614 30.7109 38.6481C37.1339 36.9876 43.9516 38.9538 48.5041 43.7793Z" fill="#ED634C"/>
<path d="M66.2932 38.6481C64.8296 45.3614 59.7067 50.6764 53.0518 52.3861C52.3496 49.1551 50.7753 46.1783 48.5 43.7793C53.0525 38.9538 59.8702 36.9876 66.2932 38.6481Z" fill="#9C63AD"/>
<path d="M53.0566 52.3841C50.0713 53.1566 46.9385 53.1566 43.9531 52.3841C44.6553 49.1531 46.2296 46.1764 48.5049 43.7773C50.7802 46.1764 52.3544 49.1531 53.0566 52.3841Z" fill="#6D5A61"/>
<path d="M53.4624 56.2764C53.468 60.924 51.6907 65.3966 48.4968 68.7729C45.303 65.3966 43.5258 60.924 43.5313 56.2764C43.5335 54.969 43.6723 53.6655 43.9451 52.3867C46.9305 53.1592 50.0632 53.1592 53.0486 52.3867C53.3214 53.6655 53.46 54.969 53.4624 56.2764Z" fill="#5D9069"/>
</g>
<defs>
<clipPath id="clip0_8312_4544">
<rect width="96" height="96" fill="white" transform="translate(0.5)"/>
</clipPath>
</defs>
</svg>
