<svg width="97" height="96" viewBox="0 0 97 96" fill="none" xmlns="http://www.w3.org/2000/svg">
<path d="M48.5 96C75.0097 96 96.5 74.5097 96.5 48C96.5 21.4903 75.0097 0 48.5 0C21.9903 0 0.5 21.4903 0.5 48C0.5 74.5097 21.9903 96 48.5 96Z" fill="#3A3E48"/>
<path d="M36.5 24V71.0906H48.8531L54.8552 46.6839L48.8531 24H36.5Z" fill="#FF6C77"/>
<path d="M48.8594 24H61.2125V71.0906H48.8594V24Z" fill="#FF6C77"/>
<path d="M38.3828 28.5957V66.4979H48.8561L52.156 46.6457L48.8561 28.5957H38.3828Z" fill="#E8F1F1"/>
<path d="M48.8594 28.5957H59.3327V66.4979H48.8594V28.5957Z" fill="#E8F1F1"/>
<path d="M45.1406 25.1484V27.4455H48.856L49.4405 26.297L48.856 25.1484H45.1406Z" fill="#E8F1F1"/>
<path d="M48.8594 25.1484H52.5748V27.4455H48.8594V25.1484Z" fill="#E8F1F1"/>
<path d="M47.7812 68.7931C47.7812 69.4274 48.2622 69.9416 48.8554 69.9416L49.2178 68.7931L48.8554 67.6445C48.2622 67.6445 47.7812 68.1587 47.7812 68.7931Z" fill="#E8F1F1"/>
<path d="M49.9336 68.7931C49.9336 68.1587 49.4526 67.6445 48.8594 67.6445V69.9416C49.4526 69.9416 49.9336 69.4274 49.9336 68.7931Z" fill="#D4E4E4"/>
<path d="M51.2734 50.1328H52.8847V51.8556H51.2734V50.1328Z" fill="#464646"/>
<path d="M51.2734 53.5762H52.8847V55.299H51.2734V53.5762Z" fill="#464646"/>
<path d="M49.6641 51.8535H51.2753V53.5763H49.6641V51.8535Z" fill="#464646"/>
<path d="M56.1094 48.4082H57.7206V50.131H56.1094V48.4082Z" fill="#464646"/>
<path d="M56.1132 51.8556V50.1328H54.5019V51.8556H52.8906V53.5785H56.1132V55.3013H57.7244V51.8556H56.1132Z" fill="#464646"/>
<path d="M54.5 55.2988H56.1113V57.0217H54.5V55.2988Z" fill="#464646"/>
<path d="M52.8828 41.5156H54.4941V43.2385H52.8828V41.5156Z" fill="#464646"/>
<path d="M49.6641 38.0703V46.6845H57.7204V38.0703H49.6641ZM51.2753 44.9616V39.7931H56.1092V44.9616H51.2753Z" fill="#464646"/>
<path d="M43.2188 41.5156H44.83V43.2385H43.2188V41.5156Z" fill="#5A5A5A"/>
<path d="M39.9922 38.0703V46.6845H48.0486V38.0703H39.9922ZM41.6035 44.9616V39.7931H46.4373V44.9616H41.6035Z" fill="#5A5A5A"/>
<path d="M43.2188 51.8516H44.83V53.5744H43.2188V51.8516Z" fill="#5A5A5A"/>
<path d="M39.9922 48.4043V57.0184H48.0486V48.4043H39.9922ZM41.6035 55.2956V50.1271H46.4373V55.2956H41.6035Z" fill="#5A5A5A"/>
</svg>
