<svg width="48" height="36" viewBox="0 0 48 36" fill="none" xmlns="http://www.w3.org/2000/svg">
<g clip-path="url(#clip0_11020_3783)">
<rect width="48" height="36" rx="4" fill="white"/>
<g clip-path="url(#clip1_11020_3783)">
<path d="M-24 0H48V36H-24V0Z" fill="#000066"/>
<path d="M-24 18L48 0V36L-24 18Z" fill="#BD1021"/>
<path d="M-16.2871 17.9969L47.9988 1.92578V34.068" fill="white"/>
<path d="M31.1862 20.0092C31.666 20.0461 31.6496 20.5218 31.6496 20.5218L33.349 20.5597C33.5663 19.9672 33.7919 20.0358 34.2048 20.3285C34.597 20.6064 35.0251 20.7306 35.0251 20.7306C35.1892 19.8803 36.3949 20.0522 36.3949 20.0522C36.909 18.8243 36.9527 18.8406 36.6465 18.6851C36.3403 18.5296 36.2154 18.2665 36.2154 18.2665C35.9247 17.9157 35.7716 17.4081 35.7387 17.0968C35.7059 16.7855 35.345 17.2526 35.2794 17.1543C35.2138 17.0561 34.6778 17.1134 34.6778 17.1134C34.8091 17.2526 34.3606 17.1707 34.3606 17.1707C34.4044 17.2035 34.3606 17.3345 34.3606 17.3345C34.3169 17.2772 33.9778 17.2199 33.9778 17.2199C33.945 17.2935 33.8685 17.3754 33.8685 17.3754C33.6826 17.2935 33.3107 17.3099 33.3107 17.3099C32.7638 17.3016 32.4357 17.4736 32.2826 17.5637C32.1294 17.6537 31.5826 17.932 31.1342 18.3659C30.6858 18.7997 30.4342 18.7506 30.4342 18.7506C30.3029 19.2336 29.2312 19.823 29.2312 19.823C29.0562 19.9785 28.5202 20.0522 28.2468 19.823C27.9735 19.5938 28.2468 19.1845 28.2468 19.1845C28.348 18.9931 28.4483 19.0011 28.4595 18.3371C28.467 17.8881 28.9305 17.532 29.4062 17.0101C29.9878 16.3721 30.8007 15.3218 30.8007 15.3218C30.8048 15.6441 30.9811 15.6963 30.9811 15.6963C31.1411 15.3679 31.3708 15.1038 31.3708 15.1038C31.3831 15.1315 31.4159 15.1499 31.4159 15.1499C31.5964 14.9043 31.7071 14.8061 31.7071 14.8061C31.6456 14.7816 31.1411 14.8061 30.6694 15.2175C30.1978 15.6288 29.8738 15.4907 29.8738 15.4907C29.5456 15.3863 29.5169 15.1346 29.5169 15.1346C29.2774 14.1038 30.2183 13.3664 30.2183 13.3664C28.955 13.0656 29.8655 11.4632 31.4323 10.7817C32.999 10.1002 32.9826 9.7932 32.9826 9.7932C33.0728 9.8976 33.1467 10.0818 33.1467 10.0818C33.1631 10.0695 33.2779 9.8976 34.1802 9.4985C35.0825 9.0994 35.5173 8.7556 35.5173 8.7556C35.6321 8.97664 35.6075 9.13627 35.6075 9.13627C38.0765 8.27061 40.5087 6.28449 40.5087 6.28449C40.5784 6.45024 40.5415 6.70195 40.5415 6.70195C40.9434 6.3305 42.3953 5.46484 42.3953 5.46484C42.42 6.01737 41.9647 6.2292 41.9647 6.2292C42.014 6.30904 42.0426 6.45326 42.0426 6.45326C42.2805 6.32431 43.3879 5.55074 43.3879 5.55074C43.7939 5.90066 43.4248 6.47472 43.4248 6.47472C43.5684 6.45326 43.675 6.3274 43.675 6.3274C43.7775 6.92292 43.1172 7.44787 43.1172 7.44787C43.2321 7.45096 43.4248 7.33735 43.4248 7.33735C43.3018 7.98816 42.0672 8.70952 42.0672 8.70952C42.2477 8.86915 42.0754 9.08097 41.9278 9.17616C41.7801 9.27134 41.5177 9.48007 41.5997 9.56604C41.6817 9.652 42.2272 9.26824 42.2272 9.26824C42.3215 9.54148 41.6202 10.0787 41.6202 10.0787C42.1083 10.1431 43.4658 9.52615 43.4658 9.52615C43.3551 10.0511 42.8424 10.4593 42.2108 10.6957C41.5792 10.9321 41.612 10.969 41.612 10.969C41.7227 11.0579 42.5963 10.8032 42.5963 10.8032C42.3338 11.3895 41.4233 11.7917 41.4233 11.7917C41.6735 12.0035 42.0139 11.7579 42.3543 11.5247C42.6947 11.2914 43.1582 11.0918 43.6708 10.9199C44.1835 10.748 44.5444 10.8769 44.5444 10.8769C44.9709 10.7419 45.3319 10.9322 45.3319 10.9322C46.1522 10.9997 46.2342 11.2975 46.2342 11.2975C46.3244 11.3189 46.3942 11.3558 46.6033 11.5093C46.8125 11.6628 46.8002 12.1386 46.792 12.3719C46.7837 12.6052 46.7182 12.6052 46.6771 12.6697C46.6361 12.7343 46.632 12.8079 46.632 12.8969C46.632 12.9859 46.4269 13.5385 45.1596 13.5446C43.8922 13.5507 43.2388 13.5446 43.2388 13.5446C43.1341 13.5446 43.0091 13.606 43.0091 13.606C42.4759 13.8701 42.7575 13.426 42.1232 13.9478C41.4889 14.4697 41.1662 14.3796 41.1662 14.3796C41.0623 14.5044 40.3979 15.1225 40.0178 15.3681C39.6377 15.6137 39.7061 15.5911 40.0369 15.7344C40.3678 15.8777 40.8682 15.7344 40.8682 15.7344C40.5483 15.9473 40.7697 16.0455 40.7697 16.0455C41.1908 15.7896 41.4451 15.8838 41.4451 15.8838C41.5791 16.2502 41.0978 16.8293 41.0978 16.8293C41.2837 16.8539 41.6337 16.8293 41.6337 16.8293C41.549 17.0769 41.199 17.3492 40.942 17.433C40.6849 17.5169 40.7314 17.5497 40.808 17.7052C40.8845 17.8607 40.8189 18.0183 40.8189 18.0183C40.3705 17.7073 40.3541 17.9856 40.3541 17.9856C40.3023 18.3542 40.3103 18.882 40.3103 18.882C39.9931 18.7223 39.9767 18.9352 39.9767 18.9352C39.8947 19.2708 39.5064 19.6596 39.5064 19.6596C39.49 19.4509 39.2986 19.3977 39.2986 19.3977C39.0963 19.7865 38.7244 20.0199 38.7244 20.0199C38.6752 20.3555 38.7682 20.8262 38.7682 20.8262C38.5276 20.7771 38.4401 20.7812 38.4018 20.8385C38.3635 20.8958 38.4565 20.9245 38.4565 20.9245L41.59 21.0022C41.6338 21.0063 41.8197 21.0268 41.8252 21.3665C41.8306 21.7062 41.5517 21.7226 41.5517 21.7226L38.1229 21.6407C38.1229 21.6407 38.1394 21.7348 37.9588 21.829C37.7783 21.9232 37.8385 21.7226 37.7893 22.1441C37.74 22.5657 37.0565 22.1114 37.0565 22.1114C36.9471 22.2751 36.6791 22.4879 36.6791 22.4879C36.526 22.0254 36.3674 21.8822 36.1213 22.2833C35.8752 22.6844 36.5643 22.6149 36.5643 22.6149C36.5643 22.6149 40.5892 22.0214 40.8079 22.0009C41.0266 21.9805 41.2673 21.9927 41.3657 22.2997C41.4641 22.6068 40.879 22.6559 40.879 22.6559L36.7502 23.1061C36.6627 23.3517 36.3182 23.3312 36.3182 23.3312C36.3455 23.5645 36.0994 23.7119 35.9737 23.7978C35.8479 23.8838 35.4542 23.8428 35.4542 23.8428C34.9729 24.1703 34.7378 23.9124 34.7378 23.9124C34.4261 24.0475 34.2292 23.9902 33.9722 23.8796C33.7152 23.7691 33.7371 23.4581 33.7371 23.4581L31.1313 23.7282C31.0083 23.7712 30.9235 23.8531 30.9235 23.8531C31.0165 23.9718 30.7369 24.2476 30.7369 24.2476C30.8148 24.3013 30.9645 24.4517 30.985 24.7771C31.0067 25.1213 30.5646 25.1792 30.7861 25.4187C31.0075 25.6582 31.4115 25.4602 31.8627 25.2437C32.3138 25.0273 32.7568 25.055 32.9495 25.0565C33.1423 25.058 33.6796 25.1931 34.0138 25.3113C34.3481 25.4294 34.463 25.3589 34.4855 25.1869C34.508 25.015 34.6578 24.9659 34.6578 24.9659C34.6168 25.1347 34.707 25.21 34.707 25.21C34.8362 25.2192 35.0618 25.0933 35.0618 25.0933C35.0413 25.2177 34.8773 25.2959 34.8773 25.2959C34.5491 25.5154 35.0003 25.4341 35.0003 25.4341C35.8985 25.2499 36.2184 25.2684 36.4522 25.2929C36.686 25.3175 37.7892 25.7871 37.7892 25.7871C37.8303 25.6766 37.8015 25.4034 37.8015 25.4034C38.0846 25.4802 38.1994 25.6429 38.1994 25.6429C38.306 25.5263 38.2363 25.3298 38.2363 25.3298C39.1469 25.8393 38.0477 26.0696 37.7565 26.1678C37.4653 26.266 37.4694 26.3857 37.4694 26.3857C37.7114 26.309 37.8795 26.2813 38.0805 26.266C38.2815 26.2507 38.2118 26.2629 38.6917 26.1678C39.1715 26.0726 39.4176 26.2752 39.4176 26.2752C39.0157 26.2967 38.8968 26.4164 38.8968 26.4164C39.1511 26.5914 38.9091 26.7388 38.9091 26.7388C38.5441 26.2783 38.2324 26.7572 38.2324 26.7572C38.3574 26.7388 38.7246 26.8155 38.8291 26.8815C38.91 26.9326 39.0998 27.0258 39.3356 27.1348C39.6686 27.2886 39.6064 27.19 39.8647 27.2883C40.123 27.3865 40.0247 27.6352 40.0247 27.6352C39.9139 27.4326 39.676 27.3619 39.676 27.3619C39.6555 27.6352 39.3808 27.6812 39.3808 27.6812C39.7171 27.3066 38.9911 27.144 38.6507 27.1501C38.3103 27.1562 38.056 27.3742 38.056 27.3742C38.7409 28.0158 39.2167 27.807 39.2167 27.807C39.1306 28.0403 38.5646 27.9482 38.5646 27.9482C38.8271 28.1477 38.7984 28.289 38.7984 28.289C38.6589 28.1539 38.4292 28.2215 37.9371 27.9022C37.445 27.583 37.0061 27.6874 37.0061 27.6874C37.486 28.2 36.8297 28.5039 36.8297 28.5039C36.5878 28.6421 36.9323 28.8293 36.9323 28.8293C36.6288 28.8845 36.5878 28.5807 36.5878 28.5807C36.4278 28.55 36.1981 28.7434 36.1981 28.7434C36.2145 28.4303 36.6246 28.5869 36.6369 28.2614C36.6492 27.936 36.2555 27.6843 35.0948 27.844C33.9341 28.0036 33.5936 27.6321 33.5936 27.6321C33.4952 27.6352 33.4747 27.7334 33.4747 27.7334C33.6674 27.9176 33.7536 27.9944 33.7208 28.1233C33.688 28.2523 33.7823 28.2953 33.7823 28.2953C33.569 28.2829 33.5526 28.0282 33.5526 28.0282C33.5485 28.1326 33.5033 28.1418 33.4336 28.2523C33.364 28.3628 33.4295 28.504 33.4295 28.504C33.3393 28.4241 33.1752 28.329 33.3311 28.1019C33.4511 27.9269 33.0809 27.7028 33.0809 27.7028C32.9374 27.5555 32.556 27.6936 32.556 27.6936C31.7644 27.8501 31.3009 27.3497 31.3009 27.3497C31.2107 27.3497 31.0384 27.3006 31.0384 27.3006C30.2017 27.6752 29.4676 26.8648 29.4676 26.8648C28.836 26.9845 28.5489 26.6806 28.3561 26.3828C28.1634 26.085 28.1265 26.0604 27.8722 25.907C27.6178 25.7535 27.3802 25.3193 27.6137 25.0905C27.8174 24.8909 27.7573 24.8449 27.7573 24.8449C27.4292 24.2934 28.3425 24.1155 28.3589 23.9835C28.3828 23.7909 28.5735 23.6692 28.7786 23.6569C28.9836 23.6446 28.9836 23.663 29.119 23.5249C29.2543 23.3867 29.5127 23.5587 29.5127 23.5587C29.5661 23.5188 30.0172 23.1688 30.4192 23.3499C30.8211 23.5311 31.1533 23.4021 31.1533 23.4021C31.4364 23.3407 33.7864 23.0215 33.7864 23.0215C33.9382 22.7943 34.0449 22.5211 34.6929 22.3738C35.3409 22.2264 35.833 21.8243 35.833 21.8243C35.7182 21.7015 35.5255 21.7076 35.427 21.6953C35.3286 21.683 35.1236 21.508 35.1236 21.508C35.0046 21.5602 34.9436 21.5347 34.0941 22.0513C33.3354 22.5129 33.3135 21.5971 33.3135 21.5971L31.6579 21.6001C31.6292 21.95 31.3626 22.0882 31.3626 22.0882L30.7597 22.1189C30.4234 21.9408 30.4193 21.3484 30.4193 21.3484C28.5983 21.3761 27.5852 22.0268 27.5852 22.0268C25.5222 20.9708 23.9062 20.7314 23.9062 20.7314C26.4122 20.4581 27.7369 19.7613 27.7369 19.7613C29.1191 20.5902 30.4193 20.6116 30.4193 20.6116C30.4685 20.1112 30.8049 19.9885 30.8049 19.9885L31.1862 20.0092Z" fill="black"/>
<path d="M28.208 24.1706C27.6843 24.4777 27.779 24.6454 27.8246 24.7397C27.8711 24.8359 27.8765 24.928 27.7343 25.0713C27.5921 25.2145 27.6058 25.2643 27.6058 25.2643C27.6277 25.7733 27.9882 25.8813 28.1386 26.0062C28.2645 26.1107 28.478 26.4383 28.478 26.4383C28.746 26.8231 29.0303 26.8271 29.2409 26.8271C29.4514 26.8271 29.4327 26.8093 29.3256 26.7146C29.225 26.6255 29.0139 26.4526 29.0139 26.4526C29.2955 26.5509 29.5635 26.8455 29.5635 26.8455C30.0956 27.4277 30.5861 27.3511 30.8021 27.3224C31.0181 27.2937 30.9798 27.1689 30.9798 27.1689C30.9684 27.1482 30.7583 27.132 30.7583 27.132C29.9599 27.0563 29.7193 26.5324 29.7193 26.5324C30.2006 27.0052 30.9552 27.1014 31.1876 27.0927C31.42 27.0839 31.4063 27.1505 31.3571 27.1628C31.3078 27.1751 31.2368 27.1628 31.1302 27.1546C31.0235 27.1464 31.0235 27.173 31.0481 27.218C31.0728 27.263 31.1732 27.2676 31.3004 27.263C31.4275 27.2584 31.325 27.2722 31.6551 27.5285C31.9853 27.7849 32.8076 27.5776 32.8076 27.5776C32.2765 27.4457 32.2027 27.2062 32.2027 27.2062C31.4808 27.2906 31.1875 26.8578 31.1875 26.8578C31.0584 26.7288 30.6727 26.5295 30.6727 26.5295C30.2647 26.3544 30.2011 25.9851 30.2011 25.9851C30.316 26.1486 30.5395 26.3359 30.8225 26.4142C31.1055 26.4925 31.1854 26.5339 31.1854 26.5339C31.0501 26.5539 30.9701 26.5094 30.9701 26.5094C30.6871 26.4265 30.8471 26.5416 30.8471 26.5416C31.1587 26.7902 31.2449 26.7719 31.2449 26.7719C32.0631 26.8563 31.6571 26.5294 31.6571 26.5294C32.2395 26.6676 32.3359 26.4495 32.3359 26.4495C32.4569 26.7059 32.8978 26.6138 32.8978 26.6138C32.3113 26.8962 32.7563 26.8155 32.7563 26.8155C33.349 26.7044 33.4652 26.8553 33.4652 26.8553C33.6256 27.0045 33.7878 26.9837 33.7878 26.9837C33.7878 26.9837 33.8945 26.9868 34.12 27.032C34.3456 27.0771 34.6901 27.2692 35.0182 27.2286C35.3463 27.188 35.3997 27.2909 35.3997 27.2909C35.3382 27.2697 35.1946 27.2477 34.9403 27.3614C34.686 27.475 34.2472 27.5118 33.6074 27.3614C32.9676 27.2109 32.9183 27.2294 32.9183 27.2294C33.0701 27.3429 33.2054 27.5026 33.2341 27.6131C33.2629 27.7235 33.3736 27.7297 33.3736 27.7297C33.4187 27.5885 33.6115 27.5271 33.6115 27.5271C33.7377 27.6437 34.075 27.7972 34.075 27.7972C34.1119 27.7205 34.075 27.6668 34.075 27.6668C34.321 27.9016 34.6081 27.831 34.6081 27.831C34.6859 27.7759 34.6615 27.6437 34.6615 27.6437C34.7599 27.6406 34.7763 27.7021 34.846 27.7481C34.9157 27.7942 35.1372 27.7635 35.1372 27.7635C35.0552 27.7297 34.9977 27.6039 34.9977 27.6039C35.3217 27.3798 36.0231 27.478 36.0231 27.478C36.5296 27.567 36.466 27.8985 36.466 27.8985C36.5685 27.9477 36.7039 28.1012 36.7039 28.1012C36.7469 27.9845 36.708 27.8663 36.708 27.8663C36.9398 27.9768 36.9889 28.247 36.9889 28.247C37.2576 27.9399 36.7326 27.5946 36.7326 27.5946C36.9869 27.5624 37.2679 27.5854 37.4381 27.61C37.6083 27.6345 37.8523 27.7236 38.0512 27.8893C38.2502 28.0551 38.607 28.1318 38.607 28.1318C38.5961 28.0634 38.406 27.9477 38.363 27.9231C38.3199 27.8985 38.3015 27.8387 38.3015 27.8387C38.4758 27.8694 38.5968 27.854 38.5968 27.854C37.9836 27.4795 37.8298 27.3015 37.8298 27.3015C38.0595 27.3307 38.1867 27.1879 38.1867 27.1879C37.7027 27.1986 37.6863 27.0728 37.6863 27.0728C37.7457 27.0896 37.9652 27.1434 38.2543 27.0866C38.5435 27.0298 38.9454 27.0881 38.9454 27.0881C38.7362 26.7519 37.9262 26.8088 37.6678 26.8226C37.4095 26.8364 37.309 26.8026 37.309 26.8026C37.35 26.7827 37.3931 26.7397 37.596 26.7382C37.7991 26.7367 37.9979 26.7535 38.2276 26.5954C38.4573 26.4373 38.7724 26.4895 38.7724 26.4895C38.6959 26.3381 38.3322 26.2849 38.0123 26.4895C37.6925 26.6941 37.4026 26.6287 37.4026 26.6287C37.9085 26.557 38.0561 26.379 38.0561 26.379C37.9029 26.3421 37.8182 26.3913 37.5147 26.4506C37.2112 26.51 37.1291 26.4056 37.1291 26.4056C37.4627 26.2071 37.6951 26.1273 37.6951 26.1273C37.4108 26.0679 37.1483 25.9466 37.1483 25.9466C36.853 26.2243 36.6233 26.381 36.0573 26.0843C35.4913 25.7876 35.1961 25.8224 35.1961 25.8224C35.6937 25.5277 36.205 25.6545 36.5769 25.8776C36.9488 26.1006 37.0554 25.9185 37.0554 25.9185C36.9378 25.8448 36.9542 25.7814 36.9542 25.7814C37.8565 26.2418 38.2476 25.9553 38.4472 25.8203C38.6467 25.6852 38.3569 25.5051 38.3569 25.5051C38.3378 25.7978 37.9686 25.9308 37.6788 25.8326C37.389 25.7344 37.1211 25.6095 36.7041 25.4356C36.2872 25.2616 35.7649 25.3517 35.2781 25.454C34.7914 25.5563 34.7286 25.5072 34.6848 25.4683C34.641 25.4295 34.6165 25.3107 34.3676 25.4131C34.1188 25.5154 33.5391 25.2433 33.1782 25.1573C32.8173 25.0713 32.2264 25.1183 31.7154 25.3988C31.2043 25.6792 30.9525 25.6096 30.7994 25.54C30.6462 25.4703 30.5506 25.278 30.7146 25.1061C30.8787 24.9342 30.8923 24.8871 30.8787 24.6395C30.8651 24.3919 30.6217 24.2445 30.6217 24.2445C30.8459 24.0132 30.9006 23.9621 30.824 23.8618C30.7475 23.7615 30.8678 23.7636 30.9963 23.7063C31.1248 23.649 31.0674 23.6408 31.0373 23.5651C31.0073 23.4893 30.9334 23.5017 30.9334 23.5017C30.6354 23.514 30.4714 23.4321 30.4714 23.4321C29.9778 23.2049 29.5198 23.6469 29.5198 23.6469C29.2394 23.4322 29.1753 23.5712 29.126 23.6244C29.0768 23.6776 28.9784 23.7145 28.8471 23.7267C28.7277 23.7379 28.5473 23.7846 28.4847 23.8961C28.4847 23.8961 28.4294 23.9858 28.4984 24.0839C28.4984 24.0839 28.575 24.1995 28.4356 24.3391C28.2962 24.4788 28.247 24.5125 28.29 24.6445C28.3331 24.7765 28.3208 24.8778 28.2675 24.9638C28.2675 24.9638 28.2039 24.8901 28.2203 24.7995C28.2368 24.7089 28.2368 24.6567 28.2162 24.6076C28.2162 24.6076 28.0789 24.7427 28.0542 24.8394C28.0542 24.8394 27.9969 24.6905 28.1957 24.491C28.3946 24.2915 28.4852 24.1921 28.4295 24.1149C28.3885 24.0581 28.243 24.1501 28.208 24.1706Z" fill="#FFC221"/>
<path d="M28.7712 26.3657C28.7712 26.3657 28.5223 26.1754 28.5524 25.9114C28.5825 25.6474 28.5775 25.6147 28.5499 25.5594C28.5499 25.5594 28.5046 25.5857 28.5059 25.6884C28.5072 25.7847 28.4935 25.8848 28.484 25.9032C28.484 25.9032 28.3555 25.6843 28.3036 25.6433C28.3036 25.6433 28.3474 25.4141 28.2763 25.3158C28.2052 25.2176 28.1364 25.2114 28.0548 25.2422C27.9419 25.2847 27.8566 25.3896 28.236 25.7006C28.236 25.7006 28.3774 25.8131 28.4759 26.0628C28.5743 26.3125 28.7384 26.3514 28.7712 26.3657ZM30.0044 25.6351C30.0044 25.6351 29.9852 25.4857 30.1192 25.2217C30.2532 24.9577 30.1729 24.7616 30.1428 24.6961C30.1127 24.6305 30.0946 24.6549 30.2298 24.5414C30.3961 24.4018 30.1657 24.2255 30.4391 23.9807C30.4391 23.9807 30.6196 23.826 30.6606 23.7626C30.6606 23.7626 30.3708 23.9181 30.1821 23.9959C29.9935 24.0736 29.2716 24.4276 29.4302 24.665C29.5888 24.9024 29.5724 24.9147 29.5478 25.0129C29.5478 25.0129 29.1185 24.7858 29.2688 24.4174C29.2688 24.4174 29.337 24.269 29.5177 24.1023C29.6818 23.9509 29.5833 24.135 29.9168 23.9447C29.9168 23.9447 30.1821 23.7871 30.3215 23.5742C30.3215 23.5742 30.1465 23.6847 30.0836 23.7032C30.0836 23.7032 29.698 23.7727 29.5422 23.9365C29.3863 24.1002 29.0555 24.3847 29.1676 24.7018C29.1676 24.7018 28.7821 24.6547 28.6946 24.2536C28.6946 24.2536 27.9809 25.1336 29.4793 25.5429C29.4794 25.5431 29.7528 25.6157 30.0044 25.6351Z" fill="black"/>
<path d="M36.5963 22.6958C37.1559 22.6112 40.399 22.1211 40.6937 22.0912C41.0163 22.0584 41.1399 22.0154 41.246 22.2753C41.3663 22.57 40.803 22.5741 40.803 22.5741L36.9367 23.0125C36.7471 23.0344 36.7047 22.962 36.7047 22.962C36.6712 22.9002 36.6065 22.818 36.562 22.7642C36.562 22.7641 36.511 22.7086 36.5963 22.6958Z" fill="#FFC221"/>
<path d="M28.6745 24.4536C28.6745 24.4536 28.2562 25.3346 29.9008 25.5525C29.9008 25.5525 29.9049 25.4543 29.9705 25.3161C30.0361 25.178 30.1797 24.8987 30.0443 24.7175C29.909 24.5364 30.155 24.6315 30.192 24.3952C30.2289 24.1588 30.1674 24.1926 30.2822 24.0391C30.2822 24.0391 29.7655 24.2263 29.5685 24.4535C29.3717 24.6807 29.8352 24.8526 29.5603 25.1012C29.5603 25.1012 29.3307 25.0183 29.1953 24.7696C29.1954 24.7697 28.8755 24.7759 28.6745 24.4536Z" fill="#5A3719"/>
<path d="M30.2833 25.5352C30.2833 25.5352 30.6893 25.8867 31.1733 25.8713C31.6573 25.856 31.8623 25.727 31.9854 25.5352C31.9854 25.5352 32.0795 25.6838 32.0797 25.7823C32.0797 25.7823 32.498 25.4354 33.2199 25.7362C33.9418 26.037 33.7203 25.9543 33.8802 25.9757C33.8802 25.9757 33.5733 25.9211 32.8713 26.2427C32.1495 26.5733 30.2669 26.4606 30.2833 25.5352Z" fill="black"/>
<path d="M29.6109 23.9788C29.6109 23.9788 29.7935 24.0065 29.976 23.8008C29.976 23.8008 29.7299 23.8469 29.6109 23.9788ZM28.2318 25.615C28.2318 25.615 27.8924 25.348 28.1098 25.2958C28.1098 25.2958 28.2646 25.2712 28.2318 25.615Z" fill="#5A3719"/>
<path d="M35.6211 27.2874C35.6211 27.2874 35.8015 26.9648 36.3224 26.9648C36.8434 26.9648 36.9049 27.2043 37.5611 27.2503C37.5611 27.2503 36.7731 27.4724 36.224 27.2688C35.937 27.1623 35.6785 27.2508 35.6211 27.2874Z" fill="black"/>
<path d="M30.4648 25.7718C30.4648 25.7718 31.2441 26.2446 31.9372 25.7319C31.9372 25.7319 31.9947 25.7871 32.0439 25.913C32.0439 25.913 32.5688 25.4064 33.5081 25.9529C33.5081 25.9529 33.3927 25.9401 32.9503 26.1309C32.374 26.3796 30.9324 26.5424 30.4648 25.7718Z" fill="#5A3719"/>
<path d="M33.4707 26.25C33.4707 26.25 34.2171 26.3365 34.8488 26.2991C35.2369 26.2761 35.6568 26.2051 35.4476 26.3365C35.2384 26.4679 35.341 26.4803 36.2351 26.3974C37.1292 26.3145 36.2269 26.5662 36.8421 26.646C36.8421 26.646 35.351 27.4073 33.4707 26.25Z" fill="black"/>
<path d="M35.4316 25.7736C35.4316 25.7736 35.8704 25.614 36.2765 25.8043C36.6825 25.9946 36.621 26.01 36.8918 26.0376C36.8918 26.0376 36.7031 26.3077 36.2561 26.0897C35.809 25.8718 35.6905 25.8298 35.4316 25.7736ZM35.9197 27.1212C35.9197 27.1212 36.3503 26.9064 36.8262 27.1297C36.8858 27.1577 37.0157 27.2116 37.1378 27.2379C37.1378 27.2379 36.7731 27.3509 36.3995 27.2348C36.2442 27.1865 36.1206 27.1489 35.9197 27.1212ZM33.791 26.3507C33.791 26.3507 34.7508 26.4397 35.2716 26.3359C35.2716 26.3359 34.6687 26.6269 36.1821 26.4919C36.1821 26.4919 36.5184 26.455 36.4774 26.5072C36.4364 26.5594 36.4118 26.5993 36.5758 26.6484C36.5759 26.6485 35.4521 27.1519 33.791 26.3507Z" fill="#5A3719"/>
<path d="M28.9969 25.5352C28.9969 25.5352 29.0052 25.6088 29.2184 25.704C29.4317 25.7992 29.5465 25.9695 29.5917 26.0616C29.6368 26.1537 29.7455 26.2915 29.9219 26.3354C29.9219 26.3354 29.1695 26.4925 28.8323 26.1011C28.8323 26.1011 28.5766 25.8191 28.9888 25.5352" fill="black"/>
<path d="M34.9169 27.2716C34.9169 27.2716 34.6175 27.2531 34.2115 27.112C33.8055 26.9708 33.6987 27.0905 33.4691 26.9186C33.2395 26.7466 32.776 26.8541 32.6899 26.8664C32.6038 26.8787 32.3577 26.8664 32.6653 26.6668C32.6653 26.6668 32.4192 26.6607 32.3248 26.5379C32.3248 26.5379 32.2141 26.6453 31.7999 26.6054C31.7999 26.6054 31.9844 26.8953 31.2421 26.8118C31.2421 26.8118 31.4636 27.069 31.7302 27.1212C31.9968 27.1734 32.108 27.1561 32.2798 27.1058C32.2798 27.1058 32.2305 27.3299 32.575 27.4159C32.9196 27.5018 32.9893 27.5694 33.1657 27.6399C33.1657 27.6399 33.1903 27.4956 32.7309 27.1611C32.7309 27.1611 32.977 27.1487 33.3297 27.2347C33.6823 27.3207 34.4821 27.5264 34.9169 27.2716ZM35.1028 27.6154C35.1028 27.6154 35.1766 27.7873 35.4036 27.7484C35.6305 27.7096 36.0038 27.643 36.3647 27.8272C36.3647 27.8272 36.4262 27.5202 35.7016 27.4987C35.7016 27.4987 35.2478 27.5233 35.1028 27.6154ZM28.9671 25.6446C28.9671 25.6446 28.6882 25.8738 28.9411 26.1122C29.1722 26.33 29.529 26.3107 29.6999 26.3046C29.6999 26.3046 29.5973 26.2463 29.5071 26.1112C29.4169 25.9762 29.4138 25.8849 29.2241 25.7981C29.0272 25.7081 29.004 25.6846 28.9671 25.6446ZM28.6745 24.4536C28.6745 24.4536 28.2562 25.3346 29.9008 25.5525C29.9008 25.5525 29.9049 25.4543 29.9705 25.3161C30.0361 25.178 30.1797 24.8987 30.0443 24.7175C29.909 24.5364 30.155 24.6316 30.192 24.3952C30.2289 24.1588 30.1674 24.1926 30.2822 24.0391C30.2822 24.0391 29.7655 24.2263 29.5685 24.4535C29.3717 24.6807 29.8352 24.8526 29.5603 25.1012C29.5603 25.1012 29.3307 25.0183 29.1953 24.7696C29.1954 24.7697 28.8755 24.7759 28.6745 24.4536Z" fill="#5A3719"/>
<path d="M33 26.484C33 26.484 33.3445 26.4287 34.2222 26.7572C35.0999 27.0857 35.4649 27.0028 35.5962 26.9936C35.5962 26.9936 35.1011 27.2522 34.3343 26.9146C33.6563 26.616 33.6111 26.7296 33 26.484Z" fill="black"/>
<path d="M38.4932 26.2902C38.4932 26.2902 38.6936 26.2834 38.8104 26.3383C38.8104 26.3383 38.8869 26.2728 39.0702 26.2534C39.0702 26.2534 38.9498 26.1326 38.4932 26.2902ZM37.8931 25.8042C37.8931 25.8042 38.0941 25.795 38.1542 25.6988C38.1542 25.6988 38.0531 25.5699 37.8986 25.5085C37.8986 25.5085 37.93 25.6456 37.8931 25.8042ZM31.149 23.5612C31.149 23.5612 31.1121 23.463 31.3212 23.4323C31.5304 23.4016 34.2647 23.0117 34.2647 23.0117C34.2647 23.0117 34.4096 23.0115 34.4301 23.1069C34.4523 23.21 34.4137 23.2871 33.7534 23.3643C33.0931 23.4415 31.35 23.6594 31.35 23.6594C31.35 23.6594 31.1653 23.6902 31.149 23.5612Z" fill="#FFC221"/>
<path d="M33.8164 23.4458C33.8164 23.4458 33.8164 23.8326 34.2102 23.8899C34.5922 23.9455 34.7235 23.866 34.8254 23.6649C34.8521 23.612 34.9693 23.2082 34.7997 23.1774C34.733 23.1653 34.6147 23.1722 34.5301 23.2083C34.3984 23.2646 34.2761 23.3306 34.3196 23.3966C34.4126 23.5378 34.4307 23.5705 34.3962 23.5808C34.3017 23.6088 34.2322 23.5258 34.213 23.4682C34.189 23.3965 34.265 23.3504 34.0079 23.3884C33.9028 23.4039 33.8164 23.4007 33.8164 23.4458Z" fill="#FFC221"/>
<path d="M35.4554 23.1447C35.6566 23.1679 35.6413 23.5934 35.4007 23.7858C35.1416 23.993 34.8943 23.9189 34.8943 23.9189C34.7636 23.8637 34.78 23.882 34.8812 23.7286C34.9769 23.5833 35.0221 23.3877 34.9686 23.2517C34.9516 23.2082 34.9987 23.173 35.0655 23.1586C35.0656 23.1586 35.2476 23.1207 35.4554 23.1447Z" fill="#FFC221"/>
<path d="M35.6294 23.1846C35.6294 23.1846 35.773 23.3653 35.5938 23.6983C35.5938 23.6983 35.5146 23.7965 35.6923 23.7821C35.87 23.7678 36.2665 23.5775 36.2254 23.3339C36.2254 23.3339 36.2117 23.2746 36.1078 23.2807C36.0039 23.2868 36.0887 23.2234 36.1325 23.2112C36.1762 23.1989 36.3115 23.1487 35.9602 22.9226C35.9602 22.9226 35.9023 22.8704 35.8345 22.8919C35.7809 22.9089 35.5938 22.9857 35.5938 23.0945C35.5938 23.1392 35.6294 23.1846 35.6294 23.1846Z" fill="#FFC221"/>
<path d="M36.0122 22.8729C36.0122 22.8729 36.2925 23.0738 36.2912 23.1335C36.2898 23.1932 36.2652 23.2741 36.3391 23.2669C36.4129 23.2598 36.7164 23.1953 36.633 22.9948C36.5496 22.7942 36.4661 22.7236 36.3254 22.6745C36.1845 22.6254 36.149 22.6919 36.0287 22.7829C36.0287 22.7829 35.9412 22.8361 36.0122 22.8729ZM34.4961 23.1564C34.4961 23.1564 34.5426 23.007 34.291 22.9518C34.291 22.9518 34.3976 22.8638 34.6109 22.9109C34.8227 22.9576 34.8001 23.0972 34.7985 23.1155C34.7985 23.1155 34.6328 23.1093 34.4961 23.1564ZM35.043 23.1216C35.043 23.1216 35.3344 23.0706 35.464 23.0869C35.464 23.0869 35.3205 22.7656 34.9322 22.875C34.9322 22.875 35.0716 23.0326 35.043 23.1216ZM35.5419 23.0418C35.5419 23.0418 35.5419 22.9436 35.7894 22.8453C35.7894 22.8453 35.6693 22.7323 35.5023 22.743C35.311 22.7553 35.2727 22.8248 35.2727 22.8248C35.2727 22.8248 35.4805 22.897 35.5419 23.0418ZM35.639 22.7062C35.639 22.7062 35.7921 22.7451 35.8878 22.8269C35.8878 22.8269 36.033 22.6685 36.1558 22.6346C36.1558 22.6346 35.9152 22.5056 35.639 22.7062Z" fill="#FFC221"/>
<path d="M27.5886 21.9347C27.5886 21.9347 28.2642 21.3623 28.6427 21.4313C29.0211 21.5002 28.8313 21.4527 29.2456 21.3883C29.6598 21.3238 30.0864 21.2809 30.2587 21.3023C30.2587 21.3023 29.7583 20.9432 28.8642 20.9493C28.8642 20.9493 28.2326 21.1672 27.7978 21.4558C27.7978 21.4558 26.9611 20.9892 26.0957 21.2685C26.0957 21.2685 27.0349 21.6092 27.5886 21.9347Z" fill="#5A3719"/>
<path d="M34.7727 22.9275L34.8855 22.9086C34.8855 22.9086 35.0758 23.1443 34.9375 23.1469C34.8295 23.1491 34.8732 23.1137 34.8527 23.0451C34.8322 22.9766 34.7953 22.9459 34.7727 22.9275ZM33.9238 22.9459C33.9238 22.9459 33.8561 23.0301 33.9832 23.0104C34.1381 22.9864 34.1083 23.0155 34.2785 22.9003C34.2785 22.9003 34.3831 22.7893 34.5779 22.8584C34.5779 22.8584 34.742 22.9122 34.8753 22.8477C35.0085 22.7833 35.0393 22.7879 35.111 22.794C35.1828 22.8001 35.178 22.8156 35.2738 22.7457C35.3695 22.6758 35.5356 22.7295 35.6402 22.642C35.7448 22.5545 35.876 22.6282 35.6402 22.4593C35.6402 22.4593 35.5909 22.4102 35.595 22.3688C35.595 22.3688 35.6852 22.3948 35.757 22.4593C35.8288 22.5238 35.9478 22.5038 35.9683 22.4931C35.9683 22.4931 35.9806 22.2828 36.1898 22.0894C36.3989 21.896 36.401 21.8807 36.278 21.8791C36.1549 21.8776 35.9478 21.83 35.8781 21.8791C35.8084 21.9282 35.1951 22.3303 34.8384 22.3979C34.4816 22.4655 34.1534 22.5668 33.9238 22.9459ZM24.4023 20.746C24.4023 20.746 25.4974 21.0283 25.7435 21.1471C25.7435 21.1471 25.8022 20.9639 25.3046 20.8206C25.3046 20.8206 26.5132 20.7838 27.7928 21.365C27.7928 21.365 28.4096 20.8361 30.3947 20.9998C30.3947 20.9998 30.3986 20.8245 30.4123 20.6897C30.4123 20.6897 29.0178 20.6488 27.7381 19.8711C27.7381 19.871 26.5925 20.4349 24.4023 20.746ZM30.4888 21.2749C30.4123 20.1555 30.8415 20.0553 30.8415 20.0553C30.8415 20.0553 31.0437 20.0564 31.2626 20.09C31.2626 20.09 30.9235 20.4932 31.0137 21.2934C31.0137 21.2934 31.0493 21.4223 30.7622 21.4223C30.4796 21.4223 30.4888 21.2749 30.4888 21.2749Z" fill="#FFC221"/>
<path d="M30.7824 22.0162C30.7824 22.0162 30.5746 21.8033 30.5527 21.5577C30.5527 21.5577 30.5473 21.4943 30.7578 21.5004C30.9683 21.5065 30.9958 21.4802 31.0476 21.6027C31.098 21.7219 31.2308 21.9732 31.2636 22.0018L30.7824 22.0162Z" fill="#5A3719"/>
<path d="M31.2316 21.4592C31.2125 21.3127 31.2051 21.1878 31.2085 21.0337C31.2221 20.4095 31.3257 20.4649 31.3668 20.5428L31.5803 20.5467C31.5803 20.5467 31.4245 19.8426 31.2413 20.254C31.0613 20.658 31.0745 20.9211 31.0964 21.2404C31.109 21.4243 31.1332 21.5388 31.1537 21.6076L31.2316 21.4592Z" fill="#FFC221"/>
<path d="M33.6419 21.4604C33.6419 21.4604 34.0541 21.5234 33.4224 21.6738C33.4224 21.6738 33.4532 22.437 34.1997 21.9025C34.1997 21.9025 34.6406 21.6206 34.9461 21.506C34.9461 21.506 35.0999 21.4527 35.0815 21.3376C35.0815 21.3376 35.0938 21.202 34.9338 21.2286C34.9338 21.2286 34.8078 21.2316 34.7266 21.202C34.7266 21.202 34.6384 21.0981 34.579 21.138C34.5195 21.1779 34.38 21.1549 34.4888 21.2869C34.5975 21.4189 34.6302 21.3851 34.6836 21.3468C34.7369 21.3084 34.9727 21.2148 34.7554 21.4097C34.538 21.6046 34.3678 21.3023 34.298 21.247L33.6419 21.4604ZM31.5789 21.5469L31.3957 21.5428C31.3957 21.5428 31.2973 21.6902 31.2301 21.4588L31.1523 21.6071C31.1523 21.6071 31.3793 22.4266 31.5789 21.5469Z" fill="#5A3719"/>
<path d="M31.32 20.5982C31.32 20.5982 31.2271 21.1344 31.3447 21.466L33.327 21.5028C33.327 21.5028 33.3024 21.1181 33.3325 20.5983H33.0509C33.0509 20.5983 33.0126 21.0301 33.0482 21.2961L33.0017 21.297C33.0017 21.297 32.9662 20.9237 33.0044 20.5983H32.772C32.772 20.5983 32.7337 20.9974 32.7638 21.3002H32.72C32.72 21.3002 32.6872 20.9503 32.7255 20.5983H32.4958C32.4958 20.5983 32.4536 20.9597 32.4987 21.2953L32.4439 21.2941C32.4439 21.2941 32.3974 20.9278 32.4466 20.5983H32.1923C32.1923 20.5983 32.1295 20.936 32.1896 21.2982H32.1376C32.1376 21.2982 32.0802 20.9523 32.1431 20.5983H31.8888C31.8888 20.5983 31.8286 20.981 31.8806 21.2982H31.8313C31.8313 21.2982 31.7903 20.9278 31.845 20.5983H31.6071C31.6071 20.5983 31.5442 20.9216 31.5962 21.2982H31.5442C31.5442 21.2982 31.5059 21.0178 31.5551 20.5983L31.32 20.5982ZM33.4145 21.5765C33.4145 21.5765 33.3597 20.6064 33.5458 20.3568C33.7319 20.1072 33.77 20.1562 34.0871 20.3568C34.4043 20.5573 34.8145 20.7743 34.8801 20.7988C34.9457 20.8234 35.0387 20.8479 35.0387 21.024C35.0387 21.2 35.0715 21.2531 34.7981 21.0322C34.7571 20.999 34.6292 20.882 34.5369 20.8526C34.2919 20.7744 34.5958 20.9075 34.6832 21.0322C34.7573 21.1379 34.8145 21.1263 34.6231 21.1754C34.4317 21.2246 33.77 21.4455 33.4145 21.5765Z" fill="#FFC221"/>
<path d="M34.1084 20.8827C34.1084 20.8827 33.9648 20.7013 34.1473 20.6598C34.3298 20.6184 34.3442 20.9468 34.3749 21.1448C34.4057 21.3428 34.1453 20.9447 34.1084 20.8827ZM33.8418 21.7281C33.8418 21.7281 33.6286 21.8064 33.768 21.8754C33.9075 21.9445 34.3012 21.6176 34.1659 21.639C34.0305 21.6606 33.8418 21.7281 33.8418 21.7281ZM34.131 21.4288C34.131 21.4288 34.3196 21.4104 34.2827 21.4917C34.2458 21.5731 34.1781 21.5214 34.1495 21.5035C34.1207 21.4856 33.9874 21.4395 34.131 21.4288Z" fill="black"/>
<path d="M35.1367 21.1787C35.1367 21.1787 35.1873 21.548 35.5045 21.6417C35.5045 21.6417 35.6877 21.6872 35.6494 21.5256C35.6494 21.5256 35.618 21.3905 35.592 21.3342C35.566 21.2779 35.4389 21.2421 35.4252 21.236C35.4115 21.2299 35.3951 21.191 35.4827 21.2196C35.5701 21.2483 35.5838 21.2514 35.577 21.19C35.5701 21.1286 35.5187 21.1533 35.4383 21.114C35.4074 21.0989 35.4416 21.0784 35.4745 21.0856C35.5073 21.0928 35.5852 21.1163 35.5866 20.9895C35.5866 20.9895 35.6039 20.9189 35.5073 20.9137C35.402 20.9081 35.4102 20.861 35.4431 20.8539C35.4759 20.8467 35.5861 20.9231 35.6167 20.7976C35.6481 20.6686 35.4649 20.7429 35.4895 20.6763C35.5141 20.6098 35.644 20.7143 35.6548 20.6354C35.6652 20.5587 35.7701 20.5253 35.5915 20.5005C35.5067 20.4888 35.5851 20.4512 35.6802 20.4646C35.7821 20.4789 35.8436 20.353 35.9024 20.3121C35.9613 20.2712 36.2935 20.0727 35.8505 20.1381C35.4075 20.2036 35.2777 20.4185 35.249 20.4615C35.2201 20.5044 35.097 20.7581 35.1367 21.1787Z" fill="#FFC221"/>
<path d="M36.1674 21.4635C36.2243 21.4526 36.2781 21.468 36.2975 21.5077C36.3704 21.6573 36.2032 21.6039 36.1102 21.7144C36.0173 21.8249 36.0145 21.8024 35.8833 21.7637C35.752 21.7251 35.7028 21.5261 35.7028 21.5261C35.6882 21.4651 35.7449 21.4599 35.8129 21.4677C35.8128 21.4677 36.0304 21.4899 36.1674 21.4635ZM35.6877 21.3839C35.6877 21.3839 35.6969 21.4287 35.7721 21.4348C35.8473 21.441 36.0657 21.4599 36.1956 21.418C36.1956 21.418 36.2435 21.4086 36.222 21.324C36.222 21.324 36.2202 21.2691 36.1033 21.2913C35.9864 21.3136 35.8173 21.2913 35.7609 21.279C35.7045 21.2668 35.6586 21.2801 35.6877 21.3839ZM35.6699 21.1159C35.6699 21.1159 35.6658 21.2325 35.7834 21.2479C35.901 21.2632 36.0474 21.2626 36.1083 21.2506C36.1549 21.2414 36.2387 21.2244 36.2455 21.1558C36.2523 21.0872 36.2715 21.036 36.1266 21.0719C35.9816 21.1077 35.8067 21.0842 35.7889 21.0801C35.7711 21.076 35.6727 21.0463 35.6699 21.1159ZM35.7233 20.8805C35.7233 20.8805 35.6946 20.9337 35.6987 20.9849C35.7028 21.0361 35.7875 21.0535 35.9407 21.0555C36.0938 21.0576 36.2305 21.0351 36.24 20.9839C36.2496 20.9327 36.2865 20.8734 36.1662 20.8918C36.0459 20.9103 35.8941 20.9154 35.834 20.8908C35.7738 20.8662 35.7334 20.8577 35.7233 20.8805Z" fill="#FFC221"/>
<path d="M41.3458 21.4735C41.3458 21.4735 41.3438 21.5802 41.4278 21.6853L37.1777 21.5633C37.1777 21.5633 37.2398 21.5249 37.2556 21.3594L41.3458 21.4735Z" fill="#5A3719"/>
<path d="M35.7569 20.7052C35.7569 20.7052 35.72 20.8127 35.7966 20.8342C35.8732 20.8556 36.0044 20.8792 36.1781 20.8516C36.1781 20.8516 36.2656 20.8577 36.2957 20.7646C36.3257 20.6715 36.3227 20.7237 36.0754 20.6746C36.0754 20.6746 35.9976 20.6519 36.2232 20.651C36.2232 20.651 36.349 20.6551 36.3682 20.6336C36.3873 20.6121 36.5541 20.4801 36.3381 20.4883C36.1221 20.4965 36.2287 20.4504 36.3381 20.4504C36.4474 20.4504 36.4816 20.473 36.5171 20.4381C36.5527 20.4033 36.5199 20.4269 36.461 20.3675C36.4023 20.3082 36.4433 20.3255 36.4857 20.3583C36.5281 20.391 36.554 20.4013 36.6019 20.3593C36.6498 20.3173 36.5649 20.256 36.6019 20.2631C36.6388 20.2702 36.6566 20.3403 36.796 20.2728C36.9354 20.2053 37.1241 20.2405 37.1753 20.2789C37.2266 20.3173 37.3722 20.3664 37.4604 20.2758C37.5486 20.1853 37.3558 20.1116 37.4379 20.0993C37.5199 20.087 37.5773 20.1161 37.6102 20.0502C37.643 19.9842 37.483 19.9212 37.6368 19.8798C37.7906 19.8384 37.6614 19.4071 37.6081 19.3672C37.6081 19.3672 37.4358 19.4685 37.2471 19.7739C37.0584 20.0793 36.9478 20.2574 36.6914 20.1638C36.3216 20.0287 36.1326 20.2229 36.0753 20.2579C35.9866 20.3121 36.2607 20.3388 36.1008 20.3418C35.9408 20.3449 35.9408 20.3586 35.9245 20.3833C35.9081 20.4078 35.9224 20.4293 35.9511 20.4308C35.9799 20.4324 36.0413 20.4938 35.9429 20.4907C35.8445 20.4876 35.7747 20.4722 35.8037 20.5769C35.8037 20.5769 35.8055 20.5997 35.8629 20.6058C35.9203 20.6119 35.9408 20.6718 35.8342 20.6718C35.7658 20.672 35.759 20.6985 35.7569 20.7052ZM36.15 21.7709C36.15 21.7709 36.0741 21.8246 36.1787 21.8307C36.2833 21.8369 36.3387 21.8568 36.3715 21.8008C36.4043 21.7448 36.5458 21.7678 36.4515 21.6895C36.3571 21.6113 36.2936 21.6558 36.15 21.7709Z" fill="#FFC221"/>
<path d="M36.5893 20.4905C36.5893 20.4905 36.9431 20.1575 37.2389 20.3831C37.5347 20.6088 37.5633 20.6425 37.5675 20.6471C37.5716 20.6517 37.6023 20.6763 37.5223 20.7469C37.4423 20.8176 37.5202 20.816 37.6084 20.773C37.6966 20.73 37.7027 20.7699 37.7458 20.8175C37.7889 20.8651 37.8465 20.8927 37.71 20.8942C37.5736 20.8957 37.2803 20.8942 37.2803 20.8942C37.2803 20.8942 37.0814 20.9111 37.1819 20.8298C37.2824 20.7484 37.268 20.6517 37.2167 20.6456C37.1655 20.6395 37.2126 20.6947 37.1819 20.7331C37.1511 20.7715 37.0814 20.8068 37.0117 20.8052C36.942 20.8037 36.8804 20.8557 36.9912 20.8957C37.1019 20.9357 36.9788 20.9619 36.9215 20.9603C36.8641 20.9587 36.5872 20.9818 36.8682 21.0156C37.1491 21.0493 36.8428 21.0412 37.0486 21.1588C37.2762 21.2888 37.1122 21.5651 37.0261 21.5896C37.0261 21.5896 36.9318 21.6409 37.0507 21.6268C37.1697 21.6127 37.2352 21.5957 37.1512 21.6602C37.0671 21.7246 36.899 21.9395 36.6652 21.7753C36.6652 21.7753 36.5586 21.7247 36.7493 21.7155C36.94 21.7063 36.5934 21.6655 36.5361 21.6268C36.4787 21.588 36.2592 21.364 36.3966 21.3916C36.534 21.4193 36.4848 21.3394 36.4027 21.3103C36.3206 21.2811 36.3043 21.1552 36.3966 21.1829C36.4889 21.2105 36.5975 21.2619 36.6714 21.2585C36.7452 21.255 36.7248 21.2243 36.5668 21.1752C36.4089 21.1261 36.3432 21.1184 36.3802 20.9849C36.4171 20.8514 36.5893 21.0371 36.5484 20.9373C36.5074 20.8375 36.3576 20.8867 36.4376 20.7546C36.5176 20.6227 36.5361 20.6794 36.573 20.6963C36.6099 20.7132 36.669 20.7006 36.5648 20.6227C36.499 20.5734 36.5707 20.5068 36.5893 20.4905Z" fill="#FFC221"/>
<path d="M36.8438 20.5818C36.8438 20.5818 36.8417 20.5373 36.9052 20.545C36.9688 20.5527 36.9524 20.5219 36.9708 20.5127C36.9893 20.5035 37.1484 20.5601 36.9996 20.614C36.9446 20.634 36.8582 20.6197 36.8438 20.5818Z" fill="black"/>
<path d="M37.1836 20.9609C37.1836 20.9609 37.064 21.0218 37.1723 21.1473C37.2646 21.2543 37.2641 21.2882 37.2564 21.3594C37.2486 21.4305 41.3465 21.4735 41.3465 21.4735C41.3465 21.4735 41.3393 21.2103 41.5147 21.0622C41.5147 21.0622 39.2754 21.01 37.1836 20.9609Z" fill="#FFC221"/>
<path d="M41.4159 21.3986C41.4159 21.3986 41.4326 21.1765 41.5554 21.103C41.6231 21.0624 41.7123 21.086 41.7513 21.265C41.8067 21.5196 41.591 21.7362 41.4908 21.6395C41.3954 21.5475 41.4159 21.3986 41.4159 21.3986Z" fill="#5A3719"/>
<path d="M36.7183 22.3572C36.7183 22.3572 36.991 22.1254 37.0321 22.021C37.0321 22.021 37.7703 22.544 37.7252 22.0638C37.7252 22.0638 37.7273 21.935 37.7477 21.8123C37.7477 21.8123 38.0146 21.8385 38.0553 21.6254L37.3663 21.6051C37.3663 21.6051 37.2945 21.5897 37.1879 21.7049C37.0812 21.82 36.8618 21.946 36.6567 21.8361C36.6567 21.8361 36.5709 21.7616 36.4836 21.8245C36.3962 21.8875 36.3921 21.9059 36.4639 21.9734C36.5358 22.041 36.6896 22.2482 36.7183 22.3572ZM38.3035 20.9129L37.8995 20.8975C37.8995 20.8975 37.7518 20.6903 37.4648 20.4601C37.4648 20.4601 37.3807 20.4232 37.5427 20.2943C37.7047 20.1654 37.7518 20.0273 37.758 19.9643C37.7642 19.9014 37.7478 19.8032 37.8093 19.8784C37.8708 19.9536 38.2892 20.3312 38.3486 20.2191C38.4081 20.1071 38.4183 20.0549 38.4286 20.0211C38.4389 19.9874 38.4533 19.883 38.5127 19.992C38.5722 20.101 38.613 20.0731 38.6153 20.3557C38.6153 20.3557 38.6255 20.6351 38.6686 20.7364C38.6685 20.7364 38.1394 20.5669 38.3035 20.9129ZM36.5501 20.0533C36.5501 20.0533 36.8577 20.2253 37.0095 19.9919C37.1612 19.7586 37.2638 19.7218 37.1489 19.4977C37.0341 19.2736 37.1521 19.1692 37.2387 19.0772C37.3253 18.9851 37.3991 19.0004 37.4114 18.6443C37.4237 18.2882 37.6698 18.1685 37.7806 18.058C37.8913 17.9475 38.1702 17.7786 37.7477 17.7081C37.3253 17.6374 36.4886 17.4195 36.2712 17.0941C36.0539 16.7688 35.9554 16.9622 35.9513 16.9744C35.9472 16.9867 35.8775 17.2261 36.0949 17.659C36.3123 18.0918 36.4968 18.3701 36.706 18.5103C36.9152 18.6505 37.1039 18.7272 36.9972 19.0158C36.8905 19.3043 36.706 19.8201 36.5501 20.0533Z" fill="#7B3C20"/>
<path d="M37.686 19.1335C37.686 19.1335 37.7393 19.8733 38.2807 20.1374C38.2807 20.1374 38.4037 19.8488 38.3545 19.5633C38.3545 19.5633 38.5308 19.5786 38.58 19.6585C38.58 19.6585 38.5883 19.4436 38.334 19.3653C38.0796 19.287 38.2027 18.8051 38.2929 18.7498C38.3831 18.6946 38.3544 18.5984 38.2929 18.5115C38.2314 18.4245 38.215 18.2925 38.4283 18.3477C38.6415 18.403 38.6087 18.2894 38.4816 18.185C38.3545 18.0806 38.3586 17.9517 38.539 17.9517C38.7194 17.9517 39.0189 17.7768 38.8384 17.7215C38.6579 17.6663 38.6005 17.6079 38.8466 17.5373C39.0927 17.4667 39.2116 17.3777 39.027 17.3562C38.8425 17.3348 38.7194 17.2703 38.8999 17.2396C39.0803 17.2089 38.867 17.0247 38.6579 17.0155C38.4487 17.0063 37.9976 17.0923 38.3544 16.8068C38.7112 16.5213 37.8417 16.73 38.1985 16.5428C38.5554 16.3555 38.0796 16.4384 38.014 16.4353C37.9484 16.4323 37.9491 16.4353 37.9733 16.3402C37.9976 16.245 37.9237 16.202 37.8212 16.2603C37.7186 16.3186 37.7186 16.3186 37.7227 16.1866C37.7268 16.0547 37.5997 16.1529 37.5218 16.1866C37.4439 16.2204 37.247 16.3677 37.1691 16.288C37.0912 16.2082 37.046 16.1252 36.804 16.2726C36.562 16.4199 36.6195 16.288 36.6236 16.2235C36.6277 16.1591 36.7179 15.9043 36.3857 16.1774C36.0535 16.4507 36.3242 15.8827 36.0617 16.0761C35.7992 16.2695 35.7705 16.3033 35.7295 16.2173C35.6885 16.1314 35.6388 16.0608 35.3498 16.245C35.0609 16.4291 35.2742 16.1345 35.3152 16.07C35.3562 16.0056 35.4793 15.588 35.225 15.9135C35.225 15.9135 35.1019 16.1406 34.8271 15.7354C34.8271 15.7354 34.536 16.138 34.4621 15.9597C34.3883 15.7815 34.3144 15.7631 34.2201 15.8797C34.1258 15.9964 34.1955 15.8736 34.1545 15.7753C34.1135 15.677 34.0889 15.496 33.6049 15.849C33.1209 16.202 33.7731 15.9442 33.404 16.1038C33.0348 16.2634 32.1448 16.7668 32.961 16.6502C33.7772 16.5335 32.5632 16.9694 32.8462 17.0493C33.1292 17.1291 33.0389 17.3746 34.1012 17.083C35.1635 16.7914 34.9912 17.037 35.5326 16.8037C36.0739 16.5704 35.4095 16.8835 36.1355 16.8681C36.8615 16.8528 36.2586 16.8712 36.398 17.0216C36.5375 17.172 37.1526 17.5282 37.7268 17.5865C38.301 17.6448 38.4405 17.4299 38.2764 17.6786C38.1123 17.9272 38.055 18.0224 37.9565 18.1083C37.8581 18.1943 37.5874 18.3907 37.5833 18.7346C37.5792 19.0784 37.1321 19.1337 37.2962 19.5143C37.2964 19.5142 37.5507 19.2686 37.686 19.1335Z" fill="#5A3719"/>
<path d="M38.6322 19.9622C38.6322 19.9622 38.5009 19.8701 38.5036 19.7064C38.5036 19.7064 38.5966 19.7227 38.6322 19.7821C38.6322 19.7821 38.963 19.4076 38.5679 19.2726C38.1728 19.1375 38.3696 18.7794 38.5036 18.7773C38.6376 18.7752 38.6609 18.7384 38.5481 18.589C38.4352 18.4396 38.4435 18.4335 38.6677 18.3946C38.8919 18.3558 38.8614 18.3087 38.7618 18.2534C38.6622 18.1982 38.5858 18.1081 38.5858 18.1081C38.5858 18.1081 39.22 17.8319 39.0149 17.705C38.8097 17.5782 39.0149 17.6109 39.198 17.4799C39.3812 17.3489 39.4058 17.3244 39.4332 17.2732C39.4332 17.2732 39.2521 17.2916 39.1185 17.265C39.1185 17.265 39.2767 17.1872 39.1185 17.0582C38.9601 16.9293 38.8945 16.8126 38.643 16.872C38.3914 16.9313 38.4734 16.8474 38.5719 16.743C38.6703 16.6386 38.6238 16.5793 38.4461 16.5527C38.4461 16.5527 38.468 16.4463 38.602 16.3133C38.602 16.3133 38.2602 16.3378 38.1454 16.2785C38.1454 16.2785 38.2821 16.1844 38.293 16.0718C38.293 16.0718 38.1044 16.1332 37.8665 16.1106C37.8665 16.1106 38.006 15.9899 38.006 15.8835C38.006 15.8835 37.5931 15.9756 37.4017 16.1209C37.4017 16.1209 37.3607 16.1127 37.3279 16.0677C37.2951 16.0227 37.2704 15.9776 36.8138 16.1229C36.8138 16.1229 36.8658 15.9203 36.9752 15.8384C37.0845 15.7566 37.0681 15.5928 36.3572 16.0369C36.3572 16.0369 36.2615 15.9796 36.1822 15.7668C36.1822 15.7668 36.0291 15.9837 35.9115 16.0574C35.9115 16.0574 35.8131 16.0987 35.8254 15.9604C35.8377 15.8221 35.7557 15.9206 35.6818 15.9604C35.608 16.0001 35.5588 16.0983 35.5957 15.819C35.6326 15.5396 35.4973 15.4813 35.4973 15.4813C35.4973 15.4813 35.2758 15.7944 35.1487 15.8282C35.1487 15.8282 34.9149 15.601 34.8329 15.4506C34.7509 15.3002 34.7509 15.2449 34.6688 15.5058C34.5868 15.7668 34.4843 15.7882 34.4843 15.7882C34.4843 15.7882 34.3448 15.6685 34.3284 15.6041C34.3284 15.6041 34.3037 15.6747 34.2587 15.7054C34.2587 15.7054 34.1356 15.5611 34.1397 15.3523C34.1397 15.3523 33.3769 15.7729 33.2826 16.0277C33.2826 16.0277 32.5607 15.9847 32.2613 16.04C32.2613 16.04 32.3351 15.8067 32.5238 15.6901C32.5238 15.6901 32.3352 15.6686 32.327 15.4752C32.327 15.4752 32.4788 15.4967 32.5731 15.4722C32.6674 15.4476 32.4418 15.1744 32.6797 15.1682C32.9176 15.1621 33.0694 15.2818 32.9627 14.9656C32.856 14.6495 32.9053 14.6495 32.9053 14.6495C32.9053 14.6495 33.3195 14.8951 33.3852 14.8337C33.4508 14.7722 33.3318 14.6403 33.701 14.7017C34.0701 14.7631 33.9676 14.5513 34.1111 14.5421C34.2546 14.5328 34.3325 14.6341 34.2423 13.965C34.1521 13.2958 34.6894 14.2965 34.3243 13.2866C34.3243 13.2866 34.232 12.9812 34.0126 12.8507C34.0126 12.8507 33.9634 13.0717 33.7153 12.8768C33.4672 12.6818 32.9791 12.6127 33.1841 12.4593C33.3892 12.3058 33.4856 12.1002 33.4261 11.9712C33.4261 11.9712 33.1843 12.224 32.7637 12.0434C32.4315 11.9006 32.3618 12.1631 32.0214 12.0864C32.0214 12.0864 32.0275 11.9989 32.3147 11.7732C32.6018 11.5476 32.1486 11.8485 31.9702 11.8884C31.7917 11.9282 31.7405 11.8961 32.1178 11.6044C32.4952 11.3128 33.2416 10.797 33.1391 10.3734C33.1391 10.3734 33.3154 10.5975 33.7789 10.4348C34.2423 10.2722 34.5869 10.2138 34.7263 9.97438C34.8658 9.7349 35.2308 9.49241 35.3251 9.44021C35.4195 9.38801 35.5466 9.35122 35.403 9.57838C35.2595 9.80554 35.0257 10.1954 34.3859 10.4594C33.7461 10.7234 33.5 10.9168 33.3852 11.0549C33.2703 11.193 32.6879 11.5031 33.0653 11.4509C33.4426 11.3987 34.0988 11.4601 33.7913 11.371C33.4837 11.282 33.135 11.4263 33.418 11.1684C33.701 10.9106 33.7502 10.8246 34.1603 10.6527C34.5704 10.4808 35.0257 10.0878 34.9806 10.5053C34.9355 10.9228 34.1726 11.3679 33.984 11.5029C33.7954 11.638 33.865 11.6166 33.8692 11.6718C33.8733 11.727 33.8404 11.8406 33.7625 11.8928C33.6846 11.945 33.7092 12.0033 33.7297 12.12C33.7502 12.2366 33.7092 12.2827 33.7666 12.3011C33.8241 12.3194 33.8815 12.3287 33.8979 12.4116C33.9143 12.4944 33.9574 12.5052 34.0681 12.496C34.1788 12.4867 34.2485 12.4975 34.2567 12.562C34.2649 12.6264 34.3695 12.7139 34.3818 12.5175C34.3941 12.321 34.4659 12.2826 34.2649 12.3732C34.064 12.4638 34.0209 12.4315 34.025 12.3379C34.0291 12.2443 34.0066 12.2658 33.9225 12.2581C33.8384 12.2504 33.8097 12.1322 33.9594 12.054C34.1091 11.9757 34.1071 12.0555 34.2937 11.9004C34.4804 11.7454 34.4804 11.7024 34.5091 11.6303C34.5378 11.5582 34.2425 11.8406 34.101 11.9051C33.9595 11.9695 33.9964 11.8606 34.021 11.6994C34.0456 11.5381 34.3984 11.3279 34.5604 11.3248C34.7224 11.3217 35.0874 11.4169 34.9295 11.6379C34.7716 11.859 34.3246 12.1214 34.5173 12.1414C34.71 12.1613 34.7409 12.0861 34.8516 12.1843C34.9623 12.2826 34.8598 12.4821 34.8085 12.588C34.7573 12.694 34.6506 12.8275 34.6035 12.8521C34.6035 12.8521 34.4004 12.4898 34.4066 12.7768C34.4128 13.0638 34.3636 13.1667 34.4066 13.1774C34.4497 13.1882 34.6753 13.3386 34.747 13.3417C34.8188 13.3448 34.3574 13.5581 34.5502 13.5719C34.7429 13.5858 35.0485 13.4875 35.1551 13.288C35.1551 13.288 34.7635 13.1928 34.6056 13.0455C34.6056 13.0455 35.0629 12.938 34.9358 12.4975C34.9358 12.4975 35.391 12.6219 35.1942 12.8275C34.9973 13.0332 34.8784 13.0025 35.0486 13.0608C35.2188 13.1191 35.3029 13.1682 35.3029 13.1682C35.3029 13.1682 35.4193 13.2265 35.3519 13.3217C35.2844 13.4169 35.2824 13.5612 35.3398 13.5581C35.3971 13.555 35.59 13.466 35.428 13.3678C35.266 13.2696 35.6125 13.2864 35.4649 13.2036C35.3172 13.1207 35.2783 13.1008 35.2393 13.0608C35.2004 13.0209 37.0932 11.9112 36.1375 12.3271C36.1375 12.3271 36.3364 11.8958 36.6153 11.8943C36.8942 11.8927 36.9147 12.1137 36.7568 12.281C36.5989 12.4484 36.4964 12.7093 36.1252 12.7706C36.1252 12.7706 36.6556 13.0306 36.0288 13.4552C36.0288 13.4552 35.8928 13.5197 35.942 13.5667C35.9912 13.6138 36.363 13.403 36.415 13.2844C36.467 13.1656 36.5463 13.0735 36.6885 13.004C36.8307 12.9344 37.5306 12.4576 37.7412 12.0974C37.9517 11.7372 38.0092 11.7249 38.4193 11.3954C38.8294 11.066 38.7583 11.1314 38.8103 11.0516C38.8623 10.9719 38.8841 10.8408 39.0728 10.7344C39.2615 10.628 39.9943 10.2208 40.2239 10.0549C40.4536 9.8892 40.9239 9.58428 41.1263 9.32638C41.3286 9.06854 41.8735 8.73914 42.0094 8.80042C42.1454 8.86169 41.9957 9.05422 41.6758 9.29772C41.3559 9.54122 40.563 10.1818 40.4345 10.28C40.306 10.3782 39.6333 10.8694 39.3818 10.9022C39.1302 10.9349 39.1576 11.0229 39.0071 11.1866C38.8567 11.3504 38.5095 11.6942 38.3919 11.7883C38.2743 11.8824 37.9954 12.0748 37.9791 12.2099C37.9626 12.345 38.0283 12.3613 37.8041 12.5721C37.5799 12.783 36.9237 13.2597 36.6858 13.3355C36.6858 13.3355 37.1068 13.4747 36.8553 13.7591C36.6037 14.0436 36.6201 14.0026 36.601 14.0211C36.601 14.0211 37.2403 13.927 36.7869 14.4242C36.7869 14.4242 36.6994 14.5675 36.9017 14.4181C37.118 14.2584 37.0248 14.0395 37.0001 14.0088C37.0001 14.0088 37.3392 13.7979 37.7302 13.7918C38.1213 13.7857 38.1076 13.7591 37.7576 13.6588C37.7576 13.6588 38.0064 13.3559 38.2169 13.5053C38.4275 13.6547 38.3591 13.7406 38.1377 13.8593C37.9162 13.978 37.5881 14.0271 37.3447 14.1622C37.3447 14.1622 37.8068 14.2523 38.0557 14.064C38.3045 13.8757 38.3154 13.9699 38.3482 14.0026C38.381 14.0353 38.4084 14.0967 38.299 14.2543C38.1895 14.4119 38.1786 14.42 38.1841 14.4549C38.1896 14.4896 38.1759 14.5981 37.9517 14.6349C37.7275 14.6718 37.6263 14.7659 37.7029 14.8723C37.7794 14.9787 37.7821 15.2428 37.5908 15.2182C37.3994 15.1937 37.4513 15.0422 37.3775 14.9828C37.3037 14.9235 37.1998 14.8314 36.8662 15.0054C36.5326 15.1793 36.5052 14.9726 36.5216 14.8642C36.5216 14.8642 36.3056 15.0525 36.1251 14.8785C35.9447 14.7046 36.1087 14.637 36.2126 14.549C36.3165 14.4611 36.7403 14.2769 36.4861 14.3096C36.2318 14.3423 35.8517 14.3587 35.7642 14.1623C35.6767 13.9658 35.9528 13.9883 35.9966 14.0067C36.0404 14.0252 36.2208 14.1705 36.2263 13.9801C36.2318 13.7898 36.5134 13.7693 36.4177 13.7304C36.322 13.6915 36.188 13.8123 36.1497 13.8594C36.1497 13.8594 35.9528 13.5851 35.6357 13.6752C35.3185 13.7652 35.7368 13.7284 35.8216 13.7427C35.9063 13.757 35.8571 13.9146 35.5727 14.1705C35.2883 14.4263 35.4169 14.3485 35.6275 14.3485C35.838 14.3485 36.3548 14.3505 36.054 14.5961C35.7532 14.8417 35.6329 14.9645 35.4771 14.9215C35.3212 14.8785 35.4962 14.7762 35.5645 14.7332C35.6329 14.6902 35.6739 14.6145 35.5262 14.6698C35.3786 14.7251 35.3266 14.7353 35.2091 14.5265C35.0915 14.3178 35.1407 14.3792 35.1899 14.242C35.2392 14.1049 35.354 13.9596 35.2173 14.0108C35.0806 14.0619 35.0942 14.066 35.1052 13.9085C35.1161 13.7508 34.9493 13.7161 34.9493 13.7161C34.9493 13.7161 35.0149 13.8737 34.9548 13.9739C34.8946 14.0741 34.8919 14.109 34.9903 14.1355C35.0888 14.1622 35.1817 14.2461 35.0477 14.3382C34.9137 14.4302 34.9301 14.418 35.0149 14.4732C35.0996 14.5284 35.2227 14.592 35.0914 14.7208C34.9602 14.8497 35.0695 14.8109 35.1352 14.8109C35.2009 14.8109 35.3493 14.8661 35.3516 14.9931C35.3539 15.1199 35.343 15.1507 35.5563 15.0319C35.7695 14.9132 36.1961 14.9275 36.1906 15.0934C36.1851 15.2591 36.1359 15.3001 36.3629 15.1589C36.5899 15.0177 36.691 15.2919 36.8469 15.1589C37.0027 15.0258 37.1012 14.8969 37.2816 15.1241C37.462 15.3513 37.4058 15.42 37.1859 15.5804C36.966 15.7409 37.2925 15.6173 37.4594 15.5313C37.6262 15.4454 38.0937 15.3881 38.3617 15.5068C38.6296 15.6255 38.7062 15.5989 38.903 15.517C39.0999 15.4351 39.201 15.4167 39.4991 15.6152C39.7971 15.8137 40.0295 15.8506 40.1854 15.8465C40.1854 15.8465 39.8546 15.9754 39.4827 16C39.1108 16.0245 38.9249 16.0941 38.8511 16.1514C38.8511 16.1514 39.0748 16.2865 39.1188 16.4522C39.1188 16.4522 39.3625 16.4195 39.4828 16.4686C39.4828 16.4686 39.4199 16.6445 39.5703 16.7387C39.7207 16.8328 39.8246 16.8677 39.7125 16.9965C39.6004 17.1255 39.8848 17.0702 39.7234 17.2524C39.5621 17.4345 39.5183 17.5266 39.5129 17.6739C39.5074 17.8213 39.5484 17.8438 39.4035 17.8581C39.2586 17.8724 39.4281 18.0341 39.3625 18.2264C39.2969 18.4188 38.8922 18.3984 38.9086 18.914C38.9086 18.914 39.0207 18.6623 39.2613 18.4413C39.5019 18.2202 39.5101 18.1998 39.5047 18.0667C39.4992 17.9337 39.4882 17.9644 39.6168 17.8641C39.7453 17.7638 39.5594 17.6697 39.6878 17.5265C39.8164 17.3832 39.7043 17.4118 39.8547 17.2665C40.0051 17.1212 39.7234 17.1028 39.8765 16.9534C40.0297 16.804 39.5074 16.6342 39.6578 16.538C39.8082 16.4418 40.0679 16.3088 39.193 16.3231C39.193 16.3231 39.4035 15.9752 40.1418 16.051C40.1418 16.051 39.9477 16.188 39.9313 16.3231C39.9313 16.3231 40.016 16.3661 40.068 16.3783C40.068 16.3783 40.0394 16.4773 39.8985 16.5973C39.8985 16.5973 40.2895 16.8162 40.3524 16.9452C40.3524 16.9452 40.1145 17.0189 40.0544 17.1233C40.0544 17.1233 40.1583 17.242 40.1939 17.3954C40.1939 17.3954 39.9286 17.3627 39.8931 17.5612C39.8575 17.7597 39.7783 17.6246 39.7783 17.7412C39.7783 17.8579 39.7865 17.905 39.6935 17.9234C39.6006 17.9418 39.6771 18.04 39.6935 18.1056C39.7099 18.1711 39.74 18.3204 39.7264 18.3675C39.7264 18.3675 39.5924 18.3695 39.5295 18.3879C39.5295 18.3879 39.5705 18.6724 39.4119 18.7133C39.2533 18.7542 39.4967 18.8115 39.3272 18.8423C39.1576 18.8729 39.1795 18.8832 38.9717 19.2557C38.9717 19.2557 39.1494 19.1554 39.3327 19.0346C39.5158 18.9139 39.319 18.9508 39.6225 18.652C39.9259 18.3532 39.8713 18.3306 39.8467 18.1792C39.822 18.0278 39.8166 17.905 39.9259 17.7618C40.0353 17.6185 40.0709 17.4547 40.4591 17.4753C40.4591 17.4753 40.3443 17.2169 40.2021 17.1497C40.2021 17.1497 40.388 17.0209 40.5849 17.0026C40.5849 17.0026 40.4126 16.7959 40.0599 16.5954C40.0599 16.5954 40.3497 16.3457 40.4181 16.227C40.4181 16.227 40.2841 16.2474 40.1775 16.2229C40.1775 16.2229 40.2278 16.1034 40.4892 15.9323C40.4892 15.9323 40.6287 16.0674 40.6232 16.2086C40.6232 16.2086 41.0716 15.9507 41.3259 15.9794C41.3259 15.9794 41.4544 16.3027 40.831 16.9085C40.831 16.9085 41.2165 16.9453 41.3806 16.9228C41.3806 16.9228 41.2876 17.2216 40.82 17.3976C40.3525 17.5735 40.9211 17.7792 40.4427 17.7435C39.9642 17.7077 40.1118 17.8724 40.1255 18.1159C40.1392 18.3594 40.1556 18.6091 40.1447 18.6767C40.1447 18.6767 39.7619 18.5518 39.7701 18.9222C39.7783 19.2927 39.5732 19.3704 39.5322 19.4052C39.5322 19.4052 39.4211 19.3059 39.2532 19.2476C39.2529 19.248 39.0154 19.6988 38.6322 19.9622Z" fill="#5A3719"/>
<path d="M38.0836 15.3193C38.0836 15.3193 38.2149 15.2978 38.4364 15.4359C38.6578 15.574 38.8752 15.2886 38.6291 15.2149C38.383 15.1411 38.6332 15.0552 38.8547 15.2333C39.0762 15.4114 39.1623 15.3223 39.2444 15.2609C39.3264 15.1996 39.4248 15.1658 39.2731 15.0614C39.1213 14.957 39.3756 15.0062 39.4905 15.0799C39.6053 15.1535 39.5602 15.2303 39.5438 15.2518C39.5275 15.2733 39.5151 15.5127 39.7407 15.2887C39.9662 15.0646 40.077 14.8405 40.0729 14.7299C40.0729 14.7299 40.1959 14.8067 40.2123 14.9479C40.2287 15.0891 40.401 14.8711 40.4584 14.7944C40.5158 14.7176 40.6143 14.524 40.602 14.3783C40.602 14.3783 40.7538 14.613 40.9793 14.3783C41.2049 14.1436 41.1065 14.291 41.3772 14.2203C41.6479 14.1497 41.9884 13.9502 42.1729 13.7261C42.3574 13.5021 42.3697 13.6525 42.6076 13.5972C42.8455 13.5419 43.3254 13.2104 43.3705 13.0292C43.4156 12.8482 43.4074 12.7376 43.3376 12.799C43.2679 12.8603 43.2966 12.8113 43.1941 12.7468C43.0915 12.6823 42.9398 12.8297 42.9398 12.8297C42.9398 12.8297 43.0915 12.9463 42.9767 12.9954C42.8619 13.0445 42.7511 13.2072 42.5337 13.1458C42.3164 13.0844 42.0908 13.3453 42.0908 13.3453C42.0908 13.3453 42.2794 13.5018 42.0252 13.6001C41.7709 13.6983 41.8119 13.7321 41.6561 13.6247C41.6561 13.6247 41.3854 13.9685 41.2295 14.0391C41.2295 14.0391 41.1557 14.033 41.1065 13.9685C41.1065 13.9685 40.9302 14.168 40.8399 14.2079C40.8399 14.2079 40.7291 14.1005 40.6266 14.0668C40.6266 14.0668 40.4134 14.3308 40.2328 14.4137C40.2328 14.4137 40.1795 14.3154 40.0647 14.2479C40.0647 14.2479 40.0079 14.5932 39.6299 14.7974C39.6299 14.7974 39.6545 14.7053 39.4658 14.5795C39.4658 14.5795 38.9983 14.9847 38.8137 15.0246C38.6292 15.0645 38.8014 14.9386 38.826 14.8864C38.8507 14.8342 38.9655 14.6623 38.7399 14.5917C38.5144 14.5211 38.5513 14.6408 38.502 14.6623C38.4528 14.6838 38.4487 14.6225 38.297 14.6439C38.1452 14.6654 38.1698 14.7329 38.1042 14.7575C38.0386 14.7821 37.7761 14.7145 37.7884 14.8895C37.8008 15.0645 37.9238 15.1842 37.6941 15.2855C37.4643 15.3868 37.7802 15.3653 38.0836 15.3193Z" fill="#7B3C20"/>
<path d="M39.0301 14.8232C39.0301 14.8232 39.0834 14.6022 38.8906 14.4947C38.8906 14.4947 40.1292 14.3044 39.1941 13.8317C39.1941 13.8317 40.3056 13.6014 40.0431 13.2454C39.7806 12.8893 39.5254 12.9691 39.4869 12.9753C39.4484 12.9814 39.7232 12.7696 39.797 12.7972C39.8708 12.8248 40.765 13.1686 40.5353 12.874C40.3056 12.5793 40.3262 12.5977 40.2892 12.5117C40.2892 12.5117 40.5845 12.5117 41.0316 12.9476C41.0316 12.9476 41.1259 12.8494 41.1136 12.6713C41.1136 12.6713 41.4335 12.7603 41.5319 12.8555C41.5319 12.8555 41.5853 12.745 41.5648 12.6836C41.5648 12.6836 41.8396 12.8309 41.9339 12.9875C41.9339 12.9875 42.0611 12.877 42.0816 12.7511C42.0816 12.7511 42.3564 12.8647 42.4261 12.9506C42.4261 12.9506 42.5163 12.8309 42.4835 12.659C42.4835 12.659 42.9388 12.7941 43.0002 12.5117C43.0002 12.5117 43.4582 12.611 43.1606 12.7893C42.778 13.0185 43.1219 12.7328 42.7295 13.0059C42.4252 13.2178 42.2551 13.4664 42.1088 13.4152C42.0013 13.3777 41.8723 13.6905 41.7246 13.537C41.5769 13.3835 41.5769 13.4541 41.4744 13.6138C41.3719 13.7734 41.2119 13.9361 41.2119 13.9361C41.2119 13.9361 41.1321 13.89 41.0715 13.8287C41.0715 13.8287 40.9822 13.976 40.8674 14.0865C40.8674 14.0865 40.7772 13.9668 40.6336 13.8931C40.6336 13.8931 40.408 14.154 40.2686 14.243C40.2686 14.243 40.1373 14.1141 39.9978 14.0711C39.9978 14.0711 39.9773 14.4241 39.7026 14.6053C39.7026 14.6053 39.6452 14.4886 39.4688 14.418C39.4689 14.418 39.3295 14.6412 39.0301 14.8232Z" fill="#5A3719"/>
<path d="M38.3814 14.2821C38.3814 14.2821 38.2309 14.3978 38.328 14.5216C38.4252 14.6454 38.4306 14.5001 38.5536 14.4878C38.6767 14.4755 40.1942 14.2146 38.8202 13.8033C38.8202 13.8033 38.8776 13.7511 39.1155 13.7296C39.3534 13.7081 40.2147 13.4748 39.8128 13.1679C39.4108 12.8608 39.0766 13.2722 39.4149 12.9038C39.6856 12.6091 39.4682 12.4648 39.4682 12.4648C39.4682 12.4648 38.6685 12.999 38.4921 13.0972C38.3158 13.1954 38.0615 13.3827 38.3609 13.4809C38.6602 13.5791 38.8654 13.1555 38.894 13.2507C38.9228 13.3458 38.2911 13.6958 38.3814 13.8585C38.4716 14.0212 38.4511 14.1563 38.607 14.1255C38.7628 14.0949 39.1853 14.2054 38.8408 14.1931C38.4962 14.1807 38.3814 14.2821 38.3814 14.2821Z" fill="#5A3719"/>
<path d="M38.9294 13.5185C38.9294 13.5185 38.7899 13.6165 38.9745 13.5674C39.1591 13.5183 39.5282 13.4385 39.4585 13.3434C39.3887 13.2482 39.1427 13.3622 38.9294 13.5185Z" fill="black"/>
<path d="M41.3674 11.9387C41.3674 11.9387 42.0729 11.9203 42.364 12.1168C42.6552 12.3132 42.7947 12.4421 42.8808 12.4698C42.8808 12.4698 42.8685 12.7368 42.4173 12.5465C42.4173 12.5465 42.4419 12.6755 42.3927 12.8013C42.3927 12.8013 42.2245 12.6908 42.0317 12.6417C42.0317 12.6417 41.9989 12.743 41.9374 12.8013C41.9374 12.8013 41.7365 12.5987 41.5109 12.5373C41.5109 12.5373 41.4658 12.6386 41.4248 12.6755C41.4248 12.6755 41.1828 12.5373 40.9983 12.5404C40.9983 12.5404 41.0352 12.6878 40.9983 12.7461C40.9983 12.7461 40.4855 12.344 40.0303 12.3962C40.0303 12.3962 40.2518 12.7185 40.3953 12.8782C40.3953 12.8782 39.4725 12.8045 39.6243 12.3072C39.7761 11.8099 39.612 11.9348 40.2149 11.9383C40.8178 11.9419 41.3674 11.9387 41.3674 11.9387Z" fill="#7B3C20"/>
<path d="M37.0376 13.3076C37.0376 13.3076 36.931 13.3945 37.0376 13.4682C37.1443 13.5419 37.5093 13.2779 37.5585 13.2411C37.6077 13.2042 37.7389 13.2104 37.5585 13.3455C37.378 13.4806 37.1934 13.6279 37.0786 13.7753C37.0786 13.7753 37.6897 13.6095 38.0875 13.2657C38.4853 12.9219 38.069 13.1446 38.7478 12.8175C39.4267 12.4904 39.7814 11.9641 39.4164 12.0194C39.0513 12.0746 38.7232 12.4921 38.4403 12.6518C38.1573 12.8114 37.9973 12.8328 38.0424 12.7408C38.0875 12.6487 38.2967 12.6855 38.6863 12.3724C39.0759 12.0593 38.9898 12.0808 38.9939 11.9703C38.998 11.8598 38.8462 11.5866 39.4327 11.2796C40.0192 10.9726 41.8443 9.90432 42.0002 9.53906C42.0002 9.53906 41.467 9.59738 40.7656 10.1161C40.0643 10.6349 39.6888 10.8775 39.4951 10.9419C39.3015 11.0063 39.3261 10.9634 39.1989 11.1138C39.0718 11.2643 38.3786 11.9335 38.2515 12.0317C38.1243 12.1299 38.0874 12.1944 38.0765 12.3947C38.0718 12.4859 37.2796 13.0825 37.0376 13.3076Z" fill="#5A3719"/>
<path d="M39.45 11.9169C39.45 11.9169 39.3147 11.9797 39.1834 11.9169C39.0521 11.854 39.0932 11.5716 39.409 11.4027C39.7248 11.2339 40.299 10.9822 40.5902 10.9453C40.5902 10.9453 40.5492 11.3106 39.6428 11.6176C39.6428 11.6176 39.7002 11.8078 39.45 11.9169Z" fill="#5A3719"/>
<path d="M39.7715 11.6778C39.7715 11.6778 39.7978 11.7676 39.7715 11.8497C39.7715 11.8497 41.4571 12.0124 42.3267 10.9871C42.3267 10.9871 41.1331 11.0976 40.6574 11.3831C40.6574 11.3831 40.9568 11.0085 41.851 10.6985C42.7451 10.3885 43.1101 10.0047 43.188 9.79297C43.188 9.79297 42.0573 10.189 41.5188 10.189C41.5188 10.189 41.4121 10.1859 41.3096 10.2442C41.2071 10.3025 40.4852 10.8275 40.2925 10.9165C40.2925 10.9165 40.6985 10.8827 40.842 10.7507C40.842 10.7507 40.5598 11.5095 39.7715 11.6778Z" fill="#AA5323"/>
<path d="M36.5423 12.6442C36.5423 12.6442 36.325 12.7977 36.4152 12.8744C36.5054 12.9512 36.6608 12.9665 36.9912 12.6902C37.3216 12.414 38.1214 11.7263 37.616 11.6987C37.616 11.6987 36.9688 11.6588 36.9912 12.0548C37.0138 12.4547 36.5748 12.619 36.5423 12.6442ZM35.0494 12.4108C35.0494 12.4108 35.4759 12.6594 35.316 12.8651C35.316 12.8651 36.6244 11.7539 36.2553 11.5144C35.8861 11.2749 35.5949 11.7262 35.6852 11.7722C35.7754 11.8183 35.9681 11.7323 35.8984 11.8183C35.8287 11.9043 35.1315 12.374 35.0494 12.4108ZM34.709 12.0517C34.709 12.0517 34.996 12.1376 35.0084 12.2604C35.0207 12.3832 35.8737 11.6587 35.6482 11.3548C35.5447 11.2155 35.0698 11.1584 35.0493 11.4316C35.0288 11.7048 35.4759 11.404 35.32 11.6004C35.1157 11.8581 34.7705 12.0087 34.709 12.0517ZM37.7792 11.4463C37.7792 11.4463 37.5964 11.5789 37.7605 11.6588C37.9246 11.7386 38.0312 11.6127 38.1132 11.539C38.1952 11.4654 38.6013 11.1676 38.6956 10.9773C38.7899 10.787 38.9294 10.7287 39.0771 10.6304C39.2248 10.5322 40.2665 10.0133 40.9063 9.43929C41.5461 8.86523 41.2796 9.01261 41.944 8.64419C42.6084 8.27584 43.0431 7.93816 43.1826 7.53906C43.1826 7.53906 42.875 7.64037 42.6043 7.81533C42.3336 7.99029 41.7225 8.37405 41.5995 8.42617C41.4764 8.4783 41.3042 8.48759 41.2139 8.5827C41.1237 8.67789 41.1319 8.79143 40.8119 9.05545C40.492 9.31948 38.8391 10.4859 38.6382 10.6517C38.4372 10.8177 37.7792 11.4463 37.7792 11.4463Z" fill="#5A3719"/>
<path d="M36.4492 11.8309C36.4492 11.8309 36.6296 11.7314 36.9687 11.7546C37.3077 11.7777 38.6475 10.4802 39.0358 10.2183C39.4241 9.95636 40.6381 9.08041 40.8022 8.92079C40.9663 8.76116 40.9936 8.58923 41.1358 8.49512C41.278 8.40102 41.4092 8.41326 41.7373 8.22498C42.0654 8.0367 43.6404 7.0953 43.5474 6.54688C43.5474 6.54688 41.2014 7.95483 40.66 8.41326C40.1186 8.87168 38.6148 9.91129 38.3468 10.0791C38.0788 10.247 37.8655 10.5375 37.4171 10.9018C36.9687 11.266 36.5258 11.573 36.4492 11.8309Z" fill="#AA5323"/>
<path d="M35.957 11.3341C35.957 11.3341 36.3912 11.2897 36.4492 11.5019C36.4492 11.5019 37.3789 10.8634 37.5922 10.6015C37.8054 10.3396 37.5211 10.491 38.0515 10.1431C38.5819 9.79517 40.3428 8.56318 40.5944 8.34214C40.846 8.1211 41.3218 7.83051 41.7045 7.57268C42.0873 7.31484 43.5857 6.58217 43.4162 5.98047C43.4162 5.98047 42.317 6.71717 42.0709 6.87687C41.8248 7.03649 41.7209 6.94642 41.4694 7.14291C41.2178 7.3394 40.6655 7.7323 40.567 7.85506C40.4686 7.97782 39.6264 8.62452 39.2163 8.89877C38.8062 9.17302 37.8875 9.7051 37.4445 10.0899C37.0015 10.4746 36.1429 11.1868 35.957 11.3341Z" fill="#AA5323"/>
<path d="M34.6035 11.2094C34.6035 11.2094 34.8232 11.2126 34.8888 11.2986C34.8888 11.2986 35.2949 10.9424 35.7269 11.2944C35.7269 11.2944 37.3127 10.222 37.4713 9.95188C37.63 9.68174 37.8869 9.67764 38.5049 9.22742C39.1229 8.7772 39.5111 8.58892 39.9213 8.26968C40.3314 7.95043 40.6759 7.59021 40.9713 7.3979C41.2665 7.20551 42.0103 6.71843 41.8845 6.29688C41.8845 6.29688 41.283 6.64068 40.8893 7.07044C40.4956 7.50021 40.5283 7.13186 40.1292 7.492C39.7299 7.85222 39.112 8.34333 38.5979 8.59713C38.0838 8.85093 38.3956 8.82227 38.0237 9.05966C37.6519 9.29704 37.6792 9.26025 37.5425 9.29294C37.4058 9.3257 37.198 9.42391 37.0612 9.58353C36.9245 9.74316 36.5581 9.96009 36.1589 10.1852C35.7597 10.4103 34.7781 10.9946 34.6035 11.2094Z" fill="#AA5323"/>
<path d="M35.0829 10.3838C35.0829 10.3838 34.9968 10.2057 35.1485 10.0799C35.3003 9.95402 35.5751 9.62246 35.6202 9.41373C35.6653 9.205 35.6325 9.23877 36.0714 9.05762C36.5102 8.87654 37.5068 8.4099 38.0688 8.06301C38.6307 7.71611 39.4838 7.15746 39.6601 7.02239C39.8364 6.88732 40.2644 6.5865 40.438 6.44531C40.438 6.44531 40.5214 6.68169 40.3327 6.84441C40.1441 7.00713 39.4181 7.51667 39.2992 7.59652C39.1802 7.67637 38.5117 8.1245 38.3067 8.23811C38.1016 8.35173 37.593 8.60956 37.4126 8.75997C37.2321 8.91038 37.2553 8.95646 36.4501 9.34936C35.6448 9.74226 35.6079 9.78222 35.6325 9.8129C35.6571 9.84357 36.0181 9.68704 36.1903 9.58574C36.3626 9.48443 37.0229 9.18362 37.2198 9.02702C37.4166 8.87049 37.7488 8.6249 37.8924 8.54505C38.0359 8.4652 39.2253 7.75305 39.5657 7.50134C39.9061 7.24962 40.0005 7.16675 40.0743 7.20974C40.1481 7.25272 40.2671 7.25582 40.1154 7.40003C39.9636 7.54432 39.4797 7.96797 39.2951 8.09073C39.1105 8.21349 38.5322 8.55736 38.3723 8.64023C38.2123 8.7231 38.1508 8.87661 38.0606 8.94105C37.9704 9.00549 37.7078 9.19276 37.3879 9.26642C37.068 9.34007 37.0106 9.57954 36.8014 9.71462C36.5923 9.84969 35.1037 10.6509 35.0586 10.6908C35.0586 10.6908 35.1486 10.5986 35.0829 10.3838Z" fill="#AA5323"/>
<path d="M40.2321 7.04515C40.2321 7.04515 40.1501 7.1178 40.1952 7.15877C40.2547 7.21277 40.4618 7.35828 40.7201 7.10196C40.9785 6.84564 41.6727 6.28692 41.8977 6.15494C42.1228 6.02297 42.2295 5.89711 42.2212 5.71596C42.2213 5.71596 41.1549 6.28389 40.2321 7.04515ZM41.7004 6.94694C41.7004 6.94694 41.8645 6.6737 42.2664 6.41587C42.6683 6.15804 43.2717 5.78263 43.3532 5.69141C43.3532 5.69141 43.4968 5.85413 43.181 6.05364C42.8652 6.25315 42.25 6.66146 42.1762 6.71978C42.1024 6.7781 41.9793 6.86709 41.7004 6.94694Z" fill="#AA5323"/>
<path d="M33.5267 9.91969C33.5267 9.91969 33.0796 10.1592 33.2396 10.3096C33.3996 10.46 33.6375 10.414 33.7359 10.371C33.8343 10.328 34.0229 10.282 34.0517 10.2728C34.0804 10.2636 34.47 10.153 34.5684 9.97197C34.6668 9.79089 34.9294 9.58209 35.1385 9.43168C35.3477 9.28127 35.4215 9.13086 35.3928 9.02344C35.3927 9.02337 33.6322 9.85504 33.5267 9.91969ZM30.8689 11.9857C30.8689 11.9857 31.1778 11.802 31.6113 11.9181C31.6113 11.9181 31.5908 11.8125 31.5252 11.7579C31.5252 11.7579 32.0501 11.6203 32.165 11.3871C32.2798 11.1538 32.3044 11.2029 32.407 11.1353C32.5095 11.0678 33.2191 10.4968 33.1371 10.374C33.055 10.2512 33.0386 10.0916 32.9771 10.0271C32.9771 10.0271 32.8294 10.2297 32.1404 10.5643C31.4513 10.8989 30.6844 11.1506 30.1266 11.9027C29.5688 12.6548 29.6262 13.0907 30.307 13.281C30.307 13.281 30.7869 12.9802 31.9558 13.0845C33.1247 13.1889 33.5225 13.6278 33.5964 13.7077C33.6702 13.7875 33.9081 14.076 33.6784 14.5641C33.6784 14.5641 33.9122 14.6654 33.9327 14.4414C33.9533 14.2173 33.9656 14.2694 34.0188 14.3032C34.0722 14.337 34.1378 14.3431 34.1132 14.1712C34.0885 13.9993 34.0065 13.6156 33.8999 13.4836C33.7933 13.3516 33.9122 13.41 33.9819 13.4375C34.0516 13.4652 34.2977 13.6647 34.1501 13.2963C34.0024 12.928 33.9656 13.1091 33.9615 13.1275C33.9574 13.1459 33.9286 13.238 33.6087 12.9986C33.2888 12.7591 32.9976 12.6424 32.7802 12.5811C32.5629 12.5198 32.7146 12.5197 32.8417 12.4737C32.9689 12.4276 33.1411 12.4 33.1985 12.2588C33.1985 12.2588 33.0714 12.2895 32.8376 12.2066C32.6038 12.1238 32.1363 12.1145 31.7589 12.3969C31.7589 12.3969 31.8779 11.961 31.5333 11.9856C31.1888 12.0101 30.9468 12.0009 30.5818 12.2895C30.5818 12.2895 30.5613 11.8505 30.9058 11.6234C31.2503 11.3962 31.2052 11.5344 31.398 11.476C31.5908 11.4177 31.6071 11.2243 31.5251 11.1629C31.5251 11.1629 31.9763 11.2397 32.735 10.6104C32.735 10.6104 32.3273 11.1446 31.8318 11.252C31.8318 11.252 31.7534 11.5363 31.3036 11.5989C30.8539 11.6614 30.8648 11.9212 30.8689 11.9857Z" fill="#7B3C20"/>
<path d="M29.5744 14.5858C29.5744 14.5858 29.7957 13.263 31.0344 13.1672C32.1199 13.0834 32.4644 13.2184 32.6805 13.288C32.8966 13.3575 33.4242 13.5131 33.2191 13.683C33.0141 13.8528 32.8965 13.8221 32.8965 13.8221C32.8965 13.8221 33.1344 13.5581 32.9184 13.5131C32.7024 13.4681 32.6832 13.5991 32.6531 13.7096C32.6231 13.8201 32.6094 13.9531 32.5027 14.0391C32.5027 14.0391 32.3934 13.9122 32.2375 14.0227C32.0816 14.1333 32.2156 14.1374 32.2785 14.1189C32.3414 14.1005 32.4235 14.0677 32.407 14.1639C32.3906 14.2601 32.3032 14.4259 32.0461 14.5609C31.7891 14.696 31.8028 14.6878 31.4965 14.7369C31.1903 14.786 30.9059 14.9068 30.515 15.2424C30.1239 15.578 29.696 15.466 29.6099 15.091C29.5361 14.7694 29.5744 14.5858 29.5744 14.5858Z" fill="#5A3719"/>
<path d="M30.9939 14.5441C30.9939 14.5441 31.1129 14.2832 30.8996 14.1634C30.8996 14.1634 30.2474 14.2752 30.0547 14.0775C30.0547 14.0775 30.7642 14.0406 31.2031 13.8687C31.6419 13.6968 31.5107 13.5771 31.359 13.5495C31.2072 13.5218 30.9283 13.5894 30.8996 13.7275C30.8996 13.7275 30.8135 13.5802 30.9242 13.4819C31.035 13.3837 31.2073 13.3653 31.3631 13.4113C31.519 13.4574 31.6583 13.5249 32.1711 13.2578C32.1711 13.2578 32.4663 13.3253 32.4745 13.5249C32.4827 13.7244 32.454 13.8072 32.4294 13.838C32.4048 13.8687 32.3679 13.927 32.3063 13.9209C32.2449 13.9147 32.1669 13.8994 32.089 14.0375C32.0111 14.1757 31.9643 14.2953 31.8339 14.3874C31.8339 14.3874 31.9864 13.9577 31.6091 13.8563C31.6091 13.8563 31.2974 14.0405 31.0595 14.0497C31.0595 14.0499 31.3631 14.3323 30.9939 14.5441Z" fill="black"/>
<path d="M31.6734 13.7545C31.6734 13.7545 31.5298 13.5964 31.7185 13.5795C31.9072 13.5627 32.1574 13.7008 32.1082 13.8174C32.0589 13.9341 31.8375 13.9294 31.6734 13.7545Z" fill="#5A3719"/>
<path d="M42.3326 11.6603C42.3326 11.6603 41.988 11.7585 42.3079 11.9703C42.6278 12.1822 42.7837 12.3663 43.0175 12.4277C43.2513 12.4892 43.4933 12.5751 43.4892 12.8084C43.4851 13.0417 43.4399 13.1338 43.3128 13.2934C43.1857 13.453 43.3825 13.5237 43.5507 13.4316C43.7189 13.3395 43.8624 13.2904 43.9732 13.2259C44.0839 13.1614 44.2684 13.1706 44.1003 13.2565C43.9321 13.3425 43.7558 13.3947 43.9732 13.4008C44.1905 13.4069 45.4989 13.4315 45.7737 13.3425C46.0484 13.2535 46.4052 13.2259 46.4381 12.8698C46.4381 12.8698 46.4504 12.7116 46.5529 12.6457C46.6554 12.5797 46.7252 12.4277 46.5754 12.5306C46.4258 12.6334 46.3109 12.6856 46.2822 12.6549C46.2535 12.6242 46.2453 12.6027 46.354 12.5521C46.4627 12.5015 46.5242 12.549 46.6247 12.4002C46.7252 12.2513 46.7153 12.2758 46.6618 12.2191C46.6083 12.1623 46.4955 12.1209 46.5509 12.0487C46.6063 11.9766 46.6616 11.7617 46.4217 11.8876C46.1818 12.0135 45.7094 12.3378 45.4907 12.389C45.272 12.4402 45.1051 12.5067 44.8099 12.5666C44.5146 12.6264 44.3313 12.6898 44.0169 12.8638C43.7025 13.0377 43.7244 12.7677 43.779 12.7308C43.779 12.7308 43.8994 12.9415 44.2192 12.6673C44.5391 12.393 44.435 12.6502 45.2172 12.393C45.9994 12.1359 45.8079 12.0942 46.1141 11.9346C46.4203 11.775 46.7102 11.7689 46.4969 11.556C46.2836 11.3432 46.259 11.3248 45.9829 11.556C45.7067 11.7873 44.9439 12.1598 44.4872 12.17C44.4872 12.17 46.2509 11.4087 46.0704 11.2982C45.8899 11.1877 45.6958 11.0895 45.5727 11.0628C45.4497 11.0362 45.4168 11.0055 45.1325 11.1324C44.8482 11.2593 44.8017 11.29 44.7196 11.2981C44.6376 11.3063 44.3998 11.3534 44.0634 11.5273C43.7271 11.7013 43.5467 11.7708 43.3224 11.908C43.3224 11.908 43.4783 11.5928 44.1728 11.3841C44.8673 11.1754 45.2228 10.983 45.1462 10.9482C45.0696 10.9134 44.8973 10.8848 44.7661 10.9052C44.6348 10.9257 44.6731 10.895 44.2493 11.0628C43.8256 11.2307 44.006 11.1938 43.6642 11.2675C43.3224 11.3411 43.183 11.4169 43.0135 11.4885C43.0135 11.4885 43.0826 11.3963 43.3128 11.312C43.4311 11.2687 43.1834 11.2241 43.5118 11.2107C43.5386 11.2097 43.5714 11.2174 43.604 11.2081C44.0285 11.0864 44.4926 10.9196 44.4216 10.9073C44.3505 10.895 43.9376 10.8521 43.5193 11.0444C43.1009 11.2368 43.2923 11.1713 43.1446 11.202C42.997 11.2327 42.6853 11.4292 42.5814 11.5131C42.4774 11.5969 42.3326 11.6603 42.3326 11.6603Z" fill="white"/>
<path d="M32.0058 13.5675C32.0058 13.5675 32.1699 13.6167 32.2108 13.7318C32.2518 13.8469 32.3544 13.6812 32.3503 13.629C32.3462 13.5768 32.2457 13.3466 32.0673 13.454C31.8888 13.5614 31.9783 13.5576 32.0058 13.5675Z" fill="#5A3719"/>
<path d="M31.5469 15.8397C31.5469 15.8397 31.897 15.675 32.1908 15.6954C32.1908 15.6954 32.076 15.2809 32.281 15.3516C32.4861 15.4222 32.4287 15.3946 32.4697 15.3915C32.4697 15.3915 32.482 15.1182 32.4286 15.0108C32.4286 15.0108 32.6378 15.0599 32.851 15.063C32.851 15.063 32.6501 14.6701 32.8716 14.4C32.8716 14.4 32.9932 14.6578 33.2666 14.7223C33.2666 14.7223 33.2679 14.6118 33.2666 14.4951C33.2666 14.4951 33.4294 14.4767 33.5565 14.5442C33.6837 14.6118 33.7903 13.8321 33.4129 13.6602C33.4129 13.6602 33.3227 13.8075 32.97 13.8812C32.6173 13.9549 32.6201 14.0257 32.4751 14.2912C32.3301 14.5566 32.203 14.5597 31.9077 14.7499C31.6124 14.9402 31.4329 15.327 31.416 15.3608C31.4162 15.3608 31.5715 15.5511 31.5469 15.8397Z" fill="#7B3C20"/>
<path d="M43.3128 11.312C43.4411 11.2895 43.1834 11.2241 43.5118 11.2107C43.5386 11.2097 43.5714 11.2174 43.604 11.2081C44.0285 11.0864 44.4926 10.9196 44.4216 10.9073C44.3505 10.895 43.9376 10.8521 43.5193 11.0444C43.1009 11.2368 43.2923 11.1713 43.1446 11.202C42.997 11.2327 42.6853 11.4292 42.5814 11.5131C42.4775 11.5969 42.3326 11.6604 42.3326 11.6604C42.3326 11.6604 41.988 11.7586 42.3079 11.9704C42.6278 12.1822 42.7837 12.3664 43.0175 12.4278C43.2513 12.4892 43.4933 12.5751 43.4892 12.8085C43.4851 13.0418 43.4399 13.1339 43.3128 13.2935C43.1857 13.4531 43.3825 13.5237 43.5507 13.4316C43.7189 13.3396 43.8624 13.2905 43.9732 13.2259C44.0839 13.1614 44.2684 13.1707 44.1003 13.2566C43.9321 13.3426 43.7558 13.3948 43.9732 13.4009C44.1905 13.407 45.4989 13.4316 45.7737 13.3426C46.0484 13.2536 46.4052 13.2259 46.4381 12.8698C46.4381 12.8698 46.4504 12.7117 46.5529 12.6458C46.6554 12.5797 46.7252 12.4278 46.5754 12.5306C46.4258 12.6335 46.3109 12.6857 46.2822 12.655C46.2535 12.6243 46.2453 12.6028 46.354 12.5522C46.4627 12.5015 46.5242 12.5491 46.6247 12.4002C46.7252 12.2513 46.7153 12.2759 46.6618 12.2192C46.6343 12.19 46.5913 12.1649 46.5634 12.1377C46.5634 12.1377 46.4846 12.0688 46.393 12.1271C46.3014 12.1854 45.8994 12.3552 45.7382 12.3747C45.5768 12.3941 45.4101 12.4627 45.1202 12.6039C44.8303 12.7451 44.3491 13.0326 44.2725 12.7655C44.2725 12.7655 44.0626 12.8404 44.0169 12.8637C43.6936 13.0284 43.7219 12.7947 43.779 12.7307C43.779 12.7307 43.6095 12.921 43.6162 12.7481C43.6231 12.5751 43.7325 12.6048 43.9211 12.5496C44.1097 12.4943 44.4078 12.3715 44.2848 12.2692C44.1617 12.1669 44.0318 12.3708 43.8951 12.4331C43.7584 12.4954 43.485 12.5506 43.4426 12.3521C43.4002 12.1536 43.4015 12.0154 43.0311 11.9939C42.6607 11.9725 42.6743 11.7412 42.7754 11.6419C42.8766 11.5427 42.9656 11.3728 43.3128 11.312Z" fill="#999999"/>
<path d="M44.4924 13.1096C44.4924 13.1096 45.0694 12.8436 45.5998 12.7187C46.1302 12.5939 45.7146 12.7351 45.6244 12.7637C45.5342 12.7924 44.7084 13.0645 44.5143 13.1546C44.3201 13.2447 44.3602 13.1676 44.4924 13.1096ZM44.6264 13.2263C44.6264 13.2263 45.2744 13.0114 45.3947 13.1014C45.515 13.1915 45.4166 13.1464 45.2744 13.1669C45.1322 13.1874 44.7413 13.2529 44.6374 13.2508C44.5334 13.2488 44.6264 13.2263 44.6264 13.2263ZM45.6655 13.0012C45.6655 13.0012 45.7885 12.9786 45.8022 13.0237C45.8159 13.0687 45.7475 13.0749 45.6791 13.0667C45.6107 13.0585 45.5506 13.0195 45.6655 13.0012Z" fill="black"/>
<path d="M28.5493 18.643C28.5493 18.643 28.5251 18.074 28.8122 17.7854C29.0993 17.4969 30.4938 16.0457 30.707 15.6401C30.707 15.6401 30.8875 15.7655 30.8957 15.9957C30.8957 15.9957 31.1295 15.5931 31.314 15.4414C31.314 15.4414 31.4781 15.609 31.4493 15.9435C31.4493 15.9435 31.7857 15.7655 32.3066 15.7625C32.3066 15.7625 32.1138 15.9896 32.1056 16.1216C32.1056 16.1216 32.8275 16.0417 33.2048 16.1032C33.2048 16.1032 32.2123 16.6588 32.4911 16.7079C32.77 16.757 33.0612 16.7048 33.0612 16.7048C33.0612 16.7048 32.7454 17.0271 32.2409 17.0916C32.2409 17.0916 32.8807 17.0824 33.0079 17.2266C33.0079 17.2266 32.3844 17.3218 31.8841 17.7024C31.8841 17.7024 31.8374 17.681 31.834 17.5397C31.834 17.5397 31.8185 17.6656 31.6749 17.7853C31.5314 17.905 31.1868 18.1598 31.0597 18.2887C30.9325 18.4177 30.6946 18.6724 30.4403 18.6602C30.4403 18.6602 30.4977 18.4637 30.3091 18.4023C30.1204 18.3409 29.9031 18.3839 29.7513 18.5466C29.7513 18.5466 29.0787 18.5558 28.8654 18.5865C28.8654 18.5865 29.0172 18.344 29.1566 18.3501C29.296 18.3563 29.8579 18.433 29.9071 18.0493C29.9564 17.6656 29.5462 17.7669 29.7021 17.5398C29.8579 17.3126 29.821 17.3218 29.8251 17.3003C29.8251 17.3003 29.6979 17.3709 29.6241 17.5735C29.5503 17.7761 29.497 17.9327 29.2304 18.1353C28.9638 18.3379 28.8534 18.4606 28.7796 18.6018C28.7797 18.6019 28.6581 18.6188 28.5493 18.643Z" fill="white"/>
<path d="M29.1953 18.2979C29.1953 18.2979 29.2172 18.2201 29.414 18.1874C29.6109 18.1546 29.6191 18.0605 29.5945 18.0196C29.5699 17.9786 29.4523 17.9787 29.6437 17.7617C29.6437 17.7617 29.7121 17.7802 29.7586 17.8334C29.8051 17.8866 30.021 18.3491 29.1953 18.2979Z" fill="white"/>
<path d="M28.7225 17.8972C28.7327 18.2763 29.2295 18.1354 29.2295 18.1354C29.0525 18.2699 28.9443 18.3692 28.87 18.4621C28.9028 18.2779 28.5898 18.2318 28.5898 18.2318C28.6156 18.1192 28.6568 18.0001 28.7225 17.8972ZM30.5492 15.8712C30.6211 15.7771 30.6756 15.698 30.7061 15.6401C30.7061 15.6401 30.8865 15.7655 30.8947 15.9957C30.8947 15.9957 31.1285 15.5931 31.313 15.4414C31.313 15.4414 31.4771 15.609 31.4484 15.9435C31.4484 15.9435 31.7847 15.7655 32.3055 15.7625C32.3055 15.7625 32.1128 15.9896 32.1046 16.1216C32.1046 16.1216 32.8265 16.0417 33.2038 16.1032C33.2038 16.1032 32.2112 16.6588 32.4901 16.7079C32.769 16.757 33.0602 16.7048 33.0602 16.7048C33.0602 16.7048 32.7444 17.0271 32.2399 17.0916C32.2399 17.0916 32.8797 17.0824 33.0068 17.2266C33.0068 17.2266 32.8247 17.2544 32.5783 17.3401C32.5783 17.3401 32.3943 17.1673 31.8612 17.1919C31.8612 17.1919 32.2759 16.9598 32.6049 16.8849C32.6049 16.8849 32.4599 16.6946 32.233 16.8685C32.233 16.8685 31.7818 16.5575 32.1537 16.2935C32.1537 16.2935 31.8912 16.2382 31.719 16.361C31.719 16.361 31.7272 16.1482 31.9185 16.052C31.9185 16.052 31.4127 15.9701 31.287 16.3426C31.287 16.3426 31.1913 16.1891 31.235 16.0151C31.235 16.0151 30.9288 16.1912 30.7893 16.3907C30.7894 16.3908 30.7433 16.0124 30.5492 15.8712ZM29.5688 18.2772C29.478 18.2995 29.3565 18.3091 29.1954 18.2991C29.1954 18.2991 29.2092 18.2501 29.3134 18.2135C29.3134 18.2135 29.3433 18.2757 29.5688 18.2772Z" fill="#999999"/>
<path d="M30.4883 16.8464C30.4883 16.8464 30.718 17.0275 30.8 17.138C30.8 17.138 31.0091 16.9906 31.087 16.8709C31.087 16.8709 31.2511 16.9784 31.3085 17.138C31.3085 17.138 31.4233 17.0581 31.448 16.9477C31.448 16.9477 31.7376 17.0091 31.8327 17.1042C31.8327 17.1042 31.8769 16.8249 31.8327 16.6499C31.8327 16.6499 32.0345 16.6652 32.1575 16.7174C32.1575 16.7174 32.0431 16.5333 32.6273 16.2969C32.6273 16.2969 32.1855 16.3917 32.0181 16.5855C32.0181 16.5855 31.8294 16.5947 31.7473 16.5363C31.7473 16.5363 31.7597 16.8187 31.7514 16.9538C31.7514 16.9538 31.6376 16.9077 31.4156 16.8556C31.4156 16.8556 31.3619 16.9477 31.3249 16.9691C31.3249 16.9691 31.1855 16.8586 31.124 16.7174C31.124 16.7174 30.9106 16.9112 30.8287 16.9937C30.8287 16.9937 30.6277 16.8525 30.4883 16.8464Z" fill="black"/>
<path d="M29.166 19.7198C29.166 19.7198 29.2562 19.7628 29.4695 19.5908C29.6828 19.4189 30.2857 19.0352 30.3431 18.7282C30.4005 18.4212 30.1503 18.4028 29.9534 18.4918C29.7566 18.5808 29.8386 18.7528 29.8468 18.808C29.855 18.8632 29.8591 19.0781 29.5392 19.3759C29.2193 19.6738 29.166 19.7198 29.166 19.7198Z" fill="#FFC221"/>
<path d="M29.0987 19.8173C29.0987 19.8173 28.6147 19.6147 29.0495 19.3967C29.4842 19.1788 29.677 19.1205 29.7262 18.9393C29.7754 18.7582 29.7467 18.7889 29.5867 18.8657C29.4267 18.9424 28.8116 19.2187 28.7173 18.9608C28.7173 18.9608 28.9716 19.059 29.2874 18.9056C29.6031 18.7522 29.8616 18.7061 29.6606 18.6416C29.4596 18.5771 28.7337 18.6569 28.6147 18.6907C28.4958 18.7245 28.5245 18.7183 28.504 18.838C28.4835 18.9577 28.3481 19.2095 28.2989 19.2831C28.2497 19.3568 28.1307 19.6638 28.3523 19.7988C28.5737 19.9339 28.9248 19.9246 29.0987 19.8173Z" fill="#FFC221"/>
<path d="M28.9112 18.7595C28.9112 18.7595 28.8004 18.7748 28.8209 18.8178C28.8414 18.8608 28.8704 18.8546 28.9112 18.8577C28.9521 18.8607 29.0137 18.8362 29.0218 18.8086C29.03 18.781 28.9524 18.7503 28.9112 18.7595Z" fill="black"/>
<path d="M29.0687 19.7074C29.0687 19.7074 28.839 19.5969 29.0974 19.4557C29.3558 19.3145 29.6347 19.1794 29.6716 19.1211C29.6716 19.121 29.5486 19.296 29.0687 19.7074Z" fill="white"/>
</g>
</g>
<rect x="0.5" y="0.5" width="47" height="35" rx="3.5" stroke="#DDDFE3"/>
<defs>
<clipPath id="clip0_11020_3783">
<rect width="48" height="36" rx="4" fill="white"/>
</clipPath>
<clipPath id="clip1_11020_3783">
<rect width="72" height="36" fill="white" transform="translate(-24)"/>
</clipPath>
</defs>
</svg>
