<svg width="32" height="32" viewBox="0 0 32 32" fill="none" xmlns="http://www.w3.org/2000/svg">
<path d="M23.0183 13.7712C23.3367 11.642 21.7157 10.4974 19.499 9.73389L20.2181 6.84964L18.4623 6.41215L17.7623 9.22047C17.3007 9.10535 16.8267 8.99687 16.3556 8.88934L17.0607 6.06249L15.3061 5.625L14.5866 8.50832C14.2046 8.42135 13.8295 8.3354 13.4655 8.24484L13.4675 8.23577L11.0463 7.63115L10.5793 9.50639C10.5793 9.50639 11.8819 9.80498 11.8544 9.82336C12.5654 10.0008 12.694 10.4715 12.6726 10.8445L11.8535 14.1304C11.9025 14.1428 11.966 14.1608 12.036 14.1889C11.9775 14.1744 11.9151 14.1585 11.8504 14.143L10.7023 18.746C10.6154 18.962 10.3949 19.2862 9.89779 19.1631C9.91538 19.1886 8.62169 18.8446 8.62169 18.8446L7.75 20.8544L10.0348 21.424C10.4599 21.5306 10.8764 21.6421 11.2866 21.747L10.56 24.6643L12.3137 25.1018L13.0332 22.2154C13.5123 22.3455 13.9773 22.4654 14.4324 22.5785L13.7154 25.4513L15.4712 25.8888L16.1976 22.9769C19.1915 23.5435 21.4427 23.3151 22.3903 20.6071C23.1538 18.4269 22.3523 17.1693 20.7772 16.3492C21.9244 16.0847 22.7885 15.3301 23.0189 13.7715L23.0183 13.7711L23.0183 13.7712ZM19.0068 19.3963C18.4642 21.5766 14.7934 20.398 13.6032 20.1024L14.5673 16.2375C15.7574 16.5346 19.5739 17.1225 19.0069 19.3963H19.0068ZM19.5498 13.7396C19.0548 15.7228 15.9995 14.7153 15.0084 14.4682L15.8825 10.9629C16.8737 11.21 20.0654 11.6711 19.55 13.7396H19.5498Z" fill="white"/>
</svg>
