<svg width="32" height="32" viewBox="0 0 32 32" fill="none" xmlns="http://www.w3.org/2000/svg">
<path d="M15.933 9.25788C17.0208 9.25788 18.0842 9.58045 18.9886 10.1848C19.8931 10.7892 20.598 11.6481 21.0143 12.6531C21.4306 13.6581 21.5395 14.764 21.3273 15.8309C21.1151 16.8978 20.5913 17.8778 19.8221 18.647C19.0529 19.4162 18.0729 19.94 17.006 20.1522C15.9391 20.3644 14.8332 20.2555 13.8282 19.8392C12.8232 19.4229 11.9643 18.718 11.3599 17.8135C10.7556 16.909 10.433 15.8457 10.433 14.7579C10.433 13.2992 11.0125 11.9002 12.0439 10.8688C13.0754 9.83735 14.4743 9.25788 15.933 9.25788ZM27.633 12.8829C27.5027 12.9011 27.3773 12.9453 27.2643 13.0127C27.1512 13.0801 27.0528 13.1694 26.9748 13.2753C26.8968 13.3813 26.8407 13.5018 26.8099 13.6298C26.7791 13.7577 26.7742 13.8905 26.7955 14.0204C26.8852 14.5952 26.9312 15.1761 26.933 15.7579C26.9367 18.4496 25.9488 21.0483 24.158 23.0579C23.3485 21.8967 22.3054 20.9175 21.0955 20.1829C19.7063 21.5138 17.8568 22.2567 15.933 22.2567C14.0092 22.2567 12.1597 21.5138 10.7705 20.1829C9.56058 20.9175 8.51747 21.8967 7.70799 23.0579C6.30151 21.4725 5.38296 19.5145 5.06282 17.4195C4.74268 15.3244 5.03458 13.1815 5.90341 11.2484C6.77225 9.31535 8.18102 7.67441 9.9603 6.52296C11.7396 5.37151 13.8136 4.75858 15.933 4.75789C16.5148 4.7597 17.0956 4.80567 17.6705 4.89539C17.9297 4.93091 18.1925 4.86343 18.4025 4.70744C18.6126 4.55144 18.7531 4.31934 18.794 4.06093C18.8349 3.80252 18.7729 3.53837 18.6212 3.32515C18.4696 3.11193 18.2405 2.96662 17.983 2.92039C17.3053 2.80989 16.6196 2.75554 15.933 2.75789C13.3135 2.75879 10.7554 3.55101 8.59394 5.03072C6.43244 6.51043 4.76838 8.60861 3.81981 11.0503C2.87124 13.492 2.68242 16.1633 3.27809 18.7141C3.87376 21.2649 5.22613 23.5763 7.15799 25.3454L7.32049 25.4954C9.69706 27.5973 12.7603 28.7576 15.933 28.7576C19.1057 28.7576 22.1689 27.5973 24.5455 25.4954L24.708 25.3454C26.0406 24.1293 27.1048 22.6484 27.8323 20.9975C28.5598 19.3466 28.9347 17.562 28.933 15.7579C28.9353 15.0712 28.881 14.3856 28.7705 13.7079C28.7507 13.5787 28.7055 13.4547 28.6375 13.3431C28.5694 13.2315 28.4799 13.1345 28.3741 13.0577C28.2683 12.981 28.1483 12.926 28.0211 12.896C27.8939 12.866 27.7619 12.8615 27.633 12.8829Z" fill="white"/>
<path d="M23.75 5.625H27.125C27.6223 5.625 28.0992 5.82254 28.4508 6.17417C28.8025 6.52581 29 7.00272 29 7.5C29 7.99728 28.8025 8.47419 28.4508 8.82583C28.0992 9.17746 27.6223 9.375 27.125 9.375H23.75V2.25H26.5625C27.0101 2.25 27.4393 2.42779 27.7557 2.74426C28.0722 3.06072 28.25 3.48995 28.25 3.9375C28.25 4.38505 28.0722 4.81427 27.7557 5.13074C27.4393 5.44721 27.0101 5.625 26.5625 5.625" stroke="white" stroke-linecap="round" stroke-linejoin="round"/>
<path d="M23 2.25H23.75" stroke="white" stroke-linecap="round" stroke-linejoin="round"/>
<path d="M23 9.375H23.75" stroke="white" stroke-linecap="round" stroke-linejoin="round"/>
<path d="M24.875 2.25V1.125" stroke="white" stroke-linecap="round" stroke-linejoin="round"/>
<path d="M26.375 2.25V1.125" stroke="white" stroke-linecap="round" stroke-linejoin="round"/>
<path d="M24.875 10.5V9.375" stroke="white" stroke-linecap="round" stroke-linejoin="round"/>
<path d="M26.375 10.5V9.375" stroke="white" stroke-linecap="round" stroke-linejoin="round"/>
</svg>
