<svg width="32" height="10" viewBox="0 0 32 10" fill="none" xmlns="http://www.w3.org/2000/svg">
<g clip-path="url(#clip0_8630_10010)">
<path fill-rule="evenodd" clip-rule="evenodd" d="M6.96201 2.9186H4.83127C4.83127 2.54396 4.79225 2.2864 4.70639 2.16152C4.58152 1.97421 4.2303 1.87274 3.66054 1.87274C3.1064 1.87274 2.73957 1.92738 2.56005 2.03664C2.38054 2.14591 2.28688 2.38786 2.28688 2.75469C2.28688 3.0903 2.36493 3.30884 2.52883 3.4103C2.64591 3.48835 2.7942 3.52738 2.98152 3.54299L3.41078 3.57421C4.33176 3.63664 4.90932 3.68347 5.13566 3.71469C5.86152 3.79274 6.39225 4.00347 6.72005 4.33908C6.97761 4.60445 7.13371 4.94786 7.18054 5.36933C7.21176 5.62689 7.22737 5.91567 7.22737 6.23567C7.22737 6.97713 7.16493 7.51567 7.03225 7.85908C6.7981 8.49128 6.25957 8.88152 5.43225 9.05323C5.08103 9.12347 4.5503 9.1625 3.84005 9.1625C2.64591 9.1625 1.81859 9.08445 1.3503 8.92835C0.772736 8.74103 0.398102 8.3586 0.210785 7.78103C0.109322 7.46103 0.0546875 6.9303 0.0546875 6.18103H2.18542V6.36835C2.18542 6.7664 2.29469 7.02396 2.50542 7.13323C2.65371 7.21128 2.83322 7.2503 3.03615 7.25811H3.81664C4.21469 7.25811 4.47225 7.23469 4.58152 7.18786C4.77664 7.10201 4.90932 6.96933 4.96396 6.78981C4.99518 6.67274 5.01079 6.53225 5.01079 6.35274C5.01079 5.94689 4.8703 5.70494 4.60493 5.61908C4.50347 5.58786 4.02737 5.53323 3.18444 5.47079C2.50542 5.41616 2.02932 5.36933 1.76396 5.3225C1.06932 5.18201 0.601029 4.89323 0.374687 4.45616C0.171761 4.08152 0.0702976 3.51957 0.0702976 2.7625C0.0702976 2.18494 0.124932 1.72445 0.2342 1.38103C0.343468 1.03762 0.52298 0.772255 0.764931 0.592742C1.12396 0.319572 1.58444 0.155668 2.13859 0.108839C2.65371 0.0620097 3.16883 0.0385961 3.68396 0.0464009C4.57371 0.0464009 5.21371 0.101034 5.59615 0.210303C6.52493 0.475669 6.98542 1.23274 6.98542 2.46591C6.97761 2.56738 6.96981 2.71567 6.96201 2.9186ZM19.1064 4.59664H20.5659C21.0264 4.58103 21.3152 4.54201 21.4166 4.48738C21.5571 4.40933 21.6508 4.25323 21.6976 4.01908C21.7288 3.86299 21.7444 3.62884 21.7444 3.32445C21.7444 2.94982 21.7132 2.66884 21.6586 2.48152C21.5727 2.22396 21.3698 2.06786 21.0498 2.01323C20.9874 2.00543 20.8313 1.99762 20.5971 1.99762H19.1142L19.1064 4.59664ZM16.7571 8.96738V0.0464009H21.1279C21.7288 0.0464009 22.1815 0.0932297 22.5015 0.194693C23.2196 0.42884 23.7035 0.897133 23.9532 1.60738C24.0781 1.98201 24.1405 2.54396 24.1405 3.30103C24.1405 4.2064 24.0703 4.85421 23.9298 5.25225C23.6488 6.03274 23.0713 6.48543 22.1971 6.6025C22.0957 6.61811 21.6586 6.63372 20.8859 6.64933L20.4957 6.66494H19.0986V8.96738H16.7571ZM28.6752 5.68933L27.5747 1.81811L26.5054 5.68933H28.6752ZM29.1435 7.42981H26.0059L25.5844 8.97518H23.1571L25.7796 0.0542051H29.3152L31.9688 8.97518H29.5962L29.1435 7.42981ZM13.3698 1.23274C14.361 1.23274 15.243 1.69323 15.8283 2.41908L16.3435 1.29518C15.5005 0.491279 14.3844 0.0385961 13.2137 0.0464009C11.3249 0.0464009 9.70152 1.20152 9.0381 2.84055H8.03127L7.4381 4.13616H8.73371C8.72591 4.25323 8.7181 4.37811 8.7181 4.49518C8.7181 4.64347 8.72591 4.79177 8.74152 4.93225H8.08591L7.49274 6.22786H9.07713C9.76396 7.82006 11.3562 8.94396 13.2215 8.94396C14.1581 8.94396 15.0322 8.66299 15.7503 8.17128V6.58689C15.1727 7.25811 14.322 7.67957 13.3698 7.67957C12.2615 7.67957 11.2859 7.10201 10.724 6.22786H14.0332L14.6264 4.93225H10.2322C10.1932 4.66689 10.1854 4.39372 10.2166 4.12835H14.9932L15.5864 2.83274H10.6225C11.1766 1.88055 12.1991 1.23274 13.3698 1.23274Z" fill="white"/>
</g>
<defs>
<clipPath id="clip0_8630_10010">
<rect width="32" height="9.20976" fill="white"/>
</clipPath>
</defs>
</svg>
