<svg width="33" height="32" viewBox="0 0 33 32" fill="none" xmlns="http://www.w3.org/2000/svg">
<path d="M16.07 32C24.9452 32 32.14 24.8366 32.14 16C32.14 7.16344 24.9452 0 16.07 0C7.19479 0 0 7.16344 0 16C0 24.8366 7.19479 32 16.07 32Z" fill="url(#paint0_linear_9081_10045)"/>
<path d="M21.617 19.4878C21.4837 19.4286 21.3391 19.3985 21.1931 19.3996C21.0669 19.3997 20.9415 19.421 20.8224 19.4626C20.6017 19.5589 20.4051 19.7026 20.2466 19.8834C20.1812 19.9519 20.1115 20.0163 20.0379 20.0761C19.0256 20.832 18.0905 21.1823 16.958 21.2276V11.0972C17.9614 11.2308 18.6865 11.6301 19.1091 12.2878C19.1994 12.4407 19.2769 12.6008 19.3407 12.7665C19.4367 13.0327 19.5719 13.2832 19.7418 13.5098C19.7608 13.5338 19.8367 13.6169 19.8506 13.6358C20.0333 13.8098 20.2773 13.9053 20.5301 13.9016C20.6672 13.9041 20.8033 13.8768 20.9287 13.8215C21.0542 13.7662 21.166 13.6844 21.2564 13.5816C21.448 13.3236 21.5445 13.0077 21.5297 12.6871C21.5297 12.5108 21.5436 12.3949 21.55 12.3092C21.5658 12.1414 21.5633 11.9725 21.5424 11.8053C21.4348 10.8868 21.1767 10.7105 20.3745 10.2934L20.1214 10.1612C18.8978 9.5073 18.1791 9.35738 16.9656 9.19738C17.0858 7.33156 17.4553 6.6777 17.845 6.25943C17.9666 6.13577 18.1126 6.03839 18.2737 5.97336C18.4348 5.90834 18.6076 5.87706 18.7814 5.88148C18.8431 5.88145 18.9048 5.88524 18.9661 5.89282C18.5865 6.54793 18.6839 7.23959 19.2192 7.69187C19.5268 7.92377 19.9053 8.04301 20.2909 8.02951C20.6337 8.04296 20.9715 7.94428 21.2526 7.74856C21.9422 7.20053 21.9422 6.22415 21.5462 5.63581C21.0844 4.97418 20.3825 4.51704 19.5887 4.36085C18.8598 4.20779 18.1024 4.26109 17.4024 4.51471C16.7024 4.76833 16.0877 5.21214 15.6281 5.79581L15.5788 5.85628C15.2485 6.25187 14.3956 7.2736 14.3223 9.18856C10.425 10.0276 8.28271 12.4163 8.28271 15.9413C8.28271 18.0956 9.07483 21.8626 14.3235 23.1665C14.3235 23.2383 14.3235 23.3101 14.3235 23.3794C14.2995 24.1215 14.283 24.6582 13.8515 25.4796C13.7349 25.6762 13.5681 25.8387 13.3682 25.9507C13.1682 26.0626 12.9421 26.12 12.7127 26.1171C12.6278 26.1178 12.543 26.1097 12.4597 26.0931C12.559 25.8814 12.6047 25.6487 12.5925 25.4153C12.5866 25.2175 12.535 25.0237 12.4418 24.8489C12.3485 24.6741 12.2161 24.5231 12.0547 24.4075C12.0442 24.4 12.0333 24.3933 12.0218 24.3873C11.7526 24.2304 11.4479 24.1438 11.1361 24.1353C10.7635 24.1409 10.407 24.287 10.1385 24.5443C9.87 24.8016 9.70963 25.1507 9.68979 25.5212C9.68427 25.7671 9.72785 26.0116 9.81799 26.2407C9.90813 26.4697 10.043 26.6786 10.2149 26.8553C10.4884 27.1742 10.8299 27.4283 11.2145 27.5992C11.5991 27.7701 12.0171 27.8534 12.4381 27.8431C12.7783 27.8393 13.1174 27.8026 13.4504 27.7334C14.9094 27.3757 15.9735 26.4547 16.6138 24.9958C16.834 24.4919 16.9099 23.6415 16.9339 23.1892C17.7321 23.1058 18.5122 22.8983 19.2458 22.5744C20.7844 21.8701 21.2703 21.3738 21.6499 20.9757L21.7499 20.8723C22.1156 20.4944 22.0979 20.153 22.0181 19.9249C21.9477 19.7322 21.8035 19.575 21.617 19.4878ZM14.3311 16.1895C14.3311 17.8525 14.3311 19.5092 14.3311 21.1407C12.6862 20.6632 11.5612 18.7331 11.5612 16.2777C11.5612 14.2682 12.056 11.804 14.345 11.1489C14.3349 12.8219 14.3324 14.5089 14.3311 16.1895Z" fill="white"/>
<path opacity="0.1" d="M27.2522 4.50969C24.2192 1.60701 20.1638 0.00428668 15.957 0.0457051C11.7502 0.0871235 7.72749 1.76938 4.7527 4.73121C1.7779 7.69305 0.0882848 11.6983 0.0466851 15.8867C0.00508543 20.0752 1.61482 24.1129 4.53021 27.1327L27.2522 4.50969Z" fill="url(#paint1_linear_9081_10045)"/>
<defs>
<linearGradient id="paint0_linear_9081_10045" x1="-5.29179e-09" y1="17.0136" x2="26.8293" y2="16.9462" gradientUnits="userSpaceOnUse">
<stop stop-color="#0039AD"/>
<stop offset="0.986235" stop-color="#3678FF"/>
</linearGradient>
<linearGradient id="paint1_linear_9081_10045" x1="19.4715" y1="19.3859" x2="0.285564" y2="0.116001" gradientUnits="userSpaceOnUse">
<stop stop-color="white"/>
<stop offset="0.36" stop-color="#D8D9FF"/>
<stop offset="1" stop-color="#9495FF"/>
</linearGradient>
</defs>
</svg>
