<svg width="56" height="56" viewBox="0 0 56 56" fill="none" xmlns="http://www.w3.org/2000/svg">
<path d="M49.7976 10.5666L38.3351 51.2322C38.144 51.9208 37.7453 52.5338 37.1935 52.9878C36.6416 53.4418 35.9633 53.7148 35.2507 53.7697H34.9445C34.2852 53.7682 33.6398 53.5806 33.0826 53.2284C32.5253 52.8763 32.0788 52.3739 31.7945 51.7791L23.9851 35.2853C23.9084 35.1197 23.8841 34.9347 23.9154 34.7549C23.9466 34.5751 24.032 34.4091 24.1601 34.2791L35.382 23.0572C35.5577 22.898 35.6992 22.7048 35.7979 22.4893C35.8966 22.2738 35.9506 22.0404 35.9564 21.8034C35.9622 21.5665 35.9199 21.3307 35.8319 21.1106C35.7438 20.8905 35.612 20.6906 35.4444 20.5229C35.2767 20.3553 35.0768 20.2235 34.8567 20.1355C34.6366 20.0474 34.4009 20.0051 34.1639 20.0109C33.9269 20.0167 33.6935 20.0707 33.478 20.1694C33.2625 20.2682 33.0693 20.4097 32.9101 20.5853L21.6882 31.8291C21.5582 31.9572 21.3923 32.0425 21.2125 32.0738C21.0327 32.1051 20.8476 32.0808 20.682 32.0041L4.27573 24.2385C3.63361 23.9352 3.0945 23.4502 2.72514 22.8437C2.35578 22.2372 2.17237 21.5357 2.19761 20.826C2.23633 20.0952 2.50452 19.3953 2.96403 18.8259C3.42354 18.2564 4.05095 17.8463 4.75698 17.6541L45.5101 6.16971C46.2229 5.96615 46.9819 5.99415 47.6777 6.24969C48.3736 6.50523 48.9703 6.9751 49.382 7.59158C49.6582 8.02967 49.8381 8.52148 49.9097 9.03438C49.9814 9.54729 49.9432 10.0696 49.7976 10.5666Z" fill="#F0F2F6"/>
</svg>
