<svg width="96" height="96" viewBox="0 0 96 96" fill="none" xmlns="http://www.w3.org/2000/svg">
<rect width="96" height="96" rx="48" fill=""/>
<path d="M64.5 31.5H31.5C30.7044 31.5 29.9413 31.8161 29.3787 32.3787C28.8161 32.9413 28.5 33.7044 28.5 34.5V60C28.5 60.7956 28.8161 61.5587 29.3787 62.1213C29.9413 62.6839 30.7044 63 31.5 63H34.5V66C34.5 66.3978 34.658 66.7794 34.9393 67.0607C35.2206 67.342 35.6022 67.5 36 67.5C36.3978 67.5 36.7794 67.342 37.0607 67.0607C37.342 66.7794 37.5 66.3978 37.5 66V63H58.5V66C58.5 66.3978 58.658 66.7794 58.9393 67.0607C59.2206 67.342 59.6022 67.5 60 67.5C60.3978 67.5 60.7794 67.342 61.0607 67.0607C61.342 66.7794 61.5 66.3978 61.5 66V63H64.5C65.2956 63 66.0587 62.6839 66.6213 62.1213C67.1839 61.5587 67.5 60.7956 67.5 60V34.5C67.5 33.7044 67.1839 32.9413 66.6213 32.3787C66.0587 31.8161 65.2956 31.5 64.5 31.5ZM63 49.5H57.5813C57.2125 51.118 56.2605 52.5435 54.9073 53.5041C53.5541 54.4648 51.8944 54.8932 50.2453 54.7077C48.5962 54.5221 47.0732 53.7356 45.9673 52.4982C44.8614 51.2609 44.25 49.6595 44.25 48C44.25 46.3405 44.8614 44.7391 45.9673 43.5018C47.0732 42.2644 48.5962 41.4779 50.2453 41.2923C51.8944 41.1068 53.5541 41.5352 54.9073 42.4959C56.2605 43.4565 57.2125 44.882 57.5813 46.5H63C63.3978 46.5 63.7794 46.658 64.0607 46.9393C64.342 47.2206 64.5 47.6022 64.5 48C64.5 48.3978 64.342 48.7794 64.0607 49.0607C63.7794 49.342 63.3978 49.5 63 49.5ZM54.75 48C54.75 48.7417 54.5301 49.4667 54.118 50.0834C53.706 50.7001 53.1203 51.1807 52.4351 51.4645C51.7498 51.7484 50.9958 51.8226 50.2684 51.6779C49.541 51.5333 48.8728 51.1761 48.3483 50.6517C47.8239 50.1272 47.4667 49.459 47.3221 48.7316C47.1774 48.0042 47.2516 47.2502 47.5355 46.5649C47.8193 45.8797 48.2999 45.294 48.9166 44.882C49.5333 44.4699 50.2583 44.25 51 44.25C51.993 44.2549 52.944 44.6516 53.6462 45.3538C54.3484 46.056 54.7451 47.007 54.75 48Z" fill="white"/>
</svg>
