<svg width="96" height="96" viewBox="0 0 96 96" fill="none" xmlns="http://www.w3.org/2000/svg">
<rect width="96" height="96" rx="48" fill=""/>
<path d="M29.6624 44.3772H24.8394C24.8394 43.5561 24.7476 43.0063 24.564 42.7203C24.2745 42.3024 23.4836 42.0972 22.1914 42.0972C20.9344 42.0972 20.0941 42.2145 19.6916 42.4564C19.282 42.6983 19.0772 43.2189 19.0772 44.0253C19.0772 44.7511 19.2608 45.235 19.621 45.4623C19.8822 45.6236 20.2212 45.7189 20.6519 45.7482L21.6264 45.8215C23.7096 45.9681 25.016 46.0634 25.5315 46.1221C27.1768 46.298 28.3772 46.7526 29.1187 47.4857C29.7048 48.0649 30.0508 48.8127 30.1638 49.7438C30.2274 50.301 30.2627 50.9315 30.2627 51.628C30.2627 53.2409 30.1144 54.4139 29.8178 55.1617C29.2811 56.5326 28.0736 57.3977 26.1952 57.7643C25.4114 57.9183 24.2039 57.9916 22.5868 57.9916C19.8893 57.9916 18.0039 57.823 16.9376 57.4857C15.6312 57.0752 14.7697 56.2394 14.3601 54.9857C14.113 54.2966 14 53.1382 14 51.5107H18.823C18.823 51.6939 18.823 51.8332 18.823 51.9285C18.823 52.7936 19.0631 53.3582 19.5433 53.6074C19.8752 53.776 20.2777 53.8714 20.7508 53.8787H22.5232C23.4271 53.8787 24.0062 53.8274 24.2533 53.7321C24.6982 53.5488 24.9877 53.2628 25.1289 52.8596C25.1996 52.6104 25.2419 52.2878 25.2419 51.8992C25.2419 51.0194 24.9312 50.4843 24.3169 50.2936C24.0838 50.2203 23.0105 50.1104 21.0898 49.9784C19.5504 49.8611 18.477 49.7511 17.8768 49.6485C16.295 49.3406 15.2428 48.7101 14.7203 47.757C14.2542 46.9285 14.0212 45.6969 14.0212 44.0473C14.0212 42.7936 14.1483 41.7892 14.3954 41.0341C14.6426 40.279 15.0451 39.6998 15.603 39.3112C16.415 38.7101 17.4601 38.3508 18.7242 38.2482C19.7763 38.1529 20.9485 38.1016 22.2337 38.1016C24.2604 38.1016 25.7009 38.2189 26.5624 38.4608C28.6597 39.0473 29.7119 40.6895 29.7119 43.3802C29.7048 43.6074 29.6907 43.9373 29.6624 44.3772Z" fill="white"/>
<path d="M48.251 58V38H55.8068H56.9931H57.9111C59.2387 38 60.2485 38.11 60.9405 38.3372C62.5294 38.8504 63.5956 39.9135 64.1394 41.5117C64.4218 42.3475 64.5631 43.6158 64.5631 45.3021C64.5631 47.3328 64.4077 48.7845 64.097 49.6789C63.4756 51.4311 62.2045 52.4428 60.2767 52.7067C60.0508 52.7434 59.0833 52.7801 57.3886 52.8094L56.5271 52.8387H53.4341V58H48.251ZM53.4341 48.1979H56.6683C57.6922 48.1613 58.3136 48.0806 58.5396 47.9487C58.8432 47.7727 59.0551 47.4208 59.1539 46.9003C59.2175 46.5484 59.2528 46.0279 59.2528 45.3387C59.2528 44.4956 59.1893 43.8651 59.0551 43.4545C58.8715 42.8827 58.4196 42.5308 57.7134 42.4062C57.5722 42.3842 57.2403 42.3768 56.7107 42.3768H53.4341V48.1979Z" fill="white"/>
<path d="M75.6346 54.5396H68.7002L67.7681 57.9927H62.4014L68.1918 38H76.0089L81.87 58H76.6162L75.6346 54.5396ZM74.6037 50.6466L72.1745 41.9736L69.816 50.6393H74.6037V50.6466Z" fill="white"/>
<path d="M43.71 40.8117C45.8496 40.8117 47.7562 41.8307 49.0132 43.4363L50.1289 40.9509C48.3847 39.2354 46.005 38.1797 43.3781 38.1797C39.2965 38.1797 35.8011 40.7383 34.3676 44.3674H32.1856L30.9004 47.2339H33.7038C33.6826 47.4979 33.6685 47.7618 33.6685 48.0331C33.6685 48.363 33.6826 48.6856 33.7179 49.0081H32.3127L31.0275 51.8747H34.4382C35.9141 55.4084 39.3601 57.8864 43.3851 57.8864C45.4118 57.8864 47.2902 57.2559 48.8508 56.1782V52.6592C47.5938 54.1401 45.7649 55.0785 43.717 55.0785C41.3302 55.0785 39.2259 53.8029 38.0043 51.86H45.1364L46.4216 48.9935H36.938C36.8886 48.6489 36.8603 48.297 36.8603 47.9378C36.8603 47.6958 36.8744 47.4539 36.8956 47.2193H47.2125L48.4977 44.3527H37.7924C38.9788 42.2413 41.182 40.8117 43.71 40.8117Z" fill="#FFBE00"/>
<path d="M43.717 40.8943C45.7577 40.8943 47.6644 41.8401 48.9566 43.4896L49.0413 43.5996L49.0978 43.475L50.2136 40.9896L50.2418 40.931L50.1994 40.887C48.3634 39.0835 45.9484 38.0938 43.3921 38.0938C41.4008 38.0938 39.4801 38.6949 37.8488 39.8459C36.2529 40.9603 35.0242 42.5146 34.304 44.3401L34.3816 44.2888H32.1996H32.1431L32.122 44.3401L30.8368 47.2067L30.7803 47.3313H30.9074H33.7108L33.6261 47.236C33.6049 47.5366 33.5908 47.8005 33.5908 48.0424C33.5908 48.365 33.6049 48.6949 33.6402 49.0248L33.7249 48.9295H32.3197H32.2703L32.2491 48.9808L30.9497 51.8328L30.8933 51.9574H31.0204H34.4311L34.3534 51.9061C35.8928 55.5937 39.4306 57.9691 43.378 57.9691C45.3552 57.9691 47.2618 57.3753 48.886 56.2462L48.9213 56.2242V56.1803V52.6612V52.4339L48.7801 52.6025C47.4949 54.1201 45.6448 54.9926 43.7099 54.9926C41.429 54.9926 39.3176 53.8049 38.0607 51.8181L37.9901 51.9501H45.1434H45.1999L45.2211 51.8987L46.5063 49.0322L46.5628 48.9075H46.4356H36.945L37.0297 48.9808C36.9803 48.6363 36.952 48.2844 36.952 47.9398C36.952 47.7052 36.9662 47.4633 36.9873 47.2286L36.9026 47.3093H47.2195H47.276L47.2972 47.258L48.5824 44.3914L48.6388 44.2668H48.5047H37.7994L37.87 44.3987C39.0776 42.2433 41.3161 40.8943 43.717 40.8943ZM37.7994 44.4501H48.5117L48.4341 44.3254L47.1489 47.192L47.2265 47.1407H36.9097H36.832L36.8249 47.2213C36.8037 47.4633 36.7896 47.7052 36.7896 47.9471C36.7896 48.299 36.8179 48.6583 36.8673 49.0175L36.8814 49.0908H36.952H46.4356L46.358 48.9662L45.0728 51.8328L45.1505 51.7814H37.9971H37.8418L37.9265 51.9134C39.2117 53.9515 41.3796 55.1685 43.7099 55.1685C45.6942 55.1685 47.5867 54.2741 48.9072 52.7198L48.7589 52.6612V56.1729L48.7942 56.0996C47.1912 57.2067 45.3199 57.7932 43.378 57.7932C39.5012 57.7932 36.0199 55.4545 34.5088 51.8328L34.4876 51.7814H34.4311H31.0204L31.098 51.9061L32.3832 49.0395L32.3056 49.0908H33.7108H33.8026L33.7955 48.9955C33.7673 48.6729 33.7461 48.343 33.7461 48.0278C33.7461 47.7858 33.7602 47.5219 33.7814 47.2286L33.7885 47.1333H33.6967H30.8933L30.9709 47.258L32.2561 44.3914L32.1785 44.4427H34.3605H34.417L34.4381 44.3914C35.1443 42.6025 36.3518 41.0776 37.9195 39.9779C39.5295 38.8562 41.4149 38.2624 43.371 38.2624C45.8778 38.2624 48.2575 39.2374 50.0653 41.0116L50.0441 40.909L48.9284 43.3943L49.0696 43.3797C47.7491 41.6935 45.7931 40.7257 43.7028 40.7257C41.2454 40.7257 38.9575 42.104 37.7147 44.3181L37.6441 44.4501H37.7994Z" fill="white"/>
</svg>
