<svg width="96" height="96" viewBox="0 0 96 96" fill="none" xmlns="http://www.w3.org/2000/svg">
<rect width="96" height="96" rx="48" fill=""/>
<g clip-path="url(#clip0_9871_14607)">
<mask id="mask0_9871_14607" style="mask-type:luminance" maskUnits="userSpaceOnUse" x="24" y="25" width="48" height="48">
<path d="M72 25H24V73H72V25Z" fill="white"/>
</mask>
<g mask="url(#mask0_9871_14607)">
<path d="M47.9986 63.3038C51.7903 63.2994 55.4258 61.7911 58.107 59.1099C60.7883 56.4287 62.2965 52.7934 62.3008 49.0016C62.3008 46.173 61.462 43.4076 59.8904 41.0556C58.3189 38.7036 56.0852 36.8705 53.4718 35.788C50.8584 34.7054 47.9827 34.4222 45.2083 34.974C42.434 35.5258 39.8855 36.888 37.8854 38.8882C35.8851 40.8885 34.523 43.4369 33.9711 46.2113C33.4193 48.9856 33.7025 51.8613 34.785 54.4747C35.8675 57.0881 37.7007 59.3218 40.0527 60.8933C42.4047 62.4649 45.1698 63.3038 47.9986 63.3038ZM40.9473 38.4485C43.0344 37.0539 45.4883 36.3096 47.9985 36.3096C51.3634 36.3135 54.5894 37.6519 56.9687 40.0313C59.3482 42.4107 60.6865 45.6367 60.6905 49.0016C60.6904 51.5118 59.9461 53.9656 58.5515 56.0527C57.1569 58.1399 55.1747 59.7667 52.8555 60.7273C50.5364 61.6879 47.9845 61.9392 45.5225 61.4495C43.0605 60.9598 40.799 59.751 39.024 57.976C37.2491 56.201 36.0402 53.9395 35.5505 51.4775C35.0608 49.0155 35.3122 46.4636 36.2728 44.1445C37.2334 41.8253 38.8601 39.8431 40.9473 38.4485Z" fill="white" stroke="white" stroke-width="0.313043"/>
<path d="M47.9988 59.9508C50.9019 59.9476 53.6854 58.7929 55.7381 56.74C57.7909 54.6873 58.9456 51.904 58.9489 49.001C58.9489 46.8353 58.3067 44.718 57.1035 42.9173C55.9002 41.1166 54.1901 39.7131 52.1892 38.8843C50.1885 38.0555 47.9867 37.8387 45.8626 38.2612C43.7385 38.6837 41.7874 39.7265 40.256 41.258C38.7246 42.7894 37.6817 44.7405 37.2592 46.8646C36.8367 48.9887 37.0536 51.1904 37.8823 53.1912C38.7111 55.192 40.1146 56.9022 41.9153 58.1054C43.7161 59.3087 45.8332 59.9508 47.9988 59.9508ZM42.81 41.2351C44.3459 40.2089 46.1515 39.6611 47.9988 39.6611C50.475 39.664 52.8489 40.649 54.5998 42.3998C56.3507 44.1508 57.3357 46.5248 57.3386 49.001C57.3386 50.8481 56.7908 52.6538 55.7646 54.1897C54.7383 55.7256 53.2797 56.9227 51.573 57.6296C49.8664 58.3365 47.9885 58.5215 46.1768 58.1611C44.365 57.8006 42.7009 56.9112 41.3947 55.6049C40.0885 54.2988 39.199 52.6346 38.8386 50.8229C38.4782 49.0112 38.6632 47.1333 39.3701 45.4267C40.077 43.72 41.2741 42.2614 42.81 41.2351Z" fill="white" stroke="white" stroke-width="0.313043"/>
<path d="M47.4292 36.0688C47.5802 36.2198 47.785 36.3047 47.9986 36.3047C48.2121 36.3047 48.4169 36.2198 48.5679 36.0688C48.7189 35.9178 48.8038 35.713 48.8038 35.4995V31.0005C48.8038 30.7869 48.7189 30.5821 48.5679 30.4311C48.4169 30.2801 48.2121 30.1953 47.9986 30.1953C47.785 30.1953 47.5802 30.2801 47.4292 30.4311C47.2782 30.5821 47.1934 30.7869 47.1934 31.0005V35.4995C47.1934 35.713 47.2782 35.9178 47.4292 36.0688Z" fill="white" stroke="white" stroke-width="0.313043"/>
<path d="M47.9981 31.8089C48.7494 31.808 49.47 31.5091 50.0013 30.9779C50.5325 30.4466 50.8314 29.7263 50.8323 28.975C50.8323 28.4144 50.6661 27.8663 50.3547 27.4002C50.0433 26.9341 49.6006 26.5709 49.0827 26.3564C48.5649 26.1419 47.995 26.0857 47.4453 26.1951C46.8955 26.3044 46.3906 26.5744 45.9941 26.9707C45.5978 27.3671 45.3279 27.8721 45.2185 28.4219C45.1092 28.9716 45.1653 29.5415 45.3797 30.0594C45.5943 30.5772 45.9575 31.0199 46.4236 31.3313C46.8897 31.6427 47.4377 31.8089 47.9981 31.8089ZM47.3183 27.9572C47.5195 27.8228 47.7561 27.751 47.998 27.751C48.3226 27.7513 48.6337 27.8803 48.8632 28.1098C49.0926 28.3392 49.2216 28.6503 49.2219 28.9748C49.2219 29.2168 49.1502 29.4534 49.0157 29.6547C48.8812 29.8559 48.6902 30.0128 48.4666 30.1054C48.2429 30.198 47.9968 30.2223 47.7594 30.1751C47.522 30.1278 47.304 30.0113 47.1328 29.8401C46.9617 29.669 46.8451 29.4509 46.7979 29.2135C46.7507 28.9761 46.7749 28.7301 46.8675 28.5064C46.9602 28.2828 47.117 28.0917 47.3183 27.9572Z" fill="white" stroke="white" stroke-width="0.313043"/>
<path d="M47.4302 67.5649C47.5812 67.7159 47.786 67.8008 47.9995 67.8008C48.2131 67.8008 48.4178 67.7159 48.5689 67.5649C48.7199 67.4139 48.8047 67.2091 48.8047 66.9955V62.4966C48.8047 62.283 48.7199 62.0782 48.5689 61.9272C48.4178 61.7762 48.2131 61.6914 47.9995 61.6914C47.786 61.6914 47.5812 61.7762 47.4302 61.9272C47.2792 62.0782 47.1943 62.283 47.1943 62.4966V66.9955C47.1943 67.2091 47.2792 67.4139 47.4302 67.5649Z" fill="white" stroke="white" stroke-width="0.313043"/>
<path d="M47.9981 71.8597C48.7494 71.8587 49.47 71.5599 50.0013 71.0286C50.5325 70.4973 50.8314 69.7771 50.8323 69.0257C50.8323 68.4651 50.6661 67.917 50.3547 67.451C50.0433 66.9849 49.6006 66.6216 49.0827 66.4071C48.5649 66.1926 47.995 66.1365 47.4453 66.2459C46.8955 66.3552 46.3906 66.6252 45.9941 67.0215C45.5978 67.4179 45.3279 67.9228 45.2185 68.4726C45.1092 69.0224 45.1653 69.5922 45.3797 70.1101C45.5943 70.628 45.9575 71.0706 46.4236 71.3821C46.8897 71.6934 47.4377 71.8597 47.9981 71.8597ZM47.3183 68.008C47.5195 67.8736 47.7561 67.8018 47.998 67.8017C48.3226 67.802 48.6337 67.9311 48.8632 68.1605C49.0926 68.39 49.2216 68.7011 49.2219 69.0256C49.2219 69.2676 49.1502 69.5042 49.0157 69.7054C48.8812 69.9067 48.6902 70.0635 48.4666 70.1562C48.2429 70.2488 47.9968 70.2731 47.7594 70.2258C47.522 70.1786 47.304 70.0621 47.1328 69.8909C46.9617 69.7197 46.8451 69.5017 46.7979 69.2643C46.7507 69.0269 46.7749 68.7808 46.8675 68.5572C46.9602 68.3336 47.117 68.1425 47.3183 68.008Z" fill="white" stroke="white" stroke-width="0.313043"/>
<path d="M61.4956 49.8018H65.9946C66.2081 49.8018 66.413 49.717 66.564 49.566C66.715 49.4149 66.7998 49.2102 66.7998 48.9966C66.7998 48.7831 66.715 48.5782 66.564 48.4272C66.413 48.2762 66.2081 48.1914 65.9946 48.1914H61.4956C61.2821 48.1914 61.0772 48.2762 60.9263 48.4272C60.7753 48.5782 60.6904 48.7831 60.6904 48.9966C60.6904 49.2102 60.7753 49.4149 60.9263 49.566C61.0772 49.717 61.2821 49.8018 61.4956 49.8018Z" fill="white" stroke="white" stroke-width="0.313043"/>
<path d="M68.0236 51.8362C68.7749 51.8354 69.4955 51.5365 70.0267 51.0052C70.5579 50.474 70.8569 49.7537 70.8577 49.0024C70.8577 48.4418 70.6915 47.8937 70.3801 47.4275C70.0686 46.9615 69.6261 46.5983 69.1082 46.3837C68.5903 46.1692 68.0205 46.1131 67.4707 46.2224C66.9209 46.3318 66.4159 46.6017 66.0195 46.9981C65.6232 47.3945 65.3533 47.8995 65.2439 48.4492C65.1346 48.999 65.1907 49.5689 65.4052 50.0867C65.6197 50.6046 65.983 51.0473 66.449 51.3586C66.9151 51.6701 67.4631 51.8362 68.0236 51.8362ZM67.3437 47.9845C67.5449 47.8501 67.7814 47.7784 68.0234 47.7784C68.3479 47.7787 68.6591 47.9077 68.8886 48.1372C69.118 48.3666 69.2471 48.6777 69.2474 49.0021C69.2474 49.2442 69.1756 49.4808 69.0411 49.6821C68.9067 49.8833 68.7156 50.0402 68.4919 50.1328C68.2683 50.2254 68.0223 50.2496 67.7849 50.2025C67.5475 50.1552 67.3294 50.0386 67.1583 49.8675C66.9871 49.6964 66.8706 49.4783 66.8233 49.2409C66.776 49.0035 66.8004 48.7574 66.8929 48.5338C66.9856 48.3102 67.1424 48.119 67.3437 47.9845Z" fill="white" stroke="white" stroke-width="0.313043"/>
<path d="M30.0024 49.8018H34.5014C34.715 49.8018 34.9198 49.717 35.0708 49.566C35.2219 49.4149 35.3066 49.2102 35.3066 48.9966C35.3066 48.7831 35.2219 48.5782 35.0708 48.4272C34.9198 48.2762 34.715 48.1914 34.5014 48.1914H30.0024C29.7889 48.1914 29.5841 48.2762 29.4331 48.4272C29.2821 48.5782 29.1973 48.7831 29.1973 48.9966C29.1973 49.2102 29.2821 49.4149 29.4331 49.566C29.5841 49.717 29.7889 49.8018 30.0024 49.8018Z" fill="white" stroke="white" stroke-width="0.313043"/>
<path d="M27.9738 51.8362C28.7251 51.8354 29.4456 51.5365 29.9769 51.0052C30.5082 50.474 30.807 49.7537 30.8079 49.0024C30.8079 48.4418 30.6417 47.8937 30.3303 47.4275C30.0189 46.9615 29.5762 46.5983 29.0584 46.3837C28.5405 46.1692 27.9707 46.1131 27.4209 46.2224C26.8711 46.3318 26.3661 46.6017 25.9698 46.9981C25.5734 47.3945 25.3035 47.8995 25.1941 48.4492C25.0848 48.999 25.1409 49.5689 25.3554 50.0867C25.5699 50.6046 25.9332 51.0473 26.3992 51.3586C26.8653 51.6701 27.4133 51.8362 27.9738 51.8362ZM27.2939 47.9845C27.4951 47.8501 27.7317 47.7784 27.9737 47.7784C28.2982 47.7787 28.6093 47.9077 28.8388 48.1372C29.0682 48.3666 29.1973 48.6777 29.1976 49.0021C29.1976 49.2442 29.1258 49.4808 28.9914 49.6821C28.8569 49.8833 28.6657 50.0402 28.4421 50.1328C28.2185 50.2254 27.9724 50.2496 27.735 50.2025C27.4976 50.1552 27.2796 50.0386 27.1084 49.8675C26.9373 49.6964 26.8207 49.4783 26.7735 49.2409C26.7263 49.0035 26.7505 48.7574 26.8431 48.5338C26.9358 48.3102 27.0926 48.119 27.2939 47.9845Z" fill="white" stroke="white" stroke-width="0.313043"/>
<path d="M36.7763 64.8088C36.914 64.8099 37.0495 64.7756 37.1702 64.7093C37.291 64.6429 37.3927 64.5466 37.4657 64.4296L40.2497 59.9623C40.3626 59.7807 40.3989 59.5619 40.3505 59.3537C40.3019 59.1456 40.1728 58.9651 39.9913 58.8521C39.8098 58.7392 39.5909 58.703 39.3827 58.7514C39.1746 58.8 38.9942 58.9291 38.8813 59.1106L36.3327 63.1985H31.5981C31.3846 63.1985 31.1798 63.2834 31.0288 63.4344C30.8778 63.5853 30.793 63.7901 30.793 64.0037C30.793 64.2172 30.8778 64.422 31.0288 64.573C31.1798 64.724 31.3846 64.8088 31.5981 64.8088H36.7763ZM36.7763 64.8088C36.7766 64.8088 36.7761 64.8088 36.7763 64.8088V64.8088Z" fill="white"/>
<path d="M36.7763 64.8088C36.914 64.8099 37.0495 64.7756 37.1702 64.7093C37.291 64.6429 37.3927 64.5466 37.4657 64.4296L40.2497 59.9623C40.3626 59.7807 40.3989 59.5619 40.3505 59.3537C40.3019 59.1456 40.1728 58.9651 39.9913 58.8521C39.8098 58.7392 39.5909 58.703 39.3827 58.7514M36.7763 64.8088H31.5981C31.3846 64.8088 31.1798 64.724 31.0288 64.573C30.8778 64.422 30.793 64.2172 30.793 64.0037C30.793 63.7901 30.8778 63.5853 31.0288 63.4344C31.1798 63.2834 31.3846 63.1985 31.5981 63.1985H36.3327L38.8813 59.1106C38.9942 58.9291 39.1746 58.8 39.3827 58.7514M36.7763 64.8088C36.7761 64.8088 36.7766 64.8088 36.7763 64.8088ZM36.7763 64.8088L36.777 64.6523M39.3827 58.7514L39.4182 58.9039" stroke="white" stroke-width="0.313043"/>
<path d="M32.4056 64.0022C32.4056 63.4417 32.2394 62.8936 31.928 62.4276C31.6166 61.9616 31.174 61.5983 30.6562 61.3838C30.1384 61.1693 29.5685 61.113 29.0188 61.2224C28.469 61.3316 27.964 61.6015 27.5677 61.9978C27.1713 62.3941 26.9013 62.8991 26.7918 63.4488C26.6824 63.9985 26.7384 64.5683 26.9528 65.0862C27.1672 65.6041 27.5304 66.0468 27.9964 66.3583C28.4624 66.6698 29.0103 66.8361 29.5708 66.8362C30.3223 66.8357 31.043 66.5369 31.5745 66.0056C32.106 65.4743 32.4049 64.7537 32.4056 64.0022ZM30.4362 63.137C30.6658 63.3664 30.7949 63.6776 30.7953 64.0021L29.5709 62.7783C29.8955 62.7784 30.2066 62.9074 30.4362 63.137Z" fill="white"/>
<path d="M29.5709 62.7783L30.7953 64.0021C30.7949 63.6776 30.6658 63.3664 30.4362 63.137C30.2066 62.9074 29.8955 62.7784 29.5709 62.7783ZM29.5709 62.7783L29.5708 62.6218M32.4056 64.0022C32.4056 63.4417 32.2394 62.8936 31.928 62.4276C31.6166 61.9616 31.174 61.5983 30.6562 61.3838C30.1384 61.1693 29.5685 61.113 29.0188 61.2224C28.469 61.3316 27.964 61.6015 27.5677 61.9978C27.1713 62.3941 26.9013 62.8991 26.7918 63.4488C26.6824 63.9985 26.7384 64.5683 26.9528 65.0862C27.1672 65.6041 27.5304 66.0468 27.9964 66.3583C28.4624 66.6698 29.0103 66.8361 29.5708 66.8362C30.3223 66.8357 31.043 66.5369 31.5745 66.0056C32.106 65.4743 32.4049 64.7537 32.4056 64.0022Z" stroke="white" stroke-width="0.313043"/>
<path d="M39.5664 39.269C39.7096 39.2679 39.8507 39.2287 39.9737 39.1554C40.0966 39.0821 40.1977 38.9773 40.2667 38.8519C40.3357 38.7265 40.37 38.585 40.3661 38.4418C40.3622 38.2988 40.3202 38.1594 40.2445 38.0379L37.4605 33.5707C37.3881 33.4546 37.2874 33.3589 37.1678 33.2925C37.0482 33.2262 36.9137 33.1914 36.777 33.1914H31.5981C31.3846 33.1914 31.1798 33.2762 31.0288 33.4272C30.8778 33.5782 30.793 33.783 30.793 33.9966C30.793 34.2101 30.8778 34.4149 31.0288 34.5659C31.1798 34.7169 31.3846 34.8018 31.5981 34.8018H36.3333L38.882 38.8898C38.9544 39.0059 39.0552 39.1017 39.175 39.1681C39.2948 39.2344 39.4295 39.2692 39.5664 39.269Z" fill="white" stroke="white" stroke-width="0.313043"/>
<path d="M32.4056 33.9984C32.4056 33.4378 32.2394 32.8898 31.928 32.4237C31.6166 31.9577 31.174 31.5944 30.6562 31.3799C30.1384 31.1653 29.5685 31.1092 29.0188 31.2185C28.469 31.3278 27.964 31.5976 27.5677 31.9939C27.1713 32.3902 26.9013 32.8951 26.7918 33.4449C26.6824 33.9946 26.7384 34.5644 26.9528 35.0823C27.1672 35.6002 27.5304 36.0429 27.9964 36.3543C28.4624 36.6659 29.0102 36.8322 29.5708 36.8323C30.3223 36.8318 31.043 36.5331 31.5745 36.0017C32.106 35.4704 32.4049 34.7499 32.4056 33.9984ZM30.4362 33.133C30.6658 33.3625 30.7949 33.6736 30.7953 33.9982L29.5709 32.7744C29.8955 32.7746 30.2066 32.9035 30.4362 33.133Z" fill="white"/>
<path d="M29.5709 32.7744L30.7953 33.9982C30.7949 33.6736 30.6658 33.3625 30.4362 33.133C30.2066 32.9035 29.8955 32.7746 29.5709 32.7744ZM29.5709 32.7744L29.5708 32.6179M32.4056 33.9984C32.4056 33.4378 32.2394 32.8898 31.928 32.4237C31.6166 31.9577 31.174 31.5944 30.6562 31.3799C30.1384 31.1653 29.5685 31.1092 29.0188 31.2185C28.469 31.3278 27.964 31.5976 27.5677 31.9939C27.1713 32.3902 26.9013 32.8951 26.7918 33.4449C26.6824 33.9946 26.7384 34.5644 26.9528 35.0823C27.1672 35.6002 27.5304 36.0429 27.9964 36.3543C28.4624 36.6659 29.0102 36.8322 29.5708 36.8323C30.3223 36.8318 31.043 36.5331 31.5745 36.0017C32.106 35.4704 32.4049 34.7499 32.4056 33.9984Z" stroke="white" stroke-width="0.313043"/>
<path d="M55.7506 59.9623L58.5373 64.4295C58.6096 64.5456 58.7104 64.6413 58.83 64.7077C58.9496 64.7741 59.0841 64.8088 59.2208 64.8088H64.3996H64.4022C64.6158 64.8088 64.8206 64.724 64.9716 64.573C65.1226 64.422 65.2074 64.2172 65.2074 64.0037C65.2074 63.7901 65.1226 63.5852 64.9716 63.4343C64.8206 63.2833 64.6158 63.1984 64.4022 63.1984H59.6677L57.1191 59.1106C57.0061 58.9291 56.8258 58.8 56.6176 58.7514C56.4094 58.703 56.1905 58.7392 56.009 58.8521C55.8276 58.9651 55.6984 59.1456 55.6499 59.3537C55.6015 59.5619 55.6377 59.7807 55.7506 59.9623Z" fill="white"/>
<path d="M57.1191 59.1106L59.6677 63.1984H64.4021C64.6157 63.1984 64.8206 63.2833 64.9716 63.4343C65.1226 63.5852 65.2074 63.7901 65.2074 64.0037C65.2074 64.2172 65.1226 64.422 64.9716 64.573C64.8206 64.724 64.6157 64.8088 64.4021 64.8088H64.3996H59.2208C59.0841 64.8088 58.9496 64.7741 58.83 64.7077C58.7104 64.6413 58.6096 64.5456 58.5373 64.4295L55.7506 59.9623C55.6377 59.7807 55.6015 59.5619 55.6499 59.3537C55.6984 59.1456 55.8276 58.9651 56.009 58.8521C56.1905 58.7392 56.4094 58.703 56.6176 58.7514C56.8258 58.8 57.0061 58.9291 57.1191 59.1106ZM57.1191 59.1106L56.9861 59.1932" stroke="white" stroke-width="0.313043"/>
<path d="M66.427 66.8363C67.1783 66.8354 67.8988 66.5365 68.43 66.0052C68.9613 65.474 69.2602 64.7537 69.2611 64.0024C69.2611 63.4418 69.0949 62.8937 68.7834 62.4275C68.4721 61.9615 68.0294 61.5983 67.5115 61.3837C66.9937 61.1692 66.4238 61.1131 65.874 61.2224C65.3243 61.3318 64.8193 61.6017 64.4229 61.9981C64.0265 62.3945 63.7566 62.8995 63.6472 63.4492C63.5379 63.999 63.594 64.5689 63.8086 65.0867C64.0231 65.6046 64.3863 66.0473 64.8524 66.3586C65.3185 66.6701 65.8664 66.8363 66.427 66.8363ZM65.747 62.9845C65.9483 62.8501 66.1849 62.7784 66.4268 62.7784C66.7513 62.7789 67.0623 62.908 67.2918 63.1373C67.5211 63.3668 67.6502 63.6777 67.6507 64.0021C67.6507 64.2442 67.5789 64.4808 67.4445 64.6821C67.31 64.8833 67.1189 65.0402 66.8953 65.1328C66.6716 65.2254 66.4256 65.2496 66.1882 65.2025C65.9508 65.1552 65.7327 65.0386 65.5616 64.8675C65.3905 64.6964 65.2739 64.4783 65.2266 64.2409C65.1795 64.0035 65.2037 63.7574 65.2963 63.5338C65.3889 63.3102 65.5458 63.1191 65.747 62.9845Z" fill="white" stroke="white" stroke-width="0.313043"/>
<path d="M56.4315 39.269C56.5685 39.2693 56.7034 39.2347 56.8231 39.1683C56.943 39.1019 57.044 39.006 57.1166 38.8898L59.6652 34.8018H64.3978C64.6114 34.8018 64.8161 34.7169 64.9671 34.5659C65.1182 34.4149 65.203 34.2101 65.203 33.9966C65.203 33.783 65.1182 33.5782 64.9671 33.4272C64.8161 33.2762 64.6114 33.1914 64.3978 33.1914H59.2165C59.0798 33.1914 58.9452 33.2262 58.8256 33.2925C58.7059 33.3589 58.6052 33.4546 58.5329 33.5706L55.7489 38.0379C55.6729 38.1598 55.6309 38.2997 55.6272 38.4433C55.6236 38.5869 55.6583 38.7288 55.728 38.8543C55.7976 38.9799 55.8997 39.0846 56.0233 39.1575C56.1471 39.2304 56.2879 39.2689 56.4315 39.269ZM56.4315 39.269C56.4316 39.269 56.4314 39.269 56.4315 39.269V39.269Z" fill="white"/>
<path d="M56.4315 39.269C56.5685 39.2693 56.7034 39.2347 56.8231 39.1683C56.943 39.1019 57.044 39.006 57.1166 38.8898L59.6652 34.8018H64.3978C64.6114 34.8018 64.8161 34.7169 64.9671 34.5659C65.1182 34.4149 65.203 34.2101 65.203 33.9966C65.203 33.783 65.1182 33.5782 64.9671 33.4272C64.8161 33.2762 64.6114 33.1914 64.3978 33.1914H59.2165C59.0798 33.1914 58.9452 33.2262 58.8256 33.2925C58.7059 33.3589 58.6052 33.4546 58.5329 33.5706L55.7489 38.0379C55.6729 38.1598 55.6309 38.2997 55.6272 38.4433C55.6236 38.5869 55.6583 38.7288 55.728 38.8543C55.7976 38.9799 55.8997 39.0846 56.0233 39.1575C56.1471 39.2304 56.2879 39.2689 56.4315 39.269ZM56.4315 39.269C56.4314 39.269 56.4316 39.269 56.4315 39.269ZM56.4315 39.269L56.4317 39.1125" stroke="white" stroke-width="0.313043"/>
<path d="M66.427 36.8323C67.1783 36.8313 67.8987 36.5323 68.4299 36.0011C68.9611 35.4699 69.26 34.7497 69.2611 33.9984C69.2611 33.4379 69.0949 32.8897 68.7834 32.4236C68.4721 31.9576 68.0294 31.5943 67.5115 31.3798C66.9937 31.1653 66.4238 31.1092 65.874 31.2185C65.3243 31.3279 64.8193 31.5978 64.4229 31.9942C64.0265 32.3905 63.7566 32.8955 63.6472 33.4453C63.5379 33.9951 63.594 34.5649 63.8086 35.0828C64.0231 35.6006 64.3863 36.0433 64.8524 36.3548C65.3185 36.6661 65.8664 36.8323 66.427 36.8323ZM65.747 32.9807C65.9483 32.8462 66.1849 32.7744 66.4268 32.7744C66.7514 32.7747 67.0624 32.9038 67.292 33.1332C67.5213 33.3627 67.6504 33.6737 67.6507 33.9982C67.6507 34.2403 67.5789 34.4769 67.4445 34.6781C67.31 34.8794 67.1189 35.0362 66.8953 35.1289C66.6716 35.2215 66.4256 35.2457 66.1882 35.1985C65.9508 35.1513 65.7327 35.0347 65.5616 34.8636C65.3905 34.6924 65.2739 34.4743 65.2266 34.237C65.1795 33.9996 65.2037 33.7535 65.2963 33.5299C65.3889 33.3063 65.5458 33.1151 65.747 32.9807Z" fill="white" stroke="white" stroke-width="0.313043"/>
</g>
</g>
<defs>
<clipPath id="clip0_9871_14607">
<rect width="48" height="48" fill="white" transform="translate(24 25)"/>
</clipPath>
</defs>
</svg>
