<svg width="80" height="80" viewBox="0 0 80 80" fill="none" xmlns="http://www.w3.org/2000/svg">
<rect width="80" height="80" rx="40" fill=""/>
<path d="M49 19H31C29.808 19.0049 28.6663 19.4806 27.8235 20.3235C26.9806 21.1663 26.5049 22.308 26.5 23.5V56.5C26.5049 57.692 26.9806 58.8337 27.8235 59.6765C28.6663 60.5194 29.808 60.9951 31 61H49C50.192 60.9951 51.3337 60.5194 52.1765 59.6765C53.0194 58.8337 53.4951 57.692 53.5 56.5V23.5C53.4951 22.308 53.0194 21.1663 52.1765 20.3235C51.3337 19.4806 50.192 19.0049 49 19ZM46 28H34C33.6022 28 33.2206 27.842 32.9393 27.5607C32.658 27.2794 32.5 26.8978 32.5 26.5C32.5 26.1022 32.658 25.7206 32.9393 25.4393C33.2206 25.158 33.6022 25 34 25H46C46.3978 25 46.7794 25.158 47.0607 25.4393C47.342 25.7206 47.5 26.1022 47.5 26.5C47.5 26.8978 47.342 27.2794 47.0607 27.5607C46.7794 27.842 46.3978 28 46 28Z" fill="white"/>
<circle cx="40" cy="57" r="2" fill="#2169FC"/>
</svg>
