<svg width="80" height="80" viewBox="0 0 80 80" fill="none" xmlns="http://www.w3.org/2000/svg">
<rect width="80" height="80" rx="40" fill=""/>
<path d="M16.8835 30.5455V48H13.7216V30.5455H16.8835ZM19.8275 48V30.5455H26.5093C27.7707 30.5455 28.819 30.7443 29.6542 31.142C30.4951 31.5341 31.123 32.071 31.5378 32.7528C31.9582 33.4347 32.1684 34.2074 32.1684 35.071C32.1684 35.7812 32.0321 36.3892 31.7593 36.8949C31.4866 37.3949 31.1201 37.8011 30.6599 38.1136C30.1997 38.4261 29.6855 38.6506 29.1173 38.7869V38.9574C29.7366 38.9915 30.3304 39.1818 30.8986 39.5284C31.4724 39.8693 31.9412 40.3523 32.3048 40.9773C32.6684 41.6023 32.8503 42.358 32.8503 43.2443C32.8503 44.1477 32.6315 44.9602 32.194 45.6818C31.7565 46.3977 31.0974 46.9631 30.2167 47.3778C29.3361 47.7926 28.2281 48 26.8929 48H19.8275ZM22.9895 45.358H26.39C27.5378 45.358 28.3645 45.1392 28.8701 44.7017C29.3815 44.2585 29.6372 43.6903 29.6372 42.9972C29.6372 42.4801 29.5093 42.0142 29.2537 41.5994C28.998 41.179 28.6343 40.8494 28.1628 40.6108C27.6912 40.3665 27.1287 40.2443 26.4753 40.2443H22.9895V45.358ZM22.9895 37.9688H26.1173C26.6628 37.9688 27.1542 37.8693 27.5917 37.6705C28.0292 37.4659 28.373 37.179 28.623 36.8097C28.8787 36.4347 29.0065 35.9915 29.0065 35.4801C29.0065 34.804 28.7679 34.2472 28.2906 33.8097C27.819 33.3722 27.1173 33.1534 26.1855 33.1534H22.9895V37.9688ZM37.3624 48H33.9874L40.1323 30.5455H44.0357L50.1891 48H46.8141L42.1522 34.125H42.0159L37.3624 48ZM37.4732 41.1562H46.6778V43.696H37.4732V41.1562ZM66.3519 30.5455V48H63.5394L55.315 36.1108H55.1701V48H52.0082V30.5455H54.8377L63.0536 42.4432H63.207V30.5455H66.3519Z" fill="white"/>
<defs>
<linearGradient id="paint0_linear_9867_14167" x1="-3.61803e-07" y1="33.0784" x2="80" y2="33.0784" gradientUnits="userSpaceOnUse">
<stop stop-color="#33B78F"/>
<stop offset="1" stop-color="#019E6F"/>
</linearGradient>
</defs>
</svg>
