<svg width="80" height="80" viewBox="0 0 80 80" fill="none" xmlns="http://www.w3.org/2000/svg">
<rect width="80" height="80" rx="40" fill=""/>
<path d="M61.7976 22.5666L50.3351 63.2322C50.144 63.9208 49.7453 64.5338 49.1935 64.9878C48.6416 65.4418 47.9633 65.7148 47.2507 65.7697H46.9445C46.2852 65.7682 45.6398 65.5806 45.0826 65.2284C44.5253 64.8763 44.0788 64.3739 43.7945 63.7791L35.9851 47.2853C35.9084 47.1197 35.8841 46.9347 35.9154 46.7549C35.9466 46.5751 36.032 46.4091 36.1601 46.2791L47.382 35.0572C47.5577 34.898 47.6992 34.7048 47.7979 34.4893C47.8966 34.2738 47.9506 34.0404 47.9564 33.8034C47.9622 33.5665 47.9199 33.3307 47.8319 33.1106C47.7438 32.8905 47.612 32.6906 47.4444 32.5229C47.2767 32.3553 47.0768 32.2235 46.8567 32.1355C46.6366 32.0474 46.4009 32.0051 46.1639 32.0109C45.9269 32.0167 45.6935 32.0707 45.478 32.1694C45.2625 32.2682 45.0693 32.4097 44.9101 32.5853L33.6882 43.8291C33.5582 43.9572 33.3923 44.0425 33.2125 44.0738C33.0327 44.1051 32.8476 44.0808 32.682 44.0041L16.2757 36.2385C15.6336 35.9352 15.0945 35.4502 14.7251 34.8437C14.3558 34.2372 14.1724 33.5357 14.1976 32.826C14.2363 32.0952 14.5045 31.3953 14.964 30.8259C15.4235 30.2564 16.0509 29.8463 16.757 29.6541L57.5101 18.1697C58.2229 17.9661 58.9819 17.9942 59.6777 18.2497C60.3736 18.5052 60.9703 18.9751 61.382 19.5916C61.6582 20.0297 61.8381 20.5215 61.9097 21.0344C61.9814 21.5473 61.9432 22.0696 61.7976 22.5666Z" fill="#F0F2F6"/>
</svg>
