<svg width="49" height="48" viewBox="0 0 49 48" fill="none" xmlns="http://www.w3.org/2000/svg">
<path d="M24.105 48C37.4179 48 48.21 37.2548 48.21 24C48.21 10.7452 37.4179 0 24.105 0C10.7922 0 0 10.7452 0 24C0 37.2548 10.7922 48 24.105 48Z" fill="#2169FC"/>
<path d="M32.4194 29.2326C32.2194 29.1438 32.0026 29.0987 31.7836 29.1004C31.5942 29.1006 31.4062 29.1325 31.2275 29.1948C30.8964 29.3393 30.6015 29.5548 30.3639 29.826C30.2657 29.9289 30.1611 30.0254 30.0507 30.1152C28.5323 31.249 27.1296 31.7744 25.4309 31.8424V16.6468C26.936 16.8471 28.0236 17.4462 28.6575 18.4326C28.793 18.662 28.9092 18.9022 29.0049 19.1508C29.149 19.55 29.3517 19.9257 29.6066 20.2657C29.635 20.3016 29.7489 20.4263 29.7698 20.4547C30.0438 20.7157 30.4099 20.8589 30.789 20.8534C30.9948 20.8572 31.1988 20.8161 31.387 20.7332C31.5752 20.6503 31.7429 20.5275 31.8785 20.3734C32.1659 19.9863 32.3106 19.5125 32.2885 19.0317C32.2885 18.7671 32.3094 18.5933 32.3188 18.4648C32.3427 18.2131 32.3389 17.9597 32.3075 17.7089C32.1461 16.3312 31.7589 16.0667 30.5556 15.4411L30.176 15.2427C28.3406 14.2619 27.2625 14.0371 25.4423 13.7971C25.6226 10.9983 26.1768 10.0175 26.7614 9.39012C26.9438 9.20463 27.1627 9.05856 27.4044 8.96102C27.646 8.86348 27.9053 8.81656 28.1659 8.82319C28.2586 8.82315 28.3511 8.82883 28.4431 8.8402C27.8737 9.82288 28.0198 10.8604 28.8227 11.5388C29.2841 11.8866 29.8519 12.0655 30.4303 12.0452C30.9445 12.0654 31.4511 11.9174 31.8728 11.6238C32.9072 10.8018 32.9072 9.33721 32.3132 8.45469C31.6205 7.46225 30.5677 6.77654 29.3769 6.54225C28.2836 6.31265 27.1475 6.39261 26.0975 6.77304C25.0475 7.15348 24.1255 7.81918 23.4361 8.69469L23.362 8.7854C22.8666 9.37878 21.5874 10.9114 21.4773 13.7838C15.6313 15.0424 12.418 18.6254 12.418 23.913C12.418 27.1445 13.6061 32.7948 21.4792 34.7508C21.4792 34.8585 21.4792 34.9662 21.4792 35.0701C21.4431 36.1832 21.4184 36.9882 20.7712 38.2204C20.5962 38.5153 20.3461 38.7591 20.0461 38.927C19.7462 39.0949 19.4071 39.181 19.063 39.1766C18.9355 39.1776 18.8083 39.1656 18.6834 39.1407C18.8325 38.8232 18.9009 38.474 18.8827 38.124C18.8738 37.8272 18.7965 37.5365 18.6566 37.2743C18.5167 37.0122 18.318 36.7856 18.076 36.6122C18.0603 36.601 18.0438 36.5909 18.0267 36.5819C17.6228 36.3467 17.1658 36.2167 16.698 36.204C16.1392 36.2123 15.6043 36.4315 15.2016 36.8174C14.7989 37.2033 14.5583 37.727 14.5286 38.2827C14.5203 38.6516 14.5857 39.0185 14.7209 39.362C14.8561 39.7055 15.0585 40.0189 15.3163 40.284C15.7265 40.7623 16.2387 41.1435 16.8156 41.3998C17.3925 41.6561 18.0196 41.781 18.6511 41.7656C19.1614 41.76 19.67 41.7049 20.1695 41.6012C22.358 41.0645 23.9542 39.683 24.9146 37.4947C25.2449 36.7388 25.3588 35.4632 25.3948 34.7848C26.592 34.6597 27.7621 34.3485 28.8625 33.8626C31.1705 32.8062 31.8994 32.0616 32.4688 31.4645L32.6187 31.3095C33.1673 30.7426 33.1407 30.2304 33.0211 29.8884C32.9155 29.5992 32.6992 29.3635 32.4194 29.2326ZM21.4906 24.2852C21.4906 26.7797 21.4906 29.2648 21.4906 31.712C19.0231 30.9958 17.3358 28.1007 17.3358 24.4175C17.3358 21.4033 18.0779 17.707 21.5114 16.7243C21.4963 19.2339 21.4925 21.7643 21.4906 24.2852Z" fill="white"/>
<path opacity="0.1" d="M40.8788 6.76356C36.3292 2.40954 30.2462 0.00545346 23.936 0.0675811C17.6258 0.129709 11.5917 2.65309 7.12954 7.09585C2.66734 11.5386 0.132915 17.5464 0.0705159 23.8291C0.00811642 30.1118 2.42272 36.1683 6.7958 40.698L40.8788 6.76356Z" fill="url(#paint0_linear_9867_14136)"/>
<defs>
<linearGradient id="paint0_linear_9867_14136" x1="29.2078" y1="29.0779" x2="0.428837" y2="0.173023" gradientUnits="userSpaceOnUse">
<stop stop-color="white"/>
<stop offset="0.36" stop-color="#D8D9FF"/>
<stop offset="0.3601" stop-color="#D6D7FF"/>
<stop offset="1" stop-color="#9495FF"/>
</linearGradient>
</defs>
</svg>
