<svg width="48" height="48" viewBox="0 0 48 48" fill="none" xmlns="http://www.w3.org/2000/svg">
<path d="M41.9071 31.725C41.9463 31.6536 41.9777 31.5781 42.0008 31.5C43.709 27.4016 43.9673 22.8431 42.7331 18.578C41.4989 14.3129 38.8461 10.5966 35.2133 8.04377L34.9883 7.91252C31.7576 5.68515 27.925 4.49481 24.0009 4.50002C20.4409 4.50129 16.9493 5.47705 13.9045 7.32152C10.8596 9.16598 8.37783 11.8088 6.7281 14.9633C5.07837 18.1179 4.32367 21.6639 4.54583 25.2169C4.76798 28.7699 5.95851 32.1943 7.98835 35.1188V35.1563C8.03384 35.2282 8.08395 35.2971 8.13835 35.3625C9.66164 37.486 11.5962 39.2816 13.8271 40.6426C16.058 42.0037 18.5398 42.9024 21.1249 43.2855C23.7099 43.6685 26.3457 43.528 28.8754 42.8724C31.4051 42.2167 33.7773 41.0592 35.8508 39.4688L36.1133 39.2625C38.6297 37.2594 40.6186 34.6719 41.9071 31.725ZM11.5321 34.8L12.2634 34.35C12.7044 34.0866 13.0695 33.7131 13.3226 33.266C13.5757 32.819 13.7082 32.3138 13.7071 31.8L13.7446 25.4625C13.7502 25.1765 13.8345 24.8975 13.9883 24.6563L16.6133 20.5313C16.723 20.3596 16.8664 20.212 17.0349 20.0976C17.2034 19.9831 17.3934 19.9042 17.5934 19.8656C17.7934 19.827 17.9992 19.8295 18.1982 19.8731C18.3972 19.9166 18.5852 20.0002 18.7509 20.1188L21.1509 21.8625C21.7824 22.3093 22.5584 22.5033 23.3259 22.4063L29.2133 21.6C29.9423 21.5068 30.6106 21.1459 31.0883 20.5875L35.2321 15.7875C35.4867 15.5032 35.6825 15.1712 35.808 14.8107C35.9335 14.4503 35.9863 14.0685 35.9633 13.6875L35.9258 12.6C38.8662 15.6664 40.5057 19.7517 40.5008 24C40.5026 25.4831 40.3007 26.9594 39.9008 28.3875L36.9196 25.65C36.4983 25.2669 35.9771 25.0108 35.4164 24.9113C34.8557 24.8118 34.2783 24.8728 33.7508 25.0875L28.0321 27.4688C27.5553 27.6682 27.1376 27.9867 26.8192 28.3938C26.5007 28.8009 26.2921 29.2829 26.2134 29.7938L25.7633 32.8313C25.6599 33.5642 25.8276 34.3097 26.235 34.9277C26.6424 35.5458 27.2614 35.9937 27.9758 36.1875L32.0071 37.2375L32.7571 37.9875C29.4205 40.0749 25.4476 40.9009 21.5555 40.3164C17.6634 39.7319 14.1084 37.7754 11.5321 34.8Z" fill="white"/>
</svg>
