<svg width="56" height="47" viewBox="-4 0 56 47" fill="none" xmlns="http://www.w3.org/2000/svg">
<path d="M14.2878 23.0396C11.7899 20.4861 10.4141 17.1287 10.4141 13.5859C10.4141 6.09445 16.5085 0 24 0C31.4915 0 37.5859 6.09445 37.5859 13.5859C37.5859 19.9802 33.1449 25.3564 27.1856 26.7936C26.5524 27.8969 25.3633 28.6406 24 28.6406C21.9722 28.6406 20.3281 26.9965 20.3281 24.9688C20.3281 22.941 21.9722 21.2969 24 21.2969C25.3045 21.2969 26.4491 21.9778 27.1007 23.003C31.0533 21.6981 33.9141 17.9703 33.9141 13.5859C33.9141 8.11936 29.4666 3.67188 24 3.67188C18.5334 3.67188 14.0859 8.11936 14.0859 13.5859C14.0859 16.1631 15.09 18.6086 16.9126 20.4721C17.6216 21.1968 17.609 22.359 16.8843 23.0683C16.1593 23.7772 14.9971 23.7646 14.2878 23.0396ZM43.7718 29.8351C42.2141 28.4664 40.3251 27.2838 38.1568 26.3202C37.2302 25.9086 36.1455 26.326 35.7335 27.2526C35.3219 28.1791 35.7392 29.2642 36.6658 29.6758C38.4942 30.4884 40.0698 31.4698 41.3482 32.5933C42.9241 33.9781 43.8281 35.9833 43.8281 38.0957V41.4922C43.8281 42.5045 43.0045 43.3281 41.9922 43.3281H6.00781C4.99554 43.3281 4.17188 42.5045 4.17188 41.4922V38.0957C4.17188 35.9833 5.07586 33.9781 6.65182 32.5933C8.1905 31.2411 10.9699 29.384 15.4719 28.2146C16.4533 27.9597 17.0421 26.9571 16.7871 25.976C16.5322 24.9946 15.5299 24.4058 14.5485 24.6607C9.34872 26.0115 6.06626 28.22 4.22817 29.8351C1.85867 31.9166 0.5 34.9276 0.5 38.0957V41.4922C0.5 44.5294 2.97063 47 6.00781 47H41.9922C45.0294 47 47.5 44.5294 47.5 41.4922V38.0957C47.5 34.9276 46.1413 31.9166 43.7718 29.8351Z" fill="url(#paint0_linear_8656_9584)"/>
<defs>
<linearGradient id="paint0_linear_8656_9584" x1="0.5" y1="19.4336" x2="47.5" y2="19.4336" gradientUnits="userSpaceOnUse">
<stop stop-color="#33B78F"/>
<stop offset="1" stop-color="#019E6F"/>
</linearGradient>
</defs>
</svg>
