<svg width="44" height="56" viewBox="0 -3.5 44 56" fill="none" xmlns="http://www.w3.org/2000/svg">
<path d="M17.7558 22.6052H24.1245C24.9226 22.6052 25.5697 23.2523 25.5697 24.0503C25.5697 24.8484 24.9226 25.4955 24.1245 25.4955H16.922C16.8924 25.7849 16.8768 26.0791 16.8768 26.3775C16.8768 26.6289 16.888 26.8773 16.9091 27.1227H24.1245C24.9226 27.1227 25.5697 27.7698 25.5697 28.5679C25.5697 29.3659 24.9226 30.013 24.1245 30.013H17.6863C18.7357 32.1951 20.6797 33.6252 22.8582 33.6252C24.2846 33.6252 25.6761 33.0019 26.7734 31.8477C27.323 31.2694 28.2378 31.2465 28.816 31.7964L17.7558 22.6052ZM17.7558 22.6052C18.8198 20.5004 20.7259 19.1299 22.8582 19.1299C24.2846 19.1299 25.6761 19.7532 26.7734 20.9073C27.3229 21.4854 28.237 21.509 28.8161 20.9594L28.8163 20.9592C29.3949 20.4092 29.4178 19.4945 28.8686 18.9162L28.8684 18.9161C27.2336 17.1962 25.0997 16.2398 22.8585 16.2398C19.107 16.2398 15.9279 18.9034 14.6247 22.6055H11.9408C11.1427 22.6055 10.4957 23.2525 10.4957 24.0506C10.4957 24.8487 11.1427 25.4957 11.9408 25.4957H14.0218C13.999 25.7858 13.9865 26.0798 13.9865 26.3778C13.9865 26.629 13.9951 26.8773 14.0114 27.123H11.9408C11.1427 27.123 10.4957 27.77 10.4957 28.5681C10.4957 29.3662 11.1427 30.0133 11.9408 30.0133H14.5776C15.8501 33.7869 19.0606 36.5158 22.8582 36.5158C25.0997 36.5158 27.2331 35.5591 28.8679 33.8396L28.868 33.8395C29.4174 33.2612 29.3951 32.3467 28.8161 31.7965L17.7558 22.6052Z" fill="url(#paint0_linear_8656_9585)" stroke="url(#paint1_linear_8656_9585)" stroke-width="0.7"/>
<path d="M34.2115 10.3708C37.9692 13.2689 40.5736 17.409 41.5592 22.051C42.5447 26.6929 41.8472 31.5341 39.5913 35.709C37.3353 39.8838 33.6681 43.1203 29.2451 44.8397C24.8222 46.5591 19.9318 46.6493 15.4485 45.0943C10.9651 43.5393 7.18089 40.4403 4.77246 36.3515C2.36403 32.2627 1.48836 27.4506 2.30199 22.7754C3.11563 18.1003 5.56553 13.8669 9.2137 10.8321C12.8619 7.79739 17.4705 6.15909 22.2156 6.21014" stroke="url(#paint2_linear_8656_9585)" stroke-width="3.7" stroke-linecap="round"/>
<path d="M26.5605 2L30.7699 6.2094L26.5605 10.4188" stroke="url(#paint3_linear_8656_9585)" stroke-width="3.7" stroke-linecap="round" stroke-linejoin="round"/>
<path d="M19.8809 2L24.0903 6.2094L19.8809 10.4188" stroke="url(#paint4_linear_8656_9585)" stroke-width="3.7" stroke-linecap="round" stroke-linejoin="round"/>
<defs>
<linearGradient id="paint0_linear_8656_9585" x1="10.8457" y1="24.6841" x2="28.9159" y2="24.6841" gradientUnits="userSpaceOnUse">
<stop stop-color="#33B78F"/>
<stop offset="1" stop-color="#019E6F"/>
</linearGradient>
<linearGradient id="paint1_linear_8656_9585" x1="10.8457" y1="24.6841" x2="28.9159" y2="24.6841" gradientUnits="userSpaceOnUse">
<stop stop-color="#33B78F"/>
<stop offset="1" stop-color="#019E6F"/>
</linearGradient>
<linearGradient id="paint2_linear_8656_9585" x1="2.00586" y1="22.7438" x2="41.9952" y2="22.7438" gradientUnits="userSpaceOnUse">
<stop stop-color="#33B78F"/>
<stop offset="1" stop-color="#019E6F"/>
</linearGradient>
<linearGradient id="paint3_linear_8656_9585" x1="26.5605" y1="5.48101" x2="30.7699" y2="5.48101" gradientUnits="userSpaceOnUse">
<stop stop-color="#33B78F"/>
<stop offset="1" stop-color="#019E6F"/>
</linearGradient>
<linearGradient id="paint4_linear_8656_9585" x1="19.8809" y1="5.48101" x2="24.0903" y2="5.48101" gradientUnits="userSpaceOnUse">
<stop stop-color="#33B78F"/>
<stop offset="1" stop-color="#019E6F"/>
</linearGradient>
</defs>
</svg>
