<svg width="32" height="32" viewBox="0 0 32 32" fill="none" xmlns="http://www.w3.org/2000/svg">
<path d="M11.3604 14.8026C12.3667 14.1341 13.131 13.1595 13.5403 12.0229C13.9496 10.8863 13.982 9.64808 13.6329 8.49157C13.2838 7.33507 12.5716 6.32169 11.6018 5.6014C10.6319 4.88111 9.45599 4.49219 8.24793 4.49219C7.03988 4.49219 5.86392 4.88111 4.89409 5.6014C3.92426 6.32169 3.21208 7.33507 2.86296 8.49157C2.51383 9.64808 2.54631 10.8863 2.95558 12.0229C3.36485 13.1595 4.12918 14.1341 5.13543 14.8026C3.41885 15.4338 1.93676 16.5757 0.88856 18.0745C0.806685 18.1856 0.757952 18.3177 0.747997 18.4554C0.738043 18.5931 0.767274 18.7308 0.83231 18.8526C0.896577 18.9736 0.992378 19.0749 1.10956 19.1459C1.22674 19.2169 1.36094 19.2548 1.49793 19.2557H14.9979C15.1349 19.2548 15.2691 19.2169 15.3863 19.1459C15.5035 19.0749 15.5993 18.9736 15.6636 18.8526C15.7286 18.7308 15.7578 18.5931 15.7479 18.4554C15.7379 18.3177 15.6892 18.1856 15.6073 18.0745C14.5591 16.5757 13.077 15.4338 11.3604 14.8026Z" fill="#121214"/>
<path d="M23.261 18.075C22.2068 16.5781 20.7224 15.437 19.0047 14.8032C20.0142 14.1372 20.7817 13.1633 21.1931 12.0261C21.6045 10.8889 21.6378 9.64931 21.2881 8.49167C20.9384 7.33403 20.2243 6.32021 19.2521 5.60102C18.2799 4.88182 17.1015 4.49568 15.8922 4.50004C15.3761 4.50277 14.8625 4.5721 14.3641 4.70629C14.247 4.74145 14.1401 4.80401 14.052 4.8888C13.964 4.97358 13.8974 5.07813 13.8579 5.19379C13.8201 5.30849 13.8107 5.43061 13.8302 5.54976C13.8498 5.66891 13.8979 5.78157 13.9704 5.87816C14.8182 7.01739 15.3054 8.38452 15.3689 9.80323C15.4324 11.2219 15.0693 12.6271 14.3266 13.8375C14.2314 13.9984 14.1988 14.1887 14.2351 14.372C14.2714 14.5554 14.3741 14.7189 14.5235 14.8313C14.8047 15.05 15.0766 15.275 15.3391 15.5063L15.386 15.5532C16.3867 16.4792 17.1985 17.5903 17.7766 18.825C17.8359 18.9541 17.9311 19.0633 18.0508 19.1398C18.1705 19.2162 18.3096 19.2567 18.4516 19.2563H22.6422C22.7792 19.2554 22.9134 19.2174 23.0306 19.1465C23.1478 19.0755 23.2436 18.9741 23.3079 18.8532C23.3721 18.7316 23.4017 18.5948 23.3935 18.4575C23.3852 18.3203 23.3394 18.188 23.261 18.075Z" fill="#121214"/>
</svg>
