<svg width="32" height="32" viewBox="0 0 32 32" fill="none" xmlns="http://www.w3.org/2000/svg">
<path d="M30 26.0001H28V14.4376C28.0007 14.1588 27.942 13.8831 27.8277 13.6287C27.7135 13.3744 27.5464 13.1473 27.3375 12.9626L17.3375 3.87514C16.9709 3.53871 16.4914 3.35205 15.9937 3.35205C15.4961 3.35205 15.0166 3.53871 14.65 3.87514L4.65 12.9626C4.44526 13.15 4.28173 13.3778 4.16983 13.6318C4.05792 13.8857 4.00009 14.1601 4 14.4376V26.0001H2C1.73478 26.0001 1.48043 26.1055 1.29289 26.293C1.10536 26.4806 1 26.7349 1 27.0001C1 27.2654 1.10536 27.5197 1.29289 27.7073C1.48043 27.8948 1.73478 28.0001 2 28.0001H30C30.2652 28.0001 30.5196 27.8948 30.7071 27.7073C30.8946 27.5197 31 27.2654 31 27.0001C31 26.7349 30.8946 26.4806 30.7071 26.293C30.5196 26.1055 30.2652 26.0001 30 26.0001ZM19 26.0001H13V20.0001C13 19.7349 13.1054 19.4806 13.2929 19.293C13.4804 19.1055 13.7348 19.0001 14 19.0001H18C18.2652 19.0001 18.5196 19.1055 18.7071 19.293C18.8946 19.4806 19 19.7349 19 20.0001V26.0001Z" fill="#2169FC"/>
</svg>
