<svg width="32" height="32" viewBox="0 0 32 32" fill="none" xmlns="http://www.w3.org/2000/svg">
<path d="M21.3125 14.4626C22.0712 13.7316 22.6039 12.7981 22.8474 11.773C23.0909 10.748 23.0348 9.67459 22.6859 8.68049C22.337 7.68639 21.7099 6.81342 20.8792 6.16541C20.0485 5.5174 19.0491 5.12161 18 5.02512V3.00012C18 2.73491 17.8946 2.48055 17.7071 2.29302C17.5196 2.10548 17.2652 2.00012 17 2.00012C16.7348 2.00012 16.4804 2.10548 16.2929 2.29302C16.1054 2.48055 16 2.73491 16 3.00012V5.00012H14V3.00012C14 2.73491 13.8946 2.48055 13.7071 2.29302C13.5196 2.10548 13.2652 2.00012 13 2.00012C12.7348 2.00012 12.4804 2.10548 12.2929 2.29302C12.1054 2.48055 12 2.73491 12 3.00012V5.00012H8C7.73478 5.00012 7.48043 5.10548 7.29289 5.29302C7.10536 5.48055 7 5.73491 7 6.00012C7 6.26534 7.10536 6.51969 7.29289 6.70723C7.48043 6.89476 7.73478 7.00012 8 7.00012H9V24.0001H8C7.73478 24.0001 7.48043 24.1055 7.29289 24.293C7.10536 24.4806 7 24.7349 7 25.0001C7 25.2653 7.10536 25.5197 7.29289 25.7072C7.48043 25.8948 7.73478 26.0001 8 26.0001H12V28.0001C12 28.2653 12.1054 28.5197 12.2929 28.7072C12.4804 28.8948 12.7348 29.0001 13 29.0001C13.2652 29.0001 13.5196 28.8948 13.7071 28.7072C13.8946 28.5197 14 28.2653 14 28.0001V26.0001H16V28.0001C16 28.2653 16.1054 28.5197 16.2929 28.7072C16.4804 28.8948 16.7348 29.0001 17 29.0001C17.2652 29.0001 17.5196 28.8948 17.7071 28.7072C17.8946 28.5197 18 28.2653 18 28.0001V26.0001H19C20.3871 26.0007 21.7315 25.5207 22.8045 24.6418C23.8775 23.7628 24.6129 22.5393 24.8855 21.1793C25.1581 19.8193 24.9511 18.4068 24.2996 17.1823C23.6482 15.9577 22.5926 14.9966 21.3125 14.4626ZM21 10.5001C20.9967 11.4274 20.6269 12.3157 19.9712 12.9714C19.3156 13.627 18.4272 13.9968 17.5 14.0001H11V7.00012H17.5C18.4272 7.00342 19.3156 7.37322 19.9712 8.02889C20.6269 8.68455 20.9967 9.57288 21 10.5001ZM19 24.0001H11V16.0001H19C20.0609 16.0001 21.0783 16.4215 21.8284 17.1717C22.5786 17.9218 23 18.9393 23 20.0001C23 21.061 22.5786 22.0784 21.8284 22.8285C21.0783 23.5787 20.0609 24.0001 19 24.0001Z" fill="#2169FC"/>
</svg>
