<svg width="32" height="32" viewBox="0 0 32 32" fill="none" xmlns="http://www.w3.org/2000/svg">
<path d="M14.9779 26.8501C14.9226 27.0671 14.7969 27.2597 14.6205 27.3977C14.444 27.5356 14.2269 27.6112 14.0029 27.6126C13.9223 27.6123 13.8422 27.5997 13.7654 27.5751L9.99039 26.6376C9.68419 26.5602 9.40118 26.4102 9.16539 26.2001L6.35289 23.7501C6.25439 23.6647 6.17368 23.5608 6.11535 23.4442C6.05702 23.3277 6.02222 23.2008 6.01294 23.0708C6.00365 22.9408 6.02006 22.8102 6.06123 22.6866C6.1024 22.5629 6.16753 22.4486 6.25289 22.3501C6.33824 22.2516 6.44217 22.1709 6.55872 22.1125C6.67527 22.0542 6.80217 22.0194 6.93218 22.0101C7.06218 22.0008 7.19274 22.0172 7.31639 22.0584C7.44005 22.0996 7.55439 22.1647 7.65289 22.2501L10.4779 24.7001L14.2404 25.6376C14.4977 25.7027 14.7192 25.8662 14.8571 26.093C14.9951 26.3198 15.0384 26.5916 14.9779 26.8501ZM31.5529 14.9501C31.4707 15.2018 31.3387 15.4345 31.1647 15.6342C30.9908 15.8339 30.7785 15.9966 30.5404 16.1126L27.6279 17.5751L25.7654 19.7626H25.7404C25.7404 19.7751 25.7279 19.7751 25.7279 19.7876H25.7154L21.1154 24.3876C20.7342 24.7602 20.2235 24.9708 19.6904 24.9751C19.5301 24.9736 19.3706 24.9526 19.2154 24.9126L11.9654 23.1251C11.6916 23.0612 11.4355 22.9374 11.2154 22.7626L4.46539 17.4876L1.46539 15.9876C0.986175 15.7447 0.622278 15.3224 0.452886 14.8126C0.372804 14.56 0.343721 14.294 0.367325 14.03C0.39093 13.7661 0.466752 13.5095 0.590386 13.2751L3.66539 7.38757C3.90839 6.92426 4.32227 6.57379 4.81929 6.41045C5.31632 6.24711 5.85741 6.28374 6.32789 6.51257L9.12789 7.91257L15.2154 6.13757C15.6717 6.01322 16.1568 6.04851 16.5904 6.23757L20.7154 8.11257H22.7654L25.6779 6.65007C26.1463 6.41702 26.6874 6.3768 27.1851 6.53803C27.6829 6.69927 28.0976 7.04913 28.3404 7.51257L31.4154 13.4001C31.5394 13.6366 31.6154 13.8953 31.639 14.1613C31.6626 14.4274 31.6333 14.6954 31.5529 14.9501ZM23.4654 19.2251L19.5154 16.3501L18.5029 17.1126C17.6358 17.7579 16.5837 18.1064 15.5029 18.1064C14.422 18.1064 13.37 17.7579 12.5029 17.1126L11.8279 16.6001C11.5973 16.4293 11.4064 16.2106 11.2683 15.959C11.1303 15.7075 11.0484 15.429 11.0282 15.1427C11.008 14.8565 11.05 14.5693 11.1514 14.3008C11.2527 14.0324 11.411 13.789 11.6154 13.5876L16.5029 8.68757L16.7279 8.50007L15.7654 8.06257L9.67789 9.83757L6.27789 16.3626L12.4529 21.1876L19.6904 23.0001L23.4654 19.2251ZM25.8029 16.6376L22.4029 10.1126H17.9154L13.0279 15.0001L13.7029 15.5126C14.2246 15.8964 14.8552 16.1034 15.5029 16.1034C16.1505 16.1034 16.7812 15.8964 17.3029 15.5126L18.9029 14.3126C19.0735 14.1839 19.2809 14.1132 19.4946 14.111C19.7083 14.1087 19.9171 14.175 20.0904 14.3001L24.8404 17.7501L25.8029 16.6376Z" fill="#2169FC"/>
</svg>
