<svg width="32" height="32" viewBox="0 0 32 32" fill="none" xmlns="http://www.w3.org/2000/svg">
<path d="M25 21.0001C24.1134 21.0018 23.2524 21.2971 22.5513 21.8398C21.8503 22.3826 21.3487 23.1422 21.125 24.0001H9C7.93913 24.0001 6.92172 23.5787 6.17157 22.8285C5.42143 22.0784 5 21.061 5 20.0001C5 18.9393 5.42143 17.9218 6.17157 17.1717C6.92172 16.4215 7.93913 16.0001 9 16.0001H21C22.3261 16.0001 23.5979 15.4733 24.5355 14.5357C25.4732 13.598 26 12.3262 26 11.0001C26 9.67404 25.4732 8.40227 24.5355 7.46459C23.5979 6.52691 22.3261 6.00012 21 6.00012H9C8.73478 6.00012 8.48043 6.10548 8.29289 6.29302C8.10536 6.48055 8 6.73491 8 7.00012C8 7.26534 8.10536 7.51969 8.29289 7.70723C8.48043 7.89477 8.73478 8.00012 9 8.00012H21C21.7956 8.00012 22.5587 8.31619 23.1213 8.8788C23.6839 9.44141 24 10.2045 24 11.0001C24 11.7958 23.6839 12.5588 23.1213 13.1214C22.5587 13.6841 21.7956 14.0001 21 14.0001H9C7.4087 14.0001 5.88258 14.6323 4.75736 15.7575C3.63214 16.8827 3 18.4088 3 20.0001C3 21.5914 3.63214 23.1175 4.75736 24.2428C5.88258 25.368 7.4087 26.0001 9 26.0001H21.125C21.312 26.7244 21.6984 27.3818 22.2402 27.8975C22.7821 28.4132 23.4577 28.7667 24.1903 28.9177C24.923 29.0688 25.6833 29.0114 26.3849 28.752C27.0866 28.4926 27.7014 28.0417 28.1596 27.4504C28.6179 26.8591 28.9011 26.1512 28.9772 25.4071C29.0533 24.6629 28.9192 23.9123 28.5902 23.2405C28.2611 22.5687 27.7502 22.0027 27.1156 21.6067C26.481 21.2106 25.748 21.0005 25 21.0001Z" fill="#2169FC"/>
</svg>
