<svg width="32" height="32" viewBox="0 0 32 32" fill="none" xmlns="http://www.w3.org/2000/svg">
<path d="M28 6.00012H4C3.46957 6.00012 2.96086 6.21084 2.58579 6.58591C2.21071 6.96098 2 7.46969 2 8.00012V12.1126V23.9876C2 24.5181 2.21071 25.0268 2.58579 25.4018C2.96086 25.7769 3.46957 25.9876 4 25.9876H28C28.5304 25.9876 29.0391 25.7769 29.4142 25.4018C29.7893 25.0268 30 24.5181 30 23.9876V8.00012C30 7.46969 29.7893 6.96098 29.4142 6.58591C29.0391 6.21084 28.5304 6.00012 28 6.00012ZM17 22.0001H15C14.7348 22.0001 14.4804 21.8948 14.2929 21.7072C14.1054 21.5197 14 21.2653 14 21.0001C14 20.7349 14.1054 20.4806 14.2929 20.293C14.4804 20.1055 14.7348 20.0001 15 20.0001H17C17.2652 20.0001 17.5196 20.1055 17.7071 20.293C17.8946 20.4806 18 20.7349 18 21.0001C18 21.2653 17.8946 21.5197 17.7071 21.7072C17.5196 21.8948 17.2652 22.0001 17 22.0001ZM25 22.0001H21C20.7348 22.0001 20.4804 21.8948 20.2929 21.7072C20.1054 21.5197 20 21.2653 20 21.0001C20 20.7349 20.1054 20.4806 20.2929 20.293C20.4804 20.1055 20.7348 20.0001 21 20.0001H25C25.2652 20.0001 25.5196 20.1055 25.7071 20.293C25.8946 20.4806 26 20.7349 26 21.0001C26 21.2653 25.8946 21.5197 25.7071 21.7072C25.5196 21.8948 25.2652 22.0001 25 22.0001ZM4 11.1126V8.00012H28V11.1126H4Z" fill="#2169FC"/>
</svg>
