<svg width="80" height="80" viewBox="0 0 80 80" fill="none" xmlns="http://www.w3.org/2000/svg">
<path d="M46.0596 79.5495C48.3508 79.5495 49.9737 77.5765 51.1511 74.5216L71.9944 20.0745C72.5672 18.6107 72.8854 17.306 72.8854 16.2241C72.8854 14.1557 71.6125 12.8828 69.5441 12.8828C68.4622 12.8828 67.1575 13.201 65.6937 13.7738L10.9602 34.7444C8.28717 35.7627 6.21875 37.3856 6.21875 39.7086C6.21875 42.6362 8.44628 43.6227 11.5012 44.5455L34.4765 51.2917L41.1591 73.9807C42.1137 77.1947 43.1002 79.5495 46.0596 79.5495ZM35.9085 46.4548L13.9514 39.7404C13.4423 39.5813 13.2832 39.454 13.2832 39.2313C13.2832 39.0085 13.4105 38.8494 13.8878 38.6585L56.9109 22.3657C59.4566 21.4111 61.9069 20.1382 64.2617 19.0562C62.1615 20.7746 59.5521 22.8112 57.8019 24.5614L35.9085 46.4548ZM46.5688 72.5487C46.3142 72.5487 46.1869 72.3259 46.0278 71.8168L39.3134 49.8597L61.2068 27.9663C62.9252 26.248 65.0573 23.5749 66.7438 21.4111C65.6619 23.8295 64.3572 26.2798 63.4025 28.8574L47.1098 71.8804C46.9188 72.3578 46.7915 72.5487 46.5688 72.5487Z" fill="#2169FC"/>
</svg>
