<svg width="80" height="80" viewBox="0 0 80 80" fill="none" xmlns="http://www.w3.org/2000/svg">
<path d="M52.25 31.6V30.375C52.25 24.8844 43.9813 20.75 33 20.75C22.0188 20.75 13.75 24.8844 13.75 30.375V39.125C13.75 43.6969 19.4813 47.3281 27.75 48.4219V49.625C27.75 55.1156 36.0187 59.25 47 59.25C57.9813 59.25 66.25 55.1156 66.25 49.625V40.875C66.25 36.3469 60.6937 32.7156 52.25 31.6ZM27.75 44.8562V39.6719C29.491 39.8956 31.2447 40.0052 33 40C34.7553 40.0052 36.509 39.8956 38.25 39.6719V44.8562C36.5133 45.1269 34.7577 45.2586 33 45.25C31.2423 45.2586 29.4867 45.1269 27.75 44.8562ZM48.75 36.0406V39.125C48.75 40.9625 46.0375 42.9312 41.75 44.1344V39.0156C44.5719 38.3375 46.9562 37.3094 48.75 36.0406ZM17.25 39.125V36.0406C19.0437 37.3094 21.4281 38.3375 24.25 39.0156V44.1344C19.9625 42.9312 17.25 40.9625 17.25 39.125ZM31.25 49.625V48.7063L33 48.75C33.8604 48.75 34.6917 48.7281 35.4937 48.6844C36.3687 48.9906 37.2875 49.2531 38.25 49.4937V54.6344C33.9625 53.4312 31.25 51.4625 31.25 49.625ZM41.75 55.3563V50.15C43.4908 50.3784 45.2443 50.4953 47 50.5C48.7553 50.5052 50.509 50.3956 52.25 50.1719V55.3563C48.7697 55.8812 45.2303 55.8812 41.75 55.3563ZM55.75 54.6344V49.5156C58.5719 48.8375 60.9562 47.8094 62.75 46.5406V49.625C62.75 51.4625 60.0375 53.4312 55.75 54.6344Z" fill="#1D1D1F"/>
</svg>
