<svg width="54" height="72" viewBox="0 0 54 72" fill="none" xmlns="http://www.w3.org/2000/svg">
<path d="M6.00003 60.0004H15.0001C16.6561 60.0004 18.0001 58.6563 18.0001 57.0003C18.0001 55.3443 16.6561 54.0003 15.0001 54.0003H6.00003V6.00004H48.0003V57.0003C48.0003 58.6563 49.3443 60.0004 51.0003 60.0004C52.6563 60.0004 54.0003 58.6563 54.0003 57.0003V6.00004C54.0003 2.69102 51.3093 0 48.0003 0H6.00003C2.69102 0 0 2.69102 0 6.00004V54.0003C0 57.3093 2.69102 60.0004 6.00003 60.0004Z" fill="url(#paint0_linear_9248_10302)"/>
<path d="M24.351 71.7722C25.473 72.2342 26.7615 71.9792 27.621 71.1212L31.5001 67.2437L35.3791 71.1212C35.9536 71.6957 36.7186 72.0002 37.5001 72.0002C37.8871 72.0002 38.2771 71.9252 38.6491 71.7722C39.7696 71.3072 40.5001 70.2137 40.5001 69.0002V50.3806C41.4466 48.8041 42.0001 46.9681 42.0001 45.0001C42.0001 39.21 37.2886 34.5 31.5001 34.5C25.7115 34.5 21 39.21 21 45.0001C21 46.9681 21.555 48.8041 22.5 50.3806V69.0002C22.5 70.2137 23.2305 71.3072 24.351 71.7722ZM28.5 61.7672V55.0576C29.451 55.3426 30.4576 55.5001 31.5001 55.5001C32.5426 55.5001 33.5491 55.3426 34.5001 55.0576V61.7672C32.7976 60.2432 30.2026 60.2432 28.5 61.7672ZM31.5001 40.5C33.9811 40.5 36.0001 42.519 36.0001 45.0001C36.0001 47.4811 33.9811 49.5001 31.5001 49.5001C29.019 49.5001 27 47.4811 27 45.0001C27 42.519 29.019 40.5 31.5001 40.5Z" fill="url(#paint1_linear_9248_10302)"/>
<path d="M39.0001 21C39.0001 19.344 37.6561 18 36.0001 18H18C16.344 18 15 19.344 15 21C15 22.656 16.344 24 18 24H36.0001C37.6561 24 39.0001 22.656 39.0001 21Z" fill="url(#paint2_linear_9248_10302)"/>
<defs>
<linearGradient id="paint0_linear_9248_10302" x1="0" y1="0" x2="28.6658" y2="70.3269" gradientUnits="userSpaceOnUse">
<stop stop-color="#059DB7"/>
<stop offset="1" stop-color="#3BD7BD"/>
</linearGradient>
<linearGradient id="paint1_linear_9248_10302" x1="21" y1="34.5" x2="44.4951" y2="70.3658" gradientUnits="userSpaceOnUse">
<stop stop-color="#059DB7"/>
<stop offset="1" stop-color="#3BD7BD"/>
</linearGradient>
<linearGradient id="paint2_linear_9248_10302" x1="15" y1="18" x2="15.7459" y2="26.1327" gradientUnits="userSpaceOnUse">
<stop stop-color="#059DB7"/>
<stop offset="1" stop-color="#3BD7BD"/>
</linearGradient>
</defs>
</svg>
