<svg width="134" height="34" viewBox="0 0 134 34" fill="none" xmlns="http://www.w3.org/2000/svg">
<path d="M16.7251 33.3045C25.9621 33.3045 33.4502 25.849 33.4502 16.6522C33.4502 7.45546 25.9621 0 16.7251 0C7.48809 0 0 7.45546 0 16.6522C0 25.849 7.48809 33.3045 16.7251 33.3045Z" fill="url(#paint0_radial_8284_3774)"/>
<path d="M22.4951 20.2817C22.3563 20.2201 22.2059 20.1888 22.0539 20.19C21.9225 20.1901 21.7921 20.2123 21.668 20.2555C21.4383 20.3557 21.2337 20.5053 21.0688 20.6935C21.0007 20.7648 20.9281 20.8318 20.8515 20.8941C19.798 21.6808 18.8248 22.0453 17.6461 22.0925V11.5491C18.6904 11.6881 19.4451 12.1038 19.8849 12.7882C19.9789 12.9474 20.0595 13.1141 20.1259 13.2865C20.2259 13.5635 20.3666 13.8242 20.5434 14.0601C20.5631 14.085 20.6421 14.1715 20.6566 14.1912C20.8468 14.3723 21.1008 14.4717 21.3638 14.4679C21.5066 14.4705 21.6482 14.442 21.7787 14.3845C21.9093 14.327 22.0257 14.2418 22.1198 14.1348C22.3191 13.8663 22.4196 13.5375 22.4042 13.2039C22.4042 13.0203 22.4187 12.8997 22.4253 12.8105C22.4418 12.6359 22.4392 12.4601 22.4174 12.286C22.3054 11.3302 22.0368 11.1466 21.2018 10.7126L20.9385 10.5749C19.665 9.89441 18.917 9.73838 17.654 9.57186C17.7791 7.62997 18.1637 6.94946 18.5693 6.51414C18.6959 6.38544 18.8477 6.28409 19.0154 6.21641C19.1831 6.14873 19.363 6.11618 19.5438 6.12078C19.6081 6.12075 19.6723 6.12469 19.7361 6.13258C19.341 6.8144 19.4424 7.53425 19.9995 8.00497C20.3197 8.24632 20.7136 8.37042 21.1149 8.35637C21.4717 8.37037 21.8232 8.26767 22.1158 8.06398C22.8335 7.4936 22.8335 6.47742 22.4213 5.86509C21.9407 5.1765 21.2102 4.70072 20.384 4.53816C19.6254 4.37886 18.8372 4.43433 18.1086 4.69829C17.3801 4.96226 16.7404 5.42415 16.262 6.03162L16.2107 6.09455C15.8669 6.50627 14.9793 7.56965 14.9029 9.56268C10.8468 10.4359 8.61719 12.922 8.61719 16.5907C8.61719 18.8329 9.44159 22.7534 14.9042 24.1104C14.9042 24.1852 14.9042 24.2599 14.9042 24.332C14.8792 25.1043 14.8621 25.6629 14.413 26.5178C14.2916 26.7225 14.118 26.8916 13.9099 27.0081C13.7018 27.1246 13.4665 27.1843 13.2278 27.1813C13.1394 27.182 13.0511 27.1737 12.9644 27.1564C13.0678 26.9361 13.1153 26.6938 13.1027 26.4509C13.0965 26.245 13.0429 26.0433 12.9458 25.8614C12.8487 25.6795 12.7109 25.5223 12.543 25.402C12.5321 25.3942 12.5206 25.3872 12.5087 25.381C12.2285 25.2178 11.9114 25.1276 11.5869 25.1188C11.1991 25.1245 10.828 25.2767 10.5486 25.5444C10.2692 25.8121 10.1023 26.1755 10.0816 26.5611C10.0759 26.817 10.1212 27.0716 10.2151 27.3099C10.3089 27.5483 10.4493 27.7657 10.6282 27.9496C10.9128 28.2815 11.2682 28.546 11.6685 28.7238C12.0687 28.9017 12.5038 28.9884 12.942 28.9776C13.2961 28.9738 13.6489 28.9356 13.9956 28.8636C15.514 28.4912 16.6215 27.5327 17.2879 26.0143C17.5171 25.4898 17.5961 24.6048 17.6211 24.134C18.4518 24.0472 19.2636 23.8313 20.0271 23.4942C21.6285 22.7612 22.1342 22.2446 22.5293 21.8303L22.6334 21.7228C23.014 21.3294 22.9955 20.9741 22.9125 20.7367C22.8393 20.5361 22.6892 20.3725 22.4951 20.2817ZM14.9122 16.849C14.9122 18.5798 14.9122 20.304 14.9122 22.002C13.2001 21.5051 12.0294 19.4963 12.0294 16.9408C12.0294 14.8494 12.5443 12.2847 14.9266 11.6029C14.9161 13.3442 14.9135 15.0999 14.9122 16.849Z" fill="white"/>
<path opacity="0.1" d="M28.3622 4.69365C25.2056 1.67264 20.9849 0.0045833 16.6066 0.0476902C12.2283 0.090797 8.04161 1.84163 4.94555 4.92421C1.84949 8.00678 0.0909892 12.1753 0.0476937 16.5345C0.00439824 20.8937 1.67976 25.0959 4.71399 28.2389L28.3622 4.69365Z" fill="url(#paint1_linear_8284_3774)"/>
<path d="M46.5094 24.7827C45.1009 24.0419 43.9238 22.9303 43.1064 21.569C42.2803 20.1975 41.8672 18.6485 41.8672 16.9221C41.8672 15.1957 42.2803 13.6472 43.1064 12.2765C43.9227 10.9143 45.1001 9.80241 46.5094 9.06276C47.9519 8.29003 49.5739 7.90366 51.3755 7.90366C52.7879 7.88103 54.1896 8.15025 55.4922 8.69432C56.6894 9.20475 57.7481 9.99017 58.5818 10.9863L55.9795 13.3753C54.7951 12.0143 53.3272 11.3333 51.5757 11.3324C50.5644 11.316 49.5662 11.5609 48.6784 12.0431C47.8409 12.5027 47.1514 13.1892 46.6898 14.023C46.2054 14.907 45.9595 15.9009 45.976 16.9077C45.9593 17.9145 46.2053 18.9084 46.6898 19.7923C47.1514 20.6262 47.8409 21.3127 48.6784 21.7722C49.5662 22.2545 50.5644 22.4993 51.5757 22.4829C53.3272 22.4829 54.7951 21.7936 55.9795 20.4151L58.5818 22.8159C57.7519 23.8287 56.687 24.6252 55.4791 25.1368C54.1746 25.6814 52.7714 25.9528 51.357 25.934C49.5686 25.934 47.9528 25.5502 46.5094 24.7827Z" fill="#121214"/>
<path d="M66.6493 12.5308C67.5198 12.1841 68.4512 12.0147 69.3886 12.0325V15.62C68.9548 15.5876 68.6629 15.571 68.5128 15.5701C67.3951 15.5701 66.5194 15.8818 65.8855 16.505C65.2516 17.1283 64.9347 18.0623 64.9347 19.3071V25.6349H61.0312V12.2318H64.7595V14.0006C65.2385 13.3439 65.8934 12.8346 66.6493 12.5308Z" fill="#121214"/>
<path d="M84.707 20.0282H74.5231C74.686 20.8263 75.1522 21.5309 75.8242 21.995C76.509 22.4776 77.3598 22.7184 78.3764 22.7175C79.012 22.7289 79.6443 22.6231 80.2412 22.4054C80.8072 22.1828 81.3219 21.8483 81.7544 21.422L83.8312 23.6642C82.5643 25.1083 80.7127 25.8303 78.2764 25.8303C76.7592 25.8303 75.4164 25.5357 74.2478 24.9466C73.1305 24.4016 72.1929 23.5499 71.5455 22.492C70.9034 21.415 70.5742 20.1817 70.5947 18.9295C70.5774 17.6833 70.9021 16.4561 71.5336 15.38C72.1475 14.3371 73.0396 13.4838 74.1109 12.915C75.2297 12.3405 76.4692 12.0377 77.728 12.0314C78.9869 12.025 80.2294 12.3152 81.354 12.8783C82.4093 13.431 83.2825 14.2745 83.8694 15.3079C84.4778 16.3621 84.782 17.5859 84.782 18.9793C84.782 19.0309 84.757 19.3805 84.707 20.0282ZM75.574 15.7183C74.9735 16.2166 74.6065 16.8975 74.473 17.7612H81.1038C81.0016 16.973 80.6093 16.2507 80.0029 15.7341C79.3866 15.2217 78.6035 14.9513 77.8009 14.9736C76.9177 14.9718 76.1754 15.2201 75.574 15.7183Z" fill="#121214"/>
<path d="M101.09 7.14844V25.6364H97.3616V24.0891C96.3958 25.2526 94.9946 25.8339 93.1579 25.833C91.9572 25.85 90.7724 25.5583 89.7181 24.986C88.6988 24.4261 87.8617 23.5876 87.3055 22.5695C86.7216 21.5205 86.4297 20.3081 86.4297 18.9322C86.4297 17.5563 86.7216 16.3439 87.3055 15.2949C87.8624 14.2764 88.7005 13.4379 89.7207 12.8784C90.7754 12.307 91.96 12.0153 93.1606 12.0313C94.8787 12.0313 96.2216 12.5711 97.1891 13.6507V7.14844H101.09ZM96.2857 21.6346C96.9362 20.9632 97.2615 20.0624 97.2615 18.9322C97.2615 17.8019 96.9362 16.9007 96.2857 16.2285C95.9706 15.8989 95.5895 15.6389 95.1671 15.4652C94.7447 15.2915 94.2904 15.208 93.8335 15.2202C92.8326 15.2202 92.0069 15.5563 91.3564 16.2285C90.7058 16.9007 90.3805 17.8019 90.3805 18.9322C90.3805 20.0624 90.7058 20.9632 91.3564 21.6346C92.0069 22.3059 92.8326 22.6425 93.8335 22.6442C94.2905 22.6565 94.745 22.5729 95.1674 22.399C95.5898 22.225 95.9708 21.9646 96.2857 21.6346Z" fill="#121214"/>
<path d="M104.894 9.73933C104.681 9.54189 104.511 9.30283 104.395 9.03708C104.279 8.77133 104.219 8.48459 104.219 8.19473C104.219 7.90487 104.279 7.61813 104.395 7.35238C104.511 7.08663 104.681 6.84758 104.894 6.65014C105.345 6.23755 105.929 6.03125 106.646 6.03125C107.363 6.03125 107.947 6.23055 108.397 6.62916C108.614 6.81309 108.787 7.04255 108.904 7.30102C109.021 7.55949 109.078 7.84054 109.073 8.12393C109.081 8.42427 109.026 8.72296 108.909 9.00014C108.793 9.27731 108.618 9.52661 108.397 9.73146C107.945 10.1493 107.361 10.3582 106.646 10.3582C105.93 10.3582 105.346 10.1519 104.894 9.73933ZM104.694 12.2306H108.598V25.6337H104.69L104.694 12.2306Z" fill="#121214"/>
<path d="M120.909 24.9856C120.483 25.2868 120.003 25.5027 119.495 25.6215C118.917 25.7636 118.324 25.8336 117.729 25.83C116.127 25.83 114.888 25.4231 114.012 24.6093C113.136 23.7955 112.697 22.5997 112.695 21.0218V15.5148H110.625V12.5292H112.702V9.26562H116.605V12.5292H119.958V15.5187H116.605V20.9786C116.605 21.5441 116.751 21.9812 117.042 22.2898C117.334 22.5983 117.747 22.7518 118.282 22.75C118.85 22.7675 119.407 22.5918 119.862 22.2518L120.909 24.9856Z" fill="#121214"/>
<path d="M124.363 25.4212C123.296 25.1476 122.446 24.8032 121.812 24.388L123.114 21.5978C123.79 22.0131 124.523 22.3277 125.291 22.5313C126.104 22.7672 126.946 22.889 127.793 22.8932C129.444 22.8932 130.27 22.4863 130.27 21.6725C130.27 21.2914 130.045 21.0173 129.594 20.8504C129.144 20.6834 128.452 20.5422 127.517 20.4269C126.596 20.2999 125.685 20.1084 124.79 19.8539C124.078 19.6419 123.435 19.2466 122.925 18.7079C122.399 18.1598 122.135 17.3792 122.135 16.3661C122.124 15.5542 122.383 14.7616 122.873 14.1121C123.365 13.4556 124.082 12.9447 125.025 12.5793C125.967 12.2139 127.08 12.0312 128.366 12.0312C129.321 12.0317 130.273 12.1359 131.205 12.342C132.025 12.505 132.815 12.7953 133.545 13.2022L132.244 15.9675C131.061 15.3039 129.724 14.9604 128.366 14.971C127.531 14.971 126.905 15.0872 126.489 15.3197C126.073 15.5523 125.864 15.8512 125.863 16.2166C125.863 16.6318 126.089 16.9225 126.539 17.0885C126.989 17.2546 127.707 17.4124 128.691 17.5619C129.602 17.7034 130.505 17.8987 131.393 18.1467C132.093 18.3547 132.724 18.7465 133.22 19.2809C133.736 19.829 133.995 20.5929 133.996 21.5729C134.005 22.3753 133.74 23.1571 133.245 23.7901C132.744 24.4378 132.014 24.94 131.055 25.2967C130.095 25.6533 128.957 25.8312 127.641 25.8303C126.536 25.8325 125.434 25.6951 124.363 25.4212Z" fill="#121214"/>
<defs>
<radialGradient id="paint0_radial_8284_3774" cx="0" cy="0" r="1" gradientUnits="userSpaceOnUse" gradientTransform="translate(19.7584 18.375) rotate(34.8746) scale(19.9909 16.5615)">
<stop stop-color="#2169FC"/>
<stop offset="0.68" stop-color="#2B4FAF"/>
<stop offset="1" stop-color="#1A3899"/>
</radialGradient>
<linearGradient id="paint1_linear_8284_3774" x1="20.2644" y1="20.1763" x2="0.296313" y2="0.12085" gradientUnits="userSpaceOnUse">
<stop stop-color="white"/>
<stop offset="0.36" stop-color="#D8D9FF"/>
<stop offset="1" stop-color="#9495FF"/>
</linearGradient>
</defs>
</svg>
