<svg width="136" height="128" viewBox="0 0 136 128" fill="none" xmlns="http://www.w3.org/2000/svg">
<g clip-path="url(#clip0_7757_6651)">
<path d="M46.4224 24.2894C44.2451 24.336 42.3547 25.939 42.3677 28.4986C42.3752 29.9848 43.523 31.1595 44.646 32.3989C46.3796 34.3116 46.8883 33.9742 46.8085 35.9129C46.7792 36.6225 45.602 37.7309 44.3371 37.7279C42.463 37.7245 41.1531 35.9255 41.6726 33.7504H41.1319L39.7031 38.925H40.2438C40.4018 38.3938 41.4697 38.4415 41.9043 38.423C42.7228 38.3884 43.1899 39.0473 44.8777 39.0409C47.187 39.0322 49.4565 37.5218 49.4345 34.7158C49.4232 33.2598 48.5296 32.2705 47.3492 31.1245C45.5333 29.3622 44.8254 28.5197 45.148 27.1084C45.4149 25.9406 46.2493 25.6133 47.0789 25.6024C48.6329 25.5825 49.3017 27.2209 49.5117 28.9234H50.0137L51.288 24.5983H50.7474C50.6289 25.1092 50.004 25.1349 49.5117 25.1004C49.2899 25.0845 49.1647 25.1291 48.6235 24.9459C48.0466 24.7503 47.1369 24.2744 46.4224 24.2894ZM51.8673 24.8687L51.7128 25.7182C52.5659 25.722 52.8738 25.7028 52.8713 27.3015V38.925C52.8713 38.925 53.0963 39.4352 53.4119 38.925C53.7278 38.4145 58.8569 29.9274 58.8569 29.9274V30.1977L58.8182 38.925C58.8182 38.925 59.1448 39.4352 59.4747 38.925C59.8047 38.4145 66.889 26.7222 66.8891 26.7222C67.2121 26.1421 67.4575 25.7381 68.2793 25.7182L68.4723 24.8687H64.1087L63.9542 25.7182C64.9095 25.7201 65.5456 25.5696 65.5761 26.143C65.5889 26.3834 65.5454 26.5765 65.383 26.8767L61.7917 32.7464L61.7145 32.6306V27.3015C61.7179 27.0618 61.7192 26.8256 61.7145 26.645C61.6908 25.7401 61.9394 25.7201 62.6413 25.7182L62.7957 24.8687H57.9301L57.7756 25.7182C58.5083 25.7381 58.8286 25.9506 58.8182 26.6064V27.8035L55.6903 32.8622L55.5745 32.9395V27.2629C55.5747 27.0631 55.5763 26.7497 55.5745 26.5292C55.5715 26.2199 55.5039 25.7201 56.3854 25.7182L56.6171 24.8687H51.8673ZM69.1288 24.8687L68.9743 25.7182C69.3731 25.6975 69.7803 25.8482 69.8239 26.2975C69.8427 26.4931 69.7271 26.7802 69.6308 27.147L66.9663 37.0714C66.809 37.7306 66.0161 38.0837 64.9582 38.0755L64.8038 38.925H70.4804L70.6735 38.0755C69.6708 38.0552 69.7339 37.7775 69.7467 37.419C69.7546 37.1947 69.863 36.9887 69.9398 36.7239L72.6429 26.7609C72.9209 25.8289 73.5913 25.7389 74.6123 25.7182L74.8054 24.8687H69.1288ZM75.5778 24.8687L75.3847 25.7182C76.2305 25.7822 77.4309 25.7729 77.1224 26.7609C77.0551 26.9768 77.1291 26.8777 77.0452 27.2243L74.4579 36.8784C74.2566 37.7745 73.6297 38.0551 72.8746 38.0755L72.6429 38.925H78.6671L78.8988 38.0755C77.5812 38.0721 77.0484 37.8957 77.3155 36.8784C77.3723 36.6616 77.4802 36.2777 77.5472 35.9516L78.7829 31.7038H79.0532C80.2308 31.6993 80.5632 31.8459 80.5979 32.4761C80.6197 32.8809 80.6087 33.2094 80.6365 33.4415H81.293L82.297 29.3095L81.7564 29.2323C81.1995 30.6556 80.0118 30.6758 79.5939 30.6611H79.0532L79.9028 27.2629C80.2722 26.0074 80.3921 26.0771 81.3316 26.0658C82.9682 26.0462 83.9396 26.3145 83.803 28.6144H84.3437L85.3477 24.8687H75.5778ZM86.12 24.8687L85.0774 28.6144H85.6952C85.997 27.5681 86.005 27.3923 86.622 26.8381C87.2556 26.2843 87.9365 26.0658 89.0163 26.0658L86.1973 36.3763C86.002 38.0604 85.033 38.0547 83.803 38.0755L83.61 38.925H89.9817L90.1361 38.1527C89.3208 38.2283 88.8189 37.6923 88.9776 37.0714C89.0386 36.8325 89.1509 36.4779 89.248 36.0674L91.8739 26.0658C93.874 26.0646 94.2749 26.8676 94.1522 28.6144H94.7315L95.7355 24.8687H86.12ZM61.9848 37.3417C61.6501 37.3406 61.2982 37.7584 61.2125 38.2685C61.1264 38.7787 61.3412 39.1942 61.6758 39.1953C62.0101 39.1968 62.3622 38.7788 62.4482 38.2685C62.5341 37.7587 62.319 37.3432 61.9848 37.3417ZM71.8706 37.3417C71.5361 37.3406 71.184 37.7584 71.0982 38.2685C71.0121 38.7787 71.2272 39.1942 71.5616 39.1953C71.8961 39.1968 72.2482 38.7788 72.334 38.2685C72.4201 37.7587 72.205 37.3432 71.8706 37.3417ZM80.3662 37.3417C80.0317 37.3406 79.6796 37.7584 79.5939 38.2685C79.5077 38.7787 79.6841 39.1942 80.0186 39.1953C80.3531 39.1968 80.7052 38.7788 80.791 38.2685C80.8771 37.7587 80.7006 37.3432 80.3662 37.3417ZM49.9365 37.3804C49.6022 37.3788 49.2886 37.797 49.2028 38.3072C49.1168 38.8174 49.2933 39.2325 49.6275 39.234C49.962 39.2354 50.3141 38.8173 50.3999 38.3072C50.4859 37.797 50.271 37.3818 49.9365 37.3804ZM91.7194 37.3804C91.3849 37.3792 91.0328 37.797 90.9471 38.3072C90.8609 38.8174 91.076 39.2328 91.4105 39.234C91.7449 39.2355 92.097 38.8174 92.1828 38.3072C92.269 37.7974 92.0538 37.3819 91.7194 37.3804Z" fill="#3C60A7" stroke="#3C60A7" stroke-width="0.192634"/>
<path d="M38.6293 21.7891H97.4306M38.6293 42.2083H97.4306M44.8899 52.8032H91.1218M44.8899 11.1943H91.1218M67.9578 21.7891V0.888355M67.9578 42.2083V63.061M68.8128 0.924038C68.8128 0.924038 81.4785 7.76254 83.9828 21.7285M67.17 0.934996C67.17 0.934996 54.2601 7.68242 51.6501 21.6292M67.1186 62.965C67.1186 62.965 54.3566 56.1969 51.8524 42.2309M68.9178 62.9665C68.9178 62.9665 81.6354 56.289 84.245 42.3422M68.006 0.866897C50.826 0.866897 36.8984 14.7945 36.8984 31.9746C36.8984 49.1544 50.826 63.082 68.006 63.082C85.1859 63.082 99.1139 49.1544 99.1139 31.9746C99.1139 14.7945 85.1859 0.866897 68.006 0.866897Z" stroke="#3C60A7" stroke-width="1.73371"/>
</g>
<path d="M31.4579 100.758H21.8118C21.8118 99.1162 21.6282 98.0165 21.261 97.4446C20.682 96.6089 19.1002 96.1983 16.5156 96.1983C14.0017 96.1983 12.3211 96.4329 11.5161 96.9168C10.6969 97.4006 10.2873 98.4417 10.2873 100.055C10.2873 101.506 10.6545 102.474 11.3748 102.929C11.8974 103.251 12.5753 103.442 13.4368 103.5L15.3858 103.647C19.5521 103.94 22.1649 104.131 23.1959 104.248C26.4866 104.6 28.8875 105.509 30.3704 106.975C31.5427 108.134 32.2347 109.629 32.4607 111.492C32.5878 112.606 32.6584 113.867 32.6584 115.26C32.6584 118.486 32.3618 120.832 31.7686 122.328C30.6953 125.069 28.2802 126.8 24.5235 127.533C22.9558 127.841 20.5407 127.987 17.3065 127.987C11.9115 127.987 8.14063 127.65 6.00804 126.976C3.39526 126.155 1.67223 124.483 0.853092 121.976C0.358783 120.597 0.132812 118.281 0.132812 115.025H9.77891C9.77891 115.392 9.77891 115.671 9.77891 115.861C9.77891 117.591 10.2591 118.72 11.2195 119.219C11.8833 119.556 12.6883 119.747 13.6345 119.762H17.1794C18.9872 119.762 20.1453 119.659 20.6396 119.468C21.5294 119.102 22.1084 118.53 22.3909 117.723C22.5321 117.225 22.6168 116.58 22.6168 115.803C22.6168 114.043 21.9954 112.973 20.7667 112.591C20.3006 112.445 18.1539 112.225 14.3124 111.961C11.2336 111.726 9.08688 111.506 7.88641 111.301C4.72283 110.685 2.61848 109.424 1.57337 107.518C0.641245 105.861 0.175182 103.398 0.175182 100.099C0.175182 97.5913 0.429398 95.5825 0.923708 94.0722C1.41802 92.5619 2.22304 91.4035 3.33876 90.6264C4.96292 89.424 7.05315 88.7056 9.58119 88.5003C11.6855 88.3097 14.03 88.207 16.6004 88.207C20.6537 88.207 23.5348 88.4416 25.2579 88.9255C29.4524 90.0985 31.5568 93.383 31.5568 98.7643C31.5427 99.2188 31.5144 99.8787 31.4579 100.758Z" fill="#10298E"/>
<path d="M68.6328 128V88H83.7446H86.1172H87.9533C90.6084 88 92.628 88.2199 94.0121 88.6745C97.1898 89.7009 99.3224 91.827 100.41 95.0235C100.975 96.6951 101.257 99.2318 101.257 102.604C101.257 106.666 100.947 109.569 100.325 111.358C99.0823 114.862 96.5401 116.886 92.6845 117.414C92.2326 117.487 90.2977 117.56 86.9081 117.619L85.1851 117.678H78.9992V128H68.6328ZM78.9992 108.396H85.4676C87.5154 108.323 88.7583 108.161 89.2102 107.898C89.8175 107.546 90.2412 106.842 90.4389 105.801C90.566 105.097 90.6366 104.056 90.6366 102.678C90.6366 100.991 90.5095 99.7303 90.2412 98.9092C89.874 97.7655 88.9701 97.0617 87.5578 96.8124C87.2753 96.7684 86.6116 96.7537 85.5523 96.7537H78.9992V108.396Z" fill="#10298E"/>
<path d="M123.404 121.079H109.535L107.671 127.986H96.9375L108.518 88H124.153L135.875 128H125.367L123.404 121.079ZM121.342 113.293L116.484 95.9473L111.767 113.279H121.342V113.293Z" fill="#10298E"/>
<path d="M59.5569 93.6272C63.8362 93.6272 67.6494 95.6654 70.1633 98.8766L72.3948 93.9058C68.9064 90.4747 64.1469 88.3633 58.8931 88.3633C50.7299 88.3633 43.739 93.4806 40.872 100.739H36.5079L33.9375 106.472H39.5444C39.502 107 39.4738 107.528 39.4738 108.07C39.4738 108.73 39.502 109.375 39.5726 110.02H36.7621L34.1917 115.754H41.0132C43.9649 122.821 50.857 127.777 58.9072 127.777C62.9605 127.777 66.7173 126.516 69.8385 124.361V117.322C67.3246 120.284 63.6667 122.161 59.571 122.161C54.7974 122.161 50.5887 119.61 48.1454 115.724H62.4097L64.9801 109.991H46.0128C45.9139 109.302 45.8574 108.598 45.8574 107.88C45.8574 107.396 45.8857 106.912 45.928 106.443H66.5619L69.1323 100.709H47.7217C50.0944 96.4865 54.5008 93.6272 59.5569 93.6272Z" fill="#FFBE00"/>
<path d="M59.5689 93.7926C63.6505 93.7926 67.4637 95.6841 70.0483 98.9833L70.2177 99.2032L70.3307 98.9539L72.5622 93.9832L72.6187 93.8659L72.5339 93.778C68.8619 90.1709 64.0318 88.1914 58.9192 88.1914C54.9365 88.1914 51.095 89.3938 47.8326 91.6958C44.6407 93.9246 42.1833 97.0331 40.7428 100.684L40.8981 100.582H36.5341H36.4211L36.3787 100.684L33.8083 106.417L33.6953 106.667H33.9495H39.5564L39.3869 106.476C39.3446 107.077 39.3163 107.605 39.3163 108.089C39.3163 108.734 39.3446 109.394 39.4152 110.054L39.5847 109.863H36.7742H36.6753L36.6329 109.966L34.0343 115.67L33.9213 115.919H34.1755H40.997L40.8416 115.816C43.9205 123.192 50.9962 127.942 58.891 127.942C62.8455 127.942 66.6587 126.755 69.907 124.497L69.9776 124.453V124.365V117.327V116.872L69.6952 117.209C67.1248 120.244 63.4245 121.989 59.5548 121.989C54.993 121.989 50.7702 119.614 48.2563 115.64L48.115 115.904H62.4218H62.5347L62.5771 115.802L65.1475 110.068L65.2605 109.819H65.0063H46.0248L46.1943 109.966C46.0954 109.277 46.0389 108.573 46.0389 107.884C46.0389 107.414 46.0672 106.931 46.1095 106.461L45.9401 106.623H66.574H66.687L66.7293 106.52L69.2997 100.787L69.4127 100.538H69.1444H47.7337L47.8749 100.801C50.29 96.4906 54.767 93.7926 59.5689 93.7926ZM47.7337 100.904H69.1585L69.0031 100.655L66.4327 106.388L66.5881 106.285H45.9542H45.7988L45.7847 106.447C45.7423 106.931 45.7141 107.414 45.7141 107.898C45.7141 108.602 45.7706 109.321 45.8695 110.039L45.8977 110.186H46.0389H65.0063L64.8509 109.936L62.2805 115.67L62.4359 115.567H48.1292H47.8184L47.9879 115.831C50.5583 119.907 54.8941 122.341 59.5548 122.341C63.5234 122.341 67.3084 120.552 69.9494 117.444L69.6528 117.327V124.35L69.7234 124.203C66.5175 126.417 62.7748 127.591 58.891 127.591C51.1374 127.591 44.1747 122.913 41.1523 115.67L41.11 115.567H40.997H34.1755L34.3309 115.816L36.9013 110.083L36.7459 110.186H39.5564H39.74L39.7259 109.995C39.6694 109.35 39.627 108.69 39.627 108.06C39.627 107.576 39.6553 107.048 39.6976 106.461L39.7118 106.271H39.5282H33.9213L34.0766 106.52L36.647 100.787L36.4917 100.889H40.8557H40.9687L41.0111 100.787C42.4234 97.2091 44.8385 94.1592 47.9738 91.9598C51.1939 89.7163 54.9648 88.5287 58.8769 88.5287C63.8906 88.5287 68.6501 90.4788 72.2656 94.0272L72.2232 93.8219L69.9918 98.7927L70.2742 98.7633C67.6332 95.3909 63.7211 93.4554 59.5406 93.4554C54.6258 93.4554 50.0499 96.212 47.5642 100.64L47.423 100.904H47.7337Z" fill="#10298E"/>
<defs>
<clipPath id="clip0_7757_6651">
<rect width="64" height="64" fill="white" transform="translate(36)"/>
</clipPath>
</defs>
</svg>
