<svg width="328" height="422" viewBox="0 0 328 422" fill="none" xmlns="http://www.w3.org/2000/svg">
<circle cx="10" cy="343" r="10" fill="#0029FF"/>
<path d="M41.1534 341.04C41.0436 340.695 40.8958 340.386 40.7102 340.114C40.5284 339.837 40.3106 339.602 40.0568 339.409C39.803 339.212 39.5133 339.062 39.1875 338.96C38.8655 338.858 38.5114 338.807 38.125 338.807C37.4697 338.807 36.8788 338.975 36.3523 339.312C35.8258 339.65 35.4091 340.144 35.1023 340.795C34.7992 341.443 34.6477 342.237 34.6477 343.176C34.6477 344.119 34.8011 344.917 35.108 345.568C35.4148 346.22 35.8352 346.714 36.3693 347.051C36.9034 347.388 37.5114 347.557 38.1932 347.557C38.8258 347.557 39.3769 347.428 39.8466 347.17C40.3201 346.913 40.6856 346.549 40.9432 346.08C41.2045 345.606 41.3352 345.049 41.3352 344.409L41.7898 344.494L38.4602 344.494L38.4602 343.045L43.0341 343.045L43.0341 344.369C43.0341 345.347 42.8258 346.195 42.4091 346.915C41.9962 347.631 41.4242 348.184 40.6932 348.574C39.9659 348.964 39.1326 349.159 38.1932 349.159C37.1402 349.159 36.2159 348.917 35.4205 348.432C34.6288 347.947 34.0114 347.259 33.5682 346.369C33.125 345.475 32.9034 344.415 32.9034 343.187C32.9034 342.259 33.0322 341.426 33.2898 340.687C33.5473 339.949 33.9091 339.322 34.375 338.807C34.8447 338.288 35.3958 337.892 36.0284 337.619C36.6648 337.343 37.3598 337.205 38.1136 337.205C38.7424 337.205 39.3277 337.297 39.8693 337.483C40.4148 337.669 40.8996 337.932 41.3239 338.273C41.7519 338.614 42.1061 339.019 42.3864 339.489C42.6667 339.955 42.8561 340.472 42.9545 341.04L41.1534 341.04ZM48.5128 349.165C47.7325 349.165 47.0601 349.023 46.4957 348.739C45.9351 348.455 45.5033 348.068 45.2003 347.58C44.8973 347.087 44.7457 346.53 44.7457 345.909C44.7457 345.436 44.8442 345.015 45.0412 344.648C45.2382 344.277 45.5128 343.934 45.8651 343.619C46.2173 343.305 46.6245 342.989 47.0866 342.67L48.9616 341.347C49.2798 341.138 49.5279 340.919 49.706 340.687C49.884 340.453 49.973 340.163 49.973 339.818C49.973 339.545 49.8556 339.284 49.6207 339.034C49.3859 338.784 49.0715 338.659 48.6776 338.659C48.4048 338.659 48.1643 338.725 47.956 338.858C47.7514 338.991 47.5904 339.161 47.473 339.369C47.3594 339.574 47.3026 339.79 47.3026 340.017C47.3026 340.282 47.3745 340.549 47.5185 340.818C47.6662 341.087 47.8556 341.366 48.0866 341.653C48.3177 341.937 48.5601 342.233 48.8139 342.54L54.2173 349L52.2969 349L47.8253 343.744C47.4503 343.301 47.1018 342.884 46.7798 342.494C46.4579 342.1 46.1965 341.703 45.9957 341.301C45.7988 340.896 45.7003 340.458 45.7003 339.989C45.7003 339.455 45.8215 338.981 46.0639 338.568C46.3101 338.152 46.6529 337.826 47.0923 337.591C47.5317 337.356 48.0469 337.239 48.6378 337.239C49.2363 337.239 49.7495 337.356 50.1776 337.591C50.6094 337.822 50.9408 338.131 51.1719 338.517C51.4067 338.9 51.5241 339.318 51.5241 339.773C51.5241 340.326 51.3859 340.814 51.1094 341.239C50.8366 341.659 50.4598 342.045 49.9787 342.398L47.6435 344.119C47.1889 344.453 46.8726 344.782 46.6946 345.108C46.5204 345.43 46.4332 345.682 46.4332 345.864C46.4332 346.197 46.5185 346.506 46.6889 346.79C46.8632 347.074 47.1056 347.301 47.4162 347.472C47.7306 347.642 48.098 347.727 48.5185 347.727C48.9503 347.727 49.3707 347.634 49.7798 347.449C50.1927 347.259 50.5658 346.989 50.8991 346.636C51.2363 346.284 51.5033 345.862 51.7003 345.369C51.8973 344.877 51.9957 344.326 51.9957 343.716L53.5298 343.716C53.5298 344.466 53.4446 345.1 53.2741 345.619C53.1037 346.134 52.8973 346.555 52.6548 346.881C52.4162 347.203 52.1908 347.455 51.9787 347.636C51.9105 347.697 51.8461 347.758 51.7855 347.818C51.7249 347.879 51.6605 347.939 51.5923 348C51.1984 348.398 50.7211 348.691 50.1605 348.881C49.6037 349.07 49.0545 349.165 48.5128 349.165ZM56.6676 349L54.804 349L58.9915 337.364L61.0199 337.364L65.2074 349L63.3438 349L60.054 339.477L59.9631 339.477L56.6676 349ZM56.9801 344.443L63.0256 344.443L63.0256 345.92L56.9801 345.92L56.9801 344.443ZM71.4801 343.182C71.4801 341.758 71.6676 340.447 72.0426 339.25C72.4176 338.053 72.965 336.949 73.6847 335.937L75.2415 335.937C74.9612 336.312 74.6998 336.773 74.4574 337.318C74.215 337.864 74.0028 338.462 73.821 339.114C73.6392 339.761 73.4972 340.434 73.3949 341.131C73.2926 341.824 73.2415 342.508 73.2415 343.182C73.2415 344.083 73.3305 344.996 73.5085 345.92C73.6866 346.845 73.9271 347.703 74.2301 348.494C74.5331 349.286 74.8703 349.932 75.2415 350.432L73.6847 350.432C72.965 349.42 72.4176 348.316 72.0426 347.119C71.6676 345.922 71.4801 344.61 71.4801 343.182ZM76.7656 346.727L76.7656 345.307L81.794 337.364L82.9134 337.364L82.9134 339.455L82.2031 339.455L78.6065 345.148L78.6065 345.239L85.4986 345.239L85.4986 346.727L76.7656 346.727ZM82.2827 349L82.2827 346.295L82.294 345.648L82.294 337.364L83.9588 337.364L83.9588 349L82.2827 349ZM87.8707 349L92.9503 338.955L92.9503 338.869L87.0753 338.869L87.0753 337.364L94.7685 337.364L94.7685 338.92L89.706 349L87.8707 349ZM95.8864 349.108C95.5758 349.108 95.3087 348.998 95.0852 348.778C94.8617 348.555 94.75 348.286 94.75 347.972C94.75 347.661 94.8617 347.396 95.0852 347.176C95.3087 346.953 95.5758 346.841 95.8864 346.841C96.197 346.841 96.464 346.953 96.6875 347.176C96.911 347.396 97.0227 347.661 97.0227 347.972C97.0227 348.18 96.9697 348.371 96.8636 348.545C96.7614 348.716 96.625 348.852 96.4545 348.955C96.2841 349.057 96.0947 349.108 95.8864 349.108ZM102.916 349.159C102.397 349.152 101.886 349.057 101.382 348.875C100.882 348.693 100.428 348.39 100.018 347.966C99.6094 347.542 99.2817 346.972 99.0355 346.256C98.7931 345.54 98.6719 344.646 98.6719 343.574C98.6719 342.559 98.7723 341.657 98.973 340.869C99.1776 340.081 99.4711 339.417 99.8537 338.875C100.236 338.33 100.698 337.915 101.24 337.631C101.782 337.347 102.39 337.205 103.064 337.205C103.757 337.205 104.373 337.341 104.911 337.614C105.448 337.886 105.884 338.263 106.217 338.744C106.554 339.225 106.768 339.773 106.859 340.386L105.126 340.386C105.009 339.902 104.776 339.506 104.428 339.199C104.079 338.892 103.625 338.739 103.064 338.739C102.212 338.739 101.547 339.11 101.07 339.852C100.596 340.595 100.357 341.627 100.354 342.949L100.439 342.949C100.64 342.619 100.886 342.339 101.178 342.108C101.473 341.873 101.803 341.693 102.166 341.568C102.534 341.439 102.92 341.375 103.325 341.375C104 341.375 104.609 341.54 105.155 341.869C105.704 342.195 106.142 342.646 106.467 343.222C106.793 343.797 106.956 344.456 106.956 345.199C106.956 345.941 106.787 346.614 106.45 347.216C106.117 347.818 105.647 348.295 105.041 348.648C104.435 348.996 103.727 349.167 102.916 349.159ZM102.911 347.682C103.357 347.682 103.757 347.572 104.109 347.352C104.462 347.133 104.74 346.837 104.945 346.466C105.149 346.095 105.251 345.68 105.251 345.222C105.251 344.775 105.151 344.367 104.95 344C104.753 343.633 104.481 343.341 104.132 343.125C103.787 342.909 103.393 342.801 102.95 342.801C102.613 342.801 102.301 342.866 102.013 342.994C101.729 343.123 101.479 343.301 101.263 343.528C101.047 343.756 100.876 344.017 100.751 344.312C100.63 344.604 100.57 344.913 100.57 345.239C100.57 345.674 100.67 346.078 100.871 346.449C101.075 346.82 101.354 347.119 101.706 347.347C102.062 347.57 102.464 347.682 102.911 347.682ZM115.099 346.818L115.099 346.205C115.099 345.765 115.19 345.364 115.372 345C115.558 344.633 115.827 344.339 116.179 344.119C116.535 343.896 116.965 343.784 117.469 343.784C117.984 343.784 118.416 343.894 118.764 344.114C119.113 344.333 119.376 344.627 119.554 344.994C119.736 345.362 119.827 345.765 119.827 346.205L119.827 346.818C119.827 347.258 119.736 347.661 119.554 348.028C119.372 348.392 119.105 348.686 118.753 348.909C118.404 349.129 117.976 349.239 117.469 349.239C116.957 349.239 116.526 349.129 116.173 348.909C115.821 348.686 115.554 348.392 115.372 348.028C115.19 347.661 115.099 347.258 115.099 346.818ZM116.423 346.205L116.423 346.818C116.423 347.144 116.501 347.439 116.656 347.705C116.812 347.97 117.082 348.102 117.469 348.102C117.851 348.102 118.118 347.97 118.27 347.705C118.421 347.439 118.497 347.144 118.497 346.818L118.497 346.205C118.497 345.879 118.423 345.583 118.276 345.318C118.132 345.053 117.863 344.92 117.469 344.92C117.09 344.92 116.821 345.053 116.662 345.318C116.503 345.583 116.423 345.879 116.423 346.205ZM109.247 340.159L109.247 339.545C109.247 339.106 109.338 338.703 109.52 338.335C109.705 337.968 109.974 337.674 110.327 337.455C110.683 337.235 111.113 337.125 111.616 337.125C112.132 337.125 112.563 337.235 112.912 337.455C113.26 337.674 113.524 337.968 113.702 338.335C113.88 338.703 113.969 339.106 113.969 339.545L113.969 340.159C113.969 340.598 113.878 341.002 113.696 341.369C113.518 341.733 113.253 342.027 112.901 342.25C112.552 342.47 112.124 342.58 111.616 342.58C111.101 342.58 110.668 342.47 110.315 342.25C109.967 342.027 109.702 341.733 109.52 341.369C109.338 341.002 109.247 340.598 109.247 340.159ZM110.577 339.545L110.577 340.159C110.577 340.485 110.652 340.78 110.804 341.045C110.959 341.311 111.23 341.443 111.616 341.443C111.995 341.443 112.26 341.311 112.412 341.045C112.567 340.78 112.645 340.485 112.645 340.159L112.645 339.545C112.645 339.22 112.571 338.924 112.423 338.659C112.276 338.394 112.007 338.261 111.616 338.261C111.238 338.261 110.969 338.394 110.81 338.659C110.654 338.924 110.577 339.22 110.577 339.545ZM109.787 349L117.787 337.364L119.145 337.364L111.145 349L109.787 349ZM125.565 343.182C125.565 344.61 125.378 345.922 125.003 347.119C124.628 348.316 124.08 349.42 123.361 350.432L121.804 350.432C122.084 350.057 122.346 349.597 122.588 349.051C122.83 348.506 123.043 347.909 123.224 347.261C123.406 346.61 123.548 345.936 123.651 345.239C123.753 344.542 123.804 343.856 123.804 343.182C123.804 342.284 123.715 341.373 123.537 340.449C123.359 339.525 123.118 338.667 122.815 337.875C122.512 337.083 122.175 336.437 121.804 335.937L123.361 335.937C124.08 336.949 124.628 338.053 125.003 339.25C125.378 340.447 125.565 341.758 125.565 343.182Z" fill="black"/>
<circle cx="10" cy="377" r="10" fill="#F68E1F"/>
<path d="M33.2784 383V371.364H35.0341V381.489H40.3068V383H33.2784ZM42.1733 383V374.273H43.8722V383H42.1733ZM43.0312 372.926C42.7358 372.926 42.482 372.828 42.2699 372.631C42.0616 372.43 41.9574 372.191 41.9574 371.915C41.9574 371.634 42.0616 371.396 42.2699 371.199C42.482 370.998 42.7358 370.898 43.0312 370.898C43.3267 370.898 43.5786 370.998 43.7869 371.199C43.9991 371.396 44.1051 371.634 44.1051 371.915C44.1051 372.191 43.9991 372.43 43.7869 372.631C43.5786 372.828 43.3267 372.926 43.0312 372.926ZM52.0497 386.273V381.642H51.9474C51.8452 381.828 51.6974 382.04 51.5043 382.278C51.3149 382.517 51.0535 382.725 50.7202 382.903C50.3868 383.081 49.955 383.17 49.4247 383.17C48.7202 383.17 48.0914 382.991 47.5384 382.631C46.9891 382.267 46.5573 381.75 46.2429 381.08C45.9323 380.405 45.777 379.597 45.777 378.653C45.777 377.71 45.9342 376.903 46.2486 376.233C46.5668 375.562 47.0024 375.049 47.5554 374.693C48.1084 374.337 48.7353 374.159 49.4361 374.159C49.9777 374.159 50.4134 374.25 50.7429 374.432C51.0762 374.61 51.3338 374.818 51.5156 375.057C51.7012 375.295 51.8452 375.506 51.9474 375.688H52.0895V374.273H53.7486V386.273H52.0497ZM49.7997 381.722C50.2884 381.722 50.7012 381.593 51.0384 381.335C51.3793 381.074 51.6368 380.712 51.8111 380.25C51.9891 379.788 52.0781 379.25 52.0781 378.636C52.0781 378.03 51.991 377.5 51.8168 377.045C51.6425 376.591 51.3868 376.237 51.0497 375.983C50.7126 375.729 50.2959 375.602 49.7997 375.602C49.2884 375.602 48.8622 375.735 48.5213 376C48.1804 376.265 47.9228 376.627 47.7486 377.085C47.5781 377.544 47.4929 378.061 47.4929 378.636C47.4929 379.22 47.58 379.744 47.7543 380.21C47.9285 380.676 48.1861 381.045 48.527 381.318C48.8717 381.587 49.2959 381.722 49.7997 381.722ZM61.5611 379.381V374.273H63.2656V383H61.5952V381.489H61.5043C61.3035 381.955 60.9815 382.343 60.5384 382.653C60.099 382.96 59.5516 383.114 58.8963 383.114C58.3357 383.114 57.8395 382.991 57.4077 382.744C56.9796 382.494 56.6425 382.125 56.3963 381.636C56.1539 381.148 56.0327 380.544 56.0327 379.824V374.273H57.7315V379.619C57.7315 380.214 57.8963 380.687 58.2259 381.04C58.5554 381.392 58.9834 381.568 59.5099 381.568C59.8281 381.568 60.1444 381.489 60.4588 381.33C60.777 381.17 61.0402 380.93 61.2486 380.608C61.4607 380.286 61.5649 379.877 61.5611 379.381ZM65.5483 383V374.273H67.2472V383H65.5483ZM66.4062 372.926C66.1108 372.926 65.857 372.828 65.6449 372.631C65.4366 372.43 65.3324 372.191 65.3324 371.915C65.3324 371.634 65.4366 371.396 65.6449 371.199C65.857 370.998 66.1108 370.898 66.4062 370.898C66.7017 370.898 66.9536 370.998 67.1619 371.199C67.3741 371.396 67.4801 371.634 67.4801 371.915C67.4801 372.191 67.3741 372.43 67.1619 372.631C66.9536 372.828 66.7017 372.926 66.4062 372.926ZM72.7997 383.17C72.0952 383.17 71.4664 382.991 70.9134 382.631C70.3641 382.267 69.9323 381.75 69.6179 381.08C69.3073 380.405 69.152 379.597 69.152 378.653C69.152 377.71 69.3092 376.903 69.6236 376.233C69.9418 375.562 70.3774 375.049 70.9304 374.693C71.4834 374.337 72.1103 374.159 72.8111 374.159C73.3527 374.159 73.7884 374.25 74.1179 374.432C74.4512 374.61 74.7088 374.818 74.8906 375.057C75.0762 375.295 75.2202 375.506 75.3224 375.688H75.4247V371.364H77.1236V383H75.4645V381.642H75.3224C75.2202 381.828 75.0724 382.04 74.8793 382.278C74.6899 382.517 74.4285 382.725 74.0952 382.903C73.7618 383.081 73.33 383.17 72.7997 383.17ZM73.1747 381.722C73.6634 381.722 74.0762 381.593 74.4134 381.335C74.7543 381.074 75.0118 380.712 75.1861 380.25C75.3641 379.788 75.4531 379.25 75.4531 378.636C75.4531 378.03 75.366 377.5 75.1918 377.045C75.0175 376.591 74.7618 376.237 74.4247 375.983C74.0876 375.729 73.6709 375.602 73.1747 375.602C72.6634 375.602 72.2372 375.735 71.8963 376C71.5554 376.265 71.2978 376.627 71.1236 377.085C70.9531 377.544 70.8679 378.061 70.8679 378.636C70.8679 379.22 70.955 379.744 71.1293 380.21C71.3035 380.676 71.5611 381.045 71.902 381.318C72.2467 381.587 72.6709 381.722 73.1747 381.722ZM79.5483 383V374.273H81.2472V383H79.5483ZM80.4062 372.926C80.1108 372.926 79.857 372.828 79.6449 372.631C79.4366 372.43 79.3324 372.191 79.3324 371.915C79.3324 371.634 79.4366 371.396 79.6449 371.199C79.857 370.998 80.1108 370.898 80.4062 370.898C80.7017 370.898 80.9536 370.998 81.1619 371.199C81.3741 371.396 81.4801 371.634 81.4801 371.915C81.4801 372.191 81.3741 372.43 81.1619 372.631C80.9536 372.828 80.7017 372.926 80.4062 372.926ZM87.6065 374.273V375.636H82.8395V374.273H87.6065ZM84.1179 372.182H85.8168V380.438C85.8168 380.767 85.866 381.015 85.9645 381.182C86.063 381.345 86.1899 381.456 86.3452 381.517C86.5043 381.574 86.6766 381.602 86.8622 381.602C86.9986 381.602 87.1179 381.593 87.2202 381.574C87.3224 381.555 87.402 381.54 87.4588 381.528L87.7656 382.932C87.6671 382.97 87.527 383.008 87.3452 383.045C87.1634 383.087 86.9361 383.11 86.6634 383.114C86.2164 383.121 85.7997 383.042 85.4134 382.875C85.027 382.708 84.7145 382.451 84.4759 382.102C84.2372 381.754 84.1179 381.316 84.1179 380.79V372.182ZM90.5597 386.273C90.3059 386.273 90.0748 386.252 89.8665 386.21C89.6581 386.172 89.5028 386.131 89.4006 386.085L89.8097 384.693C90.1203 384.777 90.3968 384.813 90.6392 384.801C90.8816 384.79 91.0956 384.699 91.2812 384.528C91.4706 384.358 91.6373 384.08 91.7812 383.693L91.9915 383.114L88.7983 374.273H90.6165L92.8267 381.045H92.9176L95.1278 374.273H96.9517L93.3551 384.165C93.1884 384.619 92.9763 385.004 92.7188 385.318C92.4612 385.636 92.1544 385.875 91.7983 386.034C91.4422 386.193 91.0294 386.273 90.5597 386.273ZM102.783 383V374.273H104.425V375.659H104.516C104.675 375.189 104.955 374.82 105.357 374.551C105.762 374.278 106.22 374.142 106.732 374.142C106.838 374.142 106.963 374.146 107.107 374.153C107.254 374.161 107.37 374.17 107.453 374.182V375.807C107.385 375.788 107.264 375.767 107.089 375.744C106.915 375.718 106.741 375.705 106.567 375.705C106.165 375.705 105.807 375.79 105.493 375.96C105.182 376.127 104.936 376.36 104.754 376.659C104.572 376.955 104.482 377.292 104.482 377.67V383H102.783ZM112.372 383.176C111.512 383.176 110.772 382.992 110.151 382.625C109.533 382.254 109.056 381.733 108.719 381.062C108.385 380.388 108.219 379.598 108.219 378.693C108.219 377.799 108.385 377.011 108.719 376.33C109.056 375.648 109.526 375.116 110.128 374.733C110.734 374.35 111.442 374.159 112.253 374.159C112.745 374.159 113.223 374.241 113.685 374.403C114.147 374.566 114.562 374.822 114.929 375.17C115.296 375.519 115.586 375.972 115.798 376.528C116.01 377.081 116.116 377.754 116.116 378.545V379.148H109.179V377.875H114.452C114.452 377.428 114.361 377.032 114.179 376.688C113.997 376.339 113.741 376.064 113.412 375.864C113.086 375.663 112.704 375.562 112.264 375.562C111.787 375.562 111.37 375.68 111.014 375.915C110.662 376.146 110.389 376.449 110.196 376.824C110.007 377.195 109.912 377.598 109.912 378.034V379.028C109.912 379.612 110.014 380.108 110.219 380.517C110.427 380.926 110.717 381.239 111.088 381.455C111.459 381.667 111.893 381.773 112.389 381.773C112.711 381.773 113.005 381.727 113.27 381.636C113.535 381.542 113.764 381.402 113.957 381.216C114.151 381.03 114.298 380.801 114.401 380.528L116.009 380.818C115.88 381.292 115.649 381.706 115.315 382.062C114.986 382.415 114.571 382.689 114.071 382.886C113.575 383.08 113.009 383.176 112.372 383.176ZM124.541 376.403L123.001 376.676C122.937 376.479 122.835 376.292 122.695 376.114C122.558 375.936 122.373 375.79 122.138 375.676C121.903 375.562 121.609 375.506 121.257 375.506C120.776 375.506 120.375 375.614 120.053 375.83C119.731 376.042 119.57 376.316 119.57 376.653C119.57 376.945 119.678 377.18 119.893 377.358C120.109 377.536 120.458 377.682 120.939 377.795L122.325 378.114C123.128 378.299 123.727 378.585 124.121 378.972C124.515 379.358 124.712 379.86 124.712 380.477C124.712 381 124.56 381.466 124.257 381.875C123.958 382.28 123.539 382.598 123.001 382.83C122.467 383.061 121.848 383.176 121.143 383.176C120.166 383.176 119.369 382.968 118.751 382.551C118.134 382.131 117.755 381.534 117.615 380.761L119.257 380.511C119.359 380.939 119.57 381.263 119.888 381.483C120.206 381.699 120.621 381.807 121.132 381.807C121.689 381.807 122.134 381.691 122.467 381.46C122.801 381.225 122.967 380.939 122.967 380.602C122.967 380.33 122.865 380.1 122.661 379.915C122.46 379.729 122.151 379.589 121.734 379.494L120.257 379.17C119.443 378.985 118.84 378.689 118.45 378.284C118.064 377.879 117.871 377.366 117.871 376.744C117.871 376.229 118.015 375.778 118.303 375.392C118.59 375.006 118.988 374.705 119.496 374.489C120.003 374.269 120.585 374.159 121.24 374.159C122.183 374.159 122.926 374.364 123.467 374.773C124.009 375.178 124.367 375.722 124.541 376.403ZM130.341 383.176C129.481 383.176 128.741 382.992 128.119 382.625C127.502 382.254 127.025 381.733 126.688 381.062C126.354 380.388 126.188 379.598 126.188 378.693C126.188 377.799 126.354 377.011 126.688 376.33C127.025 375.648 127.494 375.116 128.097 374.733C128.703 374.35 129.411 374.159 130.222 374.159C130.714 374.159 131.191 374.241 131.653 374.403C132.116 374.566 132.53 374.822 132.898 375.17C133.265 375.519 133.555 375.972 133.767 376.528C133.979 377.081 134.085 377.754 134.085 378.545V379.148H127.148V377.875H132.42C132.42 377.428 132.33 377.032 132.148 376.688C131.966 376.339 131.71 376.064 131.381 375.864C131.055 375.663 130.672 375.562 130.233 375.562C129.756 375.562 129.339 375.68 128.983 375.915C128.631 376.146 128.358 376.449 128.165 376.824C127.975 377.195 127.881 377.598 127.881 378.034V379.028C127.881 379.612 127.983 380.108 128.188 380.517C128.396 380.926 128.686 381.239 129.057 381.455C129.428 381.667 129.862 381.773 130.358 381.773C130.68 381.773 130.973 381.727 131.239 381.636C131.504 381.542 131.733 381.402 131.926 381.216C132.119 381.03 132.267 380.801 132.369 380.528L133.977 380.818C133.848 381.292 133.617 381.706 133.284 382.062C132.955 382.415 132.54 382.689 132.04 382.886C131.544 383.08 130.977 383.176 130.341 383.176ZM135.97 383V374.273H137.612V375.659H137.703C137.862 375.189 138.143 374.82 138.544 374.551C138.949 374.278 139.408 374.142 139.919 374.142C140.025 374.142 140.15 374.146 140.294 374.153C140.442 374.161 140.557 374.17 140.641 374.182V375.807C140.572 375.788 140.451 375.767 140.277 375.744C140.103 375.718 139.929 375.705 139.754 375.705C139.353 375.705 138.995 375.79 138.68 375.96C138.37 376.127 138.124 376.36 137.942 376.659C137.76 376.955 137.669 377.292 137.669 377.67V383H135.97ZM149.842 374.273L146.678 383H144.859L141.689 374.273H143.513L145.723 380.989H145.814L148.018 374.273H149.842ZM154.903 383.176C154.044 383.176 153.303 382.992 152.682 382.625C152.064 382.254 151.587 381.733 151.25 381.062C150.917 380.388 150.75 379.598 150.75 378.693C150.75 377.799 150.917 377.011 151.25 376.33C151.587 375.648 152.057 375.116 152.659 374.733C153.265 374.35 153.973 374.159 154.784 374.159C155.277 374.159 155.754 374.241 156.216 374.403C156.678 374.566 157.093 374.822 157.46 375.17C157.828 375.519 158.117 375.972 158.33 376.528C158.542 377.081 158.648 377.754 158.648 378.545V379.148H151.71V377.875H156.983C156.983 377.428 156.892 377.032 156.71 376.688C156.528 376.339 156.273 376.064 155.943 375.864C155.617 375.663 155.235 375.562 154.795 375.562C154.318 375.562 153.902 375.68 153.545 375.915C153.193 376.146 152.92 376.449 152.727 376.824C152.538 377.195 152.443 377.598 152.443 378.034V379.028C152.443 379.612 152.545 380.108 152.75 380.517C152.958 380.926 153.248 381.239 153.619 381.455C153.991 381.667 154.424 381.773 154.92 381.773C155.242 381.773 155.536 381.727 155.801 381.636C156.066 381.542 156.295 381.402 156.489 381.216C156.682 381.03 156.83 380.801 156.932 380.528L158.54 380.818C158.411 381.292 158.18 381.706 157.847 382.062C157.517 382.415 157.102 382.689 156.602 382.886C156.106 383.08 155.54 383.176 154.903 383.176ZM167.072 376.403L165.533 376.676C165.468 376.479 165.366 376.292 165.226 376.114C165.089 375.936 164.904 375.79 164.669 375.676C164.434 375.562 164.141 375.506 163.788 375.506C163.307 375.506 162.906 375.614 162.584 375.83C162.262 376.042 162.101 376.316 162.101 376.653C162.101 376.945 162.209 377.18 162.425 377.358C162.641 377.536 162.989 377.682 163.47 377.795L164.857 378.114C165.66 378.299 166.258 378.585 166.652 378.972C167.046 379.358 167.243 379.86 167.243 380.477C167.243 381 167.091 381.466 166.788 381.875C166.489 382.28 166.071 382.598 165.533 382.83C164.999 383.061 164.379 383.176 163.675 383.176C162.697 383.176 161.9 382.968 161.283 382.551C160.665 382.131 160.286 381.534 160.146 380.761L161.788 380.511C161.891 380.939 162.101 381.263 162.419 381.483C162.737 381.699 163.152 381.807 163.663 381.807C164.22 381.807 164.665 381.691 164.999 381.46C165.332 381.225 165.499 380.939 165.499 380.602C165.499 380.33 165.396 380.1 165.192 379.915C164.991 379.729 164.682 379.589 164.266 379.494L162.788 379.17C161.974 378.985 161.372 378.689 160.982 378.284C160.595 377.879 160.402 377.366 160.402 376.744C160.402 376.229 160.546 375.778 160.834 375.392C161.122 375.006 161.519 374.705 162.027 374.489C162.535 374.269 163.116 374.159 163.771 374.159C164.714 374.159 165.457 374.364 165.999 374.773C166.54 375.178 166.898 375.722 167.072 376.403ZM173.839 377.182C173.839 375.758 174.027 374.447 174.402 373.25C174.777 372.053 175.324 370.949 176.044 369.938H177.601C177.321 370.312 177.059 370.773 176.817 371.318C176.574 371.864 176.362 372.462 176.18 373.114C175.999 373.761 175.857 374.434 175.754 375.131C175.652 375.824 175.601 376.508 175.601 377.182C175.601 378.083 175.69 378.996 175.868 379.92C176.046 380.845 176.286 381.703 176.589 382.494C176.893 383.286 177.23 383.932 177.601 384.432H176.044C175.324 383.42 174.777 382.316 174.402 381.119C174.027 379.922 173.839 378.61 173.839 377.182ZM179.369 383V381.727L183.307 377.648C183.727 377.205 184.074 376.816 184.347 376.483C184.623 376.146 184.83 375.826 184.966 375.523C185.102 375.22 185.17 374.898 185.17 374.557C185.17 374.17 185.08 373.837 184.898 373.557C184.716 373.273 184.468 373.055 184.153 372.903C183.839 372.748 183.485 372.67 183.091 372.67C182.674 372.67 182.311 372.756 182 372.926C181.689 373.097 181.451 373.337 181.284 373.648C181.117 373.958 181.034 374.322 181.034 374.739H179.358C179.358 374.03 179.521 373.411 179.847 372.881C180.172 372.35 180.619 371.939 181.188 371.648C181.756 371.352 182.402 371.205 183.125 371.205C183.856 371.205 184.5 371.35 185.057 371.642C185.617 371.93 186.055 372.324 186.369 372.824C186.684 373.32 186.841 373.881 186.841 374.506C186.841 374.938 186.759 375.36 186.597 375.773C186.438 376.186 186.159 376.646 185.761 377.153C185.364 377.657 184.811 378.269 184.102 378.989L181.79 381.409V381.494H187.028V383H179.369ZM193.023 383.159C192.311 383.159 191.67 383.023 191.102 382.75C190.538 382.473 190.087 382.095 189.75 381.614C189.413 381.133 189.233 380.583 189.21 379.966H190.915C190.956 380.466 191.178 380.877 191.58 381.199C191.981 381.521 192.462 381.682 193.023 381.682C193.47 381.682 193.866 381.58 194.21 381.375C194.559 381.167 194.831 380.881 195.028 380.517C195.229 380.153 195.33 379.739 195.33 379.273C195.33 378.799 195.227 378.377 195.023 378.006C194.818 377.634 194.536 377.343 194.176 377.131C193.82 376.919 193.411 376.811 192.949 376.807C192.597 376.807 192.242 376.867 191.886 376.989C191.53 377.11 191.242 377.269 191.023 377.466L189.415 377.227L190.068 371.364H196.466V372.869H191.528L191.159 376.125H191.227C191.455 375.905 191.756 375.722 192.131 375.574C192.509 375.426 192.915 375.352 193.347 375.352C194.055 375.352 194.686 375.521 195.239 375.858C195.795 376.195 196.233 376.655 196.551 377.239C196.873 377.818 197.032 378.485 197.028 379.239C197.032 379.992 196.862 380.665 196.517 381.256C196.176 381.847 195.703 382.312 195.097 382.653C194.494 382.991 193.803 383.159 193.023 383.159ZM199.824 383.108C199.513 383.108 199.246 382.998 199.023 382.778C198.799 382.555 198.688 382.286 198.688 381.972C198.688 381.661 198.799 381.396 199.023 381.176C199.246 380.953 199.513 380.841 199.824 380.841C200.134 380.841 200.402 380.953 200.625 381.176C200.848 381.396 200.96 381.661 200.96 381.972C200.96 382.18 200.907 382.371 200.801 382.545C200.699 382.716 200.562 382.852 200.392 382.955C200.222 383.057 200.032 383.108 199.824 383.108ZM206.842 383.159C206.062 383.159 205.365 383.025 204.751 382.756C204.142 382.487 203.659 382.114 203.303 381.636C202.95 381.155 202.761 380.598 202.734 379.966H204.518C204.541 380.311 204.657 380.61 204.865 380.864C205.077 381.114 205.354 381.307 205.695 381.443C206.036 381.58 206.414 381.648 206.831 381.648C207.289 381.648 207.695 381.568 208.047 381.409C208.403 381.25 208.681 381.028 208.882 380.744C209.083 380.456 209.183 380.125 209.183 379.75C209.183 379.36 209.083 379.017 208.882 378.722C208.685 378.422 208.395 378.187 208.013 378.017C207.634 377.847 207.176 377.761 206.638 377.761H205.655V376.33H206.638C207.07 376.33 207.448 376.252 207.774 376.097C208.104 375.941 208.361 375.725 208.547 375.449C208.732 375.169 208.825 374.841 208.825 374.466C208.825 374.106 208.744 373.794 208.581 373.528C208.422 373.259 208.195 373.049 207.899 372.898C207.607 372.746 207.263 372.67 206.865 372.67C206.486 372.67 206.132 372.741 205.803 372.881C205.477 373.017 205.212 373.214 205.007 373.472C204.803 373.725 204.693 374.03 204.678 374.386H202.979C202.998 373.758 203.183 373.205 203.536 372.727C203.892 372.25 204.361 371.877 204.945 371.608C205.528 371.339 206.176 371.205 206.888 371.205C207.634 371.205 208.278 371.35 208.82 371.642C209.365 371.93 209.786 372.314 210.081 372.795C210.38 373.277 210.528 373.803 210.524 374.375C210.528 375.027 210.346 375.58 209.979 376.034C209.615 376.489 209.13 376.794 208.524 376.949V377.04C209.297 377.157 209.895 377.464 210.32 377.96C210.748 378.456 210.96 379.072 210.956 379.807C210.96 380.447 210.782 381.021 210.422 381.528C210.066 382.036 209.579 382.436 208.962 382.727C208.344 383.015 207.638 383.159 206.842 383.159ZM219.178 380.818V380.205C219.178 379.765 219.268 379.364 219.45 379C219.636 378.633 219.905 378.339 220.257 378.119C220.613 377.896 221.043 377.784 221.547 377.784C222.062 377.784 222.494 377.894 222.842 378.114C223.191 378.333 223.454 378.627 223.632 378.994C223.814 379.362 223.905 379.765 223.905 380.205V380.818C223.905 381.258 223.814 381.661 223.632 382.028C223.45 382.392 223.183 382.686 222.831 382.909C222.482 383.129 222.054 383.239 221.547 383.239C221.036 383.239 220.604 383.129 220.251 382.909C219.899 382.686 219.632 382.392 219.45 382.028C219.268 381.661 219.178 381.258 219.178 380.818ZM220.501 380.205V380.818C220.501 381.144 220.579 381.439 220.734 381.705C220.89 381.97 221.161 382.102 221.547 382.102C221.929 382.102 222.196 381.97 222.348 381.705C222.5 381.439 222.575 381.144 222.575 380.818V380.205C222.575 379.879 222.501 379.583 222.354 379.318C222.21 379.053 221.941 378.92 221.547 378.92C221.168 378.92 220.899 379.053 220.74 379.318C220.581 379.583 220.501 379.879 220.501 380.205ZM213.325 374.159V373.545C213.325 373.106 213.416 372.703 213.598 372.335C213.784 371.968 214.053 371.674 214.405 371.455C214.761 371.235 215.191 371.125 215.695 371.125C216.21 371.125 216.642 371.235 216.99 371.455C217.339 371.674 217.602 371.968 217.78 372.335C217.958 372.703 218.047 373.106 218.047 373.545V374.159C218.047 374.598 217.956 375.002 217.774 375.369C217.596 375.733 217.331 376.027 216.979 376.25C216.63 376.47 216.202 376.58 215.695 376.58C215.179 376.58 214.746 376.47 214.393 376.25C214.045 376.027 213.78 375.733 213.598 375.369C213.416 375.002 213.325 374.598 213.325 374.159ZM214.655 373.545V374.159C214.655 374.485 214.731 374.78 214.882 375.045C215.037 375.311 215.308 375.443 215.695 375.443C216.073 375.443 216.339 375.311 216.49 375.045C216.645 374.78 216.723 374.485 216.723 374.159V373.545C216.723 373.22 216.649 372.924 216.501 372.659C216.354 372.394 216.085 372.261 215.695 372.261C215.316 372.261 215.047 372.394 214.888 372.659C214.732 372.924 214.655 373.22 214.655 373.545ZM213.865 383L221.865 371.364H223.223L215.223 383H213.865ZM229.643 377.182C229.643 378.61 229.456 379.922 229.081 381.119C228.706 382.316 228.159 383.42 227.439 384.432H225.882C226.162 384.057 226.424 383.597 226.666 383.051C226.909 382.506 227.121 381.909 227.303 381.261C227.484 380.61 227.626 379.936 227.729 379.239C227.831 378.542 227.882 377.856 227.882 377.182C227.882 376.284 227.793 375.373 227.615 374.449C227.437 373.525 227.196 372.667 226.893 371.875C226.59 371.083 226.253 370.438 225.882 369.938H227.439C228.159 370.949 228.706 372.053 229.081 373.25C229.456 374.447 229.643 375.758 229.643 377.182Z" fill="black"/>
<circle cx="10" cy="411" r="10" fill="#30D04D"/>
<path d="M33.2784 405.364H35.4091L39.1136 414.409H39.25L42.9545 405.364H45.0852V417H43.4148V408.58H43.3068L39.875 416.983H38.4886L35.0568 408.574H34.9489V417H33.2784V405.364ZM50.0412 417.193C49.4882 417.193 48.9882 417.091 48.5412 416.886C48.0942 416.678 47.7401 416.377 47.4787 415.983C47.2211 415.589 47.0923 415.106 47.0923 414.534C47.0923 414.042 47.187 413.636 47.3764 413.318C47.5658 413 47.8215 412.748 48.1435 412.562C48.4654 412.377 48.8253 412.237 49.223 412.142C49.6207 412.047 50.026 411.975 50.4389 411.926C50.9616 411.866 51.3859 411.816 51.7116 411.778C52.0374 411.737 52.2741 411.67 52.4219 411.58C52.5696 411.489 52.6435 411.341 52.6435 411.136V411.097C52.6435 410.6 52.5033 410.216 52.223 409.943C51.9465 409.67 51.5336 409.534 50.9844 409.534C50.4124 409.534 49.9616 409.661 49.6321 409.915C49.3063 410.165 49.081 410.443 48.956 410.75L47.3594 410.386C47.5488 409.856 47.8253 409.428 48.1889 409.102C48.5563 408.773 48.9787 408.534 49.456 408.386C49.9332 408.235 50.4351 408.159 50.9616 408.159C51.3101 408.159 51.6795 408.201 52.0696 408.284C52.4635 408.364 52.831 408.511 53.1719 408.727C53.5166 408.943 53.7988 409.252 54.0185 409.653C54.2382 410.051 54.348 410.568 54.348 411.205V417H52.6889V415.807H52.6207C52.5109 416.027 52.3461 416.242 52.1264 416.455C51.9067 416.667 51.6245 416.843 51.2798 416.983C50.9351 417.123 50.5223 417.193 50.0412 417.193ZM50.4105 415.83C50.8802 415.83 51.2817 415.737 51.6151 415.551C51.9522 415.366 52.2079 415.123 52.3821 414.824C52.5601 414.521 52.6491 414.197 52.6491 413.852V412.727C52.5885 412.788 52.4711 412.845 52.2969 412.898C52.1264 412.947 51.9313 412.991 51.7116 413.028C51.492 413.062 51.2779 413.095 51.0696 413.125C50.8613 413.152 50.687 413.174 50.5469 413.193C50.2173 413.235 49.9162 413.305 49.6435 413.403C49.3745 413.502 49.1586 413.644 48.9957 413.83C48.8366 414.011 48.7571 414.254 48.7571 414.557C48.7571 414.977 48.9124 415.295 49.223 415.511C49.5336 415.723 49.9295 415.83 50.4105 415.83ZM56.6108 417V408.273H58.2528V409.659H58.3438C58.5028 409.189 58.7831 408.82 59.1847 408.551C59.59 408.278 60.0483 408.142 60.5597 408.142C60.6657 408.142 60.7907 408.146 60.9347 408.153C61.0824 408.161 61.1979 408.17 61.2812 408.182V409.807C61.2131 409.788 61.0919 409.767 60.9176 409.744C60.7434 409.718 60.5691 409.705 60.3949 409.705C59.9934 409.705 59.6354 409.79 59.321 409.96C59.0104 410.127 58.7642 410.36 58.5824 410.659C58.4006 410.955 58.3097 411.292 58.3097 411.67V417H56.6108ZM64.3139 414.04L64.3026 411.966H64.598L68.0753 408.273H70.1094L66.1435 412.477H65.8764L64.3139 414.04ZM62.7514 417V405.364H64.4503V417H62.7514ZM68.2628 417L65.1378 412.852L66.3082 411.665L70.348 417H68.2628ZM75.0597 417.176C74.1998 417.176 73.4593 416.992 72.8381 416.625C72.2206 416.254 71.7434 415.733 71.4062 415.062C71.0729 414.388 70.9062 413.598 70.9062 412.693C70.9062 411.799 71.0729 411.011 71.4062 410.33C71.7434 409.648 72.2131 409.116 72.8153 408.733C73.4214 408.35 74.1297 408.159 74.9403 408.159C75.4328 408.159 75.91 408.241 76.3722 408.403C76.8343 408.566 77.2491 408.822 77.6165 409.17C77.9839 409.519 78.2737 409.972 78.4858 410.528C78.6979 411.081 78.804 411.754 78.804 412.545V413.148H71.8665V411.875H77.1392C77.1392 411.428 77.0483 411.032 76.8665 410.688C76.6847 410.339 76.429 410.064 76.0994 409.864C75.7737 409.663 75.3911 409.562 74.9517 409.562C74.4744 409.562 74.0578 409.68 73.7017 409.915C73.3494 410.146 73.0767 410.449 72.8835 410.824C72.6941 411.195 72.5994 411.598 72.5994 412.034V413.028C72.5994 413.612 72.7017 414.108 72.9062 414.517C73.1146 414.926 73.4044 415.239 73.7756 415.455C74.1468 415.667 74.5805 415.773 75.0767 415.773C75.3987 415.773 75.6922 415.727 75.9574 415.636C76.2225 415.542 76.4517 415.402 76.6449 415.216C76.8381 415.03 76.9858 414.801 77.0881 414.528L78.696 414.818C78.5672 415.292 78.3362 415.706 78.0028 416.062C77.6733 416.415 77.2585 416.689 76.7585 416.886C76.2623 417.08 75.696 417.176 75.0597 417.176ZM84.7628 408.273V409.636H79.9957V408.273H84.7628ZM81.2741 406.182H82.973V414.438C82.973 414.767 83.0223 415.015 83.1207 415.182C83.2192 415.345 83.3461 415.456 83.5014 415.517C83.6605 415.574 83.8329 415.602 84.0185 415.602C84.1548 415.602 84.2741 415.593 84.3764 415.574C84.4787 415.555 84.5582 415.54 84.6151 415.528L84.9219 416.932C84.8234 416.97 84.6832 417.008 84.5014 417.045C84.3196 417.087 84.0923 417.11 83.8196 417.114C83.3726 417.121 82.956 417.042 82.5696 416.875C82.1832 416.708 81.8707 416.451 81.6321 416.102C81.3935 415.754 81.2741 415.316 81.2741 414.79V406.182ZM86.642 417V408.273H88.3409V417H86.642ZM87.5 406.926C87.2045 406.926 86.9508 406.828 86.7386 406.631C86.5303 406.43 86.4261 406.191 86.4261 405.915C86.4261 405.634 86.5303 405.396 86.7386 405.199C86.9508 404.998 87.2045 404.898 87.5 404.898C87.7955 404.898 88.0473 404.998 88.2557 405.199C88.4678 405.396 88.5739 405.634 88.5739 405.915C88.5739 406.191 88.4678 406.43 88.2557 406.631C88.0473 406.828 87.7955 406.926 87.5 406.926ZM92.3253 411.818V417H90.6264V408.273H92.2571V409.693H92.3651C92.5658 409.231 92.8802 408.86 93.3082 408.58C93.7401 408.299 94.2836 408.159 94.9389 408.159C95.5336 408.159 96.0545 408.284 96.5014 408.534C96.9484 408.78 97.295 409.148 97.5412 409.636C97.7874 410.125 97.9105 410.729 97.9105 411.449V417H96.2116V411.653C96.2116 411.021 96.0469 410.527 95.7173 410.17C95.3878 409.811 94.9351 409.631 94.3594 409.631C93.9654 409.631 93.6151 409.716 93.3082 409.886C93.0052 410.057 92.7647 410.307 92.5866 410.636C92.4124 410.962 92.3253 411.356 92.3253 411.818ZM103.848 420.455C103.155 420.455 102.558 420.364 102.058 420.182C101.562 420 101.157 419.759 100.842 419.46C100.528 419.161 100.293 418.833 100.138 418.477L101.598 417.875C101.7 418.042 101.837 418.218 102.007 418.403C102.181 418.593 102.416 418.754 102.712 418.886C103.011 419.019 103.395 419.085 103.865 419.085C104.509 419.085 105.041 418.928 105.462 418.614C105.882 418.303 106.092 417.807 106.092 417.125V415.409H105.984C105.882 415.595 105.734 415.801 105.541 416.028C105.352 416.256 105.09 416.453 104.757 416.619C104.424 416.786 103.99 416.869 103.456 416.869C102.767 416.869 102.145 416.708 101.592 416.386C101.043 416.061 100.607 415.581 100.286 414.949C99.9673 414.312 99.8082 413.53 99.8082 412.602C99.8082 411.674 99.9654 410.879 100.28 410.216C100.598 409.553 101.034 409.045 101.587 408.693C102.14 408.337 102.767 408.159 103.467 408.159C104.009 408.159 104.446 408.25 104.78 408.432C105.113 408.61 105.373 408.818 105.558 409.057C105.748 409.295 105.893 409.506 105.996 409.688H106.121V408.273H107.786V417.193C107.786 417.943 107.611 418.559 107.263 419.04C106.914 419.521 106.443 419.877 105.848 420.108C105.257 420.339 104.59 420.455 103.848 420.455ZM103.831 415.46C104.32 415.46 104.732 415.347 105.07 415.119C105.411 414.888 105.668 414.559 105.842 414.131C106.02 413.699 106.109 413.182 106.109 412.58C106.109 411.992 106.022 411.475 105.848 411.028C105.674 410.581 105.418 410.233 105.081 409.983C104.744 409.729 104.327 409.602 103.831 409.602C103.32 409.602 102.893 409.735 102.553 410C102.212 410.261 101.954 410.617 101.78 411.068C101.609 411.519 101.524 412.023 101.524 412.58C101.524 413.152 101.611 413.653 101.786 414.085C101.96 414.517 102.217 414.854 102.558 415.097C102.903 415.339 103.327 415.46 103.831 415.46ZM114.793 411.182C114.793 409.758 114.98 408.447 115.355 407.25C115.73 406.053 116.277 404.949 116.997 403.938H118.554C118.274 404.312 118.012 404.773 117.77 405.318C117.527 405.864 117.315 406.462 117.134 407.114C116.952 407.761 116.81 408.434 116.707 409.131C116.605 409.824 116.554 410.508 116.554 411.182C116.554 412.083 116.643 412.996 116.821 413.92C116.999 414.845 117.24 415.703 117.543 416.494C117.846 417.286 118.183 417.932 118.554 418.432H116.997C116.277 417.42 115.73 416.316 115.355 415.119C114.98 413.922 114.793 412.61 114.793 411.182ZM120.322 417V415.727L124.26 411.648C124.68 411.205 125.027 410.816 125.3 410.483C125.576 410.146 125.783 409.826 125.919 409.523C126.055 409.22 126.124 408.898 126.124 408.557C126.124 408.17 126.033 407.837 125.851 407.557C125.669 407.273 125.421 407.055 125.107 406.903C124.792 406.748 124.438 406.67 124.044 406.67C123.627 406.67 123.264 406.756 122.953 406.926C122.643 407.097 122.404 407.337 122.237 407.648C122.071 407.958 121.987 408.322 121.987 408.739H120.311C120.311 408.03 120.474 407.411 120.8 406.881C121.125 406.35 121.572 405.939 122.141 405.648C122.709 405.352 123.355 405.205 124.078 405.205C124.809 405.205 125.453 405.35 126.01 405.642C126.571 405.93 127.008 406.324 127.322 406.824C127.637 407.32 127.794 407.881 127.794 408.506C127.794 408.938 127.713 409.36 127.55 409.773C127.391 410.186 127.112 410.646 126.714 411.153C126.317 411.657 125.764 412.269 125.055 412.989L122.743 415.409V415.494H127.982V417H120.322ZM130.527 417L135.607 406.955V406.869H129.732V405.364H137.425V406.92L132.362 417H130.527ZM138.543 417.108C138.232 417.108 137.965 416.998 137.741 416.778C137.518 416.555 137.406 416.286 137.406 415.972C137.406 415.661 137.518 415.396 137.741 415.176C137.965 414.953 138.232 414.841 138.543 414.841C138.853 414.841 139.12 414.953 139.344 415.176C139.567 415.396 139.679 415.661 139.679 415.972C139.679 416.18 139.626 416.371 139.52 416.545C139.418 416.716 139.281 416.852 139.111 416.955C138.94 417.057 138.751 417.108 138.543 417.108ZM144.94 405.364V417H143.179V407.125H143.111L140.327 408.943V407.261L143.23 405.364H144.94ZM154.162 414.818V414.205C154.162 413.765 154.253 413.364 154.435 413C154.62 412.633 154.889 412.339 155.241 412.119C155.598 411.896 156.027 411.784 156.531 411.784C157.046 411.784 157.478 411.894 157.827 412.114C158.175 412.333 158.438 412.627 158.616 412.994C158.798 413.362 158.889 413.765 158.889 414.205V414.818C158.889 415.258 158.798 415.661 158.616 416.028C158.435 416.392 158.168 416.686 157.815 416.909C157.467 417.129 157.039 417.239 156.531 417.239C156.02 417.239 155.588 417.129 155.236 416.909C154.884 416.686 154.616 416.392 154.435 416.028C154.253 415.661 154.162 415.258 154.162 414.818ZM155.486 414.205V414.818C155.486 415.144 155.563 415.439 155.719 415.705C155.874 415.97 156.145 416.102 156.531 416.102C156.914 416.102 157.181 415.97 157.332 415.705C157.484 415.439 157.56 415.144 157.56 414.818V414.205C157.56 413.879 157.486 413.583 157.338 413.318C157.194 413.053 156.925 412.92 156.531 412.92C156.152 412.92 155.884 413.053 155.724 413.318C155.565 413.583 155.486 413.879 155.486 414.205ZM148.31 408.159V407.545C148.31 407.106 148.401 406.703 148.582 406.335C148.768 405.968 149.037 405.674 149.389 405.455C149.745 405.235 150.175 405.125 150.679 405.125C151.194 405.125 151.626 405.235 151.974 405.455C152.323 405.674 152.586 405.968 152.764 406.335C152.942 406.703 153.031 407.106 153.031 407.545V408.159C153.031 408.598 152.94 409.002 152.759 409.369C152.58 409.733 152.315 410.027 151.963 410.25C151.615 410.47 151.187 410.58 150.679 410.58C150.164 410.58 149.73 410.47 149.378 410.25C149.029 410.027 148.764 409.733 148.582 409.369C148.401 409.002 148.31 408.598 148.31 408.159ZM149.639 407.545V408.159C149.639 408.485 149.715 408.78 149.866 409.045C150.022 409.311 150.293 409.443 150.679 409.443C151.058 409.443 151.323 409.311 151.474 409.045C151.63 408.78 151.707 408.485 151.707 408.159V407.545C151.707 407.22 151.634 406.924 151.486 406.659C151.338 406.394 151.069 406.261 150.679 406.261C150.3 406.261 150.031 406.394 149.872 406.659C149.717 406.924 149.639 407.22 149.639 407.545ZM148.849 417L156.849 405.364H158.207L150.207 417H148.849ZM164.628 411.182C164.628 412.61 164.44 413.922 164.065 415.119C163.69 416.316 163.143 417.42 162.423 418.432H160.866C161.147 418.057 161.408 417.597 161.651 417.051C161.893 416.506 162.105 415.909 162.287 415.261C162.469 414.61 162.611 413.936 162.713 413.239C162.815 412.542 162.866 411.856 162.866 411.182C162.866 410.284 162.777 409.373 162.599 408.449C162.421 407.525 162.181 406.667 161.878 405.875C161.575 405.083 161.238 404.438 160.866 403.938H162.423C163.143 404.949 163.69 406.053 164.065 407.25C164.44 408.447 164.628 409.758 164.628 411.182Z" fill="black"/>
<g clip-path="url(#clip0_10116_12715)">
<path d="M41.1272 63.9635C62.8236 32.9778 95.4258 11.3334 132.404 3.36552C169.382 -4.60235 208.004 1.69472 240.536 20.9954C273.068 40.2962 297.107 71.1753 307.838 107.448C318.568 143.721 315.199 182.708 298.403 216.601L239.266 187.297C248.671 168.317 250.558 146.483 244.549 126.171C238.54 105.858 225.078 88.5659 206.86 77.7574C188.642 66.949 167.014 63.4227 146.306 67.8847C125.598 72.3467 107.341 84.4676 95.1912 101.82L41.1272 63.9635Z" fill="#0029FF"/>
<path d="M298.622 216.159C289.829 234.051 277.557 250.011 262.525 263.106C247.492 276.2 230 286.167 211.071 292.423C192.141 298.679 172.155 301.099 152.28 299.541C132.405 297.984 113.039 292.48 95.3158 283.351L125.537 224.677C135.462 229.789 146.307 232.871 157.437 233.743C168.567 234.616 179.759 233.26 190.36 229.757C200.96 226.254 210.756 220.672 219.174 213.339C227.592 206.006 234.464 197.069 239.388 187.049L298.622 216.159Z" fill="#F78E1F"/>
<path d="M95.2038 283.293C76.2184 273.494 59.5453 259.753 46.3006 242.988C33.056 226.224 23.5453 206.824 18.4054 186.086C13.2655 165.349 12.615 143.753 16.4972 122.743C20.3795 101.734 28.7051 81.7963 40.9166 64.2651L95.0733 101.988C88.2348 111.806 83.5725 122.971 81.3984 134.736C79.2244 146.501 79.5887 158.595 82.467 170.208C85.3454 181.821 90.6713 192.686 98.0883 202.074C105.505 211.462 114.842 219.157 125.474 224.644L95.2038 283.293Z" fill="#30D04D"/>
<path d="M241.377 87.3011L241.377 85.206L247.549 75.4545L249.296 75.4545L249.296 78.4375L248.231 78.4375L244.076 85.0213L244.076 85.1349L252.691 85.1349L252.691 87.3011L241.377 87.3011ZM248.316 90L248.316 86.6619L248.344 85.7244L248.344 75.4545L250.83 75.4545L250.83 90L248.316 90ZM259.731 90.1989C258.675 90.1989 257.737 90.0213 256.918 89.6662C256.104 89.3111 255.465 88.8258 255.001 88.2102C254.541 87.59 254.314 86.8868 254.319 86.1009C254.314 85.4901 254.447 84.929 254.716 84.4176C254.986 83.9063 255.351 83.4801 255.81 83.1392C256.274 82.7936 256.79 82.5734 257.358 82.4787L257.358 82.3793C256.61 82.2135 256.004 81.8324 255.54 81.2358C255.081 80.6345 254.854 79.9408 254.858 79.1548C254.854 78.4067 255.062 77.7391 255.483 77.152C255.905 76.5649 256.483 76.1032 257.216 75.767C257.95 75.4261 258.788 75.2557 259.731 75.2557C260.663 75.2557 261.494 75.4261 262.224 75.767C262.957 76.1032 263.535 76.5649 263.956 77.152C264.383 77.7391 264.596 78.4067 264.596 79.1548C264.596 79.9408 264.361 80.6345 263.893 81.2358C263.429 81.8324 262.83 82.2135 262.096 82.3793L262.096 82.4787C262.664 82.5734 263.175 82.7936 263.63 83.1392C264.089 83.4801 264.454 83.9063 264.724 84.4176C264.998 84.929 265.135 85.4901 265.135 86.1009C265.135 86.8868 264.903 87.59 264.439 88.2102C263.975 88.8258 263.336 89.3111 262.522 89.6662C261.712 90.0213 260.782 90.1989 259.731 90.1989ZM259.731 88.1676C260.275 88.1676 260.749 88.0753 261.151 87.8906C261.554 87.7012 261.866 87.4361 262.089 87.0952C262.311 86.7543 262.425 86.3613 262.43 85.9162C262.425 85.4522 262.304 85.0426 262.067 84.6875C261.835 84.3277 261.516 84.0459 261.108 83.8423C260.706 83.6387 260.247 83.5369 259.731 83.5369C259.21 83.5369 258.746 83.6387 258.339 83.8423C257.931 84.0459 257.609 84.3277 257.373 84.6875C257.141 85.0426 257.027 85.4522 257.032 85.9162C257.027 86.3613 257.136 86.7543 257.358 87.0952C257.581 87.4313 257.894 87.6941 258.296 87.8835C258.703 88.0729 259.181 88.1676 259.731 88.1676ZM259.731 81.5412C260.176 81.5412 260.569 81.4512 260.91 81.2713C261.255 81.0914 261.528 80.8404 261.726 80.5185C261.925 80.1965 262.027 79.8248 262.032 79.4034C262.027 78.9867 261.928 78.6222 261.733 78.3097C261.539 77.9924 261.269 77.7486 260.924 77.5781C260.578 77.4029 260.18 77.3153 259.731 77.3153C259.271 77.3153 258.867 77.4029 258.516 77.5781C258.171 77.7486 257.901 77.9924 257.706 78.3097C257.517 78.6222 257.425 78.9867 257.43 79.4034C257.425 79.8248 257.519 80.1965 257.714 80.5185C257.912 80.8357 258.185 81.0866 258.53 81.2713C258.881 81.4512 259.281 81.5412 259.731 81.5412ZM274.847 87.2727L274.847 86.5057C274.847 85.9422 274.966 85.4238 275.202 84.9503C275.444 84.4768 275.794 84.0956 276.254 83.8068C276.713 83.518 277.269 83.3736 277.923 83.3736C278.595 83.3736 279.158 83.518 279.613 83.8068C280.068 84.0909 280.411 84.4697 280.643 84.9432C280.88 85.4167 280.998 85.9375 280.998 86.5057L280.998 87.2727C280.998 87.8362 280.88 88.3546 280.643 88.8281C280.406 89.3016 280.058 89.6828 279.599 89.9716C279.144 90.2604 278.585 90.4048 277.923 90.4048C277.26 90.4048 276.699 90.2604 276.239 89.9716C275.78 89.6828 275.432 89.3016 275.195 88.8281C274.963 88.3546 274.847 87.8362 274.847 87.2727ZM276.701 86.5057L276.701 87.2727C276.701 87.6468 276.791 87.9901 276.971 88.3026C277.151 88.6151 277.468 88.7713 277.923 88.7713C278.382 88.7713 278.697 88.6174 278.867 88.3097C279.042 87.9972 279.13 87.6515 279.13 87.2727L279.13 86.5057C279.13 86.1269 279.047 85.7813 278.881 85.4688C278.716 85.1515 278.396 84.9929 277.923 84.9929C277.478 84.9929 277.163 85.1515 276.978 85.4688C276.793 85.7813 276.701 86.1269 276.701 86.5057ZM267.454 78.9489L267.454 78.1818C267.454 77.6136 267.575 77.0928 267.816 76.6193C268.058 76.1458 268.408 75.767 268.867 75.483C269.327 75.1941 269.883 75.0497 270.536 75.0497C271.204 75.0497 271.765 75.1941 272.219 75.483C272.679 75.767 273.024 76.1458 273.256 76.6193C273.488 77.0928 273.604 77.6136 273.604 78.1818L273.604 78.9489C273.604 79.517 273.486 80.0379 273.249 80.5114C273.017 80.9801 272.672 81.3565 272.212 81.6406C271.753 81.9247 271.194 82.0668 270.536 82.0668C269.869 82.0668 269.305 81.9247 268.846 81.6406C268.391 81.3565 268.046 80.9777 267.809 80.5043C267.572 80.0308 267.454 79.5123 267.454 78.9489ZM269.322 78.1818L269.322 78.9489C269.322 79.3277 269.409 79.6733 269.585 79.9858C269.764 80.2936 270.082 80.4474 270.536 80.4474C270.991 80.4474 271.303 80.2936 271.474 79.9858C271.649 79.6733 271.737 79.3277 271.737 78.9489L271.737 78.1818C271.737 77.803 271.654 77.4574 271.488 77.1449C271.322 76.8277 271.005 76.669 270.536 76.669C270.086 76.669 269.772 76.8277 269.592 77.1449C269.412 77.4621 269.322 77.8078 269.322 78.1818ZM268.264 90L278.264 75.4545L280.039 75.4545L270.039 90L268.264 90Z" fill="white"/>
<path d="M132.716 271L132.716 269.097L137.766 264.146C138.249 263.659 138.651 263.225 138.973 262.847C139.295 262.468 139.537 262.101 139.698 261.746C139.859 261.391 139.939 261.012 139.939 260.609C139.939 260.15 139.835 259.757 139.627 259.43C139.418 259.099 139.132 258.843 138.767 258.663C138.403 258.483 137.988 258.393 137.524 258.393C137.046 258.393 136.627 258.493 136.267 258.692C135.907 258.886 135.628 259.163 135.429 259.523C135.235 259.883 135.138 260.311 135.138 260.808L132.631 260.808C132.631 259.885 132.842 259.082 133.263 258.401C133.684 257.719 134.264 257.191 135.003 256.817C135.746 256.443 136.599 256.256 137.56 256.256C138.535 256.256 139.392 256.438 140.131 256.803C140.869 257.167 141.442 257.667 141.85 258.301C142.262 258.936 142.467 259.66 142.467 260.474C142.467 261.019 142.363 261.554 142.155 262.08C141.947 262.605 141.58 263.187 141.054 263.827C140.533 264.466 139.802 265.24 138.86 266.149L136.352 268.699L136.352 268.798L142.688 268.798L142.688 271L132.716 271ZM149.795 271.199C148.848 271.199 148 271.021 147.252 270.666C146.504 270.306 145.91 269.814 145.469 269.189C145.034 268.564 144.802 267.849 144.773 267.044L147.33 267.044C147.378 267.641 147.636 268.128 148.104 268.507C148.573 268.881 149.137 269.068 149.795 269.068C150.311 269.068 150.77 268.95 151.173 268.713C151.575 268.476 151.892 268.147 152.124 267.726C152.356 267.304 152.47 266.824 152.465 266.284C152.47 265.735 152.354 265.247 152.117 264.821C151.88 264.395 151.556 264.061 151.144 263.82C150.732 263.573 150.259 263.45 149.724 263.45C149.288 263.446 148.86 263.526 148.438 263.692C148.017 263.857 147.683 264.075 147.437 264.345L145.058 263.955L145.817 256.455L154.255 256.455L154.255 258.656L147.998 258.656L147.579 262.513L147.664 262.513C147.934 262.196 148.315 261.933 148.808 261.724C149.3 261.511 149.84 261.405 150.427 261.405C151.308 261.405 152.094 261.613 152.785 262.03C153.476 262.442 154.021 263.01 154.418 263.734C154.816 264.459 155.015 265.287 155.015 266.22C155.015 267.181 154.792 268.038 154.347 268.791C153.907 269.539 153.294 270.129 152.508 270.56C151.727 270.986 150.822 271.199 149.795 271.199ZM164.771 268.273L164.771 267.506C164.771 266.942 164.89 266.424 165.126 265.95C165.368 265.477 165.718 265.096 166.177 264.807C166.637 264.518 167.193 264.374 167.846 264.374C168.519 264.374 169.082 264.518 169.537 264.807C169.991 265.091 170.335 265.47 170.567 265.943C170.803 266.417 170.922 266.938 170.922 267.506L170.922 268.273C170.922 268.836 170.803 269.355 170.567 269.828C170.33 270.302 169.982 270.683 169.523 270.972C169.068 271.26 168.509 271.405 167.846 271.405C167.184 271.405 166.622 271.26 166.163 270.972C165.704 270.683 165.356 270.302 165.119 269.828C164.887 269.355 164.771 268.836 164.771 268.273ZM166.625 267.506L166.625 268.273C166.625 268.647 166.715 268.99 166.895 269.303C167.075 269.615 167.392 269.771 167.846 269.771C168.306 269.771 168.621 269.617 168.791 269.31C168.966 268.997 169.054 268.652 169.054 268.273L169.054 267.506C169.054 267.127 168.971 266.781 168.805 266.469C168.64 266.152 168.32 265.993 167.846 265.993C167.401 265.993 167.087 266.152 166.902 266.469C166.717 266.781 166.625 267.127 166.625 267.506ZM157.378 259.949L157.378 259.182C157.378 258.614 157.498 258.093 157.74 257.619C157.981 257.146 158.332 256.767 158.791 256.483C159.25 256.194 159.807 256.05 160.46 256.05C161.128 256.05 161.689 256.194 162.143 256.483C162.603 256.767 162.948 257.146 163.18 257.619C163.412 258.093 163.528 258.614 163.528 259.182L163.528 259.949C163.528 260.517 163.41 261.038 163.173 261.511C162.941 261.98 162.596 262.357 162.136 262.641C161.677 262.925 161.118 263.067 160.46 263.067C159.792 263.067 159.229 262.925 158.77 262.641C158.315 262.357 157.97 261.978 157.733 261.504C157.496 261.031 157.378 260.512 157.378 259.949ZM159.246 259.182L159.246 259.949C159.246 260.328 159.333 260.673 159.508 260.986C159.688 261.294 160.006 261.447 160.46 261.447C160.915 261.447 161.227 261.294 161.398 260.986C161.573 260.673 161.66 260.328 161.66 259.949L161.66 259.182C161.66 258.803 161.578 258.457 161.412 258.145C161.246 257.828 160.929 257.669 160.46 257.669C160.01 257.669 159.695 257.828 159.515 258.145C159.336 258.462 159.246 258.808 159.246 259.182ZM158.187 271L168.187 256.455L169.963 256.455L159.963 271L158.187 271Z" fill="white"/>
<path d="M30.675 146L30.675 144.097L35.7248 139.146C36.2077 138.659 36.6102 138.225 36.9321 137.847C37.2541 137.468 37.4956 137.101 37.6566 136.746C37.8176 136.391 37.898 136.012 37.898 135.609C37.898 135.15 37.7939 134.757 37.5855 134.43C37.3772 134.099 37.0908 133.843 36.7262 133.663C36.3616 133.483 35.9473 133.393 35.4833 133.393C35.0051 133.393 34.586 133.493 34.2262 133.692C33.8663 133.886 33.587 134.163 33.3881 134.523C33.194 134.883 33.0969 135.311 33.0969 135.808L30.5898 135.808C30.5898 134.885 30.8005 134.082 31.2219 133.401C31.6433 132.719 32.2233 132.191 32.962 131.817C33.7053 131.443 34.5576 131.256 35.5188 131.256C36.4942 131.256 37.3512 131.438 38.0898 131.803C38.8284 132.167 39.4014 132.667 39.8086 133.301C40.2205 133.936 40.4265 134.66 40.4265 135.474C40.4265 136.019 40.3223 136.554 40.114 137.08C39.9056 137.605 39.5387 138.187 39.0131 138.827C38.4923 139.466 37.7607 140.24 36.8185 141.149L34.3114 143.699L34.3114 143.798L40.6466 143.798L40.6466 146L30.675 146ZM43.2296 146L49.4157 133.756L49.4157 133.656L42.2353 133.656L42.2353 131.455L52.1429 131.455L52.1429 133.706L45.964 146L43.2296 146ZM61.8122 143.273L61.8122 142.506C61.8122 141.942 61.9306 141.424 62.1673 140.95C62.4088 140.477 62.7592 140.096 63.2184 139.807C63.6777 139.518 64.2341 139.374 64.8875 139.374C65.5598 139.374 66.1233 139.518 66.5778 139.807C67.0324 140.091 67.3756 140.47 67.6076 140.943C67.8444 141.417 67.9627 141.938 67.9627 142.506L67.9627 143.273C67.9627 143.836 67.8444 144.355 67.6076 144.828C67.3709 145.302 67.0229 145.683 66.5636 145.972C66.1091 146.26 65.5503 146.405 64.8875 146.405C64.2246 146.405 63.6635 146.26 63.2042 145.972C62.7449 145.683 62.3969 145.302 62.1602 144.828C61.9282 144.355 61.8122 143.836 61.8122 143.273ZM63.6659 142.506L63.6659 143.273C63.6659 143.647 63.7558 143.99 63.9358 144.303C64.1157 144.615 64.4329 144.771 64.8875 144.771C65.3467 144.771 65.6616 144.617 65.8321 144.31C66.0073 143.997 66.0949 143.652 66.0949 143.273L66.0949 142.506C66.0949 142.127 66.012 141.781 65.8463 141.469C65.6806 141.152 65.3609 140.993 64.8875 140.993C64.4424 140.993 64.1275 141.152 63.9429 141.469C63.7582 141.781 63.6659 142.127 63.6659 142.506ZM54.4187 134.949L54.4187 134.182C54.4187 133.614 54.5395 133.093 54.7809 132.619C55.0224 132.146 55.3728 131.767 55.8321 131.483C56.2913 131.194 56.8477 131.05 57.5011 131.05C58.1687 131.05 58.7298 131.194 59.1843 131.483C59.6436 131.767 59.9893 132.146 60.2213 132.619C60.4533 133.093 60.5693 133.614 60.5693 134.182L60.5693 134.949C60.5693 135.517 60.4509 136.038 60.2142 136.511C59.9822 136.98 59.6365 137.357 59.1772 137.641C58.718 137.925 58.1592 138.067 57.5011 138.067C56.8335 138.067 56.27 137.925 55.8108 137.641C55.3562 137.357 55.0106 136.978 54.7738 136.504C54.5371 136.031 54.4187 135.512 54.4187 134.949ZM56.2866 134.182L56.2866 134.949C56.2866 135.328 56.3742 135.673 56.5494 135.986C56.7293 136.294 57.0466 136.447 57.5011 136.447C57.9556 136.447 58.2681 136.294 58.4386 135.986C58.6138 135.673 58.7014 135.328 58.7014 134.949L58.7014 134.182C58.7014 133.803 58.6185 133.457 58.4528 133.145C58.2871 132.828 57.9699 132.669 57.5011 132.669C57.0513 132.669 56.7364 132.828 56.5565 133.145C56.3766 133.462 56.2866 133.808 56.2866 134.182ZM55.2284 146L65.2284 131.455L67.0039 131.455L57.0039 146L55.2284 146Z" fill="white"/>
</g>
<defs>
<clipPath id="clip0_10116_12715">
<rect width="300" height="300" fill="white" transform="translate(14)"/>
</clipPath>
</defs>
</svg>
