<svg width="300" height="300" viewBox="0 0 300 300" fill="none" xmlns="http://www.w3.org/2000/svg">
<g clip-path="url(#clip0_9321_9945)">
<path d="M81.2038 283.293C62.0933 273.43 45.3272 259.572 32.0423 242.661C18.7574 225.749 9.26435 206.178 4.20685 185.275C-0.850651 164.373 -1.35435 142.627 2.72992 121.513C6.81419 100.398 15.3909 80.4091 27.8785 62.9004L81.612 101.224C74.6189 111.029 69.8159 122.223 67.5288 134.047C65.2416 145.871 65.5236 158.049 68.3558 169.754C71.188 181.46 76.5041 192.419 83.9437 201.89C91.3832 211.361 100.772 219.121 111.474 224.644L81.2038 283.293Z" fill="#30D04D"/>
<path d="M27.1272 63.9635C48.8236 32.9778 81.4258 11.3334 118.404 3.36552C155.382 -4.60235 194.004 1.69472 226.536 20.9954C259.068 40.2962 283.107 71.1753 293.838 107.448C304.568 143.721 301.199 182.708 284.403 216.601L225.266 187.297C234.671 168.317 236.558 146.483 230.549 126.171C224.54 105.858 211.078 88.5659 192.86 77.7574C174.642 66.949 153.014 63.4227 132.306 67.8847C111.598 72.3467 93.3412 84.4676 81.1912 101.82L27.1272 63.9635Z" fill="#0029FF"/>
<path d="M284.622 216.159C275.829 234.051 263.557 250.011 248.525 263.106C233.492 276.2 216 286.167 197.071 292.423C178.141 298.679 158.155 301.099 138.28 299.541C118.405 297.984 99.0392 292.48 81.3158 283.351L111.537 224.677C121.462 229.789 132.307 232.871 143.437 233.743C154.567 234.616 165.759 233.26 176.36 229.757C186.96 226.254 196.756 220.672 205.174 213.339C213.592 206.006 220.464 197.069 225.388 187.049L284.622 216.159Z" fill="#F78E1F"/>
<path d="M202.511 68.3011L202.511 66.206L208.683 56.4545L210.431 56.4545L210.431 59.4375L209.365 59.4375L205.21 66.0213L205.21 66.1349L213.825 66.1349L213.825 68.3011L202.511 68.3011ZM209.45 71L209.45 67.6619L209.479 66.7244L209.479 56.4545L211.965 56.4545L211.965 71L209.45 71ZM216.227 71L222.413 58.7557L222.413 58.6563L215.233 58.6563L215.233 56.4545L225.141 56.4545L225.141 58.706L218.962 71L216.227 71ZM226.145 71.1563C225.714 71.1563 225.345 71.0047 225.037 70.7017C224.729 70.3987 224.578 70.0294 224.583 69.5938C224.578 69.1676 224.729 68.803 225.037 68.5C225.345 68.197 225.714 68.0455 226.145 68.0455C226.562 68.0455 226.924 68.197 227.232 68.5C227.544 68.803 227.703 69.1676 227.708 69.5938C227.703 69.8826 227.627 70.1454 227.48 70.3821C227.338 70.6188 227.149 70.8082 226.912 70.9503C226.68 71.0876 226.424 71.1563 226.145 71.1563ZM234.694 71.1989C233.998 71.1941 233.318 71.0734 232.656 70.8366C231.993 70.5952 231.396 70.2045 230.866 69.6648C230.335 69.1203 229.914 68.3982 229.602 67.4986C229.289 66.5942 229.135 65.4744 229.14 64.1392C229.14 62.8939 229.273 61.7836 229.538 60.8082C229.803 59.8329 230.184 59.009 230.681 58.3366C231.178 57.6596 231.777 57.1435 232.478 56.7884C233.184 56.4332 233.972 56.2557 234.843 56.2557C235.757 56.2557 236.567 56.4356 237.272 56.7955C237.982 57.1553 238.555 57.6477 238.991 58.2727C239.426 58.893 239.696 59.5938 239.8 60.375L237.208 60.375C237.076 59.8163 236.803 59.3712 236.391 59.0398C235.984 58.7036 235.468 58.5355 234.843 58.5355C233.835 58.5355 233.058 58.9735 232.514 59.8494C231.974 60.7254 231.702 61.928 231.697 63.4574L231.796 63.4574C232.028 63.0407 232.329 62.6832 232.698 62.3849C233.068 62.0866 233.484 61.857 233.948 61.696C234.417 61.5303 234.912 61.4474 235.433 61.4474C236.285 61.4474 237.05 61.651 237.727 62.0582C238.408 62.4654 238.948 63.0265 239.346 63.7415C239.744 64.4517 239.94 65.2661 239.935 66.1847C239.94 67.1411 239.722 68.0005 239.282 68.7628C238.842 69.5204 238.228 70.117 237.443 70.5526C236.657 70.9882 235.74 71.2036 234.694 71.1989ZM234.68 69.0682C235.196 69.0682 235.657 68.9427 236.065 68.6918C236.472 68.4408 236.794 68.1023 237.031 67.6761C237.267 67.25 237.383 66.7718 237.379 66.2415C237.383 65.7206 237.27 65.2495 237.038 64.8281C236.81 64.4067 236.496 64.0729 236.093 63.8267C235.691 63.5805 235.231 63.4574 234.715 63.4574C234.332 63.4574 233.974 63.5308 233.643 63.6776C233.311 63.8243 233.023 64.0279 232.776 64.2884C232.53 64.544 232.336 64.8423 232.194 65.1832C232.057 65.5194 231.986 65.8793 231.981 66.2628C231.986 66.7694 232.104 67.2358 232.336 67.6619C232.568 68.0881 232.888 68.429 233.295 68.6847C233.702 68.9403 234.164 69.0682 234.68 69.0682ZM249.713 68.2727L249.713 67.5057C249.713 66.9422 249.831 66.4238 250.068 65.9503C250.31 65.4768 250.66 65.0956 251.119 64.8068C251.578 64.518 252.135 64.3736 252.788 64.3736C253.461 64.3736 254.024 64.518 254.479 64.8068C254.933 65.0909 255.276 65.4697 255.508 65.9432C255.745 66.4167 255.864 66.9375 255.864 67.5057L255.864 68.2727C255.864 68.8362 255.745 69.3546 255.508 69.8281C255.272 70.3016 254.924 70.6828 254.464 70.9716C254.01 71.2604 253.451 71.4048 252.788 71.4048C252.125 71.4048 251.564 71.2604 251.105 70.9716C250.646 70.6828 250.298 70.3016 250.061 69.8281C249.829 69.3546 249.713 68.8362 249.713 68.2727ZM251.567 67.5057L251.567 68.2727C251.567 68.6468 251.657 68.9901 251.837 69.3026C252.016 69.6151 252.334 69.7713 252.788 69.7713C253.248 69.7713 253.562 69.6174 253.733 69.3097C253.908 68.9972 253.996 68.6515 253.996 68.2727L253.996 67.5057C253.996 67.1269 253.913 66.7813 253.747 66.4688C253.581 66.1515 253.262 65.9929 252.788 65.9929C252.343 65.9929 252.028 66.1515 251.844 66.4688C251.659 66.7813 251.567 67.1269 251.567 67.5057ZM242.319 59.9489L242.319 59.1818C242.319 58.6136 242.44 58.0928 242.682 57.6193C242.923 57.1458 243.274 56.767 243.733 56.483C244.192 56.1941 244.748 56.0497 245.402 56.0497C246.069 56.0497 246.631 56.1941 247.085 56.483C247.544 56.767 247.89 57.1458 248.122 57.6193C248.354 58.0928 248.47 58.6136 248.47 59.1818L248.47 59.9489C248.47 60.517 248.352 61.0379 248.115 61.5114C247.883 61.9801 247.537 62.3565 247.078 62.6406C246.619 62.9247 246.06 63.0668 245.402 63.0668C244.734 63.0668 244.171 62.9247 243.712 62.6406C243.257 62.3565 242.911 61.9777 242.675 61.5043C242.438 61.0308 242.319 60.5123 242.319 59.9489ZM244.187 59.1818L244.187 59.9489C244.187 60.3277 244.275 60.6733 244.45 60.9858C244.63 61.2936 244.947 61.4474 245.402 61.4474C245.856 61.4474 246.169 61.2936 246.339 60.9858C246.515 60.6733 246.602 60.3277 246.602 59.9489L246.602 59.1818C246.602 58.803 246.519 58.4574 246.354 58.1449C246.188 57.8277 245.871 57.669 245.402 57.669C244.952 57.669 244.637 57.8277 244.457 58.1449C244.277 58.4621 244.187 58.8078 244.187 59.1818ZM243.129 71L253.129 56.4545L254.905 56.4545L244.905 71L243.129 71Z" fill="white"/>
<path d="M165.69 263L165.69 261.097L170.74 256.146C171.223 255.659 171.625 255.225 171.947 254.847C172.269 254.468 172.511 254.101 172.672 253.746C172.833 253.391 172.913 253.012 172.913 252.609C172.913 252.15 172.809 251.757 172.601 251.43C172.392 251.099 172.106 250.843 171.741 250.663C171.377 250.483 170.963 250.393 170.499 250.393C170.02 250.393 169.601 250.493 169.241 250.692C168.882 250.886 168.602 251.163 168.403 251.523C168.209 251.883 168.112 252.311 168.112 252.808L165.605 252.808C165.605 251.885 165.816 251.082 166.237 250.401C166.659 249.719 167.239 249.191 167.977 248.817C168.721 248.443 169.573 248.256 170.534 248.256C171.509 248.256 172.366 248.438 173.105 248.803C173.844 249.167 174.417 249.667 174.824 250.301C175.236 250.936 175.442 251.66 175.442 252.474C175.442 253.019 175.338 253.554 175.129 254.08C174.921 254.605 174.554 255.187 174.028 255.827C173.508 256.466 172.776 257.24 171.834 258.149L169.327 260.699L169.327 260.798L175.662 260.798L175.662 263L165.69 263ZM182.769 263.199C181.822 263.199 180.974 263.021 180.226 262.666C179.478 262.306 178.884 261.814 178.444 261.189C178.008 260.564 177.776 259.849 177.748 259.044L180.304 259.044C180.352 259.641 180.61 260.128 181.079 260.507C181.547 260.881 182.111 261.068 182.769 261.068C183.285 261.068 183.744 260.95 184.147 260.713C184.549 260.476 184.867 260.147 185.099 259.726C185.331 259.304 185.444 258.824 185.439 258.284C185.444 257.735 185.328 257.247 185.091 256.821C184.855 256.395 184.53 256.061 184.118 255.82C183.706 255.573 183.233 255.45 182.698 255.45C182.262 255.446 181.834 255.526 181.412 255.692C180.991 255.857 180.657 256.075 180.411 256.345L178.032 255.955L178.792 248.455L187.229 248.455L187.229 250.656L180.972 250.656L180.553 254.513L180.638 254.513C180.908 254.196 181.289 253.933 181.782 253.724C182.274 253.511 182.814 253.405 183.401 253.405C184.282 253.405 185.068 253.613 185.759 254.03C186.45 254.442 186.995 255.01 187.393 255.734C187.79 256.459 187.989 257.287 187.989 258.22C187.989 259.181 187.767 260.038 187.322 260.791C186.881 261.539 186.268 262.129 185.482 262.56C184.701 262.986 183.796 263.199 182.769 263.199ZM191.092 263.156C190.661 263.156 190.292 263.005 189.984 262.702C189.677 262.399 189.525 262.029 189.53 261.594C189.525 261.168 189.677 260.803 189.984 260.5C190.292 260.197 190.661 260.045 191.092 260.045C191.509 260.045 191.871 260.197 192.179 260.5C192.491 260.803 192.65 261.168 192.655 261.594C192.65 261.883 192.574 262.145 192.428 262.382C192.286 262.619 192.096 262.808 191.859 262.95C191.627 263.088 191.372 263.156 191.092 263.156ZM199.613 263.199C198.59 263.199 197.681 263.024 196.886 262.673C196.095 262.323 195.47 261.835 195.011 261.21C194.551 260.585 194.307 259.863 194.279 259.044L196.949 259.044C196.973 259.437 197.103 259.78 197.34 260.074C197.577 260.363 197.892 260.588 198.285 260.749C198.678 260.91 199.118 260.99 199.606 260.99C200.127 260.99 200.588 260.9 200.991 260.72C201.393 260.536 201.708 260.28 201.935 259.953C202.162 259.626 202.274 259.25 202.269 258.824C202.274 258.384 202.16 257.995 201.928 257.659C201.696 257.323 201.36 257.06 200.92 256.871C200.484 256.681 199.958 256.587 199.343 256.587L198.057 256.587L198.057 254.555L199.343 254.555C199.85 254.555 200.292 254.468 200.671 254.293C201.055 254.117 201.355 253.871 201.573 253.554C201.791 253.232 201.897 252.86 201.893 252.439C201.897 252.027 201.805 251.67 201.616 251.366C201.431 251.059 201.168 250.82 200.827 250.649C200.491 250.479 200.096 250.393 199.641 250.393C199.196 250.393 198.784 250.474 198.405 250.635C198.027 250.796 197.721 251.026 197.489 251.324C197.257 251.617 197.134 251.968 197.12 252.375L194.584 252.375C194.603 251.561 194.838 250.846 195.287 250.23C195.742 249.61 196.348 249.127 197.106 248.781C197.863 248.431 198.713 248.256 199.655 248.256C200.626 248.256 201.469 248.438 202.184 248.803C202.904 249.162 203.46 249.648 203.853 250.259C204.246 250.869 204.442 251.544 204.442 252.283C204.447 253.102 204.206 253.788 203.718 254.342C203.235 254.896 202.6 255.259 201.814 255.429L201.814 255.543C202.837 255.685 203.621 256.063 204.165 256.679C204.715 257.29 204.987 258.05 204.982 258.959C204.982 259.773 204.75 260.502 204.286 261.146C203.827 261.786 203.192 262.287 202.383 262.652C201.578 263.017 200.654 263.199 199.613 263.199ZM214.797 260.273L214.797 259.506C214.797 258.942 214.915 258.424 215.152 257.95C215.394 257.477 215.744 257.096 216.203 256.807C216.662 256.518 217.219 256.374 217.872 256.374C218.545 256.374 219.108 256.518 219.563 256.807C220.017 257.091 220.36 257.47 220.592 257.943C220.829 258.417 220.948 258.938 220.948 259.506L220.948 260.273C220.948 260.836 220.829 261.355 220.592 261.828C220.356 262.302 220.008 262.683 219.548 262.972C219.094 263.26 218.535 263.405 217.872 263.405C217.209 263.405 216.648 263.26 216.189 262.972C215.73 262.683 215.382 262.302 215.145 261.828C214.913 261.355 214.797 260.836 214.797 260.273ZM216.651 259.506L216.651 260.273C216.651 260.647 216.741 260.99 216.921 261.303C217.1 261.615 217.418 261.771 217.872 261.771C218.332 261.771 218.646 261.617 218.817 261.31C218.992 260.997 219.08 260.652 219.08 260.273L219.08 259.506C219.08 259.127 218.997 258.781 218.831 258.469C218.665 258.152 218.346 257.993 217.872 257.993C217.427 257.993 217.112 258.152 216.928 258.469C216.743 258.781 216.651 259.127 216.651 259.506ZM207.403 251.949L207.403 251.182C207.403 250.614 207.524 250.093 207.766 249.619C208.007 249.146 208.358 248.767 208.817 248.483C209.276 248.194 209.832 248.05 210.486 248.05C211.153 248.05 211.715 248.194 212.169 248.483C212.628 248.767 212.974 249.146 213.206 249.619C213.438 250.093 213.554 250.614 213.554 251.182L213.554 251.949C213.554 252.517 213.436 253.038 213.199 253.511C212.967 253.98 212.621 254.357 212.162 254.641C211.703 254.925 211.144 255.067 210.486 255.067C209.818 255.067 209.255 254.925 208.796 254.641C208.341 254.357 207.995 253.978 207.759 253.504C207.522 253.031 207.403 252.512 207.403 251.949ZM209.271 251.182L209.271 251.949C209.271 252.328 209.359 252.673 209.534 252.986C209.714 253.294 210.031 253.447 210.486 253.447C210.94 253.447 211.253 253.294 211.423 252.986C211.599 252.673 211.686 252.328 211.686 251.949L211.686 251.182C211.686 250.803 211.603 250.457 211.438 250.145C211.272 249.828 210.955 249.669 210.486 249.669C210.036 249.669 209.721 249.828 209.541 250.145C209.361 250.462 209.271 250.808 209.271 251.182ZM208.213 263L218.213 248.455L219.989 248.455L209.989 263L208.213 263Z" fill="white"/>
<path d="M13.5184 179L13.5184 177.097L18.5681 172.146C19.0511 171.659 19.4535 171.225 19.7755 170.847C20.0975 170.468 20.3389 170.101 20.4999 169.746C20.6609 169.391 20.7414 169.012 20.7414 168.609C20.7414 168.15 20.6372 167.757 20.4289 167.43C20.2206 167.099 19.9341 166.843 19.5695 166.663C19.2049 166.483 18.7906 166.393 18.3266 166.393C17.8484 166.393 17.4294 166.493 17.0695 166.692C16.7097 166.886 16.4303 167.163 16.2315 167.523C16.0373 167.883 15.9403 168.311 15.9403 168.808L13.4332 168.808C13.4332 167.885 13.6439 167.082 14.0653 166.401C14.4867 165.719 15.0667 165.191 15.8053 164.817C16.5487 164.443 17.401 164.256 18.3621 164.256C19.3375 164.256 20.1945 164.438 20.9332 164.803C21.6718 165.167 22.2447 165.667 22.6519 166.301C23.0638 166.936 23.2698 167.66 23.2698 168.474C23.2698 169.019 23.1656 169.554 22.9573 170.08C22.749 170.605 22.382 171.187 21.8565 171.827C21.3356 172.466 20.6041 173.24 19.6619 174.149L17.1548 176.699L17.1548 176.798L23.49 176.798L23.49 179L13.5184 179ZM26.0729 179L32.259 166.756L32.259 166.656L25.0786 166.656L25.0786 164.455L34.9863 164.455L34.9863 166.706L28.8073 179L26.0729 179ZM35.9908 179.156C35.5599 179.156 35.1906 179.005 34.8828 178.702C34.575 178.399 34.4235 178.029 34.4283 177.594C34.4235 177.168 34.575 176.803 34.8828 176.5C35.1906 176.197 35.5599 176.045 35.9908 176.045C36.4074 176.045 36.7696 176.197 37.0774 176.5C37.3899 176.803 37.5485 177.168 37.5533 177.594C37.5485 177.883 37.4728 178.145 37.326 178.382C37.1839 178.619 36.9946 178.808 36.7578 178.95C36.5258 179.088 36.2701 179.156 35.9908 179.156ZM43.8986 164.455L43.8986 179L41.2637 179L41.2637 167.018L41.1785 167.018L37.7765 169.192L37.7765 166.777L41.3915 164.455L43.8986 164.455ZM54.9688 176.273L54.9688 175.506C54.9688 174.942 55.0872 174.424 55.3239 173.95C55.5654 173.477 55.9158 173.096 56.3751 172.807C56.8344 172.518 57.3907 172.374 58.0441 172.374C58.7165 172.374 59.2799 172.518 59.7344 172.807C60.189 173.091 60.5323 173.47 60.7643 173.943C61.001 174.417 61.1194 174.938 61.1194 175.506L61.1194 176.273C61.1194 176.836 61.001 177.355 60.7643 177.828C60.5275 178.302 60.1795 178.683 59.7202 178.972C59.2657 179.26 58.707 179.405 58.0441 179.405C57.3812 179.405 56.8201 179.26 56.3609 178.972C55.9016 178.683 55.5536 178.302 55.3168 177.828C55.0848 177.355 54.9688 176.836 54.9688 176.273ZM56.8225 175.506L56.8225 176.273C56.8225 176.647 56.9125 176.99 57.0924 177.303C57.2723 177.615 57.5896 177.771 58.0441 177.771C58.5034 177.771 58.8183 177.617 58.9887 177.31C59.1639 176.997 59.2515 176.652 59.2515 176.273L59.2515 175.506C59.2515 175.127 59.1686 174.781 59.0029 174.469C58.8372 174.152 58.5176 173.993 58.0441 173.993C57.599 173.993 57.2842 174.152 57.0995 174.469C56.9148 174.781 56.8225 175.127 56.8225 175.506ZM47.5754 167.949L47.5754 167.182C47.5754 166.614 47.6961 166.093 47.9376 165.619C48.179 165.146 48.5294 164.767 48.9887 164.483C49.448 164.194 50.0043 164.05 50.6577 164.05C51.3254 164.05 51.8864 164.194 52.341 164.483C52.8003 164.767 53.1459 165.146 53.3779 165.619C53.6099 166.093 53.7259 166.614 53.7259 167.182L53.7259 167.949C53.7259 168.517 53.6076 169.038 53.3708 169.511C53.1388 169.98 52.7932 170.357 52.3339 170.641C51.8746 170.925 51.3159 171.067 50.6577 171.067C49.9901 171.067 49.4267 170.925 48.9674 170.641C48.5129 170.357 48.1672 169.978 47.9305 169.504C47.6937 169.031 47.5754 168.512 47.5754 167.949ZM49.4433 167.182L49.4433 167.949C49.4433 168.328 49.5308 168.673 49.706 168.986C49.886 169.294 50.2032 169.447 50.6577 169.447C51.1123 169.447 51.4248 169.294 51.5952 168.986C51.7704 168.673 51.858 168.328 51.858 167.949L51.858 167.182C51.858 166.803 51.7752 166.457 51.6094 166.145C51.4437 165.828 51.1265 165.669 50.6577 165.669C50.2079 165.669 49.8931 165.828 49.7131 166.145C49.5332 166.462 49.4433 166.808 49.4433 167.182ZM48.385 179L58.385 164.455L60.1606 164.455L50.1606 179L48.385 179Z" fill="white"/>
</g>
<defs>
<clipPath id="clip0_9321_9945">
<rect width="300" height="300" fill="white"/>
</clipPath>
</defs>
</svg>
