<svg width="300" height="300" viewBox="0 0 300 300" fill="none" xmlns="http://www.w3.org/2000/svg">
<path d="M81.2038 283.293C62.0933 273.43 45.3272 259.572 32.0423 242.661C18.7574 225.749 9.26435 206.178 4.20685 185.275C-0.850651 164.373 -1.35435 142.627 2.72992 121.513C6.81419 100.398 15.3909 80.4091 27.8785 62.9004L81.612 101.224C74.6189 111.029 69.8159 122.223 67.5288 134.047C65.2416 145.871 65.5236 158.049 68.3558 169.754C71.188 181.46 76.5041 192.419 83.9437 201.89C91.3832 211.361 100.772 219.121 111.474 224.644L81.2038 283.293Z" fill="#30D04D"/>
<path d="M27.1272 63.9635C48.8236 32.9778 81.4258 11.3334 118.404 3.36552C155.382 -4.60235 194.004 1.69472 226.536 20.9954C259.068 40.2962 283.107 71.1753 293.838 107.448C304.568 143.721 301.199 182.708 284.403 216.601L225.266 187.297C234.671 168.317 236.558 146.483 230.549 126.171C224.54 105.858 211.078 88.5659 192.86 77.7574C174.642 66.949 153.014 63.4227 132.306 67.8847C111.598 72.3467 93.3412 84.4676 81.1912 101.82L27.1272 63.9635Z" fill="#0029FF"/>
<path d="M284.622 216.159C275.829 234.051 263.557 250.011 248.525 263.106C233.492 276.2 216 286.167 197.071 292.423C178.141 298.679 158.155 301.099 138.28 299.541C118.405 297.984 99.0392 292.48 81.3158 283.351L111.537 224.677C121.462 229.789 132.307 232.871 143.437 233.743C154.567 234.616 165.759 233.26 176.36 229.757C186.96 226.254 196.756 220.672 205.174 213.339C213.592 206.006 220.464 197.069 225.388 187.049L284.622 216.159Z" fill="#F78E1F"/>
</svg>
