<svg width="300" height="300" viewBox="-60 -80 300 300" fill="none" xmlns="http://www.w3.org/2000/svg">
<g clip-path="url(#clip0_7753_6754)">
<path d="M49.4399 10.254L56.6726 14.7069C47.1445 17.4762 38.6852 22.4227 31.7556 29.3527C16.4078 44.7001 10.9322 67.6315 16.8057 91.2301C6.6934 100.589 0.35156 113.966 0.35156 128.799C0.351561 157.031 23.3202 180 51.5524 180C79.7846 180 102.754 157.031 102.754 128.799C102.754 100.566 79.785 77.5976 51.5524 77.5976C42.2761 77.5976 33.5679 80.0779 26.0557 84.4095C22.6927 65.9816 27.3818 48.5564 39.1704 36.7671C45.0967 30.8408 52.4324 26.679 60.7468 24.4631L55.0287 33.7504L63.9584 39.2485L78.4107 15.7757L54.9376 1.32365L49.4399 10.254ZM46.1471 123.776L56.6339 123.776L56.6339 131.235L57.4759 131.235C59.3054 131.235 61.0625 131.55 62.697 132.127L62.6969 112.017L73.1837 112.017L73.1837 146.944L62.697 146.944C62.697 144.065 60.3548 141.722 57.4759 141.722L56.6339 141.722L56.6339 146.944L46.1471 146.944L46.1471 141.722L41.2745 141.722C32.613 141.722 25.5667 134.676 25.5667 126.014C25.5667 117.353 32.613 110.307 41.2745 110.307L41.2745 120.793C38.3955 120.793 36.0531 123.136 36.0531 126.015C36.0531 128.894 38.3955 131.236 41.2745 131.236L46.1471 131.236L46.1471 123.776Z" fill="url(#paint0_linear_7753_6754)"/>
<path d="M77.25 51.1999C77.25 79.4321 100.219 102.401 128.451 102.401C138.03 102.401 147 99.7549 154.675 95.1589C157.979 113.524 153.281 130.879 141.529 142.631C135.602 148.558 128.267 152.719 119.953 154.935L125.671 145.648L116.741 140.15L102.289 163.623L125.761 178.074L131.259 169.145L124.026 164.692C133.554 161.922 142.013 156.976 148.943 150.046C160.253 138.736 166.207 123.31 166.207 106.533C166.207 100.527 165.441 94.3468 163.887 88.1213C173.598 78.7975 179.652 65.693 179.652 51.2002C179.652 22.968 156.683 -0.000995293 128.45 -0.000994059C100.219 -0.000992825 77.25 22.9677 77.25 51.1999ZM123.212 52L123.212 50.3997C123.212 43.411 128.898 37.7255 135.886 37.7255C141.311 37.7255 145.95 41.1533 147.754 45.9563L155.087 45.9563L155.087 56.4431L147.754 56.4431C145.95 61.2461 141.311 64.6739 135.886 64.6739L135.886 54.1871C137.092 54.1871 138.073 53.2059 138.073 52L138.073 50.3997C138.073 49.1935 137.092 48.2123 135.886 48.2123C134.68 48.2123 133.699 49.1935 133.699 50.3997L133.699 52C133.699 58.9884 128.013 64.6739 121.025 64.6739C115.599 64.6739 110.961 61.2461 109.157 56.4431L101.814 56.4431L101.814 45.9563L109.157 45.9563C110.961 41.1533 115.599 37.7255 121.025 37.7255L121.025 48.2123C119.819 48.2123 118.838 49.1935 118.838 50.3997L118.838 52C118.838 53.2059 119.819 54.1871 121.025 54.1871C122.231 54.1875 123.212 53.2059 123.212 52Z" fill="url(#paint1_linear_7753_6754)"/>
<ellipse cx="51.3388" cy="129.864" rx="28.7919" ry="28.7919" transform="rotate(-90 51.3388 129.864)" fill="#4962B6"/>
<path d="M88.5926 128.139C88.5926 108.103 72.3667 91.8603 52.351 91.8603C32.3353 91.8603 16.1094 108.103 16.1094 128.139C16.1094 148.175 32.3353 164.418 52.351 164.418C72.3667 164.418 88.5926 148.175 88.5926 128.139Z" fill="url(#paint2_linear_7753_6754)"/>
<ellipse cx="128.456" cy="49.9305" rx="31.4094" ry="31.4094" transform="rotate(-90 128.456 49.9305)" fill="#4962B6"/>
<ellipse cx="128.456" cy="49.9305" rx="31.4094" ry="31.4094" transform="rotate(-90 128.456 49.9305)" fill="url(#paint3_linear_7753_6754)"/>
<path d="M68.2016 152.059C65.5331 153.415 60.9766 154.771 55.951 154.771C48.2511 154.771 41.1825 151.915 36.7838 146.631C34.6641 144.206 33.0931 141.136 32.3851 137.352H27.2812V132.281H31.6003C31.6003 131.923 31.6003 131.497 31.6003 131.068C31.6003 130.354 31.6799 129.639 31.6799 128.925H27.2812V123.858H32.5429C33.5637 120 35.4488 116.717 37.9624 114.075C42.4378 109.505 48.7216 106.793 56.1044 106.793C60.8955 106.793 65.0597 107.791 67.8874 108.934L65.6866 117.074C63.6436 116.289 60.425 115.36 56.9703 115.36C53.1985 115.36 49.741 116.503 47.307 119.215C46.2067 120.358 45.3437 122 44.7935 123.858H64.3516V128.925H43.6178C43.5382 129.639 43.5382 130.424 43.5382 131.139C43.5382 131.567 43.5382 131.853 43.5382 132.281H64.3531V137.351H44.6386C45.1873 139.492 46.0517 141.136 47.2289 142.348C49.7424 144.917 53.4345 145.988 57.3612 145.988C60.9766 145.988 64.6658 144.916 66.3164 144.131L68.2016 152.059Z" fill="white"/>
<path d="M149.542 52.6311C148.209 50.894 146.198 49.7009 143.508 49.0525C146.933 47.2917 148.439 44.3033 148.025 40.0867C147.887 38.5576 147.468 37.2325 146.767 36.1092C146.065 34.9857 145.118 34.0825 143.921 33.3993C142.726 32.7151 141.427 32.1943 140.025 31.8353C138.623 31.4763 137.014 31.2156 135.198 31.0536V22.2969H129.889V30.8103C128.969 30.8103 127.567 30.8334 125.683 30.8798V22.2969H120.373V31.0536C119.614 31.0768 118.499 31.0886 117.028 31.0886L109.719 31.0536V36.7525H113.546C115.293 36.7525 116.315 37.5403 116.614 39.1153V49.0884C116.844 49.0884 117.028 49.1003 117.166 49.1234H116.614V63.0918C116.431 64.273 115.764 64.8641 114.615 64.8641H110.788L109.719 71.2233H116.615C117.052 71.2233 117.683 71.2291 118.511 71.2396C119.339 71.2513 119.959 71.2571 120.373 71.2571V80.1179H125.684V71.3613C126.649 71.385 128.051 71.3964 129.89 71.3964V80.1179H135.199V71.2571C137.084 71.1646 138.757 70.9918 140.215 70.7361C141.675 70.4804 143.072 70.0814 144.405 69.5366C145.738 68.9926 146.852 68.3146 147.748 67.5037C148.645 66.6937 149.386 65.6623 149.973 64.4111C150.558 63.16 150.932 61.7121 151.093 60.067C151.393 56.8478 150.875 54.3688 149.542 52.6311ZM125.786 37.1337C125.947 37.1337 126.401 37.1278 127.148 37.1161C127.895 37.1042 128.516 37.0928 129.01 37.0811C129.504 37.0696 130.171 37.0986 131.01 37.1681C131.849 37.2376 132.556 37.3305 133.13 37.4461C133.705 37.5617 134.337 37.7529 135.026 38.0193C135.716 38.2855 136.268 38.61 136.681 38.9921C137.095 39.3743 137.445 39.861 137.732 40.4518C138.02 41.0424 138.164 41.72 138.164 42.4843C138.164 43.133 138.06 43.7239 137.854 44.257C137.648 44.7897 137.336 45.2358 136.923 45.5948C136.51 45.954 136.084 46.267 135.647 46.5332C135.211 46.7994 134.653 47.0138 133.975 47.1758C133.297 47.3381 132.705 47.4655 132.2 47.558C131.694 47.6507 131.062 47.7146 130.303 47.7492C129.545 47.7838 128.97 47.8074 128.579 47.8188C128.188 47.8303 127.654 47.8303 126.976 47.8188C126.297 47.8074 125.901 47.8013 125.786 47.8013L125.786 37.1337ZM140.285 60.7971C140.066 61.3302 139.785 61.7938 139.44 62.1879C139.095 62.581 138.641 62.9288 138.078 63.2296C137.515 63.5312 136.969 63.774 136.44 63.9593C135.912 64.1454 135.273 64.3067 134.527 64.4462C133.779 64.5853 133.124 64.6831 132.561 64.7414C131.998 64.7995 131.326 64.8456 130.544 64.8807C129.763 64.9148 129.153 64.9324 128.717 64.9324C128.28 64.9324 127.728 64.9261 127.061 64.9148C126.394 64.9039 125.97 64.8981 125.786 64.8981V53.1526C125.969 53.1526 126.515 53.1413 127.423 53.1177C128.332 53.0943 129.073 53.0835 129.647 53.0835C130.222 53.0835 131.015 53.1177 132.027 53.1876C133.038 53.2566 133.888 53.3605 134.578 53.4995C135.268 53.6387 136.02 53.8527 136.837 54.1426C137.652 54.432 138.314 54.7852 138.819 55.2022C139.325 55.6199 139.75 56.1519 140.095 56.8007C140.44 57.4491 140.613 58.1906 140.613 59.0248C140.613 59.6741 140.503 60.2639 140.285 60.7971Z" fill="white"/>
</g>
<defs>
<linearGradient id="paint0_linear_7753_6754" x1="50.9042" y1="180" x2="50.9041" y2="1.32365" gradientUnits="userSpaceOnUse">
<stop stop-color="#0029FF"/>
<stop offset="1" stop-color="#ED7DCE"/>
</linearGradient>
<linearGradient id="paint1_linear_7753_6754" x1="127.802" y1="178.074" x2="127.802" y2="-0.000995294" gradientUnits="userSpaceOnUse">
<stop stop-color="#0029FF"/>
<stop offset="1" stop-color="#ED7DCE"/>
</linearGradient>
<linearGradient id="paint2_linear_7753_6754" x1="52" y1="92" x2="52" y2="164" gradientUnits="userSpaceOnUse">
<stop stop-color="#7653E6"/>
<stop offset="1" stop-color="#1330FB"/>
</linearGradient>
<linearGradient id="paint3_linear_7753_6754" x1="159.745" y1="49.6263" x2="97.4087" y2="49.6263" gradientUnits="userSpaceOnUse">
<stop stop-color="#D574D3"/>
<stop offset="1" stop-color="#8056E4"/>
</linearGradient>
<clipPath id="clip0_7753_6754">
<rect width="180" height="180" fill="white" transform="translate(0 180) rotate(-90)"/>
</clipPath>
</defs>
</svg>
