<svg width="300" height="300" viewBox="-66 -70 300 300" fill="none" xmlns="http://www.w3.org/2000/svg">
<path d="M5.78374 1.81818V28H0.248224V1.81818H5.78374ZM15.6818 16.6477V28H10.2358V8.36364H15.4261V11.8281H15.6562C16.0909 10.6861 16.8196 9.78267 17.8423 9.1179C18.8651 8.4446 20.1051 8.10795 21.5625 8.10795C22.9261 8.10795 24.1151 8.40625 25.1293 9.00284C26.1435 9.59943 26.9318 10.4517 27.4943 11.5597C28.0568 12.6591 28.3381 13.9716 28.3381 15.4972V28H22.892V16.4688C22.9006 15.267 22.5938 14.3295 21.9716 13.6562C21.3494 12.9744 20.4929 12.6335 19.402 12.6335C18.669 12.6335 18.0213 12.7912 17.4588 13.1065C16.9048 13.4219 16.4702 13.8821 16.1548 14.4872C15.848 15.0838 15.6903 15.804 15.6818 16.6477ZM39.8661 28.3196C38.3746 28.3196 37.0238 27.9361 35.8136 27.169C34.6119 26.3935 33.6573 25.2557 32.9499 23.7557C32.2511 22.2472 31.9016 20.3977 31.9016 18.2074C31.9016 15.9574 32.2638 14.0866 32.9883 12.5952C33.7127 11.0952 34.6758 9.97443 35.8775 9.23295C37.0877 8.48295 38.413 8.10795 39.8533 8.10795C40.9528 8.10795 41.869 8.29545 42.6019 8.67045C43.3434 9.03693 43.94 9.49716 44.3917 10.0511C44.8519 10.5966 45.2013 11.1335 45.44 11.6619H45.6062V1.81818H51.0394V28H45.6701V24.8551H45.44C45.1843 25.4006 44.8221 25.9418 44.3533 26.4787C43.8931 27.0071 43.2923 27.446 42.5508 27.7955C41.8178 28.1449 40.9229 28.3196 39.8661 28.3196ZM41.592 23.9858C42.4698 23.9858 43.2113 23.7472 43.8164 23.2699C44.43 22.7841 44.8988 22.1065 45.2227 21.2372C45.555 20.3679 45.7212 19.3494 45.7212 18.1818C45.7212 17.0142 45.5593 16 45.2354 15.1392C44.9116 14.2784 44.4428 13.6136 43.8292 13.1449C43.2156 12.6761 42.4698 12.4418 41.592 12.4418C40.6971 12.4418 39.9428 12.6847 39.3292 13.1705C38.7156 13.6562 38.2511 14.3295 37.9357 15.1903C37.6204 16.0511 37.4627 17.0483 37.4627 18.1818C37.4627 19.3239 37.6204 20.3338 37.9357 21.2116C38.2596 22.081 38.7241 22.7628 39.3292 23.2571C39.9428 23.7429 40.6971 23.9858 41.592 23.9858ZM55.517 28V8.36364H60.9631V28H55.517ZM58.2528 5.83239C57.4432 5.83239 56.7486 5.56392 56.169 5.02699C55.598 4.48153 55.3125 3.82954 55.3125 3.07102C55.3125 2.32102 55.598 1.67756 56.169 1.14062C56.7486 0.59517 57.4432 0.322442 58.2528 0.322442C59.0625 0.322442 59.7528 0.59517 60.3239 1.14062C60.9034 1.67756 61.1932 2.32102 61.1932 3.07102C61.1932 3.82954 60.9034 4.48153 60.3239 5.02699C59.7528 5.56392 59.0625 5.83239 58.2528 5.83239ZM83.6325 8.36364L76.7674 28H70.631L63.766 8.36364H69.5188L73.5969 22.4134H73.8015L77.8668 8.36364H83.6325ZM86.4194 28V8.36364H91.8654V28H86.4194ZM89.1552 5.83239C88.3455 5.83239 87.6509 5.56392 87.0714 5.02699C86.5004 4.48153 86.2148 3.82954 86.2148 3.07102C86.2148 2.32102 86.5004 1.67756 87.0714 1.14062C87.6509 0.59517 88.3455 0.322442 89.1552 0.322442C89.9648 0.322442 90.6552 0.59517 91.2262 1.14062C91.8058 1.67756 92.0955 2.32102 92.0955 3.07102C92.0955 3.82954 91.8058 4.48153 91.2262 5.02699C90.6552 5.56392 89.9648 5.83239 89.1552 5.83239ZM103.464 28.3196C101.972 28.3196 100.621 27.9361 99.4112 27.169C98.2095 26.3935 97.255 25.2557 96.5476 23.7557C95.8487 22.2472 95.4993 20.3977 95.4993 18.2074C95.4993 15.9574 95.8615 14.0866 96.5859 12.5952C97.3104 11.0952 98.2734 9.97443 99.4751 9.23295C100.685 8.48295 102.011 8.10795 103.451 8.10795C104.55 8.10795 105.467 8.29545 106.2 8.67045C106.941 9.03693 107.538 9.49716 107.989 10.0511C108.45 10.5966 108.799 11.1335 109.038 11.6619H109.204V1.81818H114.637V28H109.268V24.8551H109.038C108.782 25.4006 108.42 25.9418 107.951 26.4787C107.491 27.0071 106.89 27.446 106.148 27.7955C105.415 28.1449 104.521 28.3196 103.464 28.3196ZM105.19 23.9858C106.067 23.9858 106.809 23.7472 107.414 23.2699C108.028 22.7841 108.496 22.1065 108.82 21.2372C109.153 20.3679 109.319 19.3494 109.319 18.1818C109.319 17.0142 109.157 16 108.833 15.1392C108.509 14.2784 108.04 13.6136 107.427 13.1449C106.813 12.6761 106.067 12.4418 105.19 12.4418C104.295 12.4418 103.54 12.6847 102.927 13.1705C102.313 13.6562 101.849 14.3295 101.533 15.1903C101.218 16.0511 101.06 17.0483 101.06 18.1818C101.06 19.3239 101.218 20.3338 101.533 21.2116C101.857 22.081 102.322 22.7628 102.927 23.2571C103.54 23.7429 104.295 23.9858 105.19 23.9858ZM131.707 19.6392V8.36364H137.153V28H131.924V24.4332H131.72C131.277 25.5838 130.539 26.5085 129.508 27.2074C128.485 27.9062 127.237 28.2557 125.762 28.2557C124.45 28.2557 123.295 27.9574 122.298 27.3608C121.301 26.7642 120.521 25.9162 119.958 24.8168C119.404 23.7173 119.123 22.4006 119.115 20.8665V8.36364H124.561V19.8949C124.569 21.054 124.88 21.9702 125.494 22.6435C126.108 23.3168 126.93 23.6534 127.961 23.6534C128.618 23.6534 129.231 23.5043 129.802 23.206C130.373 22.8991 130.833 22.4474 131.183 21.8509C131.541 21.2543 131.716 20.517 131.707 19.6392ZM147.109 28.3707C145.856 28.3707 144.739 28.1534 143.759 27.7188C142.779 27.2756 142.004 26.6236 141.433 25.7628C140.87 24.8935 140.589 23.8111 140.589 22.5156C140.589 21.4247 140.789 20.5085 141.19 19.767C141.59 19.0256 142.136 18.429 142.826 17.9773C143.516 17.5256 144.3 17.1847 145.178 16.9545C146.065 16.7244 146.994 16.5625 147.965 16.4688C149.107 16.3494 150.028 16.2386 150.727 16.1364C151.425 16.0256 151.933 15.8636 152.248 15.6506C152.563 15.4375 152.721 15.1222 152.721 14.7045V14.6278C152.721 13.8182 152.465 13.1918 151.954 12.7486C151.451 12.3054 150.735 12.0838 149.806 12.0838C148.826 12.0838 148.046 12.3011 147.467 12.7358C146.887 13.1619 146.504 13.6989 146.316 14.3466L141.279 13.9375C141.535 12.7443 142.038 11.7131 142.788 10.8438C143.538 9.96591 144.505 9.29261 145.69 8.82386C146.883 8.34659 148.263 8.10795 149.832 8.10795C150.923 8.10795 151.967 8.2358 152.964 8.49148C153.969 8.74716 154.86 9.14347 155.636 9.6804C156.42 10.2173 157.038 10.9077 157.489 11.7514C157.941 12.5866 158.167 13.5881 158.167 14.7557V28H153.002V25.277H152.849C152.533 25.8906 152.112 26.4318 151.583 26.9006C151.055 27.3608 150.42 27.723 149.678 27.9872C148.937 28.2429 148.08 28.3707 147.109 28.3707ZM148.668 24.6122C149.469 24.6122 150.177 24.4545 150.79 24.1392C151.404 23.8153 151.886 23.3807 152.235 22.8352C152.585 22.2898 152.759 21.6719 152.759 20.9815V18.8977C152.589 19.0085 152.354 19.1108 152.056 19.2045C151.766 19.2898 151.438 19.3707 151.072 19.4474C150.705 19.5156 150.339 19.5795 149.972 19.6392C149.606 19.6903 149.273 19.7372 148.975 19.7798C148.336 19.8736 147.778 20.0227 147.3 20.2273C146.823 20.4318 146.452 20.7088 146.188 21.0582C145.924 21.3991 145.792 21.8253 145.792 22.3366C145.792 23.0781 146.06 23.6449 146.597 24.0369C147.143 24.4205 147.833 24.6122 148.668 24.6122ZM167.838 1.81818V28H162.392V1.81818H167.838ZM8.03374 44.8182V71H2.49822V44.8182H8.03374ZM12.5881 71V44.8182H23.071C24.9972 44.8182 26.6037 45.1037 27.8906 45.6747C29.1776 46.2457 30.1449 47.0384 30.7926 48.0526C31.4403 49.0582 31.7642 50.2173 31.7642 51.5298C31.7642 52.5526 31.5597 53.4517 31.1506 54.2273C30.7415 54.9943 30.179 55.625 29.4631 56.1193C28.7557 56.6051 27.946 56.9503 27.0341 57.1548V57.4105C28.0313 57.4531 28.9645 57.7344 29.8338 58.2543C30.7116 58.7741 31.4233 59.5028 31.9688 60.4403C32.5142 61.3693 32.7869 62.4773 32.7869 63.7642C32.7869 65.1534 32.4418 66.3935 31.7514 67.4844C31.0696 68.5668 30.0597 69.4233 28.7216 70.054C27.3835 70.6847 25.7344 71 23.7741 71H12.5881ZM18.1236 66.4744H22.6364C24.179 66.4744 25.304 66.1804 26.0114 65.5923C26.7188 64.9957 27.0724 64.2031 27.0724 63.2145C27.0724 62.4901 26.8977 61.8509 26.5483 61.2969C26.1989 60.7429 25.7003 60.3082 25.0526 59.9929C24.4134 59.6776 23.6506 59.5199 22.7642 59.5199H18.1236V66.4744ZM18.1236 55.7741H22.2273C22.9858 55.7741 23.6591 55.642 24.2472 55.3778C24.8438 55.1051 25.3125 54.7216 25.6534 54.2273C26.0028 53.733 26.1776 53.1406 26.1776 52.4503C26.1776 51.5043 25.8409 50.7415 25.1676 50.1619C24.5028 49.5824 23.5568 49.2926 22.3295 49.2926H18.1236V55.7741ZM40.9016 71H34.9698L44.0082 44.8182H51.1417L60.1673 71H54.2354L47.6772 50.8011H47.4727L40.9016 71ZM40.5309 60.7088H54.5423V65.0298H40.5309V60.7088ZM85.2177 44.8182V71H80.4364L69.0458 54.5213H68.854V71H63.3185V44.8182H68.1765L79.4776 61.2841H79.7077V44.8182H85.2177ZM98.1232 71V44.8182H115.765V49.3821H103.659V55.6207H114.858V60.1847H103.659V66.4361H115.816V71H98.1232ZM136.338 44.8182H141.874V61.821C141.874 63.7301 141.418 65.4006 140.506 66.8324C139.602 68.2642 138.337 69.3807 136.709 70.1818C135.081 70.9744 133.185 71.3707 131.02 71.3707C128.847 71.3707 126.946 70.9744 125.318 70.1818C123.69 69.3807 122.425 68.2642 121.521 66.8324C120.618 65.4006 120.166 63.7301 120.166 61.821V44.8182H125.702V61.348C125.702 62.3452 125.919 63.2315 126.354 64.0071C126.797 64.7827 127.419 65.392 128.22 65.8352C129.021 66.2784 129.955 66.5 131.02 66.5C132.094 66.5 133.027 66.2784 133.82 65.8352C134.621 65.392 135.239 64.7827 135.673 64.0071C136.116 63.2315 136.338 62.3452 136.338 61.348V44.8182ZM146.428 71V44.8182H156.757C158.735 44.8182 160.422 45.1719 161.82 45.8793C163.226 46.5781 164.296 47.571 165.029 48.858C165.77 50.1364 166.141 51.6406 166.141 53.3707C166.141 55.1094 165.766 56.6051 165.016 57.858C164.266 59.1023 163.179 60.0568 161.756 60.7216C160.341 61.3864 158.628 61.7188 156.617 61.7188H149.701V57.2699H155.722C156.779 57.2699 157.657 57.125 158.355 56.8352C159.054 56.5455 159.574 56.1108 159.915 55.5312C160.265 54.9517 160.439 54.2315 160.439 53.3707C160.439 52.5014 160.265 51.7685 159.915 51.1719C159.574 50.5753 159.05 50.1236 158.343 49.8168C157.644 49.5014 156.762 49.3438 155.696 49.3438H151.963V71H146.428ZM160.567 59.0852L167.074 71H160.963L154.597 59.0852H160.567ZM9.78835 114.371C8.53551 114.371 7.41903 114.153 6.43892 113.719C5.45881 113.276 4.68324 112.624 4.11222 111.763C3.54972 110.893 3.26847 109.811 3.26847 108.516C3.26847 107.425 3.46875 106.509 3.86932 105.767C4.26989 105.026 4.81534 104.429 5.50568 103.977C6.19602 103.526 6.98011 103.185 7.85795 102.955C8.74432 102.724 9.6733 102.562 10.6449 102.469C11.7869 102.349 12.7074 102.239 13.4062 102.136C14.1051 102.026 14.6122 101.864 14.9276 101.651C15.2429 101.437 15.4006 101.122 15.4006 100.705V100.628C15.4006 99.8182 15.1449 99.1918 14.6335 98.7486C14.1307 98.3054 13.4148 98.0838 12.4858 98.0838C11.5057 98.0838 10.7259 98.3011 10.1463 98.7358C9.56676 99.1619 9.18324 99.6989 8.99574 100.347L3.95881 99.9375C4.21449 98.7443 4.71733 97.7131 5.46733 96.8438C6.21733 95.9659 7.18466 95.2926 8.36932 94.8239C9.5625 94.3466 10.9432 94.108 12.5114 94.108C13.6023 94.108 14.6463 94.2358 15.6435 94.4915C16.6491 94.7472 17.5398 95.1435 18.3153 95.6804C19.0994 96.2173 19.7173 96.9077 20.169 97.7514C20.6207 98.5866 20.8466 99.5881 20.8466 100.756V114H15.6818V111.277H15.5284C15.2131 111.891 14.7912 112.432 14.2628 112.901C13.7344 113.361 13.0994 113.723 12.358 113.987C11.6165 114.243 10.7599 114.371 9.78835 114.371ZM11.348 110.612C12.1491 110.612 12.8565 110.455 13.4702 110.139C14.0838 109.815 14.5653 109.381 14.9148 108.835C15.2642 108.29 15.4389 107.672 15.4389 106.982V104.898C15.2685 105.009 15.0341 105.111 14.7358 105.205C14.446 105.29 14.1179 105.371 13.7514 105.447C13.3849 105.516 13.0185 105.58 12.652 105.639C12.2855 105.69 11.9531 105.737 11.6548 105.78C11.0156 105.874 10.4574 106.023 9.98011 106.227C9.50284 106.432 9.1321 106.709 8.8679 107.058C8.60369 107.399 8.47159 107.825 8.47159 108.337C8.47159 109.078 8.74006 109.645 9.27699 110.037C9.82244 110.42 10.5128 110.612 11.348 110.612ZM33.9439 114.384C31.9325 114.384 30.2024 113.957 28.7536 113.105C27.3132 112.244 26.2053 111.051 25.4297 109.526C24.6626 108 24.2791 106.244 24.2791 104.259C24.2791 102.247 24.6669 100.483 25.4425 98.9659C26.2266 97.4403 27.3388 96.2514 28.7791 95.3991C30.2195 94.5384 31.9325 94.108 33.9183 94.108C35.6314 94.108 37.1314 94.419 38.4183 95.0412C39.7053 95.6634 40.7237 96.5369 41.4737 97.6619C42.2237 98.7869 42.6371 100.108 42.7138 101.625H37.5746C37.4297 100.645 37.0462 99.8565 36.424 99.2599C35.8104 98.6548 35.005 98.3523 34.0078 98.3523C33.1641 98.3523 32.4268 98.5824 31.7962 99.0426C31.174 99.4943 30.6882 100.155 30.3388 101.024C29.9893 101.893 29.8146 102.946 29.8146 104.182C29.8146 105.435 29.9851 106.5 30.326 107.378C30.6754 108.256 31.1655 108.925 31.7962 109.385C32.4268 109.845 33.1641 110.075 34.0078 110.075C34.63 110.075 35.1882 109.947 35.6825 109.692C36.1854 109.436 36.5987 109.065 36.9226 108.58C37.255 108.085 37.4723 107.493 37.5746 106.803H42.7138C42.6286 108.303 42.2195 109.624 41.4865 110.766C40.7621 111.899 39.7607 112.786 38.4822 113.425C37.2038 114.064 35.6911 114.384 33.9439 114.384ZM55.0728 114.384C53.0614 114.384 51.3313 113.957 49.8825 113.105C48.4421 112.244 47.3342 111.051 46.5586 109.526C45.7915 108 45.408 106.244 45.408 104.259C45.408 102.247 45.7958 100.483 46.5714 98.9659C47.3555 97.4403 48.4677 96.2514 49.908 95.3991C51.3484 94.5384 53.0614 94.108 55.0472 94.108C56.7603 94.108 58.2603 94.419 59.5472 95.0412C60.8342 95.6634 61.8526 96.5369 62.6026 97.6619C63.3526 98.7869 63.766 100.108 63.8427 101.625H58.7035C58.5586 100.645 58.1751 99.8565 57.5529 99.2599C56.9393 98.6548 56.1339 98.3523 55.1367 98.3523C54.293 98.3523 53.5558 98.5824 52.9251 99.0426C52.3029 99.4943 51.8171 100.155 51.4677 101.024C51.1183 101.893 50.9435 102.946 50.9435 104.182C50.9435 105.435 51.114 106.5 51.4549 107.378C51.8043 108.256 52.2944 108.925 52.9251 109.385C53.5558 109.845 54.293 110.075 55.1367 110.075C55.7589 110.075 56.3171 109.947 56.8114 109.692C57.3143 109.436 57.7276 109.065 58.0515 108.58C58.3839 108.085 58.6012 107.493 58.7035 106.803H63.8427C63.7575 108.303 63.3484 109.624 62.6154 110.766C61.891 111.899 60.8896 112.786 59.6112 113.425C58.3327 114.064 56.82 114.384 55.0728 114.384ZM76.2017 114.384C74.2159 114.384 72.4986 113.962 71.0497 113.118C69.6094 112.266 68.4972 111.081 67.7131 109.564C66.929 108.038 66.5369 106.27 66.5369 104.259C66.5369 102.23 66.929 100.457 67.7131 98.9403C68.4972 97.4148 69.6094 96.2301 71.0497 95.3864C72.4986 94.5341 74.2159 94.108 76.2017 94.108C78.1875 94.108 79.9006 94.5341 81.3409 95.3864C82.7898 96.2301 83.9062 97.4148 84.6903 98.9403C85.4744 100.457 85.8665 102.23 85.8665 104.259C85.8665 106.27 85.4744 108.038 84.6903 109.564C83.9062 111.081 82.7898 112.266 81.3409 113.118C79.9006 113.962 78.1875 114.384 76.2017 114.384ZM76.2273 110.165C77.1307 110.165 77.8849 109.909 78.4901 109.398C79.0952 108.878 79.5511 108.17 79.858 107.276C80.1733 106.381 80.331 105.362 80.331 104.22C80.331 103.078 80.1733 102.06 79.858 101.165C79.5511 100.27 79.0952 99.5625 78.4901 99.0426C77.8849 98.5227 77.1307 98.2628 76.2273 98.2628C75.3153 98.2628 74.5483 98.5227 73.9261 99.0426C73.3125 99.5625 72.848 100.27 72.5327 101.165C72.2259 102.06 72.0724 103.078 72.0724 104.22C72.0724 105.362 72.2259 106.381 72.5327 107.276C72.848 108.17 73.3125 108.878 73.9261 109.398C74.5483 109.909 75.3153 110.165 76.2273 110.165ZM102 105.639V94.3636H107.446V114H102.217V110.433H102.013C101.57 111.584 100.832 112.509 99.8011 113.207C98.7784 113.906 97.5298 114.256 96.0554 114.256C94.7429 114.256 93.5881 113.957 92.5909 113.361C91.5938 112.764 90.8139 111.916 90.2514 110.817C89.6974 109.717 89.4162 108.401 89.4077 106.866V94.3636H94.8537V105.895C94.8622 107.054 95.1733 107.97 95.7869 108.643C96.4006 109.317 97.223 109.653 98.2543 109.653C98.9105 109.653 99.5241 109.504 100.095 109.206C100.666 108.899 101.126 108.447 101.476 107.851C101.834 107.254 102.009 106.517 102 105.639ZM117.248 102.648V114H111.802V94.3636H116.993V97.8281H117.223C117.657 96.6861 118.386 95.7827 119.409 95.1179C120.431 94.4446 121.672 94.108 123.129 94.108C124.493 94.108 125.681 94.4062 126.696 95.0028C127.71 95.5994 128.498 96.4517 129.061 97.5597C129.623 98.6591 129.904 99.9716 129.904 101.497V114H124.458V102.469C124.467 101.267 124.16 100.33 123.538 99.6562C122.916 98.9744 122.059 98.6335 120.968 98.6335C120.235 98.6335 119.588 98.7912 119.025 99.1065C118.471 99.4219 118.037 99.8821 117.721 100.487C117.414 101.084 117.257 101.804 117.248 102.648ZM144.641 94.3636V98.4545H132.816V94.3636H144.641ZM135.501 89.6591H140.947V107.966C140.947 108.469 141.023 108.861 141.177 109.142C141.33 109.415 141.543 109.607 141.816 109.717C142.097 109.828 142.421 109.884 142.788 109.884C143.043 109.884 143.299 109.862 143.555 109.82C143.81 109.768 144.006 109.73 144.143 109.705L144.999 113.757C144.727 113.842 144.343 113.94 143.849 114.051C143.354 114.17 142.754 114.243 142.046 114.268C140.734 114.32 139.583 114.145 138.594 113.744C137.614 113.344 136.852 112.722 136.306 111.878C135.761 111.034 135.492 109.969 135.501 108.682V89.6591ZM164.281 99.9631L159.295 100.27C159.21 99.8437 159.027 99.4602 158.745 99.1193C158.464 98.7699 158.093 98.4929 157.633 98.2884C157.181 98.0753 156.64 97.9688 156.01 97.9688C155.166 97.9688 154.454 98.1477 153.875 98.5057C153.295 98.8551 153.005 99.3239 153.005 99.9119C153.005 100.381 153.193 100.777 153.568 101.101C153.943 101.425 154.586 101.685 155.498 101.881L159.052 102.597C160.961 102.989 162.385 103.619 163.322 104.489C164.26 105.358 164.728 106.5 164.728 107.915C164.728 109.202 164.349 110.331 163.591 111.303C162.841 112.274 161.809 113.033 160.497 113.578C159.193 114.115 157.689 114.384 155.984 114.384C153.385 114.384 151.314 113.842 149.771 112.76C148.237 111.669 147.338 110.186 147.074 108.311L152.43 108.03C152.592 108.822 152.984 109.428 153.606 109.845C154.228 110.254 155.025 110.459 155.997 110.459C156.951 110.459 157.718 110.276 158.298 109.909C158.886 109.534 159.184 109.053 159.193 108.464C159.184 107.97 158.975 107.565 158.566 107.25C158.157 106.926 157.527 106.679 156.674 106.509L153.274 105.831C151.356 105.447 149.929 104.783 148.991 103.837C148.062 102.891 147.598 101.685 147.598 100.219C147.598 98.9574 147.939 97.8707 148.62 96.9588C149.311 96.0469 150.278 95.3438 151.522 94.8494C152.775 94.3551 154.241 94.108 155.92 94.108C158.4 94.108 160.352 94.6321 161.775 95.6804C163.207 96.7287 164.042 98.1562 164.281 99.9631Z" fill="url(#paint0_linear_7543_6841)"/>
<defs>
<linearGradient id="paint0_linear_7543_6841" x1="-35.0239" y1="22.7356" x2="214.55" y2="24.2128" gradientUnits="userSpaceOnUse">
<stop stop-color="#CA2790"/>
<stop offset="0.367431" stop-color="#E58CA6"/>
<stop offset="0.789871" stop-color="#C747EB"/>
</linearGradient>
</defs>
</svg>
