<svg width="92" height="25" viewBox="0 0 92 25" fill="none" xmlns="http://www.w3.org/2000/svg">
<g clip-path="url(#clip0_10230_13309)">
<path d="M11.7685 0.310852H4.76338C4.28393 0.310852 3.8763 0.659206 3.8015 1.13258L0.968294 19.0956C0.911943 19.4499 1.18652 19.7695 1.54599 19.7695H4.89034C5.3697 19.7695 5.77734 19.4213 5.85214 18.9471L6.61625 14.1022C6.69004 13.6279 7.09869 13.2796 7.57704 13.2796H9.79466C14.4091 13.2796 17.0723 11.0466 17.7678 6.62165C18.0812 4.68571 17.7811 3.16467 16.8746 2.09942C15.879 0.929553 14.1131 0.310852 11.7685 0.310852V0.310852ZM12.5767 6.87161C12.1936 9.38525 10.273 9.38525 8.41595 9.38525H7.3589L8.10047 4.69091C8.14456 4.40714 8.39033 4.19819 8.67717 4.19819H9.16162C10.4266 4.19819 11.62 4.19819 12.2366 4.91922C12.6043 5.34949 12.717 5.98862 12.5767 6.87161Z" fill="#283B82"/>
<path d="M32.7099 6.79579H29.3555C29.0698 6.79579 28.8229 7.00476 28.7787 7.28851L28.6304 8.22675L28.3957 7.88665C27.6695 6.83262 26.05 6.48033 24.4337 6.48033C20.7268 6.48033 17.5607 9.2879 16.9441 13.2263C16.6235 15.1909 17.0793 17.0695 18.1937 18.3795C19.216 19.584 20.6786 20.0859 22.419 20.0859C25.4059 20.0859 27.0621 18.1655 27.0621 18.1655L26.9125 19.0976C26.8561 19.4541 27.1307 19.7736 27.4883 19.7736H30.5098C30.9902 19.7736 31.3958 19.4253 31.4717 18.9512L33.2846 7.46976C33.3421 7.11636 33.0686 6.79579 32.7099 6.79579V6.79579ZM28.0341 13.3247C27.7106 15.2411 26.1893 16.5277 24.2495 16.5277C23.2754 16.5277 22.4968 16.2152 21.9969 15.6232C21.5012 15.0352 21.3127 14.1984 21.4705 13.2662C21.7726 11.3662 23.3194 10.0377 25.2296 10.0377C26.1823 10.0377 26.9566 10.3542 27.4667 10.9513C27.9779 11.5546 28.1805 12.3966 28.0341 13.3247Z" fill="#283B82"/>
<path d="M50.5745 6.79385H47.2036C46.882 6.79385 46.5798 6.95364 46.3975 7.22104L41.7482 14.0695L39.7775 7.48835C39.6536 7.07652 39.2736 6.79385 38.8434 6.79385H35.5308C35.1282 6.79385 34.8487 7.18714 34.9767 7.56614L38.6897 18.4626L35.1989 23.3905C34.9243 23.7786 35.2009 24.3125 35.6753 24.3125H39.0421C39.3616 24.3125 39.6608 24.1567 39.8421 23.8945L51.0539 7.71065C51.3223 7.32338 51.0468 6.79385 50.5745 6.79385" fill="#283B82"/>
<path d="M61.7294 0.310852H54.7233C54.245 0.310852 53.8372 0.659206 53.7624 1.13258L50.9292 19.0956C50.873 19.4499 51.1474 19.7695 51.5049 19.7695H55.1002C55.4341 19.7695 55.72 19.5259 55.7722 19.1939L56.5761 14.1022C56.6499 13.6279 57.0587 13.2796 57.537 13.2796H59.7536C64.369 13.2796 67.0312 11.0466 67.7277 6.62165C68.0423 4.68571 67.7401 3.16467 66.8335 2.09942C65.8389 0.929553 64.0741 0.310852 61.7294 0.310852V0.310852ZM62.5377 6.87161C62.1556 9.38525 60.2351 9.38525 58.3769 9.38525H57.3209L58.0636 4.69091C58.1076 4.40714 58.3512 4.19819 58.6391 4.19819H59.1236C60.3877 4.19819 61.5819 4.19819 62.1985 4.91922C62.5663 5.34949 62.6779 5.98862 62.5377 6.87161Z" fill="#469BDB"/>
<path d="M82.6745 6.79579H79.322C79.0341 6.79579 78.7892 7.00476 78.7463 7.28851L78.5977 8.22675L78.3622 7.88665C77.636 6.83262 76.0176 6.48033 74.4013 6.48033C70.6942 6.48033 67.5293 9.2879 66.9125 13.2263C66.593 15.1909 67.0467 17.0695 68.1613 18.3795C69.1856 19.584 70.6461 20.0859 72.3864 20.0859C75.3732 20.0859 77.0295 18.1655 77.0295 18.1655L76.8799 19.0976C76.8237 19.4541 77.0981 19.7736 77.4578 19.7736H80.4784C80.9567 19.7736 81.3645 19.4253 81.4393 18.9512L83.2533 7.46976C83.3084 7.11636 83.034 6.79579 82.6745 6.79579V6.79579ZM77.9985 13.3247C77.6768 15.2411 76.1537 16.5277 74.2138 16.5277C73.2417 16.5277 72.4612 16.2152 71.9613 15.6232C71.4657 15.0352 71.2791 14.1984 71.4349 13.2662C71.739 11.3662 73.2838 10.0377 75.1941 10.0377C76.1467 10.0377 76.9209 10.3542 77.4311 10.9513C77.9442 11.5546 78.147 12.3966 77.9985 13.3247Z" fill="#469BDB"/>
<path d="M86.6326 0.803677L83.7573 19.0956C83.7011 19.4499 83.9755 19.7695 84.3331 19.7695H87.2235C87.704 19.7695 88.1117 19.4213 88.1855 18.9471L91.0206 0.98512C91.077 0.630569 90.8026 0.31 90.4451 0.31H87.2082C86.9224 0.310855 86.6767 0.52008 86.6326 0.803677" fill="#469BDB"/>
</g>
<defs>
<clipPath id="clip0_10230_13309">
<rect width="90.063" height="24" fill="white" transform="translate(0.96875 0.3125)"/>
</clipPath>
</defs>
</svg>
