<svg width="132" height="32" viewBox="0 0 132 32" fill="none" xmlns="http://www.w3.org/2000/svg">
<g clip-path="url(#clip0_9531_10369)">
<path d="M32.476 27.6545H26.4688L30.2261 4.42188H36.233L32.476 27.6545Z" fill="#00579F"/>
<path d="M54.2525 4.98911C53.0676 4.51903 51.1882 4 48.8645 4C42.9321 4 38.7546 7.16343 38.729 11.6862C38.6797 15.0231 41.72 16.8764 43.9938 17.9891C46.3179 19.126 47.108 19.8681 47.108 20.8815C47.0843 22.4379 45.23 23.1553 43.5004 23.1553C41.1021 23.1553 39.817 22.7854 37.8641 21.9195L37.073 21.5483L36.2324 26.7635C37.6413 27.4054 40.2371 27.975 42.9321 28C49.2353 28 53.3389 24.8855 53.3875 20.0658C53.4115 17.4211 51.8061 15.3946 48.3451 13.7386C46.244 12.6756 44.9573 11.9588 44.9573 10.8712C44.9819 9.8824 46.0456 8.86964 48.4174 8.86964C50.3703 8.82004 51.8052 9.28946 52.8922 9.75921L53.4355 10.0059L54.2525 4.98911Z" fill="#00579F"/>
<path d="M62.2375 19.424C62.7322 18.0893 64.6359 12.9237 64.6359 12.9237C64.6109 12.9733 65.1296 11.5644 65.4263 10.6995L65.8461 12.7013C65.8461 12.7013 66.9837 18.2624 67.2307 19.424C66.2918 19.424 63.4241 19.424 62.2375 19.424ZM69.6527 4.42188H65.0061C63.5732 4.42188 62.4846 4.84169 61.8663 6.3495L52.9434 27.6542H59.2466C59.2466 27.6542 60.2843 24.7867 60.5073 24.1692C61.1988 24.1692 67.3305 24.1692 68.2201 24.1692C68.3926 24.9848 68.9369 27.6542 68.9369 27.6542H74.499L69.6527 4.42188Z" fill="#00579F"/>
<path d="M21.4524 4.42188L15.5694 20.2643L14.9265 17.0513C13.8388 13.3439 10.4277 9.31583 6.62109 7.31298L12.0098 27.6299H18.3622L27.8046 4.42188H21.4524Z" fill="#00579F"/>
<path d="M10.1057 4.42188H0.440674L0.341797 4.8913C7.88114 6.81925 12.8743 11.4665 14.9258 17.0523L12.8247 6.37479C12.4788 4.89097 11.4158 4.47082 10.1057 4.42188Z" fill="#FAA61A"/>
</g>
<g clip-path="url(#clip1_9531_10369)">
<path d="M113.734 7.61719H104.4V24.3894H113.734V7.61719Z" fill="#FF5F00"/>
<path d="M104.993 16.0026C104.991 14.3873 105.357 12.7928 106.063 11.3399C106.769 9.88702 107.796 8.61374 109.067 7.61647C107.493 6.37962 105.604 5.61045 103.614 5.39686C101.624 5.18327 99.6136 5.53387 97.8134 6.40861C96.0132 7.28335 94.4954 8.64693 93.4336 10.3435C92.3717 12.04 91.8086 14.0011 91.8086 16.0026C91.8086 18.004 92.3717 19.9651 93.4336 21.6617C94.4954 23.3582 96.0132 24.7218 97.8134 25.5966C99.6136 26.4713 101.624 26.8219 103.614 26.6083C105.604 26.3947 107.493 25.6255 109.067 24.3887C107.796 23.3914 106.769 22.1181 106.063 20.6652C105.357 19.2123 104.991 17.6179 104.993 16.0026Z" fill="#EB001B"/>
<path d="M126.324 16.0026C126.324 18.004 125.761 19.9651 124.699 21.6616C123.638 23.3582 122.12 24.7218 120.32 25.5965C118.52 26.4713 116.51 26.8219 114.52 26.6083C112.53 26.3947 110.64 25.6255 109.066 24.3887C110.336 23.3904 111.362 22.1169 112.068 20.6643C112.774 19.2116 113.14 17.6176 113.14 16.0026C113.14 14.3876 112.774 12.7936 112.068 11.3409C111.362 9.88824 110.336 8.61475 109.066 7.61647C110.64 6.37962 112.53 5.61044 114.52 5.39685C116.51 5.18327 118.52 5.53388 120.32 6.40864C122.12 7.28339 123.638 8.64697 124.699 10.3435C125.761 12.0401 126.324 14.0012 126.324 16.0026Z" fill="#F79E1B"/>
<path d="M125.306 22.6132V22.2699H125.444V22.1999H125.092V22.2699H125.23V22.6132H125.306ZM125.991 22.6132V22.1992H125.882L125.758 22.484L125.634 22.1992H125.526V22.6132H125.602V22.3009L125.719 22.5702H125.798L125.914 22.3003V22.6132H125.991Z" fill="#F79E1B"/>
</g>
<defs>
<clipPath id="clip0_9531_10369">
<rect width="74.1569" height="24" fill="white" transform="translate(0.34375 4)"/>
</clipPath>
<clipPath id="clip1_9531_10369">
<rect width="45.1575" height="32" fill="white" transform="translate(86.5)"/>
</clipPath>
</defs>
</svg>
