<svg width="200" height="48" viewBox="0 0 200 48" fill="none" xmlns="http://www.w3.org/2000/svg">
<path d="M46.4179 4.90909L49.5819 14.8551H49.7034L52.8738 4.90909H55.942L51.4292 18H47.8625L43.3433 4.90909H46.4179ZM60.2854 4.90909V18H57.5177V4.90909H60.2854ZM69.6642 8.67401C69.613 8.15838 69.3936 7.75781 69.0058 7.4723C68.618 7.18679 68.0917 7.04403 67.4269 7.04403C66.9752 7.04403 66.5938 7.10795 66.2828 7.2358C65.9717 7.35937 65.733 7.53196 65.5669 7.75355C65.4049 7.97514 65.324 8.22656 65.324 8.50781C65.3154 8.74219 65.3644 8.94673 65.471 9.12145C65.5818 9.29616 65.733 9.44744 65.9248 9.57528C66.1166 9.69886 66.3382 9.80753 66.5896 9.90128C66.841 9.99077 67.1095 10.0675 67.395 10.1314L68.5711 10.4126C69.1421 10.5405 69.6663 10.7109 70.1436 10.924C70.6208 11.1371 71.0342 11.3991 71.3836 11.7102C71.733 12.0213 72.0036 12.3878 72.1954 12.8097C72.3914 13.2315 72.4916 13.7152 72.4958 14.2607C72.4916 15.0618 72.287 15.7564 71.8822 16.3445C71.4816 16.9283 70.9021 17.3821 70.1436 17.706C69.3893 18.0256 68.4795 18.1854 67.4142 18.1854C66.3573 18.1854 65.4369 18.0234 64.6528 17.6996C63.873 17.3757 63.2636 16.8963 62.8247 16.2614C62.39 15.6222 62.162 14.8317 62.1407 13.8899H64.819C64.8488 14.3288 64.9745 14.6953 65.1961 14.9893C65.422 15.2791 65.7224 15.4986 66.0974 15.6477C66.4767 15.7926 66.9049 15.8651 67.3822 15.8651C67.8509 15.8651 68.2579 15.7969 68.6031 15.6605C68.9525 15.5241 69.2231 15.3345 69.4149 15.0916C69.6066 14.8487 69.7025 14.5696 69.7025 14.2543C69.7025 13.9602 69.6151 13.7131 69.4404 13.5128C69.27 13.3125 69.0186 13.142 68.6862 13.0014C68.358 12.8608 67.9553 12.733 67.4781 12.6179L66.0526 12.2599C64.949 11.9915 64.0775 11.5717 63.4383 11.0007C62.7991 10.4297 62.4816 9.66051 62.4859 8.69318C62.4816 7.90057 62.6926 7.2081 63.1187 6.61577C63.5491 6.02344 64.1393 5.56108 64.8893 5.22869C65.6393 4.89631 66.4916 4.73011 67.4461 4.73011C68.4177 4.73011 69.2657 4.89631 69.9901 5.22869C70.7188 5.56108 71.2856 6.02344 71.6904 6.61577C72.0953 7.2081 72.3041 7.89418 72.3168 8.67401H69.6642ZM76.3151 18H73.3492L77.8683 4.90909H81.4351L85.9479 18H82.982L79.7029 7.90057H79.6006L76.3151 18ZM76.1297 12.8544H83.1354V15.0149H76.1297V12.8544ZM96.3302 18H91.6895V4.90909H96.3685C97.6853 4.90909 98.8188 5.17116 99.7691 5.69531C100.719 6.2152 101.45 6.96307 101.962 7.93892C102.477 8.91477 102.735 10.0824 102.735 11.4418C102.735 12.8054 102.477 13.9773 101.962 14.9574C101.45 15.9375 100.715 16.6896 99.7563 17.2138C98.8018 17.7379 97.6597 18 96.3302 18ZM94.4573 15.6286H96.2151C97.0333 15.6286 97.7215 15.4837 98.2797 15.1939C98.8422 14.8999 99.2641 14.446 99.5454 13.8324C99.8309 13.2145 99.9736 12.4176 99.9736 11.4418C99.9736 10.4744 99.8309 9.68395 99.5454 9.07031C99.2641 8.45668 98.8444 8.00497 98.2861 7.7152C97.7279 7.42543 97.0397 7.28054 96.2215 7.28054H94.4573V15.6286ZM107.553 4.90909V18H104.785V4.90909H107.553ZM109.83 18V4.90909H114.995C115.984 4.90909 116.827 5.08594 117.526 5.43963C118.229 5.78906 118.764 6.28551 119.131 6.92898C119.501 7.56818 119.687 8.32031 119.687 9.18537C119.687 10.0547 119.499 10.8026 119.124 11.429C118.749 12.0511 118.206 12.5284 117.494 12.8608C116.787 13.1932 115.93 13.3594 114.925 13.3594H111.467V11.1349H114.477C115.006 11.1349 115.445 11.0625 115.794 10.9176C116.143 10.7727 116.403 10.5554 116.574 10.2656C116.748 9.97585 116.836 9.61577 116.836 9.18537C116.836 8.75071 116.748 8.38423 116.574 8.08594C116.403 7.78764 116.141 7.56179 115.788 7.40838C115.438 7.25071 114.997 7.17188 114.464 7.17188H112.598V18H109.83ZM116.9 12.0426L120.153 18H117.098L113.915 12.0426H116.9ZM121.643 18V4.90909H130.464V7.19105H124.41V10.3104H130.01V12.5923H124.41V15.718H130.489V18H121.643ZM144.215 9.49219H141.415C141.364 9.12997 141.259 8.80824 141.102 8.52699C140.944 8.24148 140.742 7.99858 140.494 7.7983C140.247 7.59801 139.962 7.4446 139.638 7.33807C139.318 7.23153 138.971 7.17827 138.596 7.17827C137.918 7.17827 137.328 7.34659 136.825 7.68324C136.323 8.01562 135.933 8.50142 135.656 9.14062C135.379 9.77557 135.24 10.5469 135.24 11.4545C135.24 12.3878 135.379 13.1719 135.656 13.8068C135.937 14.4418 136.329 14.9212 136.832 15.245C137.335 15.5689 137.916 15.7308 138.577 15.7308C138.948 15.7308 139.291 15.6818 139.606 15.5838C139.926 15.4858 140.209 15.343 140.456 15.1555C140.703 14.9638 140.908 14.7315 141.07 14.4588C141.236 14.1861 141.351 13.875 141.415 13.5256L144.215 13.5384C144.142 14.1392 143.961 14.7188 143.671 15.277C143.386 15.831 143 16.3274 142.514 16.7663C142.033 17.201 141.457 17.5462 140.788 17.8018C140.124 18.0533 139.372 18.179 138.532 18.179C137.364 18.179 136.32 17.9148 135.4 17.3864C134.484 16.858 133.759 16.093 133.227 15.0916C132.698 14.0902 132.434 12.8778 132.434 11.4545C132.434 10.027 132.703 8.8125 133.239 7.81108C133.776 6.80966 134.505 6.04687 135.426 5.52273C136.346 4.99432 137.381 4.73011 138.532 4.73011C139.291 4.73011 139.994 4.83665 140.641 5.04972C141.293 5.26278 141.871 5.57386 142.374 5.98295C142.877 6.38778 143.286 6.88423 143.601 7.4723C143.921 8.06037 144.125 8.73366 144.215 9.49219ZM145.701 7.19105V4.90909H156.452V7.19105H152.444V18H149.709V7.19105H145.701Z" fill="#1A3899"/>
<path d="M10.505 30.9091H13.9183L17.5234 39.7045H17.6768L21.282 30.9091H24.6953V44H22.0107V35.4794H21.902L18.5142 43.9361H16.6861L13.2983 35.4474H13.1896V44H10.505V30.9091ZM29.2321 44H26.2662L30.7853 30.9091H34.3521L38.8649 44H35.899L32.6199 33.9006H32.5176L29.2321 44ZM29.0467 38.8544H36.0524V41.0149H29.0467V38.8544ZM47.2433 34.674C47.1921 34.1584 46.9727 33.7578 46.5849 33.4723C46.1971 33.1868 45.6708 33.044 45.006 33.044C44.5543 33.044 44.1729 33.108 43.8619 33.2358C43.5508 33.3594 43.3121 33.532 43.146 33.7536C42.984 33.9751 42.9031 34.2266 42.9031 34.5078C42.8945 34.7422 42.9435 34.9467 43.0501 35.1214C43.1609 35.2962 43.3121 35.4474 43.5039 35.5753C43.6957 35.6989 43.9173 35.8075 44.1687 35.9013C44.4201 35.9908 44.6886 36.0675 44.9741 36.1314L46.1502 36.4126C46.7212 36.5405 47.2454 36.7109 47.7227 36.924C48.1999 37.1371 48.6133 37.3991 48.9627 37.7102C49.3121 38.0213 49.5827 38.3878 49.7745 38.8097C49.9705 39.2315 50.0707 39.7152 50.0749 40.2607C50.0707 41.0618 49.8661 41.7564 49.4613 42.3445C49.0607 42.9283 48.4812 43.3821 47.7227 43.706C46.9684 44.0256 46.0586 44.1854 44.9933 44.1854C43.9364 44.1854 43.016 44.0234 42.2319 43.6996C41.4521 43.3757 40.8427 42.8963 40.4038 42.2614C39.9691 41.6222 39.7411 40.8317 39.7198 39.8899H42.3981C42.4279 40.3288 42.5536 40.6953 42.7752 40.9893C43.0011 41.2791 43.3015 41.4986 43.6765 41.6477C44.0558 41.7926 44.484 41.8651 44.9613 41.8651C45.43 41.8651 45.837 41.7969 46.1822 41.6605C46.5316 41.5241 46.8022 41.3345 46.994 41.0916C47.1857 40.8487 47.2816 40.5696 47.2816 40.2543C47.2816 39.9602 47.1942 39.7131 47.0195 39.5128C46.8491 39.3125 46.5977 39.142 46.2653 39.0014C45.9371 38.8608 45.5344 38.733 45.0572 38.6179L43.6317 38.2599C42.5281 37.9915 41.6566 37.5717 41.0174 37.0007C40.3782 36.4297 40.0607 35.6605 40.065 34.6932C40.0607 33.9006 40.2717 33.2081 40.6978 32.6158C41.1282 32.0234 41.7184 31.5611 42.4684 31.2287C43.2184 30.8963 44.0707 30.7301 45.0252 30.7301C45.9968 30.7301 46.8448 30.8963 47.5692 31.2287C48.2979 31.5611 48.8647 32.0234 49.2695 32.6158C49.6744 33.2081 49.8832 33.8942 49.896 34.674H47.2433ZM51.438 33.1911V30.9091H62.1895V33.1911H58.1816V44H55.4458V33.1911H51.438ZM63.96 44V30.9091H72.7811V33.1911H66.7278V36.3104H72.3272V38.5923H66.7278V41.718H72.8066V44H63.96ZM74.9815 44V30.9091H80.1463C81.1349 30.9091 81.9787 31.0859 82.6776 31.4396C83.3807 31.7891 83.9155 32.2855 84.282 32.929C84.6527 33.5682 84.8381 34.3203 84.8381 35.1854C84.8381 36.0547 84.6506 36.8026 84.2756 37.429C83.9006 38.0511 83.3572 38.5284 82.6456 38.8608C81.9382 39.1932 81.0817 39.3594 80.076 39.3594H76.6179V37.1349H79.6286C80.157 37.1349 80.5959 37.0625 80.9453 36.9176C81.2947 36.7727 81.5547 36.5554 81.7251 36.2656C81.8999 35.9759 81.9872 35.6158 81.9872 35.1854C81.9872 34.7507 81.8999 34.3842 81.7251 34.0859C81.5547 33.7876 81.2926 33.5618 80.9389 33.4084C80.5895 33.2507 80.1484 33.1719 79.6158 33.1719H77.7493V44H74.9815ZM82.0511 38.0426L85.3047 44H82.2493L79.0661 38.0426H82.0511ZM98.3445 35.4922H95.5447C95.4936 35.13 95.3892 34.8082 95.2315 34.527C95.0739 34.2415 94.8714 33.9986 94.6243 33.7983C94.3771 33.598 94.0916 33.4446 93.7678 33.3381C93.4482 33.2315 93.1009 33.1783 92.7259 33.1783C92.0483 33.1783 91.4581 33.3466 90.9553 33.6832C90.4524 34.0156 90.0625 34.5014 89.7855 35.1406C89.5085 35.7756 89.37 36.5469 89.37 37.4545C89.37 38.3878 89.5085 39.1719 89.7855 39.8068C90.0668 40.4418 90.4588 40.9212 90.9616 41.245C91.4645 41.5689 92.0462 41.7308 92.7067 41.7308C93.0774 41.7308 93.4205 41.6818 93.7358 41.5838C94.0554 41.4858 94.3388 41.343 94.5859 41.1555C94.8331 40.9638 95.0376 40.7315 95.1996 40.4588C95.3658 40.1861 95.4808 39.875 95.5447 39.5256L98.3445 39.5384C98.272 40.1392 98.0909 40.7188 97.8011 41.277C97.5156 41.831 97.13 42.3274 96.6442 42.7663C96.1626 43.201 95.5874 43.5462 94.9183 43.8018C94.2536 44.0533 93.5014 44.179 92.6619 44.179C91.4943 44.179 90.4503 43.9148 89.5298 43.3864C88.6136 42.858 87.8892 42.093 87.3565 41.0916C86.8281 40.0902 86.5639 38.8778 86.5639 37.4545C86.5639 36.027 86.8324 34.8125 87.3693 33.8111C87.9063 32.8097 88.6349 32.0469 89.5554 31.5227C90.4759 30.9943 91.5114 30.7301 92.6619 30.7301C93.4205 30.7301 94.1236 30.8366 94.7713 31.0497C95.4233 31.2628 96.0007 31.5739 96.5036 31.983C97.0064 32.3878 97.4155 32.8842 97.7308 33.4723C98.0504 34.0604 98.255 34.7337 98.3445 35.4922ZM102.339 44H99.3736L103.893 30.9091H107.46L111.972 44H109.006L105.727 33.9006H105.625L102.339 44ZM102.154 38.8544H109.16V41.0149H102.154V38.8544ZM113.548 44V30.9091H118.713C119.701 30.9091 120.545 31.0859 121.244 31.4396C121.947 31.7891 122.482 32.2855 122.848 32.929C123.219 33.5682 123.404 34.3203 123.404 35.1854C123.404 36.0547 123.217 36.8026 122.842 37.429C122.467 38.0511 121.924 38.5284 121.212 38.8608C120.505 39.1932 119.648 39.3594 118.642 39.3594H115.184V37.1349H118.195C118.723 37.1349 119.162 37.0625 119.512 36.9176C119.861 36.7727 120.121 36.5554 120.292 36.2656C120.466 35.9759 120.554 35.6158 120.554 35.1854C120.554 34.7507 120.466 34.3842 120.292 34.0859C120.121 33.7876 119.859 33.5618 119.505 33.4084C119.156 33.2507 118.715 33.1719 118.182 33.1719H116.316V44H113.548ZM120.618 38.0426L123.871 44H120.816L117.632 38.0426H120.618ZM130.001 44H125.36V30.9091H130.039C131.356 30.9091 132.49 31.1712 133.44 31.6953C134.39 32.2152 135.121 32.9631 135.632 33.9389C136.148 34.9148 136.406 36.0824 136.406 37.4418C136.406 38.8054 136.148 39.9773 135.632 40.9574C135.121 41.9375 134.386 42.6896 133.427 43.2138C132.473 43.7379 131.331 44 130.001 44ZM128.128 41.6286H129.886C130.704 41.6286 131.392 41.4837 131.951 41.1939C132.513 40.8999 132.935 40.446 133.216 39.8324C133.502 39.2145 133.645 38.4176 133.645 37.4418C133.645 36.4744 133.502 35.6839 133.216 35.0703C132.935 34.4567 132.515 34.005 131.957 33.7152C131.399 33.4254 130.711 33.2805 129.892 33.2805H128.128V41.6286ZM149.724 34.674C149.673 34.1584 149.453 33.7578 149.065 33.4723C148.678 33.1868 148.151 33.044 147.487 33.044C147.035 33.044 146.653 33.108 146.342 33.2358C146.031 33.3594 145.793 33.532 145.626 33.7536C145.464 33.9751 145.384 34.2266 145.384 34.5078C145.375 34.7422 145.424 34.9467 145.531 35.1214C145.641 35.2962 145.793 35.4474 145.984 35.5753C146.176 35.6989 146.398 35.8075 146.649 35.9013C146.901 35.9908 147.169 36.0675 147.455 36.1314L148.631 36.4126C149.202 36.5405 149.726 36.7109 150.203 36.924C150.68 37.1371 151.094 37.3991 151.443 37.7102C151.793 38.0213 152.063 38.3878 152.255 38.8097C152.451 39.2315 152.551 39.7152 152.555 40.2607C152.551 41.0618 152.347 41.7564 151.942 42.3445C151.541 42.9283 150.962 43.3821 150.203 43.706C149.449 44.0256 148.539 44.1854 147.474 44.1854C146.417 44.1854 145.496 44.0234 144.712 43.6996C143.933 43.3757 143.323 42.8963 142.884 42.2614C142.45 41.6222 142.222 40.8317 142.2 39.8899H144.879C144.908 40.3288 145.034 40.6953 145.256 40.9893C145.482 41.2791 145.782 41.4986 146.157 41.6477C146.536 41.7926 146.964 41.8651 147.442 41.8651C147.911 41.8651 148.317 41.7969 148.663 41.6605C149.012 41.5241 149.283 41.3345 149.474 41.0916C149.666 40.8487 149.762 40.5696 149.762 40.2543C149.762 39.9602 149.675 39.7131 149.5 39.5128C149.33 39.3125 149.078 39.142 148.746 39.0014C148.418 38.8608 148.015 38.733 147.538 38.6179L146.112 38.2599C145.009 37.9915 144.137 37.5717 143.498 37.0007C142.859 36.4297 142.541 35.6605 142.545 34.6932C142.541 33.9006 142.752 33.2081 143.178 32.6158C143.609 32.0234 144.199 31.5611 144.949 31.2287C145.699 30.8963 146.551 30.7301 147.506 30.7301C148.477 30.7301 149.325 30.8963 150.05 31.2287C150.778 31.5611 151.345 32.0234 151.75 32.6158C152.155 33.2081 152.364 33.8942 152.376 34.674H149.724ZM154.417 44V30.9091H163.238V33.1911H157.185V36.3104H162.784V38.5923H157.185V41.718H163.264V44H154.417ZM176.388 30.9091V44H173.998L168.302 35.7607H168.206V44H165.439V30.9091H167.868L173.518 39.142H173.633V30.9091H176.388ZM183.316 44H178.675V30.9091H183.354C184.671 30.9091 185.804 31.1712 186.754 31.6953C187.705 32.2152 188.436 32.9631 188.947 33.9389C189.463 34.9148 189.72 36.0824 189.72 37.4418C189.72 38.8054 189.463 39.9773 188.947 40.9574C188.436 41.9375 187.7 42.6896 186.742 43.2138C185.787 43.7379 184.645 44 183.316 44ZM181.443 41.6286H183.2C184.019 41.6286 184.707 41.4837 185.265 41.1939C185.828 40.8999 186.249 40.446 186.531 39.8324C186.816 39.2145 186.959 38.4176 186.959 37.4418C186.959 36.4744 186.816 35.6839 186.531 35.0703C186.249 34.4567 185.83 34.005 185.271 33.7152C184.713 33.4254 184.025 33.2805 183.207 33.2805H181.443V41.6286Z" fill="#CC0303"/>
</svg>
