<svg width="72" height="24" viewBox="0 0 72 24" fill="none" xmlns="http://www.w3.org/2000/svg">
<g clip-path="url(#clip0_10230_15811)">
<path d="M31.5287 4.03125V16.6064H27.832V4.03125H31.5287Z" fill="#29054B"/>
<path d="M44.6845 13.5328H41.6928V0H35.4816V3.07388H37.9739V13.5328H34.9023V16.6067H44.6845V13.5328Z" fill="#29054B"/>
<path d="M53.3226 8.80727C51.4284 8.43948 50.7646 8.21153 50.7646 7.61109C50.7646 6.94367 51.5671 6.57588 52.4731 6.57588C53.6246 6.57588 54.3813 6.82382 54.7174 7.96947H58.2096C57.9264 4.64531 55.1979 3.77344 52.3861 3.77344C49.2029 3.77344 47.0244 5.38088 47.0244 7.76149C47.0244 10.3912 48.9527 11.0481 51.9043 11.6861C53.5952 12.0515 54.5822 12.2889 54.5822 13.055C54.5822 13.8011 53.661 14.062 52.768 14.062C51.2463 14.062 50.1747 13.5438 50.1347 12.2724H46.6543C46.7177 15.3792 49.0655 16.8645 52.7844 16.8645C56.1626 16.8645 58.3 15.2864 58.3 12.746C58.3 10.6297 57.0474 9.52991 53.3226 8.80727Z" fill="#29054B"/>
<path d="M18.5653 3.77344C15.7323 3.77344 12.9581 4.85447 12.8006 8.17393H16.4044C16.5161 7.00712 17.3621 6.58998 18.4972 6.58998C19.6828 6.58998 20.5523 7.09055 20.5523 8.31845V9.08222H17.9825C14.0391 9.08222 12.2754 10.5992 12.2754 12.9822C12.2754 15.304 13.9768 16.8633 16.5654 16.8633C18.1376 16.8633 19.6969 16.304 20.7814 15.3804L21.0188 16.6059H24.249V8.51468C24.249 5.41613 22.1409 3.77344 18.5653 3.77344ZM20.5523 12.7401C19.684 13.3781 18.7005 13.9116 17.3327 13.9116C16.4421 13.9116 15.9086 13.4275 15.9086 12.8106C15.9086 11.9399 16.663 11.5604 17.9778 11.5604H20.5535V12.7401H20.5523Z" fill="#29054B"/>
<path d="M7.98146 4.03125C6.46214 4.03125 5.26596 4.65049 4.28364 5.60814L3.96638 4.03125H0.777344V16.6064H4.47399V8.85358C5.14023 7.92883 6.14841 7.42356 8.38567 7.42356H10.59V4.03125H7.98146Z" fill="#29054B"/>
<path d="M68.6162 4.03125C67.0969 4.03125 65.9007 4.65049 64.9184 5.60814L64.6011 4.03125H61.4121V16.6064H65.1088V8.85358C65.775 7.92883 66.7832 7.42356 69.0204 7.42356H71.2248V4.03125H68.6162Z" fill="#29054B"/>
<path d="M71.2267 20.3047V24.0013H0.775391V20.3047H71.2267Z" fill="#DC1982"/>
</g>
<defs>
<clipPath id="clip0_10230_15811">
<rect width="70.4513" height="24" fill="white" transform="translate(0.773438)"/>
</clipPath>
</defs>
</svg>
