<svg width="322" height="312" viewBox="0 -48 322 312" fill="none" xmlns="http://www.w3.org/2000/svg">
<g clip-path="url(#clip0_7666_6574)">
<path d="M94.5531 59.6114C88.1424 85.326 62.0977 100.975 36.3801 94.5629C10.6733 88.1522 -4.97603 62.1059 1.43753 36.3935C7.84546 10.6761 33.8901 -4.97442 59.5997 1.43632C85.3154 7.84707 100.964 33.8962 94.5524 59.6119L94.5529 59.6114H94.5531Z" fill="#F7931A"/>
<path d="M69.0548 41.3137C70.0102 34.9259 65.147 31.4923 58.4969 29.2017L60.6542 20.5489L55.387 19.2364L53.2869 27.6614C51.9022 27.316 50.4802 26.9906 49.0668 26.668L51.1822 18.1875L45.9182 16.875L43.7597 25.525C42.6139 25.2641 41.4884 25.0062 40.3965 24.7345L40.4026 24.7073L33.139 22.8935L31.7378 28.5192C31.7378 28.5192 35.6457 29.4149 35.5633 29.4701C37.6962 30.0024 38.0819 31.4144 38.0179 32.5335L35.5605 42.3911C35.7074 42.4284 35.8979 42.4823 36.1081 42.5668C35.9324 42.5231 35.7454 42.4755 35.5513 42.4291L32.1069 56.2381C31.8462 56.8861 31.1846 57.8586 29.6934 57.4893C29.7461 57.5658 25.8651 56.5339 25.8651 56.5339L23.25 62.5632L30.1044 64.2719C31.3796 64.5917 32.6292 64.9263 33.8597 65.2409L31.6801 73.9929L36.9412 75.3054L39.0997 66.6463C40.537 67.0364 41.9318 67.3963 43.2973 67.7356L41.1461 76.3539L46.4135 77.6663L48.5929 68.9308C57.5746 70.6306 64.3281 69.9452 67.1708 61.8213C69.4614 55.2806 67.0568 51.5079 62.3315 49.0477C65.7732 48.254 68.3655 45.9904 69.0567 41.3144L69.055 41.3132L69.0548 41.3137ZM57.0204 58.1889C55.3927 64.7296 44.3801 61.1939 40.8096 60.3073L43.702 48.7124C47.2722 49.6037 58.7217 51.3676 57.0207 58.1889H57.0204ZM58.6494 41.2189C57.1645 47.1684 47.9986 44.1458 45.0253 43.4046L47.6476 32.8887C50.621 33.6299 60.1963 35.0132 58.6499 41.2189H58.6494Z" fill="white"/>
</g>
<g clip-path="url(#clip1_7666_6574)">
<path d="M156 96C182.6 96 204 74.6002 204 48C204 21.3998 182.6 0 156 0C129.4 0 108 21.3998 108 48C108 74.6002 129.4 96 156 96Z" fill="#2775CA"/>
<path d="M169.198 55.5984C169.198 48.5986 164.998 46.1986 156.598 45.1988C150.598 44.3986 149.398 42.7988 149.398 39.9984C149.398 37.1981 151.398 35.3986 155.398 35.3986C158.998 35.3986 160.998 36.5986 161.998 39.5986C162.198 40.1986 162.798 40.5984 163.398 40.5984H166.598C167.398 40.5984 167.998 39.9984 167.998 39.1988V38.9986C167.198 34.5984 163.598 31.1986 158.998 30.7988V25.9988C158.998 25.1986 158.398 24.5986 157.398 24.3984H154.398C153.598 24.3984 152.998 24.9984 152.798 25.9988V30.5986C146.798 31.3988 142.998 35.3986 142.998 40.3988C142.998 46.9988 146.998 49.5984 155.398 50.5988C160.998 51.5986 162.798 52.7986 162.798 55.9988C162.798 59.1989 159.998 61.3988 156.198 61.3988C150.998 61.3988 149.198 59.1984 148.598 56.1984C148.398 55.3988 147.798 54.9984 147.198 54.9984H143.798C142.998 54.9984 142.398 55.5984 142.398 56.3986V56.5988C143.198 61.5984 146.398 65.1984 152.998 66.1988V70.9988C152.998 71.7984 153.598 72.3984 154.598 72.5986H157.598C158.398 72.5986 158.998 71.9986 159.198 70.9988V66.1988C165.198 65.1984 169.198 60.9984 169.198 55.5984Z" fill="white"/>
<path d="M145.804 76.5997C130.204 71 122.204 53.6 128.004 38.1997C131.004 29.7997 137.604 23.3998 145.804 20.3998C146.604 20 147.004 19.4 147.004 18.3997V15.5998C147.004 14.7997 146.604 14.1997 145.804 14C145.604 14 145.204 14 145.004 14.1997C126.004 20.1997 115.604 40.4 121.604 59.3998C125.204 70.5997 133.804 79.1998 145.004 82.7998C145.804 83.1997 146.604 82.7998 146.804 81.9997C147.004 81.8 147.004 81.5998 147.004 81.2V78.3997C147.004 77.7997 146.404 77 145.804 76.5997ZM167.004 14.1997C166.204 13.7998 165.404 14.1997 165.204 14.9998C165.004 15.2 165.004 15.3997 165.004 15.8V18.5998C165.004 19.4 165.604 20.1997 166.204 20.6C181.804 26.1997 189.804 43.5997 184.004 59C181.004 67.4 174.404 73.7998 166.204 76.7998C165.404 77.1997 165.004 77.7997 165.004 78.8V81.5998C165.004 82.4 165.404 83 166.204 83.1997C166.404 83.1997 166.804 83.1997 167.004 83C186.004 77 196.404 56.7997 190.404 37.7998C186.804 26.3998 178.004 17.7997 167.004 14.1997Z" fill="white"/>
</g>
<rect x="216" width="96" height="96" rx="48" fill="#ECEFF0"/>
<path d="M263.979 3L263.375 5.05098V64.5604L263.979 65.1628L291.602 48.8346L263.979 3Z" fill="#343434"/>
<path d="M263.983 3L236.359 48.8346L263.983 65.1628V36.2786V3Z" fill="#8C8C8C"/>
<path d="M263.981 70.3901L263.641 70.8051V92.0032L263.981 92.9966L291.621 54.0703L263.981 70.3901Z" fill="#3C3C3B"/>
<path d="M263.983 92.9966V70.3901L236.359 54.0703L263.983 92.9966Z" fill="#8C8C8C"/>
<path d="M263.984 65.1616L291.607 48.8333L263.984 36.2773V65.1616Z" fill="#141414"/>
<path d="M236.359 48.8333L263.983 65.1616V36.2773L236.359 48.8333Z" fill="#393939"/>
<g clip-path="url(#clip2_7666_6574)">
<path fill-rule="evenodd" clip-rule="evenodd" d="M48 108C74.5115 108 96 129.488 96 156C96 182.512 74.5115 204 48 204C21.4885 204 0 182.512 0 156C0 129.488 21.4885 108 48 108Z" fill="#F0B90B"/>
<path d="M26.3823 155.998L26.4169 168.69L37.2016 175.037V182.467L20.1054 172.44V152.287L26.3823 155.998ZM26.3823 143.306V150.702L20.1016 146.987V139.59L26.3823 135.875L32.6939 139.59L26.3823 143.306ZM41.7054 139.59L47.9862 135.875L54.2977 139.59L47.9862 143.306L41.7054 139.59Z" fill="white"/>
<path d="M30.9219 166.06V158.629L37.2026 162.344V169.74L30.9219 166.06ZM41.7065 177.698L47.9873 181.413L54.2988 177.698V185.094L47.9873 188.81L41.7065 185.094V177.698ZM63.3065 139.59L69.5873 135.875L75.8988 139.59V146.987L69.5873 150.702V143.306L63.3065 139.59ZM69.5873 168.69L69.6219 155.998L75.9026 152.283V172.437L58.8065 182.463V175.033L69.5873 168.69Z" fill="white"/>
<path d="M65.0776 166.06L58.7969 169.74V162.344L65.0776 158.629V166.06Z" fill="white"/>
<path d="M65.0834 145.938L65.118 153.368L54.3026 159.714V172.438L48.0219 176.118L41.7411 172.438V159.714L30.9257 153.368V145.938L37.2334 142.222L47.9834 148.599L58.7988 142.222L65.1103 145.938H65.0834ZM30.9219 133.249L47.9873 123.188L65.0834 133.249L58.8026 136.964L47.9873 130.588L37.2026 136.964L30.9219 133.249Z" fill="white"/>
</g>
<g clip-path="url(#clip3_7666_6574)">
<path fill-rule="evenodd" clip-rule="evenodd" d="M125.598 114.641L108.072 151.455C108.005 151.592 107.984 151.747 108.012 151.897C108.039 152.047 108.114 152.184 108.225 152.288L155.559 197.646C155.694 197.775 155.873 197.847 156.059 197.847C156.246 197.847 156.425 197.775 156.559 197.646L203.894 152.291C204.005 152.186 204.079 152.049 204.107 151.9C204.134 151.75 204.113 151.595 204.047 151.458L186.52 114.644C186.464 114.52 186.373 114.416 186.258 114.342C186.144 114.269 186.01 114.23 185.875 114.231H126.25C126.113 114.229 125.979 114.267 125.863 114.34C125.748 114.412 125.656 114.517 125.598 114.641Z" fill="#50AF95"/>
<path fill-rule="evenodd" clip-rule="evenodd" d="M162.144 155.234C161.804 155.259 160.048 155.364 156.131 155.364C153.016 155.364 150.805 155.271 150.029 155.234C137.991 154.704 129.005 152.609 129.005 150.1C129.005 147.591 137.991 145.498 150.029 144.96V153.147C150.816 153.203 153.07 153.336 156.185 153.336C159.923 153.336 161.795 153.181 162.132 153.15V144.966C174.145 145.501 183.111 147.596 183.111 150.1C183.111 152.603 174.148 154.699 162.132 155.231L162.144 155.234ZM162.144 144.119V136.793H178.908V125.621H133.264V136.793H150.026V144.116C136.402 144.742 126.156 147.441 126.156 150.675C126.156 153.909 136.402 156.604 150.026 157.233V180.709H162.141V157.225C175.734 156.599 185.962 153.903 185.962 150.672C185.962 147.441 175.742 144.745 162.141 144.116L162.144 144.119Z" fill="white"/>
</g>
<g filter="url(#filter0_d_7666_6574)">
<path d="M264 204C290.51 204 312 182.51 312 156C312 129.49 290.51 108 264 108C237.49 108 216 129.49 216 156C216 182.51 237.49 204 264 204Z" fill="black"/>
</g>
<path d="M280.563 166.465C280.165 166.288 279.733 166.197 279.297 166.201C278.92 166.201 278.545 166.265 278.189 166.39C277.53 166.679 276.943 167.11 276.47 167.652C276.274 167.858 276.066 168.051 275.846 168.23C272.823 170.498 270.029 171.549 266.647 171.685V141.294C269.644 141.694 271.81 142.892 273.072 144.865C273.342 145.324 273.573 145.804 273.764 146.302C274.051 147.1 274.454 147.851 274.962 148.531C275.018 148.603 275.245 148.853 275.287 148.909C275.832 149.431 276.561 149.718 277.316 149.707C277.726 149.714 278.132 149.632 278.507 149.466C278.882 149.301 279.216 149.055 279.486 148.747C280.058 147.973 280.346 147.025 280.302 146.063C280.302 145.534 280.344 145.187 280.363 144.93C280.41 144.426 280.403 143.919 280.34 143.418C280.019 140.662 279.248 140.133 276.852 138.882L276.096 138.485C272.441 136.524 270.294 136.074 266.669 135.594C267.029 129.997 268.132 128.035 269.296 126.78C269.66 126.409 270.095 126.117 270.577 125.922C271.058 125.727 271.574 125.633 272.093 125.646C272.278 125.646 272.462 125.658 272.645 125.68C271.511 127.646 271.802 129.721 273.401 131.078C274.32 131.773 275.45 132.131 276.602 132.09C277.626 132.131 278.635 131.835 279.475 131.248C281.534 129.604 281.534 126.674 280.351 124.909C278.972 122.924 276.876 121.553 274.504 121.084C272.327 120.625 270.065 120.785 267.974 121.546C265.883 122.307 264.047 123.638 262.675 125.389L262.527 125.571C261.541 126.758 258.993 129.823 258.774 135.568C247.133 138.085 240.734 145.251 240.734 155.826C240.734 162.289 243.1 173.59 258.778 177.502C258.778 177.717 258.778 177.932 258.778 178.14C258.706 180.366 258.657 181.976 257.368 184.441C257.02 185.031 256.521 185.518 255.924 185.854C255.327 186.19 254.652 186.362 253.967 186.353C253.713 186.355 253.459 186.331 253.211 186.281C253.507 185.646 253.644 184.948 253.607 184.248C253.59 183.654 253.436 183.073 253.157 182.549C252.879 182.024 252.483 181.571 252.001 181.224C251.97 181.202 251.937 181.182 251.903 181.164C251.099 180.693 250.189 180.433 249.257 180.408C248.144 180.425 247.079 180.863 246.277 181.635C245.475 182.407 244.996 183.454 244.937 184.565C244.921 185.303 245.051 186.037 245.32 186.724C245.589 187.411 245.992 188.038 246.506 188.568C247.323 189.525 248.343 190.287 249.491 190.8C250.64 191.312 251.889 191.562 253.146 191.531C254.163 191.52 255.175 191.41 256.17 191.202C260.528 190.129 263.706 187.366 265.619 182.989C266.276 181.478 266.503 178.926 266.575 177.57C268.959 177.319 271.289 176.697 273.48 175.725C278.076 173.612 279.527 172.123 280.661 170.929L280.96 170.619C282.052 169.485 281.999 168.461 281.761 167.777C281.551 167.198 281.12 166.727 280.563 166.465ZM258.801 156.57C258.801 161.559 258.801 166.53 258.801 171.424C253.887 169.992 250.527 164.201 250.527 156.835C250.527 150.807 252.005 143.414 258.842 141.449C258.812 146.468 258.804 151.529 258.801 156.57Z" fill="white"/>
<defs>
<filter id="filter0_d_7666_6574" x="206" y="102" width="116" height="116" filterUnits="userSpaceOnUse" color-interpolation-filters="sRGB">
<feFlood flood-opacity="0" result="BackgroundImageFix"/>
<feColorMatrix in="SourceAlpha" type="matrix" values="0 0 0 0 0 0 0 0 0 0 0 0 0 0 0 0 0 0 127 0" result="hardAlpha"/>
<feOffset dy="4"/>
<feGaussianBlur stdDeviation="5"/>
<feColorMatrix type="matrix" values="0 0 0 0 0 0 0 0 0 0 0 0 0 0 0 0 0 0 0.15 0"/>
<feBlend mode="normal" in2="BackgroundImageFix" result="effect1_dropShadow_7666_6574"/>
<feBlend mode="normal" in="SourceGraphic" in2="effect1_dropShadow_7666_6574" result="shape"/>
</filter>
<clipPath id="clip0_7666_6574">
<rect width="96" height="96" fill="white"/>
</clipPath>
<clipPath id="clip1_7666_6574">
<rect width="96" height="96" fill="white" transform="translate(108)"/>
</clipPath>
<clipPath id="clip2_7666_6574">
<rect width="96" height="96" fill="white" transform="translate(0 108)"/>
</clipPath>
<clipPath id="clip3_7666_6574">
<rect width="96" height="96" fill="white" transform="translate(108 108)"/>
</clipPath>
</defs>
</svg>
