<svg width="132" height="82" viewBox="0 0 132 82" fill="none" xmlns="http://www.w3.org/2000/svg">
<g clip-path="url(#clip0_10237_18457)">
<path d="M25.6394 0H58.3259C62.8887 0 65.7265 3.71903 64.6621 8.29691L49.4442 73.6333C48.3703 78.1953 43.8019 81.9175 39.236 81.9175H6.55266C1.99629 81.9175 -0.847955 78.1953 0.216447 73.6333L15.4407 8.29691C16.5051 3.71903 21.0711 0 25.6394 0Z" fill="#E21836"/>
<path d="M55.6071 0H93.1957C97.7577 0 95.7006 3.71903 94.6274 8.29691L79.4119 73.6333C78.3443 78.1953 78.6773 81.9175 74.1058 81.9175H36.5172C31.9456 81.9175 29.1165 78.1953 30.1905 73.6333L45.4052 8.29691C46.4856 3.71903 51.0419 0 55.6071 0Z" fill="#00447C"/>
<path d="M91.7032 0H124.39C128.959 0 131.797 3.71903 130.724 8.29691L115.508 73.6333C114.434 78.1953 109.863 81.9175 105.294 81.9175H72.6228C68.0513 81.9175 65.2158 78.1953 66.2866 73.6333L81.5045 8.29691C82.5689 3.71903 87.1317 0 91.7032 0Z" fill="#007B84"/>
<path d="M34.1762 20.9357C30.8149 20.9699 29.8222 20.9357 29.5051 20.8608C29.3832 21.44 27.115 31.9032 27.1086 31.9119C26.6202 34.0288 26.2649 35.5377 25.0579 36.5121C24.3727 37.0786 23.5728 37.3518 22.6454 37.3518C21.1548 37.3518 20.2864 36.6117 20.1406 35.2079L20.1127 34.7259C20.1127 34.7259 20.5668 31.8904 20.5668 31.8745C20.5668 31.8745 22.9474 22.3395 23.3736 21.0791C23.3959 21.0074 23.4023 20.9699 23.4079 20.9357C18.7742 20.9763 17.9528 20.9357 17.8963 20.8608C17.8652 20.9636 17.7505 21.5547 17.7505 21.5547L15.3197 32.3015L15.111 33.2129L14.707 36.1942C14.707 37.0786 14.8807 37.8004 15.2265 38.4107C16.3339 40.3459 19.4929 40.6359 21.2799 40.6359C23.5824 40.6359 25.7422 40.1467 27.2018 39.2536C29.7353 37.7566 30.3982 35.4166 30.9893 33.3372L31.2634 32.2704C31.2634 32.2704 33.7157 22.3674 34.1324 21.0791C34.1483 21.0074 34.1547 20.9699 34.1762 20.9357ZM42.5199 28.9246C41.9287 28.9246 40.8484 29.068 39.878 29.5436C39.5258 29.7245 39.1928 29.9332 38.8415 30.1412L39.1585 28.9963L38.9849 28.8035C36.927 29.2202 36.4665 29.2759 34.5655 29.5436L34.4062 29.6496C34.1855 31.4796 33.9895 32.8555 33.1713 36.4527C32.8598 37.7784 32.5363 39.1169 32.2121 40.4394L32.2997 40.6075C34.2476 40.5047 34.8388 40.5047 36.5318 40.5326L36.6688 40.3836C36.8839 39.2818 36.9118 39.0236 37.3883 36.7921C37.6121 35.734 38.079 33.4092 38.3093 32.5815C38.7323 32.3855 39.1498 32.1927 39.5481 32.1927C40.497 32.1927 40.3815 33.0205 40.3448 33.3503C40.3042 33.904 39.9584 35.7125 39.6039 37.2653L39.3673 38.2676C39.2024 39.0077 39.0215 39.7271 38.8566 40.4609L38.9283 40.6075C40.8484 40.5047 41.4339 40.5047 43.0736 40.5326L43.2664 40.3836C43.5627 38.6627 43.6496 38.2022 44.1754 35.6966L44.4399 34.5454C44.9538 32.2923 45.2119 31.1498 44.8231 30.2192C44.412 29.1763 43.4257 28.9246 42.5199 28.9246ZM51.8407 31.2836C50.8201 31.4795 50.1692 31.6102 49.5223 31.6947C48.8809 31.7974 48.2555 31.8906 47.2692 32.0277L47.1911 32.0986L47.1194 32.1552C47.0166 32.8897 46.9449 33.5247 46.8087 34.2712C46.6932 35.0432 46.5155 35.9204 46.2263 37.1808C46.0024 38.1456 45.8869 38.4818 45.7594 38.8212C45.6351 39.1606 45.4981 39.4904 45.2463 40.4393L45.3053 40.527L45.3547 40.6074C46.2765 40.5636 46.8796 40.5325 47.4994 40.527C48.1185 40.5046 48.7598 40.527 49.7525 40.5325L49.8394 40.4616L49.9326 40.3835C50.076 39.5279 50.0975 39.2976 50.1851 38.8802C50.272 38.4324 50.4218 37.8126 50.789 36.157C50.9627 35.3794 51.1563 34.6042 51.3364 33.8107C51.5236 33.0204 51.7196 32.242 51.906 31.4644L51.8781 31.3704L51.8407 31.2836ZM51.8624 28.1029C50.9351 27.5556 49.3074 27.7293 48.2119 28.4854C47.1196 29.2263 46.9954 30.2779 47.9195 30.8325C48.831 31.3647 50.465 31.2061 51.5509 30.4437C52.6408 29.6868 52.7771 28.6447 51.8624 28.1029ZM57.4709 40.779C59.3471 40.779 61.2704 40.2619 62.718 38.7274C63.8318 37.483 64.3425 35.6314 64.5193 34.869C65.0954 32.3418 64.6468 31.1619 64.0835 30.4433C63.2279 29.3478 61.7157 28.9964 60.147 28.9964C59.2037 28.9964 56.957 29.0897 55.2018 30.7078C53.9415 31.8749 53.3591 33.4588 53.0077 34.9773C52.6532 36.5245 52.2453 39.3098 54.8067 40.3463C55.597 40.6857 56.7363 40.779 57.4709 40.779ZM57.3243 35.0928C57.7569 33.1792 58.2676 31.573 59.571 31.573C60.5924 31.573 60.6665 32.7681 60.2123 34.6881C60.1311 35.1144 59.7582 36.699 59.2539 37.3738C58.9018 37.8718 58.4851 38.1737 58.0246 38.1737C57.8876 38.1737 57.0725 38.1737 57.0598 36.9635C57.0534 36.366 57.1753 35.7557 57.3243 35.0928ZM69.2096 40.5328L69.3562 40.3839C69.5641 39.282 69.5984 39.0231 70.0589 36.7923C70.2891 35.7343 70.7655 33.4095 70.9894 32.5817C71.4133 32.3849 71.8236 32.1921 72.2347 32.1921C73.1772 32.1921 73.0624 33.0199 73.025 33.3497C72.9907 33.9042 72.645 35.712 72.2841 37.2648L72.0602 38.267C71.8889 39.008 71.7025 39.7266 71.5375 40.4611L71.6092 40.6077C73.5357 40.505 74.099 40.505 75.7481 40.5328L75.9473 40.3839C76.2365 38.6622 76.3146 38.2017 76.8564 35.6968L77.1145 34.5448C77.6308 32.2917 77.8921 31.15 77.5097 30.2195C77.0866 29.1766 76.0939 28.9248 75.2008 28.9248C74.6089 28.9248 73.5229 29.0674 72.5581 29.5439C72.2132 29.7247 71.8674 29.9327 71.528 30.1414L71.8236 28.9965L71.665 28.8029C69.6079 29.2204 69.1379 29.2762 67.2393 29.5439L67.0935 29.6498C66.8633 31.4799 66.676 32.855 65.8578 36.4529C65.5463 37.7786 65.2228 39.1171 64.8994 40.4396L64.9862 40.6077C66.9374 40.505 67.5198 40.505 69.2096 40.5328ZM83.3635 40.6073C83.4846 40.0162 84.204 36.5123 84.2104 36.5123C84.2104 36.5123 84.823 33.9413 84.8605 33.8481C84.8605 33.8481 85.0533 33.5804 85.2461 33.4744H85.5297C88.2059 33.4744 91.2278 33.4744 93.5964 31.732C95.2081 30.537 96.31 28.7723 96.8015 26.6275C96.929 26.1017 97.023 25.4763 97.023 24.8509C97.023 24.0295 96.8581 23.2168 96.3817 22.5818C95.1739 20.892 92.7686 20.8609 89.9921 20.8482C89.9833 20.8482 88.6233 20.8609 88.6233 20.8609C85.0692 20.9048 83.6439 20.892 83.0583 20.8203C83.0089 21.0792 82.9157 21.5397 82.9157 21.5397C82.9157 21.5397 81.6426 27.4402 81.6426 27.4497C81.6426 27.4497 78.596 39.9947 78.4526 40.5858C81.5557 40.5484 82.8281 40.5484 83.3635 40.6073ZM85.7225 30.1259C85.7225 30.1259 87.0761 24.2374 87.0698 24.2597L87.1136 23.9577L87.1327 23.7275L87.6737 23.7833C87.6737 23.7833 90.4653 24.0231 90.5307 24.0294C91.6325 24.4557 92.0866 25.5543 91.7695 26.9884C91.4803 28.299 90.6302 29.4009 89.538 29.9331C88.6385 30.384 87.5366 30.4214 86.4013 30.4214H85.6668L85.7225 30.1259ZM94.1504 35.2019C93.7927 36.7268 93.3816 39.5121 95.9303 40.5048C96.7429 40.8506 97.4711 40.9534 98.2112 40.9159C98.9928 40.8737 99.717 40.4817 100.388 39.9176C100.327 40.1495 100.267 40.3813 100.206 40.614L100.322 40.7629C102.155 40.6857 102.724 40.6857 104.71 40.7008L104.89 40.5638C105.18 38.8588 105.453 37.2032 106.207 33.9415C106.574 32.3792 106.941 30.832 107.318 29.276L107.259 29.1047C105.208 29.4847 104.66 29.566 102.687 29.8457L102.537 29.9676C102.517 30.1261 102.497 30.2783 102.478 30.4304C102.171 29.9349 101.726 29.5118 101.04 29.2481C100.163 28.9031 98.1029 29.3477 96.3318 30.9602C95.0873 32.1115 94.4898 33.689 94.1504 35.2019ZM98.4574 35.2951C98.8964 33.4157 99.4007 31.8255 100.707 31.8255C101.534 31.8255 101.969 32.5879 101.88 33.8882C101.81 34.2124 101.734 34.5542 101.644 34.9406C101.514 35.4991 101.372 36.0528 101.234 36.6073C101.094 36.9865 100.93 37.3443 100.751 37.5825C100.415 38.0589 99.615 38.3545 99.1545 38.3545C99.0239 38.3545 98.2176 38.3545 98.1897 37.1658C98.1834 36.5739 98.3052 35.9644 98.4574 35.2951ZM120.949 29.0895L120.79 28.9086C118.761 29.3197 118.394 29.3851 116.53 29.6368L116.393 29.7739C116.386 29.7962 116.381 29.8304 116.371 29.8615L116.365 29.8304C114.977 33.0324 115.017 32.3417 113.888 34.8624C113.881 34.7477 113.881 34.676 113.875 34.5541L113.592 29.0895L113.414 28.9086C111.289 29.3197 111.239 29.3851 109.276 29.6368L109.123 29.7739C109.101 29.8392 109.101 29.9109 109.088 29.989L109.101 30.0169C109.346 31.2709 109.287 30.9912 109.534 32.9703C109.648 33.9414 109.801 34.9182 109.916 35.8774C110.11 37.4828 110.218 38.2732 110.455 40.723C109.129 42.9108 108.815 43.7386 107.539 45.6586L107.547 45.6778L106.649 47.0991C106.546 47.2489 106.453 47.3516 106.322 47.3955C106.179 47.4664 105.992 47.4791 105.733 47.4791H105.235L104.495 49.9409L107.034 49.9848C108.525 49.9784 109.462 49.2813 109.966 48.3443L111.563 45.6084H111.537L111.705 45.4156C112.779 43.1036 120.949 29.0895 120.949 29.0895ZM94.1503 61.4219H93.0732L97.0599 48.2356H98.3824L98.8023 46.8772L98.8429 48.3878C98.7935 49.3215 99.5281 50.1493 101.458 50.0122H103.689L104.457 47.4731H103.618C103.135 47.4731 102.911 47.3512 102.939 47.0899L102.898 45.5531H98.7657V45.561C97.4296 45.5889 93.4397 45.6893 92.6318 45.9044C91.6543 46.1562 90.6241 46.8971 90.6241 46.8971L91.0288 45.5371H87.1632L86.3577 48.2356L82.3176 61.6235H81.5337L80.7649 64.1442H88.4642L88.2061 64.9848H92L92.2518 64.1442H93.3162L94.1503 61.4219ZM90.9914 50.9149C90.3724 51.0862 89.2203 51.6057 89.2203 51.6057L90.2449 48.2356H93.3162L92.5752 50.691C92.5752 50.691 91.6264 50.7468 90.9914 50.9149ZM91.0503 55.7294C91.0503 55.7294 90.0855 55.8505 89.4506 55.9939C88.8251 56.1835 87.6524 56.7811 87.6524 56.7811L88.7104 53.274H91.7977L91.0503 55.7294ZM89.3295 61.453H86.2486L87.1417 58.4932H90.213L89.3295 61.453ZM96.7489 53.274H101.19L100.552 55.3406H96.0518L95.3762 57.6001H99.3135L96.3322 61.7979C96.1235 62.1063 95.9362 62.2154 95.7283 62.3022C95.5196 62.4082 95.2455 62.5325 94.9284 62.5325H93.8361L93.0856 65.0071H95.9426C97.4277 65.0071 98.3048 64.3315 98.9526 63.4447L100.997 60.6467L101.436 63.4877C101.529 64.0199 101.912 64.3315 102.17 64.4526C102.456 64.596 102.752 64.8422 103.17 64.8788C103.617 64.8979 103.941 64.9131 104.156 64.9131H105.56L106.403 62.1437H105.849C105.531 62.1437 104.984 62.0903 104.89 61.9907C104.797 61.8696 104.797 61.6832 104.747 61.3996L104.302 58.5521H102.478L103.278 57.6001H107.769L108.46 55.3406H104.302L104.949 53.274H109.095L109.863 50.7253H97.505L96.7489 53.274ZM59.2413 62.0284L60.2778 58.5803H64.5378L65.3162 56.0157H61.0522L61.7031 53.8932H65.8699L66.6419 51.4099H56.2162L55.4601 53.8932H57.8288L57.197 56.0157H54.822L54.0348 58.6241H56.4026L55.0212 63.186C54.8347 63.7899 55.1088 64.0202 55.2825 64.3006C55.4601 64.5739 55.6402 64.7548 56.0449 64.8575C56.4624 64.9507 56.7484 65.0065 57.1372 65.0065H61.9398L62.7954 62.1655L60.6666 62.4578C60.2555 62.4578 59.117 62.4085 59.2413 62.0284ZM59.7299 45.5216L58.6504 47.4727C58.4194 47.899 58.2114 48.1635 58.0242 48.2854C57.8593 48.3881 57.5326 48.4312 57.0594 48.4312H56.4961L55.7432 50.9273H57.6139C58.5134 50.9273 59.2041 50.5974 59.5339 50.4325C59.8885 50.2429 59.9817 50.3512 60.2558 50.0867L60.8876 49.5394H66.729L67.5042 46.9405H63.2283L63.9748 45.5216H59.7299ZM68.3538 62.0785C68.2542 61.9351 68.3259 61.6826 68.4781 61.1567L70.0747 55.8722H75.7544C76.5822 55.8602 77.1798 55.8507 77.5685 55.8228C77.986 55.779 78.4401 55.63 78.9349 55.3623C79.4456 55.0818 79.7069 54.7863 79.9276 54.4469C80.1738 54.1083 80.5689 53.3673 80.9083 52.2249L82.9152 45.5373L77.0212 45.5716C77.0212 45.5716 75.2063 45.8392 74.4072 46.1348C73.6009 46.4647 72.4489 47.3857 72.4489 47.3857L72.9811 45.5524H69.3401L64.2428 62.4578C64.062 63.1143 63.9409 63.5907 63.913 63.8767C63.9034 64.185 64.3018 64.4902 64.5599 64.7204C64.865 64.9507 65.316 64.9132 65.7486 64.9507C66.2035 64.9849 66.8504 65.0064 67.7435 65.0064H70.5416L71.4004 62.1064L68.8956 62.343C68.6279 62.343 68.4343 62.1996 68.3538 62.0785ZM71.1049 52.3029H77.0706L76.6914 53.4916C76.638 53.5195 76.5105 53.4327 75.9034 53.5044H70.7376L71.1049 52.3029ZM72.2999 48.3162H78.3159L77.8832 49.7479C77.8832 49.7479 75.0478 49.72 74.5936 49.8037C72.5955 50.1494 71.4283 51.217 71.4283 51.217L72.2999 48.3162ZM76.8249 57.4722C76.7755 57.6499 76.6974 57.7582 76.5883 57.8395C76.4672 57.9176 76.2712 57.9455 75.9788 57.9455H75.1287L75.1789 56.4978H71.6431L71.4997 63.575C71.4941 64.0857 71.5435 64.3813 71.9172 64.6179C72.2908 64.9135 73.4421 64.9509 74.9917 64.9509H77.2073L78.0072 62.3018L76.0784 62.4078L75.437 62.4453C75.3494 62.4078 75.2657 62.3736 75.1725 62.2803C75.0913 62.1999 74.9542 62.2493 74.9765 61.7386L74.9917 59.9245L77.0145 59.8408C78.1068 59.8408 78.5737 59.4855 78.972 59.1469C79.3521 58.8226 79.4763 58.4498 79.6198 57.9455L79.9591 56.3393H77.1794L76.8249 57.4722Z" fill="#FEFEFE"/>
</g>
<defs>
<clipPath id="clip0_10237_18457">
<rect width="131.2" height="82" fill="white"/>
</clipPath>
</defs>
</svg>
