<svg width="320" height="64" viewBox="0 0 320 64" fill="none" xmlns="http://www.w3.org/2000/svg">
<mask id="mask0_10237_18158" style="mask-type:luminance" maskUnits="userSpaceOnUse" x="0" y="0" width="320" height="63">
<path d="M0 0H320V62.8526H0V0Z" fill="white"/>
</mask>
<g mask="url(#mask0_10237_18158)">
<path d="M282.503 62.784H272.482V39.3394C272.482 32.9783 268.475 27.9337 261.854 27.9337C255.058 27.9337 251.051 33.0034 251.051 39.3394V62.784H241.026V39.2594C241.026 26.5394 249.216 18.3497 261.851 18.3497C274.395 18.3497 282.501 26.5394 282.501 39.2594L282.503 62.7817V62.784ZM202.853 23.5154C199.511 20.1326 194.8 18.3451 189.23 18.3451C186.443 18.3109 183.675 18.8206 181.081 19.84C178.946 20.6949 177.01 21.9817 175.397 23.6206C173.799 21.984 171.88 20.6966 169.76 19.84C167.186 18.8183 164.437 18.3109 161.669 18.3451C156.057 18.3451 151.312 20.1326 147.941 23.5154C144.569 26.8983 142.784 31.68 142.784 37.3074V62.7703H152.798V37.3829C152.798 34.7497 153.632 32.3703 155.145 30.688C156.729 28.9143 158.997 27.9771 161.669 27.9771C164.126 27.9771 166.249 28.8229 167.806 30.4206C169.275 31.9291 170.183 34.0869 170.341 36.4914V37.3097V62.7726H180.402V37.3097V36.496C180.581 34.048 181.467 31.9474 182.971 30.4229C184.555 28.8389 186.715 27.9794 189.241 27.9794C191.845 27.9794 194.053 28.9303 195.627 30.6903C197.129 32.3817 197.959 34.7589 197.959 37.3874V62.7726H207.973V37.3074C207.973 31.6686 206.206 26.896 202.866 23.5177M109.813 0.048H99.7829V62.7954H109.813V0.048ZM131.298 13.3074H121.28V0.0502857H131.301L131.298 13.3074ZM131.298 19.4949V62.8663L121.278 62.8V19.4811L131.298 19.4949ZM229.497 13.3051H219.474V0.048H229.497V13.3051ZM229.497 62.7977H219.474V19.4789H229.497V62.7954V62.7977ZM320.002 29.2389H302.405V49.28C302.405 51.6343 303.797 53.0286 306.325 53.0286H320.002V62.7863H304.32C296.827 62.7863 292.382 58.4297 292.382 51.024V0.0388571H302.405V19.4811H320.002V29.2389ZM0 0H10.0206V23.4446C10.0206 29.8057 14.0274 34.8503 20.6491 34.8503C27.4446 34.8503 31.4514 29.7806 31.4514 23.4446V0H41.472V23.5269C41.472 36.2469 33.2823 44.4366 20.6491 44.4366C8.10514 44.4366 0 36.2469 0 23.5269V0ZM88.4137 62.7863H78.3931V39.3417C78.3931 32.9806 74.3863 27.936 67.7646 27.936C60.9691 27.936 56.9623 33.0057 56.9623 39.3417V62.7863H46.9394V39.2594C46.9394 26.5394 55.1291 18.3497 67.7623 18.3497C80.3086 18.3497 88.4114 26.5394 88.4114 39.2594L88.4137 62.7863Z" fill="black"/>
</g>
</svg>
