<svg width="384" height="276" viewBox="0 0 384 276" fill="none" xmlns="http://www.w3.org/2000/svg">
<rect width="120" height="120" rx="60" fill="#ECEFF0"/>
<g clip-path="url(#clip0_7792_6715)">
<path d="M59.9579 3.75L59.2031 6.31372V80.7005L59.9579 81.4535L94.4867 61.0432L59.9579 3.75Z" fill="#343434"/>
<path d="M59.9672 3.75L25.4375 61.0432L59.9672 81.4535V45.3482V3.75Z" fill="#8C8C8C"/>
<path d="M59.9644 87.9856L59.5391 88.5044V115.002L59.9644 116.244L94.5144 67.5859L59.9644 87.9856Z" fill="#3C3C3B"/>
<path d="M59.9672 116.244V87.9856L25.4375 67.5859L59.9672 116.244Z" fill="#8C8C8C"/>
<path d="M59.9609 81.449L94.4897 61.0387L59.9609 45.3438V81.449Z" fill="#141414"/>
<path d="M25.4375 61.0387L59.9672 81.449V45.3438L25.4375 61.0387Z" fill="#393939"/>
</g>
<g clip-path="url(#clip1_7792_6715)">
<path d="M250.191 74.5143C242.178 106.657 209.622 126.219 177.475 118.204C145.342 110.19 125.78 77.6324 133.797 45.4918C141.807 13.3451 174.363 -6.21803 206.5 1.7954C238.644 9.80884 258.205 42.3702 250.191 74.5149L250.191 74.5143H250.191Z" fill="#F7931A"/>
<path d="M218.318 51.6421C219.513 43.6574 213.434 39.3653 205.121 36.5021L207.818 25.6861L201.234 24.0456L198.609 34.5767C196.878 34.1451 195.1 33.7383 193.334 33.335L195.978 22.7343L189.398 21.0938L186.7 31.9062C185.267 31.5801 183.86 31.2578 182.496 30.9182L182.503 30.8841L173.424 28.6168L171.672 35.649C171.672 35.649 176.557 36.7687 176.454 36.8376C179.12 37.503 179.602 39.268 179.522 40.6669L176.451 52.9888C176.634 53.0354 176.872 53.1029 177.135 53.2085C176.915 53.1539 176.682 53.0944 176.439 53.0363L172.134 70.2976C171.808 71.1076 170.981 72.3232 169.117 71.8616C169.183 71.9572 164.331 70.6674 164.331 70.6674L161.062 78.204L169.631 80.3399C171.224 80.7396 172.786 81.1578 174.325 81.5511L171.6 92.4911L178.177 94.1317L180.875 83.3078C182.671 83.7955 184.415 84.2454 186.122 84.6695L183.433 95.4424L190.017 97.0829L192.741 86.1634C203.968 88.2882 212.41 87.4316 215.963 77.2766C218.827 69.1007 215.821 64.3849 209.914 61.3096C214.216 60.3175 217.457 57.4879 218.321 51.643L218.319 51.6415L218.318 51.6421ZM203.276 72.7362C201.241 80.9121 187.475 76.4924 183.012 75.3841L186.628 60.8905C191.09 62.0047 205.402 64.2095 203.276 72.7362H203.276ZM205.312 51.5236C203.456 58.9605 191.998 55.1822 188.282 54.2558L191.56 41.1109C195.276 42.0374 207.245 43.7665 205.312 51.5236H205.312Z" fill="white"/>
</g>
<g clip-path="url(#clip2_7792_6715)">
<path d="M60 252C93.2502 252 120 225.25 120 192C120 158.75 93.2502 132 60 132C26.7498 132 0 158.75 0 192C0 225.25 26.7498 252 60 252Z" fill="#2775CA"/>
<path d="M76.4842 201.5C76.4842 192.75 71.2342 189.75 60.7342 188.5C53.2342 187.5 51.7342 185.5 51.7342 182C51.7342 178.5 54.2344 176.25 59.2342 176.25C63.7342 176.25 66.2344 177.75 67.4842 181.5C67.7344 182.25 68.4844 182.75 69.2344 182.75H73.234C74.2342 182.75 74.9842 182 74.9842 181V180.75C73.984 175.25 69.484 171 63.7342 170.5V164.5C63.7342 163.5 62.9842 162.75 61.7344 162.5H57.9844C56.9842 162.5 56.2342 163.25 55.984 164.5V170.25C48.484 171.25 43.7344 176.25 43.7344 182.5C43.7344 190.75 48.7342 194 59.2342 195.25C66.2344 196.5 68.4844 198 68.4844 202C68.4844 206.001 64.984 208.75 60.2344 208.75C53.734 208.75 51.484 206 50.734 202.25C50.4844 201.25 49.7344 200.75 48.9844 200.75H44.734C43.7344 200.75 42.9844 201.5 42.9844 202.5V202.75C43.984 209 47.9842 213.5 56.2342 214.75V220.75C56.2342 221.75 56.9842 222.5 58.234 222.75H61.984C62.9842 222.75 63.7342 222 63.9844 220.75V214.75C71.4844 213.5 76.4842 208.25 76.4842 201.5Z" fill="white"/>
<path d="M47.2549 227.75C27.7549 220.75 17.7547 199 25.0051 179.75C28.7551 169.25 37.0051 161.25 47.2549 157.5C48.2551 157 48.7549 156.25 48.7549 155V151.5C48.7549 150.5 48.2551 149.75 47.2549 149.5C47.0047 149.5 46.5049 149.5 46.2547 149.75C22.5049 157.25 9.50467 182.5 17.0047 206.25C21.5047 220.25 32.2549 231 46.2547 235.5C47.2549 236 48.2551 235.5 48.5047 234.5C48.7549 234.25 48.7549 234 48.7549 233.5V230C48.7549 229.25 48.0049 228.25 47.2549 227.75ZM73.7551 149.75C72.7549 149.25 71.7547 149.75 71.5051 150.75C71.2549 151 71.2549 151.25 71.2549 151.75V155.25C71.2549 156.25 72.0049 157.25 72.7549 157.75C92.2549 164.75 102.255 186.5 95.0047 205.75C91.2547 216.25 83.0047 224.25 72.7549 228C71.7547 228.5 71.2549 229.25 71.2549 230.5V234C71.2549 235 71.7547 235.75 72.7549 236C73.0051 236 73.5049 236 73.7551 235.75C97.5049 228.25 110.505 203 103.005 179.25C98.5051 165 87.5047 154.25 73.7551 149.75Z" fill="white"/>
</g>
<g filter="url(#filter0_d_7792_6715)">
<path d="M192 252C225.137 252 252 225.137 252 192C252 158.863 225.137 132 192 132C158.863 132 132 158.863 132 192C132 225.137 158.863 252 192 252Z" fill="black"/>
</g>
<path d="M216.149 204.046C215.641 203.824 215.09 203.712 214.534 203.716C214.054 203.716 213.576 203.796 213.122 203.952C212.282 204.313 211.533 204.852 210.93 205.53C210.681 205.787 210.415 206.028 210.135 206.253C206.28 209.087 202.718 210.401 198.406 210.571V172.582C202.227 173.083 204.988 174.58 206.598 177.046C206.942 177.62 207.237 178.22 207.48 178.842C207.845 179.84 208.36 180.779 209.007 181.629C209.079 181.719 209.369 182.031 209.422 182.102C210.117 182.754 211.047 183.112 212.009 183.098C212.532 183.108 213.05 183.005 213.528 182.798C214.005 182.591 214.431 182.284 214.775 181.898C215.505 180.931 215.872 179.746 215.816 178.544C215.816 177.883 215.869 177.448 215.893 177.127C215.954 176.498 215.944 175.864 215.864 175.237C215.455 171.793 214.472 171.131 211.417 169.568L210.453 169.072C205.793 166.62 203.056 166.057 198.434 165.457C198.892 158.461 200.299 156.009 201.784 154.44C202.247 153.976 202.803 153.611 203.416 153.367C204.03 153.124 204.688 153.006 205.35 153.023C205.585 153.023 205.82 153.037 206.053 153.065C204.607 155.522 204.979 158.116 207.017 159.812C208.188 160.681 209.63 161.129 211.099 161.078C212.404 161.128 213.69 160.758 214.761 160.024C217.387 157.969 217.387 154.308 215.879 152.102C214.12 149.62 211.447 147.906 208.424 147.32C205.648 146.746 202.764 146.946 200.098 147.897C197.432 148.849 195.091 150.513 193.341 152.702L193.153 152.928C191.895 154.412 188.647 158.243 188.368 165.424C173.526 168.571 165.367 177.528 165.367 190.747C165.367 198.826 168.384 212.952 188.373 217.842C188.373 218.111 188.373 218.38 188.373 218.64C188.281 221.423 188.218 223.435 186.575 226.516C186.131 227.253 185.496 227.863 184.734 228.282C183.973 228.702 183.112 228.917 182.238 228.906C181.915 228.909 181.592 228.879 181.274 228.817C181.653 228.023 181.827 227.15 181.78 226.275C181.758 225.533 181.561 224.806 181.206 224.151C180.851 223.495 180.347 222.929 179.732 222.495C179.692 222.467 179.65 222.442 179.607 222.42C178.582 221.831 177.421 221.506 176.234 221.475C174.815 221.496 173.457 222.044 172.435 223.008C171.412 223.973 170.801 225.282 170.726 226.672C170.705 227.594 170.871 228.511 171.214 229.37C171.557 230.229 172.071 231.012 172.726 231.675C173.767 232.871 175.068 233.824 176.532 234.464C177.997 235.105 179.589 235.417 181.192 235.379C182.488 235.365 183.779 235.227 185.048 234.968C190.604 233.626 194.656 230.172 197.095 224.702C197.933 222.812 198.222 219.623 198.314 217.927C201.354 217.614 204.324 216.836 207.118 215.621C212.978 212.98 214.828 211.119 216.274 209.626L216.655 209.239C218.047 207.821 217.98 206.541 217.676 205.686C217.408 204.963 216.859 204.373 216.149 204.046ZM188.402 191.678C188.402 197.914 188.402 204.127 188.402 210.245C182.137 208.454 177.853 201.217 177.853 192.009C177.853 184.473 179.737 175.232 188.455 172.776C188.416 179.05 188.406 185.376 188.402 191.678Z" fill="white"/>
<defs>
<filter id="filter0_d_7792_6715" x="114.857" y="121.714" width="154.286" height="154.286" filterUnits="userSpaceOnUse" color-interpolation-filters="sRGB">
<feFlood flood-opacity="0" result="BackgroundImageFix"/>
<feColorMatrix in="SourceAlpha" type="matrix" values="0 0 0 0 0 0 0 0 0 0 0 0 0 0 0 0 0 0 127 0" result="hardAlpha"/>
<feOffset dy="6.85714"/>
<feGaussianBlur stdDeviation="8.57143"/>
<feColorMatrix type="matrix" values="0 0 0 0 0 0 0 0 0 0 0 0 0 0 0 0 0 0 0.15 0"/>
<feBlend mode="normal" in2="BackgroundImageFix" result="effect1_dropShadow_7792_6715"/>
<feBlend mode="normal" in="SourceGraphic" in2="effect1_dropShadow_7792_6715" result="shape"/>
</filter>
<clipPath id="clip0_7792_6715">
<rect width="112.5" height="112.5" fill="white" transform="translate(3.75 3.75)"/>
</clipPath>
<clipPath id="clip1_7792_6715">
<rect width="120" height="120" fill="white" transform="translate(132)"/>
</clipPath>
<clipPath id="clip2_7792_6715">
<rect width="120" height="120" fill="white" transform="translate(0 132)"/>
</clipPath>
</defs>
</svg>
