<svg width="384" height="252" viewBox="0 0 384 252" fill="none" xmlns="http://www.w3.org/2000/svg">
<g clip-path="url(#clip0_7792_6752)">
<g clip-path="url(#clip1_7792_6752)">
<path d="M282 0H102V120H282V0Z" fill="#003399"/>
<path d="M192.016 13.3281L189.956 19.6685L193.126 20.6986L192.016 13.3281Z" fill="#FFCC00"/>
<path d="M192.016 13.3281L194.076 19.6685L190.906 20.6986L192.016 13.3281Z" fill="#FFCC00"/>
<path d="M198.352 17.9414H191.685V21.2747L198.352 17.9414Z" fill="#FFCC00"/>
<path d="M198.352 17.9414L192.958 21.86L190.999 19.1633L198.352 17.9414Z" fill="#FFCC00"/>
<path d="M195.93 25.3945L193.87 19.0542L190.699 20.0842L195.93 25.3945Z" fill="#FFCC00"/>
<path d="M195.93 25.3945L190.536 21.476L192.496 18.7792L195.93 25.3945Z" fill="#FFCC00"/>
<path d="M185.672 17.9414H192.339V21.2747L185.672 17.9414Z" fill="#FFCC00"/>
<path d="M185.672 17.9414L191.065 21.86L193.025 19.1633L185.672 17.9414Z" fill="#FFCC00"/>
<path d="M188.094 25.3945L190.154 19.0542L193.324 20.0842L188.094 25.3945Z" fill="#FFCC00"/>
<path d="M188.094 25.3945L193.487 21.476L191.528 18.7792L188.094 25.3945Z" fill="#FFCC00"/>
<path d="M192.016 93.3281L189.956 99.6685L193.126 100.699L192.016 93.3281Z" fill="#FFCC00"/>
<path d="M192.016 93.3281L194.076 99.6685L190.906 100.699L192.016 93.3281Z" fill="#FFCC00"/>
<path d="M198.352 97.9414H191.685V101.275L198.352 97.9414Z" fill="#FFCC00"/>
<path d="M198.352 97.9414L192.958 101.86L190.999 99.1633L198.352 97.9414Z" fill="#FFCC00"/>
<path d="M195.93 105.395L193.87 99.0542L190.699 100.084L195.93 105.395Z" fill="#FFCC00"/>
<path d="M195.93 105.395L190.536 101.476L192.496 98.7792L195.93 105.395Z" fill="#FFCC00"/>
<path d="M185.672 97.9414H192.339V101.275L185.672 97.9414Z" fill="#FFCC00"/>
<path d="M185.672 97.9414L191.065 101.86L193.025 99.1633L185.672 97.9414Z" fill="#FFCC00"/>
<path d="M188.094 105.395L190.154 99.0542L193.324 100.084L188.094 105.395Z" fill="#FFCC00"/>
<path d="M188.094 105.395L193.487 101.476L191.528 98.7792L188.094 105.395Z" fill="#FFCC00"/>
<path d="M152.016 53.3281L149.956 59.6685L153.126 60.6986L152.016 53.3281Z" fill="#FFCC00"/>
<path d="M152.016 53.3281L154.076 59.6685L150.906 60.6986L152.016 53.3281Z" fill="#FFCC00"/>
<path d="M158.352 57.9414H151.685V61.2747L158.352 57.9414Z" fill="#FFCC00"/>
<path d="M158.352 57.9414L152.958 61.86L150.999 59.1633L158.352 57.9414Z" fill="#FFCC00"/>
<path d="M155.93 65.3945L153.87 59.0542L150.699 60.0842L155.93 65.3945Z" fill="#FFCC00"/>
<path d="M155.93 65.3945L150.536 61.476L152.496 58.7792L155.93 65.3945Z" fill="#FFCC00"/>
<path d="M145.672 57.9414H152.339V61.2747L145.672 57.9414Z" fill="#FFCC00"/>
<path d="M145.672 57.9414L151.065 61.86L153.025 59.1633L145.672 57.9414Z" fill="#FFCC00"/>
<path d="M148.094 65.3945L150.154 59.0542L153.324 60.0842L148.094 65.3945Z" fill="#FFCC00"/>
<path d="M148.094 65.3945L153.487 61.476L151.528 58.7792L148.094 65.3945Z" fill="#FFCC00"/>
<path d="M168.094 30.7461L173.487 26.8275L171.528 24.1308L168.094 30.7461Z" fill="#FFCC00"/>
<path d="M168.094 30.7461L170.154 24.4057L173.324 25.4358L168.094 30.7461Z" fill="#FFCC00"/>
<path d="M165.664 23.2891L171.058 27.2076L173.017 24.5109L165.664 23.2891Z" fill="#FFCC00"/>
<path d="M165.664 23.2891H172.331V26.6224L165.664 23.2891Z" fill="#FFCC00"/>
<path d="M172 18.6875L169.94 25.0279L173.11 26.0579L172 18.6875Z" fill="#FFCC00"/>
<path d="M172 18.6875L174.06 25.0279L170.89 26.0579L172 18.6875Z" fill="#FFCC00"/>
<path d="M175.906 30.7461L170.513 26.8275L172.472 24.1308L175.906 30.7461Z" fill="#FFCC00"/>
<path d="M175.906 30.7461L173.846 24.4057L170.676 25.4358L175.906 30.7461Z" fill="#FFCC00"/>
<path d="M178.336 23.2891L172.942 27.2076L170.983 24.5109L178.336 23.2891Z" fill="#FFCC00"/>
<path d="M178.336 23.2891H171.669V26.6224L178.336 23.2891Z" fill="#FFCC00"/>
<path d="M161.297 45.3984L159.237 39.0581L156.067 40.0881L161.297 45.3984Z" fill="#FFCC00"/>
<path d="M161.297 45.3984L155.903 41.4799L157.863 38.7831L161.297 45.3984Z" fill="#FFCC00"/>
<path d="M153.453 45.3945L158.847 41.476L156.887 38.7792L153.453 45.3945Z" fill="#FFCC00"/>
<path d="M153.453 45.3945L155.513 39.0542L158.683 40.0842L153.453 45.3945Z" fill="#FFCC00"/>
<path d="M151.023 37.9375L156.417 41.8561L158.376 39.1593L151.023 37.9375Z" fill="#FFCC00"/>
<path d="M151.023 37.9375H157.69V41.2708L151.023 37.9375Z" fill="#FFCC00"/>
<path d="M163.719 37.9336L158.325 41.8522L156.366 39.1554L163.719 37.9336Z" fill="#FFCC00"/>
<path d="M163.719 37.9336H157.052V41.2669L163.719 37.9336Z" fill="#FFCC00"/>
<path d="M157.375 33.3281L159.435 39.6685L156.265 40.6986L157.375 33.3281Z" fill="#FFCC00"/>
<path d="M157.375 33.3281L155.315 39.6685L158.485 40.6986L157.375 33.3281Z" fill="#FFCC00"/>
<path d="M163.695 77.9375H157.029V81.2708L163.695 77.9375Z" fill="#FFCC00"/>
<path d="M163.695 77.9375L158.302 81.8561L156.343 79.1593L163.695 77.9375Z" fill="#FFCC00"/>
<path d="M161.289 85.3906L159.229 79.0502L156.059 80.0803L161.289 85.3906Z" fill="#FFCC00"/>
<path d="M161.289 85.3906L155.896 81.4721L157.855 78.7753L161.289 85.3906Z" fill="#FFCC00"/>
<path d="M153.461 85.3828L158.854 81.4642L156.895 78.7675L153.461 85.3828Z" fill="#FFCC00"/>
<path d="M153.461 85.3828L155.521 79.0424L158.691 80.0725L153.461 85.3828Z" fill="#FFCC00"/>
<path d="M157.367 73.3242L159.427 79.6646L156.257 80.6947L157.367 73.3242Z" fill="#FFCC00"/>
<path d="M157.367 73.3242L155.307 79.6646L158.477 80.6947L157.367 73.3242Z" fill="#FFCC00"/>
<path d="M151.023 77.9414H157.69V81.2747L151.023 77.9414Z" fill="#FFCC00"/>
<path d="M151.023 77.9414L156.417 81.86L158.376 79.1633L151.023 77.9414Z" fill="#FFCC00"/>
<path d="M178.344 92.5781H171.677V95.9115L178.344 92.5781Z" fill="#FFCC00"/>
<path d="M178.344 92.5781L172.95 96.4967L170.991 93.8L178.344 92.5781Z" fill="#FFCC00"/>
<path d="M175.93 100.031L173.87 93.6909L170.699 94.7209L175.93 100.031Z" fill="#FFCC00"/>
<path d="M175.93 100.031L170.536 96.1127L172.496 93.416L175.93 100.031Z" fill="#FFCC00"/>
<path d="M168.102 100.035L173.495 96.1166L171.536 93.4199L168.102 100.035Z" fill="#FFCC00"/>
<path d="M168.102 100.035L170.162 93.6948L173.332 94.7248L168.102 100.035Z" fill="#FFCC00"/>
<path d="M172 87.9688L174.06 94.3091L170.89 95.3392L172 87.9688Z" fill="#FFCC00"/>
<path d="M172 87.9688L169.94 94.3091L173.11 95.3392L172 87.9688Z" fill="#FFCC00"/>
<path d="M165.656 92.5781H172.323V95.9115L165.656 92.5781Z" fill="#FFCC00"/>
<path d="M165.656 92.5781L171.05 96.4967L173.009 93.8L165.656 92.5781Z" fill="#FFCC00"/>
<path d="M231.984 53.3281L234.044 59.6685L230.874 60.6986L231.984 53.3281Z" fill="#FFCC00"/>
<path d="M231.984 53.3281L229.924 59.6685L233.094 60.6986L231.984 53.3281Z" fill="#FFCC00"/>
<path d="M225.648 57.9414H232.315V61.2747L225.648 57.9414Z" fill="#FFCC00"/>
<path d="M225.648 57.9414L231.042 61.86L233.001 59.1633L225.648 57.9414Z" fill="#FFCC00"/>
<path d="M228.07 65.3945L230.13 59.0542L233.301 60.0842L228.07 65.3945Z" fill="#FFCC00"/>
<path d="M228.07 65.3945L233.464 61.476L231.504 58.7792L228.07 65.3945Z" fill="#FFCC00"/>
<path d="M238.328 57.9414H231.661V61.2747L238.328 57.9414Z" fill="#FFCC00"/>
<path d="M238.328 57.9414L232.935 61.86L230.975 59.1633L238.328 57.9414Z" fill="#FFCC00"/>
<path d="M235.906 65.3945L233.846 59.0542L230.676 60.0842L235.906 65.3945Z" fill="#FFCC00"/>
<path d="M235.906 65.3945L230.513 61.476L232.472 58.7792L235.906 65.3945Z" fill="#FFCC00"/>
<path d="M215.914 30.7461L210.521 26.8275L212.48 24.1308L215.914 30.7461Z" fill="#FFCC00"/>
<path d="M215.914 30.7461L213.854 24.4057L210.684 25.4358L215.914 30.7461Z" fill="#FFCC00"/>
<path d="M218.344 23.293L212.95 27.2115L210.991 24.5148L218.344 23.293Z" fill="#FFCC00"/>
<path d="M218.344 23.293H211.677V26.6263L218.344 23.293Z" fill="#FFCC00"/>
<path d="M212.008 18.6914L214.068 25.0318L210.898 26.0618L212.008 18.6914Z" fill="#FFCC00"/>
<path d="M212.008 18.6914L209.948 25.0318L213.118 26.0618L212.008 18.6914Z" fill="#FFCC00"/>
<path d="M208.094 30.75L213.487 26.8314L211.528 24.1347L208.094 30.75Z" fill="#FFCC00"/>
<path d="M208.094 30.75L210.154 24.4096L213.324 25.4397L208.094 30.75Z" fill="#FFCC00"/>
<path d="M205.664 23.293L211.058 27.2115L213.017 24.5148L205.664 23.293Z" fill="#FFCC00"/>
<path d="M205.664 23.293H212.331V26.6263L205.664 23.293Z" fill="#FFCC00"/>
<path d="M222.711 45.3984L224.771 39.0581L227.941 40.0881L222.711 45.3984Z" fill="#FFCC00"/>
<path d="M222.711 45.3984L228.104 41.4799L226.145 38.7831L222.711 45.3984Z" fill="#FFCC00"/>
<path d="M230.539 45.3945L225.146 41.476L227.105 38.7792L230.539 45.3945Z" fill="#FFCC00"/>
<path d="M230.539 45.3945L228.479 39.0542L225.309 40.0842L230.539 45.3945Z" fill="#FFCC00"/>
<path d="M232.969 37.9375L227.575 41.8561L225.616 39.1593L232.969 37.9375Z" fill="#FFCC00"/>
<path d="M232.969 37.9375H226.302V41.2708L232.969 37.9375Z" fill="#FFCC00"/>
<path d="M220.289 37.9336L225.683 41.8522L227.642 39.1554L220.289 37.9336Z" fill="#FFCC00"/>
<path d="M220.289 37.9336H226.956V41.2669L220.289 37.9336Z" fill="#FFCC00"/>
<path d="M226.633 33.3281L224.573 39.6685L227.743 40.6986L226.633 33.3281Z" fill="#FFCC00"/>
<path d="M226.633 33.3281L228.693 39.6685L225.523 40.6986L226.633 33.3281Z" fill="#FFCC00"/>
<path d="M220.305 77.9453H226.971V81.2786L220.305 77.9453Z" fill="#FFCC00"/>
<path d="M220.305 77.9453L225.698 81.8639L227.657 79.1672L220.305 77.9453Z" fill="#FFCC00"/>
<path d="M222.711 85.4023L224.771 79.062L227.941 80.092L222.711 85.4023Z" fill="#FFCC00"/>
<path d="M222.711 85.4023L228.104 81.4838L226.145 78.7871L222.711 85.4023Z" fill="#FFCC00"/>
<path d="M230.547 85.3945L225.153 81.476L227.113 78.7792L230.547 85.3945Z" fill="#FFCC00"/>
<path d="M230.547 85.3945L228.487 79.0542L225.317 80.0842L230.547 85.3945Z" fill="#FFCC00"/>
<path d="M226.641 73.3281L224.581 79.6685L227.751 80.6986L226.641 73.3281Z" fill="#FFCC00"/>
<path d="M226.641 73.3281L228.701 79.6685L225.531 80.6986L226.641 73.3281Z" fill="#FFCC00"/>
<path d="M232.984 77.9453H226.318V81.2786L232.984 77.9453Z" fill="#FFCC00"/>
<path d="M232.984 77.9453L227.591 81.8639L225.632 79.1672L232.984 77.9453Z" fill="#FFCC00"/>
<path d="M205.664 92.5859H212.331V95.9193L205.664 92.5859Z" fill="#FFCC00"/>
<path d="M205.664 92.5859L211.058 96.5045L213.017 93.8078L205.664 92.5859Z" fill="#FFCC00"/>
<path d="M208.062 100.035L210.123 93.6948L213.293 94.7248L208.062 100.035Z" fill="#FFCC00"/>
<path d="M208.062 100.035L213.456 96.1166L211.497 93.4199L208.062 100.035Z" fill="#FFCC00"/>
<path d="M215.898 100.035L210.505 96.1166L212.464 93.4199L215.898 100.035Z" fill="#FFCC00"/>
<path d="M215.898 100.035L213.838 93.6948L210.668 94.7248L215.898 100.035Z" fill="#FFCC00"/>
<path d="M212.016 87.9766L209.956 94.3169L213.126 95.347L212.016 87.9766Z" fill="#FFCC00"/>
<path d="M212.016 87.9766L214.076 94.3169L210.906 95.347L212.016 87.9766Z" fill="#FFCC00"/>
<path d="M218.352 92.582H211.685V95.9154L218.352 92.582Z" fill="#FFCC00"/>
<path d="M218.352 92.582L212.958 96.5006L210.999 93.8039L218.352 92.582Z" fill="#FFCC00"/>
</g>
</g>
<g clip-path="url(#clip2_7792_6752)">
<g clip-path="url(#clip3_7792_6752)">
<path d="M204 0V120H444V0H204Z" fill="#012169"/>
<path d="M204 0L444 120L204 0ZM444 0L204 120L444 0Z" fill="black"/>
<path d="M204 0L444 120M444 0L204 120" stroke="white" stroke-width="24"/>
<path d="M204 0L444 120L204 0ZM444 0L204 120L444 0Z" fill="black"/>
<path d="M204 0L444 120M444 0L204 120" stroke="#C8102E" stroke-width="16"/>
<path d="M324 0V120V0ZM204 60H444H204Z" fill="black"/>
<path d="M324 0V120M204 60H444" stroke="white" stroke-width="40"/>
<path d="M324 0V120V0ZM204 60H444H204Z" fill="black"/>
<path d="M324 0V120M204 60H444" stroke="#C8102E" stroke-width="24"/>
</g>
</g>
<g clip-path="url(#clip4_7792_6752)">
<g clip-path="url(#clip5_7792_6752)">
<path d="M330.448 131.762H101.547V252.236H330.448V131.762Z" fill="#B22234"/>
<path d="M101.547 145.664H330.448H101.547ZM330.448 164.199H101.547H330.448ZM101.547 182.733H330.448H101.547ZM330.448 201.268H101.547H330.448ZM101.547 219.802H330.448H101.547ZM330.448 238.337H101.547H330.448Z" fill="black"/>
<path d="M101.547 145.664H330.448M330.448 164.199H101.547M101.547 182.733H330.448M330.448 201.268H101.547M101.547 219.802H330.448M330.448 238.337H101.547" stroke="white" stroke-width="9.26725"/>
<path d="M193.107 131.762H101.547V196.632H193.107V131.762Z" fill="#3C3B6E"/>
<path d="M132.072 141.035L134.251 147.741L128.547 143.597H135.598L129.893 147.741L132.072 141.035Z" fill="white"/>
<path d="M132.072 154.008L134.251 160.714L128.547 156.569H135.598L129.893 160.714L132.072 154.008Z" fill="white"/>
<path d="M132.072 166.98L134.251 173.686L128.547 169.542H135.598L129.893 173.686L132.072 166.98Z" fill="white"/>
<path d="M132.072 179.961L134.251 186.667L128.547 182.522H135.598L129.893 186.667L132.072 179.961Z" fill="white"/>
<path d="M139.658 134.555L141.837 141.261L136.133 137.116H143.184L137.479 141.261L139.658 134.555Z" fill="white"/>
<path d="M139.658 147.527L141.837 154.233L136.133 150.089H143.184L137.479 154.233L139.658 147.527Z" fill="white"/>
<path d="M139.658 160.5L141.837 167.206L136.133 163.061H143.184L137.479 167.206L139.658 160.5Z" fill="white"/>
<path d="M139.658 173.48L141.837 180.186L136.133 176.042H143.184L137.479 180.186L139.658 173.48Z" fill="white"/>
<path d="M139.658 186.449L141.837 193.155L136.133 189.011H143.184L137.479 193.155L139.658 186.449Z" fill="white"/>
<path d="M147.315 141.035L149.493 147.741L143.789 143.597H150.84L145.136 147.741L147.315 141.035Z" fill="white"/>
<path d="M147.315 154.008L149.493 160.714L143.789 156.569H150.84L145.136 160.714L147.315 154.008Z" fill="white"/>
<path d="M147.315 166.98L149.493 173.686L143.789 169.542H150.84L145.136 173.686L147.315 166.98Z" fill="white"/>
<path d="M147.315 179.961L149.493 186.667L143.789 182.522H150.84L145.136 186.667L147.315 179.961Z" fill="white"/>
<path d="M154.94 134.555L157.118 141.261L151.414 137.116H158.465L152.761 141.261L154.94 134.555Z" fill="white"/>
<path d="M154.94 147.527L157.118 154.233L151.414 150.089H158.465L152.761 154.233L154.94 147.527Z" fill="white"/>
<path d="M154.94 160.5L157.118 167.206L151.414 163.061H158.465L152.761 167.206L154.94 160.5Z" fill="white"/>
<path d="M154.94 173.48L157.118 180.186L151.414 176.042H158.465L152.761 180.186L154.94 173.48Z" fill="white"/>
<path d="M154.94 186.449L157.118 193.155L151.414 189.011H158.465L152.761 193.155L154.94 186.449Z" fill="white"/>
<path d="M162.58 141.035L164.759 147.741L159.055 143.597H166.106L160.401 147.741L162.58 141.035Z" fill="white"/>
<path d="M162.58 154.008L164.759 160.714L159.055 156.569H166.106L160.401 160.714L162.58 154.008Z" fill="white"/>
<path d="M162.58 166.98L164.759 173.686L159.055 169.542H166.106L160.401 173.686L162.58 166.98Z" fill="white"/>
<path d="M162.58 179.961L164.759 186.667L159.055 182.522H166.106L160.401 186.667L162.58 179.961Z" fill="white"/>
<path d="M170.213 134.551L172.392 141.257L166.688 137.112H173.738L168.034 141.257L170.213 134.551Z" fill="white"/>
<path d="M170.213 147.523L172.392 154.229L166.688 150.085H173.738L168.034 154.229L170.213 147.523Z" fill="white"/>
<path d="M170.213 160.496L172.392 167.202L166.688 163.057H173.738L168.034 167.202L170.213 160.496Z" fill="white"/>
<path d="M170.213 173.477L172.392 180.182L166.688 176.038H173.738L168.034 180.182L170.213 173.477Z" fill="white"/>
<path d="M170.213 186.445L172.392 193.151L166.688 189.007H173.738L168.034 193.151L170.213 186.445Z" fill="white"/>
<path d="M177.838 141.031L180.017 147.737L174.312 143.593H181.363L175.659 147.737L177.838 141.031Z" fill="white"/>
<path d="M177.838 154.004L180.017 160.71L174.312 156.565H181.363L175.659 160.71L177.838 154.004Z" fill="white"/>
<path d="M177.838 166.977L180.017 173.682L174.312 169.538H181.363L175.659 173.682L177.838 166.977Z" fill="white"/>
<path d="M177.838 179.957L180.017 186.663L174.312 182.518H181.363L175.659 186.663L177.838 179.957Z" fill="white"/>
<path d="M185.486 134.535L187.665 141.241L181.961 137.097H189.012L183.308 141.241L185.486 134.535Z" fill="white"/>
<path d="M185.486 147.508L187.665 154.214L181.961 150.069H189.012L183.308 154.214L185.486 147.508Z" fill="white"/>
<path d="M185.486 160.48L187.665 167.186L181.961 163.042H189.012L183.308 167.186L185.486 160.48Z" fill="white"/>
<path d="M185.486 173.461L187.665 180.167L181.961 176.022H189.012L183.308 180.167L185.486 173.461Z" fill="white"/>
<path d="M185.486 186.434L187.665 193.139L181.961 188.995H189.012L183.308 193.139L185.486 186.434Z" fill="white"/>
</g>
</g>
<rect x="264" y="132" width="120" height="120" rx="60" fill="white"/>
<path d="M324 216C337.255 216 348 205.255 348 192C348 178.745 337.255 168 324 168C310.745 168 300 178.745 300 192C300 205.255 310.745 216 324 216Z" fill="#BC002D"/>
<defs>
<clipPath id="clip0_7792_6752">
<rect x="132" width="120" height="120" rx="60" fill="white"/>
</clipPath>
<clipPath id="clip1_7792_6752">
<rect width="180" height="120" fill="white" transform="translate(102)"/>
</clipPath>
<clipPath id="clip2_7792_6752">
<rect x="264" width="120" height="120" rx="60" fill="white"/>
</clipPath>
<clipPath id="clip3_7792_6752">
<rect width="240" height="120" fill="white" transform="translate(204)"/>
</clipPath>
<clipPath id="clip4_7792_6752">
<rect x="132" y="132" width="120" height="120" rx="60" fill="white"/>
</clipPath>
<clipPath id="clip5_7792_6752">
<rect width="228.901" height="120.474" fill="white" transform="translate(101.547 131.762)"/>
</clipPath>
</defs>
</svg>
