<svg width="552" height="550" viewBox="0 0 552 550" fill="none" xmlns="http://www.w3.org/2000/svg">
<g filter="url(#filter0_d_7758_8865)">
<path d="M275.439 489.404C404.905 489.404 509.855 384.55 509.855 255.202C509.855 125.854 404.905 21 275.439 21C145.973 21 41.0234 125.854 41.0234 255.202C41.0234 384.536 145.973 489.404 275.439 489.404Z" fill="#0077DF"/>
<path d="M161.519 452.926C161.478 453.008 161.422 453.077 161.367 453.16C161.726 453.243 162.057 453.367 162.415 453.436L161.519 452.926Z" fill="#E9EFF4"/>
<path d="M146.695 121.398L146.227 120.448C150.156 119.855 150.432 117.086 153.425 116.081C156.83 114.965 155.658 116.177 159.009 116.081C161.726 115.957 163.366 117.941 166.469 116.494C165.724 117.817 164.497 118.726 163.27 119.635C160.719 121.44 158.113 123.3 155.079 124.002C152.032 124.691 148.474 123.947 146.695 121.398Z" fill="#E9EFF4"/>
<path d="M193.798 331.083C193.742 333.163 192.515 334.968 191.453 336.718C186.724 344.433 183.856 353.374 183.221 362.425C182.587 371.09 182.973 381.781 175.417 386.052C171.101 388.449 165.033 388.022 162.151 392.072C161.255 393.298 160.828 394.841 160.4 396.288C158.539 403.038 156.677 409.803 154.816 416.567C152.416 416.36 149.962 416.099 147.576 415.837C150.403 416.732 152.361 420.562 150.665 423.18C147.949 421.747 144.391 423.441 142.888 426.169C141.454 428.883 141.661 432.176 142.461 435.165C144.915 443.996 152.485 451.119 161.379 453.24C159.835 456.175 155.105 454.893 152.209 452.923C131.595 438.995 116.027 417.779 108.925 393.946C106.416 385.542 104.816 376.601 99.9072 369.368C95.8119 363.265 89.6206 358.788 85.5252 352.671C79.7751 343.895 78.6995 332.516 72.0394 324.498C68.3163 319.924 62.5524 314.29 65.8481 309.399C67.1718 307.387 69.9986 305.473 68.8817 303.337C68.5094 302.648 67.7648 302.221 67.1718 301.629C64.938 299.232 66.4824 295.457 67.5993 292.371C69.4608 286.998 69.4608 281.253 68.661 275.508C63.0626 270.508 58.6363 264.294 55.8647 257.31C54.21 253.053 52.0175 247.735 47.4533 247.68C46.2813 244.387 45.054 241.081 43.8681 237.788C43.4407 238.973 42.2824 239.703 41 239.868C44.53 185.974 66.2893 137.054 100.142 99.1544C100.886 98.8238 101.631 98.3967 102.376 97.9696C110.401 93.2856 116.799 86.2595 124.562 81.1622C126.148 80.1014 127.968 79.0819 129.94 79.2886C131.857 79.4539 133.663 81.4102 132.974 83.2149C132.712 83.9726 132.077 84.5513 131.429 85.0197C122.342 92.7483 112.373 99.5126 101.783 105.106C100.514 105.74 99.1764 106.484 98.5973 107.765C97.5217 109.941 99.3281 112.655 101.631 113.455C103.92 114.254 106.485 113.785 108.829 113.248C106.857 116.058 106.264 119.847 107.284 123.139C109.463 123.346 110.153 120.37 110.801 118.29C113.448 110.052 126.617 106.69 125.762 97.9972C129.333 99.857 132.96 95.6965 135.139 92.2937C137.317 88.8358 142.171 85.433 144.832 88.4638C144.984 90.1583 145.191 91.8666 145.342 93.5749C150.031 92.4039 154.774 91.1778 159.463 89.993C156.801 91.8666 155.891 95.848 157.436 98.7274C158.98 101.593 162.813 103.039 165.847 101.868C165.806 104.376 163.558 106.291 161.531 107.779C156.374 111.664 150.831 115.659 144.819 117.574L146.197 120.439C146.046 120.494 145.894 120.563 145.729 120.563C141.895 120.935 137.841 118.18 133.746 118.703C131.236 119.034 128.161 119.034 126.713 121.569C126.507 121.9 125.61 126.349 126.245 125.991C128.478 124.71 130.712 123.429 132.905 122.161C133.58 123.966 133.746 125.991 133.374 127.961C136.09 127.7 138.917 128.264 141.316 129.711C138.806 135.511 132.367 139.396 126.038 138.914C125.983 136.999 125.872 135.084 125.817 133.169C120.605 132.742 116.344 137.219 113.738 141.697C111.09 146.215 109.063 151.381 104.692 154.261C102.045 156.065 98.7765 156.768 95.9084 158.256C93.0954 159.799 90.4893 162.733 91.0684 165.874C91.3304 167.362 92.2956 168.74 92.2405 170.297C92.075 173.162 88.738 174.512 86.4904 176.358C82.657 179.555 81.7056 185.41 77.6102 188.22C74.6317 190.3 70.688 190.245 67.227 191.306C63.7659 192.367 60.3048 195.825 61.6975 199.186C59.9877 199.779 57.9055 198.497 57.7538 196.679C51.6314 208.706 47.605 221.794 45.9503 235.212C48.9839 237.334 52.0727 232.484 52.6518 228.82C53.2861 225.155 56.4852 220.361 59.4637 222.538C58.7742 227.814 58.0848 233.021 57.3953 238.298C57.2298 239.317 57.1333 240.378 57.6159 241.274C58.2089 242.39 59.4775 242.858 60.4427 243.657C63.1592 245.999 62.7869 250.146 62.9523 253.714C63.1178 258.067 64.5519 262.324 66.8409 266.058C66.6202 265.314 66.4686 264.57 66.3169 263.826C70.4674 264.363 74.7972 263.013 77.9273 260.244C79.582 258.756 80.961 256.841 83.0431 256.097C85.1804 255.298 87.5246 255.877 89.7033 256.469C96.4738 258.329 103.658 260.396 108.181 265.713C110.47 268.427 111.904 271.844 114.634 274.062C120.812 279.269 131.264 276.983 136.904 282.782C141.426 287.467 140.585 295.016 139.358 301.45C136.269 299.755 132.119 304.012 133.939 307.043C135.594 305.238 137.51 303.323 139.91 303.323C142.35 303.268 144.488 306.616 142.681 308.173C146.942 302.745 157.367 304.977 159.021 311.741C164.992 312.168 171.004 312.581 176.975 313.063C175.83 321.77 194.17 322.294 193.798 331.083Z" fill="#E9EFF4"/>
<path d="M157.511 84.8918C155.209 86.0215 152.051 84.7403 151.196 82.3294C150.327 79.9185 151.968 76.929 154.464 76.3504C156.036 75.9784 158.242 76.1575 158.725 74.6145C158.876 74.1461 158.78 73.6226 158.78 73.1404C158.725 70.2198 161.331 67.8089 164.144 67.0787C166.957 66.3623 169.935 66.9134 172.79 67.4782C173.81 69.586 174.1 72.0245 173.617 74.3114C171.659 74.3941 169.701 74.4767 167.743 74.5594C167.922 77.8107 167.591 81.9023 164.571 83.1147C161.855 84.1892 158.325 82.1916 156.063 84.0101" fill="#E9EFF4"/>
<path d="M188.031 52.4152C193.381 49.8527 197.904 45.8162 203.186 43.116C212.259 38.4595 222.863 38.0462 233.053 37.7293C256.26 37.0129 279.467 36.2828 302.688 35.5664C297.31 38.5146 291.933 41.4766 286.541 44.411C282.156 46.8219 277.151 49.3017 272.338 47.924C272.228 51.7952 275.758 55.3909 279.646 55.3634C270.118 61.246 256.88 55.2256 246.814 60.1714C242.595 62.2516 239.203 66.1642 234.556 66.8944C231.867 67.3214 229.095 66.6051 226.42 67.1837C221.953 68.1618 219.14 72.3774 215.844 75.5323C212.038 79.1693 206.454 81.6628 201.489 79.9132C196.525 78.1774 193.933 70.7931 197.904 67.349C199.862 65.6545 202.662 65.3789 204.978 64.1804C207.295 62.9956 209.115 59.8407 207.377 57.912C206.619 57.0716 205.392 56.7548 204.689 55.8455C203.944 54.8674 204.013 53.4897 203.392 52.4289C201.034 48.296 194.485 53.8617 190.017 52.1947" fill="#E9EFF4"/>
<path d="M258.531 71.9681C261.675 71.2517 264.392 69.3918 267.329 68.0417C270.266 66.6916 273.755 65.8926 276.623 67.3254C277.478 69.4607 275.023 71.4032 272.844 72.1747C268.694 73.635 264.185 74.0346 259.827 73.3044" fill="#E9EFF4"/>
<path d="M448.296 95.3901C447.441 95.4865 446.544 95.4452 445.634 95.2247C441.635 94.3706 438.602 91.2984 435.182 89.0528C427.295 83.8453 416.539 83.1702 408.017 87.4134C410.031 84.479 411.051 80.8558 410.83 77.3014L409.603 77.7285C395.649 69.6416 379.295 61.2517 364.071 66.6797C360.555 67.9609 357.37 69.8758 353.799 71.1019C350.007 72.4245 345.815 72.9756 342.574 75.3176C339.279 77.6596 337.514 82.8258 340.354 85.6362C342.753 88.0334 346.587 87.3859 349.951 87.7165C353.247 88.0471 357.039 91.326 355.233 94.1502C340.644 100.97 326.013 107.844 311.424 114.719C318.126 116.895 322.566 124.5 321.118 131.416C316.209 132.27 311.48 129.294 306.529 128.977C299.331 128.605 292.464 134.943 292.326 142.12C292.12 149.312 298.725 155.952 305.909 155.842C311.287 155.787 316.568 152.549 321.78 153.913C321.987 149.009 325.352 144.862 328.799 141.349C335.5 134.64 345.084 128.564 354.047 131.87C356.984 132.931 359.48 134.901 361.934 136.858C367.312 141.115 372.69 145.413 378.081 149.725C379.791 147.975 381.487 146.212 383.197 144.517C386.134 147.603 389.057 150.689 392.036 153.817C393.525 152.797 395.069 151.846 396.559 150.827C397.62 153.596 398.737 156.31 399.813 159.079C400.24 156.048 400.613 153.073 400.971 150.083C404.487 150.18 408.224 150.29 411.41 148.705C414.609 147.162 416.953 143.333 415.615 140.04C414.926 138.29 413.271 136.899 412.954 135.039C412.264 131.319 417.587 128.771 421.048 130.465C424.454 132.118 426.164 136.003 427.612 139.558C428.412 135.935 429.142 132.366 429.956 128.757C433.293 137.505 438.092 145.688 444.062 152.88C433.141 150.799 421.627 151.998 411.423 156.186C414.678 160.76 420.262 163.474 425.861 163.254C428.37 163.198 431.142 162.62 433.045 164.204C434.493 165.43 434.851 167.4 435.127 169.205C435.982 174.316 436.837 179.358 437.637 184.414C431.873 179.689 423.572 180.213 416.057 180.075C408.541 179.868 399.758 177.788 396.986 170.831C394.008 174.192 392.684 178.973 393.539 183.45C385.762 181.59 376.813 178.614 374.565 170.955C368.498 173.186 360.927 169.315 359.287 163.088C358.694 160.911 358.528 158.239 356.625 157.082C355.467 156.393 353.964 156.489 352.571 156.655C341.016 157.991 329.502 159.272 318.016 160.622C311.742 161.38 305.233 162.124 299.704 165.196C294.16 168.227 289.762 174.192 290.396 180.474C279.806 186.756 270.815 195.863 264.734 206.567C262.818 209.86 261.163 213.648 261.921 217.368C262.459 220.233 264.362 222.686 264.955 225.51C265.975 230.359 263.204 235.03 262.032 239.824C258.736 253.449 269.078 266.261 278.675 276.566C283.198 281.346 288.424 286.568 295.029 286.829C299.125 286.995 303.013 285.176 306.846 283.675C317.809 279.363 329.75 277.392 341.512 277.861C338.851 279.941 341.609 284.46 344.932 285.149C348.228 285.838 351.799 284.763 354.998 285.879C362.293 288.483 361.286 299.173 357.99 306.158C359.645 305.841 361.355 305.511 363.037 305.207C362.141 307.549 361.231 309.891 360.321 312.178C370.332 313.446 374.11 326.589 371.793 336.425C369.504 346.275 363.658 355.313 363.492 365.425C363.451 370.963 365.147 376.336 366.857 381.585C371.131 394.934 375.392 408.298 379.667 421.688C391.608 423.121 398.462 407.953 409.534 403.214C413.685 401.396 418.58 401.037 421.834 397.938C424.978 394.962 423.958 387.977 419.917 387.977C425.406 387.385 430.08 382.384 430.246 376.846C430.301 375.303 430.08 373.76 430.287 372.217C430.659 370.04 432.038 368.125 433.362 366.251C441.815 354.114 447.303 340.214 452.791 326.492C454.225 322.814 455.659 319.204 457.093 315.526C462.512 301.846 467.89 288.235 473.323 274.555C475.446 269.182 477.584 263.864 479.707 258.477C476.77 263.327 469.117 262.693 464.732 259.07C460.306 255.46 458.017 249.963 454.542 245.445C451.605 241.56 447.661 238.115 446.282 233.376C445.483 230.662 445.634 227.742 445.165 224.917C444.09 218.787 440.05 213.703 437.278 208.165C434.506 202.627 433.059 195.463 436.961 190.6C448.158 210.121 458.348 230.222 467.559 250.818C468.579 247.621 470.924 244.852 473.902 243.309C476.081 242.138 478.535 241.656 480.824 240.705C486.891 238.047 491.097 231.613 491.097 225.014C491.042 218.415 486.836 211.981 480.7 209.378C477.666 208.096 474.205 207.683 471.323 205.92C468.455 204.225 466.373 200.34 468.179 197.516C469.876 194.857 473.985 194.912 476.798 196.4C479.624 197.943 481.707 200.547 484.354 202.31C486.271 203.591 488.505 204.432 490.587 205.603C501.825 212.036 504.597 226.667 506.955 239.438C508.237 246.299 509.685 253.118 511.395 259.814C511.45 258.367 511.436 256.879 511.436 255.46C511.353 193.576 487.402 137.34 448.296 95.3901ZM469.848 172.677C468.304 172.58 466.87 171.561 465.628 170.596C463.615 169.012 461.574 167.139 460.982 164.631C460.292 161.655 461.712 158.239 460.127 155.594C459.382 154.313 458.044 153.513 456.928 152.618C453.99 150.276 451.853 146.914 451.067 143.319C450.378 140.123 451.384 135.866 454.639 135.342C456.183 135.08 457.879 135.935 458.568 137.354L456.39 138.538C460.058 138.965 461.768 144.504 458.955 146.887C458.582 147.259 458.1 147.576 458.1 148.113C458.1 148.444 458.306 148.747 458.582 148.967C460.871 151.475 464.291 152.37 467.256 153.954C470.234 155.497 473.171 158.377 472.689 161.669C471.737 162.041 470.827 162.358 469.876 162.73C468.855 163.749 469.669 165.554 470.73 166.56C471.792 167.566 473.171 168.571 473.24 170.059C473.254 171.671 471.448 172.787 469.848 172.677Z" fill="#E9EFF4"/>
<path d="M471.365 336.367L467.518 339.095C468.856 343.807 466.181 349.331 461.63 351.163C459.231 352.128 456.032 352.555 455.218 355.021C454.543 357.115 456.156 359.236 456.377 361.413C456.735 365.036 453.343 367.75 450.888 370.437C448.448 373.137 447.152 378.193 450.406 379.819C451.15 380.204 452.019 380.273 452.86 380.342C456.404 380.659 460.279 380.755 463.161 378.689C471.448 372.779 463.574 356.77 471.751 350.695C472.923 349.841 474.371 349.221 475.006 347.926C476.95 344.137 469.835 340.349 471.365 336.367Z" fill="#E9EFF4"/>
<path d="M392.17 67.1831C392.17 76.264 375.702 100.763 375.702 100.763C375.702 100.763 359.234 76.264 359.234 67.1831C359.234 58.1022 366.604 50.7305 375.702 50.7305C384.791 50.7392 392.17 58.1022 392.17 67.1831Z" fill="#FB435B"/>
<path d="M375.701 78.9147C382.426 78.9147 387.878 73.4677 387.878 66.7484C387.878 60.0291 382.426 54.582 375.701 54.582C368.975 54.582 363.523 60.0291 363.523 66.7484C363.523 73.4677 368.975 78.9147 375.701 78.9147Z" fill="white"/>
<path d="M122.201 111.394C122.201 120.475 105.733 144.974 105.733 144.974C105.733 144.974 89.2656 120.475 89.2656 111.394C89.2656 102.313 96.6353 94.9414 105.733 94.9414C114.822 94.9502 122.201 102.313 122.201 111.394Z" fill="#FB435B"/>
<path d="M105.732 123.126C112.458 123.126 117.91 117.679 117.91 110.959C117.91 104.24 112.458 98.793 105.732 98.793C99.0067 98.793 93.5547 104.24 93.5547 110.959C93.5547 117.679 99.0067 123.126 105.732 123.126Z" fill="white"/>
<path d="M117.717 245.242C117.717 254.323 101.249 278.822 101.249 278.822C101.249 278.822 84.7812 254.323 84.7812 245.242C84.7812 236.161 92.1509 228.789 101.249 228.789C110.338 228.798 117.717 236.161 117.717 245.242Z" fill="#FB435B"/>
<path d="M101.248 256.973C107.973 256.973 113.425 251.526 113.425 244.807C113.425 238.088 107.973 232.641 101.248 232.641C94.5223 232.641 89.0703 238.088 89.0703 244.807C89.0703 251.526 94.5223 256.973 101.248 256.973Z" fill="white"/>
<path d="M183.756 294.707C183.756 303.787 167.288 328.287 167.288 328.287C167.288 328.287 150.82 303.787 150.82 294.707C150.82 285.626 158.19 278.254 167.288 278.254C176.377 278.263 183.756 285.626 183.756 294.707Z" fill="#FB435B"/>
<path d="M167.287 306.438C174.012 306.438 179.464 300.991 179.464 294.272C179.464 287.553 174.012 282.105 167.287 282.105C160.561 282.105 155.109 287.553 155.109 294.272C155.109 300.991 160.561 306.438 167.287 306.438Z" fill="white"/>
<path d="M319.717 111.136C319.717 120.217 303.249 144.716 303.249 144.716C303.249 144.716 286.781 120.217 286.781 111.136C286.781 102.055 294.151 94.6836 303.249 94.6836C312.338 94.6924 319.717 102.055 319.717 111.136Z" fill="#FB435B"/>
<path d="M303.349 123.411C310.075 123.411 315.527 117.964 315.527 111.244C315.527 104.525 310.075 99.0781 303.349 99.0781C296.624 99.0781 291.172 104.525 291.172 111.244C291.172 117.964 296.624 123.411 303.349 123.411Z" fill="white"/>
<path d="M369.748 150.195C369.748 159.276 353.28 183.775 353.28 183.775C353.28 183.775 336.812 159.276 336.812 150.195C336.812 141.114 344.182 133.742 353.28 133.742C362.369 133.751 369.748 141.114 369.748 150.195Z" fill="#FB435B"/>
<path d="M353.381 162.469C360.106 162.469 365.558 157.022 365.558 150.303C365.558 143.584 360.106 138.137 353.381 138.137C346.655 138.137 341.203 143.584 341.203 150.303C341.203 157.022 346.655 162.469 353.381 162.469Z" fill="white"/>
<path d="M456.717 126.113C456.717 135.194 440.249 159.693 440.249 159.693C440.249 159.693 423.781 135.194 423.781 126.113C423.781 117.032 431.151 109.66 440.249 109.66C449.338 109.669 456.717 117.032 456.717 126.113Z" fill="#FB435B"/>
<path d="M440.349 138.387C447.075 138.387 452.527 132.94 452.527 126.221C452.527 119.502 447.075 114.055 440.349 114.055C433.624 114.055 428.172 119.502 428.172 126.221C428.172 132.94 433.624 138.387 440.349 138.387Z" fill="white"/>
</g>
<defs>
<filter id="filter0_d_7758_8865" x="0.857952" y="0.928976" width="550.722" height="548.686" filterUnits="userSpaceOnUse" color-interpolation-filters="sRGB">
<feFlood flood-opacity="0" result="BackgroundImageFix"/>
<feColorMatrix in="SourceAlpha" type="matrix" values="0 0 0 0 0 0 0 0 0 0 0 0 0 0 0 0 0 0 127 0" result="hardAlpha"/>
<feOffset dy="20.071"/>
<feGaussianBlur stdDeviation="20.071"/>
<feComposite in2="hardAlpha" operator="out"/>
<feColorMatrix type="matrix" values="0 0 0 0 0 0 0 0 0 0 0 0 0 0 0 0 0 0 0.4 0"/>
<feBlend mode="normal" in2="BackgroundImageFix" result="effect1_dropShadow_7758_8865"/>
<feBlend mode="normal" in="SourceGraphic" in2="effect1_dropShadow_7758_8865" result="shape"/>
</filter>
</defs>
</svg>
