<svg width="405" height="293" viewBox="0 0 405 293" fill="none" xmlns="http://www.w3.org/2000/svg">
<g filter="url(#filter0_d_7758_8865)">
<path d="M275.439 489.076C404.905 489.076 509.855 384.222 509.855 254.874C509.855 125.525 404.905 20.6719 275.439 20.6719C145.973 20.6719 41.0234 125.525 41.0234 254.874C41.0234 384.208 145.973 489.076 275.439 489.076Z" fill="#0077DF"/>
<path d="M146.695 121.07L146.227 120.12C150.156 119.527 150.432 116.758 153.425 115.753C156.83 114.637 155.658 115.849 159.009 115.753C161.726 115.629 163.366 117.612 166.469 116.166C165.724 117.488 164.497 118.398 163.27 119.307C160.719 121.112 158.113 122.971 155.079 123.674C152.032 124.363 148.474 123.619 146.695 121.07Z" fill="#E9EFF4"/>
<path d="M193.798 330.755C193.742 332.835 192.515 334.64 191.453 336.39C186.724 344.105 183.856 353.046 183.221 362.097C182.587 370.762 182.973 381.453 175.417 385.724C171.101 388.121 165.033 387.694 162.151 391.744C161.255 392.97 160.828 394.513 160.4 395.96C158.539 402.71 156.677 409.474 154.816 416.239C152.416 416.032 149.962 415.77 147.576 415.509C150.403 416.404 152.361 420.234 150.665 422.852C147.949 421.419 144.391 423.113 142.888 425.841C141.454 428.555 141.661 431.848 142.461 434.837C144.915 443.668 152.485 450.79 161.379 452.912C159.835 455.846 155.105 454.565 152.209 452.595C131.595 438.667 116.027 417.451 108.925 393.618C106.416 385.214 104.816 376.273 99.9072 369.04C95.8119 362.937 89.6206 358.46 85.5252 352.343C79.7751 343.567 78.6995 332.188 72.0394 324.17C68.3163 319.596 62.5524 313.961 65.8481 309.071C67.1718 307.059 69.9986 305.144 68.8817 303.009C68.5094 302.32 67.7648 301.893 67.1718 301.301C64.938 298.904 66.4824 295.129 67.5993 292.043C69.4608 286.67 69.4608 280.925 68.661 275.18C63.0626 270.179 58.6363 263.966 55.8647 256.981C54.21 252.725 52.0175 247.407 47.4533 247.352C46.2813 244.059 45.054 240.753 43.8681 237.46C43.4407 238.645 42.2824 239.375 41 239.54C44.53 185.646 66.2893 136.726 100.142 98.8263C100.886 98.4957 101.631 98.0686 102.376 97.6415C110.401 92.9575 116.799 85.9314 124.562 80.8341C126.148 79.7733 127.968 78.7538 129.94 78.9605C131.857 79.1258 133.663 81.0821 132.974 82.8868C132.712 83.6445 132.077 84.2231 131.429 84.6915C122.342 92.4202 112.373 99.1845 101.783 104.778C100.514 105.411 99.1764 106.155 98.5973 107.437C97.5217 109.613 99.3281 112.327 101.631 113.126C103.92 113.925 106.485 113.457 108.829 112.92C106.857 115.73 106.264 119.519 107.284 122.811C109.463 123.018 110.153 120.042 110.801 117.962C113.448 109.724 126.617 106.362 125.762 97.6691C129.333 99.5289 132.96 95.3684 135.139 91.9656C137.317 88.5076 142.171 85.1048 144.832 88.1357C144.984 89.8302 145.191 91.5385 145.342 93.2468C150.031 92.0758 154.774 90.8496 159.463 89.6649C156.801 91.5385 155.891 95.5199 157.436 98.3992C158.98 101.265 162.813 102.711 165.847 101.54C165.806 104.048 163.558 105.963 161.531 107.45C156.374 111.335 150.831 115.331 144.819 117.246L146.197 120.111C146.046 120.166 145.894 120.235 145.729 120.235C141.895 120.607 137.841 117.852 133.746 118.375C131.236 118.706 128.161 118.706 126.713 121.241C126.507 121.571 125.61 126.021 126.245 125.663C128.478 124.382 130.712 123.101 132.905 121.833C133.58 123.638 133.746 125.663 133.374 127.633C136.09 127.371 138.917 127.936 141.316 129.383C138.806 135.183 132.367 139.068 126.038 138.586C125.983 136.671 125.872 134.756 125.817 132.841C120.605 132.414 116.344 136.891 113.738 141.368C111.09 145.887 109.063 151.053 104.692 153.933C102.045 155.737 98.7765 156.44 95.9084 157.928C93.0954 159.471 90.4893 162.405 91.0684 165.546C91.3304 167.034 92.2956 168.412 92.2405 169.969C92.075 172.834 88.738 174.184 86.4904 176.03C82.657 179.226 81.7056 185.081 77.6102 187.892C74.6317 189.972 70.688 189.917 67.227 190.978C63.7659 192.039 60.3048 195.497 61.6975 198.858C59.9877 199.45 57.9055 198.169 57.7538 196.351C51.6314 208.378 47.605 221.465 45.9503 234.884C48.9839 237.005 52.0727 232.156 52.6518 228.492C53.2861 224.827 56.4852 220.033 59.4637 222.209C58.7742 227.486 58.0848 232.693 57.3953 237.97C57.2298 238.989 57.1333 240.05 57.6159 240.946C58.2089 242.061 59.4775 242.53 60.4427 243.329C63.1592 245.671 62.7869 249.818 62.9523 253.386C63.1178 257.739 64.5519 261.996 66.8409 265.73C66.6202 264.986 66.4686 264.242 66.3169 263.498C70.4674 264.035 74.7972 262.685 77.9273 259.916C79.582 258.428 80.961 256.513 83.0431 255.769C85.1804 254.97 87.5246 255.549 89.7033 256.141C96.4738 258.001 103.658 260.067 108.181 265.385C110.47 268.099 111.904 271.516 114.634 273.734C120.812 278.941 131.264 276.654 136.904 282.454C141.426 287.138 140.585 294.688 139.358 301.122C136.269 299.427 132.119 303.684 133.939 306.715C135.594 304.91 137.51 302.995 139.91 302.995C142.35 302.94 144.488 306.288 142.681 307.845C146.942 302.417 157.367 304.648 159.021 311.413C164.992 311.84 171.004 312.253 176.975 312.735C175.83 321.442 194.17 321.966 193.798 330.755Z" fill="#E9EFF4"/>
<path d="M157.511 84.5637C155.209 85.6934 152.051 84.4122 151.196 82.0013C150.327 79.5904 151.968 76.6008 154.464 76.0222C156.036 75.6503 158.242 75.8293 158.725 74.2864C158.876 73.818 158.78 73.2945 158.78 72.8123C158.725 69.8916 161.331 67.4808 164.144 66.7506C166.957 66.0342 169.935 66.5853 172.79 67.1501C173.81 69.2579 174.1 71.6964 173.617 73.9833C171.659 74.066 169.701 74.1486 167.743 74.2313C167.922 77.4825 167.591 81.5742 164.571 82.7865C161.855 83.8611 158.325 81.8635 156.063 83.682" fill="#E9EFF4"/>
<path d="M188.031 52.087C193.381 49.5246 197.904 45.4881 203.186 42.7879C212.259 38.1314 222.863 37.7181 233.053 37.4012C256.26 36.6848 279.467 35.9547 302.688 35.2383C297.31 38.1865 291.933 41.1484 286.541 44.0829C282.156 46.4938 277.151 48.9735 272.338 47.5959C272.228 51.4671 275.758 55.0628 279.646 55.0352C270.118 60.9178 256.88 54.8975 246.814 59.8433C242.595 61.9235 239.203 65.8361 234.556 66.5662C231.867 66.9933 229.095 66.2769 226.42 66.8555C221.953 67.8337 219.14 72.0493 215.844 75.2042C212.038 78.8412 206.454 81.3347 201.489 79.5851C196.525 77.8492 193.933 70.465 197.904 67.0209C199.862 65.3263 202.662 65.0508 204.978 63.8522C207.295 62.6675 209.115 59.5126 207.377 57.5839C206.619 56.7435 205.392 56.4267 204.689 55.5174C203.944 54.5393 204.013 53.1616 203.392 52.1008C201.034 47.9678 194.485 53.5336 190.017 51.8666" fill="#E9EFF4"/>
<path d="M258.531 71.6399C261.675 70.9236 264.392 69.0637 267.329 67.7136C270.266 66.3635 273.755 65.5645 276.623 66.9972C277.478 69.1326 275.023 71.0751 272.844 71.8466C268.694 73.3069 264.185 73.7064 259.827 72.9763" fill="#E9EFF4"/>
<path d="M448.296 95.0619C447.441 95.1584 446.544 95.117 445.634 94.8966C441.635 94.0425 438.602 90.9703 435.182 88.7247C427.295 83.5172 416.539 82.8421 408.017 87.0853C410.031 84.1509 411.051 80.5276 410.83 76.9733L409.603 77.4004C395.649 69.3135 379.295 60.9236 364.071 66.3515C360.555 67.6328 357.37 69.5477 353.799 70.7738C350.007 72.0964 345.815 72.6474 342.574 74.9895C339.279 77.3315 337.514 82.4977 340.354 85.3081C342.753 87.7052 346.587 87.0577 349.951 87.3884C353.247 87.719 357.039 90.9978 355.233 93.822C340.644 100.641 326.013 107.516 311.424 114.39C318.126 116.567 322.566 124.172 321.118 131.088C316.209 131.942 311.48 128.966 306.529 128.649C299.331 128.277 292.464 134.615 292.326 141.792C292.12 148.983 298.725 155.624 305.909 155.514C311.287 155.458 316.568 152.221 321.78 153.585C321.987 148.68 325.352 144.534 328.799 141.021C335.5 134.311 345.084 128.236 354.047 131.542C356.984 132.603 359.48 134.573 361.934 136.529C367.312 140.786 372.69 145.085 378.081 149.397C379.791 147.647 381.487 145.884 383.197 144.189C386.134 147.275 389.057 150.361 392.036 153.488C393.525 152.469 395.069 151.518 396.559 150.499C397.62 153.268 398.737 155.982 399.813 158.751C400.24 155.72 400.613 152.744 400.971 149.755C404.487 149.851 408.224 149.962 411.41 148.377C414.609 146.834 416.953 143.004 415.615 139.712C414.926 137.962 413.271 136.571 412.954 134.711C412.264 130.991 417.587 128.443 421.048 130.137C424.454 131.79 426.164 135.675 427.612 139.23C428.412 135.606 429.142 132.038 429.956 128.429C433.293 137.177 438.092 145.36 444.062 152.552C433.141 150.471 421.627 151.67 411.423 155.858C414.678 160.432 420.262 163.146 425.861 162.925C428.37 162.87 431.142 162.292 433.045 163.876C434.493 165.102 434.851 167.072 435.127 168.877C435.982 173.988 436.837 179.03 437.637 184.086C431.873 179.361 423.572 179.884 416.057 179.747C408.541 179.54 399.758 177.46 396.986 170.503C394.008 173.864 392.684 178.644 393.539 183.122C385.762 181.262 376.813 178.286 374.565 170.626C368.498 172.858 360.927 168.987 359.287 162.76C358.694 160.583 358.528 157.911 356.625 156.753C355.467 156.065 353.964 156.161 352.571 156.326C341.016 157.663 329.502 158.944 318.016 160.294C311.742 161.052 305.233 161.796 299.704 164.868C294.16 167.899 289.762 173.864 290.396 180.146C279.806 186.428 270.815 195.535 264.734 206.239C262.818 209.532 261.163 213.32 261.921 217.04C262.459 219.905 264.362 222.358 264.955 225.182C265.975 230.031 263.204 234.701 262.032 239.496C258.736 253.121 269.078 265.933 278.675 276.238C283.198 281.018 288.424 286.24 295.029 286.501C299.125 286.667 303.013 284.848 306.846 283.346C317.809 279.034 329.75 277.064 341.512 277.533C338.851 279.613 341.609 284.132 344.932 284.821C348.228 285.509 351.799 284.435 354.998 285.551C362.293 288.155 361.286 298.845 357.99 305.83C359.645 305.513 361.355 305.182 363.037 304.879C362.141 307.221 361.231 309.563 360.321 311.85C370.332 313.118 374.11 326.261 371.793 336.097C369.504 345.947 363.658 354.985 363.492 365.097C363.451 370.635 365.147 376.008 366.857 381.257C371.131 394.606 375.392 407.97 379.667 421.36C391.608 422.793 398.462 407.625 409.534 402.886C413.685 401.067 418.58 400.709 421.834 397.609C424.978 394.634 423.958 387.649 419.917 387.649C425.406 387.057 430.08 382.056 430.246 376.518C430.301 374.975 430.08 373.432 430.287 371.889C430.659 369.712 432.038 367.797 433.362 365.923C441.815 353.786 447.303 339.886 452.791 326.164C454.225 322.486 455.659 318.876 457.093 315.198C462.512 301.518 467.89 287.907 473.323 274.226C475.446 268.854 477.584 263.536 479.707 258.149C476.77 262.999 469.117 262.365 464.732 258.742C460.306 255.132 458.017 249.635 454.542 245.116C451.605 241.231 447.661 237.787 446.282 233.048C445.483 230.334 445.634 227.414 445.165 224.589C444.09 218.459 440.05 213.375 437.278 207.837C434.506 202.299 433.059 195.135 436.961 190.272C448.158 209.793 458.348 229.893 467.559 250.489C468.579 247.293 470.924 244.524 473.902 242.981C476.081 241.81 478.535 241.328 480.824 240.377C486.891 237.718 491.097 231.285 491.097 224.686C491.042 218.087 486.836 211.653 480.7 209.049C477.666 207.768 474.205 207.355 471.323 205.591C468.455 203.897 466.373 200.012 468.179 197.188C469.876 194.529 473.985 194.584 476.798 196.072C479.624 197.615 481.707 200.219 484.354 201.982C486.271 203.263 488.505 204.104 490.587 205.275C501.825 211.708 504.597 226.339 506.955 239.11C508.237 245.971 509.685 252.79 511.395 259.485C511.45 258.039 511.436 256.551 511.436 255.132C511.353 193.248 487.402 137.012 448.296 95.0619ZM469.848 172.349C468.304 172.252 466.87 171.233 465.628 170.268C463.615 168.684 461.574 166.81 460.982 164.303C460.292 161.327 461.712 157.911 460.127 155.266C459.382 153.984 458.044 153.185 456.928 152.29C453.99 149.948 451.853 146.586 451.067 142.991C450.378 139.795 451.384 135.538 454.639 135.014C456.183 134.752 457.879 135.606 458.568 137.025L456.39 138.21C460.058 138.637 461.768 144.175 458.955 146.559C458.582 146.931 458.1 147.248 458.1 147.785C458.1 148.116 458.306 148.419 458.582 148.639C460.871 151.146 464.291 152.042 467.256 153.626C470.234 155.169 473.171 158.048 472.689 161.341C471.737 161.713 470.827 162.03 469.876 162.402C468.855 163.421 469.669 165.226 470.73 166.232C471.792 167.237 473.171 168.243 473.24 169.731C473.254 171.343 471.448 172.459 469.848 172.349Z" fill="#E9EFF4"/>
<path d="M392.17 66.855C392.17 75.9359 375.702 100.435 375.702 100.435C375.702 100.435 359.234 75.9359 359.234 66.855C359.234 57.774 366.604 50.4023 375.702 50.4023C384.791 50.4111 392.17 57.774 392.17 66.855Z" fill="#FB435B"/>
<path d="M375.701 78.5866C382.426 78.5866 387.878 73.1395 387.878 66.4203C387.878 59.701 382.426 54.2539 375.701 54.2539C368.975 54.2539 363.523 59.701 363.523 66.4203C363.523 73.1395 368.975 78.5866 375.701 78.5866Z" fill="white"/>
<path d="M122.201 111.066C122.201 120.147 105.733 144.646 105.733 144.646C105.733 144.646 89.2656 120.147 89.2656 111.066C89.2656 101.985 96.6353 94.6133 105.733 94.6133C114.822 94.622 122.201 101.985 122.201 111.066Z" fill="#FB435B"/>
<path d="M105.732 122.798C112.458 122.798 117.91 117.35 117.91 110.631C117.91 103.912 112.458 98.4648 105.732 98.4648C99.0067 98.4648 93.5547 103.912 93.5547 110.631C93.5547 117.35 99.0067 122.798 105.732 122.798Z" fill="white"/>
<path d="M117.717 244.914C117.717 253.994 101.249 278.494 101.249 278.494C101.249 278.494 84.7812 253.994 84.7812 244.914C84.7812 235.833 92.1509 228.461 101.249 228.461C110.338 228.47 117.717 235.833 117.717 244.914Z" fill="#FB435B"/>
<path d="M101.248 256.645C107.973 256.645 113.425 251.198 113.425 244.479C113.425 237.76 107.973 232.312 101.248 232.312C94.5223 232.312 89.0703 237.76 89.0703 244.479C89.0703 251.198 94.5223 256.645 101.248 256.645Z" fill="white"/>
<path d="M183.756 294.378C183.756 303.459 167.288 327.959 167.288 327.959C167.288 327.959 150.82 303.459 150.82 294.378C150.82 285.297 158.19 277.926 167.288 277.926C176.377 277.935 183.756 285.297 183.756 294.378Z" fill="#FB435B"/>
<path d="M167.287 306.11C174.012 306.11 179.464 300.663 179.464 293.944C179.464 287.224 174.012 281.777 167.287 281.777C160.561 281.777 155.109 287.224 155.109 293.944C155.109 300.663 160.561 306.11 167.287 306.11Z" fill="white"/>
<path d="M319.717 110.808C319.717 119.889 303.249 144.388 303.249 144.388C303.249 144.388 286.781 119.889 286.781 110.808C286.781 101.727 294.151 94.3555 303.249 94.3555C312.338 94.3642 319.717 101.727 319.717 110.808Z" fill="#FB435B"/>
<path d="M303.349 123.083C310.075 123.083 315.527 117.636 315.527 110.916C315.527 104.197 310.075 98.75 303.349 98.75C296.624 98.75 291.172 104.197 291.172 110.916C291.172 117.636 296.624 123.083 303.349 123.083Z" fill="white"/>
<path d="M369.748 149.867C369.748 158.948 353.28 183.447 353.28 183.447C353.28 183.447 336.812 158.948 336.812 149.867C336.812 140.786 344.182 133.414 353.28 133.414C362.369 133.423 369.748 140.786 369.748 149.867Z" fill="#FB435B"/>
<path d="M353.381 162.141C360.106 162.141 365.558 156.694 365.558 149.975C365.558 143.256 360.106 137.809 353.381 137.809C346.655 137.809 341.203 143.256 341.203 149.975C341.203 156.694 346.655 162.141 353.381 162.141Z" fill="white"/>
</g>
<defs>
<filter id="filter0_d_7758_8865" x="0.857952" y="0.600851" width="550.722" height="548.686" filterUnits="userSpaceOnUse" color-interpolation-filters="sRGB">
<feFlood flood-opacity="0" result="BackgroundImageFix"/>
<feColorMatrix in="SourceAlpha" type="matrix" values="0 0 0 0 0 0 0 0 0 0 0 0 0 0 0 0 0 0 127 0" result="hardAlpha"/>
<feOffset dy="20.071"/>
<feGaussianBlur stdDeviation="20.071"/>
<feComposite in2="hardAlpha" operator="out"/>
<feColorMatrix type="matrix" values="0 0 0 0 0 0 0 0 0 0 0 0 0 0 0 0 0 0 0.4 0"/>
<feBlend mode="normal" in2="BackgroundImageFix" result="effect1_dropShadow_7758_8865"/>
<feBlend mode="normal" in="SourceGraphic" in2="effect1_dropShadow_7758_8865" result="shape"/>
</filter>
</defs>
</svg>
