<svg width="412" height="364" viewBox="0 0 412 364" fill="none" xmlns="http://www.w3.org/2000/svg">
<path d="M117.444 4.90909V18H115.053L109.358 9.76065H109.262V18H106.494V4.90909H108.923L114.574 13.142H114.689V4.90909H117.444ZM125.976 13.8196V8.18182H128.699V18H126.084V16.2166H125.982C125.76 16.7919 125.392 17.2543 124.876 17.6037C124.365 17.9531 123.741 18.1278 123.003 18.1278C122.347 18.1278 121.77 17.9787 121.271 17.6804C120.772 17.3821 120.383 16.9581 120.101 16.4084C119.824 15.8587 119.684 15.2003 119.679 14.4332V8.18182H122.402V13.9474C122.407 14.527 122.562 14.9851 122.869 15.3217C123.176 15.6584 123.587 15.8267 124.103 15.8267C124.431 15.8267 124.738 15.7521 125.023 15.603C125.309 15.4496 125.539 15.2237 125.714 14.9254C125.892 14.6271 125.98 14.2585 125.976 13.8196ZM130.877 18V8.18182H133.472V9.91406H133.587C133.791 9.33878 134.132 8.88494 134.61 8.55256C135.087 8.22017 135.658 8.05398 136.323 8.05398C136.996 8.05398 137.569 8.2223 138.042 8.55895C138.515 8.89133 138.831 9.34304 138.988 9.91406H139.09C139.291 9.35156 139.653 8.90199 140.177 8.56534C140.706 8.22443 141.33 8.05398 142.05 8.05398C142.966 8.05398 143.71 8.34588 144.281 8.92969C144.856 9.50923 145.144 10.3317 145.144 11.397V18H142.427V11.9339C142.427 11.3885 142.282 10.9794 141.992 10.7067C141.703 10.4339 141.34 10.2976 140.906 10.2976C140.411 10.2976 140.026 10.4553 139.749 10.7706C139.472 11.0817 139.333 11.4929 139.333 12.0043V18H136.693V11.8764C136.693 11.3949 136.555 11.0114 136.278 10.7259C136.005 10.4403 135.645 10.2976 135.198 10.2976C134.895 10.2976 134.622 10.3743 134.38 10.5277C134.141 10.6768 133.951 10.8878 133.811 11.1605C133.67 11.429 133.6 11.7443 133.6 12.1065V18H130.877ZM147.346 18V4.90909H150.069V9.83097H150.152C150.271 9.56676 150.444 9.2983 150.67 9.02557C150.9 8.74858 151.198 8.51847 151.565 8.33523C151.935 8.14773 152.396 8.05398 152.945 8.05398C153.661 8.05398 154.322 8.24148 154.927 8.61648C155.532 8.98722 156.016 9.54759 156.378 10.2976C156.74 11.0433 156.921 11.9787 156.921 13.1037C156.921 14.1989 156.744 15.1236 156.391 15.8778C156.041 16.6278 155.564 17.1967 154.959 17.5845C154.358 17.968 153.685 18.1598 152.939 18.1598C152.41 18.1598 151.961 18.0724 151.59 17.8977C151.224 17.723 150.923 17.5036 150.689 17.2393C150.454 16.9709 150.275 16.7003 150.152 16.4276H150.03V18H147.346ZM150.011 13.0909C150.011 13.6747 150.092 14.1839 150.254 14.6186C150.416 15.0533 150.65 15.392 150.957 15.6349C151.264 15.8736 151.637 15.9929 152.076 15.9929C152.519 15.9929 152.894 15.8714 153.201 15.6286C153.508 15.3814 153.74 15.0405 153.898 14.6058C154.06 14.1669 154.141 13.6619 154.141 13.0909C154.141 12.5241 154.062 12.0256 153.904 11.5952C153.746 11.1648 153.514 10.8281 153.207 10.5852C152.9 10.3423 152.523 10.2209 152.076 10.2209C151.633 10.2209 151.258 10.3381 150.951 10.5724C150.648 10.8068 150.416 11.1392 150.254 11.5696C150.092 12 150.011 12.5071 150.011 13.0909ZM163.212 18.1918C162.203 18.1918 161.333 17.9872 160.604 17.5781C159.88 17.1648 159.322 16.581 158.93 15.8267C158.538 15.0682 158.342 14.1712 158.342 13.1357C158.342 12.1257 158.538 11.2393 158.93 10.4766C159.322 9.71378 159.874 9.11932 160.585 8.69318C161.301 8.26705 162.141 8.05398 163.104 8.05398C163.752 8.05398 164.354 8.15838 164.913 8.36719C165.475 8.57173 165.965 8.88068 166.383 9.29403C166.805 9.70739 167.133 10.2273 167.367 10.8537C167.602 11.4759 167.719 12.2045 167.719 13.0398V13.7876H159.428V12.1001H165.156C165.156 11.7081 165.07 11.3608 164.9 11.0582C164.729 10.7557 164.493 10.5192 164.19 10.3487C163.892 10.174 163.545 10.0866 163.149 10.0866C162.735 10.0866 162.369 10.1825 162.049 10.3743C161.734 10.5618 161.487 10.8153 161.308 11.1349C161.129 11.4503 161.037 11.8018 161.033 12.1896V13.794C161.033 14.2798 161.122 14.6996 161.301 15.0533C161.484 15.407 161.742 15.6797 162.075 15.8714C162.407 16.0632 162.801 16.1591 163.257 16.1591C163.56 16.1591 163.837 16.1165 164.088 16.0312C164.34 15.946 164.555 15.8182 164.734 15.6477C164.913 15.4773 165.049 15.2685 165.143 15.0213L167.661 15.1875C167.533 15.7926 167.271 16.321 166.875 16.7727C166.483 17.2202 165.976 17.5696 165.354 17.821C164.736 18.0682 164.022 18.1918 163.212 18.1918ZM169.496 18V8.18182H172.136V9.89489H172.238C172.417 9.28551 172.717 8.82528 173.139 8.5142C173.561 8.19886 174.047 8.04119 174.597 8.04119C174.733 8.04119 174.88 8.04972 175.038 8.06676C175.195 8.08381 175.334 8.10724 175.453 8.13707V10.5533C175.325 10.5149 175.149 10.4808 174.923 10.451C174.697 10.4212 174.49 10.4062 174.303 10.4062C173.902 10.4062 173.544 10.4936 173.229 10.6683C172.918 10.8388 172.671 11.0774 172.487 11.3842C172.308 11.6911 172.219 12.0447 172.219 12.4453V18H169.496ZM185.03 10.9815L182.537 11.1349C182.495 10.9219 182.403 10.7301 182.262 10.5597C182.122 10.3849 181.936 10.2464 181.706 10.1442C181.48 10.0376 181.21 9.98438 180.894 9.98438C180.473 9.98438 180.117 10.0739 179.827 10.2528C179.537 10.4276 179.392 10.6619 179.392 10.956C179.392 11.1903 179.486 11.3885 179.674 11.5504C179.861 11.7124 180.183 11.8423 180.639 11.9403L182.416 12.2983C183.37 12.4943 184.082 12.8097 184.551 13.2443C185.019 13.679 185.254 14.25 185.254 14.9574C185.254 15.6009 185.064 16.1655 184.685 16.6513C184.31 17.1371 183.794 17.5163 183.138 17.7891C182.486 18.0575 181.734 18.1918 180.882 18.1918C179.582 18.1918 178.546 17.9212 177.775 17.38C177.008 16.8345 176.559 16.093 176.426 15.1555L179.105 15.0149C179.186 15.4112 179.382 15.7138 179.693 15.9226C180.004 16.1271 180.402 16.2294 180.888 16.2294C181.365 16.2294 181.749 16.1378 182.039 15.9545C182.333 15.767 182.482 15.5263 182.486 15.2322C182.482 14.9851 182.377 14.7827 182.173 14.625C181.968 14.4631 181.653 14.3395 181.227 14.2543L179.527 13.9155C178.568 13.7237 177.854 13.3913 177.385 12.9183C176.921 12.4453 176.688 11.8423 176.688 11.1094C176.688 10.4787 176.859 9.93537 177.2 9.4794C177.545 9.02344 178.029 8.67188 178.651 8.42472C179.277 8.17756 180.01 8.05398 180.85 8.05398C182.09 8.05398 183.066 8.31605 183.777 8.8402C184.493 9.36435 184.911 10.0781 185.03 10.9815ZM195.571 18.1918C194.578 18.1918 193.719 17.9808 192.995 17.5589C192.274 17.1328 191.718 16.5405 191.326 15.782C190.934 15.0192 190.738 14.1349 190.738 13.1293C190.738 12.1151 190.934 11.2287 191.326 10.4702C191.718 9.70739 192.274 9.11506 192.995 8.69318C193.719 8.26705 194.578 8.05398 195.571 8.05398C196.563 8.05398 197.42 8.26705 198.14 8.69318C198.865 9.11506 199.423 9.70739 199.815 10.4702C200.207 11.2287 200.403 12.1151 200.403 13.1293C200.403 14.1349 200.207 15.0192 199.815 15.782C199.423 16.5405 198.865 17.1328 198.14 17.5589C197.42 17.9808 196.563 18.1918 195.571 18.1918ZM195.583 16.0824C196.035 16.0824 196.412 15.9545 196.715 15.6989C197.017 15.4389 197.245 15.0852 197.399 14.6378C197.556 14.1903 197.635 13.6811 197.635 13.1101C197.635 12.5391 197.556 12.0298 197.399 11.5824C197.245 11.1349 197.017 10.7812 196.715 10.5213C196.412 10.2614 196.035 10.1314 195.583 10.1314C195.127 10.1314 194.744 10.2614 194.433 10.5213C194.126 10.7812 193.894 11.1349 193.736 11.5824C193.583 12.0298 193.506 12.5391 193.506 13.1101C193.506 13.6811 193.583 14.1903 193.736 14.6378C193.894 15.0852 194.126 15.4389 194.433 15.6989C194.744 15.9545 195.127 16.0824 195.583 16.0824ZM207.453 8.18182V10.2273H201.394V8.18182H207.453ZM202.781 18V7.4723C202.781 6.76065 202.919 6.17045 203.196 5.7017C203.478 5.23295 203.861 4.88139 204.347 4.64702C204.833 4.41264 205.384 4.29545 206.002 4.29545C206.42 4.29545 206.801 4.32741 207.147 4.39134C207.496 4.45526 207.756 4.51278 207.926 4.56392L207.441 6.60938C207.334 6.57528 207.202 6.54332 207.044 6.51349C206.891 6.48366 206.733 6.46875 206.571 6.46875C206.171 6.46875 205.892 6.5625 205.734 6.75C205.576 6.93324 205.497 7.19105 205.497 7.52344V18H202.781ZM217.719 18.1918C216.713 18.1918 215.848 17.9787 215.124 17.5526C214.404 17.1222 213.85 16.5256 213.462 15.7628C213.078 15 212.887 14.1222 212.887 13.1293C212.887 12.1236 213.081 11.2415 213.468 10.483C213.86 9.72017 214.416 9.12571 215.137 8.69957C215.857 8.26918 216.713 8.05398 217.706 8.05398C218.563 8.05398 219.313 8.20952 219.956 8.5206C220.6 8.83168 221.109 9.26847 221.484 9.83097C221.859 10.3935 222.066 11.054 222.104 11.8125H219.534C219.462 11.3224 219.27 10.9283 218.959 10.63C218.652 10.3274 218.25 10.1761 217.751 10.1761C217.329 10.1761 216.96 10.2912 216.645 10.5213C216.334 10.7472 216.091 11.0774 215.916 11.5121C215.742 11.9467 215.654 12.473 215.654 13.0909C215.654 13.7173 215.74 14.25 215.91 14.6889C216.085 15.1278 216.33 15.4624 216.645 15.6925C216.96 15.9226 217.329 16.0376 217.751 16.0376C218.062 16.0376 218.341 15.9737 218.588 15.8459C218.84 15.718 219.046 15.5327 219.208 15.2898C219.375 15.0426 219.483 14.7464 219.534 14.4013H222.104C222.061 15.1513 221.857 15.8118 221.49 16.3828C221.128 16.9496 220.627 17.3928 219.988 17.7124C219.349 18.032 218.593 18.1918 217.719 18.1918ZM230.144 13.8196V8.18182H232.867V18H230.252V16.2166H230.15C229.928 16.7919 229.56 17.2543 229.044 17.6037C228.533 17.9531 227.908 18.1278 227.171 18.1278C226.515 18.1278 225.938 17.9787 225.439 17.6804C224.94 17.3821 224.551 16.9581 224.269 16.4084C223.992 15.8587 223.852 15.2003 223.847 14.4332V8.18182H226.57V13.9474C226.575 14.527 226.73 14.9851 227.037 15.3217C227.344 15.6584 227.755 15.8267 228.271 15.8267C228.599 15.8267 228.906 15.7521 229.191 15.603C229.477 15.4496 229.707 15.2237 229.881 14.9254C230.06 14.6271 230.148 14.2585 230.144 13.8196ZM243.214 10.9815L240.721 11.1349C240.678 10.9219 240.587 10.7301 240.446 10.5597C240.305 10.3849 240.12 10.2464 239.89 10.1442C239.664 10.0376 239.393 9.98438 239.078 9.98438C238.656 9.98438 238.3 10.0739 238.011 10.2528C237.721 10.4276 237.576 10.6619 237.576 10.956C237.576 11.1903 237.67 11.3885 237.857 11.5504C238.045 11.7124 238.366 11.8423 238.822 11.9403L240.599 12.2983C241.554 12.4943 242.266 12.8097 242.734 13.2443C243.203 13.679 243.437 14.25 243.437 14.9574C243.437 15.6009 243.248 16.1655 242.869 16.6513C242.494 17.1371 241.978 17.5163 241.322 17.7891C240.67 18.0575 239.918 18.1918 239.065 18.1918C237.766 18.1918 236.73 17.9212 235.959 17.38C235.192 16.8345 234.742 16.093 234.61 15.1555L237.288 15.0149C237.369 15.4112 237.565 15.7138 237.876 15.9226C238.187 16.1271 238.586 16.2294 239.072 16.2294C239.549 16.2294 239.932 16.1378 240.222 15.9545C240.516 15.767 240.665 15.5263 240.67 15.2322C240.665 14.9851 240.561 14.7827 240.356 14.625C240.152 14.4631 239.837 14.3395 239.41 14.2543L237.71 13.9155C236.751 13.7237 236.038 13.3913 235.569 12.9183C235.104 12.4453 234.872 11.8423 234.872 11.1094C234.872 10.4787 235.043 9.93537 235.383 9.4794C235.729 9.02344 236.212 8.67188 236.834 8.42472C237.461 8.17756 238.194 8.05398 239.033 8.05398C240.273 8.05398 241.249 8.31605 241.961 8.8402C242.677 9.36435 243.094 10.0781 243.214 10.9815ZM250.374 8.18182V10.2273H244.462V8.18182H250.374ZM245.804 5.82955H248.527V14.983C248.527 15.2344 248.565 15.4304 248.642 15.571C248.719 15.7074 248.825 15.8033 248.962 15.8587C249.102 15.9141 249.264 15.9418 249.448 15.9418C249.575 15.9418 249.703 15.9311 249.831 15.9098C249.959 15.8842 250.057 15.8651 250.125 15.8523L250.553 17.8786C250.417 17.9212 250.225 17.9702 249.978 18.0256C249.731 18.0852 249.43 18.1214 249.077 18.1342C248.421 18.1598 247.845 18.0724 247.351 17.8722C246.861 17.6719 246.479 17.3608 246.207 16.9389C245.934 16.517 245.8 15.9844 245.804 15.3409V5.82955ZM256.479 18.1918C255.486 18.1918 254.627 17.9808 253.903 17.5589C253.183 17.1328 252.627 16.5405 252.234 15.782C251.842 15.0192 251.646 14.1349 251.646 13.1293C251.646 12.1151 251.842 11.2287 252.234 10.4702C252.627 9.70739 253.183 9.11506 253.903 8.69318C254.627 8.26705 255.486 8.05398 256.479 8.05398C257.472 8.05398 258.328 8.26705 259.048 8.69318C259.773 9.11506 260.331 9.70739 260.723 10.4702C261.115 11.2287 261.311 12.1151 261.311 13.1293C261.311 14.1349 261.115 15.0192 260.723 15.782C260.331 16.5405 259.773 17.1328 259.048 17.5589C258.328 17.9808 257.472 18.1918 256.479 18.1918ZM256.492 16.0824C256.943 16.0824 257.32 15.9545 257.623 15.6989C257.926 15.4389 258.153 15.0852 258.307 14.6378C258.465 14.1903 258.543 13.6811 258.543 13.1101C258.543 12.5391 258.465 12.0298 258.307 11.5824C258.153 11.1349 257.926 10.7812 257.623 10.5213C257.32 10.2614 256.943 10.1314 256.492 10.1314C256.036 10.1314 255.652 10.2614 255.341 10.5213C255.034 10.7812 254.802 11.1349 254.644 11.5824C254.491 12.0298 254.414 12.5391 254.414 13.1101C254.414 13.6811 254.491 14.1903 254.644 14.6378C254.802 15.0852 255.034 15.4389 255.341 15.6989C255.652 15.9545 256.036 16.0824 256.492 16.0824ZM263.082 18V8.18182H265.677V9.91406H265.792C265.997 9.33878 266.337 8.88494 266.815 8.55256C267.292 8.22017 267.863 8.05398 268.528 8.05398C269.201 8.05398 269.774 8.2223 270.247 8.55895C270.72 8.89133 271.036 9.34304 271.193 9.91406H271.296C271.496 9.35156 271.858 8.90199 272.382 8.56534C272.911 8.22443 273.535 8.05398 274.255 8.05398C275.171 8.05398 275.915 8.34588 276.486 8.92969C277.061 9.50923 277.349 10.3317 277.349 11.397V18H274.632V11.9339C274.632 11.3885 274.487 10.9794 274.198 10.7067C273.908 10.4339 273.546 10.2976 273.111 10.2976C272.617 10.2976 272.231 10.4553 271.954 10.7706C271.677 11.0817 271.538 11.4929 271.538 12.0043V18H268.899V11.8764C268.899 11.3949 268.76 11.0114 268.483 10.7259C268.21 10.4403 267.85 10.2976 267.403 10.2976C267.1 10.2976 266.828 10.3743 266.585 10.5277C266.346 10.6768 266.156 10.8878 266.016 11.1605C265.875 11.429 265.805 11.7443 265.805 12.1065V18H263.082ZM283.974 18.1918C282.964 18.1918 282.095 17.9872 281.366 17.5781C280.642 17.1648 280.084 16.581 279.691 15.8267C279.299 15.0682 279.103 14.1712 279.103 13.1357C279.103 12.1257 279.299 11.2393 279.691 10.4766C280.084 9.71378 280.635 9.11932 281.347 8.69318C282.063 8.26705 282.902 8.05398 283.866 8.05398C284.513 8.05398 285.116 8.15838 285.674 8.36719C286.237 8.57173 286.727 8.88068 287.145 9.29403C287.566 9.70739 287.895 10.2273 288.129 10.8537C288.363 11.4759 288.481 12.2045 288.481 13.0398V13.7876H280.19V12.1001H285.917C285.917 11.7081 285.832 11.3608 285.662 11.0582C285.491 10.7557 285.255 10.5192 284.952 10.3487C284.654 10.174 284.307 10.0866 283.91 10.0866C283.497 10.0866 283.13 10.1825 282.811 10.3743C282.495 10.5618 282.248 10.8153 282.069 11.1349C281.89 11.4503 281.799 11.8018 281.794 12.1896V13.794C281.794 14.2798 281.884 14.6996 282.063 15.0533C282.246 15.407 282.504 15.6797 282.836 15.8714C283.169 16.0632 283.563 16.1591 284.019 16.1591C284.321 16.1591 284.598 16.1165 284.85 16.0312C285.101 15.946 285.316 15.8182 285.495 15.6477C285.674 15.4773 285.811 15.2685 285.905 15.0213L288.423 15.1875C288.295 15.7926 288.033 16.321 287.637 16.7727C287.245 17.2202 286.738 17.5696 286.116 17.821C285.498 18.0682 284.784 18.1918 283.974 18.1918ZM290.258 18V8.18182H292.897V9.89489H293C293.179 9.28551 293.479 8.82528 293.901 8.5142C294.323 8.19886 294.809 8.04119 295.358 8.04119C295.495 8.04119 295.642 8.04972 295.799 8.06676C295.957 8.08381 296.096 8.10724 296.215 8.13707V10.5533C296.087 10.5149 295.91 10.4808 295.684 10.451C295.459 10.4212 295.252 10.4062 295.064 10.4062C294.664 10.4062 294.306 10.4936 293.991 10.6683C293.679 10.8388 293.432 11.0774 293.249 11.3842C293.07 11.6911 292.981 12.0447 292.981 12.4453V18H290.258ZM305.792 10.9815L303.299 11.1349C303.256 10.9219 303.165 10.7301 303.024 10.5597C302.883 10.3849 302.698 10.2464 302.468 10.1442C302.242 10.0376 301.972 9.98438 301.656 9.98438C301.234 9.98438 300.878 10.0739 300.589 10.2528C300.299 10.4276 300.154 10.6619 300.154 10.956C300.154 11.1903 300.248 11.3885 300.435 11.5504C300.623 11.7124 300.945 11.8423 301.4 11.9403L303.177 12.2983C304.132 12.4943 304.844 12.8097 305.312 13.2443C305.781 13.679 306.016 14.25 306.016 14.9574C306.016 15.6009 305.826 16.1655 305.447 16.6513C305.072 17.1371 304.556 17.5163 303.9 17.7891C303.248 18.0575 302.496 18.1918 301.643 18.1918C300.344 18.1918 299.308 17.9212 298.537 17.38C297.77 16.8345 297.32 16.093 297.188 15.1555L299.866 15.0149C299.947 15.4112 300.143 15.7138 300.454 15.9226C300.766 16.1271 301.164 16.2294 301.65 16.2294C302.127 16.2294 302.511 16.1378 302.8 15.9545C303.094 15.767 303.244 15.5263 303.248 15.2322C303.244 14.9851 303.139 14.7827 302.935 14.625C302.73 14.4631 302.415 14.3395 301.989 14.2543L300.288 13.9155C299.329 13.7237 298.616 13.3913 298.147 12.9183C297.682 12.4453 297.45 11.8423 297.45 11.1094C297.45 10.4787 297.621 9.93537 297.962 9.4794C298.307 9.02344 298.79 8.67188 299.413 8.42472C300.039 8.17756 300.772 8.05398 301.611 8.05398C302.851 8.05398 303.827 8.31605 304.539 8.8402C305.255 9.36435 305.672 10.0781 305.792 10.9815Z" fill="#121214"/>
<path d="M5.92738 362V361.045L8.8805 357.986C9.19585 357.653 9.45579 357.362 9.66033 357.112C9.86772 356.859 10.0225 356.619 10.1248 356.392C10.2271 356.165 10.2782 355.923 10.2782 355.668C10.2782 355.378 10.21 355.128 10.0737 354.918C9.93732 354.705 9.75124 354.541 9.51545 354.428C9.27965 354.311 9.01403 354.253 8.71857 354.253C8.40607 354.253 8.13335 354.317 7.90039 354.445C7.66744 354.572 7.48846 354.753 7.36346 354.986C7.23846 355.219 7.17596 355.491 7.17596 355.804H5.91886C5.91886 355.273 6.04102 354.808 6.28533 354.411C6.52965 354.013 6.86488 353.705 7.29102 353.486C7.71715 353.264 8.20153 353.153 8.74414 353.153C9.29244 353.153 9.77539 353.263 10.193 353.482C10.6135 353.697 10.9416 353.993 11.1774 354.368C11.4132 354.74 11.5311 355.161 11.5311 355.629C11.5311 355.953 11.47 356.27 11.3478 356.58C11.2285 356.889 11.0197 357.234 10.7214 357.615C10.4231 357.993 10.0083 358.452 9.4771 358.991L7.74272 360.807V360.871H11.6717V362H5.92738ZM16.3251 362.145C15.6518 362.142 15.0765 361.964 14.5993 361.612C14.122 361.26 13.7569 360.747 13.5041 360.074C13.2512 359.401 13.1248 358.589 13.1248 357.641C13.1248 356.695 13.2512 355.886 13.5041 355.216C13.7598 354.545 14.1262 354.034 14.6035 353.682C15.0836 353.33 15.6575 353.153 16.3251 353.153C16.9927 353.153 17.5652 353.331 18.0424 353.686C18.5197 354.038 18.8848 354.55 19.1376 355.22C19.3933 355.888 19.5211 356.695 19.5211 357.641C19.5211 358.592 19.3947 359.405 19.1419 360.078C18.889 360.749 18.524 361.261 18.0467 361.616C17.5694 361.969 16.9956 362.145 16.3251 362.145ZM16.3251 361.007C16.916 361.007 17.3777 360.719 17.71 360.142C18.0453 359.565 18.2129 358.732 18.2129 357.641C18.2129 356.916 18.1362 356.304 17.9828 355.804C17.8322 355.301 17.6149 354.92 17.3308 354.662C17.0495 354.401 16.7143 354.27 16.3251 354.27C15.737 354.27 15.2754 354.56 14.9402 355.139C14.6049 355.719 14.4359 356.553 14.4331 357.641C14.4331 358.368 14.5083 358.983 14.6589 359.486C14.8123 359.986 15.0297 360.365 15.3109 360.624C15.5922 360.879 15.9302 361.007 16.3251 361.007ZM21.0328 362V361.045L23.986 357.986C24.3013 357.653 24.5613 357.362 24.7658 357.112C24.9732 356.859 25.128 356.619 25.2303 356.392C25.3326 356.165 25.3837 355.923 25.3837 355.668C25.3837 355.378 25.3155 355.128 25.1792 354.918C25.0428 354.705 24.8567 354.541 24.6209 354.428C24.3851 354.311 24.1195 354.253 23.824 354.253C23.5115 354.253 23.2388 354.317 23.0059 354.445C22.7729 354.572 22.5939 354.753 22.4689 354.986C22.3439 355.219 22.2814 355.491 22.2814 355.804H21.0243C21.0243 355.273 21.1465 354.808 21.3908 354.411C21.6351 354.013 21.9703 353.705 22.3965 353.486C22.8226 353.264 23.307 353.153 23.8496 353.153C24.3979 353.153 24.8809 353.263 25.2985 353.482C25.7189 353.697 26.0471 353.993 26.2828 354.368C26.5186 354.74 26.6365 355.161 26.6365 355.629C26.6365 355.953 26.5755 356.27 26.4533 356.58C26.334 356.889 26.1252 357.234 25.8269 357.615C25.5286 357.993 25.1138 358.452 24.5826 358.991L22.8482 360.807V360.871H26.7772V362H21.0328ZM28.3922 362V361.045L31.3453 357.986C31.6607 357.653 31.9206 357.362 32.1252 357.112C32.3326 356.859 32.4874 356.619 32.5897 356.392C32.6919 356.165 32.7431 355.923 32.7431 355.668C32.7431 355.378 32.6749 355.128 32.5385 354.918C32.4022 354.705 32.2161 354.541 31.9803 354.428C31.7445 354.311 31.4789 354.253 31.1834 354.253C30.8709 354.253 30.5982 354.317 30.3652 354.445C30.1323 354.572 29.9533 354.753 29.8283 354.986C29.7033 355.219 29.6408 355.491 29.6408 355.804H28.3837C28.3837 355.273 28.5059 354.808 28.7502 354.411C28.9945 354.013 29.3297 353.705 29.7559 353.486C30.182 353.264 30.6664 353.153 31.209 353.153C31.7573 353.153 32.2402 353.263 32.6578 353.482C33.0783 353.697 33.4064 353.993 33.6422 354.368C33.878 354.74 33.9959 355.161 33.9959 355.629C33.9959 355.953 33.9348 356.27 33.8127 356.58C33.6934 356.889 33.4846 357.234 33.1863 357.615C32.888 357.993 32.4732 358.452 31.9419 358.991L30.2076 360.807V360.871H34.1365V362H28.3922Z" fill="#121214"/>
<path d="M67.7399 362V361.045L70.693 357.986C71.0083 357.653 71.2683 357.362 71.4728 357.112C71.6802 356.859 71.835 356.619 71.9373 356.392C72.0396 356.165 72.0907 355.923 72.0907 355.668C72.0907 355.378 72.0225 355.128 71.8862 354.918C71.7498 354.705 71.5637 354.541 71.3279 354.428C71.0922 354.311 70.8265 354.253 70.5311 354.253C70.2186 354.253 69.9458 354.317 69.7129 354.445C69.4799 354.572 69.301 354.753 69.176 354.986C69.051 355.219 68.9885 355.491 68.9885 355.804H67.7314C67.7314 355.273 67.8535 354.808 68.0978 354.411C68.3422 354.013 68.6774 353.705 69.1035 353.486C69.5297 353.264 70.014 353.153 70.5566 353.153C71.1049 353.153 71.5879 353.263 72.0055 353.482C72.426 353.697 72.7541 353.993 72.9899 354.368C73.2257 354.74 73.3436 355.161 73.3436 355.629C73.3436 355.953 73.2825 356.27 73.1603 356.58C73.041 356.889 72.8322 357.234 72.5339 357.615C72.2356 357.993 71.8208 358.452 71.2896 358.991L69.5552 360.807V360.871H73.4842V362H67.7399ZM78.1376 362.145C77.4643 362.142 76.889 361.964 76.4118 361.612C75.9345 361.26 75.5694 360.747 75.3166 360.074C75.0637 359.401 74.9373 358.589 74.9373 357.641C74.9373 356.695 75.0637 355.886 75.3166 355.216C75.5723 354.545 75.9387 354.034 76.416 353.682C76.8961 353.33 77.47 353.153 78.1376 353.153C78.8052 353.153 79.3777 353.331 79.8549 353.686C80.3322 354.038 80.6973 354.55 80.9501 355.22C81.2058 355.888 81.3336 356.695 81.3336 357.641C81.3336 358.592 81.2072 359.405 80.9544 360.078C80.7015 360.749 80.3365 361.261 79.8592 361.616C79.3819 361.969 78.8081 362.145 78.1376 362.145ZM78.1376 361.007C78.7285 361.007 79.1902 360.719 79.5225 360.142C79.8578 359.565 80.0254 358.732 80.0254 357.641C80.0254 356.916 79.9487 356.304 79.7953 355.804C79.6447 355.301 79.4274 354.92 79.1433 354.662C78.862 354.401 78.5268 354.27 78.1376 354.27C77.5495 354.27 77.0879 354.56 76.7527 355.139C76.4174 355.719 76.2484 356.553 76.2456 357.641C76.2456 358.368 76.3208 358.983 76.4714 359.486C76.6248 359.986 76.8422 360.365 77.1234 360.624C77.4047 360.879 77.7427 361.007 78.1376 361.007ZM82.8453 362V361.045L85.7985 357.986C86.1138 357.653 86.3738 357.362 86.5783 357.112C86.7857 356.859 86.9405 356.619 87.0428 356.392C87.1451 356.165 87.1962 355.923 87.1962 355.668C87.1962 355.378 87.128 355.128 86.9917 354.918C86.8553 354.705 86.6692 354.541 86.4334 354.428C86.1976 354.311 85.932 354.253 85.6365 354.253C85.324 354.253 85.0513 354.317 84.8184 354.445C84.5854 354.572 84.4064 354.753 84.2814 354.986C84.1564 355.219 84.0939 355.491 84.0939 355.804H82.8368C82.8368 355.273 82.959 354.808 83.2033 354.411C83.4476 354.013 83.7828 353.705 84.209 353.486C84.6351 353.264 85.1195 353.153 85.6621 353.153C86.2104 353.153 86.6934 353.263 87.111 353.482C87.5314 353.697 87.8596 353.993 88.0953 354.368C88.3311 354.74 88.449 355.161 88.449 355.629C88.449 355.953 88.388 356.27 88.2658 356.58C88.1465 356.889 87.9377 357.234 87.6394 357.615C87.3411 357.993 86.9263 358.452 86.3951 358.991L84.6607 360.807V360.871H88.5897V362H82.8453ZM93.2431 362.119C92.6578 362.119 92.1351 362.018 91.6749 361.817C91.2175 361.615 90.8553 361.335 90.5882 360.977C90.324 360.616 90.182 360.199 90.1621 359.724H91.5002C91.5172 359.983 91.6039 360.207 91.7601 360.398C91.9192 360.585 92.1266 360.73 92.3823 360.832C92.638 360.935 92.9221 360.986 93.2346 360.986C93.5783 360.986 93.8823 360.926 94.1465 360.807C94.4135 360.687 94.6223 360.521 94.7729 360.308C94.9235 360.092 94.9988 359.844 94.9988 359.562C94.9988 359.27 94.9235 359.013 94.7729 358.791C94.6252 358.567 94.4078 358.391 94.1209 358.263C93.8368 358.135 93.4931 358.071 93.0897 358.071H92.3525V356.997H93.0897C93.4135 356.997 93.6976 356.939 93.9419 356.822C94.1891 356.706 94.3823 356.544 94.5215 356.337C94.6607 356.126 94.7303 355.881 94.7303 355.599C94.7303 355.33 94.6692 355.095 94.5471 354.896C94.4277 354.695 94.2573 354.537 94.0357 354.423C93.8169 354.31 93.5584 354.253 93.2601 354.253C92.976 354.253 92.7104 354.305 92.4632 354.411C92.2189 354.513 92.0201 354.661 91.8667 354.854C91.7132 355.044 91.6309 355.273 91.6195 355.54H90.3453C90.3596 355.068 90.4988 354.653 90.763 354.295C91.03 353.937 91.3823 353.658 91.8198 353.456C92.2573 353.254 92.7431 353.153 93.2772 353.153C93.8368 353.153 94.3198 353.263 94.726 353.482C95.1351 353.697 95.4505 353.986 95.6721 354.347C95.8965 354.707 96.0073 355.102 96.0044 355.531C96.0073 356.02 95.8709 356.435 95.5953 356.776C95.3226 357.116 94.959 357.345 94.5044 357.462V357.53C95.084 357.618 95.5328 357.848 95.851 358.22C96.1721 358.592 96.3311 359.054 96.3283 359.605C96.3311 360.085 96.1976 360.516 95.9277 360.896C95.6607 361.277 95.2956 361.577 94.8326 361.795C94.3695 362.011 93.8397 362.119 93.2431 362.119Z" fill="#121214"/>
<path d="M129.775 362V361.045L132.728 357.986C133.044 357.653 133.303 357.362 133.508 357.112C133.715 356.859 133.87 356.619 133.972 356.392C134.075 356.165 134.126 355.923 134.126 355.668C134.126 355.378 134.058 355.128 133.921 354.918C133.785 354.705 133.599 354.541 133.363 354.428C133.127 354.311 132.862 354.253 132.566 354.253C132.254 354.253 131.981 354.317 131.748 354.445C131.515 354.572 131.336 354.753 131.211 354.986C131.086 355.219 131.024 355.491 131.024 355.804H129.767C129.767 355.273 129.889 354.808 130.133 354.411C130.377 354.013 130.713 353.705 131.139 353.486C131.565 353.264 132.049 353.153 132.592 353.153C133.14 353.153 133.623 353.263 134.041 353.482C134.461 353.697 134.789 353.993 135.025 354.368C135.261 354.74 135.379 355.161 135.379 355.629C135.379 355.953 135.318 356.27 135.195 356.58C135.076 356.889 134.867 357.234 134.569 357.615C134.271 357.993 133.856 358.452 133.325 358.991L131.59 360.807V360.871H135.519V362H129.775ZM140.173 362.145C139.499 362.142 138.924 361.964 138.447 361.612C137.97 361.26 137.605 360.747 137.352 360.074C137.099 359.401 136.972 358.589 136.972 357.641C136.972 356.695 137.099 355.886 137.352 355.216C137.607 354.545 137.974 354.034 138.451 353.682C138.931 353.33 139.505 353.153 140.173 353.153C140.84 353.153 141.413 353.331 141.89 353.686C142.367 354.038 142.732 354.55 142.985 355.22C143.241 355.888 143.369 356.695 143.369 357.641C143.369 358.592 143.242 359.405 142.99 360.078C142.737 360.749 142.372 361.261 141.894 361.616C141.417 361.969 140.843 362.145 140.173 362.145ZM140.173 361.007C140.764 361.007 141.225 360.719 141.558 360.142C141.893 359.565 142.061 358.732 142.061 357.641C142.061 356.916 141.984 356.304 141.83 355.804C141.68 355.301 141.463 354.92 141.178 354.662C140.897 354.401 140.562 354.27 140.173 354.27C139.585 354.27 139.123 354.56 138.788 355.139C138.453 355.719 138.284 356.553 138.281 357.641C138.281 358.368 138.356 358.983 138.507 359.486C138.66 359.986 138.877 360.365 139.159 360.624C139.44 360.879 139.778 361.007 140.173 361.007ZM144.881 362V361.045L147.834 357.986C148.149 357.653 148.409 357.362 148.613 357.112C148.821 356.859 148.976 356.619 149.078 356.392C149.18 356.165 149.231 355.923 149.231 355.668C149.231 355.378 149.163 355.128 149.027 354.918C148.89 354.705 148.704 354.541 148.469 354.428C148.233 354.311 147.967 354.253 147.672 354.253C147.359 354.253 147.086 354.317 146.854 354.445C146.621 354.572 146.442 354.753 146.317 354.986C146.192 355.219 146.129 355.491 146.129 355.804H144.872C144.872 355.273 144.994 354.808 145.238 354.411C145.483 354.013 145.818 353.705 146.244 353.486C146.67 353.264 147.155 353.153 147.697 353.153C148.246 353.153 148.729 353.263 149.146 353.482C149.567 353.697 149.895 353.993 150.131 354.368C150.366 354.74 150.484 355.161 150.484 355.629C150.484 355.953 150.423 356.27 150.301 356.58C150.182 356.889 149.973 357.234 149.675 357.615C149.376 357.993 148.961 358.452 148.43 358.991L146.696 360.807V360.871H150.625V362H144.881ZM151.869 360.295V359.23L155.64 353.273H156.48V354.841H155.947L153.25 359.111V359.179H158.419V360.295H151.869ZM156.007 362V359.972L156.015 359.486V353.273H157.264V362H156.007Z" fill="#121214"/>
<path d="M191.886 362V361.045L194.839 357.986C195.155 357.653 195.415 357.362 195.619 357.112C195.827 356.859 195.982 356.619 196.084 356.392C196.186 356.165 196.237 355.923 196.237 355.668C196.237 355.378 196.169 355.128 196.033 354.918C195.896 354.705 195.71 354.541 195.474 354.428C195.239 354.311 194.973 354.253 194.678 354.253C194.365 354.253 194.092 354.317 193.859 354.445C193.626 354.572 193.447 354.753 193.322 354.986C193.197 355.219 193.135 355.491 193.135 355.804H191.878C191.878 355.273 192 354.808 192.244 354.411C192.489 354.013 192.824 353.705 193.25 353.486C193.676 353.264 194.161 353.153 194.703 353.153C195.251 353.153 195.734 353.263 196.152 353.482C196.572 353.697 196.901 353.993 197.136 354.368C197.372 354.74 197.49 355.161 197.49 355.629C197.49 355.953 197.429 356.27 197.307 356.58C197.188 356.889 196.979 357.234 196.68 357.615C196.382 357.993 195.967 358.452 195.436 358.991L193.702 360.807V360.871H197.631V362H191.886ZM202.284 362.145C201.611 362.142 201.036 361.964 200.558 361.612C200.081 361.26 199.716 360.747 199.463 360.074C199.21 359.401 199.084 358.589 199.084 357.641C199.084 356.695 199.21 355.886 199.463 355.216C199.719 354.545 200.085 354.034 200.562 353.682C201.043 353.33 201.616 353.153 202.284 353.153C202.952 353.153 203.524 353.331 204.001 353.686C204.479 354.038 204.844 354.55 205.097 355.22C205.352 355.888 205.48 356.695 205.48 357.641C205.48 358.592 205.354 359.405 205.101 360.078C204.848 360.749 204.483 361.261 204.006 361.616C203.528 361.969 202.955 362.145 202.284 362.145ZM202.284 361.007C202.875 361.007 203.337 360.719 203.669 360.142C204.004 359.565 204.172 358.732 204.172 357.641C204.172 356.916 204.095 356.304 203.942 355.804C203.791 355.301 203.574 354.92 203.29 354.662C203.009 354.401 202.673 354.27 202.284 354.27C201.696 354.27 201.234 354.56 200.899 355.139C200.564 355.719 200.395 356.553 200.392 357.641C200.392 358.368 200.467 358.983 200.618 359.486C200.771 359.986 200.989 360.365 201.27 360.624C201.551 360.879 201.889 361.007 202.284 361.007ZM206.992 362V361.045L209.945 357.986C210.26 357.653 210.52 357.362 210.725 357.112C210.932 356.859 211.087 356.619 211.189 356.392C211.292 356.165 211.343 355.923 211.343 355.668C211.343 355.378 211.275 355.128 211.138 354.918C211.002 354.705 210.816 354.541 210.58 354.428C210.344 354.311 210.078 354.253 209.783 354.253C209.471 354.253 209.198 354.317 208.965 354.445C208.732 354.572 208.553 354.753 208.428 354.986C208.303 355.219 208.24 355.491 208.24 355.804H206.983C206.983 355.273 207.105 354.808 207.35 354.411C207.594 354.013 207.929 353.705 208.355 353.486C208.782 353.264 209.266 353.153 209.809 353.153C210.357 353.153 210.84 353.263 211.257 353.482C211.678 353.697 212.006 353.993 212.242 354.368C212.478 354.74 212.596 355.161 212.596 355.629C212.596 355.953 212.534 356.27 212.412 356.58C212.293 356.889 212.084 357.234 211.786 357.615C211.488 357.993 211.073 358.452 210.542 358.991L208.807 360.807V360.871H212.736V362H206.992ZM217.232 362.119C216.698 362.119 216.218 362.017 215.792 361.812C215.368 361.605 215.03 361.321 214.777 360.96C214.525 360.599 214.39 360.188 214.373 359.724H215.651C215.682 360.099 215.848 360.408 216.15 360.649C216.451 360.891 216.811 361.011 217.232 361.011C217.567 361.011 217.864 360.935 218.123 360.781C218.384 360.625 218.588 360.411 218.736 360.138C218.887 359.865 218.962 359.554 218.962 359.205C218.962 358.849 218.885 358.533 218.732 358.254C218.578 357.976 218.367 357.757 218.097 357.598C217.83 357.439 217.523 357.358 217.176 357.355C216.912 357.355 216.647 357.401 216.38 357.491C216.113 357.582 215.897 357.702 215.732 357.849L214.526 357.67L215.016 353.273H219.814V354.402H216.111L215.834 356.844H215.885C216.056 356.679 216.282 356.541 216.563 356.43C216.847 356.32 217.151 356.264 217.475 356.264C218.006 356.264 218.479 356.391 218.894 356.643C219.311 356.896 219.64 357.241 219.878 357.679C220.12 358.114 220.239 358.614 220.236 359.179C220.239 359.744 220.111 360.249 219.853 360.692C219.597 361.135 219.242 361.484 218.787 361.74C218.336 361.993 217.817 362.119 217.232 362.119Z" fill="#121214"/>
<path d="M253.793 362V361.045L256.746 357.986C257.061 357.653 257.321 357.362 257.526 357.112C257.733 356.859 257.888 356.619 257.99 356.392C258.092 356.165 258.143 355.923 258.143 355.668C258.143 355.378 258.075 355.128 257.939 354.918C257.803 354.705 257.616 354.541 257.381 354.428C257.145 354.311 256.879 354.253 256.584 354.253C256.271 354.253 255.999 354.317 255.766 354.445C255.533 354.572 255.354 354.753 255.229 354.986C255.104 355.219 255.041 355.491 255.041 355.804H253.784C253.784 355.273 253.906 354.808 254.151 354.411C254.395 354.013 254.73 353.705 255.156 353.486C255.582 353.264 256.067 353.153 256.609 353.153C257.158 353.153 257.641 353.263 258.058 353.482C258.479 353.697 258.807 353.993 259.043 354.368C259.278 354.74 259.396 355.161 259.396 355.629C259.396 355.953 259.335 356.27 259.213 356.58C259.094 356.889 258.885 357.234 258.587 357.615C258.288 357.993 257.874 358.452 257.342 358.991L255.608 360.807V360.871H259.537V362H253.793ZM264.19 362.145C263.517 362.142 262.942 361.964 262.464 361.612C261.987 361.26 261.622 360.747 261.369 360.074C261.116 359.401 260.99 358.589 260.99 357.641C260.99 356.695 261.116 355.886 261.369 355.216C261.625 354.545 261.991 354.034 262.469 353.682C262.949 353.33 263.523 353.153 264.19 353.153C264.858 353.153 265.43 353.331 265.908 353.686C266.385 354.038 266.75 354.55 267.003 355.22C267.259 355.888 267.386 356.695 267.386 357.641C267.386 358.592 267.26 359.405 267.007 360.078C266.754 360.749 266.389 361.261 265.912 361.616C265.435 361.969 264.861 362.145 264.19 362.145ZM264.19 361.007C264.781 361.007 265.243 360.719 265.575 360.142C265.911 359.565 266.078 358.732 266.078 357.641C266.078 356.916 266.001 356.304 265.848 355.804C265.697 355.301 265.48 354.92 265.196 354.662C264.915 354.401 264.58 354.27 264.19 354.27C263.602 354.27 263.141 354.56 262.805 355.139C262.47 355.719 262.301 356.553 262.298 357.641C262.298 358.368 262.374 358.983 262.524 359.486C262.678 359.986 262.895 360.365 263.176 360.624C263.457 360.879 263.795 361.007 264.19 361.007ZM268.898 362V361.045L271.851 357.986C272.167 357.653 272.426 357.362 272.631 357.112C272.838 356.859 272.993 356.619 273.096 356.392C273.198 356.165 273.249 355.923 273.249 355.668C273.249 355.378 273.181 355.128 273.044 354.918C272.908 354.705 272.722 354.541 272.486 354.428C272.25 354.311 271.985 354.253 271.689 354.253C271.377 354.253 271.104 354.317 270.871 354.445C270.638 354.572 270.459 354.753 270.334 354.986C270.209 355.219 270.147 355.491 270.147 355.804H268.89C268.89 355.273 269.012 354.808 269.256 354.411C269.5 354.013 269.836 353.705 270.262 353.486C270.688 353.264 271.172 353.153 271.715 353.153C272.263 353.153 272.746 353.263 273.164 353.482C273.584 353.697 273.912 353.993 274.148 354.368C274.384 354.74 274.502 355.161 274.502 355.629C274.502 355.953 274.441 356.27 274.319 356.58C274.199 356.889 273.99 357.234 273.692 357.615C273.394 357.993 272.979 358.452 272.448 358.991L270.713 360.807V360.871H274.642V362H268.898ZM279.304 362.119C278.915 362.114 278.532 362.043 278.154 361.906C277.779 361.77 277.438 361.543 277.131 361.224C276.824 360.906 276.578 360.479 276.394 359.942C276.212 359.405 276.121 358.734 276.121 357.93C276.121 357.169 276.196 356.493 276.347 355.902C276.5 355.311 276.721 354.812 277.007 354.406C277.294 353.997 277.641 353.686 278.047 353.473C278.453 353.26 278.909 353.153 279.415 353.153C279.935 353.153 280.397 353.256 280.8 353.46C281.203 353.665 281.53 353.947 281.78 354.308C282.033 354.669 282.194 355.08 282.262 355.54H280.962C280.874 355.176 280.699 354.879 280.438 354.649C280.176 354.419 279.836 354.304 279.415 354.304C278.776 354.304 278.277 354.582 277.919 355.139C277.564 355.696 277.385 356.47 277.382 357.462H277.446C277.597 357.214 277.782 357.004 278 356.831C278.222 356.655 278.469 356.52 278.742 356.426C279.017 356.33 279.307 356.281 279.611 356.281C280.117 356.281 280.574 356.405 280.983 356.652C281.395 356.896 281.723 357.234 281.968 357.666C282.212 358.098 282.334 358.592 282.334 359.149C282.334 359.706 282.208 360.21 281.955 360.662C281.705 361.114 281.353 361.472 280.898 361.736C280.444 361.997 279.912 362.125 279.304 362.119ZM279.3 361.011C279.635 361.011 279.935 360.929 280.199 360.764C280.463 360.599 280.672 360.378 280.826 360.099C280.979 359.821 281.056 359.51 281.056 359.166C281.056 358.831 280.98 358.526 280.83 358.25C280.682 357.974 280.478 357.756 280.216 357.594C279.958 357.432 279.662 357.351 279.33 357.351C279.077 357.351 278.843 357.399 278.627 357.496C278.414 357.592 278.226 357.726 278.064 357.896C277.902 358.067 277.775 358.263 277.681 358.484C277.59 358.703 277.544 358.935 277.544 359.179C277.544 359.506 277.62 359.808 277.77 360.087C277.924 360.365 278.132 360.589 278.397 360.76C278.664 360.928 278.965 361.011 279.3 361.011Z" fill="#121214"/>
<path d="M316.132 362V361.045L319.086 357.986C319.401 357.653 319.661 357.362 319.865 357.112C320.073 356.859 320.228 356.619 320.33 356.392C320.432 356.165 320.483 355.923 320.483 355.668C320.483 355.378 320.415 355.128 320.279 354.918C320.142 354.705 319.956 354.541 319.721 354.428C319.485 354.311 319.219 354.253 318.924 354.253C318.611 354.253 318.338 354.317 318.105 354.445C317.873 354.572 317.694 354.753 317.569 354.986C317.444 355.219 317.381 355.491 317.381 355.804H316.124C316.124 355.273 316.246 354.808 316.49 354.411C316.735 354.013 317.07 353.705 317.496 353.486C317.922 353.264 318.407 353.153 318.949 353.153C319.498 353.153 319.98 353.263 320.398 353.482C320.819 353.697 321.147 353.993 321.382 354.368C321.618 354.74 321.736 355.161 321.736 355.629C321.736 355.953 321.675 356.27 321.553 356.58C321.434 356.889 321.225 357.234 320.926 357.615C320.628 357.993 320.213 358.452 319.682 358.991L317.948 360.807V360.871H321.877V362H316.132ZM326.53 362.145C325.857 362.142 325.282 361.964 324.804 361.612C324.327 361.26 323.962 360.747 323.709 360.074C323.456 359.401 323.33 358.589 323.33 357.641C323.33 356.695 323.456 355.886 323.709 355.216C323.965 354.545 324.331 354.034 324.809 353.682C325.289 353.33 325.863 353.153 326.53 353.153C327.198 353.153 327.77 353.331 328.248 353.686C328.725 354.038 329.09 354.55 329.343 355.22C329.598 355.888 329.726 356.695 329.726 357.641C329.726 358.592 329.6 359.405 329.347 360.078C329.094 360.749 328.729 361.261 328.252 361.616C327.775 361.969 327.201 362.145 326.53 362.145ZM326.53 361.007C327.121 361.007 327.583 360.719 327.915 360.142C328.25 359.565 328.418 358.732 328.418 357.641C328.418 356.916 328.341 356.304 328.188 355.804C328.037 355.301 327.82 354.92 327.536 354.662C327.255 354.401 326.919 354.27 326.53 354.27C325.942 354.27 325.48 354.56 325.145 355.139C324.81 355.719 324.641 356.553 324.638 357.641C324.638 358.368 324.713 358.983 324.864 359.486C325.017 359.986 325.235 360.365 325.516 360.624C325.797 360.879 326.135 361.007 326.53 361.007ZM331.238 362V361.045L334.191 357.986C334.506 357.653 334.766 357.362 334.971 357.112C335.178 356.859 335.333 356.619 335.435 356.392C335.538 356.165 335.589 355.923 335.589 355.668C335.589 355.378 335.521 355.128 335.384 354.918C335.248 354.705 335.062 354.541 334.826 354.428C334.59 354.311 334.325 354.253 334.029 354.253C333.717 354.253 333.444 354.317 333.211 354.445C332.978 354.572 332.799 354.753 332.674 354.986C332.549 355.219 332.487 355.491 332.487 355.804H331.229C331.229 355.273 331.352 354.808 331.596 354.411C331.84 354.013 332.175 353.705 332.602 353.486C333.028 353.264 333.512 353.153 334.055 353.153C334.603 353.153 335.086 353.263 335.504 353.482C335.924 353.697 336.252 353.993 336.488 354.368C336.724 354.74 336.842 355.161 336.842 355.629C336.842 355.953 336.781 356.27 336.658 356.58C336.539 356.889 336.33 357.234 336.032 357.615C335.734 357.993 335.319 358.452 334.788 358.991L333.053 360.807V360.871H336.982V362H331.238ZM338.891 362L342.701 354.466V354.402H338.295V353.273H344.065V354.44L340.268 362H338.891Z" fill="#121214"/>
<path d="M377.816 362V361.045L380.769 357.986C381.085 357.653 381.344 357.362 381.549 357.112C381.756 356.859 381.911 356.619 382.013 356.392C382.116 356.165 382.167 355.923 382.167 355.668C382.167 355.378 382.099 355.128 381.962 354.918C381.826 354.705 381.64 354.541 381.404 354.428C381.168 354.311 380.903 354.253 380.607 354.253C380.295 354.253 380.022 354.317 379.789 354.445C379.556 354.572 379.377 354.753 379.252 354.986C379.127 355.219 379.065 355.491 379.065 355.804H377.808C377.808 355.273 377.93 354.808 378.174 354.411C378.418 354.013 378.754 353.705 379.18 353.486C379.606 353.264 380.09 353.153 380.633 353.153C381.181 353.153 381.664 353.263 382.082 353.482C382.502 353.697 382.83 353.993 383.066 354.368C383.302 354.74 383.42 355.161 383.42 355.629C383.42 355.953 383.359 356.27 383.237 356.58C383.117 356.889 382.908 357.234 382.61 357.615C382.312 357.993 381.897 358.452 381.366 358.991L379.631 360.807V360.871H383.56V362H377.816ZM388.214 362.145C387.54 362.142 386.965 361.964 386.488 361.612C386.011 361.26 385.646 360.747 385.393 360.074C385.14 359.401 385.013 358.589 385.013 357.641C385.013 356.695 385.14 355.886 385.393 355.216C385.648 354.545 386.015 354.034 386.492 353.682C386.972 353.33 387.546 353.153 388.214 353.153C388.881 353.153 389.454 353.331 389.931 353.686C390.408 354.038 390.773 354.55 391.026 355.22C391.282 355.888 391.41 356.695 391.41 357.641C391.41 358.592 391.283 359.405 391.031 360.078C390.778 360.749 390.413 361.261 389.935 361.616C389.458 361.969 388.884 362.145 388.214 362.145ZM388.214 361.007C388.805 361.007 389.266 360.719 389.599 360.142C389.934 359.565 390.102 358.732 390.102 357.641C390.102 356.916 390.025 356.304 389.871 355.804C389.721 355.301 389.504 354.92 389.219 354.662C388.938 354.401 388.603 354.27 388.214 354.27C387.626 354.27 387.164 354.56 386.829 355.139C386.494 355.719 386.325 356.553 386.322 357.641C386.322 358.368 386.397 358.983 386.548 359.486C386.701 359.986 386.918 360.365 387.2 360.624C387.481 360.879 387.819 361.007 388.214 361.007ZM392.922 362V361.045L395.875 357.986C396.19 357.653 396.45 357.362 396.654 357.112C396.862 356.859 397.017 356.619 397.119 356.392C397.221 356.165 397.272 355.923 397.272 355.668C397.272 355.378 397.204 355.128 397.068 354.918C396.931 354.705 396.745 354.541 396.51 354.428C396.274 354.311 396.008 354.253 395.713 354.253C395.4 354.253 395.127 354.317 394.895 354.445C394.662 354.572 394.483 354.753 394.358 354.986C394.233 355.219 394.17 355.491 394.17 355.804H392.913C392.913 355.273 393.035 354.808 393.279 354.411C393.524 354.013 393.859 353.705 394.285 353.486C394.711 353.264 395.196 353.153 395.738 353.153C396.287 353.153 396.77 353.263 397.187 353.482C397.608 353.697 397.936 353.993 398.172 354.368C398.407 354.74 398.525 355.161 398.525 355.629C398.525 355.953 398.464 356.27 398.342 356.58C398.223 356.889 398.014 357.234 397.716 357.615C397.417 357.993 397.002 358.452 396.471 358.991L394.737 360.807V360.871H398.666V362H392.922ZM403.23 362.119C402.619 362.119 402.079 362.014 401.61 361.804C401.145 361.594 400.779 361.304 400.515 360.935C400.251 360.565 400.12 360.145 400.123 359.673C400.12 359.304 400.196 358.964 400.349 358.655C400.505 358.342 400.717 358.082 400.984 357.875C401.251 357.665 401.549 357.531 401.879 357.474V357.423C401.444 357.318 401.096 357.085 400.835 356.724C400.574 356.364 400.444 355.949 400.447 355.48C400.444 355.034 400.562 354.636 400.801 354.287C401.042 353.935 401.373 353.658 401.794 353.456C402.214 353.254 402.693 353.153 403.23 353.153C403.761 353.153 404.235 353.256 404.653 353.46C405.074 353.662 405.404 353.939 405.646 354.291C405.887 354.641 406.01 355.037 406.012 355.48C406.01 355.949 405.876 356.364 405.612 356.724C405.348 357.085 405.004 357.318 404.581 357.423V357.474C404.907 357.531 405.201 357.665 405.463 357.875C405.727 358.082 405.937 358.342 406.093 358.655C406.252 358.964 406.333 359.304 406.336 359.673C406.333 360.145 406.2 360.565 405.936 360.935C405.672 361.304 405.305 361.594 404.836 361.804C404.37 362.014 403.835 362.119 403.23 362.119ZM403.23 361.041C403.591 361.041 403.903 360.982 404.167 360.862C404.431 360.74 404.636 360.571 404.781 360.355C404.926 360.136 405 359.881 405.002 359.588C405 359.284 404.92 359.016 404.764 358.783C404.61 358.55 404.402 358.366 404.137 358.233C403.873 358.099 403.571 358.033 403.23 358.033C402.886 358.033 402.581 358.099 402.314 358.233C402.047 358.366 401.836 358.55 401.683 358.783C401.529 359.016 401.454 359.284 401.457 359.588C401.454 359.881 401.524 360.136 401.666 360.355C401.811 360.571 402.017 360.74 402.284 360.862C402.551 360.982 402.866 361.041 403.23 361.041ZM403.23 356.98C403.52 356.98 403.777 356.922 404.001 356.805C404.225 356.689 404.402 356.527 404.529 356.32C404.66 356.112 404.727 355.869 404.73 355.591C404.727 355.318 404.662 355.08 404.534 354.875C404.409 354.67 404.234 354.513 404.01 354.402C403.785 354.288 403.525 354.232 403.23 354.232C402.929 354.232 402.664 354.288 402.437 354.402C402.213 354.513 402.038 354.67 401.913 354.875C401.788 355.08 401.727 355.318 401.73 355.591C401.727 355.869 401.789 356.112 401.917 356.32C402.045 356.527 402.221 356.689 402.446 356.805C402.673 356.922 402.934 356.98 403.23 356.98Z" fill="#121214"/>
<path d="M13.6096 293.273V302H12.2885V294.594H12.2374L10.1493 295.957V294.696L12.3269 293.273H13.6096ZM18.851 302.119C18.3169 302.119 17.8368 302.017 17.4107 301.812C16.9874 301.605 16.6493 301.321 16.3965 300.96C16.1436 300.599 16.0087 300.188 15.9917 299.724H17.2701C17.3013 300.099 17.4675 300.408 17.7686 300.649C18.0698 300.891 18.4306 301.011 18.851 301.011C19.1863 301.011 19.4831 300.935 19.7417 300.781C20.003 300.625 20.2076 300.411 20.3553 300.138C20.5059 299.865 20.5811 299.554 20.5811 299.205C20.5811 298.849 20.5044 298.533 20.351 298.254C20.1976 297.976 19.986 297.757 19.7161 297.598C19.449 297.439 19.1422 297.358 18.7956 297.355C18.5314 297.355 18.2658 297.401 17.9988 297.491C17.7317 297.582 17.5158 297.702 17.351 297.849L16.1451 297.67L16.6351 293.273H21.4334V294.402H17.7303L17.4533 296.844H17.5044C17.6749 296.679 17.9007 296.541 18.182 296.43C18.4661 296.32 18.7701 296.264 19.0939 296.264C19.6252 296.264 20.0982 296.391 20.513 296.643C20.9306 296.896 21.2587 297.241 21.4973 297.679C21.7388 298.114 21.8581 298.614 21.8553 299.179C21.8581 299.744 21.7303 300.249 21.4718 300.692C21.2161 301.135 20.861 301.484 20.4064 301.74C19.9547 301.993 19.4363 302.119 18.851 302.119ZM23.5311 302V293.273H24.8478V297.44H24.9544L28.6149 293.273H30.2726L26.7527 297.202L30.2853 302H28.7001L25.8791 298.101L24.8478 299.286V302H23.5311Z" fill="#121214"/>
<rect y="312" width="40" height="8" rx="4" fill="#746DDF"/>
<path d="M67.457 288.295V287.23L71.2283 281.273H72.0678V282.841H71.5352L68.8377 287.111V287.179H74.0067V288.295H67.457ZM71.5948 290V287.972L71.6033 287.486V281.273H72.8519V290H71.5948ZM78.5387 290.119C78.1495 290.114 77.766 290.043 77.3881 289.906C77.0131 289.77 76.6722 289.543 76.3654 289.224C76.0586 288.906 75.8129 288.479 75.6282 287.942C75.4464 287.405 75.3555 286.734 75.3555 285.93C75.3555 285.169 75.4308 284.493 75.5813 283.902C75.7347 283.311 75.9549 282.812 76.2418 282.406C76.5288 281.997 76.8754 281.686 77.2816 281.473C77.6879 281.26 78.1438 281.153 78.6495 281.153C79.1694 281.153 79.631 281.256 80.0344 281.46C80.4379 281.665 80.7646 281.947 81.0146 282.308C81.2674 282.669 81.4279 283.08 81.4961 283.54H80.1964C80.1083 283.176 79.9336 282.879 79.6722 282.649C79.4109 282.419 79.07 282.304 78.6495 282.304C78.0103 282.304 77.5117 282.582 77.1538 283.139C76.7987 283.696 76.6197 284.47 76.6168 285.462H76.6808C76.8313 285.214 77.016 285.004 77.2347 284.831C77.4563 284.655 77.7035 284.52 77.9762 284.426C78.2518 284.33 78.5415 284.281 78.8455 284.281C79.3512 284.281 79.8086 284.405 80.2177 284.652C80.6296 284.896 80.9577 285.234 81.2021 285.666C81.4464 286.098 81.5685 286.592 81.5685 287.149C81.5685 287.706 81.4421 288.21 81.1893 288.662C80.9393 289.114 80.587 289.472 80.1325 289.736C79.6779 289.997 79.1467 290.125 78.5387 290.119ZM78.5344 289.011C78.8697 289.011 79.1694 288.929 79.4336 288.764C79.6978 288.599 79.9066 288.378 80.06 288.099C80.2134 287.821 80.2901 287.51 80.2901 287.166C80.2901 286.831 80.2148 286.526 80.0643 286.25C79.9165 285.974 79.712 285.756 79.4506 285.594C79.1921 285.432 78.8967 285.351 78.5643 285.351C78.3114 285.351 78.0771 285.399 77.8612 285.496C77.6481 285.592 77.4606 285.726 77.2987 285.896C77.1367 286.067 77.0089 286.263 76.9151 286.484C76.8242 286.703 76.7788 286.935 76.7788 287.179C76.7788 287.506 76.854 287.808 77.0046 288.087C77.158 288.365 77.3668 288.589 77.631 288.76C77.8981 288.928 78.1992 289.011 78.5344 289.011ZM83.4148 290L87.2244 282.466V282.402H82.8182V281.273H88.5881V282.44L84.7912 290H83.4148ZM90.1893 290V281.273H91.506V285.44H91.6126L95.2731 281.273H96.9308L93.4109 285.202L96.9435 290H95.3583L92.5373 286.101L91.506 287.286V290H90.1893Z" fill="#121214"/>
<rect x="62" y="300" width="40" height="20" rx="4" fill="#746DDF"/>
<path d="M134.721 265.273V274H133.4V266.594H133.349L131.261 267.957V266.696L133.438 265.273H134.721ZM137.434 274.081C137.201 274.081 137.001 273.999 136.833 273.834C136.666 273.666 136.582 273.464 136.582 273.229C136.582 272.996 136.666 272.797 136.833 272.632C137.001 272.464 137.201 272.381 137.434 272.381C137.667 272.381 137.868 272.464 138.035 272.632C138.203 272.797 138.287 272.996 138.287 273.229C138.287 273.385 138.247 273.528 138.167 273.659C138.091 273.787 137.988 273.889 137.86 273.966C137.733 274.043 137.591 274.081 137.434 274.081ZM142.773 265.153C143.162 265.156 143.545 265.227 143.923 265.366C144.301 265.506 144.642 265.733 144.946 266.048C145.253 266.364 145.497 266.79 145.679 267.327C145.864 267.861 145.957 268.526 145.96 269.321C145.96 270.085 145.884 270.766 145.73 271.362C145.577 271.956 145.357 272.457 145.07 272.866C144.786 273.276 144.44 273.587 144.034 273.8C143.628 274.013 143.17 274.119 142.662 274.119C142.142 274.119 141.68 274.017 141.277 273.812C140.874 273.608 140.545 273.325 140.293 272.964C140.04 272.601 139.882 272.183 139.82 271.712H141.119C141.205 272.087 141.378 272.391 141.639 272.624C141.903 272.854 142.244 272.969 142.662 272.969C143.301 272.969 143.8 272.69 144.158 272.134C144.516 271.574 144.696 270.793 144.699 269.79H144.631C144.483 270.034 144.298 270.244 144.077 270.42C143.858 270.597 143.612 270.733 143.339 270.83C143.067 270.926 142.776 270.974 142.466 270.974C141.963 270.974 141.506 270.851 141.094 270.604C140.682 270.357 140.354 270.017 140.109 269.585C139.865 269.153 139.743 268.661 139.743 268.107C139.743 267.555 139.868 267.055 140.118 266.607C140.371 266.158 140.723 265.803 141.175 265.541C141.629 265.277 142.162 265.148 142.773 265.153ZM142.777 266.261C142.445 266.261 142.145 266.344 141.878 266.509C141.614 266.67 141.405 266.891 141.251 267.169C141.098 267.445 141.021 267.751 141.021 268.089C141.021 268.428 141.095 268.734 141.243 269.01C141.393 269.283 141.598 269.5 141.857 269.662C142.118 269.821 142.416 269.901 142.751 269.901C143.001 269.901 143.234 269.852 143.45 269.756C143.666 269.659 143.855 269.526 144.017 269.355C144.179 269.182 144.305 268.986 144.396 268.767C144.487 268.548 144.533 268.318 144.533 268.077C144.533 267.756 144.456 267.457 144.303 267.182C144.152 266.906 143.945 266.685 143.68 266.517C143.416 266.347 143.115 266.261 142.777 266.261ZM147.619 265.273H149.217L151.995 272.057H152.098L154.876 265.273H156.474V274H155.221V267.685H155.14L152.566 273.987H151.527L148.953 267.68H148.872V274H147.619V265.273Z" fill="#121214"/>
<rect x="124" y="284" width="40" height="36" rx="4" fill="#746DDF"/>
<path d="M192.049 228.295V227.23L195.82 221.273H196.66V222.841H196.127L193.43 227.111V227.179H198.599V228.295H192.049ZM196.187 230V227.972L196.195 227.486V221.273H197.444V230H196.187ZM200.612 230.081C200.379 230.081 200.179 229.999 200.011 229.834C199.844 229.666 199.76 229.464 199.76 229.229C199.76 228.996 199.844 228.797 200.011 228.632C200.179 228.464 200.379 228.381 200.612 228.381C200.845 228.381 201.045 228.464 201.213 228.632C201.381 228.797 201.464 228.996 201.464 229.229C201.464 229.385 201.425 229.528 201.345 229.659C201.268 229.787 201.166 229.889 201.038 229.966C200.91 230.043 200.768 230.081 200.612 230.081ZM205.95 221.153C206.34 221.156 206.723 221.227 207.101 221.366C207.479 221.506 207.82 221.733 208.124 222.048C208.431 222.364 208.675 222.79 208.857 223.327C209.041 223.861 209.135 224.526 209.138 225.321C209.138 226.085 209.061 226.766 208.908 227.362C208.754 227.956 208.534 228.457 208.247 228.866C207.963 229.276 207.618 229.587 207.212 229.8C206.806 230.013 206.348 230.119 205.84 230.119C205.32 230.119 204.858 230.017 204.455 229.812C204.051 229.608 203.723 229.325 203.47 228.964C203.218 228.601 203.06 228.183 202.997 227.712H204.297C204.382 228.087 204.556 228.391 204.817 228.624C205.081 228.854 205.422 228.969 205.84 228.969C206.479 228.969 206.977 228.69 207.335 228.134C207.693 227.574 207.874 226.793 207.877 225.79H207.808C207.661 226.034 207.476 226.244 207.254 226.42C207.036 226.597 206.79 226.733 206.517 226.83C206.244 226.926 205.953 226.974 205.644 226.974C205.141 226.974 204.683 226.851 204.271 226.604C203.86 226.357 203.531 226.017 203.287 225.585C203.043 225.153 202.921 224.661 202.921 224.107C202.921 223.555 203.046 223.055 203.296 222.607C203.548 222.158 203.901 221.803 204.352 221.541C204.807 221.277 205.34 221.148 205.95 221.153ZM205.955 222.261C205.622 222.261 205.323 222.344 205.056 222.509C204.791 222.67 204.583 222.891 204.429 223.169C204.276 223.445 204.199 223.751 204.199 224.089C204.199 224.428 204.273 224.734 204.421 225.01C204.571 225.283 204.776 225.5 205.034 225.662C205.296 225.821 205.594 225.901 205.929 225.901C206.179 225.901 206.412 225.852 206.628 225.756C206.844 225.659 207.033 225.526 207.195 225.355C207.357 225.182 207.483 224.986 207.574 224.767C207.665 224.548 207.71 224.318 207.71 224.077C207.71 223.756 207.634 223.457 207.48 223.182C207.33 222.906 207.122 222.685 206.858 222.517C206.594 222.347 206.293 222.261 205.955 222.261ZM210.797 221.273H212.395L215.173 228.057H215.275L218.054 221.273H219.652V230H218.399V223.685H218.318L215.744 229.987H214.704L212.131 223.68H212.05V230H210.797V221.273Z" fill="#121214"/>
<rect x="186" y="240" width="40" height="80" rx="4" fill="#746DDF"/>
<path d="M254.754 173.273V182H253.433V174.594H253.382L251.294 175.957V174.696L253.471 173.273H254.754ZM260.153 182.145C259.48 182.142 258.905 181.964 258.427 181.612C257.95 181.26 257.585 180.747 257.332 180.074C257.079 179.401 256.953 178.589 256.953 177.641C256.953 176.695 257.079 175.886 257.332 175.216C257.588 174.545 257.954 174.034 258.432 173.682C258.912 173.33 259.486 173.153 260.153 173.153C260.821 173.153 261.393 173.331 261.871 173.686C262.348 174.038 262.713 174.55 262.966 175.22C263.221 175.888 263.349 176.695 263.349 177.641C263.349 178.592 263.223 179.405 262.97 180.078C262.717 180.749 262.352 181.261 261.875 181.616C261.398 181.969 260.824 182.145 260.153 182.145ZM260.153 181.007C260.744 181.007 261.206 180.719 261.538 180.142C261.873 179.565 262.041 178.732 262.041 177.641C262.041 176.916 261.964 176.304 261.811 175.804C261.66 175.301 261.443 174.92 261.159 174.662C260.878 174.401 260.542 174.27 260.153 174.27C259.565 174.27 259.104 174.56 258.768 175.139C258.433 175.719 258.264 176.553 258.261 177.641C258.261 178.368 258.336 178.983 258.487 179.486C258.64 179.986 258.858 180.365 259.139 180.624C259.42 180.879 259.758 181.007 260.153 181.007ZM265.401 182.081C265.168 182.081 264.968 181.999 264.8 181.834C264.633 181.666 264.549 181.464 264.549 181.229C264.549 180.996 264.633 180.797 264.8 180.632C264.968 180.464 265.168 180.381 265.401 180.381C265.634 180.381 265.834 180.464 266.002 180.632C266.17 180.797 266.253 180.996 266.253 181.229C266.253 181.385 266.214 181.528 266.134 181.659C266.057 181.787 265.955 181.889 265.827 181.966C265.699 182.043 265.557 182.081 265.401 182.081ZM270.74 173.153C271.129 173.156 271.512 173.227 271.89 173.366C272.268 173.506 272.609 173.733 272.913 174.048C273.22 174.364 273.464 174.79 273.646 175.327C273.83 175.861 273.924 176.526 273.927 177.321C273.927 178.085 273.85 178.766 273.697 179.362C273.544 179.956 273.323 180.457 273.036 180.866C272.752 181.276 272.407 181.587 272.001 181.8C271.595 182.013 271.137 182.119 270.629 182.119C270.109 182.119 269.647 182.017 269.244 181.812C268.84 181.608 268.512 181.325 268.259 180.964C268.007 180.601 267.849 180.183 267.786 179.712H269.086C269.171 180.087 269.345 180.391 269.606 180.624C269.87 180.854 270.211 180.969 270.629 180.969C271.268 180.969 271.767 180.69 272.124 180.134C272.482 179.574 272.663 178.793 272.666 177.79H272.597C272.45 178.034 272.265 178.244 272.044 178.42C271.825 178.597 271.579 178.733 271.306 178.83C271.034 178.926 270.742 178.974 270.433 178.974C269.93 178.974 269.472 178.851 269.061 178.604C268.649 178.357 268.32 178.017 268.076 177.585C267.832 177.153 267.71 176.661 267.71 176.107C267.71 175.555 267.835 175.055 268.085 174.607C268.338 174.158 268.69 173.803 269.142 173.541C269.596 173.277 270.129 173.148 270.74 173.153ZM270.744 174.261C270.411 174.261 270.112 174.344 269.845 174.509C269.58 174.67 269.372 174.891 269.218 175.169C269.065 175.445 268.988 175.751 268.988 176.089C268.988 176.428 269.062 176.734 269.21 177.01C269.36 177.283 269.565 177.5 269.823 177.662C270.085 177.821 270.383 177.901 270.718 177.901C270.968 177.901 271.201 177.852 271.417 177.756C271.633 177.659 271.822 177.526 271.984 177.355C272.146 177.182 272.272 176.986 272.363 176.767C272.454 176.548 272.499 176.318 272.499 176.077C272.499 175.756 272.423 175.457 272.269 175.182C272.119 174.906 271.911 174.685 271.647 174.517C271.383 174.347 271.082 174.261 270.744 174.261ZM275.586 173.273H277.184L279.962 180.057H280.064L282.843 173.273H284.441V182H283.188V175.685H283.107L280.533 181.987H279.493L276.92 175.68H276.839V182H275.586V173.273Z" fill="#121214"/>
<rect x="248" y="192" width="40" height="128" rx="4" fill="#746DDF"/>
<path d="M312.658 110V109.045L315.611 105.986C315.926 105.653 316.186 105.362 316.391 105.112C316.598 104.859 316.753 104.619 316.855 104.392C316.958 104.165 317.009 103.923 317.009 103.668C317.009 103.378 316.941 103.128 316.804 102.918C316.668 102.705 316.482 102.541 316.246 102.428C316.01 102.311 315.744 102.253 315.449 102.253C315.137 102.253 314.864 102.317 314.631 102.445C314.398 102.572 314.219 102.753 314.094 102.986C313.969 103.219 313.906 103.491 313.906 103.804H312.649C312.649 103.273 312.771 102.808 313.016 102.411C313.26 102.013 313.595 101.705 314.021 101.486C314.448 101.264 314.932 101.153 315.475 101.153C316.023 101.153 316.506 101.263 316.923 101.482C317.344 101.697 317.672 101.993 317.908 102.368C318.144 102.74 318.262 103.161 318.262 103.629C318.262 103.953 318.2 104.27 318.078 104.58C317.959 104.889 317.75 105.234 317.452 105.615C317.154 105.993 316.739 106.452 316.208 106.991L314.473 108.807V108.871H318.402V110H312.658ZM323.056 110.119C322.47 110.119 321.948 110.018 321.487 109.817C321.03 109.615 320.668 109.335 320.401 108.977C320.137 108.616 319.994 108.199 319.975 107.724H321.313C321.33 107.983 321.416 108.207 321.573 108.398C321.732 108.585 321.939 108.73 322.195 108.832C322.45 108.935 322.735 108.986 323.047 108.986C323.391 108.986 323.695 108.926 323.959 108.807C324.226 108.687 324.435 108.521 324.585 108.308C324.736 108.092 324.811 107.844 324.811 107.562C324.811 107.27 324.736 107.013 324.585 106.791C324.438 106.567 324.22 106.391 323.933 106.263C323.649 106.135 323.306 106.071 322.902 106.071H322.165V104.997H322.902C323.226 104.997 323.51 104.939 323.754 104.822C324.002 104.706 324.195 104.544 324.334 104.337C324.473 104.126 324.543 103.881 324.543 103.599C324.543 103.33 324.482 103.095 324.36 102.896C324.24 102.695 324.07 102.537 323.848 102.423C323.629 102.31 323.371 102.253 323.073 102.253C322.789 102.253 322.523 102.305 322.276 102.411C322.031 102.513 321.833 102.661 321.679 102.854C321.526 103.044 321.443 103.273 321.432 103.54H320.158C320.172 103.068 320.311 102.653 320.575 102.295C320.843 101.937 321.195 101.658 321.632 101.456C322.07 101.254 322.556 101.153 323.09 101.153C323.649 101.153 324.132 101.263 324.539 101.482C324.948 101.697 325.263 101.986 325.485 102.347C325.709 102.707 325.82 103.102 325.817 103.531C325.82 104.02 325.683 104.435 325.408 104.776C325.135 105.116 324.771 105.345 324.317 105.462V105.53C324.896 105.618 325.345 105.848 325.664 106.22C325.985 106.592 326.144 107.054 326.141 107.605C326.144 108.085 326.01 108.516 325.74 108.896C325.473 109.277 325.108 109.577 324.645 109.795C324.182 110.011 323.652 110.119 323.056 110.119ZM328.35 110.081C328.117 110.081 327.917 109.999 327.749 109.834C327.582 109.666 327.498 109.464 327.498 109.229C327.498 108.996 327.582 108.797 327.749 108.632C327.917 108.464 328.117 108.381 328.35 108.381C328.583 108.381 328.784 108.464 328.951 108.632C329.119 108.797 329.203 108.996 329.203 109.229C329.203 109.385 329.163 109.528 329.083 109.659C329.007 109.787 328.904 109.889 328.776 109.966C328.649 110.043 328.507 110.081 328.35 110.081ZM330.892 110V109.045L333.845 105.986C334.161 105.653 334.421 105.362 334.625 105.112C334.833 104.859 334.987 104.619 335.09 104.392C335.192 104.165 335.243 103.923 335.243 103.668C335.243 103.378 335.175 103.128 335.039 102.918C334.902 102.705 334.716 102.541 334.48 102.428C334.244 102.311 333.979 102.253 333.683 102.253C333.371 102.253 333.098 102.317 332.865 102.445C332.632 102.572 332.453 102.753 332.328 102.986C332.203 103.219 332.141 103.491 332.141 103.804H330.884C330.884 103.273 331.006 102.808 331.25 102.411C331.494 102.013 331.83 101.705 332.256 101.486C332.682 101.264 333.166 101.153 333.709 101.153C334.257 101.153 334.74 101.263 335.158 101.482C335.578 101.697 335.906 101.993 336.142 102.368C336.378 102.74 336.496 103.161 336.496 103.629C336.496 103.953 336.435 104.27 336.313 104.58C336.193 104.889 335.985 105.234 335.686 105.615C335.388 105.993 334.973 106.452 334.442 106.991L332.708 108.807V108.871H336.637V110H330.892ZM338.371 101.273H339.969L342.747 108.057H342.85L345.628 101.273H347.226V110H345.973V103.685H345.892L343.318 109.987H342.279L339.705 103.68H339.624V110H338.371V101.273Z" fill="#121214"/>
<rect x="310" y="120" width="40" height="200" rx="4" fill="#746DDF"/>
<path d="M375.195 52.2955V51.2301L378.967 45.2727H379.806V46.8409H379.273L376.576 51.1108V51.179H381.745V52.2955H375.195ZM379.333 54V51.9716L379.342 51.4858V45.2727H380.59V54H379.333ZM386.424 45.2727V54H385.103V46.5938H385.052L382.964 47.9574V46.696L385.141 45.2727H386.424ZM389.137 54.081C388.904 54.081 388.704 53.9986 388.537 53.8338C388.369 53.6662 388.285 53.4645 388.285 53.2287C388.285 52.9957 388.369 52.7969 388.537 52.6321C388.704 52.4645 388.904 52.3807 389.137 52.3807C389.37 52.3807 389.571 52.4645 389.738 52.6321C389.906 52.7969 389.99 52.9957 389.99 53.2287C389.99 53.3849 389.95 53.5284 389.87 53.6591C389.794 53.7869 389.691 53.8892 389.564 53.9659C389.436 54.0426 389.294 54.081 389.137 54.081ZM391.496 52.2955V51.2301L395.267 45.2727H396.107V46.8409H395.574L392.877 51.1108V51.179H398.046V52.2955H391.496ZM395.634 54V51.9716L395.642 51.4858V45.2727H396.891V54H395.634ZM399.65 45.2727H401.248L404.027 52.0568H404.129L406.907 45.2727H408.505V54H407.252V47.6847H407.172L404.598 53.9872H403.558L400.984 47.6804H400.903V54H399.65V45.2727Z" fill="#121214"/>
<rect x="372" y="64" width="40" height="256" rx="4" fill="#746DDF"/>
</svg>
