<svg width="713" height="600" viewBox="0 0 713 600" fill="none" xmlns="http://www.w3.org/2000/svg">
<rect x="330.555" y="117" width="27.28" height="12" transform="rotate(100 330.555 117)" fill="#9DED1A" fill-opacity="0.9"/>
<rect x="166.555" y="421" width="27.28" height="6" transform="rotate(51 166.555 421)" fill="#9DED1A" fill-opacity="0.6"/>
<rect x="6.55469" y="595" width="7.28" height="8" transform="rotate(44 6.55469 595)" fill="#FC9E1C" fill-opacity="0.6"/>
<rect x="505.555" y="469" width="34.28" height="12" transform="rotate(84 505.555 469)" fill="#F62584"/>
<rect x="663.555" y="193" width="34.28" height="12" transform="rotate(-134 663.555 193)" fill="#755FFE"/>
<rect x="537.555" y="137" width="41.28" height="6" transform="rotate(-38 537.555 137)" fill="#DCBCFA" fill-opacity="0.9"/>
<rect x="15.5547" y="593" width="12.28" height="7" transform="rotate(-26 15.5547 593)" fill="#C9FCBE" fill-opacity="0.9"/>
<rect x="266.555" y="178" width="33.28" height="11" transform="rotate(-4 266.555 178)" fill="#FC9E1C" fill-opacity="0.6"/>
<rect x="469.555" y="388" width="29.28" height="12" transform="rotate(154 469.555 388)" fill="#4BC8EF" fill-opacity="0.85"/>
<rect x="59.5547" y="404" width="29.28" height="8" transform="rotate(-146 59.5547 404)" fill="#4BC8EF" fill-opacity="0.9"/>
<rect x="408.555" y="522" width="36.28" height="11" transform="rotate(-165 408.555 522)" fill="#FC9E1C" fill-opacity="0.9"/>
<rect x="441.555" y="532" width="9.28" height="6" transform="rotate(86 441.555 532)" fill="#FF21FB" fill-opacity="0.85"/>
<rect x="517.555" y="330" width="10.28" height="9" transform="rotate(76 517.555 330)" fill="#03A3F5" fill-opacity="0.65"/>
<rect x="196.555" y="429" width="24.28" height="8" transform="rotate(21 196.555 429)" fill="#FF21FB"/>
<rect x="416.555" y="429" width="12.28" height="12" transform="rotate(144 416.555 429)" fill="#480CA7" fill-opacity="0.45"/>
<rect x="85.5547" y="266" width="19.28" height="6" transform="rotate(-29 85.5547 266)" fill="#4BC8EF" fill-opacity="0.45"/>
<circle cx="630.155" cy="170.6" r="2.6" fill="#F54721" fill-opacity="0.6"/>
<circle cx="541.155" cy="511.6" r="2.6" fill="#F62584" fill-opacity="0.75"/>
<circle cx="42.6547" cy="292.1" r="4.1" fill="#F54721" fill-opacity="0.6"/>
<circle cx="610.655" cy="57.1" r="4.1" fill="#DCBCFA" fill-opacity="0.35"/>
<circle cx="451.655" cy="493.1" r="4.1" fill="#9AF5FC"/>
<circle cx="697.155" cy="447.6" r="3.6" fill="#FFED36" fill-opacity="0.6"/>
<circle cx="184.155" cy="150.6" r="3.6" fill="#FC9E1C" fill-opacity="0.45"/>
<circle cx="561.155" cy="548.6" r="7.6" fill="#F62584" fill-opacity="0.35"/>
<circle cx="575.155" cy="258.6" r="5.6" fill="#FFED36" fill-opacity="0.85"/>
<circle cx="265.655" cy="247.1" r="6.1" fill="#FFED36" fill-opacity="0.85"/>
<circle cx="337.155" cy="269.6" r="2.6" fill="#FC9E1C" fill-opacity="0.65"/>
<circle cx="89.6547" cy="156.1" r="4.1" fill="#755FFE" fill-opacity="0.75"/>
<path d="M498.723 570.113L506.78 570.394L506.498 578.45L498.442 578.169L498.723 570.113Z" fill="#755FFE" fill-opacity="0.35"/>
<path d="M60.8029 436.95L52.1149 436.494L48.1651 428.743L52.9035 421.446L61.5916 421.902L65.5413 429.653L60.8029 436.95Z" fill="#FF21FB" fill-opacity="0.45"/>
<path d="M139.004 128.682L131.701 131.632L126.639 125.599L130.812 118.919L138.455 120.825L139.004 128.682Z" fill="#C9FCBE" fill-opacity="0.75"/>
<path d="M201.934 202.811L209.688 200.142L215.876 205.521L214.312 213.571L206.558 216.24L200.37 210.861L201.934 202.811Z" fill="#FF21FB" fill-opacity="0.85"/>
<path d="M571.987 364.815L575.454 359.675L581.639 360.108L584.357 365.68L580.89 370.82L574.705 370.388L571.987 364.815Z" fill="#03A3F5" fill-opacity="0.75"/>
<path d="M126.32 328.463L128.486 340.744L116.767 336.479L126.32 328.463Z" fill="#BA3E03"/>
<path d="M201.715 546.373L202.22 555.999L193.22 559.454L187.154 551.962L192.404 543.878L201.715 546.373Z" fill="#C9FCBE" fill-opacity="0.45"/>
<path d="M245.753 98.8753L231.683 91.3943L245.197 82.9501L245.753 98.8753Z" fill="#FFED36" fill-opacity="0.35"/>
<path d="M455.626 416.79L442.208 406.679L457.673 400.114L455.626 416.79Z" fill="#C9FCBE" fill-opacity="0.65"/>
<path d="M216.86 72.6164L227.55 70.5386L229.628 81.228L218.938 83.3058L216.86 72.6164Z" fill="#FC9E1C" fill-opacity="0.75"/>
<path d="M131.286 555.305L136.348 547.8L145.049 550.295L145.365 559.342L136.859 562.438L131.286 555.305Z" fill="#F54721" fill-opacity="0.75"/>
<path d="M380.41 327.611L387.656 324.077L391.189 331.322L383.944 334.856L380.41 327.611Z" fill="#C9FCBE" fill-opacity="0.65"/>
<path d="M276.26 164.979L289.767 160.59L286.814 174.483L276.26 164.979Z" fill="#F62584" fill-opacity="0.6"/>
<path d="M543.079 507.056L535.54 513.16L526.484 509.684L524.967 500.103L532.505 493.999L541.561 497.475L543.079 507.056Z" fill="#BA3E03" fill-opacity="0.75"/>
<path d="M691.042 59.9062L702.622 59.2993L703.229 70.88L691.648 71.4869L691.042 59.9062Z" fill="#FC9E1C"/>
<path d="M267.829 395.272L278.446 393.208L283.689 402.667L276.313 410.577L266.511 406.006L267.829 395.272Z" fill="#C9FCBE" fill-opacity="0.65"/>
<path d="M186.115 234.545L176.266 238.726L167.72 232.287L169.024 221.667L178.874 217.486L187.419 223.925L186.115 234.545Z" fill="#DCBCFA" fill-opacity="0.65"/>
<path d="M571.508 18.5398L571.23 2.60731L585.167 10.3327L571.508 18.5398Z" fill="#9AF5FC" fill-opacity="0.35"/>
<path d="M700.781 498.168L711.839 503.561L706.446 514.62L695.387 509.226L700.781 498.168Z" fill="#9AF5FC" fill-opacity="0.6"/>
<path d="M377.678 462.534L378.421 448.351L390.332 456.086L377.678 462.534Z" fill="#755FFE" fill-opacity="0.85"/>
<path d="M481.16 273.041L476.374 273.655L473.724 277.687L473.111 272.901L469.078 270.252L473.864 269.638L476.514 265.605L477.127 270.391L481.16 273.041Z" fill="#755FFE"/>
<path d="M227.878 550.677L224.511 548.962L221.84 551.633L222.431 547.902L219.065 546.187L222.796 545.596L223.387 541.864L225.103 545.23L228.834 544.639L226.163 547.311L227.878 550.677Z" fill="#DCBCFA" fill-opacity="0.45"/>
<path d="M73.2978 521.747L78.4832 526.594L83.4962 521.569L81.8908 528.483L88.7496 530.312L81.9587 532.379L83.8046 539.233L78.6192 534.385L73.6061 539.411L75.2116 532.496L68.3527 530.668L75.1436 528.601L73.2978 521.747Z" fill="#F62584" fill-opacity="0.6"/>
<path d="M115.018 515.681L109.266 517.364L106.799 522.825L105.117 517.074L99.6551 514.607L105.407 512.924L107.873 507.463L109.556 513.215L115.018 515.681Z" fill="#9AF5FC" fill-opacity="0.85"/>
<path d="M161.948 46.9455L157.904 47.1083L155.395 50.2841L155.233 46.2403L152.057 43.7317L156.101 43.5689L158.609 40.3931L158.772 44.4369L161.948 46.9455Z" fill="#03A3F5" fill-opacity="0.65"/>
<path d="M452.829 216.187L449.226 213.599L444.916 214.649L447.505 211.046L446.454 206.736L450.057 209.325L454.367 208.274L451.779 211.877L452.829 216.187Z" fill="#755FFE" fill-opacity="0.6"/>
<path d="M562.579 539.172L557.021 537.881L555.55 543.395L553.889 537.936L548.379 539.42L552.276 535.251L548.235 531.221L553.794 532.512L555.264 526.998L556.926 532.457L562.436 530.973L558.539 535.142L562.579 539.172Z" fill="#480CA7"/>
<path d="M212.185 231.595L208.371 227.349L204.005 231.023L205.775 225.598L200.41 223.653L205.993 222.473L204.995 216.854L208.808 221.1L213.175 217.426L211.405 222.852L216.77 224.797L211.187 225.976L212.185 231.595Z" fill="#03A3F5" fill-opacity="0.6"/>
<path d="M479.799 -3.31071L484.449 2.05241L489.96 -2.42172L487.641 4.28709L494.271 6.82262L487.301 8.16832L488.42 15.178L483.77 9.81486L478.259 14.289L480.579 7.58018L473.949 5.04464L480.918 3.69895L479.799 -3.31071Z" fill="#755FFE" fill-opacity="0.85"/>
<path d="M578.779 528.534L587.02 527.331L591.47 520.292L592.673 528.533L599.712 532.983L591.471 534.186L587.021 541.225L585.818 532.984L578.779 528.534Z" fill="#FF21FB" fill-opacity="0.9"/>
<path d="M627.02 482.35L621.81 478.025L615.136 479.166L619.46 473.955L618.32 467.281L623.53 471.606L630.205 470.466L625.88 475.676L627.02 482.35Z" fill="#FF21FB" fill-opacity="0.6"/>
<path d="M641.464 111.199L637.644 112.537L636.174 116.308L634.836 112.488L631.066 111.018L634.885 109.68L636.355 105.909L637.693 109.729L641.464 111.199Z" fill="#4BC8EF" fill-opacity="0.75"/>
<path d="M459.276 355.423L463.433 353.311L461.458 349.088L465.365 351.633L468.034 347.81L467.785 352.466L472.43 352.866L468.273 354.978L470.249 359.201L466.341 356.657L463.672 360.48L463.922 355.824L459.276 355.423Z" fill="#03A3F5" fill-opacity="0.75"/>
<path d="M100.756 493.385L101.558 487.446L97.5722 482.971L103.511 483.774L107.986 479.788L107.184 485.726L111.17 490.201L105.231 489.399L100.756 493.385Z" fill="#755FFE" fill-opacity="0.9"/>
<path d="M375.204 196.182L377.332 191.403L373.444 187.903L378.647 188.45L380.774 183.671L381.862 188.788L387.064 189.335L382.534 191.95L383.622 197.067L379.734 193.567L375.204 196.182Z" fill="#BA3E03" fill-opacity="0.65"/>
<path d="M88.4339 488.725L85.1767 485.108L80.7297 487.088L83.1636 482.872L79.9064 479.254L84.6679 480.266L87.1018 476.051L87.6106 480.892L92.3721 481.904L87.9251 483.884L88.4339 488.725Z" fill="#03A3F5" fill-opacity="0.65"/>
<path d="M470.727 95.9738L462.603 94.1439L455.926 99.1199L457.756 90.9959L452.78 84.3185L460.904 86.1484L467.581 81.1724L465.751 89.2964L470.727 95.9738Z" fill="#480CA7"/>
<path d="M538.656 47.9495L533.45 44.9809L527.808 47.0004L530.777 41.7946L528.757 36.1524L533.963 39.121L539.605 37.1015L536.637 42.3073L538.656 47.9495Z" fill="#F62584" fill-opacity="0.85"/>
<path d="M615.915 277.852L608.01 278.587L603.422 285.065L602.688 277.161L596.21 272.573L604.114 271.838L608.702 265.36L609.436 273.264L615.915 277.852Z" fill="#03A3F5" fill-opacity="0.45"/>
</svg>
